<svg id="formatterH2" width="24" height="20" viewBox="0 0 24 20" fill="none" xmlns="http://www.w3.org/2000/svg">
    <path d="M2.33099 10.175H1.70599V10.8V18.8C1.70599 18.9664 1.64405 19.1178 1.54638 19.2228C1.45013 19.3262 1.32961 19.375 1.21432 19.375C1.09903 19.375 0.978514 19.3262 0.882264 19.2228C0.784598 19.1178 0.722656 18.9664 0.722656 18.8V1.2C0.722656 1.03357 0.784598 0.882194 0.882263 0.777241C0.978515 0.673806 1.09903 0.625 1.21432 0.625C1.32961 0.625 1.45013 0.673806 1.54638 0.777241C1.64405 0.882194 1.70599 1.03356 1.70599 1.2V8.4V9.025H2.33099H9.77543H10.4004V8.4V1.2C10.4004 1.03357 10.4624 0.882195 10.56 0.777241C10.6563 0.673806 10.7768 0.625 10.8921 0.625C11.0074 0.625 11.1279 0.673806 11.2242 0.777241C11.3218 0.882195 11.3838 1.03357 11.3838 1.2V18.8C11.3838 18.9664 11.3218 19.1178 11.2242 19.2228C11.1279 19.3262 11.0074 19.375 10.8921 19.375C10.7768 19.375 10.6563 19.3262 10.56 19.2228C10.4624 19.1178 10.4004 18.9664 10.4004 18.8V10.8V10.175H9.77543H2.33099Z" fill="#323F4B" stroke="#323F4B" stroke-width="1.25"></path>
    <path d="M18.4929 11.2019C18.0539 11.549 17.6009 11.9091 17.1615 12.2878L17.1612 12.2881C15.4091 13.7962 13.75 15.7134 13.75 18.8C13.75 18.9664 13.8119 19.1178 13.9096 19.2228C14.0059 19.3262 14.1264 19.375 14.2417 19.375H22.8028C22.9181 19.375 23.0386 19.3262 23.1349 19.2228C23.2325 19.1178 23.2945 18.9664 23.2945 18.8C23.2945 18.6336 23.2325 18.4822 23.1349 18.3772C23.0386 18.2738 22.9181 18.225 22.8028 18.225H15.4789H14.7091L14.8673 17.4715C15.2449 15.6733 16.3802 14.386 17.7421 13.2129L17.7434 13.2117C18.1646 12.851 18.6004 12.5035 19.0399 12.1561L19.0413 12.155L19.1401 12.0774L19.141 12.0766L19.1843 12.0425C19.5754 11.7339 19.9675 11.4245 20.3381 11.1104L20.339 11.1096C21.1693 10.4087 21.9524 9.64022 22.4697 8.7118L22.4701 8.71106C23.4858 6.89391 23.5807 4.88244 22.9292 3.30222C22.2709 1.70869 20.883 0.625 19.0806 0.625C16.2263 0.625 14.1222 3.26705 14.1222 6C14.1222 6.16643 14.1842 6.3178 14.2818 6.42276C14.3781 6.52619 14.4986 6.575 14.6139 6.575C14.7292 6.575 14.8497 6.52619 14.946 6.42276L15.3742 6.82123L14.946 6.42276C15.0436 6.3178 15.1056 6.16643 15.1056 6C15.1056 3.92733 16.742 1.775 19.0806 1.775C20.5257 1.775 21.5563 2.6229 22.0419 3.7981L22.0421 3.79859C22.5308 4.98393 22.4924 6.57234 21.6467 8.08709C21.2332 8.82761 20.5749 9.49271 19.7641 10.178L18.4929 11.2019ZM18.4929 11.2019C18.4934 11.2015 18.4939 11.2011 18.4944 11.2007L18.5835 11.1312L18.5855 11.1297C18.9963 10.8066 19.3898 10.4949 19.7639 10.1781L18.4929 11.2019Z" fill="#323F4B" stroke="#323F4B" stroke-width="1.25"></path>
    </svg>