<svg id="formatterH3" width="25" height="20" viewBox="0 0 25 20" fill="none" xmlns="http://www.w3.org/2000/svg">
    <path d="M3.0263 10.175H2.4013V10.8V18.8C2.4013 18.9664 2.33936 19.1178 2.24169 19.2228C2.14544 19.3262 2.02493 19.375 1.90963 19.375C1.79434 19.375 1.67383 19.3262 1.57758 19.2228C1.47991 19.1178 1.41797 18.9664 1.41797 18.8V1.2C1.41797 1.03357 1.47991 0.882194 1.57758 0.777241C1.67383 0.673806 1.79435 0.625 1.90963 0.625C2.02492 0.625 2.14544 0.673806 2.24169 0.777241C2.33936 0.882194 2.4013 1.03356 2.4013 1.2V8.4V9.025H3.0263H10.4707H11.0957V8.4V1.2C11.0957 1.03357 11.1577 0.882195 11.2553 0.777241C11.3516 0.673806 11.4721 0.625 11.5874 0.625C11.7027 0.625 11.8232 0.673806 11.9195 0.777241C12.0171 0.882195 12.0791 1.03357 12.0791 1.2V18.8C12.0791 18.9664 12.0171 19.1178 11.9195 19.2228C11.8232 19.3262 11.7027 19.375 11.5874 19.375C11.4721 19.375 11.3516 19.3262 11.2553 19.2228C11.1577 19.1178 11.0957 18.9664 11.0957 18.8V10.8V10.175H10.4707H3.0263Z" fill="#323F4B" stroke="#323F4B" stroke-width="1.25"></path>
    <path d="M22.2082 3.0473L22.2083 3.0475C22.7767 3.76138 23.0069 4.6217 23.0069 5.2C23.0069 5.84335 22.858 6.89266 22.2216 7.77392L21.7149 7.408M22.2082 3.0473L15.0424 15.4723M22.2082 3.0473C21.6548 2.35282 20.7651 1.775 19.4042 1.775C17.9885 1.775 17.161 2.16024 16.658 2.61466C16.1604 3.06427 15.9242 3.63667 15.7819 4.15693C15.7346 4.30327 15.6414 4.4127 15.5343 4.47335C15.4271 4.53403 15.3078 4.54588 15.1971 4.51152C15.0848 4.47666 14.9762 4.39203 14.9052 4.25968L14.3546 4.5554L14.9052 4.25968C14.835 4.12897 14.8118 3.96958 14.8448 3.81667C15.0188 3.17123 15.3415 2.35377 16.0592 1.70538L16.0593 1.70533C16.7812 1.053 17.8412 0.625 19.4042 0.625C21.0215 0.625 22.1787 1.32437 22.9276 2.26588L22.9277 2.26597C23.6621 3.18896 23.9903 4.32711 23.9903 5.2C23.9903 6.00806 23.8071 7.35577 22.9751 8.51302C22.7147 8.87337 22.4014 9.20129 22.031 9.48398L21.3283 10.0204M22.2082 3.0473L21.3283 10.0204M21.7149 7.408L22.2223 7.77298C21.6047 8.63153 20.4553 9.425 18.2875 9.425C18.1722 9.425 18.0517 9.47381 17.9555 9.57724L17.4979 9.15147L17.9555 9.57724C17.8578 9.68219 17.7958 9.83357 17.7958 10C17.7958 10.1664 17.8578 10.3178 17.9555 10.4228C18.0517 10.5262 18.1722 10.575 18.2875 10.575C19.0282 10.575 20.2567 10.7654 21.2812 11.3231L20.9824 11.872L21.2805 11.3227C21.7781 11.5927 22.2146 11.9364 22.5263 12.3889C22.8432 12.849 23.0069 13.3872 23.0069 14C23.0069 15.466 22.5852 16.5022 21.9566 17.1778C21.322 17.8597 20.4255 18.225 19.4042 18.225C18.3287 18.225 17.4909 18.03 16.8954 17.6457M21.7149 7.408C22.2465 6.672 22.3819 5.7696 22.3819 5.2C22.3819 4.7568 22.1958 4.0352 21.7194 3.4368L21.7149 7.408ZM16.8954 17.6457C16.8957 17.6459 16.8959 17.6461 16.8961 17.6462L17.2334 17.12M16.8954 17.6457C16.895 17.6455 16.8946 17.6452 16.8942 17.6449L17.2334 17.12M16.8954 17.6457C16.3227 17.2784 15.9466 16.7186 15.7897 15.8797L15.7878 15.8695L15.7863 15.8593C15.7737 15.7775 15.7463 15.7013 15.7072 15.6349C15.6682 15.5686 15.619 15.5146 15.5646 15.4742C15.5104 15.4339 15.4518 15.4076 15.3928 15.3945C15.3338 15.3814 15.2735 15.3812 15.2145 15.3939C15.1555 15.4066 15.0968 15.4324 15.0424 15.4723M17.2334 17.12C16.8239 16.8576 16.5336 16.4576 16.4041 15.7648L17.2334 17.12ZM15.0424 15.4723C14.9879 15.5122 14.9385 15.5658 14.8991 15.6317C14.8597 15.6977 14.8318 15.7737 14.8188 15.8554C14.8058 15.9371 14.8082 16.0208 14.8259 16.1011L14.8281 16.1111L14.8299 16.1211C15.0452 17.2809 15.5993 18.1217 16.4225 18.6538L15.0424 15.4723ZM21.3283 10.0204L22.0683 10.504M21.3283 10.0204L22.0683 10.504M22.0683 10.504C23.1058 11.182 23.9903 12.2841 23.9903 14C23.9903 15.735 23.4809 17.0984 22.6212 18.0222C21.7673 18.9399 20.6167 19.375 19.4042 19.375C18.247 19.375 17.2238 19.1702 16.4226 18.6539L22.0683 10.504Z" fill="#323F4B" stroke="#323F4B" stroke-width="1.25"></path>
    </svg>