<svg id="formatterListNumeric" width="22" height="20" viewBox="0 0 22 20" fill="none" xmlns="http://www.w3.org/2000/svg">

    <path d="M2.64812 16.4732L3.37512 15.5737C3.5198 15.4003 3.59543 15.1728 3.58574 14.9402V14.7924C3.58574 14.4643 3.42621 14.2857 3.11464 14.2857H0.746714C0.658571 14.2857 0.574039 14.3233 0.511713 14.3903C0.449387 14.4573 0.414372 14.5481 0.414372 14.6429V15.3571C0.414372 15.4519 0.449387 15.5427 0.511713 15.6097C0.574039 15.6767 0.658571 15.7143 0.746714 15.7143H1.69513C1.53397 15.8888 1.38144 16.0722 1.23816 16.2638L1.00511 16.5763C0.838938 16.8027 0.78701 17.0286 0.888789 17.2406L0.932409 17.3268C1.05704 17.5839 1.19371 17.6786 1.44131 17.6786H1.6378C2.06694 17.6786 2.29999 17.7875 2.29999 18.0844C2.29999 18.2951 2.12551 18.4513 1.70344 18.4513C1.48291 18.4495 1.26475 18.4022 1.06078 18.3121C0.791164 18.1388 0.573065 18.1558 0.412711 18.4513L0.180487 18.867C0.0259487 19.1406 0.0479663 19.3902 0.289744 19.5786C0.610038 19.7879 1.13638 20 1.82682 20C3.24592 20 3.84164 18.9844 3.84164 18.0304C3.84039 17.3884 3.46277 16.7018 2.64812 16.4732ZM20.6872 8.57143H7.39354C7.21725 8.57143 7.04819 8.64668 6.92354 8.78064C6.79888 8.91459 6.72886 9.09627 6.72886 9.28571V10.7143C6.72886 10.9037 6.79888 11.0854 6.92354 11.2194C7.04819 11.3533 7.21725 11.4286 7.39354 11.4286H20.6872C20.8635 11.4286 21.0325 11.3533 21.1572 11.2194C21.2818 11.0854 21.3519 10.9037 21.3519 10.7143V9.28571C21.3519 9.09627 21.2818 8.91459 21.1572 8.78064C21.0325 8.64668 20.8635 8.57143 20.6872 8.57143ZM20.6872 1.42857H7.39354C7.21725 1.42857 7.04819 1.50383 6.92354 1.63778C6.79888 1.77174 6.72886 1.95342 6.72886 2.14286V3.57143C6.72886 3.76087 6.79888 3.94255 6.92354 4.0765C7.04819 4.21046 7.21725 4.28571 7.39354 4.28571H20.6872C20.8635 4.28571 21.0325 4.21046 21.1572 4.0765C21.2818 3.94255 21.3519 3.76087 21.3519 3.57143V2.14286C21.3519 1.95342 21.2818 1.77174 21.1572 1.63778C21.0325 1.50383 20.8635 1.42857 20.6872 1.42857ZM20.6872 15.7143H7.39354C7.21725 15.7143 7.04819 15.7895 6.92354 15.9235C6.79888 16.0574 6.72886 16.2391 6.72886 16.4286V17.8571C6.72886 18.0466 6.79888 18.2283 6.92354 18.3622C7.04819 18.4962 7.21725 18.5714 7.39354 18.5714H20.6872C20.8635 18.5714 21.0325 18.4962 21.1572 18.3622C21.2818 18.2283 21.3519 18.0466 21.3519 17.8571V16.4286C21.3519 16.2391 21.2818 16.0574 21.1572 15.9235C21.0325 15.7895 20.8635 15.7143 20.6872 15.7143ZM0.746714 5.71429H3.40544C3.49359 5.71429 3.57812 5.67666 3.64044 5.60968C3.70277 5.5427 3.73778 5.45186 3.73778 5.35714V4.64286C3.73778 4.54814 3.70277 4.4573 3.64044 4.39032C3.57812 4.32334 3.49359 4.28571 3.40544 4.28571H2.74076V0.357143C2.74076 0.262423 2.70575 0.171582 2.64342 0.104605C2.58109 0.0376275 2.49656 0 2.40842 0H1.4114C1.3498 0.000118146 1.28944 0.0186324 1.23706 0.0534761C1.18468 0.0883198 1.14235 0.138121 1.11478 0.197321L0.78244 0.911607C0.757108 0.966009 0.745126 1.02646 0.747632 1.08724C0.750138 1.14801 0.767047 1.20709 0.796757 1.25887C0.826468 1.31065 0.867994 1.35342 0.917398 1.38312C0.966802 1.41282 1.02245 1.42846 1.07905 1.42857H1.4114V4.28571H0.746714C0.658571 4.28571 0.574039 4.32334 0.511713 4.39032C0.449387 4.4573 0.414372 4.54814 0.414372 4.64286V5.35714C0.414372 5.45186 0.449387 5.5427 0.511713 5.60968C0.574039 5.67666 0.658571 5.71429 0.746714 5.71429ZM0.584282 12.8571H3.40544C3.49359 12.8571 3.57812 12.8195 3.64044 12.7525C3.70277 12.6856 3.73778 12.5947 3.73778 12.5V11.7857C3.73778 11.691 3.70277 11.6002 3.64044 11.5332C3.57812 11.4662 3.49359 11.4286 3.40544 11.4286H1.79857C1.93525 10.9692 3.80675 10.5946 3.80675 8.90893C3.80675 7.61161 2.76818 7.14286 1.95934 7.14286C1.07199 7.14286 0.555202 7.58929 0.278528 7.97991C0.0969866 8.22946 0.1539 8.46384 0.394847 8.66607L0.751283 8.97321C0.984338 9.17679 1.20825 9.08348 1.42095 8.86429C1.52587 8.75382 1.66706 8.69223 1.81394 8.69286C1.95228 8.69286 2.19946 8.7625 2.19946 9.08348C2.20071 9.65134 0.0820312 10.0585 0.0820312 12.1692V12.3478C0.0820312 12.6786 0.293068 12.8571 0.584282 12.8571Z" fill="#323F4B" stroke="#323F4B" stroke-width="0.0976562" mask="url(#path-1-inside-1_522_1762)"></path>
    </svg>