<svg id="formatterList" width="24" height="20" viewBox="0 0 24 20" fill="none" xmlns="http://www.w3.org/2000/svg">
    <path d="M1.953 0.408747C2.3021 0.15808 2.71233 0.0244141 3.13181 0.0244141C3.69428 0.0244141 4.23411 0.264513 4.63241 0.692539C5.03077 1.12062 5.25484 1.70158 5.25484 2.30769C5.25484 2.75966 5.13011 3.20134 4.89661 3.57689C4.66312 3.95241 4.33142 4.24482 3.94367 4.41742C3.55596 4.59 3.12944 4.63512 2.71797 4.54717C2.30649 4.45921 1.92826 4.24205 1.63122 3.92285C1.33416 3.60362 1.13169 3.1967 1.04964 2.75346C0.9676 2.31021 1.00972 1.85079 1.17062 1.43336C1.33152 1.01593 1.60388 0.659433 1.953 0.408747ZM1.953 8.10106C2.3021 7.85039 2.71233 7.71672 3.13181 7.71672C3.69428 7.71672 4.23411 7.95682 4.63241 8.38485C5.03077 8.81293 5.25484 9.39389 5.25484 10C5.25484 10.452 5.13011 10.8937 4.89661 11.2692C4.66312 11.6447 4.33142 11.9371 3.94367 12.1097C3.55596 12.2823 3.12944 12.3274 2.71797 12.2395C2.30649 12.1515 1.92826 11.9344 1.63122 11.6152C1.33416 11.2959 1.13169 10.889 1.04964 10.4458C0.9676 10.0025 1.00972 9.5431 1.17062 9.12566C1.33152 8.70824 1.60388 8.35174 1.953 8.10106ZM1.953 15.7934C2.3021 15.5427 2.71233 15.409 3.13181 15.409C3.69428 15.409 4.23411 15.6491 4.63241 16.0772C5.03077 16.5052 5.25484 17.0862 5.25484 17.6923C5.25484 18.1443 5.13011 18.586 4.89661 18.9615C4.66312 19.337 4.33142 19.6294 3.94367 19.802C3.55596 19.9746 3.12944 20.0197 2.71797 19.9318C2.30649 19.8438 1.92826 19.6267 1.63122 19.3075C1.33416 18.9882 1.13169 18.5813 1.04964 18.1381C0.9676 17.6948 1.00972 17.2354 1.17062 16.818C1.33152 16.4005 1.60388 16.044 1.953 15.7934ZM8.85831 16.1783H23.1746C23.3573 16.1783 23.533 16.2563 23.6629 16.3958C23.7927 16.5353 23.866 16.725 23.866 16.9231V18.4615C23.866 18.6596 23.7927 18.8493 23.6629 18.9888C23.533 19.1283 23.3573 19.2064 23.1746 19.2064H8.85831C8.67554 19.2064 8.49985 19.1283 8.37003 18.9888C8.24016 18.8493 8.16692 18.6596 8.16692 18.4615V16.9231C8.16692 16.725 8.24016 16.5353 8.37003 16.3958C8.49985 16.2563 8.67554 16.1783 8.85831 16.1783ZM8.85831 0.793645H23.1746C23.3573 0.793645 23.533 0.871657 23.6629 1.01116C23.7927 1.15073 23.866 1.34038 23.866 1.53846V3.07692C23.866 3.275 23.7927 3.46465 23.6629 3.60422C23.533 3.74373 23.3573 3.82174 23.1746 3.82174H8.85831C8.67554 3.82174 8.49985 3.74373 8.37003 3.60422C8.24016 3.46465 8.16692 3.275 8.16692 3.07692V1.53846C8.16692 1.34038 8.24016 1.15073 8.37003 1.01117C8.49985 0.871657 8.67554 0.793645 8.85831 0.793645ZM8.85831 8.48595H23.1746C23.3573 8.48595 23.533 8.56396 23.6629 8.70347C23.7927 8.84304 23.866 9.03269 23.866 9.23077V10.7692C23.866 10.9673 23.7927 11.157 23.6629 11.2965C23.533 11.436 23.3573 11.514 23.1746 11.514H8.85831C8.67554 11.514 8.49985 11.436 8.37003 11.2965C8.24016 11.157 8.16692 10.9673 8.16692 10.7692V9.23077C8.16692 9.03269 8.24016 8.84304 8.37003 8.70347C8.49985 8.56396 8.67554 8.48595 8.85831 8.48595Z" fill="#323F4B" stroke="#323F4B" stroke-width="0.0488281"></path>
    </svg>