<svg id="formatterStrike" width="19" height="20" viewBox="0 0 19 20" fill="none" xmlns="http://www.w3.org/2000/svg">
    <path d="M13.9332 11.6354H15.2051H17.7409C17.8233 11.6354 17.9148 11.6007 17.9915 11.5183C18.0699 11.434 18.1229 11.3084 18.1229 11.1667C18.1229 11.0249 18.0699 10.8993 17.9915 10.815C17.9148 10.7326 17.8233 10.6979 17.7409 10.6979H1.45617C1.37375 10.6979 1.28228 10.7326 1.20559 10.815L0.633661 10.2828L1.20559 10.815C1.12714 10.8993 1.07422 11.0249 1.07422 11.1667C1.07422 11.2357 1.08693 11.3029 1.11048 11.364C1.13401 11.4251 1.16719 11.4771 1.20559 11.5183L0.633661 12.0505L1.20559 11.5183C1.24388 11.5595 1.28627 11.5889 1.32873 11.6078C1.37102 11.6266 1.41414 11.6354 1.45617 11.6354H12.0599H12.2968L12.4938 11.767C13.5738 12.4884 14.1796 13.5498 14.1796 14.5833C14.1796 15.5444 13.7027 16.4555 12.8419 17.1498L12.8415 17.1501C11.9822 17.8422 10.7782 18.2812 9.44345 18.2812C7.49337 18.2812 5.78955 17.3082 5.11292 16.0029L5.10855 15.9944L5.10438 15.9859C5.07603 15.9278 5.039 15.8802 4.99811 15.844C4.95737 15.8079 4.91363 15.7838 4.87055 15.77C4.82764 15.7562 4.784 15.7521 4.74131 15.7571L4.65072 14.9811L4.7413 15.7571C4.69854 15.7621 4.65457 15.7764 4.61198 15.8018L4.22088 15.1465L4.61198 15.8018C4.5692 15.8274 4.52771 15.8642 4.49215 15.9129C4.45651 15.9617 4.42824 16.0207 4.4114 16.0869C4.39456 16.1533 4.39007 16.2234 4.39863 16.2926C4.40719 16.3618 4.42831 16.4262 4.45885 16.4821L4.46306 16.4898L4.4671 16.4976C5.34112 18.1866 7.35623 19.2188 9.44345 19.2188C10.9004 19.2188 12.2539 18.7411 13.2572 17.9333L13.9332 11.6354ZM13.9332 11.6354L14.5083 12.7699M13.9332 11.6354L14.5083 12.7699M14.5083 12.7699C14.7859 13.3174 14.9435 13.9253 14.9435 14.5833M14.5083 12.7699L14.9435 14.5833M14.9435 14.5833C14.9435 15.952 14.2604 17.1233 13.2573 17.9332L14.9435 14.5833ZM14.0954 3.85223L14.0951 3.85178C13.4192 2.69132 11.7036 1.71875 9.75363 1.71875C8.4196 1.71875 7.21387 2.15737 6.3555 2.84997C5.49367 3.54327 5.01752 4.45646 5.01752 5.41667C5.01752 5.97352 5.19194 6.53721 5.52236 7.05208H4.60372C4.37862 6.55141 4.25362 6.00266 4.25362 5.41667C4.25362 4.04731 4.93727 2.87447 5.93993 2.06672L5.94019 2.0665C6.94155 1.25908 8.29636 0.78125 9.75363 0.78125C11.8393 0.78125 13.8423 1.81102 14.7175 3.31277C14.7815 3.42285 14.8053 3.56331 14.776 3.69955L15.5344 3.86241L14.776 3.69955C14.7469 3.83525 14.6721 3.93703 14.5873 3.99395C14.5051 4.04916 14.4152 4.06262 14.3329 4.04221C14.2487 4.02133 14.1585 3.96084 14.0954 3.85223Z" fill="#323F4B" stroke="#323F4B" stroke-width="1.5625"></path>
    </svg>