<svg id="formatterUnderline" width="14" height="20" viewBox="0 0 14 20" fill="none" xmlns="http://www.w3.org/2000/svg">
<path d="M11.412 8.78462V0.625H13.0253V9.09231C13.0253 10.481 12.6761 12.0695 11.7835 13.2932C10.9127 14.4869 9.48605 15.3904 7.17931 15.3904C4.88571 15.3904 3.47414 14.4728 2.61352 13.2628C1.73045 12.0211 1.39062 10.415 1.39062 9.03077V0.625H3.00388V8.81538C3.00388 10.4452 3.48143 11.7411 4.27827 12.6381C5.07591 13.5361 6.15999 13.9942 7.27953 13.9942C8.40804 13.9942 9.46362 13.5379 10.2266 12.6261C10.9831 11.722 11.412 10.4206 11.412 8.78462ZM1.39062 17.5481H13.0253V19.375H1.39062V17.5481Z" fill="#323F4B" stroke="#323F4B" stroke-width="1.25"></path>
</svg>