<svg width="214" height="300" viewBox="0 0 214 300" fill="none" xmlns="http://www.w3.org/2000/svg">
<path d="M120.026 245.424L126.333 228.628L106.984 214.39L87.5711 228.677L94.5871 245.424H120.026Z" fill="#EF4C35"/>
<path d="M94.5872 245.424L94.9569 246.308L86.2962 299.999H128.385L119.715 246.256L120.026 245.424H94.5872Z" fill="#DD3E2B"/>
<path d="M91.6938 299.999L100.46 245.655L91.9891 225.427L64.8098 199.586L70.1307 238.334L87.4024 299.999H91.6938Z" fill="#D2D2D7"/>
<path d="M127.359 299.999L144.83 237.622L150.154 198.865L121.874 225.35L114.23 245.708L122.988 299.999H127.359Z" fill="#E4E4EA"/>
<path d="M127.761 236.233C133.354 240.349 136.737 236.685 138 234.778L155.82 198.151L132.822 182.97L127.393 192.746L107.165 213.743L87.4815 194.569L83.6664 181.31L58.1495 198.15L75.5495 233.914C76.0305 234.866 79.5596 241.184 86.2891 236.238L106.984 221.008L126.708 235.522C127.02 235.712 127.366 235.942 127.761 236.233Z" fill="#F5F5F7"/>
<path d="M109.918 0.000579834H104.521C67.6511 0.000579834 37.6576 29.9982 37.6576 66.8665V75.7845V84.1311V98.2335C37.6576 98.2335 52.8802 96.7235 54.7529 89.3413L54.7429 89.3337C55.3857 88.6346 55.923 87.8384 56.3021 86.9477C64.9371 86.6876 105.274 86.3735 128.308 58.5538C131.057 66.5958 140.356 81.8231 158.249 86.6184C158.618 87.5887 159.166 88.4641 159.837 89.2223L159.688 89.3419C161.56 96.7241 176.784 98.234 176.784 98.234V84.0737V75.7845V66.8665C176.784 29.9982 146.787 0.000579834 109.918 0.000579834ZM160.33 84.5395L160.974 84.0731H161.066L160.017 84.8501L160.33 84.5395ZM160.003 84.7405L160.075 84.5132L160.298 84.0731H160.389L160.124 84.6257L160.003 84.7405ZM158.229 86.1116L158.205 86.0764L159.854 84.8835L159.464 85.2597L158.259 86.1509L158.229 86.1116ZM159.59 85.7243L159.074 86.7925C159.07 86.7913 159.069 86.7913 159.065 86.7889L158.993 86.7561C158.981 86.7509 158.968 86.7427 158.958 86.7374L159.799 85.0645L159.821 85.0434L159.59 85.7243Z" fill="#694B4B"/>
<path d="M49.4431 84.1306V75.7839V66.8659C49.4431 31.0669 77.7222 1.75547 113.113 0.0820311C112.052 0.0310546 110.988 0 109.918 0H104.521C67.6511 0 37.6576 29.9976 37.6576 66.8659V75.7839V84.1306V98.2329C37.6576 98.2329 44.3842 97.562 49.4437 94.9475V84.1306H49.4431Z" fill="#563B3B"/>
<path d="M168.753 88.5394C166.194 87.7419 163.414 88.2077 161.257 89.7933C159.101 91.38 157.828 93.8995 157.828 96.5767V120.567C157.828 123.243 159.1 125.76 161.257 127.345C162.722 128.423 164.473 128.984 166.247 128.984C167.083 128.984 167.931 128.861 168.75 128.602C170.365 128.101 171.949 127.375 173.462 126.447C174.351 125.902 175.132 125.192 175.765 124.363C176.693 123.884 177.524 123.237 178.217 122.455C181.619 118.608 183.492 113.678 183.492 108.568C183.492 99.3364 177.57 91.2868 168.753 88.5394Z" fill="#FBCB99"/>
<path d="M53.4269 89.7921C51.27 88.2066 48.488 87.7413 45.9321 88.5365C37.1161 91.2868 31.1894 99.3364 31.1894 108.568C31.1894 117.803 37.1156 125.852 45.9321 128.602C46.7519 128.859 47.5974 128.984 48.4382 128.984C50.2101 128.984 51.9614 128.423 53.4269 127.345C55.5855 125.76 56.8575 123.242 56.8575 120.566V96.5726C56.8575 93.8984 55.5855 91.3788 53.4269 89.7921Z" fill="#EDBA89"/>
<path d="M130.327 162.386C128.672 160.802 126.451 159.971 124.145 160.056L123.859 160.07C123.346 160.087 122.833 160.154 122.33 160.264C119.079 160.987 115.765 161.355 112.489 161.355H102.197C98.8212 161.355 95.4128 160.966 92.0618 160.199C89.5611 159.623 86.9396 160.22 84.9357 161.818C82.93 163.415 81.7616 165.842 81.7616 168.403V192.891L81.757 192.974C81.624 195.403 82.5456 197.772 84.2876 199.471L101.203 215.947C102.776 217.479 104.884 218.333 107.075 218.333C107.121 218.333 107.168 218.333 107.212 218.333C109.452 218.296 111.588 217.369 113.14 215.754L130.567 197.664C132.08 196.096 132.923 194.002 132.923 191.826V168.468C132.923 166.171 131.986 163.974 130.327 162.386Z" fill="#FBCB99"/>
<path d="M108.782 213.419L91.865 196.944C90.123 195.246 89.2001 192.879 89.3331 190.448L89.3407 190.364V165.876C89.3407 163.722 90.1745 161.671 91.6294 160.123C89.2616 159.709 86.8247 160.315 84.9368 161.818C82.9312 163.415 81.7628 165.841 81.7628 168.402V192.891L81.7581 192.974C81.6251 195.403 82.5468 197.771 84.2888 199.47L101.204 215.947C102.777 217.479 104.886 218.332 107.076 218.332C107.122 218.332 107.169 218.332 107.213 218.332C109.454 218.295 111.589 217.368 113.141 215.753L113.216 215.675C111.555 215.388 110.004 214.612 108.782 213.419Z" fill="#EDBA89"/>
<path d="M156.559 81.6682C155.54 81.2885 154.579 80.8467 153.641 80.3762C139.495 73.7757 133.623 65.1905 131.26 60.0688C131.12 59.8755 130.979 59.6622 130.835 59.3944C129.145 56.286 126.51 58.2536 126.51 58.2536L126.498 58.2472C113.287 68.3798 98.8574 74.3053 86.861 77.753C82.1911 79.1329 77.7174 80.1307 73.6715 80.8561C65.6307 82.3327 60.461 82.526 60.461 82.526C56.0565 82.843 52.6452 86.5098 52.6452 90.9249V125.275C52.6452 152.598 74.8756 174.826 102.196 174.826H112.489C139.809 174.826 162.037 152.599 162.037 125.275V89.5561C162.038 86.0393 159.851 82.8964 156.559 81.6682Z" fill="#FBCB99"/>
<path d="M62.7485 125.275V90.9249C62.7485 86.5098 66.1586 82.8436 70.5625 82.526C70.5625 82.526 75.7305 82.3327 83.7731 80.8561C87.8207 80.1307 92.2944 79.1329 96.9654 77.753C107.58 74.6997 120.105 69.7017 132.006 61.5694C131.726 61.0433 131.477 60.5417 131.259 60.0683C131.119 59.8749 130.978 59.6616 130.834 59.3938C129.144 56.2855 126.509 58.253 126.509 58.253L126.497 58.2466C113.287 68.3792 98.8568 74.3048 86.8604 77.7524C82.1905 79.1323 77.7168 80.1301 73.6709 80.8555C65.6301 82.3321 60.4604 82.5255 60.4604 82.5255C56.0559 82.8425 52.6446 86.5092 52.6446 90.9243V125.275C52.6446 152.598 74.875 174.825 102.196 174.825H112.295C84.9766 174.826 62.7485 152.598 62.7485 125.275Z" fill="#EDBA89"/>
<path d="M10.8767 299.999H92.9366L63.5308 195.019L33.2033 207.657L33.1623 207.672C20.8447 211.996 0 227.68 0 259.031V289.135C0.16289 292.382 1.53691 299.999 10.8767 299.999Z" fill="#324A5E"/>
<path d="M213.491 289.5V259.033C213.491 227.296 191.812 211.571 180.284 207.656L151.097 195.495L121.823 300H202.637C211.643 299.999 213.243 292.915 213.491 289.5Z" fill="#324A5E"/>
<path d="M63.5308 195.02L33.2033 207.658L33.1623 207.673C20.8447 211.996 0 227.681 0 259.032V289.136C0.16289 292.382 1.5375 299.999 10.8767 299.999H12.2379V259.032C12.2379 227.68 33.082 211.996 45.4001 207.673L45.4406 207.658L64.8099 199.586L63.5308 195.02Z" fill="#283D4C"/>
<path d="M179.316 299.999V258.146C179.316 255.517 177.186 253.387 174.558 253.387C171.929 253.387 169.799 255.517 169.799 258.146V299.999H179.316Z" fill="#283D4C"/>
<path d="M44.884 299.999V258.146C44.884 255.517 42.7541 253.387 40.1256 253.387C37.4971 253.387 35.3672 255.517 35.3672 258.146V299.999H44.884Z" fill="#283D4C"/>
<path d="M112.172 129.308C113.921 129.308 115.344 130.731 115.344 132.48C115.344 134.229 113.921 135.653 112.172 135.653H104.066C102.317 135.653 100.894 134.229 100.894 132.48V117.018C100.894 115.269 102.317 113.845 104.066 113.845C105.815 113.845 107.238 115.269 107.238 117.018V129.308H112.172Z" fill="#EDBA89"/>
</svg>
