<svg width="216" height="300" viewBox="0 0 216 300" fill="none" xmlns="http://www.w3.org/2000/svg">
<path d="M178.803 171.059C179.111 170.537 179.421 170.119 179.73 169.783C191.476 151.463 197.886 129.046 197.886 105.903C197.886 47.5082 157.626 0 108.142 0C58.6581 0 18.3989 47.5082 18.3989 105.903C18.3989 129.308 24.955 151.963 36.9579 170.392C37.085 170.57 37.2134 170.763 37.3411 170.973C37.7296 171.562 38.1239 172.145 38.5229 172.724C43.0112 178.547 48.7657 177.202 50.4268 176.651C50.5821 176.592 50.7403 176.535 50.8973 176.477L50.8991 176.476C56.827 174.281 63.4094 172.435 70.5209 170.982L82.951 168.441L73.576 159.892C65.9489 152.94 60.9854 143.511 59.602 133.343L58.9012 128.205L53.7321 127.785C45.2196 127.093 38.5516 119.856 38.5516 111.311C38.5516 102.794 44.9331 95.72 53.3958 94.8569L59.0928 94.2751L59.1702 89.7435C64.9129 88.0513 90.2313 79.867 108.019 62.4501C112.21 67.342 127.925 83.5138 157.121 89.8331L157.195 94.2757L162.895 94.8575C171.354 95.7218 177.734 102.795 177.734 111.311C177.734 119.856 171.067 127.092 162.555 127.785L157.385 128.205L156.685 133.345C155.301 143.509 150.339 152.938 142.712 159.891L133.337 168.439L145.769 170.979C153.196 172.497 160.048 174.446 166.186 176.776C168.433 177.411 174.509 178.286 178.803 171.059Z" fill="#694B4B"/>
<path d="M132.289 191.297V167.851L124.207 169.961C120.589 170.906 116.85 171.385 113.093 171.385H103.195C99.4165 171.385 95.6524 170.899 92.0085 169.94L83.9149 167.81V191.281L59.8452 197.04L65.0794 215.725L67.2497 217.044C70.4981 219.023 79.3581 223.911 91.4407 226.56C97.1237 227.806 102.852 228.437 108.467 228.438H108.47C122.39 228.438 136.013 224.595 148.959 217.018L151.21 215.702L156.348 197.36L132.289 191.297Z" fill="#FBCB99"/>
<path d="M99.1833 226.559C87.1001 223.91 78.2407 219.022 74.9923 217.044L69.8425 198.124L89.5692 193.37V170.789L83.9149 167.81V191.28L59.8452 197.04L65.0794 215.724L67.2497 217.044C70.4981 219.022 79.3581 223.91 91.4407 226.559C97.1237 227.805 102.852 228.437 108.467 228.437H108.47C109.738 228.437 111.002 228.395 112.264 228.331C107.924 228.105 103.541 227.514 99.1833 226.559Z" fill="#EDBA89"/>
<path d="M140.14 219.771C129.887 224.417 119.158 226.772 108.252 226.772C102.607 226.772 96.9303 226.141 91.3815 224.894C86.1655 223.722 81.0368 222.026 76.1384 219.851L66.7113 215.665L90.5653 300H125.722L149.63 215.472L140.14 219.771Z" fill="#F5F5F7"/>
<path d="M66.7101 215.664L90.5648 299.999H98.3062L75.5648 219.595L66.7101 215.664Z" fill="#D2D2D7"/>
<path d="M190.23 210.377C187.359 208.736 184.11 207.186 180.716 205.746L179.18 205.106C168.733 200.829 157.256 197.615 151.222 196.052L122.105 299.999H204.284C213.442 299.999 215.069 292.794 215.321 289.321V258.339C215.322 233.009 201.742 217.713 190.23 210.377Z" fill="#324A5E"/>
<path d="M64.1003 196.052C58.0663 197.616 46.5878 200.829 36.1417 205.107L34.606 205.746C31.2117 207.186 27.9632 208.737 25.0916 210.378C13.5797 217.713 0 233.01 0 258.34V289.322C0.253711 292.794 1.87968 299.999 11.0379 299.999H93.2167L64.1003 196.052Z" fill="#324A5E"/>
<path d="M10.6464 289.321V272.939V258.339C10.6464 233.009 24.2267 217.712 35.738 210.377C38.6097 208.736 41.8581 207.185 45.2525 205.745L46.7882 205.106C52.8989 202.604 59.3554 200.47 64.8755 198.813L64.1021 196.051C58.0681 197.615 46.5896 200.828 36.1435 205.106L34.6077 205.745C31.2134 207.185 27.965 208.735 25.0933 210.377C13.5814 217.712 0.00114441 233.009 0.00114441 258.339V289.321C0.250168 292.743 1.83864 299.783 10.6464 299.988V289.321Z" fill="#283D4C"/>
<path d="M180.569 299.999V257.438C180.569 254.765 178.404 252.599 175.731 252.599C173.058 252.599 170.892 254.765 170.892 257.438V299.999H180.569Z" fill="#283D4C"/>
<path d="M43.8654 299.999V257.438C43.8654 254.765 41.6998 252.599 39.0268 252.599C36.3537 252.599 34.1881 254.765 34.1881 257.438V299.999H43.8654Z" fill="#283D4C"/>
<path d="M166.219 90.9757C163.616 90.1647 160.79 90.6382 158.596 92.2507C156.405 93.8644 155.109 96.4261 155.109 99.1489V123.544C155.109 126.265 156.404 128.825 158.596 130.437C160.086 131.534 161.866 132.104 163.671 132.104C164.521 132.104 165.383 131.978 166.216 131.716C167.857 131.206 169.469 130.467 171.007 129.524C171.912 128.97 172.706 128.248 173.349 127.405C174.293 126.918 175.138 126.26 175.844 125.465C179.303 121.553 181.208 116.54 181.208 111.344C181.208 101.956 175.185 93.77 166.219 90.9757Z" fill="#FBCB99"/>
<path d="M57.5999 92.2501C55.4061 90.6376 52.5772 90.1647 49.9786 90.9733C41.0132 93.77 34.9868 101.956 34.9868 111.343C34.9868 120.734 41.0132 128.92 49.9786 131.715C50.8124 131.977 51.672 132.104 52.5268 132.104C54.3286 132.104 56.1093 131.534 57.5999 130.438C59.7948 128.825 61.0886 126.265 61.0886 123.544V99.146C61.0891 96.4255 59.7954 93.8638 57.5999 92.2501Z" fill="#EDBA89"/>
<path d="M160.279 91.3063C160.279 91.3063 160.315 91.1294 160.328 90.8481V90.4216C160.275 89.398 159.824 87.7233 157.698 86.6851L155.383 86.1296C132.981 80.7483 119.572 69.9009 113.221 63.4152L113.219 63.414C107.818 58.4681 102.217 63.414 102.217 63.414L102.216 63.4134C86.9583 76.6855 68.0372 83.5972 60.4663 85.989L59.4521 86.3089C59.4503 86.3095 59.4497 86.3101 59.4497 86.3101C56.8687 87.1579 56.1362 88.8062 55.9581 89.9786V127.375C55.9581 153.422 77.1485 174.612 103.195 174.612H113.093C139.139 174.612 160.328 153.422 160.328 127.375V91.2665L160.279 91.3063Z" fill="#FBCB99"/>
<path d="M111.419 62.1173C106.642 59.5122 102.217 63.414 102.217 63.414L102.216 63.4134C86.9583 76.6854 68.0372 83.5972 60.4663 85.989L59.4521 86.3089C59.4503 86.3095 59.4497 86.31 59.4497 86.31C56.8687 87.1579 56.1362 88.8061 55.9581 89.9786V127.375C55.9581 153.421 77.1485 174.612 103.195 174.612H110.937C84.8905 174.612 63.7001 153.421 63.7001 127.375V92.7055C63.7001 88.444 66.8261 86.5802 68.6173 85.8583C69.0028 85.7352 69.4077 85.6034 69.8425 85.4587L69.846 85.4581H69.8448C78.4997 82.5788 96.7411 75.4099 111.211 62.3054L111.419 62.1173Z" fill="#EDBA89"/>
<path d="M112.291 126.424C114.07 126.424 115.516 127.871 115.516 129.649C115.516 131.428 114.069 132.875 112.291 132.875H104.048C102.27 132.875 100.823 131.428 100.823 129.649V113.926C100.823 112.147 102.27 110.7 104.048 110.7C105.827 110.7 107.274 112.147 107.274 113.926V126.424H112.291Z" fill="#EDBA89"/>
<path d="M37.3411 170.974C37.7296 171.562 38.1239 172.146 38.5229 172.725C43.1893 178.78 49.2256 177.085 50.6049 176.591C50.7045 176.553 50.8001 176.515 50.8991 176.477L50.1227 175.426C35.9061 156.176 28.0768 131.486 28.0768 105.903C28.0768 49.4236 65.7373 3.13182 112.981 0.154687C111.379 0.0544919 109.766 0 108.143 0C58.6586 0 18.3995 47.5082 18.3995 105.903C18.3995 129.308 24.9556 151.963 36.9585 170.392C37.085 170.57 37.2134 170.764 37.3411 170.974Z" fill="#563B3B"/>
</svg>
