<svg width="24" height="24" viewBox="0 0 24 24" fill="none" xmlns="http://www.w3.org/2000/svg">
<path d="M4.30775 19.5C3.80258 19.5 3.375 19.325 3.025 18.975C2.675 18.625 2.5 18.1974 2.5 17.6923V6.30775C2.5 5.80258 2.675 5.375 3.025 5.025C3.375 4.675 3.80258 4.5 4.30775 4.5H19.6923C20.1974 4.5 20.625 4.675 20.975 5.025C21.325 5.375 21.5 5.80258 21.5 6.30775V10.6962C21.5 10.9449 21.4153 11.1571 21.2458 11.3327C21.0761 11.5083 20.8659 11.596 20.6152 11.596H4V17.6923C4 17.7692 4.03208 17.8398 4.09625 17.9038C4.16025 17.9679 4.23075 18 4.30775 18H13.1155C13.328 18 13.5061 18.0719 13.6497 18.2158C13.7934 18.3596 13.8652 18.5378 13.8652 18.7503C13.8652 18.9629 13.7934 19.141 13.6497 19.2845C13.5061 19.4282 13.328 19.5 13.1155 19.5H4.30775ZM4 8.404H20V6.30775C20 6.23075 19.9679 6.16025 19.9038 6.09625C19.8398 6.03208 19.7693 6 19.6923 6H4.30775C4.23075 6 4.16025 6.03208 4.09625 6.09625C4.03208 6.16025 4 6.23075 4 6.30775V8.404ZM19.25 18.75H17C16.7875 18.75 16.6094 18.6781 16.4658 18.5343C16.3219 18.3904 16.25 18.2122 16.25 17.9998C16.25 17.7871 16.3219 17.609 16.4658 17.4655C16.6094 17.3218 16.7875 17.25 17 17.25H19.25V15C19.25 14.7875 19.3219 14.6094 19.4657 14.4658C19.6096 14.3219 19.7878 14.25 20.0002 14.25C20.2129 14.25 20.391 14.3219 20.5345 14.4658C20.6782 14.6094 20.75 14.7875 20.75 15V17.25H23C23.2125 17.25 23.3906 17.3219 23.5343 17.4658C23.6781 17.6096 23.75 17.7878 23.75 18.0003C23.75 18.2129 23.6781 18.391 23.5343 18.5345C23.3906 18.6782 23.2125 18.75 23 18.75H20.75V21C20.75 21.2125 20.6781 21.3906 20.5343 21.5343C20.3904 21.6781 20.2122 21.75 19.9998 21.75C19.7871 21.75 19.609 21.6781 19.4655 21.5343C19.3218 21.3906 19.25 21.2125 19.25 21V18.75Z" fill="#323F4B"/>
</svg>
