<svg id="Clock" width="21" height="22" viewBox="0 0 21 22" fill="none" xmlns="http://www.w3.org/2000/svg">
<path d="M19.6257 8.06143C20.0286 7.66252 20.3484 7.18759 20.5664 6.66418C20.7844 6.14077 20.8963 5.57929 20.8957 5.01229C20.8957 2.6357 18.9661 0.709543 16.5872 0.7092H16.5854C15.3925 0.7092 14.3117 1.19391 13.5318 1.97685L16.0743 4.51523L15.5015 5.09421C14.0704 4.11102 12.3743 3.58576 10.638 3.58798C8.90167 3.58564 7.20562 4.11078 5.77443 5.09387L5.16048 4.47307L7.64436 1.96108C7.24901 1.5571 6.77694 1.23618 6.25586 1.01714C5.73479 0.798098 5.1752 0.685362 4.60996 0.685547C2.24503 0.685547 0.328125 2.62404 0.328125 5.01537C0.328125 6.21515 0.810093 7.30077 1.58995 8.08474L4.09988 5.54636L4.6055 6.05746C3.77997 6.86538 3.12441 7.83027 2.67741 8.89536C2.2304 9.96045 2.00099 11.1042 2.00267 12.2593C2.00267 13.9804 2.50418 15.5833 3.36527 16.9326L2.64232 21.2531H3.28198C3.68167 21.2531 3.82942 20.7839 4.08925 20.2001C4.32028 19.6762 4.54904 19.1512 4.77553 18.6253C6.31501 20.0568 8.37417 20.932 10.638 20.932C12.9014 20.932 14.9603 20.0561 16.5004 18.6253C16.7269 19.1513 16.9557 19.6762 17.187 20.2001C17.4472 20.7839 17.5943 21.2531 17.994 21.2531H18.6336L17.9117 16.9316C18.803 15.5365 19.2757 13.9151 19.2736 12.2596C19.2753 11.1046 19.0459 9.96089 18.5989 8.89585C18.1519 7.83082 17.4963 6.86599 16.6708 6.05815L17.1425 5.58167L19.6257 8.06143ZM17.3547 12.2596C17.3547 15.9848 14.3473 19.0051 10.638 19.0051C6.92861 19.0051 3.92163 15.9848 3.92163 12.2596C3.92163 8.53517 6.92827 5.51516 10.638 5.51516C14.347 5.51516 17.3547 8.53483 17.3547 12.2596Z" fill="#323F4B"></path>
<path d="M11.2771 11.1538V7.44238H9.99816V11.1538C9.80403 11.266 9.64277 11.4273 9.53051 11.6214C9.41826 11.8156 9.35895 12.0358 9.35851 12.26C9.35851 12.5449 9.45346 12.8061 9.60943 13.0189L6.70117 15.9594L7.09881 16.3625L10.039 13.3895C10.2179 13.4855 10.4201 13.5451 10.6378 13.5451C11.1102 13.5451 11.5178 13.2853 11.7399 12.9027H13.8361V11.6183H11.7399C11.6287 11.4258 11.4692 11.2657 11.2771 11.1538Z" fill="#323F4B"></path>
</svg>