<svg width="4" height="21" viewBox="0 0 4 21" fill="none" xmlns="http://www.w3.org/2000/svg">
<path d="M3.32343 20.1279C2.96812 20.4871 2.52719 20.6667 2.00062 20.6667C1.47447 20.6667 1.03332 20.4871 0.677191 20.1279C0.321058 19.7691 0.142989 19.3244 0.142989 18.7937V8.18055C0.142989 7.64989 0.320849 7.20497 0.67657 6.84579C1.03188 6.48702 1.47282 6.30764 1.99938 6.30764C2.52553 6.30764 2.96668 6.48702 3.32281 6.84579C3.67894 7.20497 3.85701 7.64989 3.85701 8.18055V18.7937C3.85701 19.3244 3.67915 19.7691 3.32343 20.1279Z" fill="#2F80ED"/>
<path d="M3.42495 3.45366C3.04158 3.84031 2.56659 4.03364 2 4.03364C1.43341 4.03364 0.958424 3.84031 0.575055 3.45366C0.191685 3.06701 0 2.58795 0 2.01651C0 1.44506 0.191685 0.966011 0.575055 0.579358C0.958424 0.193121 1.43341 0 2 0C2.56659 0 3.04158 0.193121 3.42495 0.579358C3.80831 0.966011 4 1.44506 4 2.01651C4 2.58795 3.80831 3.06701 3.42495 3.45366Z" fill="#2F80ED"/>
</svg>
