<svg width="20" height="18" viewBox="0 0 20 18" fill="none" xmlns="http://www.w3.org/2000/svg">
<path d="M3.42466 0.0525436C3.34908 0.0811157 3.20265 0.162069 3.10817 0.228739C2.95701 0.333504 0.429854 3.46218 0.113368 3.93839C-0.0377893 4.1622 -0.0377893 4.44793 0.113368 4.67174C0.297591 4.94318 2.68777 7.95281 2.90033 8.17662C3.15069 8.4433 3.40104 8.57188 3.72697 8.60045C4.24185 8.64807 4.64809 8.43378 4.88899 7.9909C5.00236 7.78137 5.02598 7.67661 5.02598 7.42422C5.02598 7.05278 4.97402 6.94325 4.41663 6.12418C4.19461 5.79559 4.01512 5.51463 4.01512 5.50034C4.01512 5.4813 6.13604 5.47653 8.72933 5.4813L13.4388 5.49558L13.9017 5.62416C15.3377 6.02417 16.495 6.95277 17.1422 8.23377C17.5815 9.10046 17.7468 9.85763 17.6996 10.8243C17.5909 13.2006 15.8479 15.1816 13.5144 15.5912C13.2215 15.6435 12.7256 15.6626 11.6013 15.6626C9.82995 15.6626 9.70713 15.6816 9.37648 16.0197C9.01748 16.3769 8.93718 16.9245 9.16864 17.3817C9.282 17.6055 9.60794 17.8865 9.8205 17.9484C10.1039 18.0293 13.1649 18.0103 13.7222 17.9246C15.3708 17.6722 16.7879 16.9531 17.9263 15.7816C18.9136 14.7721 19.5701 13.5244 19.8961 12.0577C19.9858 11.6577 20 11.4482 20 10.5672C20 9.6862 19.9858 9.47667 19.8961 9.07189C19.4473 7.04325 18.3042 5.37653 16.599 4.27173C15.9613 3.85743 14.9504 3.45266 14.0907 3.2717C13.5805 3.16217 13.5664 3.16217 8.80019 3.14788C6.16911 3.14312 4.01512 3.12407 4.01512 3.10979C4.01512 3.10026 4.20406 2.80502 4.4308 2.45739C4.66226 2.11452 4.88427 1.76212 4.92206 1.68593C5.30468 0.924 4.71422 -0.0141258 3.85451 0.000160217C3.69863 0.000160217 3.50496 0.0239716 3.42466 0.0525436Z" fill="#3A8C1D"/>
</svg>
