<svg id="Sleep" width="26" height="24" viewBox="0 0 26 24" fill="none" xmlns="http://www.w3.org/2000/svg">
<path d="M17.6429 3.42857H15.1494V2.57143L16.5582 0.857143H15.1494V0H17.6429V0.857143L16.2382 2.57143H17.6429V3.42857ZM14.3182 5.14286H11.8247V4.28571L13.2335 2.57143H11.8247V1.71429H14.3182V2.57143L12.9135 4.28571H14.3182V5.14286ZM10.9935 6.85714H8.5V6L9.90883 4.28571H8.5V3.42857H10.9935V4.28571L9.58883 6H10.9935V6.85714Z" fill="#323F4B"></path>
<path d="M7.35714 17.1431C9.25428 17.1431 10.7857 15.6117 10.7857 13.7146C10.7857 11.8174 9.25428 10.286 7.35714 10.286C5.46 10.286 3.92857 11.8174 3.92857 13.7146C3.92857 15.6117 5.46 17.1431 7.35714 17.1431ZM7.35714 12.5717C7.98571 12.5717 8.5 13.086 8.5 13.7146C8.5 14.3431 7.98571 14.8574 7.35714 14.8574C6.72857 14.8574 6.21429 14.3431 6.21429 13.7146C6.21429 13.086 6.72857 12.5717 7.35714 12.5717ZM21.0714 9.14314H11.9286V18.286H2.78571V6.85742H0.5V24.0003H2.78571V20.5717H23.3571V24.0003H25.6429V13.7146C25.6429 11.1888 23.5971 9.14314 21.0714 9.14314ZM23.3571 18.286H14.2143V11.4289H21.0714C22.3286 11.4289 23.3571 12.4574 23.3571 13.7146V18.286Z" fill="#323F4B"></path>
</svg>