<svg width="24" height="24" viewBox="0 0 24 24" fill="none" xmlns="http://www.w3.org/2000/svg">
<path d="M8.70596 14.6708C9.86516 14.6708 10.806 15.7146 10.806 17.0038V21.667C10.806 22.2857 10.5847 22.8791 10.1909 23.3166C9.79705 23.7541 9.26291 23.9999 8.70596 23.9999H2.09999C1.54304 23.9999 1.0089 23.7541 0.615073 23.3166C0.221249 22.8791 0 22.2857 0 21.667V17.0038C0 15.7146 0.940796 14.6708 2.09999 14.6708H8.70596ZM21.8999 14.6708C23.0591 14.6708 23.9999 15.7146 23.9999 17.0038V21.667C23.9999 22.2857 23.7786 22.8791 23.3848 23.3166C22.991 23.7541 22.4569 23.9999 21.8999 23.9999H15.2939C14.737 23.9999 14.2028 23.7541 13.809 23.3166C13.4152 22.8791 13.1939 22.2857 13.1939 21.667V17.0038C13.1939 15.7146 14.1347 14.6708 15.2939 14.6708H21.8999ZM8.70596 16.6705H2.09999C2.02043 16.6705 1.94412 16.7056 1.88786 16.7681C1.8316 16.8306 1.79999 16.9154 1.79999 17.0038V21.667C1.79999 21.8523 1.93439 22.0002 2.09999 22.0002H8.70596C8.78553 22.0002 8.86183 21.9651 8.91809 21.9026C8.97435 21.8401 9.00596 21.7554 9.00596 21.667V17.0038C9.00596 16.9154 8.97435 16.8306 8.91809 16.7681C8.86183 16.7056 8.78553 16.6705 8.70596 16.6705ZM21.8999 16.6705H15.2939C15.2144 16.6705 15.1381 16.7056 15.0818 16.7681C15.0255 16.8306 14.9939 16.9154 14.9939 17.0038V21.667C14.9939 21.8523 15.1283 22.0002 15.2939 22.0002H21.8999C21.9795 22.0002 22.0558 21.9651 22.112 21.9026C22.1683 21.8401 22.1999 21.7554 22.1999 21.667V17.0038C22.1999 16.9154 22.1683 16.8306 22.112 16.7681C22.0558 16.7056 21.9795 16.6705 21.8999 16.6705ZM21.8999 0C23.0591 0 23.9999 1.04515 23.9999 2.33293V9.66501C23.9999 10.2837 23.7786 10.8771 23.3848 11.3146C22.991 11.7522 22.4569 11.9979 21.8999 11.9979H2.09999C1.54304 11.9979 1.0089 11.7522 0.615073 11.3146C0.221249 10.8771 0 10.2837 0 9.66501V2.33293C1.96854e-05 1.74745 0.198204 1.18337 0.555213 0.752683C0.912222 0.321992 1.40195 0.0561759 1.92719 0.00799869L2.09999 0H21.8999ZM21.8999 1.99966H2.09999L2.03159 2.00899C1.96578 2.02611 1.90711 2.06741 1.86507 2.12621C1.82304 2.18501 1.8001 2.25785 1.79999 2.33293V9.66501C1.79999 9.84898 1.93439 9.99829 2.09999 9.99829H21.8999C21.9795 9.99829 22.0558 9.96318 22.112 9.90067C22.1683 9.83817 22.1999 9.7534 22.1999 9.66501V2.33293C22.1999 2.24454 22.1683 2.15977 22.112 2.09727C22.0558 2.03477 21.9795 1.99966 21.8999 1.99966Z" fill="#2F80ED"></path>
</svg>