<?xml version="1.0" encoding="UTF-8" standalone="no"?>
<svg
   width="40"
   height="40"
   viewBox="0 0 40 40"
   fill="none"
   version="1.1"
   id="svg4"
   sodipodi:docname="icon-bookmark.svg"
   inkscape:version="1.1.1 (3bf5ae0d25, 2021-09-20)"
   xmlns:inkscape="http://www.inkscape.org/namespaces/inkscape"
   xmlns:sodipodi="http://sodipodi.sourceforge.net/DTD/sodipodi-0.dtd"
   xmlns="http://www.w3.org/2000/svg"
   xmlns:svg="http://www.w3.org/2000/svg">
  <defs
     id="defs8" />
  <sodipodi:namedview
     id="namedview6"
     pagecolor="#ffffff"
     bordercolor="#666666"
     borderopacity="1.0"
     inkscape:pageshadow="2"
     inkscape:pageopacity="0.0"
     inkscape:pagecheckerboard="0"
     showgrid="false"
     inkscape:zoom="20.05"
     inkscape:cx="19.975062"
     inkscape:cy="19.975062"
     inkscape:window-width="1920"
     inkscape:window-height="991"
     inkscape:window-x="-9"
     inkscape:window-y="-9"
     inkscape:window-maximized="1"
     inkscape:current-layer="svg4" />
  <path
     style="color:#000000;fill:#323f4b;stroke-linecap:round;stroke-linejoin:round;-inkscape-stroke:none"
     d="M 15,9 C 14.204769,9 13.44126,9.316552 12.878906,9.8789063 12.316552,10.44126 12,11.204769 12,12 v 16 a 1.0001,1.0001 0 0 0 1.582031,0.814453 L 20,24.228516 26.417969,28.814453 A 1.0001,1.0001 0 0 0 28,28 V 12 C 28,11.204769 27.683448,10.44126 27.121094,9.8789063 26.55874,9.316552 25.795231,9 25,9 Z m 0,2 h 10 c 0.265568,0 0.519186,0.105124 0.707031,0.292969 C 25.894876,11.480814 26,11.734432 26,12 v 14.054687 l -5.417969,-3.86914 a 1.0001,1.0001 0 0 0 -1.164062,0 L 14,26.054687 V 12 c 0,-0.265568 0.105124,-0.519186 0.292969,-0.707031 C 14.480814,11.105124 14.734432,11 15,11 Z"
     id="path2" />
</svg>
