<?xml version="1.0" encoding="UTF-8" standalone="no"?>
<svg
   width="40"
   height="40"
   viewBox="0 0 40 40"
   fill="none"
   version="1.1"
   id="svg6"
   sodipodi:docname="book-open.svg"
   inkscape:version="1.1.1 (3bf5ae0d25, 2021-09-20)"
   xmlns:inkscape="http://www.inkscape.org/namespaces/inkscape"
   xmlns:sodipodi="http://sodipodi.sourceforge.net/DTD/sodipodi-0.dtd"
   xmlns="http://www.w3.org/2000/svg"
   xmlns:svg="http://www.w3.org/2000/svg">
  <defs
     id="defs10" />
  <sodipodi:namedview
     id="namedview8"
     pagecolor="#ffffff"
     bordercolor="#666666"
     borderopacity="1.0"
     inkscape:pageshadow="2"
     inkscape:pageopacity="0.0"
     inkscape:pagecheckerboard="0"
     showgrid="false"
     inkscape:zoom="20.05"
     inkscape:cx="19.975062"
     inkscape:cy="19.975062"
     inkscape:window-width="1920"
     inkscape:window-height="991"
     inkscape:window-x="-9"
     inkscape:window-y="-9"
     inkscape:window-maximized="1"
     inkscape:current-layer="svg6" />
  <path
     style="color:#000000;fill:#7b8794;stroke-linecap:round;stroke-linejoin:round;-inkscape-stroke:none"
     d="m 10,10 a 1.0001,1.0001 0 0 0 -1,1 v 15 a 1.0001,1.0001 0 0 0 1,1 h 7 c 0.530726,0 1.038734,0.210609 1.414062,0.585937 C 18.789391,27.961266 19,28.469274 19,29 h 2 V 15 C 21,13.674295 20.472665,12.402228 19.535156,11.464844 18.597772,10.527335 17.325705,10 16,10 Z m 1,2 h 5 c 0.796093,0 1.558279,0.316017 2.121094,0.878906 C 18.683983,13.441721 19,14.203907 19,15 V 25.617187 C 18.388742,25.256037 17.72171,25 17,25 h -6 z"
     id="path2" />
  <path
     style="color:#000000;fill:#7b8794;stroke-linecap:round;stroke-linejoin:round;-inkscape-stroke:none"
     d="m 24,10 c -1.325705,0 -2.597772,0.527335 -3.535156,1.464844 C 19.527335,12.402228 19,13.674295 19,15 v 14 a 1.0001,1.0001 0 0 0 2,0 c 0,-0.530726 0.210609,-1.038734 0.585937,-1.414063 C 21.961266,27.210609 22.469274,27 23,27 h 7 a 1.0001,1.0001 0 0 0 1,-1 V 11 a 1.0001,1.0001 0 0 0 -1,-1 z m 0,2 h 5 v 13 h -6 c -0.72171,0 -1.388742,0.256037 -2,0.617187 V 15 c 0,-0.796093 0.316017,-1.558279 0.878906,-2.121094 C 22.441721,12.316017 23.203907,12 24,12 Z"
     id="path4" />
</svg>
