<?xml version="1.0" encoding="UTF-8" standalone="no"?>
<svg
   width="20"
   height="20"
   viewBox="0 0 20 20"
   fill="none"
   version="1.1"
   id="svg2"
   sodipodi:docname="camera.svg"
   inkscape:version="1.4.3 (0d15f75, 2025-12-25)"
   xmlns:inkscape="http://www.inkscape.org/namespaces/inkscape"
   xmlns:sodipodi="http://sodipodi.sourceforge.net/DTD/sodipodi-0.dtd"
   xmlns="http://www.w3.org/2000/svg"
   xmlns:svg="http://www.w3.org/2000/svg">
  <defs
     id="defs2" />
  <sodipodi:namedview
     id="namedview2"
     pagecolor="#ffffff"
     bordercolor="#000000"
     borderopacity="0.25"
     inkscape:showpageshadow="2"
     inkscape:pageopacity="0.0"
     inkscape:pagecheckerboard="0"
     inkscape:deskcolor="#d1d1d1"
     inkscape:zoom="58.35"
     inkscape:cx="9.991431"
     inkscape:cy="10"
     inkscape:window-width="3440"
     inkscape:window-height="1369"
     inkscape:window-x="-8"
     inkscape:window-y="-8"
     inkscape:window-maximized="1"
     inkscape:current-layer="svg2" />
  <path
     style="baseline-shift:baseline;display:inline;overflow:visible;vector-effect:none;fill:#2f80ed;stroke-linecap:round;stroke-linejoin:round;enable-background:accumulate;stop-color:#000000;stop-opacity:1;opacity:1"
     d="m 17.910156,5.3085937 c -0.219915,7.501e-4 -0.435177,0.059117 -0.625,0.1699219 L 12.912109,8.03125 a 0.83333498,0.83333498 0 0 0 -0.300781,1.1386719 0.83333498,0.83333498 0 0 0 1.140625,0.3007812 l 3.746094,-2.1875 v 5.3261719 l -3.703125,-2.46875 a 0.83333498,0.83333498 0 0 0 -1.15625,0.230469 0.83333498,0.83333498 0 0 0 0.230469,1.15625 l 4.353515,2.90039 a 0.83341832,0.83341832 0 0 0 0,0.002 c 0.18763,0.124588 0.406674,0.196219 0.632813,0.207031 0.226023,0.01082 0.450785,-0.03947 0.65039,-0.146485 0.199247,-0.106664 0.364458,-0.265832 0.480469,-0.458984 a 0.83341832,0.83341832 0 0 0 0.002,-0.002 c 0.115647,-0.193342 0.177735,-0.414179 0.177735,-0.640625 V 6.5585937 C 19.166317,6.3375229 19.107823,6.1214614 18.998047,5.9316406 18.887938,5.7412451 18.727927,5.5841797 18.537109,5.4746094 18.346736,5.3652946 18.131779,5.3078755 17.912109,5.3085937 a 0.83341832,0.83341832 0 0 0 -0.002,0 z"
     id="path1" />
  <path
     style="baseline-shift:baseline;display:inline;overflow:visible;vector-effect:none;fill:#2f80ed;stroke-linecap:round;stroke-linejoin:round;enable-background:accumulate;stop-color:#000000;stop-opacity:1;opacity:1"
     d="m 3.3339844,4.1660156 c -1.3708438,0 -2.50000003,1.1291563 -2.50000002,2.5 v 6.6679684 c 0,1.370854 1.12915022,2.5 2.50000002,2.5 h 8.3339846 c 1.370809,0 2.5,-1.12914 2.5,-2.5 V 6.6660156 c 0,-1.3708498 -1.129197,-2.5 -2.5,-2.5 z m 0,1.6679688 h 8.3339846 c 0.469997,0 0.833984,0.361921 0.833984,0.8320312 v 6.6679684 c 0,0.47014 -0.363993,0.832032 -0.833984,0.832032 H 3.3339844 c -0.4701102,0 -0.8320313,-0.361886 -0.8320313,-0.832032 V 6.6660156 c 0,-0.4701162 0.361915,-0.8320312 0.8320313,-0.8320312 z"
     id="path2" />
</svg>
