<svg width="15" height="15" viewBox="0 0 15 15" fill="none" xmlns="http://www.w3.org/2000/svg">
<path d="M7.5 0C3.35788 0 0 3.35788 0 7.5C0 11.6421 3.35788 15 7.5 15C11.6421 15 15 11.6421 15 7.5C15 3.35788 11.6421 0 7.5 0ZM7.5 1.62964C10.7421 1.62964 13.3695 4.2587 13.3695 7.5C13.3695 10.7413 10.7421 13.3695 7.5 13.3695C4.25787 13.3695 1.63055 10.7413 1.63055 7.5C1.63056 4.2587 4.25787 1.62964 7.5 1.62964ZM10.3738 3.9386L6.02691 8.28644L4.617 6.87653L3.23364 8.25898L4.64355 9.66889L6.03606 11.0614L7.41853 9.67804L11.7663 5.33111L10.3738 3.9386Z" fill="#019A3E"/>
</svg>
