<?xml version="1.0" encoding="UTF-8" standalone="no"?>
<svg
   width="40"
   height="40"
   viewBox="0 0 40 40"
   fill="none"
   version="1.1"
   id="svg6"
   sodipodi:docname="check-square.svg"
   inkscape:version="1.1.1 (3bf5ae0d25, 2021-09-20)"
   xmlns:inkscape="http://www.inkscape.org/namespaces/inkscape"
   xmlns:sodipodi="http://sodipodi.sourceforge.net/DTD/sodipodi-0.dtd"
   xmlns="http://www.w3.org/2000/svg"
   xmlns:svg="http://www.w3.org/2000/svg">
  <defs
     id="defs10" />
  <sodipodi:namedview
     id="namedview8"
     pagecolor="#ffffff"
     bordercolor="#666666"
     borderopacity="1.0"
     inkscape:pageshadow="2"
     inkscape:pageopacity="0.0"
     inkscape:pagecheckerboard="0"
     showgrid="false"
     inkscape:zoom="20.05"
     inkscape:cx="19.975062"
     inkscape:cy="19.975062"
     inkscape:window-width="1920"
     inkscape:window-height="991"
     inkscape:window-x="-9"
     inkscape:window-y="-9"
     inkscape:window-maximized="1"
     inkscape:current-layer="svg6" />
  <path
     style="color:#000000;fill:#7b8794;stroke-linecap:round;stroke-linejoin:round;-inkscape-stroke:none"
     d="M 28.292969,11.292969 19,20.585937 16.707031,18.292969 a 1,1 0 0 0 -1.414062,0 1,1 0 0 0 0,1.414062 l 3,3 a 1.0001,1.0001 0 0 0 1.414062,0 l 10,-10 a 1,1 0 0 0 0,-1.414062 1,1 0 0 0 -1.414062,0 z"
     id="path2" />
  <path
     style="color:#000000;fill:#7b8794;stroke-linecap:round;stroke-linejoin:round;-inkscape-stroke:none"
     d="M 12,10 C 11.204769,10 10.44126,10.316552 9.8789063,10.878906 9.316552,11.44126 9,12.204769 9,13 v 14 c 0,0.795231 0.316552,1.55874 0.8789063,2.121094 C 10.44126,29.683448 11.204769,30 12,30 h 14 c 0.795231,0 1.55874,-0.316552 2.121094,-0.878906 C 28.683448,28.55874 29,27.795231 29,27 v -7 a 1,1 0 0 0 -1,-1 1,1 0 0 0 -1,1 v 7 c 0,0.265568 -0.105124,0.519186 -0.292969,0.707031 C 26.519186,27.894876 26.265568,28 26,28 H 12 C 11.734432,28 11.480814,27.894876 11.292969,27.707031 11.105124,27.519186 11,27.265568 11,27 V 13 c 0,-0.265568 0.105124,-0.519186 0.292969,-0.707031 C 11.480814,12.105124 11.734432,12 12,12 h 11 a 1,1 0 0 0 1,-1 1,1 0 0 0 -1,-1 z"
     id="path4" />
</svg>
