<svg width="24" height="24" viewBox="0 0 24 24" fill="none" xmlns="http://www.w3.org/2000/svg">
<path d="M23.7629 20.2991L18.9868 15.5229L22.3941 13.5546C22.6604 13.4008 22.8154 13.1085 22.7932 12.8018C22.7711 12.4951 22.5758 12.228 22.2901 12.1141L7.09557 6.0531C6.79763 5.93415 6.45759 6.00422 6.23076 6.23096C6.00393 6.45787 5.93387 6.79792 6.05274 7.09577L12.1129 22.292C12.2268 22.5776 12.4939 22.773 12.8006 22.7951C13.1074 22.8174 13.3997 22.6624 13.5535 22.396L15.5214 18.9887L20.2973 23.765C20.4478 23.9156 20.652 24.0002 20.8648 24.0002C21.0777 24.0002 21.2818 23.9156 21.4323 23.765L23.7629 21.4342C24.0763 21.1207 24.0763 20.6126 23.7629 20.2991ZM20.8648 22.0626L15.917 17.1143C15.7654 16.9627 15.5609 16.8792 15.3495 16.8792C15.3148 16.8792 15.2797 16.8814 15.2449 16.886C14.9973 16.9185 14.7792 17.0643 14.6545 17.2805L12.9911 20.1606L8.23562 8.23622L20.1588 12.9924L17.2784 14.656C17.0623 14.7807 16.9165 14.9989 16.884 15.2464C16.8515 15.4937 16.9358 15.7421 17.1123 15.9186L22.0603 20.8669L20.8648 22.0626Z" fill="#2F80ED"/>
<path d="M3.523 2.38793C3.20946 2.07471 2.7015 2.07471 2.3878 2.38793C2.07435 2.70146 2.07435 3.20958 2.3878 3.52312L4.17116 5.30648C4.32785 5.46309 4.53334 5.54155 4.73876 5.54155C4.94409 5.54155 5.14943 5.46309 5.30628 5.30648C5.61965 4.99302 5.61965 4.48482 5.30628 4.17137L3.523 2.38793Z" fill="#2F80ED"/>
<path d="M4.12737 7.9366C4.12737 7.49337 3.76793 7.13409 3.3247 7.13409H0.802669C0.359516 7.13409 0 7.49329 0 7.9366C0 8.37975 0.359436 8.73919 0.802669 8.73919H3.3247C3.76793 8.73911 4.12737 8.37975 4.12737 7.9366Z" fill="#2F80ED"/>
<path d="M3.802 10.4137L2.01848 12.1972C1.70494 12.5105 1.70494 13.0187 2.01848 13.3321C2.17516 13.4888 2.38042 13.5672 2.58599 13.5672C2.79133 13.5672 2.99666 13.4888 3.15335 13.3321L4.93695 11.5487C5.25041 11.2353 5.25041 10.727 4.93695 10.4137C4.62366 10.1003 4.11554 10.1003 3.802 10.4137Z" fill="#2F80ED"/>
<path d="M7.93605 4.12753C8.37921 4.12753 8.73864 3.76809 8.73864 3.32486V0.802589C8.73864 0.359436 8.37929 0 7.93605 0C7.49282 0 7.13354 0.359355 7.13354 0.802589V3.32494C7.13354 3.76809 7.49274 4.12753 7.93605 4.12753Z" fill="#2F80ED"/>
<path d="M10.9803 5.17208C11.1858 5.17208 11.3912 5.09385 11.5479 4.93709L13.3311 3.15373C13.6447 2.84027 13.6447 2.33207 13.3311 2.01869C13.0178 1.70524 12.5094 1.70524 12.1962 2.01869L10.4128 3.80205C10.0994 4.11543 10.0994 4.62371 10.4128 4.93709C10.5695 5.09385 10.7749 5.17208 10.9803 5.17208Z" fill="#2F80ED"/>
</svg>
