<svg id="ClipIcon" width="21" height="24" viewBox="0 0 21 24" fill="none" xmlns="http://www.w3.org/2000/svg">
<path d="M19.0571 14.8411L13.5243 20.374C10.8728 23.0255 6.57382 23.0255 3.92231 20.374C1.2708 17.7225 1.2708 13.4235 3.92231 10.772L11.37 3.32435C13.139 1.55533 16.0071 1.55533 17.7762 3.32435C19.5452 5.09337 19.5452 7.96152 17.7762 9.73054L10.0939 17.4128C9.26272 18.244 7.91516 18.244 7.08401 17.4128C6.25286 16.5817 6.25286 15.2341 7.08401 14.403L12.8515 8.63549C13.1444 8.34259 13.1444 7.86772 12.8515 7.57483C12.5586 7.28193 12.0837 7.28193 11.7908 7.57483L6.02335 13.3423C4.60642 14.7592 4.60642 17.0566 6.02335 18.4735C7.44029 19.8904 9.7376 19.8904 11.1545 18.4735L18.8368 10.7912C21.1916 8.43639 21.1916 4.6185 18.8368 2.26369C16.482 -0.091121 12.6641 -0.0911214 10.3093 2.26369L2.86165 9.71135C-0.37565 12.9486 -0.37565 18.1973 2.86165 21.4346C6.09895 24.6719 11.3477 24.6719 14.585 21.4346L20.1178 15.9018C20.4107 15.6089 20.4107 15.134 20.1178 14.8411C19.8249 14.5482 19.35 14.5482 19.0571 14.8411Z" fill="#858E99"></path>
</svg>