<?xml version="1.0" encoding="UTF-8" standalone="no"?>
<svg
   width="40"
   height="40"
   viewBox="0 0 40 40"
   fill="none"
   version="1.1"
   id="svg6"
   sodipodi:docname="close.svg"
   inkscape:version="1.1.1 (3bf5ae0d25, 2021-09-20)"
   xmlns:inkscape="http://www.inkscape.org/namespaces/inkscape"
   xmlns:sodipodi="http://sodipodi.sourceforge.net/DTD/sodipodi-0.dtd"
   xmlns="http://www.w3.org/2000/svg"
   xmlns:svg="http://www.w3.org/2000/svg">
  <defs
     id="defs10" />
  <sodipodi:namedview
     id="namedview8"
     pagecolor="#ffffff"
     bordercolor="#666666"
     borderopacity="1.0"
     inkscape:pageshadow="2"
     inkscape:pageopacity="0.0"
     inkscape:pagecheckerboard="0"
     showgrid="false"
     inkscape:zoom="20.05"
     inkscape:cx="19.975062"
     inkscape:cy="19.975062"
     inkscape:window-width="1920"
     inkscape:window-height="991"
     inkscape:window-x="-9"
     inkscape:window-y="-9"
     inkscape:window-maximized="1"
     inkscape:current-layer="svg6" />
  <path
     style="color:#000000;fill:#0c4056;stroke-linecap:round;stroke-linejoin:round;-inkscape-stroke:none"
     d="m 25.292969,13.292969 -12,12 a 1,1 0 0 0 0,1.414062 1,1 0 0 0 1.414062,0 l 12,-12 a 1,1 0 0 0 0,-1.414062 1,1 0 0 0 -1.414062,0 z"
     id="path2" />
  <path
     style="color:#000000;fill:#0c4056;stroke-linecap:round;stroke-linejoin:round;-inkscape-stroke:none"
     d="m 14,13 a 1,1 0 0 0 -0.707031,0.292969 1,1 0 0 0 0,1.414062 l 12,12 a 1,1 0 0 0 1.414062,0 1,1 0 0 0 0,-1.414062 l -12,-12 A 1,1 0 0 0 14,13 Z"
     id="path4" />
</svg>
