<svg width="16" height="16" viewBox="0 0 16 16" fill="none" xmlns="http://www.w3.org/2000/svg">
<path d="M6.99754 0.0436125C3.86856 0.431298 1.23971 2.64798 0.326961 5.66505C0.0706407 6.51233 -0.0200091 7.22518 0.00499776 8.23191C0.0362563 9.49501 0.273821 10.4705 0.830224 11.5866L1.0334 11.9962L0.511386 13.6189C0.0268788 15.1227 -0.0106315 15.2509 0.0018719 15.4291C0.0237529 15.7699 0.230059 15.9762 0.570778 15.9981C0.748951 16.0106 0.877111 15.9731 2.38065 15.4885L4.00297 14.9664L4.41245 15.1696C5.18454 15.5542 5.87848 15.7761 6.77873 15.9293C7.18509 15.9981 8.35103 16.0231 8.82929 15.9731C12.027 15.648 14.7372 13.4156 15.6687 10.3329C15.9 9.57318 16 8.86971 16 8.00055C16 7.34711 15.9687 6.98756 15.8562 6.42167C15.3311 3.75789 13.4774 1.54433 10.9174 0.528219C10.3485 0.299985 9.51072 0.0967627 8.8668 0.0279799C8.45731 -0.0157909 7.40077 -0.00641251 6.99754 0.0436125ZM9.10749 1.35361C10.5391 1.61937 11.7426 2.24467 12.746 3.2514C13.6025 4.10493 14.2026 5.1398 14.4996 6.26221C14.6778 6.94379 14.7028 7.13451 14.7028 8.00055C14.7028 8.86659 14.6778 9.0573 14.4996 9.73888C14.2026 10.8613 13.6025 11.8962 12.746 12.7497C11.7426 13.7564 10.5329 14.3849 9.10749 14.6475C8.73551 14.7131 7.70711 14.7413 7.28199 14.6944C6.8475 14.6475 6.41613 14.5568 6.00664 14.4286C5.55027 14.2817 5.30645 14.1785 4.72504 13.8784C4.23428 13.622 4.23115 13.622 4.0436 13.6376C3.92795 13.6501 3.42156 13.7971 2.74637 14.0159C2.13683 14.2129 1.63669 14.3723 1.63044 14.3692C1.62732 14.363 1.78674 13.8627 1.98366 13.2531C2.20247 12.5777 2.34939 12.0712 2.36189 11.9556C2.37752 11.7774 2.37127 11.7555 2.23061 11.4866C1.8555 10.78 1.7336 10.5017 1.57105 9.99213C1.44289 9.58255 1.35224 9.1511 1.30535 8.71652C1.25847 8.29131 1.2866 7.26269 1.35224 6.89064C1.61481 5.46496 2.24311 4.255 3.24964 3.2514C3.78416 2.71364 4.34056 2.31032 4.99699 1.98204C5.73156 1.61311 6.33798 1.43178 7.29449 1.29734C7.53206 1.26295 8.83867 1.30359 9.10749 1.35361Z" fill="#2F80ED"/>
<path d="M4.54407 7.27869C4.25649 7.40685 4.09082 7.67255 4.09082 8.00076C4.09082 8.46339 4.40966 8.78223 4.87228 8.78223C5.33491 8.78223 5.65375 8.46339 5.65375 8.00076C5.65375 7.53814 5.33491 7.2193 4.87228 7.2193C4.741 7.2193 4.62534 7.24118 4.54407 7.27869Z" fill="#2F80ED"/>
<path d="M7.67005 7.27869C7.38247 7.40685 7.2168 7.67255 7.2168 8.00076C7.2168 8.46339 7.53563 8.78223 7.99826 8.78223C8.46089 8.78223 8.77972 8.46339 8.77972 8.00076C8.77972 7.53814 8.46089 7.2193 7.99826 7.2193C7.86697 7.2193 7.75132 7.24118 7.67005 7.27869Z" fill="#2F80ED"/>
<path d="M10.795 7.27869C10.5075 7.40685 10.3418 7.67255 10.3418 8.00076C10.3418 8.46339 10.6606 8.78223 11.1233 8.78223C11.5859 8.78223 11.9047 8.46339 11.9047 8.00076C11.9047 7.53814 11.5859 7.2193 11.1233 7.2193C10.992 7.2193 10.8763 7.24118 10.795 7.27869Z" fill="#2F80ED"/>
</svg>
