<svg width="13" height="13" viewBox="0 0 13 13" fill="none" xmlns="http://www.w3.org/2000/svg">
<path d="M6.13889 9.54164C6.30416 9.54164 6.4427 9.48518 6.55453 9.37228C6.66635 9.25925 6.72226 9.12124 6.72226 8.95826C6.72226 8.7954 6.66635 8.65746 6.55453 8.54443C6.4427 8.43152 6.30416 8.37507 6.13889 8.37507C5.97362 8.37507 5.83507 8.43152 5.72325 8.54443C5.61143 8.65746 5.55551 8.7954 5.55551 8.95826C5.55551 9.12124 5.61143 9.25925 5.72325 9.37228C5.83507 9.48518 5.97362 9.54164 6.13889 9.54164ZM6.52492 6.87212C6.62868 6.76824 6.68056 6.63957 6.68056 6.4861V3.20829C6.68056 3.05482 6.62862 2.9262 6.52474 2.82244C6.42086 2.71856 6.29218 2.66662 6.13871 2.66662C5.98512 2.66662 5.8565 2.71856 5.75286 2.82244C5.6491 2.9262 5.59722 3.05482 5.59722 3.20829V6.4861C5.59722 6.63957 5.64916 6.76824 5.75304 6.87212C5.85692 6.97588 5.9856 7.02776 6.13907 7.02776C6.29266 7.02776 6.42128 6.97588 6.52492 6.87212ZM4.12371 12.2778C3.94749 12.2778 3.77957 12.244 3.61996 12.1763C3.46035 12.1088 3.32132 12.0157 3.20288 11.8972L0.380611 9.0749C0.262046 8.95646 0.169 8.81743 0.101472 8.65782C0.033824 8.49821 0 8.33029 0 8.15407V4.12371C0 3.94749 0.033824 3.77957 0.101472 3.61996C0.169 3.46035 0.262046 3.32132 0.380611 3.20288L3.20288 0.380611C3.32132 0.262047 3.46035 0.169 3.61996 0.101472C3.77957 0.033824 3.94749 0 4.12371 0H8.15407C8.33029 0 8.49821 0.033824 8.65782 0.101472C8.81743 0.169 8.95646 0.262047 9.0749 0.380611L11.8972 3.20288C12.0157 3.32132 12.1088 3.46035 12.1763 3.61996C12.244 3.77957 12.2778 3.94749 12.2778 4.12371V8.15407C12.2778 8.33029 12.244 8.49821 12.1763 8.65782C12.1088 8.81743 12.0157 8.95646 11.8972 9.0749L9.0749 11.8972C8.95646 12.0157 8.81743 12.1088 8.65782 12.1763C8.49821 12.244 8.33029 12.2778 8.15407 12.2778H4.12371ZM4.04444 11.1944H8.23333L11.1944 8.23333V4.04444L8.23333 1.08333H4.04444L1.08333 4.04444V8.23333L4.04444 11.1944Z" fill="#E64646"/>
</svg>
