<svg width="16" height="20" viewBox="0 0 16 20" fill="none" xmlns="http://www.w3.org/2000/svg">
<path d="M15.4113 4.442L11.558 0.588667C11.1785 0.217638 10.6707 0.00685525 10.14 0H4.66667C4.13623 0 3.62753 0.210714 3.25245 0.585786C2.87738 0.960859 2.66667 1.46957 2.66667 2V2.66667H2C1.46957 2.66667 0.960859 2.87738 0.585787 3.25245C0.210714 3.62753 0 4.13623 0 4.66667V18C0 18.5304 0.210714 19.0391 0.585787 19.4142C0.960859 19.7893 1.46957 20 2 20H11.3333C11.8638 20 12.3725 19.7893 12.7475 19.4142C13.1226 19.0391 13.3333 18.5304 13.3333 18V17.3333H14C14.5304 17.3333 15.0391 17.1226 15.4142 16.7475C15.7893 16.3725 16 15.8638 16 15.3333V5.86C15.9983 5.32822 15.7868 4.8186 15.4113 4.442ZM13.7507 4.66667H12C11.8232 4.66667 11.6536 4.59643 11.5286 4.4714C11.4036 4.34638 11.3333 4.17681 11.3333 4V2.24933L13.7507 4.66667ZM12 18C12 18.1768 11.9298 18.3464 11.8047 18.4714C11.6797 18.5964 11.5101 18.6667 11.3333 18.6667H2C1.82319 18.6667 1.65362 18.5964 1.5286 18.4714C1.40357 18.3464 1.33333 18.1768 1.33333 18V4.66667C1.33333 4.48986 1.40357 4.32029 1.5286 4.19526C1.65362 4.07024 1.82319 4 2 4H2.66667V15.3333C2.66667 15.8638 2.87738 16.3725 3.25245 16.7475C3.62753 17.1226 4.13623 17.3333 4.66667 17.3333H12V18ZM14 16H4.66667C4.48986 16 4.32029 15.9298 4.19526 15.8047C4.07024 15.6797 4 15.5101 4 15.3333V2C4 1.82319 4.07024 1.65362 4.19526 1.5286C4.32029 1.40357 4.48986 1.33333 4.66667 1.33333H10V4C10 4.53043 10.2107 5.03914 10.5858 5.41421C10.9609 5.78929 11.4696 6 12 6H14.6667V15.3333C14.6667 15.5101 14.5964 15.6797 14.4714 15.8047C14.3464 15.9298 14.1768 16 14 16Z" fill="#323F4B"/>
</svg>
