<svg width="25" height="30" viewBox="0 0 25 30" fill="none" xmlns="http://www.w3.org/2000/svg">
<path d="M9.74999 1.24998C10.0865 1.24998 10.3594 0.970137 10.3594 0.624961C10.3594 0.279785 10.0865 0 9.74999 0C8.40381 0 7.31248 1.11932 7.31248 2.50002V3.75H1.82812C0.818483 3.75 0 4.58947 0 5.625V7.5C0 7.84517 0.272847 8.12502 0.609392 8.12502H20.6821L19.5974 27.5688C19.5618 28.2322 19.0264 28.751 18.3787 28.75H5.99018C5.34239 28.751 4.80704 28.2322 4.77145 27.5688L3.79643 9.96252C3.77627 9.61734 3.48702 9.35432 3.15048 9.375C2.81393 9.39568 2.55748 9.69234 2.57765 10.0375L3.55872 27.6438C3.6331 28.968 4.70289 30.0022 5.99623 30H18.3848C19.6781 30.0022 20.748 28.968 20.8223 27.6438L21.9375 7.5375C21.9577 7.19297 21.7017 6.89683 21.3658 6.87615C21.3533 6.87539 21.3407 6.87498 21.3282 6.87504H1.21878V5.625C1.21878 5.27982 1.49163 4.99998 1.82818 4.99998H22.5469C22.8834 4.99998 23.1562 5.27982 23.1562 5.625V7.5C23.1562 7.84517 23.4291 8.12502 23.7656 8.12502C24.1022 8.12502 24.375 7.84517 24.375 7.5V5.625C24.375 4.58947 23.5565 3.75 22.5469 3.75H17.0625V2.50002C17.0625 1.11932 15.9712 0 14.625 0H12.1875C11.851 0 11.5781 0.279844 11.5781 0.625019C11.5781 0.970195 11.851 1.24998 12.1875 1.24998H14.625C15.2981 1.24998 15.8437 1.80961 15.8437 2.49996V3.75H8.53126V2.50002C8.53126 1.80967 9.0769 1.24998 9.74999 1.24998Z" fill="#B8C4D2"/>
<path d="M12.7989 24.375V11.875C12.7989 11.5298 12.526 11.25 12.1895 11.25C11.8529 11.25 11.5801 11.5298 11.5801 11.875V24.375C11.5801 24.7202 11.8529 25 12.1895 25C12.526 25 12.7989 24.7202 12.7989 24.375Z" fill="#B8C4D2"/>
<path d="M17.0606 24.375V11.875C17.0606 11.5298 16.7877 11.25 16.4512 11.25C16.1146 11.25 15.8418 11.5298 15.8418 11.875V24.375C15.8418 24.7202 16.1146 25 16.4512 25C16.7878 25 17.0606 24.7202 17.0606 24.375Z" fill="#B8C4D2"/>
<path d="M8.53128 24.375V11.875C8.53128 11.5298 8.25844 11.25 7.92189 11.25C7.58535 11.25 7.3125 11.5298 7.3125 11.875V24.375C7.3125 24.7202 7.58535 25 7.92189 25C8.25844 25 8.53128 24.7202 8.53128 24.375Z" fill="#B8C4D2"/>
</svg>
