<?xml version="1.0" encoding="UTF-8" standalone="no"?>
<svg
   width="40"
   height="40"
   viewBox="0 0 40 40"
   fill="none"
   version="1.1"
   id="svg6"
   sodipodi:docname="diet.svg"
   inkscape:version="1.1.1 (3bf5ae0d25, 2021-09-20)"
   xmlns:inkscape="http://www.inkscape.org/namespaces/inkscape"
   xmlns:sodipodi="http://sodipodi.sourceforge.net/DTD/sodipodi-0.dtd"
   xmlns="http://www.w3.org/2000/svg"
   xmlns:svg="http://www.w3.org/2000/svg">
  <defs
     id="defs10" />
  <sodipodi:namedview
     id="namedview8"
     pagecolor="#ffffff"
     bordercolor="#666666"
     borderopacity="1.0"
     inkscape:pageshadow="2"
     inkscape:pageopacity="0.0"
     inkscape:pagecheckerboard="0"
     showgrid="false"
     inkscape:zoom="20.05"
     inkscape:cx="19.975062"
     inkscape:cy="19.975062"
     inkscape:window-width="1920"
     inkscape:window-height="991"
     inkscape:window-x="-9"
     inkscape:window-y="-9"
     inkscape:window-maximized="1"
     inkscape:current-layer="svg6" />
  <path
     style="color:#000000;fill:#7b8794;stroke-linecap:round;stroke-linejoin:round;-inkscape-stroke:none"
     d="M 27.298828,9.8417969 C 19.355344,9.9887673 15.055767,12.039202 12.876953,15.146484 10.697542,18.254619 10.75,22.088603 10.75,25.5 v 3.667969 a 1,1 0 0 0 1,1 1,1 0 0 0 1,-1 V 25.5 c 0,-3.411397 0.05196,-6.761168 1.765625,-9.205078 1.70459,-2.430975 5.177984,-4.287855 12.71875,-4.445313 -0.04077,2.160301 -0.304125,5.364504 -1.738281,7.951172 C 24.039838,22.427309 21.529344,24.5 16.333984,24.5 a 1,1 0 0 0 -1,1 1,1 0 0 0 1,1 c 5.76253,0 9.169894,-2.588178 10.91211,-5.730469 1.742216,-3.142291 1.961867,-6.735496 1.998047,-9.005859 a 1.0001,1.0001 0 0 0 0,-0.01172 c 0.0013,-0.253798 -0.04886,-0.505557 -0.146485,-0.740234 -0.09773,-0.234729 -0.240141,-0.446648 -0.421875,-0.625 C 28.494349,10.208451 28.279405,10.068045 28.042969,9.9746094 27.808566,9.8819776 27.556913,9.836709 27.304687,9.8417969 Z"
     id="path2" />
  <path
     style="color:#000000;fill:#7b8794;stroke-linecap:round;stroke-linejoin:round;-inkscape-stroke:none"
     d="m 18.958984,18.091797 c -3.910899,0.488882 -6.083913,2.296014 -7.144531,4.019531 C 10.753835,23.834845 10.75,25.5 10.75,25.5 a 1,1 0 0 0 1,1 1,1 0 0 0 1,-1 c 0,0 -0.0051,-1.084188 0.767578,-2.339844 0.772705,-1.255655 2.26706,-2.656168 5.689453,-3.083984 a 1,1 0 0 0 0.869141,-1.117188 1,1 0 0 0 -1.117188,-0.867187 z"
     id="path4" />
</svg>
