<?xml version="1.0" encoding="UTF-8" standalone="no"?>
<svg
   id="Dots"
   width="18"
   height="4"
   viewBox="0 0 18 4"
   fill="none"
   version="1.1"
   sodipodi:docname="dotts.svg"
   inkscape:version="1.1.1 (3bf5ae0d25, 2021-09-20)"
   xmlns:inkscape="http://www.inkscape.org/namespaces/inkscape"
   xmlns:sodipodi="http://sodipodi.sourceforge.net/DTD/sodipodi-0.dtd"
   xmlns="http://www.w3.org/2000/svg"
   xmlns:svg="http://www.w3.org/2000/svg">
  <defs
     id="defs11" />
  <sodipodi:namedview
     id="namedview9"
     pagecolor="#ffffff"
     bordercolor="#666666"
     borderopacity="1.0"
     inkscape:pageshadow="2"
     inkscape:pageopacity="0.0"
     inkscape:pagecheckerboard="0"
     showgrid="false"
     inkscape:zoom="71.166667"
     inkscape:cx="9"
     inkscape:cy="2.0023419"
     inkscape:window-width="1920"
     inkscape:window-height="991"
     inkscape:window-x="-9"
     inkscape:window-y="-9"
     inkscape:window-maximized="1"
     inkscape:current-layer="Dots" />
  <path
     style="color:#000000;fill:#323f4b;stroke-linecap:round;stroke-linejoin:round;-inkscape-stroke:none"
     d="M 9,0 C 7.9072706,0 7,0.9072706 7,2 7,3.0927294 7.9072706,4 9,4 10.092729,4 11,3.0927294 11,2 11,0.9072706 10.092729,0 9,0 Z"
     id="path2" />
  <path
     style="color:#000000;fill:#323f4b;stroke-linecap:round;stroke-linejoin:round;-inkscape-stroke:none"
     d="m 16,0 c -1.09273,0 -2,0.90729474 -2,2 0,1.0927053 0.90727,2 2,2 1.09273,0 2,-0.9072947 2,-2 0,-1.09270526 -0.90727,-2 -2,-2 z"
     id="path4" />
  <path
     style="color:#000000;fill:#323f4b;stroke-linecap:round;stroke-linejoin:round;-inkscape-stroke:none"
     d="M 2,0 C 0.9072706,0 0,0.9072706 0,2 0,3.0927294 0.9072706,4 2,4 3.0927294,4 4,3.0927294 4,2 4,0.9072706 3.0927294,0 2,0 Z"
     id="path6" />
</svg>
