<svg width="18" height="18" viewBox="0 0 18 18" fill="none" xmlns="http://www.w3.org/2000/svg">
<g clip-path="url(#clip0_4336_25590)">
<path d="M9.84375 10.0125L12.0071 7.84912C12.1746 7.68188 12.3732 7.59928 12.6031 7.60134C12.8332 7.60359 13.0355 7.69191 13.21 7.86628C13.373 8.04084 13.4573 8.23847 13.4632 8.45916C13.469 8.67984 13.3846 8.87747 13.21 9.05203L9.71184 12.5502C9.60647 12.6556 9.49538 12.7298 9.37856 12.773C9.26175 12.8163 9.13556 12.8379 9 12.8379C8.86444 12.8379 8.73825 12.8163 8.62144 12.773C8.50463 12.7298 8.39353 12.6556 8.28816 12.5502L4.78997 9.05203C4.62272 8.88459 4.54012 8.68875 4.54219 8.4645C4.54444 8.24025 4.62703 8.04084 4.78997 7.86628C4.96453 7.69191 5.16497 7.60181 5.39128 7.596C5.61778 7.59019 5.81831 7.67456 5.99288 7.84912L8.15625 10.0125V1.40625C8.15625 1.16681 8.23706 0.966375 8.39869 0.804937C8.56013 0.643312 8.76056 0.5625 9 0.5625C9.23944 0.5625 9.43988 0.643312 9.60131 0.804937C9.76294 0.966375 9.84375 1.16681 9.84375 1.40625L9.84375 10.0125ZM17.4375 13.1971V15.4038C17.4375 15.9721 17.2406 16.4531 16.8469 16.8469C16.4531 17.2406 15.9721 17.4375 15.4038 17.4375L2.59622 17.4375C2.02791 17.4375 1.54688 17.2406 1.15313 16.8469C0.759375 16.4531 0.5625 15.9721 0.5625 15.4038V13.1971C0.5625 12.9577 0.643312 12.7572 0.804937 12.5958C0.966375 12.4342 1.16681 12.3533 1.40625 12.3533C1.64569 12.3533 1.84613 12.4342 2.00756 12.5958C2.16919 12.7572 2.25 12.9577 2.25 13.1971V15.4038C2.25 15.4904 2.28609 15.5697 2.35828 15.6417C2.43028 15.7139 2.50959 15.75 2.59622 15.75L15.4038 15.75C15.4904 15.75 15.5697 15.7139 15.6417 15.6417C15.7139 15.5697 15.75 15.4904 15.75 15.4038V13.1971C15.75 12.9577 15.8308 12.7572 15.9924 12.5958C16.1539 12.4342 16.3543 12.3533 16.5938 12.3533C16.8332 12.3533 17.0336 12.4342 17.1951 12.5958C17.3567 12.7572 17.4375 12.9577 17.4375 13.1971Z" fill="#2F80ED"/>
</g>
<defs>
<clipPath id="clip0_4336_25590">
<rect width="18" height="18" fill="white" transform="matrix(-1 0 0 -1 18 18)"/>
</clipPath>
</defs>
</svg>
