<svg width="14" height="14" viewBox="0 0 14 14" fill="none" xmlns="http://www.w3.org/2000/svg">
<path d="M6.08783 10.1071C6.33135 10.3511 6.65526 10.4854 6.99996 10.4854C7.34413 10.4854 7.66778 10.3514 7.91133 10.1079L10.3965 7.62273C10.899 7.12023 10.899 6.30263 10.3965 5.80007C10.1531 5.55669 9.82941 5.42262 9.48518 5.42262C9.14095 5.42262 8.81731 5.55666 8.57389 5.8001L8.28881 6.08521L8.28875 1.28882C8.28875 0.578184 7.7106 0 6.99999 0C6.28932 0 5.71114 0.578184 5.71114 1.28882V6.08508L5.42613 5.8001C5.18269 5.55666 4.859 5.42257 4.51471 5.42257C4.17048 5.42257 3.84687 5.55661 3.60346 5.80002C3.10093 6.30252 3.10093 7.12018 3.60346 7.62267L6.08783 10.1071ZM4.18353 6.38006C4.27198 6.29161 4.38962 6.24288 4.51474 6.24288C4.63992 6.24288 4.75758 6.29161 4.84612 6.38017L5.83129 7.36529C5.94859 7.48256 6.12501 7.51762 6.27828 7.45418C6.43154 7.39069 6.53148 7.24112 6.53148 7.07525V1.28882C6.53145 1.0305 6.74164 0.820312 6.99999 0.820312C7.25828 0.820312 7.46844 1.0305 7.46844 1.28882L7.46849 7.07544C7.46849 7.24134 7.56844 7.39091 7.7217 7.45437C7.87499 7.51786 8.05141 7.48275 8.16869 7.36545L9.15394 6.38014C9.24242 6.29169 9.36005 6.24293 9.48518 6.24293C9.61033 6.24293 9.72799 6.29166 9.81645 6.38012C9.9991 6.56283 9.9991 6.86006 9.81647 7.04271L7.33136 9.52782C7.2428 9.61633 7.12508 9.66511 6.99996 9.66511C6.87467 9.66511 6.75693 9.61628 6.66817 9.52733L4.18353 7.04266C4.00087 6.85997 4.00087 6.56275 4.18353 6.38006Z" fill="#2F80ED"/>
<path d="M12.7112 8.78662C12.0006 8.78662 11.4224 9.3648 11.4224 10.0754V11.4226H2.57761V10.0754C2.57761 9.3648 1.99946 8.78662 1.28882 8.78662C0.578156 8.78662 0 9.3648 0 10.0754V12.7114C0 13.422 0.578156 14.0002 1.28882 14.0002H12.7112C13.4218 14.0002 14 13.422 14 12.7114V10.0754C14 9.3648 13.4218 8.78662 12.7112 8.78662ZM13.1797 12.7114C13.1797 12.9697 12.9695 13.1799 12.7112 13.1799H1.28882C1.03048 13.1799 0.820312 12.9697 0.820312 12.7114V10.0754C0.820312 9.81713 1.03048 9.60693 1.28882 9.60693C1.54714 9.60693 1.7573 9.81713 1.7573 10.0754V11.8327C1.7573 12.0593 1.94094 12.2429 2.16746 12.2429H11.8326C12.0591 12.2429 12.2427 12.0593 12.2427 11.8327V10.0754C12.2427 9.81713 12.4529 9.60693 12.7112 9.60693C12.9696 9.60693 13.1797 9.81713 13.1797 10.0754V12.7114Z" fill="#2F80ED"/>
</svg>
