<svg width="20" height="20" viewBox="0 0 20 20" fill="none" xmlns="http://www.w3.org/2000/svg">
<path fill-rule="evenodd" clip-rule="evenodd" d="M14.1927 0.5481L6.38885 8.35096C6.1212 8.61858 5.9707 8.98238 5.9707 9.36048V13.6805C5.9707 13.9433 6.18406 14.1567 6.44695 14.1567H10.7675C11.1456 14.1567 11.5095 14.0062 11.7772 13.7386C12.9868 12.5291 17.7941 7.72238 19.581 5.93572C19.8487 5.6681 19.9991 5.30429 19.9991 4.9262C19.9991 4.54715 19.8487 4.18334 19.581 3.91572C18.6847 3.01953 17.1093 1.44429 16.213 0.5481C15.9453 0.280481 15.5814 0.130005 15.2024 0.130005C14.8242 0.130005 14.4604 0.280481 14.1927 0.5481ZM14.8661 1.22239C14.9557 1.13286 15.0766 1.08239 15.2024 1.08239C15.329 1.08239 15.45 1.13286 15.5395 1.22239L18.9076 4.58905C18.9962 4.67858 19.0466 4.79953 19.0466 4.9262C19.0466 5.05191 18.9962 5.17286 18.9076 5.26239L11.1037 13.0652C11.0142 13.1538 10.8932 13.2043 10.7675 13.2043H6.92321V9.36048C6.92321 9.23477 6.97369 9.11381 7.06322 9.02429L14.8661 1.22239Z" fill="white"/>
<path fill-rule="evenodd" clip-rule="evenodd" d="M17.5667 7.28286L12.8527 2.56858C12.666 2.38286 12.3651 2.38286 12.1784 2.56858C11.9926 2.75429 11.9926 3.0562 12.1784 3.24191L16.8933 7.9562C17.079 8.14191 17.3809 8.14191 17.5667 7.9562C17.7524 7.76953 17.7524 7.46858 17.5667 7.28286Z" fill="white"/>
<path fill-rule="evenodd" clip-rule="evenodd" d="M19.0034 10.9552C19.0034 10.9552 19.0329 16.3324 19.0443 18.5686C19.0453 18.6952 18.9957 18.8171 18.9062 18.9076C18.8167 18.9971 18.6957 19.0476 18.569 19.0476C18.5681 19.0476 1.42875 19.0476 1.42875 19.0476C1.30207 19.0476 1.1811 18.9971 1.09157 18.9086C1.00298 18.819 0.952502 18.6981 0.952502 18.5714V1.42857C0.952502 1.16571 1.16586 0.952381 1.42875 0.952381H10.0013C10.2642 0.952381 10.4775 0.739048 10.4775 0.47619C10.4775 0.213333 10.2642 0 10.0013 0H1.42875C0.640081 0 0 0.64 0 1.42857V18.5714C0 18.9505 0.150495 19.3133 0.418148 19.5819C0.686754 19.8495 1.04966 20 1.42875 20H18.5681C18.9491 20 19.3139 19.8486 19.5815 19.579C19.8501 19.3095 19.9997 18.9438 19.9968 18.5638C19.9854 16.3276 19.9559 10.9495 19.9559 10.9495C19.954 10.6867 19.7396 10.4752 19.4768 10.4762C19.2139 10.4781 19.0015 10.6924 19.0034 10.9552Z" fill="white"/>
</svg>
