<svg width="18" height="18" viewBox="0 0 18 18" fill="none" xmlns="http://www.w3.org/2000/svg">
<g clip-path="url(#clip0_4336_25579)">
<path d="M12.7102 0.2462C12.5497 0.297069 12.3306 0.387069 12.2211 0.445765C12.0919 0.520112 10.4993 2.08533 7.20453 5.3762C2.9667 9.61011 2.36801 10.2205 2.26627 10.4279C2.15279 10.651 2.14105 10.7214 2.03149 11.9149C1.89453 13.3901 1.8867 13.6914 1.98844 13.9145C2.14105 14.251 2.43062 14.474 2.79453 14.5327C2.9667 14.5601 5.42409 14.3488 5.70583 14.2823C6.15192 14.1727 6.03844 14.2784 11.055 9.26185C16.318 3.99881 16.0715 4.26489 16.2397 3.59968C16.3924 3.0049 16.2984 2.36316 15.9815 1.81533C15.9228 1.70968 15.6332 1.38489 15.3397 1.09533C14.7567 0.512286 14.475 0.328373 14.0015 0.214895C13.6258 0.128808 13.0702 0.140547 12.7102 0.2462ZM13.755 1.47098C13.9115 1.52576 14.0328 1.62359 14.4202 2.01098C14.8037 2.39446 14.9054 2.51968 14.9563 2.6762C15.1206 3.16533 15.0111 3.44707 14.4202 4.03011L14.0054 4.44098L12.9958 3.43142L11.9902 2.42185L12.4402 1.97968C12.7767 1.65098 12.9371 1.52185 13.0663 1.47489C13.2971 1.39663 13.5163 1.39272 13.755 1.47098ZM9.26279 9.1875C7.16931 11.281 5.42018 13.0027 5.37714 13.0105C5.28322 13.034 3.22888 13.2258 3.21714 13.2101C3.21322 13.2062 3.25236 12.7092 3.30714 12.1066L3.40888 11.0149L7.23192 7.19185L11.0511 3.36489L12.0567 4.37055L13.0663 5.38011L9.26279 9.1875Z" fill="#2F80ED"/>
<path d="M0.368591 16.6067C0.219896 16.6733 0.133809 16.7672 0.055548 16.955C-0.0266259 17.1507 -0.0187998 17.2915 0.0868523 17.4911C0.149461 17.6085 0.231635 17.6907 0.349026 17.7533L0.517287 17.8433H8.99685H17.4764L17.6447 17.7533C17.8403 17.6515 17.9969 17.4011 17.9969 17.2015C17.9969 17.0372 17.8482 16.7515 17.7112 16.6537L17.6016 16.5715L9.04381 16.5637C2.00033 16.5559 0.466418 16.5637 0.368591 16.6067Z" fill="#2F80ED"/>
</g>
<defs>
<clipPath id="clip0_4336_25579">
<rect width="18" height="18" fill="white"/>
</clipPath>
</defs>
</svg>
