<svg width="20" height="20" viewBox="0 0 20 20" fill="none" xmlns="http://www.w3.org/2000/svg">
<path d="M17.2656 0.0899615C16.8359 0.234489 16.6445 0.379017 15.9375 1.07822L15.2539 1.75789L16.75 3.25004L18.2461 4.74609L18.9375 4.04299C19.8437 3.12504 20 2.83599 20 2.09382C20 1.46102 19.8281 1.03916 19.3945 0.605574C18.957 0.168085 18.539 0.000120163 17.8906 0.000120163C17.6094 0.000120163 17.457 0.0235572 17.2656 0.0899615Z" fill="#2F80ED"/>
<path d="M11.048 5.96421C7.74726 9.27272 7.70429 9.3196 7.66523 9.511C7.07929 12.4055 7.05976 12.5187 7.13007 12.6672C7.16914 12.7531 7.24726 12.8312 7.3332 12.8703C7.47382 12.9367 7.49335 12.9328 8.98162 12.6398C9.80974 12.4719 10.5441 12.3234 10.6066 12.3C10.6847 12.2766 11.8214 11.1672 14.0558 8.93679L17.3839 5.60485L15.8878 4.10879L14.3956 2.61664L11.048 5.96421Z" fill="#2F80ED"/>
<path d="M1.92617 3.37908C1.23868 3.52751 0.570714 4.05875 0.254311 4.70717C-0.0152173 5.25793 0.000407555 4.7931 0.000407555 11.6718C0.000407555 18.6365 -0.0230297 18.0974 0.285561 18.6912C0.504309 19.113 0.887118 19.4958 1.31289 19.7185C1.89492 20.0193 1.40274 19.9997 8.34017 19.9997C15.2073 19.9997 14.7424 20.0154 15.2932 19.7458C15.9495 19.4255 16.4729 18.7615 16.6213 18.0545C16.6682 17.8396 16.6799 17.1678 16.6799 14.2147V10.6406L16.5823 10.4414C16.4338 10.1484 16.2346 10.0234 15.8792 10.0078C15.5823 9.99219 15.426 10.0391 15.2424 10.2109C15.0081 10.4219 15.0198 10.1992 15.0003 14.1015C14.9807 17.4803 14.9768 17.6834 14.9065 17.8201C14.8089 18.0193 14.5667 18.2303 14.3831 18.281C14.2737 18.3084 12.3909 18.3162 8.25423 18.3123L2.28554 18.3006L2.10195 18.1912C1.98086 18.1209 1.8793 18.0193 1.80898 17.8982L1.69961 17.7146L1.68789 11.746C1.68398 7.60944 1.6918 5.72667 1.71914 5.6173C1.76992 5.43371 1.98086 5.19153 2.18007 5.09387C2.31679 5.02356 2.51991 5.01966 5.9066 5.00013L9.48469 4.9806L9.65266 4.86341C9.7425 4.79701 9.85968 4.66811 9.91047 4.57045C9.9925 4.42202 10.0042 4.35171 9.9925 4.11734C9.97687 3.76579 9.85187 3.56657 9.55891 3.41814L9.35969 3.32048L5.76598 3.32439C2.90272 3.32439 2.11757 3.33611 1.92617 3.37908Z" fill="#2F80ED"/>
</svg>
