<svg width="20" height="14" viewBox="0 0 20 14" fill="none" xmlns="http://www.w3.org/2000/svg">
<path d="M7.06407 7C7.06407 7.63782 7.32457 8.24952 7.78828 8.70053C8.25199 9.15154 8.88091 9.40491 9.53669 9.40491C10.1925 9.40491 10.8214 9.15154 11.2851 8.70053C11.7488 8.24952 12.0093 7.63782 12.0093 7C12.0093 6.36218 11.7488 5.75048 11.2851 5.29947C10.8214 4.84847 10.1925 4.59509 9.53669 4.59509C8.88091 4.59509 8.25199 4.84847 7.78828 5.29947C7.32457 5.75048 7.06407 6.36218 7.06407 7ZM19.1225 6.44601C17.0296 2.15798 13.866 0 9.62499 0C5.3818 0 2.22038 2.15798 0.127484 6.44816C0.0435372 6.62105 0 6.80987 0 7.00107C0 7.19227 0.0435372 7.3811 0.127484 7.55399C2.22038 11.842 5.38401 14 9.62499 14C13.8682 14 17.0296 11.842 19.1225 7.55184C19.2925 7.20399 19.2925 6.80031 19.1225 6.44601ZM9.53669 10.7791C7.39081 10.7791 5.65114 9.08712 5.65114 7C5.65114 4.91288 7.39081 3.22086 9.53669 3.22086C11.6826 3.22086 13.4222 4.91288 13.4222 7C13.4222 9.08712 11.6826 10.7791 9.53669 10.7791Z" fill="white"/>
</svg>
