<svg width="24" height="15" viewBox="0 0 24 15" fill="none" xmlns="http://www.w3.org/2000/svg">
<path d="M23.7852 6.51477C23.6 6.2488 19.172 0 12 0C4.828 0 0.400007 6.2488 0.214804 6.51477C-0.0716014 6.92675 -0.0716014 7.47317 0.214804 7.88516C0.400007 8.15117 4.828 14.4 12 14.4C19.172 14.4 23.6 8.15117 23.7852 7.8852C24.0716 7.47317 24.0716 6.9268 23.7852 6.51477ZM12 13C5.37283 13 1.5 7.19999 1.5 7.19999C1.5 7.19999 5.37283 1.5 12 1.5C18.6272 1.5 22.5 7.19999 22.5 7.19999C22.5 7.19999 18.6272 13 12 13Z" fill="white"/>
<path d="M12 2.39999C9.34923 2.39999 7.20001 4.54879 7.20001 7.19998C7.20001 9.85118 9.3488 12 12 12C14.6512 12 16.8 9.85118 16.8 7.19998C16.8 4.54879 14.6508 2.39999 12 2.39999ZM12 10.8C10.0148 10.8 8.40001 9.18518 8.40001 7.19998C8.40001 5.21479 10.0148 3.59999 12 3.59999C13.9852 3.59999 15.6 5.21479 15.6 7.19998C15.6 9.18518 13.9852 10.8 12 10.8Z" fill="white"/>
</svg>
