<svg xmlns="http://www.w3.org/2000/svg" width="22" height="22" viewBox="0 0 22 22" fill="none">
    <path
        d="M10.9993 14.6667C12.1452 14.6667 13.1191 14.2657 13.9212 13.4636C14.7233 12.6615 15.1243 11.6876 15.1243 10.5417C15.1243 9.39592 14.7233 8.42196 13.9212 7.61987C13.1191 6.81779 12.1452 6.41675 10.9993 6.41675C9.85351 6.41675 8.87956 6.81779 8.07747 7.61987C7.27539 8.42196 6.87435 9.39592 6.87435 10.5417C6.87435 11.6876 7.27539 12.6615 8.07747 13.4636C8.87956 14.2657 9.85351 14.6667 10.9993 14.6667ZM10.9993 13.0167C10.3118 13.0167 9.72747 12.7761 9.24622 12.2949C8.76497 11.8136 8.52435 11.2292 8.52435 10.5417C8.52435 9.85425 8.76497 9.26987 9.24622 8.78862C9.72747 8.30737 10.3118 8.06675 10.9993 8.06675C11.6868 8.06675 12.2712 8.30737 12.7525 8.78862C13.2337 9.26987 13.4743 9.85425 13.4743 10.5417C13.4743 11.2292 13.2337 11.8136 12.7525 12.2949C12.2712 12.7761 11.6868 13.0167 10.9993 13.0167ZM10.9993 17.4167C8.76879 17.4167 6.73685 16.7942 4.90352 15.549C3.07018 14.3039 1.74102 12.6348 0.916016 10.5417C1.74102 8.44869 3.07018 6.7796 4.90352 5.53446C6.73685 4.28932 8.76879 3.66675 10.9993 3.66675C13.2299 3.66675 15.2618 4.28932 17.0952 5.53446C18.9285 6.7796 20.2577 8.44869 21.0827 10.5417C20.2577 12.6348 18.9285 14.3039 17.0952 15.549C15.2618 16.7942 13.2299 17.4167 10.9993 17.4167ZM10.9993 15.5834C12.7257 15.5834 14.3108 15.1289 15.7546 14.2199C17.1983 13.3108 18.3021 12.0848 19.066 10.5417C18.3021 8.99869 17.1983 7.77265 15.7546 6.86362C14.3108 5.9546 12.7257 5.50008 10.9993 5.50008C9.27296 5.50008 7.68789 5.9546 6.24414 6.86362C4.80039 7.77265 3.69657 8.99869 2.93268 10.5417C3.69657 12.0848 4.80039 13.3108 6.24414 14.2199C7.68789 15.1289 9.27296 15.5834 10.9993 15.5834Z"
        fill="#737B8C" />
</svg>