<svg width="16" height="16" viewBox="0 0 16 16" fill="none" xmlns="http://www.w3.org/2000/svg">
<path opacity="0.998" d="M8 0C3.58957 0 0 3.58957 0 8C0 12.4104 3.58957 15.9999 8 15.9999C12.3887 15.9999 15.9616 12.4449 15.9967 8.0643C15.9988 8.04293 15.9999 8.02147 16 8C16 7.978 15.9989 7.95602 15.9967 7.93413C15.9607 3.55423 12.3882 0 8 0ZM8 1.3223C9.60903 1.3223 11.0826 1.88769 12.2339 2.83094L2.83108 12.234C1.88776 11.0827 1.32237 9.60911 1.32237 8C1.32237 4.3042 4.3042 1.3223 8 1.3223ZM13.1689 3.766C14.1122 4.91725 14.6777 6.39089 14.6777 8C14.6777 11.6958 11.6958 14.6776 8 14.6776C6.3909 14.6776 4.91725 14.1122 3.766 13.1689L13.1689 3.766Z" fill="#ED2F2F"/>
</svg>
