<?xml version="1.0" encoding="UTF-8" standalone="no"?>
<svg
   width="40"
   height="40"
   viewBox="0 0 40 40"
   fill="none"
   version="1.1"
   id="svg12"
   sodipodi:docname="file-text.svg"
   inkscape:version="1.1.1 (3bf5ae0d25, 2021-09-20)"
   xmlns:inkscape="http://www.inkscape.org/namespaces/inkscape"
   xmlns:sodipodi="http://sodipodi.sourceforge.net/DTD/sodipodi-0.dtd"
   xmlns="http://www.w3.org/2000/svg"
   xmlns:svg="http://www.w3.org/2000/svg">
  <defs
     id="defs16" />
  <sodipodi:namedview
     id="namedview14"
     pagecolor="#ffffff"
     bordercolor="#666666"
     borderopacity="1.0"
     inkscape:pageshadow="2"
     inkscape:pageopacity="0.0"
     inkscape:pagecheckerboard="0"
     showgrid="false"
     inkscape:zoom="20.05"
     inkscape:cx="19.975062"
     inkscape:cy="19.975062"
     inkscape:window-width="1920"
     inkscape:window-height="991"
     inkscape:window-x="-9"
     inkscape:window-y="-9"
     inkscape:window-maximized="1"
     inkscape:current-layer="svg12" />
  <path
     style="color:#000000;fill:#2f80ed;stroke-linecap:round;stroke-linejoin:round;-inkscape-stroke:none"
     d="M 14,9 C 13.204769,9 12.44126,9.316552 11.878906,9.8789063 11.316552,10.44126 11,11.204769 11,12 v 16 c 0,0.795231 0.316552,1.55874 0.878906,2.121094 C 12.44126,30.683448 13.204769,31 14,31 h 12 c 0.795231,0 1.55874,-0.316552 2.121094,-0.878906 C 28.683448,29.55874 29,28.795231 29,28 V 16 a 1.0001,1.0001 0 0 0 -0.292969,-0.707031 l -6,-6.0000002 A 1.0001,1.0001 0 0 0 22,9 Z m 0,2 h 7.585937 L 27,16.414062 V 28 c 0,0.265568 -0.105124,0.519186 -0.292969,0.707031 C 26.519186,28.894876 26.265568,29 26,29 H 14 C 13.734432,29 13.480814,28.894876 13.292969,28.707031 13.105124,28.519186 13,28.265568 13,28 V 12 c 0,-0.265568 0.105124,-0.519186 0.292969,-0.707031 C 13.480814,11.105124 13.734432,11 14,11 Z"
     id="path2" />
  <path
     style="color:#000000;fill:#2f80ed;stroke-linecap:round;stroke-linejoin:round;-inkscape-stroke:none"
     d="m 22,9 a 1,1 0 0 0 -1,1 v 6 a 1.0001,1.0001 0 0 0 1,1 h 6 a 1,1 0 0 0 1,-1 1,1 0 0 0 -1,-1 H 23 V 10 A 1,1 0 0 0 22,9 Z"
     id="path4" />
  <path
     style="color:#000000;fill:#2f80ed;stroke-linecap:round;stroke-linejoin:round;-inkscape-stroke:none"
     d="m 16,20 a 1,1 0 0 0 -1,1 1,1 0 0 0 1,1 h 8 a 1,1 0 0 0 1,-1 1,1 0 0 0 -1,-1 z"
     id="path6" />
  <path
     style="color:#000000;fill:#2f80ed;stroke-linecap:round;stroke-linejoin:round;-inkscape-stroke:none"
     d="m 16,24 a 1,1 0 0 0 -1,1 1,1 0 0 0 1,1 h 8 a 1,1 0 0 0 1,-1 1,1 0 0 0 -1,-1 z"
     id="path8" />
  <path
     style="color:#000000;fill:#2f80ed;stroke-linecap:round;stroke-linejoin:round;-inkscape-stroke:none"
     d="m 16,16 a 1,1 0 0 0 -1,1 1,1 0 0 0 1,1 h 1 1 a 1,1 0 0 0 1,-1 1,1 0 0 0 -1,-1 h -1 z"
     id="path10" />
</svg>
