<svg width="30" height="19" viewBox="0 0 30 19" fill="none" xmlns="http://www.w3.org/2000/svg">
<path d="M8.50781 0.367322C7.22461 0.713025 6.12891 1.73256 5.73047 2.95717L5.60156 3.34974L3.11133 3.36732C0.738281 3.3849 0.603516 3.39076 0.421875 3.50209C0.134766 3.67201 0 3.92982 0 4.2931C0 4.65638 0.134766 4.9142 0.421875 5.08412C0.603516 5.19545 0.738281 5.20131 3.11133 5.21888L5.60742 5.23646L5.70703 5.57045C6.09961 6.82435 7.22461 7.8849 8.53125 8.21888C9.08789 8.35951 10.002 8.37123 10.5469 8.24818C11.8828 7.93178 13.0137 6.85951 13.4648 5.4767C13.6465 4.90248 13.6758 3.89467 13.5176 3.29701C13.3359 2.59388 12.9727 1.97279 12.4512 1.45131C11.918 0.923963 11.5371 0.677869 10.8984 0.449353C10.2891 0.232556 9.14648 0.191541 8.50781 0.367322ZM10.4883 2.27748C12.3633 3.16224 12.1816 5.78138 10.2012 6.43178C9.75586 6.57826 9.10547 6.53138 8.6543 6.32631C8.25586 6.14467 7.75781 5.6642 7.57031 5.27748C6.97852 4.06459 7.58203 2.62318 8.86523 2.17787C9.3457 2.00795 10.002 2.04896 10.4883 2.27748Z" fill="#7B8794"/>
<path d="M15.7207 3.41406C15.2812 3.51953 15.041 3.83594 15.0352 4.29883C15.0352 4.62695 15.1992 4.91992 15.4688 5.08398C15.6738 5.20117 15.7383 5.20117 22.5293 5.20117H29.3848L29.5898 5.07227C29.877 4.89648 30 4.65625 30 4.29297C30 3.92969 29.877 3.68945 29.5898 3.51367L29.3848 3.38477L22.6465 3.37305C18.9434 3.37305 15.8203 3.38477 15.7207 3.41406Z" fill="#7B8794"/>
<path d="M20.4199 11.0078C20.2266 11.0547 19.8457 11.2012 19.5703 11.3359C19.1777 11.5293 18.9668 11.6875 18.5684 12.0859C18.1465 12.502 18.0234 12.6777 17.7949 13.1406C17.502 13.7441 17.3438 14.3711 17.3438 14.957C17.3438 15.543 17.502 16.1699 17.7949 16.7734C18.0234 17.2363 18.1465 17.4121 18.5684 17.8281C19.3887 18.6426 20.25 19 21.416 19C22.1484 19 22.623 18.8887 23.2617 18.5781C24.1758 18.127 25.0605 17.0723 25.3066 16.1465L25.3711 15.9004L27.3809 15.8828C29.2617 15.8652 29.3965 15.8594 29.5781 15.748C29.8652 15.5781 30 15.3203 30 14.957C30 14.5938 29.8652 14.3359 29.5781 14.166C29.3965 14.0547 29.2617 14.0488 27.3809 14.0312L25.3711 14.0137L25.3066 13.7676C25.0605 12.8418 24.1758 11.7871 23.2617 11.3359C22.9863 11.2012 22.5938 11.0547 22.3828 11.002C21.9082 10.8906 20.8887 10.8965 20.4199 11.0078ZM22.0547 12.8184C23.1211 13.1406 23.8242 14.2715 23.6133 15.3203C23.2969 16.9551 21.5098 17.7109 20.168 16.791C18.8965 15.918 18.8672 14.0723 20.1094 13.1641C20.6602 12.7598 21.416 12.625 22.0547 12.8184Z" fill="#7B8794"/>
<path d="M0.667969 14.0723C0.240234 14.1777 0 14.4883 0 14.9453C0 15.3203 0.123047 15.5605 0.410156 15.7363L0.615234 15.8652H7.96875H15.3223L15.5273 15.7363C15.8086 15.5605 15.9492 15.2969 15.9492 14.957C15.9492 14.6172 15.8086 14.3535 15.5273 14.1777L15.3223 14.0488L8.08594 14.0371C4.10742 14.0371 0.767578 14.0488 0.667969 14.0723Z" fill="#7B8794"/>
</svg>
