<?xml version="1.0" encoding="UTF-8" standalone="no"?>
<svg
   id="Footprints"
   width="22"
   height="26"
   viewBox="0 0 22 26"
   fill="none"
   version="1.1"
   sodipodi:docname="foots.svg"
   inkscape:version="1.1.1 (3bf5ae0d25, 2021-09-20)"
   xmlns:inkscape="http://www.inkscape.org/namespaces/inkscape"
   xmlns:sodipodi="http://sodipodi.sourceforge.net/DTD/sodipodi-0.dtd"
   xmlns="http://www.w3.org/2000/svg"
   xmlns:svg="http://www.w3.org/2000/svg">
  <defs
     id="defs7" />
  <sodipodi:namedview
     id="namedview5"
     pagecolor="#ffffff"
     bordercolor="#666666"
     borderopacity="1.0"
     inkscape:pageshadow="2"
     inkscape:pageopacity="0.0"
     inkscape:pagecheckerboard="0"
     showgrid="false"
     inkscape:zoom="30.846154"
     inkscape:cx="11.006234"
     inkscape:cy="12.983791"
     inkscape:window-width="1920"
     inkscape:window-height="991"
     inkscape:window-x="-9"
     inkscape:window-y="-9"
     inkscape:window-maximized="1"
     inkscape:current-layer="Footprints" />
  <path
     style="color:#000000;fill:#323f4b;stroke-miterlimit:10;-inkscape-stroke:none"
     d="m 17.853516,0.63085937 c -0.757906,-0.0549691 -1.460543,0.243541 -2.017578,0.67578123 -0.557036,0.4322403 -1.010691,1.001886 -1.404297,1.6523438 -0.787214,1.3009155 -1.333304,2.9366497 -1.576172,4.5507812 -0.24102,1.6036566 -0.178967,2.9700034 0.414062,4.0820314 0.59303,1.112028 1.746195,1.801688 3.113281,2.003906 1.522069,0.225003 2.897205,-0.243977 3.746094,-1.242187 0.84889,-0.998211 1.232025,-2.342909 1.46875,-3.9179691 C 21.920477,6.2883422 21.725323,4.4746715 21.083984,3.0898438 20.442646,1.705016 19.255622,0.73257467 17.853516,0.63085937 Z M 17.708984,2.6269531 c 0.613892,0.044535 1.141062,0.3969494 1.560547,1.3027344 0.419486,0.905785 0.629088,2.3500631 0.34961,4.2089844 -0.210674,1.4017267 -0.577913,2.4055581 -1.013672,2.9179691 -0.43576,0.51241 -0.879158,0.715843 -1.929688,0.560547 C 15.72877,11.477106 15.316648,11.181896 15.033203,10.650391 14.749759,10.118885 14.625651,9.1817742 14.832031,7.8085937 15.037063,6.4459282 15.535318,4.9996259 16.142578,3.9960938 16.446208,3.4943277 16.778027,3.1074603 17.0625,2.8867188 17.346973,2.6659772 17.542691,2.6148923 17.708984,2.6269531 Z M 4.1386719,5.5078125 C 2.740901,5.6190369 1.5574912,6.5876495 0.91601563,7.9707031 0.27454009,9.3537567 0.07788652,11.163808 0.40039063,13.310547 c 0.23672317,1.575121 0.62177307,2.919796 1.47070307,3.917969 0.8489301,0.998172 2.2222788,1.467206 3.7441407,1.242187 1.367302,-0.202206 2.5221007,-0.891864 3.1152344,-2.003906 0.5931336,-1.112042 0.6550715,-2.47644 0.4140625,-4.080078 C 8.9014794,10.77159 8.3511307,9.1320024 7.5625,7.8300781 7.1681847,7.179116 6.7149282,6.607745 6.1582031,6.1757812 5.601478,5.7438175 4.8991049,5.4475757 4.140625,5.5078125 Z m 0.1601562,1.9941406 c 0.1591342,-0.012638 0.3492678,0.035857 0.6328125,0.2558594 0.2835447,0.2200027 0.6153604,0.6065846 0.9199219,1.109375 0.6091229,1.0055809 1.1115685,2.4552175 1.3164062,3.8164065 0.2063705,1.373158 0.082306,2.310315 -0.2011718,2.841797 -0.283478,0.531481 -0.6972256,0.826703 -1.6445313,0.966796 C 4.2720601,16.647468 3.8303624,16.446044 3.3945313,15.933594 2.9587001,15.421143 2.5895626,14.415348 2.3789063,13.013672 2.099649,11.154804 2.3111248,9.7166266 2.7304688,8.8125 3.1498127,7.9083734 3.680081,7.5511885 4.2988281,7.5019531 Z m 9.3124999,6.0468749 c -0.455594,0.02649 -1.029336,0.23636 -1.394531,0.675781 -0.365195,0.439421 -0.511586,0.979881 -0.570313,1.603516 -0.197795,2.103052 0.918033,4.215789 2.935547,4.611328 h 0.002 c 2.032023,0.397525 4.053348,-1.10012 4.478516,-3.287109 0.103847,-0.534204 0.104605,-1.049042 -0.07422,-1.525391 -0.178823,-0.476348 -0.546803,-0.848437 -0.917969,-1.066406 -0.74233,-0.435938 -1.485051,-0.487142 -2.205078,-0.625 -0.647378,-0.123906 -1.342718,-0.439702 -2.253906,-0.386719 z m 0.134766,2.001953 c 0.192814,-0.0059 0.899379,0.187926 1.74414,0.34961 0.781573,0.149641 1.401638,0.288004 1.566407,0.384765 0.08238,0.04838 0.05381,0.02697 0.06055,0.04492 0.0067,0.01795 0.04058,0.140308 -0.01758,0.439453 -0.222831,1.146208 -1.382037,1.853906 -2.132812,1.707031 v 0.002 c -0.738883,-0.14486 -1.44813,-1.186946 -1.328125,-2.462891 0.03387,-0.35972 0.102677,-0.453551 0.107422,-0.464844 z m -5.3574221,2.875 C 7.4776644,18.373017 6.7819275,18.688851 6.1347656,18.8125 5.4146571,18.950134 4.6720922,18.999658 3.9296875,19.435547 3.5584852,19.653491 3.1885912,20.025604 3.0097656,20.501953 2.8309401,20.978302 2.83366,21.493144 2.9375,22.027344 3.3626599,24.21436 5.3839879,25.711979 7.4160156,25.314453 9.4333121,24.918959 10.549381,22.806514 10.351563,20.703125 10.292842,20.07958 10.146569,19.538958 9.78125,19.099609 9.4159309,18.660261 8.8441756,18.452163 8.3886719,18.425781 Z m -0.1347656,2 c 0.00464,0.01115 0.07356,0.10527 0.1074218,0.464844 0.1200615,1.276607 -0.5909574,2.317985 -1.3300781,2.462891 v -0.002 c -0.7507695,0.146874 -1.9080399,-0.56085 -2.1308594,-1.707031 -0.05815,-0.299149 -0.024311,-0.421518 -0.017578,-0.439453 0.00673,-0.01794 -0.023744,0.0034 0.058594,-0.04492 0.1646745,-0.09669 0.7868694,-0.2354 1.5683594,-0.384765 0.8449752,-0.161444 1.5511391,-0.355477 1.7441407,-0.34961 z"
     id="path2" />
</svg>
