<svg width="20" height="20" viewBox="0 0 20 20" fill="none" xmlns="http://www.w3.org/2000/svg">
<path d="M3.17432 17.318C3.96773 18.1127 5.27786 18.1127 6.07327 17.318L6.48131 16.9093C6.84535 17.094 7.21939 17.2513 7.60743 17.3773V17.9527C7.60743 19.0767 8.53219 20 9.65497 20H10.3437C11.4678 20 12.3959 19.0767 12.3959 17.9527V17.372C12.7819 17.2467 13.1566 17.094 13.5187 16.9093L13.9267 17.318C14.7208 18.1127 16.0309 18.1127 16.8257 17.318L17.3177 16.8287C18.1125 16.032 18.1125 14.7233 17.3177 13.9273L16.9097 13.524C17.0944 13.16 17.2517 12.7853 17.3771 12.3973H17.9525C19.0772 12.3973 20 11.4687 20 10.3447V9.656C20 8.532 19.0759 7.604 17.9525 7.604H17.3717C17.2464 7.218 17.0937 6.84333 16.9097 6.482L17.3177 6.07333C18.1125 5.27867 18.1125 3.96933 17.3177 3.17467L16.8257 2.68267C16.0323 1.888 14.7228 1.888 13.9267 2.68267L13.5187 3.09067C13.1566 2.90667 12.7826 2.754 12.3959 2.628V2.052C12.3959 0.928 11.4665 -0.000666308 10.3437 3.58714e-07H9.65497C8.53085 3.58714e-07 7.60743 0.928667 7.60743 2.052V2.62267C7.21939 2.74867 6.84402 2.90533 6.48131 3.09L6.07327 2.682C5.27919 1.88733 3.96906 1.88733 3.17432 2.682L2.68627 3.17467C1.89286 3.96933 1.89286 5.27867 2.68627 6.07333L3.08964 6.482C2.90629 6.84333 2.75294 7.218 2.6276 7.604H2.05154C0.927426 7.604 0 8.532 0 9.656V10.3447C0 11.4687 0.92876 12.3973 2.05154 12.3973H2.6276C2.75361 12.7847 2.90496 13.1613 3.08964 13.524L2.68627 13.9273C1.89219 14.7227 1.89219 16.0313 2.68627 16.8287L3.17432 17.318ZM9.65497 1.33467H10.3437C10.7517 1.33467 11.0624 1.64467 11.0624 2.05333V3.06733C11.0638 3.37267 11.2718 3.63867 11.5692 3.712C12.1939 3.86733 12.7899 4.11467 13.3413 4.44533C13.6027 4.602 13.9374 4.56133 14.1534 4.34667L14.8722 3.628C15.1608 3.33933 15.5969 3.33933 15.8863 3.628L16.373 4.12C16.6617 4.40867 16.6617 4.84 16.373 5.12867L15.6596 5.84733C15.4409 6.06333 15.3982 6.40067 15.5569 6.66467C15.8876 7.216 16.1396 7.81267 16.2943 8.43667C16.3696 8.73133 16.635 8.938 16.939 8.93867H17.9531C18.3605 8.93867 18.6665 9.24867 18.6665 9.65733V10.346C18.6665 10.754 18.3605 11.0647 17.9531 11.0647H16.939C16.6317 11.0633 16.3643 11.2733 16.2896 11.5713C16.1343 12.1953 15.8869 12.792 15.5556 13.3427C15.4009 13.6053 15.4422 13.94 15.6582 14.1547L16.3716 14.8733C16.6603 15.162 16.6603 15.5987 16.3716 15.8873L15.8849 16.3747C15.5956 16.6633 15.1595 16.6633 14.8708 16.3747L14.1521 15.656C13.9361 15.4413 13.6014 15.4013 13.34 15.558C12.7886 15.8893 12.1912 16.1353 11.5678 16.2913C11.2698 16.3653 11.0598 16.6333 11.0611 16.9413V17.9553C11.0611 18.3633 10.7504 18.6687 10.3424 18.6687H9.65363C9.24559 18.6687 8.93489 18.3633 8.93489 17.9553V16.9413C8.93689 16.6353 8.72954 16.3673 8.43284 16.2913C7.80878 16.136 7.21205 15.8887 6.66133 15.558C6.39864 15.3987 6.06261 15.4393 5.84392 15.656L5.13051 16.3747C4.84182 16.6633 4.40511 16.6633 4.11641 16.3747L3.62436 15.8873C3.33567 15.5993 3.33567 15.162 3.62436 14.8733L4.3431 14.1547C4.55712 13.938 4.59779 13.604 4.44044 13.3427C4.10974 12.792 3.86372 12.1947 3.70704 11.5713C3.63303 11.2727 3.36434 11.0633 3.05697 11.0647H2.04887C1.6415 11.0647 1.3308 10.754 1.3308 10.346V9.65733C1.3308 9.24933 1.73617 9.06867 2.04887 8.93867C2.36157 8.80933 3.06297 8.93867 3.06297 8.93867C3.36767 8.938 3.63236 8.73133 3.70837 8.43667C3.86372 7.81267 4.11108 7.216 4.44178 6.66467C4.60046 6.402 4.56112 6.06533 4.34443 5.84733L3.62503 5.12867C3.33633 4.84 3.33633 4.40867 3.62503 4.12L4.11708 3.628C4.40577 3.33933 4.83715 3.33933 5.12651 3.628L5.84525 4.34667C6.06261 4.564 6.39997 4.60467 6.66267 4.44533C7.21339 4.114 7.81145 3.868 8.43418 3.712C8.73087 3.63667 8.93823 3.36867 8.93623 3.06267V2.05333C8.93623 1.64467 9.24692 1.33467 9.65497 1.33467ZM10.0003 6.22133C7.92146 6.22133 6.22529 7.92267 6.22529 10.0007C6.22529 12.0787 7.92146 13.78 10.0003 13.78C12.0785 13.78 13.78 12.0787 13.78 10.0007C13.78 7.92267 12.0785 6.22133 10.0003 6.22133ZM10.0003 7.55467C11.3578 7.55467 12.4466 8.64267 12.4466 10.0007C12.4466 11.3587 11.3578 12.4467 10.0003 12.4467C8.6422 12.4467 7.55942 11.3587 7.55942 10.0007C7.55942 8.64333 8.6422 7.55467 10.0003 7.55467Z" fill="#2F80ED"/>
</svg>
