<?xml version="1.0" encoding="UTF-8" standalone="no"?>
<svg
   width="40"
   height="40"
   viewBox="0 0 40 40"
   fill="none"
   version="1.1"
   id="svg4"
   sodipodi:docname="heart.svg"
   inkscape:version="1.1.1 (3bf5ae0d25, 2021-09-20)"
   xmlns:inkscape="http://www.inkscape.org/namespaces/inkscape"
   xmlns:sodipodi="http://sodipodi.sourceforge.net/DTD/sodipodi-0.dtd"
   xmlns="http://www.w3.org/2000/svg"
   xmlns:svg="http://www.w3.org/2000/svg">
  <defs
     id="defs8" />
  <sodipodi:namedview
     id="namedview6"
     pagecolor="#ffffff"
     bordercolor="#666666"
     borderopacity="1.0"
     inkscape:pageshadow="2"
     inkscape:pageopacity="0.0"
     inkscape:pagecheckerboard="0"
     showgrid="false"
     inkscape:zoom="20.05"
     inkscape:cx="19.975062"
     inkscape:cy="19.975062"
     inkscape:window-width="1920"
     inkscape:window-height="991"
     inkscape:window-x="-9"
     inkscape:window-y="-9"
     inkscape:window-maximized="1"
     inkscape:current-layer="svg4" />
  <path
     style="color:#000000;fill:#323f4b;stroke-linecap:round;stroke-linejoin:round;-inkscape-stroke:none"
     d="m 15.501953,10 c -1.723837,0 -3.378689,0.685329 -4.597656,1.904297 C 9.6853294,13.123264 9,14.778116 9,16.501953 c 0,1.723919 0.6853522,3.378712 1.904297,4.597656 l 1.060547,1.058594 7.779297,7.78125 a 1.0001,1.0001 0 0 0 1.414062,0 l 7.779297,-7.78125 1.060547,-1.058594 c 0.603996,-0.603641 1.083313,-1.320745 1.410156,-2.109375 0.3269,-0.788884 0.494141,-1.634478 0.494141,-2.488281 0,-0.853802 -0.167215,-1.699451 -0.494141,-2.488281 -0.326857,-0.788782 -0.80627,-1.505726 -1.410156,-2.109375 -0.60365,-0.603886 -1.320593,-1.083299 -2.109375,-1.410156 C 27.099842,10.167215 26.254193,10 25.400391,10 c -0.853803,0 -1.699397,0.167241 -2.488282,0.494141 -0.78863,0.326843 -1.50378,0.80616 -2.107422,1.410156 l -0.353515,0.353516 -0.353516,-0.353516 C 18.878689,10.685329 17.22579,10 15.501953,10 Z m 0,2 c 1.19416,0 2.33721,0.473929 3.181641,1.318359 l 1.060547,1.060547 a 1.0001,1.0001 0 0 0 1.414062,0 l 1.060547,-1.060547 c 0.417758,-0.418003 0.914769,-0.750206 1.460937,-0.976562 C 24.225802,12.115497 24.809195,12 25.400391,12 c 0.591196,0 1.176687,0.115523 1.722656,0.341797 0.546216,0.226342 1.042988,0.558449 1.460937,0.976562 0.418114,0.41795 0.750221,0.914721 0.976563,1.460938 0.226273,0.545969 0.341797,1.13146 0.341797,1.722656 0,0.591196 -0.115497,1.176542 -0.341797,1.722656 -0.226357,0.546169 -0.55856,1.041227 -0.976563,1.458985 a 1.0001,1.0001 0 0 0 0,0.002 l -1.060547,1.058594 -7.072265,7.074218 -7.072266,-7.074218 -1.060547,-1.058594 C 11.473906,18.841094 11,17.696231 11,16.501953 11,15.307793 11.473929,14.16279 12.318359,13.318359 13.16279,12.473929 14.307793,12 15.501953,12 Z"
     id="path2" />
</svg>
