<svg width="21" height="24" viewBox="0 0 21 24" fill="none" xmlns="http://www.w3.org/2000/svg">
<path d="M17.1916 2.95151C13.2565 -0.983626 6.88708 -0.98405 2.95151 2.95151C-0.983532 6.88651 -0.984144 13.2561 2.95151 17.1916L9.53943 23.7796C9.83337 24.0735 10.3099 24.0735 10.6038 23.7796L17.1917 17.1916C21.1267 13.2566 21.1273 6.88712 17.1916 2.95151ZM16.1273 16.1274L10.0716 22.1831L4.01585 16.1274C0.676735 12.7882 0.676735 7.35501 4.01585 4.0159C7.35501 0.67683 12.788 0.676736 16.1273 4.0159C19.4664 7.35497 19.4664 12.7882 16.1273 16.1274Z" fill="#2F80ED"/>
<path d="M10.0716 5.57031C7.58382 5.57031 5.57025 7.58346 5.57025 10.0716C5.57025 12.5593 7.5835 14.5729 10.0716 14.5729C12.5594 14.5729 14.5729 12.5597 14.5729 10.0716C14.5729 7.58389 12.5597 5.57031 10.0716 5.57031ZM12.1902 12.1902C12.1613 12.1902 11.4519 13.0677 10.0716 13.0677C8.4157 13.0677 7.07548 11.7277 7.07548 10.0716C7.07548 8.41576 8.41551 7.07554 10.0716 7.07554C12.7615 7.07554 14.0544 10.326 12.1902 12.1902Z" fill="#2F80ED"/>
</svg>
