<svg width="20" height="20" viewBox="0 0 20 20" fill="none" xmlns="http://www.w3.org/2000/svg">
<path d="M4.79947 5.11489C5.17727 4.75992 5.79011 4.75986 6.16805 5.11483C6.54592 5.46986 6.54599 6.04544 6.16805 6.40047L3.30392 9.09113H15.1612C15.6956 9.09113 16.1289 9.49816 16.1289 10.0002C16.1289 10.5023 15.6956 10.9093 15.1612 10.9093H3.30405L6.16805 13.5997C6.54599 13.9548 6.54599 14.5303 6.16805 14.8854C5.97908 15.0629 5.7314 15.1516 5.48373 15.1516C5.23605 15.1516 4.98837 15.0629 4.79947 14.8854L0.283461 10.6431C-0.0944748 10.2881 -0.0944748 9.71247 0.283461 9.35744L4.79947 5.11489Z" fill="#2F80ED"/>
<path d="M10.6451 20C10.1107 20 9.6774 19.593 9.6774 19.0909C9.6774 18.5888 10.1107 18.1818 10.6451 18.1818H18.0645V1.81818H10.6451C10.1107 1.81818 9.6774 1.41115 9.6774 0.909091C9.6774 0.40703 10.1107 0 10.6451 0H19.0323C19.5667 0 20 0.40703 20 0.909091V19.0909C20 19.593 19.5667 20 19.0323 20H10.6451Z" fill="#2F80ED"/>
</svg>
