<?xml version="1.0" encoding="UTF-8" standalone="no"?>
<svg
   width="40"
   height="40"
   viewBox="0 0 40 40"
   fill="none"
   version="1.1"
   id="svg6"
   sodipodi:docname="message-circle.svg"
   inkscape:version="1.1.1 (3bf5ae0d25, 2021-09-20)"
   xmlns:inkscape="http://www.inkscape.org/namespaces/inkscape"
   xmlns:sodipodi="http://sodipodi.sourceforge.net/DTD/sodipodi-0.dtd"
   xmlns="http://www.w3.org/2000/svg"
   xmlns:svg="http://www.w3.org/2000/svg">
  <defs
     id="defs10" />
  <sodipodi:namedview
     id="namedview8"
     pagecolor="#ffffff"
     bordercolor="#666666"
     borderopacity="1.0"
     inkscape:pageshadow="2"
     inkscape:pageopacity="0.0"
     inkscape:pagecheckerboard="0"
     showgrid="false"
     inkscape:zoom="20.05"
     inkscape:cx="19.975062"
     inkscape:cy="19.975062"
     inkscape:window-width="1920"
     inkscape:window-height="991"
     inkscape:window-x="-9"
     inkscape:window-y="-9"
     inkscape:window-maximized="1"
     inkscape:current-layer="svg6" />
  <path
     style="color:#000000;fill:#7b8794;stroke-linecap:round;stroke-linejoin:round;-inkscape-stroke:none"
     d="m 28.445312,14 c -1.328539,-0.0031 -2.640019,0.307929 -3.826171,0.90625 -1.420927,0.71018 -2.615657,1.801411 -3.451172,3.152344 -0.835519,1.351052 -1.278731,2.907575 -1.279297,4.496093 -0.0028,1.139542 0.336793,2.235317 0.779297,3.28125 l -1.617188,4.847657 a 1.0001,1.0001 0 0 0 1.265625,1.265625 l 4.847656,-1.617188 c 1.046524,0.442754 2.143005,0.78231 3.283204,0.779297 1.587841,-9.28e-4 3.143643,-0.444121 4.49414,-1.279297 1.349695,-0.83475 2.440162,-2.028054 3.150391,-3.447265 v -0.002 C 36.691109,25.195526 37.003401,23.882727 37,22.552734 v -0.441406 a 1.0001,1.0001 0 0 0 -0.002,-0.05469 c -0.115746,-2.098267 -1.000476,-4.082394 -2.486328,-5.56836 -1.485966,-1.485852 -3.470093,-2.370582 -5.56836,-2.486328 A 1.0001,1.0001 0 0 0 28.888672,14 h -0.441406 z m -0.0039,2 a 1.0001,1.0001 0 0 0 0.0039,0 h 0.396485 c 1.604098,0.0905 3.117605,0.768083 4.253906,1.904297 C 34.231917,19.040598 34.9095,20.554105 35,22.158203 v 0.396484 a 1.0001,1.0001 0 0 0 0,0.0039 c 0.0026,1.015762 -0.235441,2.017169 -0.693359,2.923828 a 1.0001,1.0001 0 0 0 -0.002,0.0039 c -0.544218,1.088871 -1.380751,2.004248 -2.416015,2.644531 -1.035346,0.64028 -2.228034,0.980035 -3.445313,0.980469 a 1.0001,1.0001 0 0 0 -0.002,0 c -1.015706,0.0027 -2.017203,-0.235372 -2.923828,-0.693359 A 1.0001,1.0001 0 0 0 24.75,28.363281 L 21.582031,29.417969 22.636719,26.25 a 1.0001,1.0001 0 0 0 -0.05469,-0.767578 C 22.124044,24.575797 21.885988,23.5743 21.888672,22.558594 a 1.0001,1.0001 0 0 0 0,-0.002 c 4.34e-4,-1.217279 0.340189,-2.409967 0.980469,-3.445313 0.640283,-1.035264 1.55566,-1.871797 2.644531,-2.416016 a 1.0001,1.0001 0 0 0 0.0039,-0.002 C 26.424237,16.235441 27.425644,15.997403 28.441406,16 Z"
     id="path2" />
  <path
     style="color:#000000;fill:#7b8794;stroke-linecap:round;stroke-linejoin:round;-inkscape-stroke:none"
     d="m 11.445313,11 a 1.0001,1.0001 0 0 0 -0.05664,0.002 c -1.4035353,0.07745 -2.7287319,0.670211 -3.7226564,1.664063 -0.9938989,0.993959 -1.5866383,2.319131 -1.6640625,3.722656 A 1.0001,1.0001 0 0 0 6,16.445312 v 0.277344 c -0.00172,0.889452 0.2064218,1.76665 0.6074219,2.560547 0.4749941,0.949209 1.2046514,1.748311 2.1074219,2.306641 0.9036049,0.558846 1.9454102,0.855105 3.0078122,0.855468 0.700948,0.0014 1.366684,-0.227587 2.017578,-0.478515 l 2.94336,0.982422 a 1.0001,1.0001 0 0 0 1.265625,-1.265625 l -0.982422,-2.94336 c 0.251158,-0.65149 0.48019,-1.317927 0.478515,-2.019531 -7.18e-4,-1.061739 -0.296942,-2.102795 -0.855468,-3.005859 -0.55833,-0.902746 -1.357439,-1.63242 -2.306641,-2.107422 C 13.489286,11.2064 12.612073,10.998301 11.722656,11 Z m 0.05078,2 h 0.226562 a 1.0001,1.0001 0 0 0 0.002,0 c 0.575863,-0.0015 1.144269,0.13298 1.658204,0.392578 a 1.0001,1.0001 0 0 0 0.0039,0.002 c 0.618292,0.309028 1.138376,0.783238 1.501953,1.371094 0.363537,0.587791 0.556404,1.265836 0.556641,1.957031 a 1.0001,1.0001 0 0 0 0,0.002 c 0.0016,0.575683 -0.132944,1.144196 -0.392579,1.658203 a 1.0001,1.0001 0 0 0 -0.05664,0.767579 l 0.421875,1.267578 -1.267578,-0.421875 a 1.0001,1.0001 0 0 0 -0.767578,0.05664 c -0.514008,0.259635 -1.082521,0.394149 -1.658204,0.392578 a 1.0001,1.0001 0 0 0 -0.002,0 C 11.031461,20.445076 10.353459,20.252225 9.765625,19.888672 9.1777542,19.525096 8.7035474,19.005003 8.3945313,18.386719 a 1.0001,1.0001 0 0 0 -0.00195,-0.0039 C 8.1329781,17.868858 7.9984923,17.300436 8,16.724609 a 1.0001,1.0001 0 0 0 0,-0.002 V 16.496094 C 8.0513519,15.585292 8.4349424,14.725253 9.0800781,14.080078 9.7252083,13.434995 10.585302,13.051367 11.496094,13 Z"
     id="path4" />
</svg>
