<svg width="16" height="17" viewBox="0 0 16 17" fill="none" xmlns="http://www.w3.org/2000/svg">
<path fill-rule="evenodd" clip-rule="evenodd" d="M5.03432 16.2657C5.18434 16.4157 5.38783 16.5 5.6 16.5H6C6.2 16.5 6.4 16.42 6.56 16.268L9.52 13.3H14.4C14.8243 13.3 15.2313 13.1314 15.5314 12.8314C15.8314 12.5313 16 12.1243 16 11.7V2.1C16 1.67565 15.8314 1.26869 15.5314 0.968629C15.2313 0.668571 14.8243 0.5 14.4 0.5H1.6C1.17565 0.5 0.768687 0.668571 0.468629 0.968629C0.168571 1.26869 0 1.67565 0 2.1V11.7C0 12.1243 0.168571 12.5313 0.468629 12.8314C0.768687 13.1314 1.17565 13.3 1.6 13.3H4.8V15.7C4.8 15.9122 4.88429 16.1157 5.03432 16.2657Z" fill="white"/>
</svg>
