<?xml version="1.0" encoding="UTF-8" standalone="no"?>
<svg
   width="40"
   height="40"
   viewBox="0 0 40 40"
   fill="none"
   version="1.1"
   id="svg4"
   sodipodi:docname="message-square.svg"
   inkscape:version="1.1.1 (3bf5ae0d25, 2021-09-20)"
   xmlns:inkscape="http://www.inkscape.org/namespaces/inkscape"
   xmlns:sodipodi="http://sodipodi.sourceforge.net/DTD/sodipodi-0.dtd"
   xmlns="http://www.w3.org/2000/svg"
   xmlns:svg="http://www.w3.org/2000/svg">
  <defs
     id="defs8" />
  <sodipodi:namedview
     id="namedview6"
     pagecolor="#ffffff"
     bordercolor="#666666"
     borderopacity="1.0"
     inkscape:pageshadow="2"
     inkscape:pageopacity="0.0"
     inkscape:pagecheckerboard="0"
     showgrid="false"
     inkscape:zoom="20.05"
     inkscape:cx="19.975062"
     inkscape:cy="19.975062"
     inkscape:window-width="1920"
     inkscape:window-height="991"
     inkscape:window-x="-9"
     inkscape:window-y="-9"
     inkscape:window-maximized="1"
     inkscape:current-layer="svg4" />
  <path
     style="color:#000000;fill:#7b8794;stroke-linecap:round;stroke-linejoin:round;-inkscape-stroke:none"
     d="m 13,10 c -0.795231,0 -1.55874,0.316552 -2.121094,0.878906 C 10.316552,11.44126 10,12.204769 10,13 v 16 a 1.0001,1.0001 0 0 0 1.707031,0.707031 L 15.414063,26 H 27 c 0.795231,0 1.55874,-0.316552 2.121094,-0.878906 C 29.683448,24.55874 30,23.795231 30,23 V 13 C 30,12.204769 29.683448,11.44126 29.121094,10.878906 28.55874,10.316552 27.795231,10 27,10 Z m 0,2 h 14 c 0.265568,0 0.519186,0.105124 0.707031,0.292969 C 27.894876,12.480814 28,12.734432 28,13 v 10 c 0,0.265568 -0.105124,0.519186 -0.292969,0.707031 C 27.519186,23.894876 27.265568,24 27,24 H 15 a 1.0001,1.0001 0 0 0 -0.707031,0.292969 L 12,26.585937 V 13 c 0,-0.265568 0.105124,-0.519186 0.292969,-0.707031 C 12.480814,12.105124 12.734432,12 13,12 Z"
     id="path2" />
</svg>
