<svg width="16" height="16" viewBox="0 0 16 16" fill="none" xmlns="http://www.w3.org/2000/svg">
<g clip-path="url(#clip0_1_2329)">
<path d="M8.06086 15.6003C6.99726 15.6003 5.99986 15.3985 5.06866 14.9949C4.13733 14.5913 3.32499 14.0428 2.63166 13.3495C1.93833 12.6561 1.38986 11.8438 0.986259 10.9125C0.582659 9.98127 0.380859 8.98387 0.380859 7.92027C0.380859 6.39 0.795193 4.99387 1.62386 3.73187C2.45266 2.46973 3.56706 1.53047 4.96706 0.914066C5.10759 0.862866 5.25093 0.8434 5.39706 0.855667C5.54319 0.867933 5.66753 0.912066 5.77006 0.988066C5.85619 1.05567 5.92413 1.15233 5.97386 1.27807C6.02359 1.40367 6.04846 1.56387 6.04846 1.75867C6.09059 2.8428 6.32059 3.87307 6.73846 4.84947C7.15646 5.82587 7.74906 6.69767 8.51626 7.46487C9.28346 8.23207 10.1573 8.82467 11.1379 9.24267C12.1183 9.66053 13.1505 9.89053 14.2347 9.93267C14.4377 9.93267 14.5959 9.9534 14.7093 9.99487C14.8226 10.0365 14.9131 10.1003 14.9809 10.1865C15.0567 10.289 15.1049 10.4175 15.1255 10.5719C15.146 10.7261 15.1306 10.8695 15.0793 11.0019C14.4711 12.4019 13.5319 13.5183 12.2617 14.3511C10.9914 15.1839 9.59113 15.6003 8.06086 15.6003ZM8.06086 14.4003C9.23419 14.4003 10.3209 14.1069 11.3209 13.5203C12.3209 12.9336 13.1075 12.1269 13.6809 11.1003C12.5342 10.9936 11.4475 10.7023 10.4209 10.2265C9.39419 9.7506 8.47419 9.106 7.66086 8.29267C6.84753 7.47933 6.20086 6.5606 5.72086 5.53647C5.24086 4.51233 4.95419 3.42693 4.86086 2.28027C3.83419 2.8536 3.03086 3.6436 2.45086 4.65027C1.87086 5.65693 1.58086 6.74693 1.58086 7.92027C1.58086 9.72027 2.21086 11.2503 3.47086 12.5103C4.73086 13.7703 6.26086 14.4003 8.06086 14.4003ZM9.77926 4.13247L8.67626 3.02947C8.53159 2.88493 8.45926 2.7162 8.45926 2.52327C8.45926 2.33047 8.53159 2.1618 8.67626 2.01727L9.77926 0.914066C9.92393 0.769533 10.0927 0.697266 10.2855 0.697266C10.4783 0.697266 10.647 0.769533 10.7917 0.914066L11.8947 2.01727C12.0393 2.1618 12.1117 2.33047 12.1117 2.52327C12.1117 2.7162 12.0393 2.88493 11.8947 3.02947L10.7917 4.13247C10.647 4.27713 10.4783 4.34947 10.2855 4.34947C10.0927 4.34947 9.92393 4.27713 9.77926 4.13247ZM13.8639 6.61727L13.3917 6.15267C13.2675 6.02853 13.2055 5.8854 13.2055 5.72327C13.2055 5.56127 13.2675 5.4182 13.3917 5.29407L13.8639 4.82947C13.988 4.70547 14.1298 4.64347 14.2893 4.64347C14.4487 4.64347 14.5905 4.70547 14.7147 4.82947L15.1793 5.29407C15.3034 5.4182 15.3655 5.56127 15.3655 5.72327C15.3655 5.8854 15.3034 6.02853 15.1793 6.15267L14.7147 6.61727C14.5905 6.74127 14.4487 6.80327 14.2893 6.80327C14.1298 6.80327 13.988 6.74127 13.8639 6.61727Z" fill="#2F80ED"/>
</g>
<defs>
<clipPath id="clip0_1_2329">
<rect width="16" height="16" fill="white"/>
</clipPath>
</defs>
</svg>
