<svg width="20" height="20" viewBox="0 0 20 20" fill="none" xmlns="http://www.w3.org/2000/svg">
<path d="M19.4732 17.8948C19.409 17.8948 19.3459 17.8832 19.2837 17.8601L5.59954 12.597C5.39638 12.5191 5.2627 12.3234 5.2627 12.1055V5.78984C5.2627 5.57195 5.39638 5.37616 5.59954 5.29827L19.2837 0.0352479C19.4469 -0.0279084 19.6269 -0.00475104 19.7711 0.0931412C19.9143 0.191033 19.9995 0.353134 19.9995 0.526814V17.3685C19.9995 17.5422 19.9143 17.7043 19.7711 17.8022C19.6816 17.8632 19.5785 17.8948 19.4732 17.8948ZM6.31533 11.7434L18.9469 16.6022V1.29311L6.31533 6.15193V11.7434Z" fill="#2F80ED"/>
<path d="M5.78947 12.6319H2.10526C0.944211 12.6319 0 11.6877 0 10.5267V7.36888C0 6.20786 0.944211 5.26367 2.10526 5.26367H5.78947C6.08 5.26367 6.31579 5.49946 6.31579 5.78997V12.1056C6.31579 12.3961 6.08 12.6319 5.78947 12.6319ZM2.10526 6.31628C1.52421 6.31628 1.05263 6.78784 1.05263 7.36888V10.5267C1.05263 11.1077 1.52421 11.5793 2.10526 11.5793H5.26316V6.31628H2.10526Z" fill="#2F80ED"/>
<path d="M7.89512 19.9999H4.73723C4.47512 19.9999 4.25302 19.8073 4.21618 19.5473L3.16355 12.179C3.12249 11.8917 3.32249 11.6254 3.61091 11.5843C3.89302 11.5485 4.1646 11.7433 4.20565 12.0317L5.19407 18.9473H7.30565L6.60249 12.6801C6.57091 12.3917 6.77828 12.1317 7.0667 12.098C7.34565 12.0675 7.61512 12.2738 7.64881 12.5622L8.41723 19.4146C8.43407 19.5641 8.3867 19.7125 8.2867 19.8241C8.18776 19.9357 8.04565 19.9999 7.89512 19.9999Z" fill="#2F80ED"/>
</svg>
