<?xml version="1.0" encoding="UTF-8" standalone="no"?>
<svg
   width="40"
   height="40"
   viewBox="0 0 40 40"
   fill="none"
   version="1.1"
   id="svg8"
   sodipodi:docname="muted.svg"
   inkscape:version="1.1.1 (3bf5ae0d25, 2021-09-20)"
   xmlns:inkscape="http://www.inkscape.org/namespaces/inkscape"
   xmlns:sodipodi="http://sodipodi.sourceforge.net/DTD/sodipodi-0.dtd"
   xmlns="http://www.w3.org/2000/svg"
   xmlns:svg="http://www.w3.org/2000/svg">
  <defs
     id="defs12" />
  <sodipodi:namedview
     id="namedview10"
     pagecolor="#ffffff"
     bordercolor="#666666"
     borderopacity="1.0"
     inkscape:pageshadow="2"
     inkscape:pageopacity="0.0"
     inkscape:pagecheckerboard="0"
     showgrid="false"
     inkscape:zoom="20.05"
     inkscape:cx="19.975062"
     inkscape:cy="19.975062"
     inkscape:window-width="1920"
     inkscape:window-height="991"
     inkscape:window-x="-9"
     inkscape:window-y="-9"
     inkscape:window-maximized="1"
     inkscape:current-layer="svg8" />
  <path
     style="color:#000000;fill:#7b8794;stroke-linecap:round;stroke-linejoin:round;-inkscape-stroke:none"
     d="M 18.433594,12.099609 A 1.0001,1.0001 0 0 0 17.375,12.21875 L 12.648438,16 H 9 a 1.0001,1.0001 0 0 0 -1,1 v 6 a 1.0001,1.0001 0 0 0 1,1 h 3.648438 L 17.375,27.78125 A 1.0001,1.0001 0 0 0 19,27 V 13 A 1.0001,1.0001 0 0 0 18.433594,12.099609 Z M 17,15.082031 v 9.835938 L 13.625,22.21875 A 1.0001,1.0001 0 0 0 13,22 h -3 v -4 h 3 a 1.0001,1.0001 0 0 0 0.625,-0.21875 z"
     id="path2" />
  <path
     style="color:#000000;fill:#7b8794;stroke-linecap:round;stroke-linejoin:round;-inkscape-stroke:none"
     d="m 29.292969,16.292969 -6,6 a 1,1 0 0 0 0,1.414062 1,1 0 0 0 1.414062,0 l 6,-6 a 1,1 0 0 0 0,-1.414062 1,1 0 0 0 -1.414062,0 z"
     id="path4" />
  <path
     style="color:#000000;fill:#7b8794;stroke-linecap:round;stroke-linejoin:round;-inkscape-stroke:none"
     d="m 23.292969,16.292969 a 1,1 0 0 0 0,1.414062 l 6,6 a 1,1 0 0 0 1.414062,0 1,1 0 0 0 0,-1.414062 l -6,-6 a 1,1 0 0 0 -1.414062,0 z"
     id="path6" />
</svg>
