<svg width="20" height="14" viewBox="0 0 20 14" fill="none" xmlns="http://www.w3.org/2000/svg">
<path d="M3.67969 0.0561765C2.82812 0.183113 1.85547 0.486993 1.69141 0.671628C1.60938 0.763946 1.60156 0.806258 1.60156 1.29093V1.80637H0.980469C0.324219 1.80637 0.214844 1.8256 0.0820312 1.96408L0 2.05255V7.91472V13.7769L0.113281 13.8884L0.226562 14H10H19.7734L19.8867 13.8884L20 13.7769V7.91472V2.05255L19.918 1.96408C19.7852 1.8256 19.6758 1.80637 19.0195 1.80637H18.3984V1.29093C18.3984 0.833184 18.3906 0.767792 18.3203 0.679321C18.1641 0.486993 17.1562 0.17542 16.293 0.060023C15.793 -0.00921527 14.8711 -0.020755 14.3555 0.0369436C12.9453 0.194653 11.5156 0.71394 10.2773 1.51787L10 1.69866L9.63672 1.46787C8.58594 0.798565 7.47266 0.356209 6.25391 0.129261C5.80859 0.0446367 5.58594 0.0254039 4.88281 0.0138642C4.29297 0.00617101 3.93359 0.0177107 3.67969 0.0561765ZM5.63281 0.906269C6.92969 1.07167 8.26562 1.58327 9.40234 2.35258L9.57031 2.46413V7.59546C9.57031 10.4188 9.5625 12.7306 9.55078 12.7306C9.53906 12.7306 9.39062 12.6537 9.22266 12.5575C8.26953 12.0152 7.23438 11.6421 6.11328 11.442C5.64844 11.3574 4.35547 11.3228 3.83984 11.3805C3.50781 11.419 2.85938 11.5459 2.55078 11.6382L2.46094 11.6613V6.44533V1.23323L2.78516 1.13706C3.71875 0.856263 4.65234 0.783179 5.63281 0.906269ZM16.0938 0.898576C16.582 0.963967 16.7852 1.00628 17.2188 1.13706L17.5391 1.23323V6.44533V11.6613L17.4531 11.6382C16.6641 11.4113 15.9688 11.3305 15.0039 11.3574C14.0039 11.3805 13.3398 11.4997 12.3789 11.8305C11.9375 11.9805 11.0703 12.3767 10.707 12.596C10.582 12.6691 10.4688 12.7306 10.4531 12.7306C10.4414 12.7306 10.4297 10.4188 10.4297 7.59546V2.45644L10.793 2.22564C11.2305 1.94484 12 1.56019 12.4961 1.36401C13.6094 0.937041 15 0.756253 16.0938 0.898576ZM1.60156 7.55315C1.60156 12.4344 1.60156 12.4498 1.68359 12.5498C1.72656 12.6075 1.82812 12.6691 1.90625 12.6922C2.03516 12.7306 2.09375 12.7191 2.44141 12.596C3.30078 12.2883 4.06641 12.169 4.99609 12.2037C6.09375 12.2421 7.09766 12.4921 8.14453 12.9807L8.49609 13.1461L4.67969 13.1499L0.859375 13.1538V7.90318V2.65261H1.23047H1.60156V7.55315ZM19.1406 7.90318V13.1538L15.3242 13.1499L11.5039 13.1461L11.8633 12.9807C12.9219 12.4845 13.9062 12.2421 15.0039 12.2037C15.9336 12.169 16.6992 12.2883 17.5586 12.596C17.9062 12.7191 17.9648 12.7306 18.0938 12.6922C18.1719 12.6691 18.2734 12.6075 18.3164 12.5498C18.3984 12.4498 18.3984 12.4344 18.3984 7.55315V2.65261H18.7695H19.1406V7.90318Z" fill="#2F80ED"/>
</svg>
