<svg width="29" height="25" viewBox="0 0 29 25" fill="none" xmlns="http://www.w3.org/2000/svg">
<g clip-path="url(#clip0_1213_14706)">
<path d="M16.7838 0.621874C17.0744 0.795311 17.2197 1.06719 17.2197 1.4375C17.2197 1.8125 17.0744 2.08437 16.7791 2.25781L16.5775 2.375H11.2854C7.98535 2.375 5.87129 2.39375 5.66504 2.42188C5.21973 2.4875 4.8916 2.65156 4.58223 2.95625C4.27754 3.26562 4.11348 3.59375 4.04785 4.03906C4.01973 4.25 4.00098 6.97344 4.00098 11.5344V18.7016L3.88379 18.9031C3.71035 19.1984 3.43848 19.3438 3.06348 19.3438C2.68848 19.3438 2.4166 19.1984 2.24316 18.9031L2.12598 18.7016V11.2016C2.12598 2.675 2.09316 3.40156 2.53379 2.51562C2.72129 2.13594 2.82441 2 3.22754 1.59687C3.63535 1.18906 3.75723 1.09531 4.1416 0.903124C5.02285 0.471874 4.5541 0.5 10.9572 0.5H16.5869L16.7838 0.621874Z" fill="#6D6F71"/>
<path d="M19.5165 4.39064C20.8384 4.73283 21.9025 5.80158 22.2353 7.12814C22.329 7.48908 22.329 7.66721 22.329 14.3985C22.329 22.2453 22.3619 21.5985 21.9212 22.4844C21.7337 22.8641 21.6306 22.9953 21.2275 23.3985C20.8244 23.8016 20.6931 23.9047 20.3134 24.0922C19.4462 24.5235 19.8212 24.5 14.1025 24.5C8.38373 24.5 8.75873 24.5235 7.89154 24.0922C7.51185 23.9047 7.3806 23.8016 6.97748 23.3985C6.57435 22.9953 6.47123 22.8641 6.28373 22.4844C5.8431 21.5985 5.87591 22.2453 5.87591 14.3985C5.87591 7.66721 5.87591 7.48908 5.96966 7.12814C6.23216 6.07814 6.95873 5.16877 7.91498 4.69533C8.75873 4.27346 8.3931 4.29689 14.1212 4.30158C18.9494 4.30158 19.179 4.30627 19.5165 4.39064ZM9.41498 6.21877C8.96966 6.28439 8.64154 6.44846 8.33216 6.75314C8.02748 7.06252 7.86341 7.39064 7.79779 7.83595C7.73685 8.28127 7.73685 20.5156 7.79779 20.961C7.86341 21.4063 8.02748 21.7344 8.33216 22.0438C8.64154 22.3485 8.96966 22.5125 9.41498 22.5781C9.8556 22.6391 18.3494 22.6391 18.79 22.5781C19.2353 22.5125 19.5634 22.3485 19.8728 22.0438C20.1775 21.7344 20.3415 21.4063 20.4072 20.961C20.4681 20.5156 20.4681 8.28127 20.4072 7.83595C20.3415 7.39064 20.1775 7.06252 19.8728 6.75314C19.5728 6.45783 19.2259 6.27971 18.8322 6.22346C18.4337 6.16721 9.8181 6.16252 9.41498 6.21877Z" fill="#6D6F71"/>
</g>
<path d="M28.2041 15.25C28.6183 15.25 28.9541 14.9142 28.9541 14.5C28.9541 14.0858 28.6183 13.75 28.2041 13.75V15.25ZM11.6738 13.9697C11.3809 14.2626 11.3809 14.7374 11.6738 15.0303L16.4467 19.8033C16.7396 20.0962 17.2145 20.0962 17.5074 19.8033C17.8003 19.5104 17.8003 19.0355 17.5074 18.7426L13.2648 14.5L17.5074 10.2574C17.8003 9.96447 17.8003 9.48959 17.5074 9.1967C17.2145 8.90381 16.7396 8.90381 16.4467 9.1967L11.6738 13.9697ZM28.2041 13.75L12.2041 13.75V15.25L28.2041 15.25V13.75Z" fill="#6D6F71"/>
<defs>
<clipPath id="clip0_1213_14706">
<rect width="24" height="24" fill="white" transform="matrix(-1 0 0 1 24.2041 0.5)"/>
</clipPath>
</defs>
</svg>
