<svg width="16" height="16" viewBox="0 0 16 16" fill="none" xmlns="http://www.w3.org/2000/svg">
<g clip-path="url(#clip0_1_2604)">
<path d="M2.16602 13.8337H3.21727L11.7477 5.30324L10.6964 4.25199L2.16602 12.7824V13.8337ZM1.66935 15.0837C1.45588 15.0837 1.27699 15.0114 1.13268 14.867C0.988238 14.7227 0.916016 14.5438 0.916016 14.3303V12.8866C0.916016 12.6834 0.955043 12.4897 1.0331 12.3055C1.11102 12.1214 1.21838 11.9609 1.35518 11.8241L11.9081 1.27595C12.0341 1.16151 12.1732 1.0731 12.3254 1.01074C12.4778 0.948242 12.6375 0.916992 12.8046 0.916992C12.9716 0.916992 13.1334 0.946645 13.29 1.00595C13.4466 1.06526 13.5853 1.15956 13.706 1.28887L14.7237 2.31928C14.853 2.43998 14.9452 2.57887 15.0002 2.73595C15.0552 2.89303 15.0827 3.05012 15.0827 3.2072C15.0827 3.37484 15.0541 3.53477 14.9968 3.68699C14.9396 3.83935 14.8486 3.97852 14.7237 4.10449L4.1756 14.6445C4.03879 14.7813 3.87831 14.8887 3.69414 14.9666C3.50997 15.0446 3.31629 15.0837 3.1131 15.0837H1.66935ZM11.2129 4.78678L10.6964 4.25199L11.7477 5.30324L11.2129 4.78678Z" fill="#2F80ED"/>
</g>
<defs>
<clipPath id="clip0_1_2604">
<rect width="16" height="16" fill="white"/>
</clipPath>
</defs>
</svg>
