<svg width="15" height="22" viewBox="0 0 15 22" fill="none" xmlns="http://www.w3.org/2000/svg">
<path d="M9.18386 1.821L8.46228 3.06228L8.45449 3.05775C7.82895 2.6934 7.02311 2.90655 6.65896 3.53269L6.2045 4.3148C6.0277 4.61795 5.98008 4.97182 6.0697 5.3106C6.15945 5.64992 6.3758 5.93397 6.67908 6.11012L6.68481 6.11346L1.01655 15.8588C0.968221 15.9419 0.940788 16.0353 0.935845 16.1311L0.694053 21.017C0.682894 21.2406 0.797629 21.4521 0.991778 21.565C1.13147 21.6463 1.29533 21.6666 1.44686 21.6265C1.50577 21.6109 1.56261 21.5862 1.61559 21.5527L5.7429 18.9269C5.82378 18.8752 5.89132 18.8051 5.93937 18.7221L11.6076 8.97676L11.6134 8.98013C11.9261 9.16226 12.284 9.19974 12.6092 9.11373C12.9343 9.02771 13.2269 8.8182 13.4089 8.50518L13.8636 7.72296C14.0402 7.41988 14.0878 7.06601 13.9982 6.72723C13.9084 6.38791 13.6921 6.10387 13.3888 5.92772L13.3811 5.92326L14.1031 4.68225C14.8916 3.32622 14.4303 1.58132 13.0741 0.791992C11.7182 0.00381538 9.97279 0.465495 9.18386 1.821ZM7.72129 6.71822L8.62679 7.2449L3.26099 16.4702L2.3557 15.9436L7.72129 6.71822ZM1.95008 19.9174L2.08594 17.1749L4.26692 18.4435L1.95008 19.9174ZM5.20378 17.6002L4.29828 17.0735L9.66404 7.8482L10.5695 8.37488L5.20378 17.6002ZM12.8267 7.11958L12.3719 7.90176C12.3392 7.95466 12.2696 7.97429 12.2164 7.9429L7.28214 5.07293C7.24876 5.05328 7.23544 5.02468 7.22989 5.00372C7.2245 4.98332 7.22194 4.95188 7.24151 4.91818L7.69593 4.13607C7.71192 4.10942 7.73739 4.09116 7.76543 4.08375C7.79379 4.07625 7.82453 4.07903 7.85147 4.09493L12.7857 6.9649C12.8191 6.98455 12.8325 7.01315 12.838 7.03411C12.8434 7.0545 12.846 7.08595 12.8267 7.11958ZM13.0658 4.0789L12.3439 5.31971L9.49966 3.66563L10.2212 2.42433C10.6776 1.6405 11.6868 1.37354 12.4705 1.82935C13.2546 2.28566 13.522 3.29514 13.0658 4.0789Z" fill="#CDD0D5"/>
</svg>
