<svg width="24" height="24" viewBox="0 0 24 24" fill="none" xmlns="http://www.w3.org/2000/svg">
<path d="M6.35289 8.4375C8.03953 8.4375 9.41171 7.07067 9.41171 5.39062C9.41171 3.71058 8.03953 2.34375 6.35289 2.34375C4.66626 2.34375 3.29407 3.71058 3.29407 5.39062C3.29407 7.07067 4.66626 8.4375 6.35289 8.4375ZM6.35289 3.75C7.26108 3.75 7.99995 4.48598 7.99995 5.39062C7.99995 6.29527 7.26108 7.03125 6.35289 7.03125C5.4447 7.03125 4.70583 6.29527 4.70583 5.39062C4.70583 4.48598 5.4447 3.75 6.35289 3.75Z" fill="#2F80ED"/>
<path d="M17.6471 6.09375C19.3337 6.09375 20.7059 4.72692 20.7059 3.04688C20.7059 1.36683 19.3337 0 17.6471 0C15.9604 0 14.5883 1.36683 14.5883 3.04688C14.5883 4.72692 15.9604 6.09375 17.6471 6.09375ZM17.6471 1.40625C18.5553 1.40625 19.2941 2.14223 19.2941 3.04688C19.2941 3.95152 18.5553 4.6875 17.6471 4.6875C16.7389 4.6875 16 3.95152 16 3.04688C16 2.14223 16.7389 1.40625 17.6471 1.40625Z" fill="#2F80ED"/>
<path d="M20.4706 7.5H14.8235C13.0285 7.5 11.5432 8.84208 11.3232 10.5716C10.728 10.1157 9.98372 9.84375 9.17647 9.84375H3.52946C1.58334 9.84375 0 11.4209 0 13.3594V16.6406C0 17.8037 0.949977 18.75 2.11765 18.75C2.36513 18.75 2.60264 18.7071 2.82358 18.629V24H9.88235V18.6291C10.1033 18.7071 10.3408 18.75 10.5882 18.75C11.5634 18.75 12.3863 18.0898 12.6312 17.1946C12.873 17.2905 13.1362 17.3438 13.4118 17.3438C13.6592 17.3438 13.8967 17.3009 14.1176 17.2228V24H21.1765V17.2228C21.3974 17.3009 21.6349 17.3438 21.8824 17.3438C23.05 17.3438 24 16.3975 24 15.2344V11.0156C24 9.07711 22.4167 7.5 20.4706 7.5ZM11.2941 16.6406C11.2941 17.0283 10.9775 17.3438 10.5882 17.3438C10.199 17.3438 9.88235 17.0283 9.88235 16.6406V12.4219H8.47059V22.5938H7.05882V16.6406H5.64706V22.5938H4.23534V12.6562H2.82358V16.6406C2.82353 17.0283 2.50687 17.3438 2.11765 17.3438C1.72842 17.3438 1.41176 17.0283 1.41176 16.6406V13.3594C1.41176 12.1963 2.36179 11.25 3.52946 11.25H9.17647C10.3441 11.25 11.2941 12.1963 11.2941 13.3594V16.6406ZM22.5882 15.2344C22.5882 15.6221 22.2716 15.9375 21.8824 15.9375C21.4931 15.9375 21.1765 15.6221 21.1765 15.2344V10.3125H19.7647V22.5938H18.3529V15.9375H16.9412V22.5938H15.5294V10.3125H14.1176V15.2344C14.1176 15.6221 13.801 15.9375 13.4118 15.9375C13.0225 15.9375 12.7059 15.6221 12.7059 15.2344V11.0156C12.7059 9.85252 13.6559 8.90625 14.8235 8.90625H20.4706C21.6383 8.90625 22.5882 9.85252 22.5882 11.0156V15.2344Z" fill="#2F80ED"/>
</svg>
