<?xml version="1.0" encoding="UTF-8" standalone="no"?>
<svg
   width="14"
   height="14"
   viewBox="0 0 14 14"
   fill="none"
   version="1.1"
   id="svg3"
   sodipodi:docname="picture.svg"
   inkscape:version="1.4.3 (0d15f75, 2025-12-25)"
   xmlns:inkscape="http://www.inkscape.org/namespaces/inkscape"
   xmlns:sodipodi="http://sodipodi.sourceforge.net/DTD/sodipodi-0.dtd"
   xmlns="http://www.w3.org/2000/svg"
   xmlns:svg="http://www.w3.org/2000/svg">
  <defs
     id="defs3" />
  <sodipodi:namedview
     id="namedview3"
     pagecolor="#ffffff"
     bordercolor="#000000"
     borderopacity="0.25"
     inkscape:showpageshadow="2"
     inkscape:pageopacity="0.0"
     inkscape:pagecheckerboard="0"
     inkscape:deskcolor="#d1d1d1"
     inkscape:zoom="83.357143"
     inkscape:cx="7.0059983"
     inkscape:cy="7"
     inkscape:window-width="3440"
     inkscape:window-height="1369"
     inkscape:window-x="-8"
     inkscape:window-y="-8"
     inkscape:window-maximized="1"
     inkscape:current-layer="svg3" />
  <path
     style="baseline-shift:baseline;display:inline;overflow:visible;vector-effect:none;fill:#737b8c;stroke-linecap:round;stroke-linejoin:round;enable-background:accumulate;stop-color:#000000;stop-opacity:1;opacity:1"
     d="m 2.9160156,1.1660156 c -0.9595911,0 -1.75,0.7904089 -1.75,1.75 v 8.1679684 c 0,0.959622 0.790427,1.75 1.75,1.75 h 8.1679684 c 0.959604,0 1.75,-0.790396 1.75,-1.75 V 2.9160156 c 0,-0.959573 -0.790378,-1.75 -1.75,-1.75 z m 0,1.1679688 h 8.1679684 c 0.329179,0 0.582032,0.2529242 0.582032,0.5820312 v 8.1679684 c 0,0.329197 -0.252835,0.582032 -0.582032,0.582032 H 2.9160156 c -0.329107,0 -0.5820312,-0.252853 -0.5820312,-0.582032 V 2.9160156 c 0,-0.3290889 0.2529423,-0.5820312 0.5820312,-0.5820312 z"
     id="path1" />
  <path
     style="baseline-shift:baseline;display:inline;overflow:visible;vector-effect:none;fill:#737b8c;stroke-linecap:round;stroke-linejoin:round;enable-background:accumulate;stop-color:#000000;stop-opacity:1;opacity:1"
     d="m 5.2480469,3.5 c -0.959586,0 -1.75,0.790408 -1.75,1.75 0,0.959592 0.7904079,1.75 1.75,1.75 0.959592,0 1.75,-0.790414 1.75,-1.75 0,-0.959586 -0.790414,-1.75 -1.75,-1.75 z m 0,1.1660156 c 0.329074,0 0.5839843,0.2549104 0.5839843,0.5839844 0,0.329074 -0.2549164,0.5839844 -0.5839843,0.5839844 -0.329068,0 -0.5820313,-0.2549164 -0.5820313,-0.5839844 0,-0.329068 0.2529573,-0.5839844 0.5820313,-0.5839844 z"
     id="path2" />
  <path
     style="baseline-shift:baseline;display:inline;overflow:visible;vector-effect:none;fill:#737b8c;stroke-linecap:round;stroke-linejoin:round;enable-background:accumulate;stop-color:#000000;stop-opacity:1;opacity:1"
     d="m 9.625,6.0253906 c -0.4638173,0 -0.9083173,0.1838129 -1.2363281,0.5117188 a 0.58339332,0.58339332 0 0 0 -0.00195,0 L 3.0878906,11.837891 a 0.58333498,0.58333498 0 0 0 0,0.824218 0.58333498,0.58333498 0 0 0 0.8242188,0 L 9.2128906,7.3632812 C 9.3224398,7.2537671 9.4700973,7.1914063 9.625,7.1914062 c 0.1549027,0 0.3027198,0.06248 0.412109,0.171875 l 1.800782,1.7988282 a 0.58333498,0.58333498 0 0 0 0.824218,0 0.58333498,0.58333498 0 0 0 0,-0.8242188 L 10.861328,6.5371094 C 10.533318,6.2090839 10.088817,6.0253906 9.625,6.0253906 Z"
     id="path3" />
</svg>
