<?xml version="1.0" encoding="UTF-8" standalone="no"?>
<svg
   id="KdjIcon"
   width="22"
   height="22"
   viewBox="0 0 22 22"
   fill="none"
   version="1.1"
   sodipodi:docname="pie.svg"
   inkscape:version="1.1.1 (3bf5ae0d25, 2021-09-20)"
   xmlns:inkscape="http://www.inkscape.org/namespaces/inkscape"
   xmlns:sodipodi="http://sodipodi.sourceforge.net/DTD/sodipodi-0.dtd"
   xmlns="http://www.w3.org/2000/svg"
   xmlns:svg="http://www.w3.org/2000/svg">
  <defs
     id="defs7" />
  <sodipodi:namedview
     id="namedview5"
     pagecolor="#ffffff"
     bordercolor="#666666"
     borderopacity="1.0"
     inkscape:pageshadow="2"
     inkscape:pageopacity="0.0"
     inkscape:pagecheckerboard="0"
     showgrid="false"
     inkscape:zoom="36.454545"
     inkscape:cx="10.986284"
     inkscape:cy="11.013716"
     inkscape:window-width="1920"
     inkscape:window-height="991"
     inkscape:window-x="-9"
     inkscape:window-y="-9"
     inkscape:window-maximized="1"
     inkscape:current-layer="KdjIcon" />
  <path
     style="color:#000000;fill:#323f4b;-inkscape-stroke:none"
     d="M 11.386719,0.00585938 C 8.7172948,-0.08817656 6.1049149,0.79351499 4.0371094,2.484375 1.9692908,4.1752256 0.58638276,6.5623018 0.1484375,9.1972656 -0.28950283,11.832233 0.24656163,14.535829 1.65625,16.804687 c 1.4096925,2.268756 3.5979447,3.948111 6.1542969,4.722657 2.5563951,0.774548 5.3083721,0.593233 7.7402341,-0.511719 2.431853,-1.104947 4.378424,-3.059186 5.476563,-5.494141 0.718334,-1.592962 1.042337,-3.320614 0.960937,-5.041015 C 21.957115,9.8203278 21.505442,9.1876903 20.972656,8.9179688 20.39,8.6231123 19.679175,8.595299 19.007812,8.8925781 17.641866,9.4974768 16.559106,8.8758208 15.990234,7.9453125 15.423224,7.0177776 15.362473,5.7455914 16.482422,4.7773437 v -0.00195 C 17.034885,4.2977477 17.319681,3.6491337 17.310547,2.9960938 17.302005,2.3971938 16.936784,1.7166575 16.363281,1.3964844 14.849674,0.55141658 13.14456,0.06777206 11.386719,0.00585938 Z m -0.07031,2.00000002 c 1.395469,0.04915 2.7429,0.434501 3.953125,1.0878906 -0.01443,0.049568 -0.01804,0.1026099 -0.09375,0.1679688 -1.850814,1.5980615 -1.9065,4.0699079 -0.892578,5.7285156 1.018927,1.6666686 3.276553,2.7317616 5.533203,1.7324216 0.0838,-0.03711 0.117408,-0.02011 0.164063,-0.01367 0.04393,1.362753 -0.206378,2.728404 -0.775391,3.990235 -0.89866,1.992641 -2.492279,3.58989 -4.482422,4.49414 -1.990133,0.904246 -4.240011,1.053772 -6.332031,0.419922 C 6.2986218,18.979428 4.5090936,17.606641 3.3554688,15.75 2.2018397,13.893263 1.7627049,11.679765 2.1210938,9.5234375 2.4794877,7.3671061 3.6105367,5.4169094 5.3027344,4.0332031 6.994925,2.6494862 9.1318951,1.9289055 11.316406,2.0058594 Z"
     id="path2" />
</svg>
