<svg xmlns="http://www.w3.org/2000/svg" width="24" height="24" viewBox="0 0 24 24" fill="none">
    <g clip-path="url(#clip0_1_5533)">
        <path
            d="M10.5527 16.0384L15.7796 12.6808C16.0364 12.5178 16.1648 12.2913 16.1648 12.0013C16.1648 11.7113 16.0364 11.484 15.7796 11.3194L10.5527 7.9618C10.2835 7.7772 10.0073 7.7624 9.72411 7.9174C9.44111 8.0724 9.29961 8.3141 9.29961 8.6425V15.3577C9.29961 15.6861 9.44111 15.9278 9.72411 16.0828C10.0073 16.2378 10.2835 16.223 10.5527 16.0384ZM12.0017 23.4001C10.4249 23.4001 8.94281 23.1009 7.55541 22.5025C6.16801 21.9041 4.96121 21.092 3.93501 20.0662C2.90881 19.0404 2.09631 17.8341 1.49751 16.4473C0.898909 15.0605 0.599609 13.5788 0.599609 12.0022C0.599609 10.4254 0.898809 8.9433 1.49721 7.5559C2.09561 6.1685 2.90771 4.9617 3.93351 3.9355C4.95931 2.9093 6.16561 2.0968 7.55241 1.498C8.93921 0.899397 10.4209 0.600098 11.9975 0.600098C13.5743 0.600098 15.0564 0.899297 16.4438 1.4977C17.8312 2.0961 19.038 2.9082 20.0642 3.934C21.0904 4.9598 21.9029 6.1661 22.5017 7.5529C23.1003 8.9397 23.3996 10.4214 23.3996 11.998C23.3996 13.5748 23.1004 15.0569 22.502 16.4443C21.9036 17.8317 21.0915 19.0385 20.0657 20.0647C19.0399 21.0909 17.8336 21.9034 16.4468 22.5022C15.06 23.1008 13.5783 23.4001 12.0017 23.4001Z"
            fill="#515761" />
    </g>
    <defs>
        <clipPath id="clip0_1_5533">
            <rect width="24" height="24" fill="white" />
        </clipPath>
    </defs>
</svg>