<svg id="PlusIcon" width="30" height="30" viewBox="0 0 30 30" fill="none" xmlns="http://www.w3.org/2000/svg">
<path d="M16.3257 0.54915C16.6773 0.900781 16.875 1.37772 16.875 1.875V13.125H28.125C28.6223 13.125 29.0991 13.3225 29.4507 13.6742C29.8023 14.0258 30 14.5027 30 15C30 15.4973 29.8023 15.9742 29.4507 16.3258C29.0991 16.6775 28.6223 16.875 28.125 16.875H16.875V28.125C16.875 28.6223 16.6773 29.0992 16.3257 29.4508C15.9741 29.8025 15.4973 30 15 30C14.5027 30 14.0259 29.8025 13.6743 29.4508C13.3227 29.0992 13.125 28.6223 13.125 28.125V16.875H1.875C1.37772 16.875 0.900947 16.6775 0.549316 16.3258C0.197686 15.9742 0 15.4973 0 15C0 14.5027 0.197686 14.0258 0.549316 13.6742C0.900947 13.3225 1.37772 13.125 1.875 13.125H13.125V1.875C13.125 1.37772 13.3227 0.900781 13.6743 0.54915C14.0259 0.197519 14.5027 0 15 0C15.4973 0 15.9741 0.197519 16.3257 0.54915Z" fill="#2F80ED"></path>
</svg>