<svg width="20" height="20" viewBox="0 0 20 20" fill="none" xmlns="http://www.w3.org/2000/svg">
<path d="M5.072 16.5784L6.92641 16.2804C7.31263 16.2184 7.57248 15.8744 7.50645 15.511C7.44042 15.1483 7.07622 14.9043 6.68645 14.967L3.31343 15.509C2.92721 15.571 2.66737 15.915 2.7334 16.2784L3.31059 19.4459C3.37023 19.7706 3.67054 19.9999 4.0099 19.9999C4.04966 19.9999 4.09013 19.9966 4.1306 19.9899C4.51681 19.9279 4.77666 19.5839 4.71063 19.2206L4.45079 17.7965C6.1199 18.8392 8.05596 19.3659 9.99628 19.3659C12.5649 19.3659 15.1328 18.4545 17.0682 16.6364C19.7078 14.1576 20.6549 10.5381 19.5403 7.18922C19.4231 6.83853 19.0234 6.64186 18.6507 6.75253C18.2765 6.86187 18.0678 7.23656 18.1849 7.58791C19.1413 10.4614 18.3291 13.5669 16.0643 15.6937C13.1002 18.4779 8.41307 18.7779 5.072 16.5784Z" fill="#323F4B"/>
<path d="M14.9342 3.42001L13.0734 3.71936C12.6872 3.78136 12.4273 4.12538 12.4933 4.48874C12.5523 4.81342 12.8526 5.04277 13.1926 5.04277C13.2324 5.04277 13.2729 5.03943 13.3133 5.03277L16.6864 4.49074C17.0726 4.42873 17.3324 4.08471 17.2664 3.72136L16.6892 0.553846C16.6232 0.191159 16.2582 -0.0528547 15.8692 0.00981549C15.483 0.071819 15.2231 0.415838 15.2892 0.779192L15.5483 2.19794C11.6421 -0.274201 6.38059 0.122489 2.93161 3.36201C0.291978 5.84081 -0.655108 9.46035 0.459528 12.8085C0.554662 13.0939 0.834386 13.2759 1.13683 13.2759C1.20711 13.2759 1.27882 13.2659 1.34911 13.2452C1.72325 13.1359 1.93198 12.7612 1.81484 12.4098C0.858525 9.53702 1.67072 6.43151 3.93549 4.30473C6.94713 1.47723 11.5683 1.17521 14.9342 3.42001Z" fill="#323F4B"/>
</svg>
