<svg width="17" height="20" viewBox="0 0 17 20" fill="none" xmlns="http://www.w3.org/2000/svg">
<path d="M3.10147 20V15.828H0.609469V14.064H3.10147V11.516H0.609469V9.752H3.10147V0.259999H9.65347C11.0721 0.259999 12.2761 0.502666 13.2655 0.987999C14.2548 1.45467 15.0015 2.11733 15.5055 2.976C16.0095 3.816 16.2615 4.824 16.2615 6C16.2615 7.13867 16.0001 8.128 15.4775 8.968C14.9548 9.78933 14.2175 10.424 13.2655 10.872C12.3135 11.3013 11.1748 11.516 9.84947 11.516H6.01347V14.064H10.7455V15.828H6.01347V20H3.10147ZM5.98547 9.752H9.42947C10.7735 9.752 11.8001 9.444 12.5095 8.828C13.2188 8.212 13.5735 7.30667 13.5735 6.112C13.5735 4.88 13.2188 3.96533 12.5095 3.368C11.8001 2.77067 10.7735 2.472 9.42947 2.472H5.98547V9.752Z" fill="#7B8794"/>
</svg>
