<?xml version="1.0" encoding="UTF-8" standalone="no"?>
<svg
   width="40"
   height="40"
   viewBox="0 0 40 40"
   fill="none"
   version="1.1"
   id="svg6"
   sodipodi:docname="search.svg"
   inkscape:version="1.1.1 (3bf5ae0d25, 2021-09-20)"
   xmlns:inkscape="http://www.inkscape.org/namespaces/inkscape"
   xmlns:sodipodi="http://sodipodi.sourceforge.net/DTD/sodipodi-0.dtd"
   xmlns="http://www.w3.org/2000/svg"
   xmlns:svg="http://www.w3.org/2000/svg">
  <defs
     id="defs10" />
  <sodipodi:namedview
     id="namedview8"
     pagecolor="#ffffff"
     bordercolor="#666666"
     borderopacity="1.0"
     inkscape:pageshadow="2"
     inkscape:pageopacity="0.0"
     inkscape:pagecheckerboard="0"
     showgrid="false"
     inkscape:zoom="20.05"
     inkscape:cx="19.975062"
     inkscape:cy="19.975062"
     inkscape:window-width="1920"
     inkscape:window-height="991"
     inkscape:window-x="-9"
     inkscape:window-y="-9"
     inkscape:window-maximized="1"
     inkscape:current-layer="svg6" />
  <path
     style="color:#000000;fill:#7b8794;stroke-linecap:round;stroke-linejoin:round;-inkscape-stroke:none"
     d="m 18,10 c -4.958729,0 -9,4.041271 -9,9 0,4.958729 4.041271,9 9,9 4.958729,0 9,-4.041271 9,-9 0,-4.958729 -4.041271,-9 -9,-9 z m 0,2 c 3.877862,0 7,3.122138 7,7 0,3.877862 -3.122138,7 -7,7 -3.877862,0 -7,-3.122138 -7,-7 0,-3.877862 3.122138,-7 7,-7 z"
     id="path2" />
  <path
     style="color:#000000;fill:#7b8794;stroke-linecap:round;stroke-linejoin:round;-inkscape-stroke:none"
     d="m 22.943359,23.943359 a 1,1 0 0 0 0,1.414063 l 4.34961,4.349609 a 1,1 0 0 0 1.414062,0 1,1 0 0 0 0,-1.414062 l -4.349609,-4.34961 a 1,1 0 0 0 -1.414063,0 z"
     id="path4" />
</svg>
