<svg width="14" height="14" viewBox="0 0 14 14" fill="none" xmlns="http://www.w3.org/2000/svg">
<g id="send 1" clip-path="url(#clip0_44_2326)">
<g id="Group">
<g id="Group_2">
<path id="Vector" d="M13.9909 0.467919C13.9904 0.465585 13.9895 0.463252 13.9889 0.460918C13.979 0.414536 13.9621 0.369613 13.9408 0.326149C13.9352 0.315064 13.9297 0.304271 13.9236 0.293186C13.8985 0.249138 13.8693 0.206841 13.8317 0.16921C13.794 0.13158 13.7514 0.102409 13.7074 0.0773224C13.6969 0.0711965 13.6864 0.0659458 13.6753 0.0604033C13.6307 0.0385252 13.5849 0.0207311 13.537 0.010813C13.5356 0.0105213 13.5347 0.0102296 13.5335 0.00993788C13.4837 1.9814e-05 13.4329 -0.00143872 13.3821 0.00177006C13.3711 0.00235348 13.36 0.00352031 13.3489 0.00497885C13.2976 0.0111047 13.2465 0.0218979 13.1978 0.041734L0.362941 5.29247C0.133951 5.38611 -0.0110282 5.61393 0.000931818 5.86072C0.0128918 6.1078 0.179165 6.32045 0.416324 6.39134L5.94944 8.05144L7.60925 13.5846C7.68043 13.8214 7.89308 13.9877 8.13987 13.9997C8.1495 13.9999 8.15883 14.0002 8.16846 14.0002C8.40416 14.0002 8.61827 13.8579 8.70841 13.6376L13.9591 0.802508C13.9591 0.802216 13.9591 0.802216 13.9591 0.801924C13.9787 0.754084 13.9892 0.704202 13.9953 0.653737C13.9968 0.641193 13.9982 0.628942 13.9988 0.616398C14.0017 0.566808 14.0006 0.516926 13.9909 0.467919ZM2.33197 5.74754L10.956 2.21933L6.25194 6.9237L2.33197 5.74754ZM8.25276 11.6689L7.07689 7.74865L11.7807 3.04486L8.25276 11.6689Z" fill="#323F4B"/>
</g>
</g>
<g id="Group_3">
<g id="Group_4">
<path id="Vector_2" d="M5.07984 8.92014C4.85202 8.69231 4.48272 8.69231 4.25489 8.92014L2.79636 10.3787C2.56853 10.6065 2.56853 10.9758 2.79636 11.2036C2.91041 11.3177 3.05948 11.3746 3.20883 11.3746C3.35818 11.3746 3.50725 11.3177 3.62131 11.2036L5.07984 9.74509C5.30767 9.51726 5.30767 9.14796 5.07984 8.92014Z" fill="#323F4B"/>
</g>
</g>
<g id="Group_5">
<g id="Group_6">
<path id="Vector_3" d="M1.87118 8.92014C1.64336 8.69231 1.27406 8.69231 1.04624 8.92014L0.171112 9.79526C-0.0567118 10.0231 -0.0567118 10.3924 0.171112 10.6202C0.28517 10.7343 0.434232 10.7911 0.583587 10.7911C0.732941 10.7911 0.882004 10.7343 0.996061 10.6202L1.87118 9.74508C2.09901 9.51726 2.09901 9.14796 1.87118 8.92014Z" fill="#323F4B"/>
</g>
</g>
<g id="Group_7">
<g id="Group_8">
<path id="Vector_4" d="M5.07992 12.1289C4.8521 11.9011 4.4828 11.9011 4.25498 12.1289L3.37985 13.004C3.15203 13.2318 3.15203 13.6011 3.37985 13.8289C3.49391 13.943 3.64297 13.9999 3.79233 13.9999C3.94168 13.9999 4.09074 13.943 4.2048 13.8289L5.07992 12.9538C5.30775 12.726 5.30775 12.3567 5.07992 12.1289Z" fill="#323F4B"/>
</g>
</g>
</g>
<defs>
<clipPath id="clip0_44_2326">
<rect width="14" height="14" fill="white"/>
</clipPath>
</defs>
</svg>
