<svg xmlns="http://www.w3.org/2000/svg" width="17" height="14" viewBox="0 0 17 14" fill="none">
    <g clip-path="url(#clip0_1_5975)">
        <path
            d="M1.7665 13.7223C1.4645 13.8429 1.17792 13.8173 0.90675 13.6453C0.635583 13.4733 0.5 13.2228 0.5 12.8938V9.45965C0.5 8.99785 0.816222 8.59611 1.2651 8.48763L7.423 6.99952L1.2651 5.51142C0.816222 5.40294 0.5 5.0012 0.5 4.5394V1.10527C0.5 0.776274 0.635583 0.525774 0.90675 0.353774C1.17792 0.181774 1.4645 0.156109 1.7665 0.276775L15.723 6.16103C16.0948 6.32753 16.2807 6.60761 16.2807 7.00127C16.2807 7.39494 16.0948 7.67386 15.723 7.83802L1.7665 13.7223Z"
            fill="white" />
    </g>
    <defs>
        <clipPath id="clip0_1_5975">
            <rect width="17" height="14" fill="white" />
        </clipPath>
    </defs>
</svg>