<?xml version="1.0" encoding="UTF-8" standalone="no"?>
<svg
   width="40"
   height="40"
   viewBox="0 0 40 40"
   fill="none"
   version="1.1"
   id="svg12"
   sodipodi:docname="share.svg"
   inkscape:version="1.1.1 (3bf5ae0d25, 2021-09-20)"
   xmlns:inkscape="http://www.inkscape.org/namespaces/inkscape"
   xmlns:sodipodi="http://sodipodi.sourceforge.net/DTD/sodipodi-0.dtd"
   xmlns="http://www.w3.org/2000/svg"
   xmlns:svg="http://www.w3.org/2000/svg">
  <defs
     id="defs16" />
  <sodipodi:namedview
     id="namedview14"
     pagecolor="#ffffff"
     bordercolor="#666666"
     borderopacity="1.0"
     inkscape:pageshadow="2"
     inkscape:pageopacity="0.0"
     inkscape:pagecheckerboard="0"
     showgrid="false"
     inkscape:zoom="20.05"
     inkscape:cx="19.975062"
     inkscape:cy="19.975062"
     inkscape:window-width="1920"
     inkscape:window-height="991"
     inkscape:window-x="-9"
     inkscape:window-y="-9"
     inkscape:window-maximized="1"
     inkscape:current-layer="svg12" />
  <path
     style="color:#000000;fill:#323f4b;stroke-linecap:round;stroke-linejoin:round;-inkscape-stroke:none"
     d="m 26,9 c -2.197305,0 -4,1.802695 -4,4 0,2.197305 1.802695,4 4,4 2.197305,0 4,-1.802695 4,-4 0,-2.197305 -1.802695,-4 -4,-4 z m 0,2 c 1.116492,0 2,0.883508 2,2 0,1.116492 -0.883508,2 -2,2 -1.116492,0 -2,-0.883508 -2,-2 0,-1.116492 0.883508,-2 2,-2 z"
     id="path2" />
  <path
     style="color:#000000;fill:#323f4b;stroke-linecap:round;stroke-linejoin:round;-inkscape-stroke:none"
     d="m 14,16 c -2.197305,0 -4,1.802695 -4,4 0,2.197305 1.802695,4 4,4 2.197305,0 4,-1.802695 4,-4 0,-2.197305 -1.802695,-4 -4,-4 z m 0,2 c 1.116492,0 2,0.883508 2,2 0,1.116492 -0.883508,2 -2,2 -1.116492,0 -2,-0.883508 -2,-2 0,-1.116492 0.883508,-2 2,-2 z"
     id="path4" />
  <path
     style="color:#000000;fill:#323f4b;stroke-linecap:round;stroke-linejoin:round;-inkscape-stroke:none"
     d="m 26,23 c -2.197305,0 -4,1.802695 -4,4 0,2.197305 1.802695,4 4,4 2.197305,0 4,-1.802695 4,-4 0,-2.197305 -1.802695,-4 -4,-4 z m 0,2 c 1.116492,0 2,0.883508 2,2 0,1.116492 -0.883508,2 -2,2 -1.116492,0 -2,-0.883508 -2,-2 0,-1.116492 0.883508,-2 2,-2 z"
     id="path6" />
  <path
     style="color:#000000;fill:#323f4b;stroke-linecap:round;stroke-linejoin:round;-inkscape-stroke:none"
     d="m 16.333984,20.542969 a 1,1 0 0 0 -0.607421,0.46289 1,1 0 0 0 0.359374,1.367188 l 6.830079,3.980469 A 1,1 0 0 0 24.283203,25.994141 1,1 0 0 0 23.923828,24.625 L 17.09375,20.646484 a 1,1 0 0 0 -0.759766,-0.103515 z"
     id="path8" />
  <path
     style="color:#000000;fill:#323f4b;stroke-linecap:round;stroke-linejoin:round;-inkscape-stroke:none"
     d="m 23.664062,13.542969 a 1,1 0 0 0 -0.757812,0.103515 l -6.820313,3.980469 a 1,1 0 0 0 -0.359374,1.367188 1,1 0 0 0 1.367187,0.359375 l 6.820312,-3.980469 a 1,1 0 0 0 0.359375,-1.367188 1,1 0 0 0 -0.609375,-0.46289 z"
     id="path10" />
</svg>
