<svg width="20" height="20" viewBox="0 0 20 20" fill="none" xmlns="http://www.w3.org/2000/svg">
<path d="M10.7969 1.128C10.7211 1.16642 10.623 1.23044 10.5829 1.27313C10.4001 1.46947 10.3867 1.60606 10.3822 3.41587V5.15311L10.1504 5.17445C10.0211 5.18726 9.67328 5.21714 9.379 5.24275C6.73493 5.48605 4.45648 6.43364 2.86914 7.95319C1.42449 9.33615 0.532729 11.1844 0.167107 13.5448C0.0645542 14.2235 -0.0335395 15.6918 0.0110485 15.965C0.069013 16.3235 0.349918 16.554 0.728916 16.554C1.04549 16.554 1.19709 16.4601 1.51367 16.0717C1.92834 15.5595 2.76213 14.7826 3.24814 14.454C4.79535 13.404 6.29797 13.0369 9.38792 12.943L10.3778 12.9131L10.3911 14.7229C10.4045 16.7248 10.4001 16.6949 10.6988 16.8998C10.9039 17.0406 11.2695 17.062 11.4702 16.9467C11.6753 16.8315 19.4693 10.2496 19.6521 10.0362C20.1247 9.48555 20.1158 8.57211 19.6253 8.01722C19.4648 7.82941 11.6708 1.25179 11.488 1.14508C11.3097 1.04263 10.9975 1.0341 10.7969 1.128ZM15.3449 6.2629C17.4539 8.04283 18.5418 8.99041 18.5418 9.04164C18.5418 9.09712 17.4093 10.0789 15.2111 11.9356L11.8759 14.7528L11.8536 13.421C11.8313 12.1234 11.8269 12.0893 11.7288 11.9313C11.6708 11.846 11.5281 11.7179 11.4167 11.6539L11.2071 11.5387L9.86947 11.5429C7.46171 11.5557 6.09732 11.7179 4.69725 12.1661C3.71632 12.4777 2.67296 13.0326 1.93725 13.6302C1.77228 13.7625 1.6296 13.8649 1.62068 13.8564C1.61176 13.8479 1.63405 13.6814 1.66972 13.4808C2.32963 9.74592 4.63483 7.48793 8.50953 6.78365C9.14268 6.67267 9.69112 6.61291 10.5249 6.57023C11.1937 6.54035 11.2383 6.53181 11.4345 6.41229C11.5727 6.33119 11.6842 6.22022 11.7511 6.1007C11.8536 5.91716 11.8536 5.89155 11.8536 4.60676V3.30489L12.0008 3.43721C12.0766 3.50551 13.5837 4.78176 15.3449 6.2629Z" fill="#2F80ED"/>
</svg>
