<svg width="20" height="24" viewBox="0 0 20 24" fill="none" xmlns="http://www.w3.org/2000/svg">
<path d="M9.85368 24C4.42036 24 0 19.5797 0 14.1464V4.64972C9.37491e-05 4.24233 0.297138 3.89584 0.699696 3.83349C2.14114 3.61018 3.55253 3.22375 4.90669 2.68165C6.4948 2.04504 7.99084 1.19943 9.35536 0.167201C9.65016 -0.0557338 10.0572 -0.0557338 10.352 0.167201C11.7165 1.19947 13.2126 2.04509 14.8007 2.68179C16.1549 3.22389 17.5662 3.61032 19.0077 3.83363C19.4102 3.89598 19.7072 4.24238 19.7073 4.64972V14.1459C19.7073 19.5794 15.2872 24 9.85368 24ZM1.65228 5.34571V14.1461C1.65228 18.6684 5.33123 22.3477 9.85368 22.3477C14.3761 22.3477 18.055 18.6684 18.055 14.1461V5.34571C16.7321 5.09447 15.4364 4.71595 14.1863 4.21543C12.6536 3.60109 11.1993 2.80718 9.85364 1.85033C8.50801 2.80718 7.05368 3.60109 5.52107 4.21543C4.27097 4.71595 2.97531 5.09451 1.65228 5.34571Z" fill="#2F80ED"/>
<path d="M7.96887 17.623C7.74973 17.6233 7.5395 17.5362 7.38472 17.381L3.6378 13.6342C3.31662 13.3101 3.31896 12.7871 3.64301 12.4659C3.96504 12.1467 4.48412 12.1467 4.80611 12.4659L7.96901 15.6288L14.9016 8.6959C15.2228 8.37185 15.7459 8.36955 16.0699 8.69079C16.394 9.01197 16.3963 9.53504 16.075 9.85909C16.0733 9.86082 16.0716 9.86251 16.0699 9.86424L8.55302 17.381C8.39829 17.5362 8.18801 17.6233 7.96887 17.623Z" fill="#2F80ED"/>
</svg>
