<svg width="20" height="24" viewBox="0 0 20 24" fill="none" xmlns="http://www.w3.org/2000/svg">
<path fill-rule="evenodd" clip-rule="evenodd" d="M0 14.1464C0 19.5797 4.42036 24 9.85368 24C15.2872 24 19.7073 19.5794 19.7073 14.1459V4.64972C19.7072 4.24238 19.4102 3.89598 19.0077 3.83363C17.5662 3.61032 16.1549 3.22389 14.8007 2.68179C13.2126 2.04509 11.7165 1.19947 10.352 0.167201C10.0572 -0.0557338 9.65016 -0.0557338 9.35536 0.167201C7.99084 1.19943 6.4948 2.04504 4.90669 2.68165C3.55253 3.22375 2.14114 3.61018 0.699696 3.83349C0.297138 3.89584 9.37491e-05 4.24233 0 4.64972V14.1464ZM7.38472 17.381C7.5395 17.5362 7.74973 17.6233 7.96887 17.623C8.18801 17.6233 8.39829 17.5362 8.55302 17.381L16.0699 9.86424L16.075 9.85909C16.3963 9.53504 16.394 9.01197 16.0699 8.69079C15.7459 8.36955 15.2228 8.37185 14.9016 8.6959L7.96901 15.6288L4.80611 12.4659C4.48412 12.1467 3.96504 12.1467 3.64301 12.4659C3.31896 12.7871 3.31662 13.3101 3.6378 13.6342L7.38472 17.381Z" fill="#2F80ED"/>
</svg>
