<svg width="151" height="151" viewBox="0 0 151 151" fill="none" xmlns="http://www.w3.org/2000/svg">
<g clip-path="url(#clip0_846_2864)">
<path d="M128.35 60.4C128.35 70.819 112.344 79.275 101.925 79.275C91.506 79.275 81.1625 70.819 81.1625 60.4H69.8375C69.8375 70.819 59.494 79.275 49.075 79.275C38.656 79.275 22.65 70.819 22.65 60.4H16.9875C15.7795 65.232 15.1 70.2905 15.1 75.5C15.1 91.5188 21.4635 106.882 32.7908 118.21C44.118 129.536 59.4809 135.9 75.5 135.9C91.5188 135.9 106.882 129.536 118.21 118.21C129.536 106.882 135.9 91.5188 135.9 75.5C135.9 70.2905 135.221 65.232 134.013 60.4H128.35ZM75.5 15.1C53.152 15.1 33.5975 27.2555 23.1785 45.3H127.822C117.403 27.2555 97.848 15.1 75.5 15.1ZM151 75.5C151 95.5241 143.045 114.728 128.887 128.887C114.728 143.045 95.5241 151 75.5 151C65.5852 151 55.7675 149.047 46.6074 145.253C37.4473 141.458 29.1243 135.898 22.1134 128.887C7.95445 114.728 0 95.5241 0 75.5C0 55.4762 7.95445 36.2725 22.1134 22.1134C36.2725 7.95445 55.4762 0 75.5 0C85.4147 0 95.2327 1.95287 104.392 5.7471C113.553 9.54131 121.876 15.1026 128.887 22.1134C135.898 29.1243 141.458 37.4473 145.253 46.6074C149.047 55.7675 151 65.5852 151 75.5ZM75.5 114.986C62.2875 114.986 50.6605 109.475 43.8655 101.321L54.5865 90.6C57.984 96.036 66.0625 99.8865 75.5 99.8865C84.9375 99.8865 93.016 96.036 96.4135 90.6L107.134 101.321C100.339 109.475 88.7125 114.986 75.5 114.986Z" fill="#0C4056"/>
</g>
<defs>
<clipPath id="clip0_846_2864">
<rect width="151" height="151" fill="white"/>
</clipPath>
</defs>
</svg>
