<svg width="20" height="20" viewBox="0 0 20 20" fill="none" xmlns="http://www.w3.org/2000/svg">
<path d="M13.7712 15.8958C13.6184 15.9931 13.4587 16.0833 13.292 16.1667C13.1253 16.25 12.9448 16.3333 12.7503 16.4167C12.5559 16.5 12.358 16.5 12.1566 16.4167C11.9552 16.3333 11.8198 16.1945 11.7503 16C11.6809 15.8056 11.6913 15.6146 11.7816 15.4271C11.8719 15.2396 12.0142 15.1042 12.2087 15.0208C12.3337 14.9653 12.4517 14.9097 12.5628 14.8542C12.6739 14.7986 12.7573 14.75 12.8128 14.7083L10.0003 12.125V14.2083C10.0003 14.5417 9.84755 14.7743 9.54199 14.9063C9.23644 15.0382 8.9656 14.9861 8.72949 14.75L6.00033 12.0208H3.75033C3.54199 12.0208 3.36491 11.9479 3.21908 11.8021C3.07324 11.6563 3.00033 11.4792 3.00033 11.2708V8.77084C3.00033 8.56251 3.07324 8.38542 3.21908 8.23959C3.36491 8.09376 3.54199 8.02084 3.75033 8.02084H5.87533L2.39616 4.52084C2.24338 4.36806 2.16699 4.19098 2.16699 3.98959C2.16699 3.7882 2.24338 3.61112 2.39616 3.45834C2.54894 3.30556 2.72602 3.22917 2.92741 3.22917C3.1288 3.22917 3.30588 3.30556 3.45866 3.45834L16.542 16.5417C16.6948 16.6945 16.7712 16.8681 16.7712 17.0625C16.7712 17.257 16.6948 17.4306 16.542 17.5833C16.3892 17.7361 16.2121 17.8125 16.0107 17.8125C15.8094 17.8125 15.6323 17.7361 15.4795 17.5833L13.7712 15.8958ZM15.5003 10.0208C15.5003 8.92362 15.2017 7.92709 14.6045 7.03126C14.0073 6.13542 13.2225 5.46528 12.2503 5.02084C12.0559 4.92362 11.91 4.78126 11.8128 4.59376C11.7156 4.40626 11.7087 4.21528 11.792 4.02084C11.8753 3.81251 12.0212 3.66667 12.2295 3.58334C12.4378 3.50001 12.6462 3.50695 12.8545 3.60417C14.1045 4.15973 15.108 5.01042 15.8649 6.15626C16.6219 7.30209 17.0003 8.58334 17.0003 10C17.0003 10.4444 16.9587 10.8819 16.8753 11.3125C16.792 11.7431 16.667 12.1597 16.5003 12.5625C16.3892 12.8403 16.2364 13.0139 16.042 13.0833C15.8475 13.1528 15.66 13.1528 15.4795 13.0833C15.2989 13.0139 15.1566 12.8924 15.0524 12.7188C14.9482 12.5451 14.9448 12.3611 15.042 12.1667C15.1948 11.8333 15.3094 11.4861 15.3857 11.125C15.4621 10.7639 15.5003 10.3958 15.5003 10.0208ZM12.0628 7.20834C12.5073 7.48612 12.858 7.89584 13.1149 8.43751C13.3719 8.97917 13.5003 9.50695 13.5003 10.0208V10.2708C13.5003 10.3542 13.4934 10.4306 13.4795 10.5C13.4517 10.6528 13.3614 10.7535 13.2087 10.8021C13.0559 10.8507 12.917 10.8125 12.792 10.6875L11.7295 9.62501C11.66 9.55556 11.6045 9.4757 11.5628 9.38542C11.5212 9.29514 11.5003 9.19445 11.5003 9.08334V7.52084C11.5003 7.36806 11.5628 7.26042 11.6878 7.19792C11.8128 7.13542 11.9378 7.13889 12.0628 7.20834ZM8.33366 6.22917C8.26421 6.15973 8.22949 6.06945 8.22949 5.95834C8.22949 5.84723 8.26421 5.75695 8.33366 5.68751L8.72949 5.29167C8.9656 5.05556 9.23644 5.00348 9.54199 5.13542C9.84755 5.26737 10.0003 5.50001 10.0003 5.83334V7.00001C10.0003 7.16667 9.92046 7.27778 9.76074 7.33334C9.60102 7.38889 9.4656 7.36112 9.35449 7.25001L8.33366 6.22917ZM8.50033 12.3958V10.625L7.00033 9.12501L6.62533 9.52084H4.50033V10.5208H6.62533L8.50033 12.3958Z" fill="#2F80ED"/>
</svg>
