<svg width="20" height="20" viewBox="0 0 20 20" fill="none" xmlns="http://www.w3.org/2000/svg">
<path d="M15.5 9.98625C15.5 8.8982 15.2014 7.90625 14.6042 7.01042C14.0069 6.11459 13.2233 5.44209 12.2533 4.99292C12.0567 4.90042 11.9097 4.76042 11.8125 4.57292C11.7153 4.38542 11.7083 4.19445 11.7917 4C11.875 3.79167 12.0243 3.64584 12.2396 3.5625C12.4549 3.47917 12.6667 3.4832 12.8752 3.57459C14.139 4.13597 15.1424 4.99653 15.8854 6.15625C16.6285 7.31597 17 8.59813 17 10.0027C17 11.4073 16.6285 12.6851 15.8854 13.836C15.1424 14.987 14.139 15.8432 12.8752 16.4046C12.6667 16.496 12.4549 16.5 12.2396 16.4167C12.0243 16.3333 11.875 16.1875 11.7917 15.9792C11.7083 15.7847 11.7153 15.5938 11.8125 15.4063C11.9097 15.2188 12.0567 15.0788 12.2533 14.9863C13.2233 14.5371 14.0069 13.8635 14.6042 12.9654C15.2014 12.0675 15.5 11.0744 15.5 9.98625ZM6 12H3.75C3.5375 12 3.35938 11.9281 3.21563 11.7844C3.07188 11.6406 3 11.4625 3 11.25V8.75C3 8.5375 3.07188 8.35938 3.21563 8.21563C3.35938 8.07188 3.5375 8 3.75 8H6L8.72917 5.27084C8.96528 5.03472 9.23611 4.98229 9.54167 5.11354C9.84722 5.24479 10 5.47924 10 5.81688V14.181C10 14.5187 9.84722 14.7535 9.54167 14.8854C9.23611 15.0174 8.96528 14.9653 8.72917 14.7292L6 12ZM13.5 10C13.5 10.5139 13.375 11.0417 13.125 11.5833C12.875 12.125 12.5208 12.5347 12.0625 12.8125C11.9375 12.8819 11.8125 12.8854 11.6875 12.8229C11.5625 12.7604 11.5 12.6495 11.5 12.4902V7.50979C11.5 7.35049 11.5625 7.23959 11.6875 7.17709C11.8125 7.11459 11.9375 7.11806 12.0625 7.1875C12.5208 7.45139 12.875 7.85764 13.125 8.40625C13.375 8.95486 13.5 9.48611 13.5 10ZM8.5 7.625L6.625 9.5H4.5V10.5H6.625L8.5 12.375V7.625Z" fill="#2F80ED"/>
</svg>
