<svg id="GoldStar" width="15" height="14" viewBox="0 0 15 14" fill="none" xmlns="http://www.w3.org/2000/svg">
<path d="M14.5956 6.34957C14.7637 6.22704 14.8885 6.0561 14.9523 5.86073C15.0162 5.66536 15.0159 5.45535 14.9515 5.26014C14.8871 5.06494 14.7619 4.89433 14.5934 4.77225C14.4249 4.65016 14.2215 4.58271 14.0118 4.57936L9.9391 4.42889C9.91907 4.42754 9.89988 4.42056 9.88382 4.40878C9.86776 4.397 9.85553 4.38093 9.84859 4.36251L8.44125 0.645085C8.37054 0.455956 8.24211 0.292645 8.07335 0.177263C7.90459 0.0618803 7.70365 0 7.49774 0C7.29183 0 7.09089 0.0618803 6.92213 0.177263C6.75337 0.292645 6.62494 0.455956 6.55423 0.645085L5.15141 4.37579C5.14447 4.39421 5.13224 4.41028 5.11618 4.42206C5.10012 4.43383 5.08093 4.44082 5.0609 4.44217L0.988196 4.59264C0.778499 4.59599 0.575132 4.66343 0.40661 4.78552C0.238088 4.90761 0.112862 5.07822 0.048491 5.27342C-0.0158804 5.46862 -0.0161692 5.67863 0.0476651 5.874C0.111499 6.06938 0.236256 6.24031 0.404441 6.36284L3.59925 8.819C3.61524 8.8313 3.62719 8.84792 3.63363 8.8668C3.64006 8.88568 3.6407 8.90598 3.63545 8.92521L2.53582 12.7356C2.47884 12.9296 2.48436 13.1361 2.55163 13.327C2.61891 13.5178 2.74467 13.6838 2.9118 13.8022C3.07894 13.9207 3.27934 13.986 3.48574 13.9891C3.69214 13.9923 3.89452 13.9332 4.06535 13.8198L7.44117 11.6071C7.4578 11.5958 7.47753 11.5898 7.49774 11.5898C7.51795 11.5898 7.53767 11.5958 7.5543 11.6071L10.9301 13.8198C11.0986 13.937 11.3003 14 11.5071 14C11.7139 14 11.9155 13.937 12.0841 13.8198C12.2512 13.7025 12.3771 13.5373 12.4444 13.3471C12.5116 13.1569 12.517 12.951 12.4597 12.7577L11.351 8.93406C11.3451 8.91487 11.3454 8.89437 11.3519 8.87536C11.3584 8.85635 11.3707 8.83976 11.3872 8.82785L14.5956 6.34957Z" fill="#FFB100"></path>
</svg>