<svg width="20" height="20" viewBox="0 0 20 20" fill="none" xmlns="http://www.w3.org/2000/svg">
<path d="M19.375 18.6667H18.75V11.3333C18.75 10.9653 18.47 10.6667 18.125 10.6667H14.375C14.03 10.6667 13.75 10.9653 13.75 11.3333V18.6667H12.5V0.666667C12.5 0.298667 12.22 0 11.875 0H8.125C7.78 0 7.5 0.298667 7.5 0.666667V18.6667H6.25V6.66667C6.25 6.29867 5.97 6 5.625 6H1.875C1.53 6 1.25 6.29867 1.25 6.66667V18.6667H0.625C0.28 18.6667 0 18.9653 0 19.3333C0 19.7013 0.28 20 0.625 20H19.375C19.72 20 20 19.7013 20 19.3333C20 18.9653 19.72 18.6667 19.375 18.6667ZM5 18.6667H2.5V7.33333H5V18.6667ZM11.25 18.6667H8.75V1.33333H11.25V18.6667ZM17.5 18.6667H15V12H17.5V18.6667Z" fill="#2F80ED"/>
</svg>
