<svg width="16" height="16" viewBox="0 0 16 16" fill="none" xmlns="http://www.w3.org/2000/svg">
<g clip-path="url(#clip0_1_2313)">
<path d="M9.54528 9.54528C9.96952 9.12104 10.1816 8.60588 10.1816 7.99982C10.1816 7.39376 9.96952 6.87861 9.54528 6.45437C9.12104 6.03013 8.60588 5.818 7.99982 5.818C7.39376 5.818 6.87861 6.03013 6.45437 6.45437C6.03013 6.87861 5.818 7.39376 5.818 7.99982C5.818 8.60588 6.03013 9.12104 6.45437 9.54528C6.87861 9.96952 7.39376 10.1816 7.99982 10.1816C8.60588 10.1816 9.12104 9.96952 9.54528 9.54528ZM5.68237 10.3173C5.04552 9.68043 4.7271 8.90794 4.7271 7.99982C4.7271 7.0917 5.04552 6.31922 5.68237 5.68237C6.31922 5.04552 7.0917 4.7271 7.99982 4.7271C8.90794 4.7271 9.68043 5.04552 10.3173 5.68237C10.9541 6.31922 11.2726 7.0917 11.2726 7.99982C11.2726 8.90794 10.9541 9.68043 10.3173 10.3173C9.68043 10.9541 8.90794 11.2726 7.99982 11.2726C7.0917 11.2726 6.31922 10.9541 5.68237 10.3173ZM0.727095 8.54528C0.572307 8.54528 0.442732 8.49304 0.338368 8.38855C0.233883 8.28419 0.181641 8.15461 0.181641 7.99982C0.181641 7.84504 0.233883 7.71546 0.338368 7.6111C0.442732 7.50661 0.572307 7.45437 0.727095 7.45437H2.36346C2.51825 7.45437 2.64782 7.50661 2.75219 7.6111C2.85667 7.71546 2.90891 7.84504 2.90891 7.99982C2.90891 8.15461 2.85667 8.28419 2.75219 8.38855C2.64782 8.49304 2.51825 8.54528 2.36346 8.54528H0.727095ZM13.6362 8.54528C13.4814 8.54528 13.3518 8.49304 13.2475 8.38855C13.143 8.28419 13.0907 8.15461 13.0907 7.99982C13.0907 7.84504 13.143 7.71546 13.2475 7.6111C13.3518 7.50661 13.4814 7.45437 13.6362 7.45437H15.2726C15.4273 7.45437 15.5569 7.50661 15.6613 7.6111C15.7658 7.71546 15.818 7.84504 15.818 7.99982C15.818 8.15461 15.7658 8.28419 15.6613 8.38855C15.5569 8.49304 15.4273 8.54528 15.2726 8.54528H13.6362ZM7.6111 2.75219C7.50661 2.64782 7.45437 2.51825 7.45437 2.36346V0.727095C7.45437 0.572307 7.50661 0.442731 7.6111 0.338368C7.71546 0.233883 7.84504 0.181641 7.99982 0.181641C8.15461 0.181641 8.28419 0.233883 8.38855 0.338368C8.49304 0.442731 8.54528 0.572307 8.54528 0.727095V2.36346C8.54528 2.51825 8.49304 2.64782 8.38855 2.75219C8.28419 2.85667 8.15461 2.90891 7.99982 2.90891C7.84504 2.90891 7.71546 2.85667 7.6111 2.75219ZM7.6111 15.6613C7.50661 15.5569 7.45437 15.4273 7.45437 15.2726V13.6362C7.45437 13.4814 7.50661 13.3518 7.6111 13.2475C7.71546 13.143 7.84504 13.0907 7.99982 13.0907C8.15461 13.0907 8.28419 13.143 8.38855 13.2475C8.49304 13.3518 8.54528 13.4814 8.54528 13.6362V15.2726C8.54528 15.4273 8.49304 15.5569 8.38855 15.6613C8.28419 15.7658 8.15461 15.818 7.99982 15.818C7.84504 15.818 7.71546 15.7658 7.6111 15.6613ZM3.64037 4.39291L2.72564 3.50328C2.61752 3.40255 2.56534 3.276 2.5691 3.12364C2.57285 2.97116 2.62503 2.83849 2.72564 2.72564C2.83849 2.61291 2.97 2.55655 3.12019 2.55655C3.27025 2.55655 3.39794 2.61291 3.50328 2.72564L4.39982 3.63346C4.50516 3.74619 4.55782 3.87388 4.55782 4.01655C4.55782 4.15922 4.50516 4.28697 4.39982 4.39982C4.2991 4.51267 4.17558 4.56607 4.02928 4.56C3.88285 4.55394 3.75322 4.49825 3.64037 4.39291ZM12.4964 13.274L11.5998 12.3662C11.4945 12.2535 11.4418 12.1239 11.4418 11.9775C11.4418 11.831 11.4945 11.7052 11.5998 11.5998C11.7006 11.487 11.8241 11.4336 11.9704 11.4396C12.1168 11.4457 12.2464 11.5014 12.3593 11.6067L13.274 12.4964C13.3821 12.5971 13.4343 12.7236 13.4306 12.876C13.4268 13.0285 13.3746 13.1612 13.274 13.274C13.1612 13.3867 13.0296 13.4431 12.8795 13.4431C12.7294 13.4431 12.6017 13.3867 12.4964 13.274ZM11.5998 4.39982C11.487 4.2991 11.4336 4.17558 11.4396 4.02928C11.4457 3.88285 11.5014 3.75322 11.6067 3.64037L12.4964 2.72564C12.5971 2.61752 12.7236 2.56534 12.876 2.5691C13.0285 2.57285 13.1612 2.62503 13.274 2.72564C13.3867 2.83849 13.4431 2.97 13.4431 3.12019C13.4431 3.27025 13.3867 3.39794 13.274 3.50328L12.3662 4.39982C12.2535 4.50516 12.1258 4.55782 11.9831 4.55782C11.8404 4.55782 11.7127 4.50516 11.5998 4.39982ZM2.72564 13.274C2.61291 13.1612 2.55655 13.0296 2.55655 12.8795C2.55655 12.7294 2.61291 12.6017 2.72564 12.4964L3.63346 11.5998C3.74619 11.4945 3.87576 11.4418 4.02219 11.4418C4.16861 11.4418 4.29449 11.4945 4.39982 11.5998C4.50794 11.7006 4.55897 11.8241 4.55291 11.9704C4.54685 12.1168 4.49352 12.2464 4.39291 12.3593L3.50328 13.274C3.39794 13.3867 3.27025 13.4413 3.12019 13.4376C2.97 13.4339 2.83849 13.3793 2.72564 13.274Z" fill="#2F80ED"/>
</g>
<defs>
<clipPath id="clip0_1_2313">
<rect width="16" height="16" fill="white"/>
</clipPath>
</defs>
</svg>
