<svg width="14" height="16" viewBox="0 0 14 16" fill="none" xmlns="http://www.w3.org/2000/svg">
<path d="M2.62057 15.7589C2.15654 15.7589 1.75933 15.5937 1.42893 15.2633C1.09853 14.9329 0.933333 14.5357 0.933333 14.0716V2.22553H0.7C0.501667 2.22553 0.335456 2.15841 0.201367 2.02417C0.0671223 1.88992 0 1.72363 0 1.5253C0 1.32681 0.0671223 1.1606 0.201367 1.02667C0.335456 0.892578 0.501667 0.825533 0.7 0.825533H4.2C4.2 0.597022 4.2805 0.402267 4.4415 0.241267C4.60234 0.0804228 4.79702 0 5.02553 0H8.97447C9.20298 0 9.39766 0.0804228 9.5585 0.241267C9.7195 0.402267 9.8 0.597022 9.8 0.825533H13.3C13.4983 0.825533 13.6645 0.892656 13.7986 1.0269C13.9329 1.16114 14 1.32743 14 1.52577C14 1.72426 13.9329 1.89047 13.7986 2.0244C13.6645 2.15849 13.4983 2.22553 13.3 2.22553H13.0667V14.0716C13.0667 14.5357 12.9015 14.9329 12.5711 15.2633C12.2407 15.5937 11.8435 15.7589 11.3794 15.7589H2.62057ZM11.6667 2.22553H2.33333V14.0716C2.33333 14.1555 2.36024 14.2243 2.41407 14.2781C2.46789 14.332 2.53672 14.3589 2.62057 14.3589H11.3794C11.4633 14.3589 11.5321 14.332 11.5859 14.2781C11.6398 14.2243 11.6667 14.1555 11.6667 14.0716V2.22553ZM5.2773 12.4922C5.47563 12.4922 5.64184 12.4252 5.77593 12.2911C5.90987 12.1568 5.97683 11.9905 5.97683 11.7922V4.7922C5.97683 4.59387 5.90971 4.42758 5.77547 4.29333C5.64138 4.15924 5.47509 4.0922 5.2766 4.0922C5.07827 4.0922 4.91206 4.15924 4.77797 4.29333C4.64403 4.42758 4.57707 4.59387 4.57707 4.7922V11.7922C4.57707 11.9905 4.64411 12.1568 4.7782 12.2911C4.91244 12.4252 5.07881 12.4922 5.2773 12.4922ZM8.7234 12.4922C8.92173 12.4922 9.08794 12.4252 9.22203 12.2911C9.35597 12.1568 9.42293 11.9905 9.42293 11.7922V4.7922C9.42293 4.59387 9.35589 4.42758 9.2218 4.29333C9.08755 4.15924 8.92119 4.0922 8.7227 4.0922C8.52437 4.0922 8.35816 4.15924 8.22407 4.29333C8.09013 4.42758 8.02317 4.59387 8.02317 4.7922V11.7922C8.02317 11.9905 8.09029 12.1568 8.22453 12.2911C8.35862 12.4252 8.52491 12.4922 8.7234 12.4922Z" fill="#8C9196"/>
</svg>
