<svg width="20" height="20" viewBox="0 0 20 20" fill="none" xmlns="http://www.w3.org/2000/svg">
<path d="M6.44971 7.23254C6.94147 7.23254 7.40386 7.04102 7.75155 6.69324L8.15882 6.28598L8.15889 13.138C8.15889 14.1532 8.98483 14.9791 9.99999 14.9791C11.0152 14.9791 11.8412 14.1532 11.8412 13.138V6.28617L12.2483 6.69328C12.5961 7.04109 13.0585 7.23266 13.5504 7.23266C14.0421 7.23266 14.5044 7.04117 14.8521 6.69344C15.57 5.97559 15.57 4.8075 14.8521 4.08965L11.3031 0.540508C10.9552 0.191953 10.4924 0 10 0C9.50843 0 9.04608 0.191445 8.69807 0.539258L5.14776 4.08957C4.42999 4.80742 4.42999 5.97543 5.1478 6.69332C5.49561 7.04105 5.95796 7.23254 6.44971 7.23254ZM5.97643 4.91813L9.52655 1.36801C9.65311 1.24152 9.82128 1.17188 10 1.17188C10.179 1.17188 10.3472 1.24164 10.4741 1.36871L14.0235 4.91824C14.2845 5.17922 14.2845 5.60383 14.0235 5.86477C13.8971 5.99113 13.7291 6.06074 13.5504 6.06074C13.3716 6.06074 13.2034 5.99109 13.077 5.86461L11.6696 4.45734C11.502 4.2898 11.25 4.23977 11.031 4.33035C10.8121 4.42105 10.6693 4.63473 10.6693 4.87168V13.138C10.6693 13.507 10.3691 13.8073 9.99999 13.8073C9.631 13.8073 9.33077 13.507 9.33077 13.138L9.33069 4.87141C9.33069 4.63441 9.18796 4.42078 8.96897 4.33008C8.89647 4.30004 8.82034 4.28547 8.74487 4.28547C8.59241 4.28547 8.44253 4.345 8.33046 4.45711L6.92292 5.86465C6.79655 5.99105 6.62846 6.0607 6.44975 6.0607C6.271 6.0607 6.10288 5.99109 5.97651 5.86465C5.71553 5.60371 5.71553 5.1791 5.97643 4.91813Z" fill="#2F80ED"/>
<path d="M18.1589 12.5522C17.1437 12.5522 16.3177 13.3782 16.3177 14.3934V16.3179H3.6823V14.3934C3.6823 13.3782 2.85637 12.5522 1.84117 12.5522C0.825976 12.5522 0 13.3782 0 14.3934V18.159C0 19.1742 0.825976 20.0002 1.84117 20.0002H18.1589C19.1741 20.0002 20 19.1742 20 18.159V14.3934C20 13.3782 19.1741 12.5522 18.1589 12.5522ZM18.8281 18.159C18.8281 18.5281 18.5279 18.8283 18.1589 18.8283H1.84117C1.47215 18.8283 1.17188 18.5281 1.17188 18.159V14.3934C1.17188 14.0244 1.47215 13.7241 1.84117 13.7241C2.2102 13.7241 2.51043 14.0244 2.51043 14.3934V16.9038C2.51043 17.2274 2.77277 17.4898 3.09637 17.4898H16.9037C17.2273 17.4898 17.4896 17.2274 17.4896 16.9038V14.3934C17.4896 14.0244 17.7899 13.7241 18.1589 13.7241C18.5279 13.7241 18.8281 14.0244 18.8281 14.3934V18.159Z" fill="#2F80ED"/>
</svg>
