<?xml version="1.0" encoding="UTF-8" standalone="no"?>
<svg
   width="40"
   height="40"
   viewBox="0 0 40 40"
   fill="none"
   version="1.1"
   id="svg10"
   sodipodi:docname="users.svg"
   inkscape:version="1.1.1 (3bf5ae0d25, 2021-09-20)"
   xmlns:inkscape="http://www.inkscape.org/namespaces/inkscape"
   xmlns:sodipodi="http://sodipodi.sourceforge.net/DTD/sodipodi-0.dtd"
   xmlns="http://www.w3.org/2000/svg"
   xmlns:svg="http://www.w3.org/2000/svg">
  <defs
     id="defs14" />
  <sodipodi:namedview
     id="namedview12"
     pagecolor="#ffffff"
     bordercolor="#666666"
     borderopacity="1.0"
     inkscape:pageshadow="2"
     inkscape:pageopacity="0.0"
     inkscape:pagecheckerboard="0"
     showgrid="false"
     inkscape:zoom="20.05"
     inkscape:cx="19.975062"
     inkscape:cy="19.975062"
     inkscape:window-width="1920"
     inkscape:window-height="991"
     inkscape:window-x="-9"
     inkscape:window-y="-9"
     inkscape:window-maximized="1"
     inkscape:current-layer="svg10" />
  <path
     style="color:#000000;fill:#7b8794;stroke-linecap:round;stroke-linejoin:round;-inkscape-stroke:none"
     d="M 13,22 C 11.674295,22 10.402228,22.527335 9.4648438,23.464844 8.5273833,24.402217 8,25.674276 8,27 v 2 a 1,1 0 0 0 1,1 1,1 0 0 0 1,-1 v -2 c 0,-0.796074 0.316028,-1.558268 0.878906,-2.121094 C 11.441721,24.316017 12.203907,24 13,24 h 8 c 0.796093,0 1.558279,0.316017 2.121094,0.878906 C 23.683983,25.441721 24,26.203907 24,27 v 2 a 1,1 0 0 0 1,1 1,1 0 0 0 1,-1 V 27 C 26,25.674295 25.472665,24.402228 24.535156,23.464844 23.597772,22.527335 22.325705,22 21,22 Z"
     id="path2" />
  <path
     style="color:#000000;fill:#7b8794;stroke-linecap:round;stroke-linejoin:round;-inkscape-stroke:none"
     d="m 17,10 c -2.749559,0 -5,2.250441 -5,5 0,2.749559 2.250441,5 5,5 2.749559,0 5,-2.250441 5,-5 0,-2.749559 -2.250441,-5 -5,-5 z m 0,2 c 1.668637,0 3,1.331363 3,3 0,1.668637 -1.331363,3 -3,3 -1.668637,0 -3,-1.331363 -3,-3 0,-1.668637 1.331363,-3 3,-3 z"
     id="path4" />
  <path
     style="color:#000000;fill:#7b8794;stroke-linecap:round;stroke-linejoin:round;-inkscape-stroke:none"
     d="m 28.25,22.162109 a 1,1 0 0 0 -1.21875,0.71875 1,1 0 0 0 0.71875,1.216797 c 0.643749,0.166245 1.213756,0.540993 1.621094,1.066406 C 29.778447,25.689571 29.999475,26.33501 30,27 v 2 a 1,1 0 0 0 1,1 1,1 0 0 0 1,-1 V 27 C 31.999125,25.892392 31.629817,24.814943 30.951172,23.939453 30.272511,23.064068 29.322449,22.439064 28.25,22.162109 Z"
     id="path6" />
  <path
     style="color:#000000;fill:#7b8794;stroke-linecap:round;stroke-linejoin:round;-inkscape-stroke:none"
     d="m 24.248047,10.162109 a 1,1 0 0 0 -1.216797,0.720704 1,1 0 0 0 0.720703,1.216796 c 0.645447,0.165263 1.216443,0.540069 1.625,1.066407 0.408546,0.526324 0.630859,1.173516 0.630859,1.839843 10e-7,0.666328 -0.222313,1.311567 -0.630859,1.837891 -0.408557,0.526337 -0.979553,0.903097 -1.625,1.068359 a 1,1 0 0 0 -0.720703,1.216797 1,1 0 0 0 1.216797,0.720703 c 1.075352,-0.275337 2.028342,-0.902435 2.708984,-1.779297 0.680653,-0.876874 1.050782,-1.954382 1.050781,-3.064453 10e-7,-1.11007 -0.370128,-2.189531 -1.050781,-3.066406 -0.680642,-0.876861 -1.633632,-1.502007 -2.708984,-1.777344 z"
     id="path8" />
</svg>
