<svg id="Voice" width="19" height="25" viewBox="0 0 19 25" fill="none" xmlns="http://www.w3.org/2000/svg">
<path fill-rule="evenodd" clip-rule="evenodd" d="M9.25 0C12.0114 0 14.25 2.23858 14.25 5V12C14.25 14.7614 12.0114 17 9.25 17C6.48858 17 4.25 14.7614 4.25 12V5C4.25 2.23858 6.48858 0 9.25 0ZM17.75 11.25C18.1642 11.25 18.5 11.5858 18.5 12C18.5 16.6029 14.7502 20.3603 10.0009 20.7216L10 24C10 24.4142 9.66421 24.75 9.25 24.75C8.8703 24.75 8.55651 24.4678 8.50685 24.1018L8.5 24L8.50008 20.7216C3.75034 20.3609 0 16.6032 0 12C0 11.5858 0.335786 11.25 0.75 11.25C1.16421 11.25 1.5 11.5858 1.5 12C1.5 15.9936 4.95997 19.25 9.25 19.25C13.54 19.25 17 15.9936 17 12C17 11.5858 17.3358 11.25 17.75 11.25ZM5.75 5C5.75 3.067 7.317 1.5 9.25 1.5C11.183 1.5 12.75 3.067 12.75 5V12C12.75 13.933 11.183 15.5 9.25 15.5C7.317 15.5 5.75 13.933 5.75 12V5Z" fill="#858E99"></path>
</svg>