<svg width="20" height="20" viewBox="0 0 20 20" fill="none" xmlns="http://www.w3.org/2000/svg">
<path d="M0.683838 4.19187C3.60734 3.24159 13.3003 0.108962 13.3003 0.108962C13.3025 0.108282 13.3046 0.107601 13.3068 0.106921C14.0263 -0.116736 14.7861 0.0140422 15.3916 0.465915C15.9972 0.917787 16.3445 1.61319 16.3445 2.37384V4.21276H16.4941C17.7242 4.21276 18.7248 5.22388 18.7248 6.46682V9.32224H19.3289C19.6995 9.32224 20 9.62591 20 10.0004V14.4761C20 14.8507 19.6995 15.1543 19.3289 15.1543H18.7248V17.7459C18.7248 18.9888 17.7242 20 16.4941 20H0.67111C0.30047 20 0 19.6963 0 19.3219V4.89095C0 4.51644 0.336296 4.30482 0.683838 4.19187ZM15.0022 2.37384C15.0022 2.04812 14.8535 1.75036 14.5942 1.55691C14.418 1.42539 14.2112 1.35741 14.0002 1.35741C13.9017 1.35741 13.8022 1.37218 13.7045 1.40225L4.98391 4.21276H15.0022V2.37384ZM18.6577 13.798V10.6785H14.8993C14.0481 10.6785 13.3557 11.3782 13.3557 12.2383C13.3557 13.0983 14.0481 13.798 14.8993 13.798H18.6577ZM1.34229 18.6437H16.4941C16.984 18.6437 17.3826 18.2409 17.3826 17.7459V15.1543H14.8993C13.3081 15.1543 12.0134 13.8461 12.0134 12.2382C12.0134 10.6303 13.3081 9.3223 14.8993 9.3223H17.3826V6.46682C17.3826 5.97181 16.984 5.56906 16.4941 5.56906H1.34229V18.6437Z" fill="white"/>
<path d="M14.3241 12.7177C14.1985 12.5916 14.1274 12.4166 14.1274 12.2382C14.1274 12.0599 14.1985 11.885 14.3241 11.7587C14.4489 11.6326 14.6214 11.5601 14.7985 11.5601C14.975 11.5601 15.1482 11.6326 15.2731 11.7587C15.3979 11.8849 15.4697 12.0599 15.4697 12.2382C15.4697 12.4166 15.3979 12.5915 15.2731 12.7177C15.1482 12.8438 14.975 12.9164 14.7985 12.9164C14.622 12.9164 14.4489 12.8438 14.3241 12.7177Z" fill="white"/>
</svg>
