<?xml version="1.0" encoding="UTF-8" standalone="no"?>
<svg
   width="27"
   height="27"
   viewBox="0 0 24 24"
   version="1.1"
   id="svg1"
   sodipodi:docname="zoom.svg"
   inkscape:version="1.4.3 (0d15f75, 2025-12-25)"
   xmlns:inkscape="http://www.inkscape.org/namespaces/inkscape"
   xmlns:sodipodi="http://sodipodi.sourceforge.net/DTD/sodipodi-0.dtd"
   xmlns="http://www.w3.org/2000/svg"
   xmlns:svg="http://www.w3.org/2000/svg">
  <defs
     id="defs1" />
  <sodipodi:namedview
     id="namedview1"
     pagecolor="#ffffff"
     bordercolor="#000000"
     borderopacity="0.25"
     inkscape:showpageshadow="2"
     inkscape:pageopacity="0.0"
     inkscape:pagecheckerboard="0"
     inkscape:deskcolor="#d1d1d1"
     inkscape:zoom="43.222222"
     inkscape:cx="13.488432"
     inkscape:cy="13.5"
     inkscape:window-width="3440"
     inkscape:window-height="1369"
     inkscape:window-x="-8"
     inkscape:window-y="-8"
     inkscape:window-maximized="1"
     inkscape:current-layer="svg1" />
  <path
     style="baseline-shift:baseline;display:inline;overflow:visible;vector-effect:none;fill:#ffffff;stroke-linecap:round;stroke-linejoin:round;stroke-miterlimit:10;enable-background:accumulate;stop-color:#000000;stop-opacity:1;opacity:1"
     d="m 11,2.25 c -4.8236073,0 -8.75,3.9263892 -8.75,8.75 0,4.823611 3.9263927,8.75 8.75,8.75 2.13671,0 4.027521,-0.861083 5.548828,-2.138672 l 3.919922,3.919922 a 0.75,0.75 0 0 0 1.0625,0 0.75,0.75 0 0 0 0,-1.0625 L 17.611328,16.548828 C 18.888919,15.027522 19.75,13.136711 19.75,11 19.75,6.1763892 15.823607,2.25 11,2.25 Z m 0,1.5 c 4.012949,0 7.25,3.2370488 7.25,7.25 0,4.012951 -3.237051,7.25 -7.25,7.25 C 6.9870515,18.25 3.75,15.012951 3.75,11 3.75,6.9870488 6.9870515,3.75 11,3.75 Z m 0,3.5 A 0.75,0.75 0 0 0 10.25,8 v 2.25 H 8 A 0.75,0.75 0 0 0 7.25,11 0.75,0.75 0 0 0 8,11.75 h 2.25 V 14 A 0.75,0.75 0 0 0 11,14.75 0.75,0.75 0 0 0 11.75,14 V 11.75 H 14 A 0.75,0.75 0 0 0 14.75,11 0.75,0.75 0 0 0 14,10.25 H 11.75 V 8 A 0.75,0.75 0 0 0 11,7.25 Z"
     id="path1" />
</svg>
