<svg width="81" height="81" viewBox="0 0 81 81" fill="none" xmlns="http://www.w3.org/2000/svg">
<path d="M36.0002 51H16.0002C15.0802 51 14.3335 51.8513 14.3335 52.9001C14.3335 53.9489 15.0802 54.8 16.0002 54.8H36.0002C36.9202 54.8 37.6669 53.9487 37.6669 52.8999C37.6669 51.8511 36.9202 51 36.0002 51Z" fill="#2F80ED"/>
<path d="M36.0002 61H16.0002C15.0802 61 14.3335 61.8513 14.3335 62.9001C14.3335 63.9489 15.0802 64.8 16.0002 64.8H36.0002C36.9202 64.8 37.6669 63.9487 37.6669 62.8999C37.6669 61.8511 36.9202 61 36.0002 61Z" fill="#2F80ED"/>
<path d="M46.35 76.6667H4.33328V17.6667H16C16.92 17.6667 17.6667 16.92 17.6667 16V4.33328H53.3334V30.25C53.3334 31.17 54.0802 31.9167 55.0002 31.9167C55.9202 31.9167 57.6669 31.17 57.6669 30.25V1.66672C57.6667 0.746719 56.92 0 56 0H16C15.7767 0 15.56 0.0467187 15.3567 0.13C15.26 0.17 15.1867 0.243281 15.1 0.3C15.0067 0.36 14.9 0.406719 14.82 0.486719L0.486719 14.82C0.41 14.8967 0.366719 15 0.306719 15.09C0.246719 15.18 0.17 15.2567 0.13 15.3567C0.0467187 15.56 0 15.7767 0 16V79.3333C0 80.2533 0.746719 81 1.66672 81H46.35C47.27 81 48.0167 80.2533 48.0167 79.3333C48.0167 78.4133 47.27 76.6667 46.35 76.6667ZM14.3333 6.69V14.3333H6.69L14.3333 6.69Z" fill="#2F80ED"/>
<path d="M70.9169 44.44C72.9637 42.4867 74.3337 39.6767 74.3337 36C74.3337 35.08 73.5869 34.3333 72.6669 34.3333C68.8469 34.3333 65.0337 36.1065 62.8502 39.4833C62.0569 37.3133 61.1635 35.7733 60.7435 35.11C60.2502 34.3367 59.2268 34.1033 58.4435 34.5967C57.6635 35.0867 57.4335 36.1167 57.9268 36.8934C59.1968 38.9001 60.4835 42.1934 60.8435 45.8367C60.6702 45.7634 60.5135 45.7067 60.3302 45.6267C59.0069 45.05 57.3569 44.3334 55.3035 44.3334C48.7402 44.3334 44.3335 50.5167 44.3335 59.7234C44.3335 68.1934 50.1802 81.0001 58.9968 81.0001C60.5435 81.0001 61.3201 80.6434 62.0468 80.2501C62.3335 80.0968 62.4335 80.0434 62.6668 80.0234C62.9001 80.0401 63.0035 80.0967 63.2868 80.2501C64.0135 80.6468 64.7901 81.0001 66.3368 81.0001C75.1502 81 81.0002 68.1933 81.0002 59.7233C81.0002 50.95 76.9702 44.9867 70.9169 44.44ZM70.8369 37.85C70.1536 41.5267 67.4337 43.5633 64.5002 44.1533C65.1802 40.4733 67.9035 38.44 70.8369 37.85ZM66.3369 77.6667C65.5069 77.6667 65.2569 77.53 64.8769 77.3234C64.4202 77.0734 63.7936 76.7367 62.7202 76.6901C62.6202 76.6734 62.5235 76.6869 62.4202 76.6969C61.4602 76.7736 60.8802 77.0901 60.4502 77.3236C60.0669 77.5303 59.8169 77.6669 58.9902 77.6669C53.1535 77.6669 47.6602 67.5601 47.6602 59.7236C47.6602 52.5136 50.7302 47.6668 55.2969 47.6668C56.6569 47.6668 57.7969 48.1636 59.0002 48.6836C60.1402 49.1803 61.3202 49.6903 62.6335 49.6903H62.6935C64.0068 49.6903 65.1868 49.177 66.3268 48.6836C67.5301 48.1603 68.6701 47.6668 70.0301 47.6668C74.6001 47.6668 77.6668 52.5136 77.6668 59.7236C77.6669 67.56 72.1735 77.6667 66.3369 77.6667Z" fill="#2F80ED"/>
<path d="M42.6669 21H16.0002C15.0802 21 14.3335 21.8513 14.3335 22.9001C14.3335 23.9489 15.0802 24.8 16.0002 24.8H42.6669C43.5869 24.8 44.3337 23.9487 44.3337 22.8999C44.3337 21.8511 43.5869 21 42.6669 21Z" fill="#2F80ED"/>
<path d="M44.3335 32.9001C44.3335 31.8513 43.5868 31 42.6668 31H16.0002C15.0802 31 14.3335 31.8513 14.3335 32.9001C14.3335 33.9489 15.0802 34.8 16.0002 34.8H42.6669C43.5869 34.8 44.3335 33.9489 44.3335 32.9001Z" fill="#2F80ED"/>
<path d="M41.0002 42.9001C41.0002 41.8513 40.2535 41 39.3335 41H16.0002C15.0802 41 14.3335 41.8513 14.3335 42.9001C14.3335 43.9489 15.0802 44.8 16.0002 44.8H39.3335C40.2535 44.8 41.0002 43.9489 41.0002 42.9001Z" fill="#2F80ED"/>
</svg>
