<svg width="80" height="74" viewBox="0 0 80 74" fill="none" xmlns="http://www.w3.org/2000/svg">
<path d="M59.8959 64.9377H19.5842C18.1712 64.9377 16.9816 63.8364 16.8777 62.4234L15.0907 38.5065C15.0335 37.7585 15.2985 37.0104 15.8075 36.4598C16.3218 35.9091 17.0439 35.5922 17.7972 35.5922H61.6829C62.4361 35.5922 63.1634 35.9091 63.6725 36.4598C64.1816 37.0104 64.4465 37.7585 64.3894 38.5065L62.6024 62.4234C62.4985 63.8364 61.3088 64.9377 59.8959 64.9377ZM17.7972 37.774C17.5946 37.774 17.4647 37.8831 17.4076 37.9455C17.3504 38.0078 17.2517 38.1481 17.2673 38.3455L19.0543 62.2624C19.0751 62.5377 19.3088 62.7559 19.5842 62.7559H59.8959C60.1712 62.7559 60.405 62.5377 60.4257 62.2624L62.2127 38.3455C62.2283 38.1429 62.1296 38.0078 62.0725 37.9455C62.0153 37.8831 61.8855 37.774 61.6829 37.774H17.7972Z" fill="#2F80ED"/>
<path d="M39.74 37.1195C39.4231 37.1195 39.1218 36.9792 38.914 36.7403L34.6023 31.7429C34.4309 31.5455 34.3374 31.2909 34.3374 31.0312V27.2026C34.3374 26.6 34.8972 26.5 35.4998 26.5C36.1024 26.5 36.5192 26.6 36.5192 27.2026V30.6208L39.74 34.3558L42.9608 30.6208V27.2026C42.9608 26.6 43.4491 26.1117 44.0517 26.1117C44.6543 26.1117 45.1426 26.6 45.1426 27.2026V31.0312C45.1426 31.2909 45.0491 31.5455 44.8777 31.7429L40.566 36.7403C40.3582 36.9792 40.0569 37.1195 39.74 37.1195Z" fill="#2F80ED"/>
<path d="M49.8425 17.2958C49.2132 17.2958 48.7031 16.7775 48.7031 16.138V11.9312C48.7031 6.64374 44.471 2.3322 39.2731 2.31566C39.2622 2.31566 39.2514 2.31566 39.2405 2.31566C36.7501 2.31566 34.3953 3.3136 32.6048 5.12754C30.7763 6.97455 29.7725 9.42254 29.7725 12.0194V16.1435C29.7725 16.783 29.2625 17.3013 28.6331 17.3013C28.0037 17.3013 27.4937 16.783 27.4937 16.1435V12.0194C27.4937 10.3984 27.8084 8.82157 28.4377 7.32741C29.04 5.8884 29.9027 4.59824 30.9987 3.49003C33.2233 1.24053 36.1478 0 39.2405 0H39.2839C42.4092 0.011027 45.35 1.25707 47.5583 3.51209C49.7666 5.7671 50.982 8.75541 50.982 11.9367V16.1435C50.982 16.7775 50.4719 17.2958 49.8425 17.2958Z" fill="#2F80ED"/>
<path d="M39.2405 29.6338C34.2167 29.6338 30.1328 25.5803 30.1328 20.5939V13.4472C30.1328 13.1362 30.2592 12.8416 30.4846 12.6234C30.7099 12.4052 31.0122 12.2906 31.3201 12.3015C31.4025 12.3015 39.6527 12.4979 43.1374 9.04453C43.3628 8.82085 43.6706 8.70083 43.9839 8.71174C44.3027 8.72265 44.5995 8.85904 44.8139 9.09363L48.0568 12.6834C48.2492 12.8962 48.3536 13.1635 48.3536 13.4472V20.5939C48.3481 25.5803 44.2642 29.6338 39.2405 29.6338ZM32.4413 14.5874V20.5939C32.4413 24.3146 35.4919 27.3425 39.2405 27.3425C42.989 27.3425 46.0396 24.3146 46.0396 20.5939V13.8836L43.8465 11.4559C40.3727 14.0636 34.8598 14.5165 32.4413 14.5874Z" fill="#2F80ED"/>
<path d="M32.0404 22.2935H30.7907C28.3458 22.2935 26.356 20.3653 26.356 17.9961C26.356 15.627 28.3458 13.6987 30.7907 13.6987H32.0404C32.7441 13.6987 33.3144 14.2513 33.3144 14.9333V21.059C33.3144 21.7409 32.7441 22.2935 32.0404 22.2935ZM30.7664 16.1678C29.7351 16.1796 28.9039 16.9967 28.9039 17.9961C28.9039 18.9955 29.7351 19.8127 30.7664 19.8244V16.1678Z" fill="#2F80ED"/>
<path d="M47.6902 22.2935H46.4405C45.7368 22.2935 45.1665 21.7409 45.1665 21.059V14.9333C45.1665 14.2513 45.7368 13.6987 46.4405 13.6987H47.6902C50.1351 13.6987 52.1249 15.627 52.1249 17.9961C52.1249 20.3653 50.1351 22.2935 47.6902 22.2935ZM47.7145 16.1678V19.8244C48.7458 19.8127 49.577 18.9955 49.577 17.9961C49.577 16.9967 48.7458 16.1796 47.7145 16.1678Z" fill="#2F80ED"/>
<path d="M22.0363 37.774C21.7973 37.774 21.5532 37.6961 21.3506 37.5351C20.8831 37.1558 20.8051 36.4701 21.1843 36.0026C22.3947 34.5013 24.0051 33.4052 25.8493 32.8389L35.1428 29.961C35.7194 29.7844 36.3272 30.1065 36.5038 30.6831C36.6805 31.2597 36.3584 31.8675 35.7818 32.0441L35.7454 32.0545L26.4934 34.9169C25.0701 35.3584 23.8181 36.2052 22.8831 37.3688C22.6701 37.6338 22.3532 37.774 22.0363 37.774Z" fill="#2F80ED"/>
<path d="M57.4443 37.774C57.1274 37.774 56.8105 37.6338 56.5923 37.3688C55.6572 36.2052 54.4105 35.3584 52.9819 34.9169L43.6884 32.0441C43.1118 31.8675 42.7897 31.2597 42.9663 30.6831C43.143 30.1065 43.7508 29.7844 44.3274 29.961L44.3637 29.9714L53.6261 32.8338C55.4702 33.4052 57.0806 34.4961 58.291 35.9974C58.6702 36.4649 58.5923 37.1558 58.1248 37.5299C57.9274 37.6961 57.6884 37.774 57.4443 37.774Z" fill="#2F80ED"/>
<path d="M40.0621 57.9662C39.4595 57.9662 38.9712 57.4779 38.9712 56.8753V48.9585L36.9972 49.8935C36.4517 50.1533 35.8024 49.9195 35.5426 49.374C35.2829 48.8286 35.5167 48.1792 36.0621 47.9195L39.5946 46.2416C39.9322 46.0805 40.327 46.1065 40.6439 46.3039C40.9608 46.5013 41.153 46.8494 41.153 47.2234V56.865C41.153 57.4779 40.6647 57.9662 40.0621 57.9662Z" fill="#2F80ED"/>
<path d="M42.9556 57.9662H37.1685C36.5659 57.9662 36.0776 57.4779 36.0776 56.8753C36.0776 56.2727 36.5659 55.7844 37.1685 55.7844H42.9504C43.553 55.7844 44.0413 56.2727 44.0413 56.8753C44.0413 57.4779 43.5582 57.9662 42.9556 57.9662Z" fill="#2F80ED"/>
<path d="M40.3727 45.0634C41.1203 44.7536 41.4751 43.8963 41.1652 43.1488C40.8554 42.4012 39.9981 42.0464 39.2506 42.3562C38.503 42.6661 38.1482 43.5233 38.458 44.2709C38.7679 45.0185 39.6251 45.3733 40.3727 45.0634Z" fill="#2F80ED"/>
<path d="M78.3896 73.4675H1.09091C0.488312 73.4675 0 72.9792 0 72.3766V70.6208C0 66.2935 3.51688 62.7766 7.84416 62.7766H71.6364C75.9636 62.7766 79.4805 66.2935 79.4805 70.6208V72.3766C79.4805 72.9792 78.9922 73.4675 78.3896 73.4675ZM2.18182 71.2857H77.2987V70.6208C77.2987 67.4987 74.7584 64.9584 71.6364 64.9584H7.84416C4.72208 64.9584 2.18182 67.4987 2.18182 70.6208V71.2857Z" fill="#2F80ED"/>
</svg>
