<svg width="40" height="40" viewBox="0 0 40 40" fill="none" xmlns="http://www.w3.org/2000/svg">
<g clip-path="url(#clip0_6033_29229)">
<path fill-rule="evenodd" clip-rule="evenodd" d="M20 40C31.04 40 40 31.04 40 20C40 8.96 31.04 0 20 0C8.96 0 0 8.96 0 20C0 31.04 8.96 40 20 40Z" fill="#F25C6E"/>
<path fill-rule="evenodd" clip-rule="evenodd" d="M26.3467 37.3335L31.9467 31.6802H28.96C27.52 31.6802 26.3467 32.8535 26.3467 34.3468V37.3335Z" fill="#95A5CC"/>
<path fill-rule="evenodd" clip-rule="evenodd" d="M26.3467 34.3464C26.6667 32.9064 29.0133 33.1198 28.96 31.6798L28.64 19.9998V8.10645H0V19.9998V20.4264V20.5864C0.266667 29.4931 6.34667 36.9064 14.56 39.2531L25.6533 37.3864L26.3467 34.3464Z" fill="#D9E2F7"/>
<path fill-rule="evenodd" clip-rule="evenodd" d="M0 8.10671H28.64V5.70671C28.64 4.21337 27.4667 3.04004 25.9733 3.04004C22.88 3.04004 12.6933 3.04004 2.66667 3.04004C1.22667 3.04004 0 4.21337 0 5.70671V8.10671Z" fill="#00A390"/>
<path fill-rule="evenodd" clip-rule="evenodd" d="M14.3467 8.10645V39.1998C16.1067 39.7331 18.0267 39.9998 20 39.9998C22.24 39.9998 24.3733 39.6264 26.3467 38.9864V34.3464C26.3467 32.8531 30.4 31.6798 28.96 31.6798H28.64V8.10645H14.3467Z" fill="#F2F6FF"/>
<path fill-rule="evenodd" clip-rule="evenodd" d="M14.3467 8.10671H28.64V5.70671C28.64 4.21337 27.4667 3.04004 25.9733 3.04004C20.8 3.04004 19.6267 3.04004 14.3467 3.04004V8.10671Z" fill="#5FCFC2"/>
<path fill-rule="evenodd" clip-rule="evenodd" d="M5.81331 0C6.45331 0 6.93331 0.533333 6.93331 1.12V4.96C6.93331 5.54667 6.45331 6.02667 5.81331 6.02667C5.22664 6.02667 4.74664 5.54667 4.74664 4.96V1.12C4.74664 0.533333 5.22664 0 5.81331 0Z" fill="#2E427D"/>
<path fill-rule="evenodd" clip-rule="evenodd" d="M11.4133 0C12.0533 0 12.5333 0.533333 12.5333 1.12V4.96C12.5333 5.54667 12.0533 6.02667 11.4133 6.02667C10.8267 6.02667 10.3467 5.54667 10.3467 4.96V1.12C10.3467 0.533333 10.8267 0 11.4133 0Z" fill="#2E427D"/>
<path fill-rule="evenodd" clip-rule="evenodd" d="M17.0133 0C17.6 0 18.1333 0.533333 18.1333 1.12V4.96C18.1333 5.54667 17.6 6.02667 17.0133 6.02667C16.4266 6.02667 15.8933 5.54667 15.8933 4.96V1.12C15.8933 0.533333 16.4266 0 17.0133 0Z" fill="#2E427D"/>
<path fill-rule="evenodd" clip-rule="evenodd" d="M22.6133 0C23.2 0 23.7333 0.533333 23.7333 1.12V4.96C23.7333 5.54667 23.2 6.02667 22.6133 6.02667C21.9733 6.02667 21.4933 5.54667 21.4933 4.96V1.12C21.4933 0.533333 21.9733 0 22.6133 0Z" fill="#2E427D"/>
<path fill-rule="evenodd" clip-rule="evenodd" d="M15.0933 11.6265H19.2533V15.7331H15.0933V11.6265Z" fill="#CC99CC"/>
<path fill-rule="evenodd" clip-rule="evenodd" d="M9.44 11.6265H13.6V15.7331H9.44V11.6265Z" fill="#CC99CC"/>
<path fill-rule="evenodd" clip-rule="evenodd" d="M20.7466 11.6265H24.9066V15.7331H20.7466V11.6265Z" fill="#CC99CC"/>
<path fill-rule="evenodd" clip-rule="evenodd" d="M3.78668 17.9731H7.94668V22.0798H3.78668V17.9731Z" fill="#CC99CC"/>
<path fill-rule="evenodd" clip-rule="evenodd" d="M3.78668 24.2666H7.94668V28.4266H3.78668V24.2666Z" fill="#CC99CC"/>
<path fill-rule="evenodd" clip-rule="evenodd" d="M15.0933 17.9731H19.2533V22.0798H15.0933V17.9731Z" fill="#CC99CC"/>
<path fill-rule="evenodd" clip-rule="evenodd" d="M15.0933 24.2666H19.2533V28.4266H15.0933V24.2666Z" fill="#CC99CC"/>
<path fill-rule="evenodd" clip-rule="evenodd" d="M9.44 17.9731H13.6V22.0798H9.44V17.9731Z" fill="#CC99CC"/>
<path fill-rule="evenodd" clip-rule="evenodd" d="M9.44 24.2666H13.6V28.4266H9.44V24.2666Z" fill="#CC99CC"/>
<path fill-rule="evenodd" clip-rule="evenodd" d="M20.7466 17.9731H24.9066V22.0798H20.7466V17.9731Z" fill="#CC99CC"/>
<path fill-rule="evenodd" clip-rule="evenodd" d="M25.12 17.9199H29.2267V22.0799H25.12V17.9199Z" fill="#9DA3C4"/>
<path fill-rule="evenodd" clip-rule="evenodd" d="M26.72 25.9202C27.2 26.4002 27.4667 27.0402 27.4667 27.7335C27.4667 28.3735 27.2 29.0135 26.72 29.4935C26.72 29.4935 26.72 29.5469 26.6667 29.5469C25.6 30.6669 24.9067 32.1602 24.9067 33.8669V37.3869H29.8667L29.9733 37.3335H30.0267L30.24 37.1735L30.3467 37.1202H30.4V37.0669L30.72 36.9069L30.88 36.8002L31.0933 36.6402L31.2533 36.5335L31.36 36.4802L31.52 36.3202H31.5733L31.6267 36.2669L31.84 36.1069L31.9467 36.0535V36.0002L32.0533 35.9469L32.2667 35.7869L32.3733 35.7335V35.6802L32.6933 35.4669L32.7467 35.4135L32.8533 35.3602L33.0667 35.1469L33.1733 35.0402L33.44 34.8269L33.4933 34.7735L33.76 34.5069L33.8133 34.4535L33.92 34.4002L34.0267 34.2935L34.1333 34.1869L34.1867 34.0802L34.4533 33.8135L34.5067 33.7602L34.7733 33.4935L34.8267 33.4402L35.1467 33.0669C35.2 32.9602 35.3067 32.8535 35.4133 32.7469L35.4667 32.6935L35.7333 32.3735L36 32.0002V31.9469H36.0533C36.2133 31.7335 36.4267 31.4669 36.5867 31.2002C36.2667 30.5602 35.8933 30.0269 35.4133 29.5469L35.36 29.4935C34.9333 29.0135 34.6133 28.3735 34.6133 27.7335C34.6133 27.0402 34.9333 26.4002 35.36 25.9202L35.4133 25.8669C36.5333 24.7469 37.1733 23.2535 37.1733 21.5469V18.0269H24.9067V21.5469C24.9067 23.2535 25.6 24.7469 26.6667 25.8669C26.72 25.8669 26.72 25.9202 26.72 25.9202Z" fill="#D9E2F7"/>
<path fill-rule="evenodd" clip-rule="evenodd" d="M31.04 18.0267H24.8H23.6267H23.5733H23.52C23.1467 18.0267 22.88 17.8134 22.72 17.5467C22.56 17.3334 22.5067 17.1201 22.5067 16.8534C22.5067 16.6401 22.56 16.4267 22.6667 16.2134C22.88 15.9467 23.1467 15.7334 23.52 15.7334H23.5733H23.6267H24.8H31.04V18.0267Z" fill="#782509"/>
<path fill-rule="evenodd" clip-rule="evenodd" d="M37.1733 18.0269H31.04V20.8002H34.6666V21.5469C34.6666 22.5069 34.2933 23.4135 33.6 24.1069L33.5466 24.2135C32.64 25.1202 32.1066 26.4002 32.1066 27.7335C32.1066 29.0135 32.64 30.2935 33.5466 31.2002L33.6 31.3069C34.24 31.9469 34.6133 32.7469 34.6666 33.6002L34.72 33.5469L34.9333 33.3335V33.2802L34.9866 33.2269H35.04L35.2533 32.9602V32.9069L35.3066 32.8535L35.36 32.8002L35.4133 32.7469L35.4666 32.6402H35.52V32.5869L35.5733 32.5335H35.6266V32.4802L35.68 32.4269V32.3735H35.7333V32.3202L35.7866 32.2669H35.84L36 32.0002V31.9469H36.0533L36.32 31.5735V31.5202L36.5333 31.2535L36.5866 31.2002C36.2666 30.5602 35.8933 30.0269 35.4133 29.5469L35.36 29.4935C34.9333 29.0135 34.6133 28.3735 34.6133 27.7335C34.6133 27.0402 34.9333 26.4002 35.36 25.9202L35.4133 25.8669C36.5333 24.7469 37.1733 23.2535 37.1733 21.5469V18.0269ZM33.6533 34.6135H31.04V36.6935L31.0933 36.6402L31.2533 36.5335L31.3066 36.4802H31.36L31.4133 36.4269L31.4666 36.3735H31.52L31.5733 36.3202L31.6266 36.2669L31.68 36.2135H31.7333L31.7866 36.1602L31.84 36.1069L31.8933 36.0535H31.9466L32 36.0002H32.0533V35.9469L32.1066 35.8935H32.16L32.2133 35.8402H32.2666V35.7869L32.32 35.7335H32.3733L32.4266 35.6802L32.48 35.6269L32.5333 35.5735H32.5866V35.5202L32.64 35.4669H32.6933L32.8 35.3602L32.8533 35.3069H32.9066L32.96 35.2535V35.2002H33.0133L33.12 35.0935L33.1733 35.0402H33.2266V34.9869L33.28 34.9335H33.3333L33.3866 34.8802L33.4933 34.7735L33.5466 34.7202L33.6 34.6669L33.6533 34.6135Z" fill="#EDF2FF"/>
<path fill-rule="evenodd" clip-rule="evenodd" d="M32.1067 27.7334C32.1067 29.0134 32.64 30.2934 33.5467 31.2001C33.6 31.2534 33.6 31.3067 33.6 31.3067C34.24 31.9467 34.6133 32.7467 34.6667 33.6001L34.6133 33.6534L34.56 33.7067L34.3467 33.9734H34.2933L34.24 34.0267L34.08 34.2401H34.0267V34.2934H33.9733L33.92 34.3467L33.8667 34.4001L33.7067 34.5601L33.6533 34.6134L33.6 34.6667L33.5467 34.7201L33.4933 34.7734L33.3867 34.8267V34.8801H33.3333L33.28 34.9334L33.1733 35.0401V35.0934H33.12L33.0667 35.1467L33.0133 35.2001L32.8 35.3601V35.4134H32.7467H27.4133V33.8667C27.4133 32.9067 27.7867 32.0001 28.4267 31.3601C28.48 31.3067 28.5333 31.2534 28.5333 31.2001C29.44 30.2934 29.9733 29.0134 29.9733 27.7334H32.1067Z" fill="#F0B800"/>
<path fill-rule="evenodd" clip-rule="evenodd" d="M31.04 27.7334V35.4134H32.7466H32.8V35.3601L33.0133 35.2001L33.0666 35.1467L33.12 35.0934H33.1733V35.0401L33.3866 34.8801V34.8267H33.44L33.4933 34.7734L33.5466 34.7201L33.6 34.6667L33.6533 34.6134L33.7066 34.5601L33.8666 34.4001L33.92 34.3467L33.9733 34.2934H34.0266V34.2401H34.08L34.24 34.0267L34.2933 33.9734H34.3466L34.56 33.7067L34.6133 33.6534L34.6666 33.6001C34.6133 32.7467 34.24 31.9467 33.6 31.3067L33.5466 31.2001C32.64 30.2934 32.1066 29.0134 32.1066 27.7334H31.04Z" fill="#FFE019"/>
<path fill-rule="evenodd" clip-rule="evenodd" d="M32.1067 27.7333C32.1067 26.4 32.64 25.12 33.5467 24.2133C33.6 24.16 33.6 24.1067 33.6 24.1067C34.2933 23.4133 34.6667 22.5067 34.6667 21.5467V20H27.4133V21.5467C27.4133 22.5067 27.7867 23.4133 28.4267 24.0533C28.48 24.1067 28.5333 24.16 28.5333 24.2133C29.44 25.12 29.9733 26.4 29.9733 27.7333H32.1067Z" fill="#F0B800"/>
<path fill-rule="evenodd" clip-rule="evenodd" d="M31.04 27.7333V20H34.6666V21.5467C34.6666 22.5067 34.2933 23.4133 33.6 24.1067L33.5466 24.2133C32.64 25.12 32.1066 26.4 32.1066 27.7333H31.04Z" fill="#FFE019"/>
<path fill-rule="evenodd" clip-rule="evenodd" d="M31.04 18.0267H37.3333H38.4533H38.5066H38.56C38.9333 18.0267 39.2 17.8134 39.4133 17.5467C39.52 17.3334 39.6266 17.1201 39.6266 16.8534C39.6266 16.6401 39.52 16.4267 39.4133 16.2134C39.2533 15.9467 38.9333 15.7334 38.56 15.7334H38.5066H38.4533H37.3333H31.04V18.0267Z" fill="#A14F34"/>
<path fill-rule="evenodd" clip-rule="evenodd" d="M23.84 39.6268H23.6267H23.5733H23.52C23.1467 39.5735 22.88 39.4135 22.72 39.1468C22.56 38.9335 22.5067 38.7202 22.5067 38.4535C22.5067 38.2402 22.56 38.0268 22.6667 37.8135C22.88 37.5468 23.1467 37.3335 23.52 37.3335H23.5733H23.6267H24.8H29.9733C28.1067 38.4002 26.08 39.2002 23.84 39.6268Z" fill="#782509"/>
<path fill-rule="evenodd" clip-rule="evenodd" d="M20.7466 24.2666H24.9066V28.4266H20.7466V24.2666Z" fill="#CC99CC"/>
<path fill-rule="evenodd" clip-rule="evenodd" d="M3.78668 30.6133H7.94668V34.7199H6.45335C5.49335 33.8133 4.58668 32.7999 3.78668 31.6799V30.6133Z" fill="#CC99CC"/>
<path fill-rule="evenodd" clip-rule="evenodd" d="M15.0933 30.6133H19.2533V34.7199H15.0933V30.6133Z" fill="#CC99CC"/>
<path fill-rule="evenodd" clip-rule="evenodd" d="M9.44 30.6133H13.6V34.7199H9.44V30.6133Z" fill="#CC99CC"/>
<path fill-rule="evenodd" clip-rule="evenodd" d="M16.8533 14.88L25.12 23.1467C26.6133 24.64 29.0667 24.64 30.56 23.1467L38.88 14.88C40.3733 13.3867 40.3733 10.9333 38.88 9.44L30.56 1.12C29.0667 -0.373333 26.6133 -0.373333 25.12 1.12L16.8533 9.44C15.36 10.9333 15.36 13.3867 16.8533 14.88Z" fill="#E3B107"/>
<path fill-rule="evenodd" clip-rule="evenodd" d="M38.88 14.88L30.56 23.1467C29.8134 23.8933 28.8534 24.2667 27.84 24.2667V0C28.8534 0 29.8134 0.373333 30.56 1.12L38.88 9.44C40.3734 10.9333 40.3734 13.3867 38.88 14.88Z" fill="#E3C607"/>
<path fill-rule="evenodd" clip-rule="evenodd" d="M22.08 5.97355C22.08 6.13355 22.1867 6.18688 22.2934 6.29355L22.72 6.72021C22.8267 6.82688 22.8267 6.77355 22.7734 6.98688C22.7734 7.04022 22.7734 7.09355 22.72 7.14688C22.72 7.25355 22.72 7.36022 22.6667 7.46688C22.6667 7.57355 22.6134 7.73355 22.6667 7.84021C22.6667 7.84021 22.72 7.89355 22.72 7.94688C22.88 8.05355 23.04 7.94688 23.2 7.84021L23.4667 7.73355C23.9467 7.46688 23.7334 7.52022 24.2134 7.73355L24.5334 7.94688C24.64 7.94688 24.7467 8.00022 24.8534 8.00022C24.9067 7.94688 25.0134 7.89355 25.0134 7.78688C25.0134 7.68021 24.9067 7.09355 24.9067 6.98688C24.8534 6.77355 24.8534 6.82688 25.0134 6.61355L25.44 6.24021C25.44 6.18688 25.4934 6.13355 25.5467 6.13355C25.5467 6.08021 25.6 6.02688 25.6 5.97355C25.5467 5.86688 25.4934 5.76021 25.44 5.76021C25.3867 5.70688 25.1734 5.70688 25.0667 5.70688L24.5867 5.60021C24.5334 5.60021 24.48 5.60021 24.4267 5.54688L24.16 5.01355C24.16 4.96021 24.1067 4.85355 24.0534 4.80022C23.9467 4.58688 23.68 4.58688 23.5734 4.80022L23.2 5.54688C23.2 5.60021 23.1467 5.60021 23.0934 5.60021L22.56 5.70688C22.5067 5.70688 22.2934 5.70688 22.24 5.70688C22.1867 5.76021 22.1867 5.76021 22.1334 5.81355C22.08 5.86688 22.08 5.92021 22.08 5.97355ZM25.76 4.32021C25.76 4.53355 25.92 4.64021 26.08 4.80022L26.56 5.22688C26.6667 5.38688 26.6667 5.38688 26.6134 5.60021C26.6134 5.65355 26.6134 5.76021 26.56 5.81355C26.56 5.92021 26.56 6.08021 26.5067 6.18688C26.5067 6.34688 26.4534 6.50688 26.5067 6.61355C26.5067 6.66688 26.56 6.72021 26.56 6.72021C26.7734 6.93355 26.9867 6.77355 27.1467 6.66688L27.52 6.50688C28.0534 6.18688 27.7867 6.24021 28.3734 6.50688L28.8 6.72021C28.9067 6.77355 29.0134 6.82688 29.12 6.82688C29.2267 6.77355 29.3334 6.66688 29.3334 6.56021C29.3867 6.45355 29.2267 5.76021 29.2267 5.60021C29.1734 5.33355 29.12 5.38688 29.3867 5.12021L29.8667 4.69355C29.92 4.64021 29.9734 4.58688 29.9734 4.53355C30.0267 4.48021 30.0267 4.42688 30.0267 4.37355V4.32021C30.0267 4.21355 29.9734 4.10688 29.8667 4.05355C29.8134 4.05355 29.5467 4.00021 29.44 4.00021L28.8534 3.89355C28.7467 3.89355 28.6934 3.89355 28.64 3.84021L28.3734 3.20021C28.32 3.09355 28.2667 2.98688 28.2134 2.88021C28.0534 2.66688 27.7334 2.66688 27.6267 2.88021L27.1467 3.84021C27.0934 3.89355 27.0934 3.89355 26.9867 3.89355L26.4 4.00021C26.2934 4.00021 26.0267 4.05355 25.9734 4.05355C25.92 4.10688 25.8667 4.10688 25.8667 4.16021C25.8134 4.21355 25.76 4.26688 25.76 4.32021ZM30.1334 5.97355C30.1334 6.13355 30.24 6.18688 30.4 6.29355L30.7734 6.72021C30.88 6.82688 30.88 6.77355 30.8267 6.98688C30.8267 7.04022 30.8267 7.09355 30.7734 7.14688C30.7734 7.25355 30.7734 7.36022 30.72 7.46688C30.72 7.57355 30.6667 7.73355 30.72 7.84021C30.72 7.84021 30.7734 7.89355 30.7734 7.94688C30.9867 8.05355 31.0934 7.94688 31.2534 7.84021L31.52 7.73355C32 7.46688 31.7867 7.52022 32.2667 7.73355L32.5867 7.94688C32.6934 7.94688 32.8 8.00022 32.9067 8.00022C32.96 7.94688 33.0667 7.89355 33.0667 7.78688C33.0667 7.68021 32.96 7.09355 32.96 6.98688C32.9067 6.77355 32.9067 6.82688 33.0667 6.61355L33.4934 6.24021C33.4934 6.18688 33.5467 6.13355 33.6 6.13355C33.6 6.08021 33.6534 6.02688 33.6534 5.97355C33.6534 5.86688 33.5467 5.76021 33.4934 5.76021C33.44 5.70688 33.2267 5.70688 33.12 5.70688L32.64 5.60021C32.5867 5.60021 32.5334 5.60021 32.48 5.54688L32.2667 5.01355C32.2134 4.96021 32.16 4.85355 32.1067 4.80022C32 4.58688 31.7334 4.58688 31.6267 4.80022L31.2534 5.54688C31.2534 5.60021 31.2 5.60021 31.1467 5.60021L30.6134 5.70688C30.56 5.70688 30.3467 5.70688 30.2934 5.70688C30.24 5.76021 30.24 5.76021 30.1867 5.81355C30.1334 5.86688 30.1334 5.92021 30.1334 5.97355Z" fill="white"/>
<path fill-rule="evenodd" clip-rule="evenodd" d="M22.08 18.9334C22.08 18.7734 22.1867 18.7201 22.2934 18.5601L22.72 18.1867C22.8267 18.0801 22.8267 18.0801 22.7734 17.9201C22.7734 17.8667 22.7734 17.8134 22.72 17.7601C22.72 17.6534 22.72 17.4934 22.6667 17.3867C22.6667 17.2801 22.6134 17.1734 22.6667 17.0667C22.6667 17.0667 22.72 17.0134 22.72 16.9601C22.88 16.8534 23.04 16.9601 23.2 17.0134L23.4667 17.1734C23.9467 17.3867 23.7334 17.3867 24.2134 17.1734L24.5334 16.9601C24.64 16.9601 24.7467 16.9067 24.8534 16.9067C24.9067 16.9601 25.0134 17.0134 25.0134 17.1201C25.0134 17.2267 24.9067 17.7601 24.9067 17.9201C24.8534 18.1334 24.8534 18.0801 25.0134 18.2934L25.44 18.6667C25.44 18.6667 25.4934 18.7201 25.5467 18.7734C25.5467 18.8267 25.6 18.8801 25.6 18.8801V18.9334C25.5467 19.0401 25.4934 19.1467 25.44 19.1467C25.3867 19.2001 25.1734 19.2001 25.0667 19.2001L24.5867 19.3067C24.5334 19.3067 24.48 19.3067 24.4267 19.3601L24.16 19.8401C24.16 19.9467 24.1067 20.0534 24.0534 20.1067C23.9467 20.3201 23.68 20.3201 23.5734 20.1067L23.2 19.3601C23.2 19.3067 23.1467 19.3067 23.0934 19.3067L22.56 19.2001C22.5067 19.2001 22.2934 19.2001 22.24 19.1467C22.1867 19.1467 22.1867 19.1467 22.1334 19.0934C22.08 19.0401 22.08 18.9867 22.08 18.9334ZM25.76 20.5867C25.76 20.3201 25.92 20.2667 26.08 20.1067L26.56 19.6267C26.6667 19.5201 26.6667 19.5201 26.6134 19.3067C26.6134 19.2001 26.6134 19.1467 26.56 19.0934C26.56 18.9334 26.56 18.8267 26.5067 18.7201C26.5067 18.5601 26.4534 18.4001 26.5067 18.2934C26.5067 18.2401 26.56 18.1867 26.56 18.1334C26.7734 17.9734 26.9867 18.1334 27.1467 18.2401L27.52 18.4001C28.0534 18.6667 27.7867 18.6667 28.3734 18.4001L28.8 18.1867C28.9067 18.1334 29.0134 18.0267 29.12 18.0801C29.2267 18.1334 29.3334 18.2401 29.3334 18.3467C29.3867 18.4534 29.2267 19.1467 29.2267 19.3067C29.1734 19.5734 29.12 19.5201 29.3867 19.7867L29.8667 20.2134C29.92 20.2667 29.9734 20.3201 29.9734 20.3734C30.0267 20.4267 30.0267 20.4801 30.0267 20.5334V20.5867C30.0267 20.6934 29.9734 20.8001 29.8667 20.8534C29.8134 20.8534 29.5467 20.9067 29.44 20.9067L28.8534 21.0134C28.7467 21.0134 28.6934 21.0134 28.64 21.0667L28.3734 21.7067C28.32 21.8134 28.2667 21.8667 28.2134 21.9734C28.0534 22.2401 27.7334 22.2401 27.6267 22.0267L27.1467 21.0667C27.0934 21.0134 27.0934 21.0134 26.9867 21.0134L26.4 20.9067C26.2934 20.9067 26.0267 20.8534 25.9734 20.8534C25.92 20.8001 25.8667 20.8001 25.8667 20.7467C25.8134 20.6934 25.76 20.6401 25.76 20.5867ZM30.1334 18.9334C30.1334 18.7734 30.24 18.7201 30.4 18.5601L30.7734 18.1867C30.88 18.0801 30.88 18.0801 30.8267 17.9201C30.8267 17.8667 30.8267 17.8134 30.7734 17.7601C30.7734 17.6534 30.7734 17.4934 30.72 17.3867C30.72 17.2801 30.6667 17.1734 30.72 17.0667C30.72 17.0667 30.7734 17.0134 30.7734 16.9601C30.9867 16.8534 31.0934 16.9601 31.2534 17.0134L31.52 17.1734C32 17.3867 31.7867 17.3867 32.2667 17.1734L32.5867 16.9601C32.6934 16.9601 32.8 16.9067 32.9067 16.9067C32.96 16.9601 33.0667 17.0134 33.0667 17.1201C33.0667 17.2267 32.96 17.7601 32.96 17.9201C32.9067 18.1334 32.9067 18.0801 33.0667 18.2934L33.4934 18.6667C33.4934 18.6667 33.5467 18.7201 33.6 18.7734C33.6 18.8267 33.6534 18.8801 33.6534 18.8801V18.9334C33.6534 19.0401 33.5467 19.1467 33.4934 19.1467C33.44 19.2001 33.2267 19.2001 33.12 19.2001L32.64 19.3067C32.5867 19.3067 32.5334 19.3067 32.48 19.3601L32.2667 19.8401C32.2134 19.9467 32.16 20.0534 32.1067 20.1067C32 20.3201 31.7334 20.3201 31.6267 20.1067L31.2534 19.3601C31.2534 19.3067 31.2 19.3067 31.1467 19.3067L30.6134 19.2001C30.56 19.2001 30.3467 19.2001 30.2934 19.1467C30.24 19.1467 30.24 19.1467 30.1867 19.0934C30.1334 19.0401 30.1334 18.9867 30.1334 18.9334Z" fill="white"/>
<path d="M24.8 11.2535C24.8 10.8802 24.48 10.6668 23.7867 10.6668C23.68 10.6668 23.4667 10.7202 23.2533 10.7202C22.9867 10.7735 22.8267 10.7735 22.72 10.7735C22.1867 10.7735 21.92 10.4535 21.92 9.81352C21.92 9.17352 22.6667 8.85352 24.2133 8.85352C25.2267 8.85352 25.9733 9.01352 26.4533 9.33352C26.9333 9.65352 27.2 10.0802 27.2 10.6135C27.2 11.3068 26.88 11.8935 26.24 12.3202C26.6667 12.5868 26.9867 12.8002 27.1467 13.0668C27.3067 13.2802 27.4133 13.6535 27.4133 14.1335C27.4133 14.7735 27.1467 15.3068 26.6667 15.6802C26.1333 16.1068 25.44 16.3202 24.64 16.3202C23.5733 16.3202 22.7733 16.1602 22.3467 15.9468C21.8667 15.7335 21.6533 15.4135 21.6533 14.9868C21.6533 14.6135 21.7067 14.3468 21.8667 14.2402C22.0267 14.0802 22.1867 14.0268 22.4533 14.0268C22.6133 14.0268 22.8267 14.0268 23.0933 14.0802C23.36 14.0802 23.5733 14.0802 23.7333 14.0802C24.5333 14.0802 24.96 13.9735 24.96 13.6535C24.96 13.4402 24.8533 13.3335 24.6933 13.2268C24.5333 13.1735 24.2667 13.1202 23.84 13.1202C23.4133 13.1202 23.0933 13.0668 22.9333 12.9602C22.7733 12.8535 22.6667 12.6402 22.6667 12.3202C22.6667 11.8935 22.9867 11.6802 23.5733 11.6802C23.9467 11.6802 24.2667 11.6268 24.4267 11.6268C24.64 11.5735 24.7467 11.5202 24.7467 11.4668C24.8 11.4135 24.8 11.3602 24.8 11.2535ZM33.12 11.0935C32.96 10.9868 32.6933 10.9335 32.32 10.9335H29.7067C29.6533 10.9335 29.5467 10.9335 29.4933 10.9868C29.2267 10.9868 29.0133 11.0935 28.9067 11.3068C28.6933 11.5202 28.5867 11.8402 28.5867 12.2135V14.9335C28.5867 15.4135 28.6933 15.7335 28.8533 15.9468C29.0133 16.1068 29.28 16.2135 29.7067 16.2135C30.1867 16.2135 30.5067 16.1602 30.72 16.0002C30.88 15.7868 30.9867 15.4668 30.9867 15.0402V12.3202H32.16C32.5867 12.3202 32.9067 12.2668 33.0667 12.1602C33.28 12.1068 33.3867 11.9468 33.3867 11.6802C33.3867 11.4135 33.28 11.2002 33.12 11.0935ZM32.5333 15.4668C32.5333 15.2002 32.64 14.9868 32.8533 14.8802C33.0667 14.7202 33.3333 14.6135 33.76 14.6135C34.56 14.6135 34.9333 14.8802 34.9333 15.4668C34.9333 15.6802 34.88 15.8402 34.7733 16.0002C34.6667 16.1068 34.56 16.2135 34.4 16.2668C34.1867 16.2668 33.9733 16.3202 33.76 16.3202C33.3867 16.3202 33.12 16.2668 32.8533 16.1068C32.64 16.0002 32.5333 15.7868 32.5333 15.4668Z" fill="white"/>
</g>
<defs>
<clipPath id="clip0_6033_29229">
<rect width="40" height="40" fill="white"/>
</clipPath>
</defs>
</svg>
