<svg width="40" height="40" viewBox="0 0 40 40" fill="none" xmlns="http://www.w3.org/2000/svg">
<g clip-path="url(#clip0_6033_29317)">
<path fill-rule="evenodd" clip-rule="evenodd" d="M20 40C31.04 40 40 31.04 40 20C40 8.96 31.04 0 20 0C8.96 0 0 8.96 0 20C0 31.04 8.96 40 20 40Z" fill="#F25C6E"/>
<path fill-rule="evenodd" clip-rule="evenodd" d="M26.3467 37.3335L31.9467 31.6802H28.96C27.52 31.6802 26.3467 32.8535 26.3467 34.3468V37.3335Z" fill="#95A5CC"/>
<path fill-rule="evenodd" clip-rule="evenodd" d="M26.3467 34.3464C26.6667 32.9064 29.0133 33.1198 28.96 31.6798L28.64 19.9998V8.10645H0V19.9998V20.4264V20.5864C0.266667 29.4931 6.34667 36.9064 14.56 39.2531L25.6533 37.3864L26.3467 34.3464Z" fill="#D9E2F7"/>
<path fill-rule="evenodd" clip-rule="evenodd" d="M0 8.10671H28.64V5.70671C28.64 4.21337 27.4667 3.04004 25.9733 3.04004C22.88 3.04004 12.6933 3.04004 2.66667 3.04004C1.22667 3.04004 0 4.21337 0 5.70671V8.10671Z" fill="#00A390"/>
<path fill-rule="evenodd" clip-rule="evenodd" d="M14.3467 8.10645V39.1998C16.1067 39.7331 18.0267 39.9998 20 39.9998C22.24 39.9998 24.3733 39.6264 26.3467 38.9864V34.3464C26.3467 32.8531 30.4 31.6798 28.96 31.6798H28.64V8.10645H14.3467Z" fill="#F2F6FF"/>
<path fill-rule="evenodd" clip-rule="evenodd" d="M14.3467 8.10671H28.64V5.70671C28.64 4.21337 27.4667 3.04004 25.9733 3.04004C20.8 3.04004 19.6267 3.04004 14.3467 3.04004V8.10671Z" fill="#5FCFC2"/>
<path fill-rule="evenodd" clip-rule="evenodd" d="M5.81331 0C6.45331 0 6.93331 0.533333 6.93331 1.12V4.96C6.93331 5.54667 6.45331 6.02667 5.81331 6.02667C5.22664 6.02667 4.74664 5.54667 4.74664 4.96V1.12C4.74664 0.533333 5.22664 0 5.81331 0Z" fill="#2E427D"/>
<path fill-rule="evenodd" clip-rule="evenodd" d="M11.4133 0C12.0533 0 12.5333 0.533333 12.5333 1.12V4.96C12.5333 5.54667 12.0533 6.02667 11.4133 6.02667C10.8267 6.02667 10.3467 5.54667 10.3467 4.96V1.12C10.3467 0.533333 10.8267 0 11.4133 0Z" fill="#2E427D"/>
<path fill-rule="evenodd" clip-rule="evenodd" d="M17.0133 0C17.6 0 18.1333 0.533333 18.1333 1.12V4.96C18.1333 5.54667 17.6 6.02667 17.0133 6.02667C16.4266 6.02667 15.8933 5.54667 15.8933 4.96V1.12C15.8933 0.533333 16.4266 0 17.0133 0Z" fill="#2E427D"/>
<path fill-rule="evenodd" clip-rule="evenodd" d="M22.6133 0C23.2 0 23.7333 0.533333 23.7333 1.12V4.96C23.7333 5.54667 23.2 6.02667 22.6133 6.02667C21.9733 6.02667 21.4933 5.54667 21.4933 4.96V1.12C21.4933 0.533333 21.9733 0 22.6133 0Z" fill="#2E427D"/>
<path fill-rule="evenodd" clip-rule="evenodd" d="M15.0933 11.6265H19.2533V15.7331H15.0933V11.6265Z" fill="#CC99CC"/>
<path fill-rule="evenodd" clip-rule="evenodd" d="M9.44 11.6265H13.6V15.7331H9.44V11.6265Z" fill="#CC99CC"/>
<path fill-rule="evenodd" clip-rule="evenodd" d="M20.7466 11.6265H24.9066V15.7331H20.7466V11.6265Z" fill="#CC99CC"/>
<path fill-rule="evenodd" clip-rule="evenodd" d="M3.78668 17.9731H7.94668V22.0798H3.78668V17.9731Z" fill="#CC99CC"/>
<path fill-rule="evenodd" clip-rule="evenodd" d="M3.78668 24.2666H7.94668V28.4266H3.78668V24.2666Z" fill="#CC99CC"/>
<path fill-rule="evenodd" clip-rule="evenodd" d="M15.0933 17.9731H19.2533V22.0798H15.0933V17.9731Z" fill="#CC99CC"/>
<path fill-rule="evenodd" clip-rule="evenodd" d="M15.0933 24.2666H19.2533V28.4266H15.0933V24.2666Z" fill="#CC99CC"/>
<path fill-rule="evenodd" clip-rule="evenodd" d="M9.44 17.9731H13.6V22.0798H9.44V17.9731Z" fill="#CC99CC"/>
<path fill-rule="evenodd" clip-rule="evenodd" d="M9.44 24.2666H13.6V28.4266H9.44V24.2666Z" fill="#CC99CC"/>
<path fill-rule="evenodd" clip-rule="evenodd" d="M20.7466 17.9731H24.9066V22.0798H20.7466V17.9731Z" fill="#CC99CC"/>
<path fill-rule="evenodd" clip-rule="evenodd" d="M25.12 17.9199H29.2267V22.0799H25.12V17.9199Z" fill="#9DA3C4"/>
<path fill-rule="evenodd" clip-rule="evenodd" d="M26.72 25.9202C27.2 26.4002 27.4667 27.0402 27.4667 27.7335C27.4667 28.3735 27.2 29.0135 26.72 29.4935C26.72 29.4935 26.72 29.5469 26.6667 29.5469C25.6 30.6669 24.9067 32.1602 24.9067 33.8669V37.3869H29.8667L29.9733 37.3335H30.0267L30.24 37.1735L30.3467 37.1202H30.4V37.0669L30.72 36.9069L30.88 36.8002L31.0933 36.6402L31.2533 36.5335L31.36 36.4802L31.52 36.3202H31.5733L31.6267 36.2669L31.84 36.1069L31.9467 36.0535V36.0002L32.0533 35.9469L32.2667 35.7869L32.3733 35.7335V35.6802L32.6933 35.4669L32.7467 35.4135L32.8533 35.3602L33.0667 35.1469L33.1733 35.0402L33.44 34.8269L33.4933 34.7735L33.76 34.5069L33.8133 34.4535L33.92 34.4002L34.0267 34.2935L34.1333 34.1869L34.1867 34.0802L34.4533 33.8135L34.5067 33.7602L34.7733 33.4935L34.8267 33.4402L35.1467 33.0669C35.2 32.9602 35.3067 32.8535 35.4133 32.7469L35.4667 32.6935L35.7333 32.3735L36 32.0002V31.9469H36.0533C36.2133 31.7335 36.4267 31.4669 36.5867 31.2002C36.2667 30.5602 35.8933 30.0269 35.4133 29.5469L35.36 29.4935C34.9333 29.0135 34.6133 28.3735 34.6133 27.7335C34.6133 27.0402 34.9333 26.4002 35.36 25.9202L35.4133 25.8669C36.5333 24.7469 37.1733 23.2535 37.1733 21.5469V18.0269H24.9067V21.5469C24.9067 23.2535 25.6 24.7469 26.6667 25.8669C26.72 25.8669 26.72 25.9202 26.72 25.9202Z" fill="#D9E2F7"/>
<path fill-rule="evenodd" clip-rule="evenodd" d="M31.04 18.0267H24.8H23.6267H23.5733H23.52C23.1467 18.0267 22.88 17.8134 22.72 17.5467C22.56 17.3334 22.5067 17.1201 22.5067 16.8534C22.5067 16.6401 22.56 16.4267 22.6667 16.2134C22.88 15.9467 23.1467 15.7334 23.52 15.7334H23.5733H23.6267H24.8H31.04V18.0267Z" fill="#782509"/>
<path fill-rule="evenodd" clip-rule="evenodd" d="M37.1733 18.0269H31.04V20.8002H34.6666V21.5469C34.6666 22.5069 34.2933 23.4135 33.6 24.1069L33.5466 24.2135C32.64 25.1202 32.1066 26.4002 32.1066 27.7335C32.1066 29.0135 32.64 30.2935 33.5466 31.2002L33.6 31.3069C34.24 31.9469 34.6133 32.7469 34.6666 33.6002L34.72 33.5469L34.9333 33.3335V33.2802L34.9866 33.2269H35.04L35.2533 32.9602V32.9069L35.3066 32.8535L35.36 32.8002L35.4133 32.7469L35.4666 32.6402H35.52V32.5869L35.5733 32.5335H35.6266V32.4802L35.68 32.4269V32.3735H35.7333V32.3202L35.7866 32.2669H35.84L36 32.0002V31.9469H36.0533L36.32 31.5735V31.5202L36.5333 31.2535L36.5866 31.2002C36.2666 30.5602 35.8933 30.0269 35.4133 29.5469L35.36 29.4935C34.9333 29.0135 34.6133 28.3735 34.6133 27.7335C34.6133 27.0402 34.9333 26.4002 35.36 25.9202L35.4133 25.8669C36.5333 24.7469 37.1733 23.2535 37.1733 21.5469V18.0269ZM33.6533 34.6135H31.04V36.6935L31.0933 36.6402L31.2533 36.5335L31.3066 36.4802H31.36L31.4133 36.4269L31.4666 36.3735H31.52L31.5733 36.3202L31.6266 36.2669L31.68 36.2135H31.7333L31.7866 36.1602L31.84 36.1069L31.8933 36.0535H31.9466L32 36.0002H32.0533V35.9469L32.1066 35.8935H32.16L32.2133 35.8402H32.2666V35.7869L32.32 35.7335H32.3733L32.4266 35.6802L32.48 35.6269L32.5333 35.5735H32.5866V35.5202L32.64 35.4669H32.6933L32.8 35.3602L32.8533 35.3069H32.9066L32.96 35.2535V35.2002H33.0133L33.12 35.0935L33.1733 35.0402H33.2266V34.9869L33.28 34.9335H33.3333L33.3866 34.8802L33.4933 34.7735L33.5466 34.7202L33.6 34.6669L33.6533 34.6135Z" fill="#EDF2FF"/>
<path fill-rule="evenodd" clip-rule="evenodd" d="M32.1067 27.7334C32.1067 29.0134 32.64 30.2934 33.5467 31.2001C33.6 31.2534 33.6 31.3067 33.6 31.3067C34.24 31.9467 34.6133 32.7467 34.6667 33.6001L34.6133 33.6534L34.56 33.7067L34.3467 33.9734H34.2933L34.24 34.0267L34.08 34.2401H34.0267V34.2934H33.9733L33.92 34.3467L33.8667 34.4001L33.7067 34.5601L33.6533 34.6134L33.6 34.6667L33.5467 34.7201L33.4933 34.7734L33.3867 34.8267V34.8801H33.3333L33.28 34.9334L33.1733 35.0401V35.0934H33.12L33.0667 35.1467L33.0133 35.2001L32.8 35.3601V35.4134H32.7467H27.4133V33.8667C27.4133 32.9067 27.7867 32.0001 28.4267 31.3601C28.48 31.3067 28.5333 31.2534 28.5333 31.2001C29.44 30.2934 29.9733 29.0134 29.9733 27.7334H32.1067Z" fill="#F0B800"/>
<path fill-rule="evenodd" clip-rule="evenodd" d="M31.04 27.7334V35.4134H32.7466H32.8V35.3601L33.0133 35.2001L33.0666 35.1467L33.12 35.0934H33.1733V35.0401L33.3866 34.8801V34.8267H33.44L33.4933 34.7734L33.5466 34.7201L33.6 34.6667L33.6533 34.6134L33.7066 34.5601L33.8666 34.4001L33.92 34.3467L33.9733 34.2934H34.0266V34.2401H34.08L34.24 34.0267L34.2933 33.9734H34.3466L34.56 33.7067L34.6133 33.6534L34.6666 33.6001C34.6133 32.7467 34.24 31.9467 33.6 31.3067L33.5466 31.2001C32.64 30.2934 32.1066 29.0134 32.1066 27.7334H31.04Z" fill="#FFE019"/>
<path fill-rule="evenodd" clip-rule="evenodd" d="M32.1067 27.7333C32.1067 26.4 32.64 25.12 33.5467 24.2133C33.6 24.16 33.6 24.1067 33.6 24.1067C34.2933 23.4133 34.6667 22.5067 34.6667 21.5467V20H27.4133V21.5467C27.4133 22.5067 27.7867 23.4133 28.4267 24.0533C28.48 24.1067 28.5333 24.16 28.5333 24.2133C29.44 25.12 29.9733 26.4 29.9733 27.7333H32.1067Z" fill="#F0B800"/>
<path fill-rule="evenodd" clip-rule="evenodd" d="M31.04 27.7333V20H34.6666V21.5467C34.6666 22.5067 34.2933 23.4133 33.6 24.1067L33.5466 24.2133C32.64 25.12 32.1066 26.4 32.1066 27.7333H31.04Z" fill="#FFE019"/>
<path fill-rule="evenodd" clip-rule="evenodd" d="M31.04 18.0267H37.3333H38.4533H38.5066H38.56C38.9333 18.0267 39.2 17.8134 39.4133 17.5467C39.52 17.3334 39.6266 17.1201 39.6266 16.8534C39.6266 16.6401 39.52 16.4267 39.4133 16.2134C39.2533 15.9467 38.9333 15.7334 38.56 15.7334H38.5066H38.4533H37.3333H31.04V18.0267Z" fill="#A14F34"/>
<path fill-rule="evenodd" clip-rule="evenodd" d="M23.84 39.6268H23.6267H23.5733H23.52C23.1467 39.5735 22.88 39.4135 22.72 39.1468C22.56 38.9335 22.5067 38.7202 22.5067 38.4535C22.5067 38.2402 22.56 38.0268 22.6667 37.8135C22.88 37.5468 23.1467 37.3335 23.52 37.3335H23.5733H23.6267H24.8H29.9733C28.1067 38.4002 26.08 39.2002 23.84 39.6268Z" fill="#782509"/>
<path fill-rule="evenodd" clip-rule="evenodd" d="M20.7466 24.2666H24.9066V28.4266H20.7466V24.2666Z" fill="#CC99CC"/>
<path fill-rule="evenodd" clip-rule="evenodd" d="M3.78668 30.6133H7.94668V34.7199H6.45335C5.49335 33.8133 4.58668 32.7999 3.78668 31.6799V30.6133Z" fill="#CC99CC"/>
<path fill-rule="evenodd" clip-rule="evenodd" d="M15.0933 30.6133H19.2533V34.7199H15.0933V30.6133Z" fill="#CC99CC"/>
<path fill-rule="evenodd" clip-rule="evenodd" d="M9.44 30.6133H13.6V34.7199H9.44V30.6133Z" fill="#CC99CC"/>
<path fill-rule="evenodd" clip-rule="evenodd" d="M16.8533 14.88L25.12 23.1467C26.6133 24.64 29.0667 24.64 30.56 23.1467L38.88 14.88C40.3733 13.3867 40.3733 10.9333 38.88 9.44L30.56 1.12C29.0667 -0.373333 26.6133 -0.373333 25.12 1.12L16.8533 9.44C15.36 10.9333 15.36 13.3867 16.8533 14.88Z" fill="#E09143"/>
<path fill-rule="evenodd" clip-rule="evenodd" d="M16.8533 14.88L25.12 23.1467C25.8667 23.8933 26.88 24.2667 27.84 24.2667V0C26.88 0 25.8667 0.373333 25.12 1.12L16.8533 9.44C15.36 10.9333 15.36 13.3867 16.8533 14.88Z" fill="#CC7B25"/>
<path fill-rule="evenodd" clip-rule="evenodd" d="M25.6 19.1466C25.6 19.36 25.76 19.4133 25.92 19.5733L26.4 20.1066C26.56 20.2133 26.56 20.2133 26.5066 20.48C26.5066 20.5333 26.4533 20.5866 26.4533 20.6933C26.4533 20.8 26.4 20.96 26.4 21.12C26.3466 21.2266 26.3466 21.3866 26.3466 21.4933C26.3466 21.5466 26.4 21.6533 26.4533 21.6533C26.6666 21.8133 26.88 21.6533 27.04 21.5466L27.4133 21.3866C28 21.12 27.7333 21.12 28.32 21.3866L28.8 21.6533C28.9066 21.7066 29.0133 21.76 29.1733 21.7066C29.28 21.7066 29.3333 21.6 29.3866 21.4933C29.3866 21.3333 29.2266 20.64 29.2266 20.48C29.1733 20.16 29.12 20.2133 29.3866 19.9466L29.92 19.4666C29.92 19.4666 30.0266 19.4133 30.0266 19.36C30.08 19.3066 30.08 19.2533 30.08 19.2V19.1466C30.08 18.9866 30.0266 18.88 29.8666 18.8266C29.8133 18.8266 29.5466 18.7733 29.4933 18.7733L28.8 18.6666C28.7466 18.6666 28.6933 18.6666 28.64 18.6133L28.32 17.9733C28.2666 17.8666 28.2133 17.76 28.16 17.6C28 17.3333 27.68 17.3866 27.5733 17.6L27.04 18.6133C27.04 18.6666 26.9866 18.6666 26.88 18.6666L26.24 18.7733C26.1866 18.7733 25.8666 18.8266 25.8133 18.8266C25.76 18.88 25.7066 18.88 25.6533 18.9333C25.6533 18.9866 25.6 19.04 25.6 19.1466ZM25.6 3.99997C25.6 4.26664 25.76 4.31997 25.92 4.47997L26.4 4.95997C26.56 5.11997 26.56 5.11997 26.5066 5.33331C26.5066 5.43997 26.4533 5.49331 26.4533 5.54664C26.4533 5.70664 26.4 5.86664 26.4 5.97331C26.3466 6.13331 26.3466 6.29331 26.3466 6.39997C26.3466 6.45331 26.4 6.50664 26.4533 6.55997C26.6666 6.71997 26.88 6.55997 27.04 6.45331L27.4133 6.29331C28 5.97331 27.7333 5.97331 28.32 6.29331L28.8 6.55997C28.9066 6.61331 29.0133 6.66664 29.1733 6.61331C29.28 6.55997 29.3333 6.45331 29.3866 6.34664C29.3866 6.23997 29.2266 5.49331 29.2266 5.33331C29.1733 5.06664 29.12 5.11997 29.3866 4.85331L29.92 4.37331C29.92 4.31997 30.0266 4.26664 30.0266 4.26664C30.08 4.21331 30.08 4.10664 30.08 4.05331V3.99997C30.08 3.89331 30.0266 3.78664 29.8666 3.73331C29.8133 3.73331 29.5466 3.67997 29.4933 3.67997L28.8 3.57331C28.7466 3.57331 28.6933 3.57331 28.64 3.51997L28.32 2.82664C28.2666 2.71997 28.2133 2.61331 28.16 2.50664C28 2.23997 27.68 2.23997 27.5733 2.50664L27.04 3.51997C27.04 3.57331 26.9866 3.57331 26.88 3.57331L26.24 3.67997C26.1866 3.67997 25.8666 3.73331 25.8133 3.73331C25.76 3.73331 25.7066 3.78664 25.6533 3.83997C25.6533 3.89331 25.6 3.94664 25.6 3.99997Z" fill="white"/>
<path d="M21.0667 11.0933C21.44 10.9867 21.8667 10.9333 22.24 10.9333C22.72 10.9333 23.1467 11.04 23.52 11.2C23.8933 11.4133 24.2133 11.6267 24.4267 12C24.64 12.32 24.7467 12.6933 24.7467 13.12C24.7467 13.6533 24.64 14.1867 24.3733 14.56C24.16 14.9867 23.7867 15.3067 23.36 15.52C22.9333 15.7333 22.4533 15.84 21.92 15.84C21.4933 15.84 21.0667 15.7867 20.7467 15.68C20.3733 15.6267 20.0533 15.4667 19.84 15.2533C19.5733 15.0933 19.36 14.88 19.2 14.6667C19.04 14.4533 18.9333 14.1867 18.8267 13.8667C18.72 13.6 18.6667 13.3333 18.6133 13.0667C18.56 12.7467 18.56 12.48 18.56 12.2133C18.56 11.5733 18.6133 10.9867 18.7733 10.5067C18.9333 10.0267 19.1467 9.6 19.4667 9.17333C19.7333 8.8 20.16 8.53333 20.6933 8.32C21.1733 8.10667 21.8133 8 22.5067 8C23.0933 8 23.6267 8.10667 24.0533 8.37333C24.48 8.64 24.6933 9.01333 24.6933 9.38667C24.6933 9.65333 24.5867 9.92 24.4267 10.08C24.2667 10.2933 24.0533 10.4 23.7867 10.4C23.6267 10.4 23.4667 10.3467 23.1467 10.24C22.88 10.08 22.6133 10.0267 22.4 10.0267C22.08 10.0267 21.8133 10.1333 21.5467 10.3467C21.28 10.56 21.12 10.8267 21.0667 11.0933ZM22.4 13.28C22.4 12.96 22.3467 12.6933 22.24 12.4267C22.1333 12.16 22.0267 12.0533 21.8133 12.0533C21.6533 12.0533 21.4933 12.16 21.3867 12.4267C21.28 12.6933 21.2267 12.96 21.2267 13.28C21.2267 13.6 21.28 13.8667 21.3867 14.08C21.4933 14.3467 21.6 14.4533 21.8133 14.4533C22.0267 14.4533 22.1333 14.3467 22.24 14.08C22.3467 13.8667 22.4 13.6 22.4 13.28ZM33.3867 10.56C33.12 10.4 32.8 10.2933 32.3733 10.2933C32.0533 10.2933 31.7867 10.4 31.5733 10.6667L31.52 10.72C31.36 10.8267 31.2533 10.9867 31.04 11.2533L29.9733 12.5867L28.8533 11.2C28.7467 11.0933 28.6933 10.9867 28.5867 10.88C28.5333 10.7733 28.4267 10.72 28.3733 10.6667L28.2667 10.56C28 10.4 27.68 10.2933 27.3067 10.2933C26.9333 10.2933 26.6667 10.4 26.4533 10.6667C26.24 10.88 26.1333 11.2 26.1333 11.5733V14.4C26.1333 14.88 26.24 15.2533 26.4 15.4667C26.56 15.68 26.8267 15.7333 27.3067 15.7333C27.7867 15.7333 28.1067 15.68 28.32 15.52C28.48 15.3067 28.5867 14.9867 28.5867 14.5067V13.7067L29.12 14.3467C29.28 14.6133 29.6 14.72 29.9733 14.7733C30.3467 14.7733 30.6133 14.6133 30.8267 14.3467L31.2533 13.8133V14.4C31.2533 14.88 31.3067 15.2533 31.52 15.4667C31.68 15.68 31.9467 15.7333 32.4267 15.7333C32.9067 15.7333 33.2267 15.68 33.44 15.52C33.6 15.3067 33.7067 14.9867 33.7067 14.5067V11.5733C33.7067 11.0933 33.6 10.7733 33.3867 10.56ZM34.24 14.9333C34.24 14.72 34.3467 14.5067 34.56 14.3467C34.7733 14.1867 35.0933 14.08 35.52 14.08C36.32 14.08 36.7467 14.4 36.7467 14.9333C36.7467 15.2 36.6933 15.36 36.5867 15.4667C36.48 15.6267 36.32 15.7333 36.16 15.7333C36 15.7867 35.7867 15.84 35.52 15.84C35.1467 15.84 34.8267 15.7333 34.6133 15.6267C34.3467 15.4667 34.24 15.2533 34.24 14.9333Z" fill="white"/>
</g>
<defs>
<clipPath id="clip0_6033_29317">
<rect width="40" height="40" fill="white"/>
</clipPath>
</defs>
</svg>
