<svg width="28" height="28" viewBox="0 0 28 28" fill="none" xmlns="http://www.w3.org/2000/svg">
<g clip-path="url(#clip0_575_58)">
<path d="M7.48034 0.0116882H20.547C24.6707 0.0116882 28.0137 3.35463 28.0137 7.47836V20.545C28.0137 24.6687 24.6707 28.0117 20.547 28.0117H7.48034C3.35661 28.0117 0.0136719 24.6687 0.0136719 20.545V7.47836C0.0136717 3.35463 3.35661 0.0116882 7.48034 0.0116882Z" fill="#0077FF"/>
<path d="M14.0133 3.43391C19.8423 3.43391 24.5911 8.18275 24.5911 14.0117C24.5911 17.6431 22.8964 19.3565 20.7548 19.3565C19.5071 19.3565 18.4269 18.7046 17.8124 17.7363C16.844 18.7233 15.5031 19.3378 14.0133 19.3378C11.0709 19.3378 8.6872 16.9541 8.6872 14.0117C8.6872 11.0693 11.0709 8.68556 14.0133 8.68556C16.9557 8.68556 19.3395 11.0693 19.3395 14.0117V15.7436C19.3395 16.6189 19.954 17.2334 20.7548 17.2334C21.7046 17.2334 22.4867 16.4327 22.4867 14.0117C22.4867 9.33737 18.6876 5.5383 14.0133 5.5383C9.339 5.5383 5.53993 9.33737 5.53993 14.0117C5.53993 18.686 9.339 22.4851 14.0133 22.4851C16.7136 22.4851 18.5759 21.1443 18.5759 21.1443L19.9726 22.7458C19.9726 22.7458 17.5889 24.5895 14.0133 24.5895C8.18438 24.5895 3.43555 19.8406 3.43555 14.0117C3.43555 8.18275 8.18438 3.43391 14.0133 3.43391ZM10.7916 14.0117C10.7916 15.7809 12.2255 17.2334 14.0133 17.2334C15.7825 17.2334 17.2351 15.7809 17.2351 14.0117C17.2351 12.2239 15.7825 10.79 14.0133 10.79C12.2255 10.79 10.7916 12.2239 10.7916 14.0117Z" fill="white"/>
</g>
<defs>
<clipPath id="clip0_575_58">
<rect width="28" height="28" fill="white"/>
</clipPath>
</defs>
</svg>
