<svg width="28" height="28" viewBox="0 0 28 28" fill="none" xmlns="http://www.w3.org/2000/svg">
<path d="M0 13.4393C0 7.10718 0 3.92462 1.9623 1.96231C3.9411 1.57261e-07 7.10718 0 13.4393 0H14.5607C20.8928 0 24.0754 1.57261e-07 26.0377 1.96231C28 3.92462 28 7.10718 28 13.4393V14.5607C28 20.8928 28 24.0754 26.0377 26.0377C24.0754 28 20.8928 28 14.5607 28H13.4393C7.10718 28 3.92461 28 1.9623 26.0377C0 24.0754 0 20.9093 0 14.5607V13.4393Z" fill="#FF7700"/>
<path d="M13.9997 13.934C15.3684 13.934 16.6051 13.3734 17.4956 12.4829C18.3861 11.5925 18.9467 10.3557 18.9467 8.98704C18.9467 7.61837 18.3861 6.38162 17.4956 5.49116C16.6051 4.6007 15.3684 4.04004 13.9997 4.04004C12.631 4.04004 11.3943 4.6007 10.5039 5.49116C9.61339 6.38162 9.05273 7.61837 9.05273 8.98704C9.05273 10.3557 9.61339 11.5925 10.5039 12.4829C11.3943 13.3734 12.6475 13.934 13.9997 13.934ZM12.4167 7.38751C12.8289 6.97526 13.3896 6.72791 13.9997 6.72791C14.6263 6.72791 15.187 6.97526 15.5828 7.38751C15.995 7.79976 16.2424 8.36042 16.2424 8.97055C16.2424 9.59716 15.995 10.1578 15.5828 10.5536C15.1705 10.9658 14.6098 11.2132 13.9997 11.2132C13.3731 11.2132 12.8124 10.9658 12.4167 10.5536C12.0044 10.1413 11.7571 9.58067 11.7571 8.97055C11.7571 8.36042 12.0209 7.79976 12.4167 7.38751Z" fill="white"/>
<path d="M20.6615 15.9293L19.2104 13.9505C19.1279 13.8351 18.963 13.8186 18.8641 13.9176C17.4954 15.0883 15.8134 15.8469 13.9995 15.8469C12.1856 15.8469 10.5037 15.0883 9.13498 13.9176C9.03604 13.8351 8.87114 13.8516 8.78869 13.9505L7.33758 15.9293C7.27162 16.0283 7.28811 16.1602 7.37056 16.2426C8.59081 17.232 10.009 17.9081 11.4931 18.2544L8.42591 23.6631C8.34346 23.8115 8.45889 24.0094 8.62379 24.0094H11.625C11.7239 24.0094 11.8064 23.96 11.8393 23.861L13.983 19.0789L16.1267 23.861C16.1597 23.9435 16.2422 24.0094 16.3411 24.0094H19.3423C19.5237 24.0094 19.6226 23.828 19.5402 23.6631L16.473 18.2544C17.9571 17.9081 19.3753 17.2485 20.5955 16.2426C20.7274 16.1602 20.7439 16.0283 20.6615 15.9293Z" fill="white"/>
</svg>
