<svg width="28" height="28" viewBox="0 0 28 28" fill="none" xmlns="http://www.w3.org/2000/svg">
<g clip-path="url(#clip0_575_50)">
<mask id="mask0_575_50" style="mask-type:luminance" maskUnits="userSpaceOnUse" x="0" y="0" width="28" height="28">
<path d="M27.8614 0H0.138672V28H27.8614V0Z" fill="white"/>
</mask>
<g mask="url(#mask0_575_50)">
<path d="M0.138672 13.44C0.138672 7.10433 0.138672 3.93649 2.08743 1.96824C4.03619 0 7.17266 0 13.4456 0H14.5545C20.8275 0 23.9639 0 25.9127 1.96824C27.8614 3.93649 27.8614 7.10433 27.8614 13.44V14.56C27.8614 20.8957 27.8614 24.0635 25.9127 26.0318C23.9639 28 20.8275 28 14.5545 28H13.4456C7.17266 28 4.03619 28 2.08743 26.0318C0.138672 24.0635 0.138672 20.8957 0.138672 14.56V13.44Z" fill="#0077FF"/>
<path d="M14.89 20.1718C8.57149 20.1718 4.96756 15.7968 4.81738 8.51675H7.98241C8.08637 13.8601 10.4197 16.1234 12.2678 16.5901V8.51675H15.2481V13.125C17.0732 12.9267 18.9905 10.8268 19.6373 8.51675H22.6176C22.1209 11.3634 20.0417 13.4634 18.5632 14.3267C20.0417 15.0267 22.4098 16.8584 23.3108 20.1718H20.0302C19.3255 17.9551 17.5699 16.2401 15.2481 16.0067V20.1718H14.89Z" fill="white"/>
</g>
</g>
<defs>
<clipPath id="clip0_575_50">
<rect width="28" height="28" fill="white"/>
</clipPath>
</defs>
</svg>
