<svg width="28" height="28" viewBox="0 0 28 28" fill="none" xmlns="http://www.w3.org/2000/svg">
<g clip-path="url(#clip0_575_67)">
<mask id="mask0_575_67" style="mask-type:luminance" maskUnits="userSpaceOnUse" x="0" y="0" width="28" height="28">
<path d="M27.8614 0H0.138672V28H27.8614V0Z" fill="white"/>
</mask>
<g mask="url(#mask0_575_67)">
<path d="M0.138672 13.44C0.138672 7.10433 0.138672 3.93649 2.08743 1.96824C4.03619 0 7.17266 0 13.4456 0H14.5545C20.8275 0 23.9639 0 25.9127 1.96824C27.8614 3.93649 27.8614 7.10433 27.8614 13.44V14.56C27.8614 20.8957 27.8614 24.0635 25.9127 26.0318C23.9639 28 20.8275 28 14.5545 28H13.4456C7.17266 28 4.03619 28 2.08743 26.0318C0.138672 24.0635 0.138672 20.8957 0.138672 14.56V13.44Z" fill="#FC3F1D"/>
</g>
<path d="M17.3371 24H21V4H15.6687C10.3069 4 7.49454 6.614 7.49454 10.4755C7.49454 13.809 9.31785 15.6885 12.5476 17.73L14.51 18.9635L11.9911 16.9515L7 24H10.971L16.3029 16.423L14.4486 15.248C12.2079 13.809 11.1107 12.693 11.1107 10.27C11.1107 8.141 12.6873 6.702 15.6844 6.702H17.3224V24H17.3382H17.3371Z" fill="white"/>
</g>
<defs>
<clipPath id="clip0_575_67">
<rect width="28" height="28" fill="white"/>
</clipPath>
</defs>
</svg>
