<svg width="40" height="40" viewBox="0 0 40 40" fill="none" xmlns="http://www.w3.org/2000/svg">
<g clip-path="url(#clip0_6033_29273)">
<path fill-rule="evenodd" clip-rule="evenodd" d="M20 40C31.04 40 40 31.04 40 20C40 8.96 31.04 0 20 0C8.96 0 0 8.96 0 20C0 31.04 8.96 40 20 40Z" fill="#F25C6E"/>
<path fill-rule="evenodd" clip-rule="evenodd" d="M26.3467 37.3335L31.9467 31.6802H28.96C27.52 31.6802 26.3467 32.8535 26.3467 34.3468V37.3335Z" fill="#95A5CC"/>
<path fill-rule="evenodd" clip-rule="evenodd" d="M26.3467 34.3464C26.6667 32.9064 29.0133 33.1198 28.96 31.6798L28.64 19.9998V8.10645H0V19.9998V20.4264V20.5864C0.266667 29.4931 6.34667 36.9064 14.56 39.2531L25.6533 37.3864L26.3467 34.3464Z" fill="#D9E2F7"/>
<path fill-rule="evenodd" clip-rule="evenodd" d="M0 8.10671H28.64V5.70671C28.64 4.21337 27.4667 3.04004 25.9733 3.04004C22.88 3.04004 12.6933 3.04004 2.66667 3.04004C1.22667 3.04004 0 4.21337 0 5.70671V8.10671Z" fill="#00A390"/>
<path fill-rule="evenodd" clip-rule="evenodd" d="M14.3467 8.10645V39.1998C16.1067 39.7331 18.0267 39.9998 20 39.9998C22.24 39.9998 24.3733 39.6264 26.3467 38.9864V34.3464C26.3467 32.8531 30.4 31.6798 28.96 31.6798H28.64V8.10645H14.3467Z" fill="#F2F6FF"/>
<path fill-rule="evenodd" clip-rule="evenodd" d="M14.3467 8.10671H28.64V5.70671C28.64 4.21337 27.4667 3.04004 25.9733 3.04004C20.8 3.04004 19.6267 3.04004 14.3467 3.04004V8.10671Z" fill="#5FCFC2"/>
<path fill-rule="evenodd" clip-rule="evenodd" d="M5.81331 0C6.45331 0 6.93331 0.533333 6.93331 1.12V4.96C6.93331 5.54667 6.45331 6.02667 5.81331 6.02667C5.22664 6.02667 4.74664 5.54667 4.74664 4.96V1.12C4.74664 0.533333 5.22664 0 5.81331 0Z" fill="#2E427D"/>
<path fill-rule="evenodd" clip-rule="evenodd" d="M11.4133 0C12.0533 0 12.5333 0.533333 12.5333 1.12V4.96C12.5333 5.54667 12.0533 6.02667 11.4133 6.02667C10.8267 6.02667 10.3467 5.54667 10.3467 4.96V1.12C10.3467 0.533333 10.8267 0 11.4133 0Z" fill="#2E427D"/>
<path fill-rule="evenodd" clip-rule="evenodd" d="M17.0133 0C17.6 0 18.1333 0.533333 18.1333 1.12V4.96C18.1333 5.54667 17.6 6.02667 17.0133 6.02667C16.4266 6.02667 15.8933 5.54667 15.8933 4.96V1.12C15.8933 0.533333 16.4266 0 17.0133 0Z" fill="#2E427D"/>
<path fill-rule="evenodd" clip-rule="evenodd" d="M22.6133 0C23.2 0 23.7333 0.533333 23.7333 1.12V4.96C23.7333 5.54667 23.2 6.02667 22.6133 6.02667C21.9733 6.02667 21.4933 5.54667 21.4933 4.96V1.12C21.4933 0.533333 21.9733 0 22.6133 0Z" fill="#2E427D"/>
<path fill-rule="evenodd" clip-rule="evenodd" d="M15.0933 11.6265H19.2533V15.7331H15.0933V11.6265Z" fill="#CC99CC"/>
<path fill-rule="evenodd" clip-rule="evenodd" d="M9.44 11.6265H13.6V15.7331H9.44V11.6265Z" fill="#CC99CC"/>
<path fill-rule="evenodd" clip-rule="evenodd" d="M20.7466 11.6265H24.9066V15.7331H20.7466V11.6265Z" fill="#CC99CC"/>
<path fill-rule="evenodd" clip-rule="evenodd" d="M3.78668 17.9731H7.94668V22.0798H3.78668V17.9731Z" fill="#CC99CC"/>
<path fill-rule="evenodd" clip-rule="evenodd" d="M3.78668 24.2666H7.94668V28.4266H3.78668V24.2666Z" fill="#CC99CC"/>
<path fill-rule="evenodd" clip-rule="evenodd" d="M15.0933 17.9731H19.2533V22.0798H15.0933V17.9731Z" fill="#CC99CC"/>
<path fill-rule="evenodd" clip-rule="evenodd" d="M15.0933 24.2666H19.2533V28.4266H15.0933V24.2666Z" fill="#CC99CC"/>
<path fill-rule="evenodd" clip-rule="evenodd" d="M9.44 17.9731H13.6V22.0798H9.44V17.9731Z" fill="#CC99CC"/>
<path fill-rule="evenodd" clip-rule="evenodd" d="M9.44 24.2666H13.6V28.4266H9.44V24.2666Z" fill="#CC99CC"/>
<path fill-rule="evenodd" clip-rule="evenodd" d="M20.7466 17.9731H24.9066V22.0798H20.7466V17.9731Z" fill="#CC99CC"/>
<path fill-rule="evenodd" clip-rule="evenodd" d="M25.12 17.9199H29.2267V22.0799H25.12V17.9199Z" fill="#9DA3C4"/>
<path fill-rule="evenodd" clip-rule="evenodd" d="M26.72 25.9202C27.2 26.4002 27.4667 27.0402 27.4667 27.7335C27.4667 28.3735 27.2 29.0135 26.72 29.4935C26.72 29.4935 26.72 29.5469 26.6667 29.5469C25.6 30.6669 24.9067 32.1602 24.9067 33.8669V37.3869H29.8667L29.9733 37.3335H30.0267L30.24 37.1735L30.3467 37.1202H30.4V37.0669L30.72 36.9069L30.88 36.8002L31.0933 36.6402L31.2533 36.5335L31.36 36.4802L31.52 36.3202H31.5733L31.6267 36.2669L31.84 36.1069L31.9467 36.0535V36.0002L32.0533 35.9469L32.2667 35.7869L32.3733 35.7335V35.6802L32.6933 35.4669L32.7467 35.4135L32.8533 35.3602L33.0667 35.1469L33.1733 35.0402L33.44 34.8269L33.4933 34.7735L33.76 34.5069L33.8133 34.4535L33.92 34.4002L34.0267 34.2935L34.1333 34.1869L34.1867 34.0802L34.4533 33.8135L34.5067 33.7602L34.7733 33.4935L34.8267 33.4402L35.1467 33.0669C35.2 32.9602 35.3067 32.8535 35.4133 32.7469L35.4667 32.6935L35.7333 32.3735L36 32.0002V31.9469H36.0533C36.2133 31.7335 36.4267 31.4669 36.5867 31.2002C36.2667 30.5602 35.8933 30.0269 35.4133 29.5469L35.36 29.4935C34.9333 29.0135 34.6133 28.3735 34.6133 27.7335C34.6133 27.0402 34.9333 26.4002 35.36 25.9202L35.4133 25.8669C36.5333 24.7469 37.1733 23.2535 37.1733 21.5469V18.0269H24.9067V21.5469C24.9067 23.2535 25.6 24.7469 26.6667 25.8669C26.72 25.8669 26.72 25.9202 26.72 25.9202Z" fill="#D9E2F7"/>
<path fill-rule="evenodd" clip-rule="evenodd" d="M31.04 18.0267H24.8H23.6267H23.5733H23.52C23.1467 18.0267 22.88 17.8134 22.72 17.5467C22.56 17.3334 22.5067 17.1201 22.5067 16.8534C22.5067 16.6401 22.56 16.4267 22.6667 16.2134C22.88 15.9467 23.1467 15.7334 23.52 15.7334H23.5733H23.6267H24.8H31.04V18.0267Z" fill="#782509"/>
<path fill-rule="evenodd" clip-rule="evenodd" d="M37.1733 18.0269H31.04V20.8002H34.6666V21.5469C34.6666 22.5069 34.2933 23.4135 33.6 24.1069L33.5466 24.2135C32.64 25.1202 32.1066 26.4002 32.1066 27.7335C32.1066 29.0135 32.64 30.2935 33.5466 31.2002L33.6 31.3069C34.24 31.9469 34.6133 32.7469 34.6666 33.6002L34.72 33.5469L34.9333 33.3335V33.2802L34.9866 33.2269H35.04L35.2533 32.9602V32.9069L35.3066 32.8535L35.36 32.8002L35.4133 32.7469L35.4666 32.6402H35.52V32.5869L35.5733 32.5335H35.6266V32.4802L35.68 32.4269V32.3735H35.7333V32.3202L35.7866 32.2669H35.84L36 32.0002V31.9469H36.0533L36.32 31.5735V31.5202L36.5333 31.2535L36.5866 31.2002C36.2666 30.5602 35.8933 30.0269 35.4133 29.5469L35.36 29.4935C34.9333 29.0135 34.6133 28.3735 34.6133 27.7335C34.6133 27.0402 34.9333 26.4002 35.36 25.9202L35.4133 25.8669C36.5333 24.7469 37.1733 23.2535 37.1733 21.5469V18.0269ZM33.6533 34.6135H31.04V36.6935L31.0933 36.6402L31.2533 36.5335L31.3066 36.4802H31.36L31.4133 36.4269L31.4666 36.3735H31.52L31.5733 36.3202L31.6266 36.2669L31.68 36.2135H31.7333L31.7866 36.1602L31.84 36.1069L31.8933 36.0535H31.9466L32 36.0002H32.0533V35.9469L32.1066 35.8935H32.16L32.2133 35.8402H32.2666V35.7869L32.32 35.7335H32.3733L32.4266 35.6802L32.48 35.6269L32.5333 35.5735H32.5866V35.5202L32.64 35.4669H32.6933L32.8 35.3602L32.8533 35.3069H32.9066L32.96 35.2535V35.2002H33.0133L33.12 35.0935L33.1733 35.0402H33.2266V34.9869L33.28 34.9335H33.3333L33.3866 34.8802L33.4933 34.7735L33.5466 34.7202L33.6 34.6669L33.6533 34.6135Z" fill="#EDF2FF"/>
<path fill-rule="evenodd" clip-rule="evenodd" d="M32.1067 27.7334C32.1067 29.0134 32.64 30.2934 33.5467 31.2001C33.6 31.2534 33.6 31.3067 33.6 31.3067C34.24 31.9467 34.6133 32.7467 34.6667 33.6001L34.6133 33.6534L34.56 33.7067L34.3467 33.9734H34.2933L34.24 34.0267L34.08 34.2401H34.0267V34.2934H33.9733L33.92 34.3467L33.8667 34.4001L33.7067 34.5601L33.6533 34.6134L33.6 34.6667L33.5467 34.7201L33.4933 34.7734L33.3867 34.8267V34.8801H33.3333L33.28 34.9334L33.1733 35.0401V35.0934H33.12L33.0667 35.1467L33.0133 35.2001L32.8 35.3601V35.4134H32.7467H27.4133V33.8667C27.4133 32.9067 27.7867 32.0001 28.4267 31.3601C28.48 31.3067 28.5333 31.2534 28.5333 31.2001C29.44 30.2934 29.9733 29.0134 29.9733 27.7334H32.1067Z" fill="#F0B800"/>
<path fill-rule="evenodd" clip-rule="evenodd" d="M31.04 27.7334V35.4134H32.7466H32.8V35.3601L33.0133 35.2001L33.0666 35.1467L33.12 35.0934H33.1733V35.0401L33.3866 34.8801V34.8267H33.44L33.4933 34.7734L33.5466 34.7201L33.6 34.6667L33.6533 34.6134L33.7066 34.5601L33.8666 34.4001L33.92 34.3467L33.9733 34.2934H34.0266V34.2401H34.08L34.24 34.0267L34.2933 33.9734H34.3466L34.56 33.7067L34.6133 33.6534L34.6666 33.6001C34.6133 32.7467 34.24 31.9467 33.6 31.3067L33.5466 31.2001C32.64 30.2934 32.1066 29.0134 32.1066 27.7334H31.04Z" fill="#FFE019"/>
<path fill-rule="evenodd" clip-rule="evenodd" d="M32.1067 27.7333C32.1067 26.4 32.64 25.12 33.5467 24.2133C33.6 24.16 33.6 24.1067 33.6 24.1067C34.2933 23.4133 34.6667 22.5067 34.6667 21.5467V20H27.4133V21.5467C27.4133 22.5067 27.7867 23.4133 28.4267 24.0533C28.48 24.1067 28.5333 24.16 28.5333 24.2133C29.44 25.12 29.9733 26.4 29.9733 27.7333H32.1067Z" fill="#F0B800"/>
<path fill-rule="evenodd" clip-rule="evenodd" d="M31.04 27.7333V20H34.6666V21.5467C34.6666 22.5067 34.2933 23.4133 33.6 24.1067L33.5466 24.2133C32.64 25.12 32.1066 26.4 32.1066 27.7333H31.04Z" fill="#FFE019"/>
<path fill-rule="evenodd" clip-rule="evenodd" d="M31.04 18.0267H37.3333H38.4533H38.5066H38.56C38.9333 18.0267 39.2 17.8134 39.4133 17.5467C39.52 17.3334 39.6266 17.1201 39.6266 16.8534C39.6266 16.6401 39.52 16.4267 39.4133 16.2134C39.2533 15.9467 38.9333 15.7334 38.56 15.7334H38.5066H38.4533H37.3333H31.04V18.0267Z" fill="#A14F34"/>
<path fill-rule="evenodd" clip-rule="evenodd" d="M23.84 39.6268H23.6267H23.5733H23.52C23.1467 39.5735 22.88 39.4135 22.72 39.1468C22.56 38.9335 22.5067 38.7202 22.5067 38.4535C22.5067 38.2402 22.56 38.0268 22.6667 37.8135C22.88 37.5468 23.1467 37.3335 23.52 37.3335H23.5733H23.6267H24.8H29.9733C28.1067 38.4002 26.08 39.2002 23.84 39.6268Z" fill="#782509"/>
<path fill-rule="evenodd" clip-rule="evenodd" d="M20.7466 24.2666H24.9066V28.4266H20.7466V24.2666Z" fill="#CC99CC"/>
<path fill-rule="evenodd" clip-rule="evenodd" d="M3.78668 30.6133H7.94668V34.7199H6.45335C5.49335 33.8133 4.58668 32.7999 3.78668 31.6799V30.6133Z" fill="#CC99CC"/>
<path fill-rule="evenodd" clip-rule="evenodd" d="M15.0933 30.6133H19.2533V34.7199H15.0933V30.6133Z" fill="#CC99CC"/>
<path fill-rule="evenodd" clip-rule="evenodd" d="M9.44 30.6133H13.6V34.7199H9.44V30.6133Z" fill="#CC99CC"/>
<path fill-rule="evenodd" clip-rule="evenodd" d="M16.8533 14.88L25.12 23.1467C26.6133 24.64 29.0667 24.64 30.56 23.1467L38.88 14.88C40.3733 13.3867 40.3733 10.9333 38.88 9.44L30.56 1.12C29.0667 -0.373333 26.6133 -0.373333 25.12 1.12L16.8533 9.44C15.36 10.9333 15.36 13.3867 16.8533 14.88Z" fill="#9AA0AD"/>
<path fill-rule="evenodd" clip-rule="evenodd" d="M16.8533 14.88L25.12 23.1467C25.8667 23.8933 26.88 24.2667 27.84 24.2667V0C26.88 0 25.8667 0.373333 25.12 1.12L16.8533 9.44C15.36 10.9333 15.36 13.3867 16.8533 14.88Z" fill="#848A96"/>
<path fill-rule="evenodd" clip-rule="evenodd" d="M21.12 6.45345C21.12 6.66679 21.2267 6.72012 21.3867 6.88012L21.8667 7.30679C21.9733 7.46679 21.9733 7.41345 21.92 7.68012C21.92 7.73345 21.8667 7.78679 21.8667 7.84012C21.8667 8.00012 21.8133 8.10679 21.8133 8.26679C21.8133 8.37345 21.76 8.53345 21.76 8.64012C21.8133 8.69345 21.8133 8.74679 21.8667 8.74679C22.08 8.90679 22.24 8.80012 22.4533 8.69345L22.7733 8.53345C23.2533 8.26679 23.04 8.26679 23.5733 8.53345L24 8.74679C24.1067 8.80012 24.2133 8.85345 24.32 8.80012C24.4267 8.80012 24.5333 8.69345 24.5333 8.58679C24.5333 8.48012 24.4267 7.78679 24.3733 7.68012C24.32 7.36012 24.32 7.46679 24.5867 7.20012L25.0133 6.77345C25.0667 6.72012 25.12 6.66679 25.12 6.66679C25.1733 6.61345 25.1733 6.56012 25.1733 6.50679V6.45345C25.1733 6.34679 25.12 6.24012 25.0133 6.18679C24.96 6.18679 24.6933 6.13345 24.64 6.13345L24.0533 6.02679C23.9467 6.02679 23.8933 6.02679 23.84 5.97345L23.5733 5.38679C23.52 5.28012 23.4667 5.17345 23.4133 5.06679C23.3067 4.85345 22.9867 4.85345 22.88 5.06679L22.4533 5.97345C22.4 6.02679 22.3467 6.02679 22.2933 6.02679L21.7067 6.13345C21.6 6.13345 21.3333 6.18679 21.28 6.18679C21.2267 6.24012 21.2267 6.24012 21.1733 6.29345C21.12 6.29345 21.12 6.40012 21.12 6.45345ZM25.44 4.53345C25.44 4.80012 25.6 4.90679 25.76 5.06679L26.3467 5.60012C26.5067 5.76012 26.4533 5.76012 26.4 6.02679C26.4 6.13345 26.4 6.18679 26.3467 6.29345C26.3467 6.45345 26.2933 6.61345 26.2933 6.72012C26.2933 6.88012 26.24 7.09345 26.24 7.20012C26.2933 7.25345 26.2933 7.36012 26.3467 7.36012C26.6133 7.57345 26.8267 7.41345 27.04 7.25345L27.4133 7.09345C28.0533 6.77345 27.7867 6.77345 28.4267 7.09345L28.96 7.36012C29.0667 7.41345 29.2267 7.52012 29.3867 7.46679C29.4933 7.41345 29.6 7.30679 29.6 7.14679C29.6 7.04012 29.44 6.24012 29.44 6.02679C29.3867 5.70679 29.3333 5.81345 29.6533 5.49345L30.1867 4.96012C30.24 4.90679 30.2933 4.85345 30.3467 4.80012C30.4 4.74679 30.4 4.69345 30.4 4.58679V4.53345C30.4 4.42679 30.3467 4.32012 30.1867 4.26679C30.1333 4.21345 29.8133 4.16012 29.7067 4.16012L29.0133 4.05345C28.9067 4.05345 28.8533 4.05345 28.8 4.00012L28.4267 3.25345C28.3733 3.14679 28.32 2.98679 28.2667 2.88012C28.1067 2.56012 27.7333 2.61345 27.5733 2.88012L27.04 4.00012C26.9867 4.05345 26.9333 4.05345 26.8267 4.05345L26.1333 4.16012C26.08 4.16012 25.7067 4.21345 25.6533 4.26679C25.6 4.26679 25.5467 4.32012 25.4933 4.37345C25.44 4.37345 25.44 4.48012 25.44 4.53345ZM30.5067 6.45345C30.5067 6.66679 30.6667 6.72012 30.8267 6.88012L31.2533 7.30679C31.4133 7.46679 31.36 7.41345 31.3067 7.68012C31.3067 7.73345 31.3067 7.78679 31.3067 7.84012C31.2533 8.00012 31.2533 8.10679 31.2533 8.26679C31.2 8.37345 31.1467 8.53345 31.2 8.64012C31.2 8.69345 31.2533 8.74679 31.3067 8.74679C31.4667 8.90679 31.68 8.80012 31.84 8.69345L32.16 8.53345C32.6933 8.26679 32.4267 8.26679 33.0133 8.53345L33.44 8.74679C33.4933 8.80012 33.6 8.85345 33.76 8.80012C33.8133 8.80012 33.92 8.69345 33.92 8.58679C33.9733 8.48012 33.8133 7.78679 33.8133 7.68012C33.76 7.36012 33.7067 7.46679 33.9733 7.20012L34.4533 6.77345C34.4533 6.72012 34.5067 6.66679 34.56 6.66679C34.56 6.61345 34.6133 6.56012 34.6133 6.50679V6.45345C34.6133 6.34679 34.56 6.24012 34.4 6.18679C34.3467 6.18679 34.1333 6.13345 34.0267 6.13345L33.44 6.02679C33.3867 6.02679 33.3333 6.02679 33.28 5.97345L32.96 5.38679C32.96 5.28012 32.9067 5.17345 32.8533 5.06679C32.6933 4.85345 32.4267 4.85345 32.2667 5.06679L31.84 5.97345C31.7867 6.02679 31.7867 6.02679 31.68 6.02679L31.0933 6.13345C31.04 6.13345 30.7733 6.18679 30.72 6.18679C30.6667 6.24012 30.6133 6.24012 30.56 6.29345C30.56 6.29345 30.5067 6.40012 30.5067 6.45345Z" fill="white"/>
<path d="M26.08 16.9067C26.08 17.6 25.9733 18.08 25.7067 18.3467C25.4933 18.6667 25.12 18.7733 24.64 18.7733C24.2667 18.7733 24 18.72 23.84 18.6667C23.6267 18.56 23.4667 18.3467 23.36 18.08C23.2533 17.8133 23.2 17.44 23.2 17.0133L23.1467 12.2667C22.7733 12.2667 22.4 12.2133 22.1867 12.0533C21.92 11.8933 21.76 11.68 21.76 11.3067C21.76 11.04 21.8667 10.8267 22.1333 10.6133C22.3467 10.4533 22.72 10.3467 23.1467 10.3467C23.3067 10.3467 23.52 10.3467 23.84 10.3467C24.16 10.3467 24.3733 10.3467 24.48 10.3467C25.12 10.3467 25.5467 10.4533 25.76 10.6667C25.9733 10.88 26.08 11.2533 26.08 11.7867V16.9067ZM33.6 12.96C33.44 12.8533 33.12 12.7467 32.64 12.7467H29.7067C29.6533 12.7467 29.5467 12.8 29.44 12.8C29.12 12.8533 28.9067 12.96 28.8 13.1733C28.5333 13.44 28.4267 13.76 28.4267 14.1867V17.3333C28.4267 17.8667 28.5333 18.24 28.6933 18.4533C28.9067 18.6667 29.2267 18.8267 29.7067 18.8267C30.24 18.8267 30.6133 18.72 30.8267 18.5067C31.04 18.2933 31.1467 17.9733 31.1467 17.44V14.2933H32.5333C33.0133 14.2933 33.3867 14.24 33.5467 14.1867C33.76 14.08 33.8667 13.8667 33.8667 13.6C33.8667 13.28 33.8133 13.0667 33.6 12.96ZM32.0533 17.92C32.0533 17.6533 32.16 17.44 32.4267 17.2267C32.64 17.0667 32.96 16.96 33.44 16.96C34.3467 16.96 34.7733 17.28 34.7733 17.92C34.7733 18.1867 34.72 18.3467 34.6133 18.5067C34.5067 18.6667 34.3467 18.7733 34.1333 18.8267C33.9733 18.88 33.7067 18.88 33.44 18.88C33.0133 18.88 32.6933 18.8267 32.4267 18.6667C32.16 18.5067 32.0533 18.2933 32.0533 17.92Z" fill="white"/>
</g>
<defs>
<clipPath id="clip0_6033_29273">
<rect width="40" height="40" fill="white"/>
</clipPath>
</defs>
</svg>
