<svg width="40" height="40" viewBox="0 0 40 40" fill="none" xmlns="http://www.w3.org/2000/svg">
<g clip-path="url(#clip0_6033_29361)">
<path fill-rule="evenodd" clip-rule="evenodd" d="M20 40C31.04 40 40 31.04 40 20C40 8.96 31.04 0 20 0C8.96 0 0 8.96 0 20C0 31.04 8.96 40 20 40Z" fill="#00A390"/>
<path fill-rule="evenodd" clip-rule="evenodd" d="M12.6933 19.6798C12.6933 20.5865 11.9467 21.3331 11.04 21.3331H9.38666V25.3331H14.1867H18.9867V21.3331H17.3333C16.4267 21.3331 15.68 20.5865 15.68 19.6798V17.2798C15.2 17.3865 14.72 17.3865 14.1867 17.3865C13.7067 17.3865 13.1733 17.3865 12.6933 17.2798V19.6798Z" fill="#F0B800"/>
<path fill-rule="evenodd" clip-rule="evenodd" d="M14.1867 25.3335H8.58665C7.89332 25.3335 7.35999 25.8668 7.35999 26.5602V31.0402H14.1867H21.0133V26.5602C21.0133 25.8668 20.48 25.3335 19.7867 25.3335H14.1867Z" fill="#782509"/>
<path fill-rule="evenodd" clip-rule="evenodd" d="M26.5067 8.15997C26.5067 10.9866 24.16 12.1066 21.28 13.3866C20.2133 15.36 18.56 16.5333 16.64 17.0666C21.6533 15.7333 28.3733 13.3333 28.3733 8.6933V4.90663C28.3733 3.35997 27.1467 2.1333 25.6533 2.1333H22.88C22.88 2.71997 22.88 3.2533 22.8267 3.83997H25.28C25.92 3.83997 26.5067 4.42663 26.5067 5.11997V8.15997Z" fill="#FAC25A"/>
<path fill-rule="evenodd" clip-rule="evenodd" d="M1.86667 8.15997C1.86667 10.9866 4.21333 12.1066 7.14667 13.3866C8.16 15.36 9.86667 16.5333 11.7333 17.0666C6.77333 15.7333 0 13.3333 0 8.6933V4.90663C0 3.35997 1.22667 2.1333 2.77333 2.1333H5.49333C5.54667 2.71997 5.54667 3.2533 5.54667 3.83997H3.14667C2.45333 3.83997 1.86667 4.42663 1.86667 5.11997V8.15997Z" fill="#F09C00"/>
<path fill-rule="evenodd" clip-rule="evenodd" d="M22.88 0H14.1867H5.49335C5.49335 3.78667 5.60001 8.58667 6.34668 11.4133C7.46668 15.52 10.6667 17.3867 14.1867 17.3867C17.7067 17.3867 20.96 15.52 22.0267 11.4133C22.7733 8.58667 22.88 3.78667 22.88 0Z" fill="#FFCE00"/>
<path fill-rule="evenodd" clip-rule="evenodd" d="M21.0134 40.0001V37.1201H20.96C19.3067 37.0667 17.9734 35.7334 17.9734 34.0801H14.1867H10.4C10.4 35.1467 9.81336 36.1601 8.96002 36.6934C12.1067 38.7734 15.8934 40.0001 20 40.0001C20.32 40.0001 20.6934 40.0001 21.0134 40.0001Z" fill="#6D7B9E"/>
<path fill-rule="evenodd" clip-rule="evenodd" d="M8.96 36.6934C9.81334 36.16 10.4 35.1467 10.4 34.08H14.1867H17.9733C17.9733 35.7334 19.3067 37.0667 20.96 37.12H21.0133C22.6667 37.12 24.0533 35.7334 24.0533 34.08C24.0533 32.3734 22.6667 31.04 21.0133 31.04H14.1867H7.36C6.13334 31.04 5.12 31.7334 4.58667 32.8C5.86667 34.2934 7.30667 35.5734 8.96 36.6934Z" fill="#A2AFCF"/>
<path fill-rule="evenodd" clip-rule="evenodd" d="M14.1866 0.853333V17.3867C14.72 17.3867 15.2 17.3867 15.68 17.28C16 17.2267 16.32 17.1733 16.64 17.0667C18.56 16.5333 20.2133 15.36 21.2266 13.3867C21.6 12.8 21.8666 12.16 22.0266 11.4133C22.56 9.49333 22.7733 6.66667 22.8266 3.84C22.88 3.25333 22.88 2.72 22.88 2.13333C22.88 1.49333 22.88 0.853333 22.88 0.213333C21.92 0.0533333 20.96 0 20 0H14.1866V0.853333Z" fill="#FFE019"/>
<path fill-rule="evenodd" clip-rule="evenodd" d="M14.1866 17.3865V25.3331H18.9866V21.3331H17.3333C16.4266 21.3331 15.68 20.5865 15.68 19.6798V17.2798C15.2 17.3865 14.72 17.3865 14.1866 17.3865Z" fill="#FFD447"/>
<path fill-rule="evenodd" clip-rule="evenodd" d="M14.1866 25.3335V31.0402H21.0133V26.5602C21.0133 25.8668 20.48 25.3335 19.7866 25.3335H18.9866H14.1866Z" fill="#A14F34"/>
<path fill-rule="evenodd" clip-rule="evenodd" d="M17.9733 34.08C17.9733 35.7334 19.3066 37.0667 20.96 37.12H21.0133C22.6666 37.12 24.0533 35.7334 24.0533 34.08C24.0533 32.3734 22.6666 31.04 21.0133 31.04H14.1866V34.08H17.9733Z" fill="#D9E2F7"/>
<path fill-rule="evenodd" clip-rule="evenodd" d="M14.1866 34.0801V39.1467C16.0533 39.6801 17.9733 40.0001 20 40.0001C20.32 40.0001 20.6933 40.0001 21.0133 40.0001V37.1201H20.96C19.3066 37.0667 17.9733 35.7334 17.9733 34.0801H14.1866Z" fill="#8E9CC2"/>
<path fill-rule="evenodd" clip-rule="evenodd" d="M10.72 7.30647C10.72 7.57313 11.0933 7.8398 11.3066 8.05313C11.4666 8.21313 11.68 8.42647 11.8933 8.58647C11.8933 8.6398 11.9466 8.6398 11.9466 8.69313C12 8.74647 12.0533 8.7998 12.1066 8.85313C12.2133 8.90647 12.16 8.9598 12.16 9.06647C12.1066 9.38647 11.8933 10.5598 11.8933 10.8265C11.8933 11.0398 12.1066 11.2531 12.3733 11.2531C12.48 11.2531 12.7466 11.1465 12.8533 11.0931L13.7066 10.6131C13.8133 10.5598 13.8666 10.5065 13.9733 10.5065C14.2933 10.3465 14.08 10.2931 14.6133 10.6131L15.0933 10.8265C15.2 10.8798 15.2533 10.9331 15.3066 10.9331C15.68 11.1465 15.9466 11.3598 16.2133 11.2531C16.3733 11.1465 16.5333 10.9865 16.5333 10.7731C16.5333 10.6665 16.48 10.6131 16.48 10.5065C16.3733 10.0265 16.2666 9.4398 16.2133 8.9598C16.2133 8.90647 16.2133 8.90647 16.2666 8.85313L17.0666 8.05313C17.12 7.9998 17.12 7.9998 17.1733 7.94647C17.28 7.89313 17.5466 7.62647 17.6 7.5198C17.7066 7.30647 17.6533 7.14647 17.5466 6.98646C17.44 6.82647 17.2266 6.82647 17.0133 6.77313L15.4666 6.5598C15.4133 6.5598 15.4133 6.45313 15.36 6.34646L14.6133 4.90646C14.6133 4.85313 14.56 4.74646 14.4533 4.74646C14.2933 4.58646 14.08 4.58646 13.92 4.74646C13.76 4.85313 13.6 5.22646 13.4933 5.4398C13.3333 5.81313 13.1733 6.13313 13.0133 6.50647C12.96 6.5598 12.9066 6.5598 12.6933 6.5598L11.7333 6.7198C11.6266 6.7198 11.52 6.77313 11.36 6.77313C11.2 6.82647 10.9333 6.82647 10.8266 6.98646C10.7733 7.0398 10.72 7.1998 10.72 7.30647Z" fill="#F09C00"/>
<path fill-rule="evenodd" clip-rule="evenodd" d="M14.1866 4.64014V10.3468C14.24 10.3468 14.3466 10.4535 14.6133 10.6135L15.0933 10.8268L15.3066 10.9335C15.68 11.1468 15.9466 11.3601 16.2133 11.2535C16.3733 11.1468 16.5333 10.9868 16.5333 10.7735C16.5333 10.6668 16.48 10.6135 16.48 10.5068C16.3733 10.0268 16.2666 9.44014 16.2133 8.96014C16.2133 8.9068 16.2133 8.9068 16.2666 8.85347L17.0666 8.05347L17.1733 7.9468C17.28 7.89347 17.5466 7.6268 17.6 7.52014C17.7066 7.36014 17.6533 7.1468 17.5466 6.9868C17.44 6.8268 17.2266 6.8268 17.0133 6.77347L15.4666 6.56014C15.4133 6.56014 15.4133 6.45347 15.36 6.3468L14.6133 4.9068C14.6133 4.85347 14.56 4.7468 14.4533 4.7468C14.4 4.69347 14.2933 4.64014 14.1866 4.64014Z" fill="#FAC25A"/>
<path fill-rule="evenodd" clip-rule="evenodd" d="M12.96 2.56008C13.28 4.10674 12.48 4.96008 10.9333 4.85341C10.6667 3.36008 11.36 2.34674 12.96 2.56008Z" fill="#F09C00"/>
<path fill-rule="evenodd" clip-rule="evenodd" d="M9.01333 3.4668C10.56 3.89346 10.88 5.0668 10.0267 6.3468C8.58666 5.81346 8.05333 4.69346 9.01333 3.4668Z" fill="#F09C00"/>
<path fill-rule="evenodd" clip-rule="evenodd" d="M7.30666 6.29325C8.85332 5.91992 9.70666 6.77325 9.59999 8.31992C8.10666 8.58658 7.09332 7.89325 7.30666 6.29325Z" fill="#F09C00"/>
<path fill-rule="evenodd" clip-rule="evenodd" d="M6.93335 9.60015C8.10668 8.53349 9.28002 8.80015 9.97335 10.1868C8.74668 11.1468 7.57335 11.0935 6.93335 9.60015Z" fill="#F09C00"/>
<path fill-rule="evenodd" clip-rule="evenodd" d="M8.05334 12.2666C8.90668 10.9333 10.08 10.8799 11.0933 12.0533C10.24 13.2799 9.01334 13.5466 8.05334 12.2666Z" fill="#F09C00"/>
<path d="M12.5333 13.0133C9.27997 11.4133 8.8533 8.10667 10.9333 4.85333L11.52 4" stroke="#F09C00" stroke-width="0.9" stroke-linecap="round"/>
<path fill-rule="evenodd" clip-rule="evenodd" d="M15.4133 2.56008C15.0933 4.10674 15.8933 4.96008 17.44 4.85341C17.7067 3.36008 17.0133 2.34674 15.4133 2.56008Z" fill="#FAC25A"/>
<path fill-rule="evenodd" clip-rule="evenodd" d="M19.36 3.4668C17.8133 3.89346 17.4933 5.0668 18.3466 6.3468C19.7866 5.81346 20.32 4.69346 19.36 3.4668Z" fill="#FAC25A"/>
<path fill-rule="evenodd" clip-rule="evenodd" d="M21.12 6.29325C19.52 5.91992 18.6667 6.77325 18.7733 8.31992C20.32 8.58658 21.28 7.89325 21.12 6.29325Z" fill="#FAC25A"/>
<path fill-rule="evenodd" clip-rule="evenodd" d="M21.44 9.60015C20.2667 8.53349 19.0934 8.80015 18.4 10.1868C19.6267 11.1468 20.8 11.0935 21.44 9.60015Z" fill="#FAC25A"/>
<path fill-rule="evenodd" clip-rule="evenodd" d="M20.32 12.2666C19.4667 10.9333 18.2934 10.8799 17.28 12.0533C18.1867 13.2799 19.36 13.5466 20.32 12.2666Z" fill="#FAC25A"/>
<path d="M15.84 13.0133C19.0934 11.4133 19.52 8.10667 17.44 4.85333L16.8534 4" stroke="#FAC25A" stroke-width="0.9" stroke-linecap="round"/>
<path d="M16.8 39.7335V37.0135C16.8 36.5869 17.1733 36.2135 17.6 36.2135C18.0267 36.2135 18.4 36.5869 18.4 37.0135V39.9469C17.8667 39.8935 17.3333 39.8402 16.8 39.7335ZM13.3867 38.8802V35.5202C13.3867 35.0935 13.76 34.7202 14.1867 34.7202C14.6133 34.7202 14.9867 35.0935 14.9867 35.5202V39.3602C14.4533 39.2535 13.92 39.0402 13.3867 38.8802ZM9.97333 37.3335V37.0135C9.97333 36.5869 10.3467 36.2135 10.7733 36.2135C11.2 36.2135 11.5733 36.5869 11.5733 37.0135V38.1335C11.04 37.8669 10.5067 37.6002 9.97333 37.3335Z" fill="#344263"/>
<path fill-rule="evenodd" clip-rule="evenodd" d="M16.8533 14.88L25.12 23.1467C26.6133 24.64 29.0667 24.64 30.56 23.1467L38.88 14.88C40.3733 13.3867 40.3733 10.9333 38.88 9.44L30.56 1.12C29.0667 -0.373333 26.6133 -0.373333 25.12 1.12L16.8533 9.44C15.36 10.9333 15.36 13.3867 16.8533 14.88Z" fill="#9AA0AD"/>
<path fill-rule="evenodd" clip-rule="evenodd" d="M16.8533 14.88L25.12 23.1467C25.8667 23.8933 26.88 24.2667 27.84 24.2667V0C26.88 0 25.8667 0.373333 25.12 1.12L16.8533 9.44C15.36 10.9333 15.36 13.3867 16.8533 14.88Z" fill="#737A8A"/>
<path fill-rule="evenodd" clip-rule="evenodd" d="M21.12 6.45345C21.12 6.66679 21.2267 6.72012 21.3867 6.88012L21.8667 7.30679C21.9733 7.46679 21.9733 7.41345 21.92 7.68012C21.92 7.73345 21.8667 7.78679 21.8667 7.84012C21.8667 8.00012 21.8133 8.10679 21.8133 8.26679C21.8133 8.37345 21.76 8.53345 21.76 8.64012C21.8133 8.69345 21.8133 8.74679 21.8667 8.74679C22.08 8.90679 22.24 8.80012 22.4533 8.69345L22.7733 8.53345C23.2533 8.26679 23.04 8.26679 23.5733 8.53345L24 8.74679C24.1067 8.80012 24.2133 8.85345 24.32 8.80012C24.4267 8.80012 24.5333 8.69345 24.5333 8.58679C24.5333 8.48012 24.4267 7.78679 24.3733 7.68012C24.32 7.36012 24.32 7.46679 24.5867 7.20012L25.0133 6.77345C25.0667 6.72012 25.12 6.66679 25.12 6.66679C25.1733 6.61345 25.1733 6.56012 25.1733 6.50679V6.45345C25.1733 6.34679 25.12 6.24012 25.0133 6.18679C24.96 6.18679 24.6933 6.13345 24.64 6.13345L24.0533 6.02679C23.9467 6.02679 23.8933 6.02679 23.84 5.97345L23.5733 5.38679C23.52 5.28012 23.4667 5.17345 23.4133 5.06679C23.3067 4.85345 22.9867 4.85345 22.88 5.06679L22.4533 5.97345C22.4 6.02679 22.3467 6.02679 22.2933 6.02679L21.7067 6.13345C21.6 6.13345 21.3333 6.18679 21.28 6.18679C21.2267 6.24012 21.2267 6.24012 21.1733 6.29345C21.12 6.29345 21.12 6.40012 21.12 6.45345ZM25.44 4.53345C25.44 4.80012 25.6 4.90679 25.76 5.06679L26.3467 5.60012C26.5067 5.76012 26.4533 5.76012 26.4 6.02679C26.4 6.13345 26.4 6.18679 26.3467 6.29345C26.3467 6.45345 26.2933 6.61345 26.2933 6.72012C26.2933 6.88012 26.24 7.09345 26.24 7.20012C26.2933 7.25345 26.2933 7.36012 26.3467 7.36012C26.6133 7.57345 26.8267 7.41345 27.04 7.25345L27.4133 7.09345C28.0533 6.77345 27.7867 6.77345 28.4267 7.09345L28.96 7.36012C29.0667 7.41345 29.2267 7.52012 29.3867 7.46679C29.4933 7.41345 29.6 7.30679 29.6 7.14679C29.6 7.04012 29.44 6.24012 29.44 6.02679C29.3867 5.70679 29.3333 5.81345 29.6533 5.49345L30.1867 4.96012C30.24 4.90679 30.2933 4.85345 30.3467 4.80012C30.4 4.74679 30.4 4.69345 30.4 4.58679V4.53345C30.4 4.42679 30.3467 4.32012 30.1867 4.26679C30.1333 4.21345 29.8133 4.16012 29.7067 4.16012L29.0133 4.05345C28.9067 4.05345 28.8533 4.05345 28.8 4.00012L28.4267 3.25345C28.3733 3.14679 28.32 2.98679 28.2667 2.88012C28.1067 2.56012 27.7333 2.61345 27.5733 2.88012L27.04 4.00012C26.9867 4.05345 26.9333 4.05345 26.8267 4.05345L26.1333 4.16012C26.08 4.16012 25.7067 4.21345 25.6533 4.26679C25.6 4.26679 25.5467 4.32012 25.4933 4.37345C25.44 4.37345 25.44 4.48012 25.44 4.53345ZM30.5067 6.45345C30.5067 6.66679 30.6667 6.72012 30.8267 6.88012L31.2533 7.30679C31.4133 7.46679 31.36 7.41345 31.3067 7.68012C31.3067 7.73345 31.3067 7.78679 31.3067 7.84012C31.2533 8.00012 31.2533 8.10679 31.2533 8.26679C31.2 8.37345 31.1467 8.53345 31.2 8.64012C31.2 8.69345 31.2533 8.74679 31.3067 8.74679C31.4667 8.90679 31.68 8.80012 31.84 8.69345L32.16 8.53345C32.6933 8.26679 32.4267 8.26679 33.0133 8.53345L33.44 8.74679C33.4933 8.80012 33.6 8.85345 33.76 8.80012C33.8133 8.80012 33.92 8.69345 33.92 8.58679C33.9733 8.48012 33.8133 7.78679 33.8133 7.68012C33.76 7.36012 33.7067 7.46679 33.9733 7.20012L34.4533 6.77345C34.4533 6.72012 34.5067 6.66679 34.56 6.66679C34.56 6.61345 34.6133 6.56012 34.6133 6.50679V6.45345C34.6133 6.34679 34.56 6.24012 34.4 6.18679C34.3467 6.18679 34.1333 6.13345 34.0267 6.13345L33.44 6.02679C33.3867 6.02679 33.3333 6.02679 33.28 5.97345L32.96 5.38679C32.96 5.28012 32.9067 5.17345 32.8533 5.06679C32.6933 4.85345 32.4267 4.85345 32.2667 5.06679L31.84 5.97345C31.7867 6.02679 31.7867 6.02679 31.68 6.02679L31.0933 6.13345C31.04 6.13345 30.7733 6.18679 30.72 6.18679C30.6667 6.24012 30.6133 6.24012 30.56 6.29345C30.56 6.29345 30.5067 6.40012 30.5067 6.45345Z" fill="white"/>
<path d="M28.6933 16.1599H30.24C31.04 16.1599 31.4133 16.5866 31.4133 17.4399C31.4133 17.9733 31.3067 18.2933 31.04 18.5066C30.8267 18.7199 30.4 18.8266 29.76 18.8266H25.9733C25.3333 18.8266 24.8533 18.7733 24.64 18.5599C24.3733 18.3999 24.2667 18.0266 24.2667 17.4399C24.2667 17.2799 24.32 17.1199 24.32 16.9599C24.3733 16.8533 24.4267 16.6933 24.5333 16.5866C24.64 16.4799 24.8 16.3199 24.96 16.2133C25.44 15.8933 25.8667 15.6266 26.1333 15.4133C26.4533 15.1999 26.72 14.9866 26.9867 14.7733C27.2533 14.5066 27.4667 14.3466 27.5733 14.1866C27.7333 14.0266 27.84 13.8133 27.9467 13.5999C28.0533 13.3866 28.1067 13.2266 28.16 13.0133C28.2133 12.7999 28.2133 12.5333 28.2133 12.2666C28.2133 11.7333 28.0533 11.4666 27.7333 11.4666C27.36 11.4666 27.2 11.7866 27.2 12.4266C27.2 12.7466 27.0933 12.9599 26.88 13.0666C26.6133 13.1733 26.2933 13.2266 25.8667 13.2266C25.28 13.2266 24.8533 13.1199 24.64 12.8533C24.4267 12.5866 24.32 12.1599 24.32 11.5733C24.32 10.9333 24.64 10.4533 25.2267 10.0266C25.76 9.65327 26.56 9.43994 27.5733 9.43994C30.1333 9.43994 31.4133 10.3999 31.4133 12.3199C31.4133 12.7466 31.36 13.1733 31.2533 13.5466C31.1467 13.9199 30.9867 14.1866 30.88 14.4533C30.72 14.7199 30.5067 14.9333 30.24 15.1466C30.0267 15.3599 29.76 15.5733 29.5467 15.7333C29.3333 15.8399 29.0667 15.9999 28.6933 16.1599Z" fill="white"/>
<path fill-rule="evenodd" clip-rule="evenodd" d="M33.8667 20.2135C33.7067 21.0668 34.08 21.9201 34.2933 22.2935C34.1867 22.7735 34.08 23.3068 33.92 23.7335C33.92 23.4135 33.8667 22.9868 33.7067 22.5601C33.2267 21.4935 32 21.0135 32 21.0135C32 21.0135 31.5733 22.2401 32.0533 23.3068C32.4267 24.1601 33.2267 24.6401 33.6 24.8001C33.3867 25.4401 33.12 26.0268 32.8 26.5601C32.9067 26.1335 32.96 25.4935 32.7467 24.8535C32.3733 23.7335 31.1467 23.2001 31.1467 23.2001C31.1467 23.2001 30.6667 24.3735 31.04 25.4935C31.36 26.4001 32.2133 26.9335 32.5333 27.0935C32.2133 27.6801 31.84 28.1601 31.4667 28.6401C31.6267 28.2135 31.7333 27.6268 31.5733 27.0401C31.3067 25.9201 30.1867 25.1735 30.1867 25.1735C30.1867 25.1735 29.5467 26.3468 29.8133 27.4668C30.0267 28.3201 30.72 28.9601 31.04 29.1735C30.4533 29.8668 29.8133 30.5068 29.2267 30.9868C29.44 30.6135 29.8133 29.9735 29.8133 29.2268C29.76 28.0535 28.8533 27.1468 28.8533 27.1468C28.8533 27.1468 27.9467 28.1068 27.9467 29.2801C28 30.1868 28.5867 30.9868 28.8 31.2535C28.4267 31.5735 28.0533 31.7868 27.68 32.0535C27.3067 32.1601 26.9867 32.3201 26.7733 32.4801C26.72 32.4801 26.6667 32.5335 26.6133 32.5335C26.9333 32.2135 27.4667 31.6268 27.6267 30.8268C27.84 29.6535 27.0933 28.5868 27.0933 28.5868C27.0933 28.5868 26.0267 29.3335 25.8667 30.5068C25.6533 31.4668 26.1333 32.3735 26.2933 32.6401C25.8133 32.8535 25.3333 32.9601 24.9067 33.0135C24.8533 33.0135 24.8 33.0668 24.8 33.1735C24.8 33.2268 24.8533 33.2801 24.9067 33.2801H24.96C25.3867 33.2268 25.8667 33.1201 26.5067 32.9068C26.7733 33.1201 27.5733 33.7068 28.48 33.7068C29.6533 33.7068 30.6133 32.8001 30.6133 32.8001C30.6133 32.8001 29.6533 31.8935 28.48 31.8935C28.48 31.8935 28.48 31.8935 28.4267 31.8935C28.64 31.7335 28.8533 31.6268 29.0133 31.4668C29.3333 31.6801 30.24 32.1068 31.1467 31.9468C32.32 31.7335 33.0667 30.6668 33.0667 30.6668C33.0667 30.6668 32 29.9201 30.8267 30.1335C30.72 30.1335 30.6133 30.1868 30.5067 30.2401C30.7733 29.9735 31.04 29.7068 31.3067 29.3868C31.5733 29.4401 32.5867 29.7601 33.5467 29.3335C34.6133 28.8535 35.0933 27.6801 35.0933 27.6801C35.0933 27.6801 33.8667 27.2001 32.8 27.6801C32.64 27.7335 32.5333 27.7868 32.3733 27.8935C32.5333 27.6801 32.6933 27.4668 32.8 27.2001C33.1733 27.3068 34.1333 27.3601 34.9333 26.9335C35.9467 26.3468 36.32 25.0668 36.32 25.0668C36.32 25.0668 35.04 24.7468 34.0267 25.3335C33.8667 25.4401 33.7067 25.6001 33.5467 25.7068C33.6533 25.4401 33.76 25.1735 33.8667 24.9068C34.1867 24.9601 35.2 25.0135 36.0533 24.4801C37.0133 23.7868 37.28 22.5068 37.28 22.5068C37.28 22.5068 36 22.2935 35.04 22.9868C34.6667 23.2001 34.4 23.5735 34.1867 23.8935C34.3467 23.3601 34.4533 22.8801 34.56 22.3468C34.88 22.0268 35.52 21.3868 35.68 20.5335C35.8933 19.3601 35.1467 18.2935 35.1467 18.2935C35.1467 18.2935 34.08 19.0401 33.8667 20.2135Z" fill="#D9E2F7"/>
</g>
<defs>
<clipPath id="clip0_6033_29361">
<rect width="40" height="40" fill="white"/>
</clipPath>
</defs>
</svg>
