<svg xmlns="http://www.w3.org/2000/svg" width="24" height="24" viewBox="0 0 24 24" fill="none">
    <path
        d="M15.0944 13.0001C15.0944 13.8207 14.7684 14.6078 14.1881 15.1881C13.6078 15.7684 12.8207 16.0944 12.0001 16.0944C11.1794 16.0944 10.3924 15.7684 9.81208 15.1881C9.23179 14.6078 8.90579 13.8207 8.90579 13.0001C8.90579 12.1794 9.23179 11.3924 9.81208 10.8121C10.3924 10.2318 11.1794 9.90578 12.0001 9.90578C12.8186 9.90803 13.603 10.2336 14.1826 10.8115C14.7621 11.3895 15.0898 12.173 15.0944 12.9915V13.0001ZM12.0086 2.71436C6.31721 2.71436 1.71436 7.32578 1.71436 13.0001C1.71698 14.8707 2.22927 16.7053 3.19619 18.3066C4.1631 19.908 5.54808 21.2156 7.20232 22.089C8.85655 22.9624 10.7175 23.3685 12.5852 23.2638C14.4529 23.159 16.2568 22.5473 17.8029 21.4944L17.8286 21.4772L16.4572 19.8572L16.4315 19.8658C15.1103 20.7169 13.5717 21.1692 12.0001 21.1686C9.91176 21.0515 7.94753 20.1393 6.51057 18.6195C5.07362 17.0996 4.27297 15.0874 4.27297 12.9958C4.27297 10.9042 5.07362 8.89194 6.51057 7.37209C7.94753 5.85224 9.91176 4.94011 12.0001 4.82293C13.2221 4.82543 14.4281 5.10151 15.5295 5.63091C16.6309 6.1603 17.5998 6.92958 18.365 7.8823C19.1303 8.83502 19.6726 9.94699 19.9521 11.1366C20.2316 12.3263 20.2411 13.5634 19.9801 14.7572C19.7229 15.8201 18.9858 16.1458 18.4201 16.0944C17.8629 16.0515 17.2029 15.6572 17.1944 14.6715V13.0001C17.1921 11.6224 16.6444 10.3016 15.671 9.32662C14.6976 8.35163 13.3778 7.80174 12.0001 7.79721C10.6209 7.79948 9.29883 8.34836 8.3236 9.3236C7.34836 10.2988 6.79948 11.6209 6.79721 13.0001C6.79948 14.3793 7.34836 15.7013 8.3236 16.6765C9.29883 17.6518 10.6209 18.2007 12.0001 18.2029C13.3886 18.2029 14.7001 17.6544 15.6858 16.6601C15.9646 17.0997 16.3424 17.4682 16.7888 17.736C17.2352 18.0039 17.7381 18.1638 18.2572 18.2029L18.5315 18.2115C19.2862 18.209 20.0199 17.9625 20.6229 17.5086C21.2593 17.0123 21.724 16.3287 21.9515 15.5544L22.0629 15.1258V15.1086C22.3764 13.6118 22.3522 12.0639 21.9921 10.5777C21.6319 9.0914 20.9448 7.70414 19.9809 6.51688C19.017 5.32963 17.8004 4.37226 16.4199 3.71446C15.0393 3.05667 13.5294 2.71501 12.0001 2.71436H12.0086Z"
        fill="#0077FF" />
</svg>