<svg width="111" height="25" viewBox="0 0 111 25" fill="none" xmlns="http://www.w3.org/2000/svg">
<path d="M20.216 0H5.11733C2.2895 0 0 2.25938 0 5.05V19.9531C0 22.7406 2.2895 25 5.11733 25H20.2192C23.0438 25 25.3365 22.7406 25.3365 19.95V5.05C25.3333 2.25938 23.0438 0 20.216 0Z" fill="url(#paint0_linear_9134_65592)"/>
<path d="M12.5588 5.74367L13.0718 4.86867C13.3885 4.3218 14.0947 4.13742 14.6488 4.44992C15.203 4.76242 15.3898 5.4593 15.0732 6.00617L10.13 14.4499H13.7052C14.8642 14.4499 15.5133 15.7937 15.0098 16.7249H4.52815C3.88849 16.7249 3.37549 16.2187 3.37549 15.5874C3.37549 14.9562 3.88849 14.4499 4.52815 14.4499H7.46682L11.2288 8.01555L10.054 6.00305C9.73732 5.45617 9.92415 4.76555 10.4783 4.4468C11.0325 4.1343 11.7323 4.31867 12.0553 4.86555L12.5588 5.74367ZM8.11282 17.8968L7.00449 19.7937C6.68782 20.3405 5.98165 20.5249 5.42749 20.2124C4.87332 19.8999 4.68649 19.203 5.00315 18.6562L5.82649 17.2499C6.75749 16.9655 7.51432 17.1843 8.11282 17.8968ZM17.6572 14.4562H20.656C21.2957 14.4562 21.8087 14.9624 21.8087 15.5937C21.8087 16.2249 21.2957 16.7312 20.656 16.7312H18.9903L20.1145 18.6562C20.4312 19.203 20.2443 19.8937 19.6902 20.2124C19.136 20.5249 18.4362 20.3405 18.1132 19.7937C16.2195 16.553 14.7977 14.128 13.854 12.5124C12.8882 10.8687 13.5785 9.21867 14.2593 8.6593C15.0162 9.94055 16.1467 11.8749 17.6572 14.4562Z" fill="white"/>
<path d="M41.4151 13.994H36.5593L35.3932 17.4321H33.3364L37.9358 4.71203H40.0726L44.6719 17.4321H42.5802L41.4151 13.994ZM37.0622 12.4075H40.9112L39.0138 6.82777H38.9606L37.0622 12.4075ZM54.6047 12.7957C54.6047 15.6775 53.0599 17.5291 50.7288 17.5291C50.1383 17.5599 49.551 17.4241 49.0342 17.1371C48.5174 16.8502 48.0919 16.4237 47.8066 15.9065H47.7625V20.5H45.8559V8.15816H47.7013V9.70068H47.7364C48.0349 9.186 48.4675 8.76173 48.9883 8.47303C49.509 8.18432 50.0984 8.04198 50.6937 8.06115C53.0509 8.06115 54.6047 9.92184 54.6047 12.7957ZM52.6452 12.7957C52.6452 10.9181 51.6735 9.68368 50.1908 9.68368C48.7341 9.68368 47.7545 10.944 47.7545 12.7956C47.7545 14.6642 48.7341 15.9157 50.1908 15.9157C51.6735 15.9157 52.6452 14.6904 52.6452 12.7957ZM64.8276 12.7957C64.8276 15.6775 63.2824 17.5291 60.9511 17.5291C60.3606 17.5599 59.7733 17.4241 59.2565 17.1371C58.7397 16.8502 58.3143 16.4237 58.0289 15.9065H57.9848V20.5H56.0784V8.15816H57.9237V9.70068H57.9587C58.2572 9.186 58.6898 8.76173 59.2106 8.47303C59.7313 8.18432 60.3207 8.04198 60.9161 8.06115C63.2733 8.06115 64.8276 9.92184 64.8276 12.7957ZM62.8676 12.7957C62.8676 10.9181 61.8958 9.68368 60.4132 9.68368C58.9565 9.68368 57.9768 10.944 57.9768 12.7956C57.9768 14.6642 58.9565 15.9157 60.4132 15.9157C61.8958 15.9157 62.8676 14.6904 62.8676 12.7957ZM71.5828 13.888C71.724 15.1494 72.9513 15.9776 74.6282 15.9776C76.2351 15.9776 77.3912 15.1494 77.3912 14.012C77.3912 13.0246 76.694 12.4335 75.0431 12.0284L73.3921 11.6312C71.0528 11.067 69.9669 9.97469 69.9669 8.2021C69.9669 6.00739 71.8823 4.5 74.6012 4.5C77.2941 4.5 79.1394 6.00739 79.2015 8.2021H77.277C77.1618 6.93276 76.1109 6.16647 74.5752 6.16647C73.0394 6.16647 71.9885 6.94178 71.9885 8.07007C71.9885 8.96942 72.6597 9.49859 74.3017 9.9036L75.7051 10.2478C78.3189 10.8649 79.4038 11.9133 79.4038 13.7738C79.4038 16.1536 77.5064 17.6441 74.4869 17.6441C71.6618 17.6441 69.7544 16.1885 69.6312 13.8879L71.5828 13.888ZM83.5202 5.96355V8.15816H85.2864V9.66565H83.5202V14.7782C83.5202 15.5725 83.8738 15.9426 84.6503 15.9426C84.86 15.9389 85.0693 15.9242 85.2774 15.8985V17.3971C84.9283 17.4622 84.5736 17.4916 84.2185 17.485C82.3381 17.485 81.6048 16.7799 81.6048 14.9813V9.66565H80.2543V8.15816H81.6048V5.96355H83.5202ZM86.3083 12.7957C86.3083 9.87769 88.0293 8.04415 90.7132 8.04415C93.4061 8.04415 95.1191 9.87769 95.1191 12.7957C95.1191 15.7215 93.415 17.5471 90.7131 17.5471C88.0123 17.5471 86.3083 15.7215 86.3083 12.7957ZM93.1766 12.7957C93.1766 10.794 92.258 9.61259 90.7131 9.61259C89.1684 9.61259 88.2498 10.803 88.2498 12.7957C88.2498 14.8053 89.1684 15.9776 90.7131 15.9776C92.258 15.9776 93.1766 14.8053 93.1766 12.7957ZM96.6908 8.15816H98.5091V9.73664H98.5533C98.6763 9.24364 98.9655 8.80797 99.3724 8.50284C99.7793 8.19772 100.279 8.04175 100.787 8.06115C101.007 8.06038 101.226 8.08419 101.441 8.13214V9.91272C101.163 9.82809 100.874 9.78924 100.584 9.79769C100.307 9.78646 100.031 9.83522 99.7746 9.94061C99.5182 10.046 99.2878 10.2055 99.0991 10.4082C98.9104 10.6109 98.7678 10.852 98.6812 11.1149C98.5946 11.3778 98.566 11.6564 98.5974 11.9313V17.4321H96.6908V8.15816ZM110.23 14.7082C109.974 16.3918 108.332 17.5471 106.231 17.5471C103.529 17.5471 101.852 15.7396 101.852 12.8396C101.852 9.93075 103.538 8.04415 106.151 8.04415C108.721 8.04415 110.336 9.8067 110.336 12.6186V13.2708H103.777V13.3858C103.746 13.7271 103.789 14.0709 103.902 14.3945C104.015 14.718 104.196 15.0138 104.432 15.2623C104.669 15.5107 104.955 15.7061 105.273 15.8355C105.591 15.9649 105.932 16.0253 106.275 16.0127C106.726 16.0548 107.178 15.9506 107.564 15.7156C107.951 15.4805 108.251 15.1272 108.42 14.7082H110.23ZM103.786 11.9404H108.429C108.446 11.6335 108.4 11.3264 108.292 11.0383C108.185 10.7503 108.019 10.4875 107.805 10.2665C107.591 10.0454 107.334 9.87095 107.049 9.75395C106.765 9.63696 106.459 9.57997 106.151 9.58657C105.841 9.58472 105.533 9.64428 105.245 9.76181C104.958 9.87935 104.697 10.0525 104.477 10.2714C104.257 10.4902 104.083 10.7503 103.964 11.0368C103.846 11.3233 103.785 11.6304 103.786 11.9404Z" fill="black"/>
<defs>
<linearGradient id="paint0_linear_9134_65592" x1="12.6667" y1="0" x2="12.6667" y2="25" gradientUnits="userSpaceOnUse">
<stop stop-color="#0ED4FC"/>
<stop offset="1" stop-color="#0C57EF"/>
</linearGradient>
</defs>
</svg>
