<svg width="160" height="54" viewBox="0 0 160 54" fill="none" xmlns="http://www.w3.org/2000/svg">
<rect width="160" height="54" rx="12" fill="#323F4B"/>
<path d="M55.5365 19.7568C54.8261 19.7568 54.1875 19.5944 53.6206 19.2694C53.0539 18.9373 52.609 18.4782 52.286 17.8919C51.9704 17.3055 51.8125 16.645 51.8125 15.9103C51.8125 15.1755 51.9704 14.5185 52.286 13.9392C52.609 13.3529 53.0503 12.8972 53.6099 12.5723C54.1768 12.2402 54.8154 12.0742 55.5258 12.0742C56.2935 12.0742 56.9753 12.265 57.5708 12.6464C58.1735 13.0209 58.604 13.5295 58.8624 14.1724L57.7645 14.3419C57.5636 13.9463 57.2659 13.639 56.8711 13.42C56.4838 13.1939 56.046 13.0809 55.558 13.0809C55.0558 13.0809 54.6073 13.201 54.2126 13.4412C53.8251 13.6814 53.5203 14.017 53.2978 14.4479C53.0825 14.8718 52.9749 15.3592 52.9749 15.9103C52.9749 16.4684 53.0825 16.9628 53.2978 17.3938C53.5203 17.8177 53.8288 18.1497 54.2234 18.3899C54.6181 18.63 55.0701 18.7502 55.5796 18.7502C56.0819 18.7502 56.5268 18.6372 56.9143 18.4111C57.3089 18.178 57.6103 17.853 57.8184 17.4362L58.9161 17.6058C58.6435 18.2627 58.2023 18.7855 57.5923 19.174C56.9824 19.5626 56.2971 19.7568 55.5365 19.7568Z" fill="white"/>
<path d="M64.6471 19.6504H63.2586L61.2028 17.3827H60.8692V19.6504H59.8145V14.1719H60.8692V16.3866H61.1921L63.1617 14.1719H64.4318L62.0423 16.8211L64.6471 19.6504Z" fill="white"/>
<path d="M67.2637 14.0664C67.9525 14.0664 68.4942 14.2889 68.889 14.734C69.2907 15.172 69.4916 15.7866 69.4916 16.5779V19.6509H68.7382L68.4907 18.7926C68.3114 19.068 68.071 19.2977 67.7696 19.4814C67.4682 19.665 67.1059 19.7568 66.6825 19.7568C66.3094 19.7568 65.9757 19.6828 65.6815 19.5343C65.3874 19.386 65.1577 19.1811 64.9926 18.9197C64.8276 18.6513 64.7451 18.351 64.7451 18.019C64.7451 17.5032 64.9532 17.09 65.3694 16.7792C65.7855 16.4684 66.3882 16.3129 67.1776 16.3129H68.4369C68.4081 15.8819 68.2862 15.5499 68.071 15.3168C67.8556 15.0766 67.5686 14.9565 67.2099 14.9565C66.9372 14.9565 66.6969 15.0201 66.4887 15.1472C66.2806 15.2745 66.1227 15.4405 66.0151 15.6453L65.0357 15.4864C65.1792 15.0484 65.4555 14.7022 65.8645 14.4479C66.2735 14.1936 66.7399 14.0664 67.2637 14.0664ZM66.9085 18.8774C67.3606 18.8774 67.7265 18.7326 68.0064 18.4429C68.2934 18.1461 68.4369 17.74 68.4369 17.2242V17.1606H67.2099C66.2771 17.1606 65.8106 17.4362 65.8106 17.9873C65.8106 18.2557 65.9111 18.4712 66.112 18.6336C66.313 18.7961 66.5785 18.8774 66.9085 18.8774Z" fill="white"/>
<path d="M73.7322 17.6582C73.56 17.7359 73.3555 17.796 73.1187 17.8383C72.8819 17.8808 72.6487 17.902 72.4192 17.902C71.7518 17.902 71.2388 17.7182 70.8799 17.3509C70.5212 16.9835 70.3418 16.4643 70.3418 15.7932V14.1719H71.3965V15.7932C71.3965 16.5774 71.7805 16.9695 72.5483 16.9695C73.0147 16.9695 73.4093 16.8881 73.7322 16.7257V14.1719H74.787V19.6504H73.7322V17.6582Z" fill="white"/>
<path d="M78.3271 14.0664C79.016 14.0664 79.5577 14.2889 79.9523 14.734C80.3542 15.172 80.5551 15.7866 80.5551 16.5779V19.6509H79.8017L79.5541 18.7926C79.3747 19.068 79.1343 19.2977 78.833 19.4814C78.5316 19.665 78.1692 19.7568 77.746 19.7568C77.3728 19.7568 77.0391 19.6828 76.745 19.5343C76.4507 19.386 76.2211 19.1811 76.0561 18.9197C75.8911 18.6513 75.8086 18.351 75.8086 18.019C75.8086 17.5032 76.0166 17.09 76.4328 16.7792C76.849 16.4684 77.4517 16.3129 78.241 16.3129H79.5003C79.4716 15.8819 79.3496 15.5499 79.1343 15.3168C78.9191 15.0766 78.6321 14.9565 78.2733 14.9565C78.0006 14.9565 77.7602 15.0201 77.5522 15.1472C77.3441 15.2745 77.1862 15.4405 77.0786 15.6453L76.0991 15.4864C76.2427 15.0484 76.519 14.7022 76.928 14.4479C77.337 14.1936 77.8033 14.0664 78.3271 14.0664ZM77.972 18.8774C78.424 18.8774 78.79 18.7326 79.0698 18.4429C79.3568 18.1461 79.5003 17.74 79.5003 17.2242V17.1606H78.2733C77.3405 17.1606 76.8741 17.4362 76.8741 17.9873C76.8741 18.2557 76.9746 18.4712 77.1755 18.6336C77.3763 18.7961 77.6418 18.8774 77.972 18.8774Z" fill="white"/>
<path d="M83.3966 19.6509H81.8359V14.1723H82.8584V18.4853H83.0199L85.2694 14.1723H86.8301V19.6509H85.8076V15.3485H85.6461L83.3966 19.6509ZM84.3438 13.4624C83.8773 13.4624 83.4863 13.3423 83.1706 13.1021C82.8621 12.8548 82.6791 12.4875 82.6217 12H83.4827C83.5186 12.2261 83.6083 12.3991 83.7518 12.5192C83.9024 12.6323 84.0998 12.6888 84.3438 12.6888C84.5877 12.6888 84.7814 12.6323 84.9249 12.5192C85.0757 12.3991 85.1653 12.2261 85.1941 12H86.0659C86.0013 12.4875 85.8112 12.8548 85.4954 13.1021C85.1869 13.3423 84.8029 13.4624 84.3438 13.4624Z" fill="white"/>
<path d="M90.6044 19.6504H89.5497V15.1256H87.623V14.1719H92.531V15.1256H90.6044V19.6504Z" fill="white"/>
<path d="M98.5111 16.8746C98.5111 17.0159 98.5076 17.1253 98.5004 17.2031H93.9045C93.9619 17.6905 94.1556 18.0791 94.4858 18.3686C94.8159 18.6583 95.2356 18.8032 95.745 18.8032C96.0966 18.8032 96.4088 18.736 96.6814 18.6019C96.9613 18.4606 97.173 18.2768 97.3165 18.0508L98.3066 18.2098C98.0914 18.7043 97.7434 19.0858 97.2626 19.3542C96.7891 19.6227 96.2616 19.7568 95.6805 19.7568C95.128 19.7568 94.6329 19.6367 94.1951 19.3966C93.7574 19.1494 93.4166 18.8102 93.1726 18.3794C92.9286 17.9484 92.8066 17.4609 92.8066 16.9169C92.8066 16.366 92.9286 15.8749 93.1726 15.4439C93.4166 15.0131 93.7539 14.6775 94.1844 14.4373C94.6149 14.19 95.1064 14.0664 95.6589 14.0664C96.2043 14.0664 96.6923 14.19 97.1228 14.4373C97.5604 14.6775 97.9013 15.0131 98.1453 15.4439C98.3893 15.8679 98.5111 16.3447 98.5111 16.8746ZM95.6589 14.9884C95.2356 14.9884 94.8696 15.1119 94.5611 15.3592C94.2598 15.6065 94.0588 15.9386 93.9584 16.3553H97.3595C97.2663 15.9456 97.0654 15.6171 96.7568 15.3699C96.4554 15.1155 96.0895 14.9884 95.6589 14.9884Z" fill="white"/>
<path d="M103.252 19.6504H101.691V14.1719H102.714V18.4848H102.875L105.125 14.1719H106.685V19.6504H105.663V15.3481H105.502L103.252 19.6504Z" fill="white"/>
<path d="M111.063 16.8533C111.357 16.9381 111.601 17.0935 111.794 17.3196C111.988 17.5387 112.085 17.8107 112.085 18.1356C112.085 18.4393 111.995 18.7148 111.816 18.9621C111.637 19.2023 111.378 19.3966 111.041 19.5449C110.711 19.6862 110.327 19.7568 109.889 19.7568C109.301 19.7568 108.795 19.6227 108.372 19.3542C107.948 19.0787 107.669 18.7114 107.532 18.2521L108.512 18.0932C108.748 18.6019 109.204 18.8561 109.879 18.8561C110.252 18.8561 110.535 18.789 110.729 18.6548C110.93 18.5135 111.03 18.3193 111.03 18.0719C111.03 17.853 110.937 17.6764 110.75 17.5421C110.571 17.408 110.28 17.3408 109.879 17.3408H109.147V16.4295H109.879C110.223 16.4295 110.485 16.366 110.664 16.2387C110.851 16.1116 110.944 15.942 110.944 15.7301C110.944 15.504 110.844 15.3204 110.643 15.1791C110.449 15.0378 110.209 14.9672 109.922 14.9672C109.642 14.9672 109.391 15.0343 109.168 15.1685C108.946 15.3027 108.777 15.4864 108.662 15.7195L107.683 15.5499C107.848 15.0766 108.131 14.7128 108.533 14.4585C108.942 14.1971 109.416 14.0664 109.954 14.0664C110.341 14.0664 110.689 14.1335 110.998 14.2677C111.314 14.402 111.558 14.5892 111.73 14.8293C111.909 15.0696 111.999 15.338 111.999 15.6347C111.999 15.9386 111.913 16.1964 111.741 16.4083C111.568 16.6202 111.342 16.7686 111.063 16.8533Z" fill="white"/>
<path d="M50.7686 40.9999L57.5726 26.1949H60.2816L67.1696 40.9999H63.8516L62.0666 36.8839L63.3476 37.7869H54.5486L55.8506 36.8839L54.0656 40.9999H50.7686ZM58.9166 29.6389L56.2076 36.0649L55.6406 35.2669H62.2556L61.7726 36.0649L59.0006 29.6389H58.9166Z" fill="white"/>
<path d="M68.2361 45.5359V33.1249C68.2361 32.6769 68.2221 32.2219 68.1941 31.7599C68.1661 31.2839 68.1241 30.8149 68.0681 30.3529H71.1131L71.3651 32.4319H71.1341C71.3441 31.7319 71.7851 31.1789 72.4571 30.7729C73.1291 30.3529 73.8991 30.1429 74.7671 30.1429C75.6911 30.1429 76.5031 30.3669 77.2031 30.8149C77.9031 31.2489 78.4491 31.8789 78.8411 32.7049C79.2471 33.5309 79.4501 34.5179 79.4501 35.6659C79.4501 36.8279 79.2471 37.8219 78.8411 38.6479C78.4491 39.4739 77.9031 40.1109 77.2031 40.5589C76.5031 41.0069 75.6911 41.2309 74.7671 41.2309C73.9131 41.2309 73.1501 41.0279 72.4781 40.6219C71.8201 40.2159 71.3791 39.6769 71.1551 39.0049H71.4071V45.5359H68.2361ZM73.8011 38.8369C74.5431 38.8369 75.1381 38.5779 75.5861 38.0599C76.0341 37.5419 76.2581 36.7439 76.2581 35.6659C76.2581 34.5879 76.0341 33.7969 75.5861 33.2929C75.1381 32.7889 74.5431 32.5369 73.8011 32.5369C73.0731 32.5369 72.4781 32.7889 72.0161 33.2929C71.5681 33.7969 71.3441 34.5879 71.3441 35.6659C71.3441 36.7439 71.5681 37.5419 72.0161 38.0599C72.4781 38.5779 73.0731 38.8369 73.8011 38.8369Z" fill="white"/>
<path d="M81.5047 45.5359V33.1249C81.5047 32.6769 81.4907 32.2219 81.4627 31.7599C81.4347 31.2839 81.3927 30.8149 81.3367 30.3529H84.3817L84.6337 32.4319H84.4027C84.6127 31.7319 85.0537 31.1789 85.7257 30.7729C86.3977 30.3529 87.1677 30.1429 88.0357 30.1429C88.9597 30.1429 89.7717 30.3669 90.4717 30.8149C91.1717 31.2489 91.7177 31.8789 92.1097 32.7049C92.5157 33.5309 92.7187 34.5179 92.7187 35.6659C92.7187 36.8279 92.5157 37.8219 92.1097 38.6479C91.7177 39.4739 91.1717 40.1109 90.4717 40.5589C89.7717 41.0069 88.9597 41.2309 88.0357 41.2309C87.1817 41.2309 86.4187 41.0279 85.7467 40.6219C85.0887 40.2159 84.6477 39.6769 84.4237 39.0049H84.6757V45.5359H81.5047ZM87.0697 38.8369C87.8117 38.8369 88.4067 38.5779 88.8547 38.0599C89.3027 37.5419 89.5267 36.7439 89.5267 35.6659C89.5267 34.5879 89.3027 33.7969 88.8547 33.2929C88.4067 32.7889 87.8117 32.5369 87.0697 32.5369C86.3417 32.5369 85.7467 32.7889 85.2847 33.2929C84.8367 33.7969 84.6127 34.5879 84.6127 35.6659C84.6127 36.7439 84.8367 37.5419 85.2847 38.0599C85.7467 38.5779 86.3417 38.8369 87.0697 38.8369Z" fill="white"/>
<path d="M100.338 41.2309C99.1482 41.2309 98.0352 41.0839 96.9992 40.7899C95.9632 40.4959 95.0812 40.0899 94.3532 39.5719L95.3192 37.0099C95.7952 37.3319 96.2992 37.6049 96.8312 37.8289C97.3632 38.0529 97.9232 38.2279 98.5112 38.3539C99.0992 38.4659 99.7152 38.5219 100.359 38.5219C101.367 38.5219 102.081 38.3679 102.501 38.0599C102.935 37.7519 103.152 37.3599 103.152 36.8839C103.152 36.4499 103.005 36.1209 102.711 35.8969C102.431 35.6589 101.913 35.4559 101.157 35.2879L98.6792 34.7839C97.3212 34.5039 96.3062 34.0279 95.6342 33.3559C94.9622 32.6839 94.6262 31.7879 94.6262 30.6679C94.6262 29.7159 94.8782 28.8899 95.3822 28.1899C95.8862 27.4899 96.5932 26.9439 97.5032 26.5519C98.4272 26.1599 99.5052 25.9639 100.737 25.9639C101.787 25.9639 102.767 26.1109 103.677 26.4049C104.587 26.6989 105.336 27.1189 105.924 27.6649L104.958 30.0589C104.384 29.5969 103.74 29.2539 103.026 29.0299C102.326 28.7919 101.542 28.6729 100.674 28.6729C99.7642 28.6729 99.0642 28.8339 98.5742 29.1559C98.0982 29.4779 97.8602 29.9189 97.8602 30.4789C97.8602 30.8989 98.0072 31.2419 98.3012 31.5079C98.5952 31.7599 99.1132 31.9629 99.8552 32.1169L102.291 32.5999C103.677 32.8799 104.706 33.3489 105.378 34.0069C106.05 34.6649 106.386 35.5399 106.386 36.6319C106.386 37.5559 106.134 38.3609 105.63 39.0469C105.14 39.7329 104.44 40.2719 103.53 40.6639C102.634 41.0419 101.57 41.2309 100.338 41.2309Z" fill="white"/>
<path d="M113.429 41.2309C112.043 41.2309 111 40.8879 110.3 40.2019C109.6 39.5019 109.25 38.4589 109.25 37.0729V32.7259H107.234V30.3529H109.25V27.7489L112.421 26.9719V30.3529H115.151V32.7259H112.421V36.9049C112.421 37.5769 112.561 38.0389 112.841 38.2909C113.121 38.5429 113.478 38.6689 113.912 38.6689C114.178 38.6689 114.395 38.6549 114.563 38.6269C114.745 38.5849 114.934 38.5289 115.13 38.4589V40.9159C114.864 41.0279 114.584 41.1049 114.29 41.1469C113.996 41.2029 113.709 41.2309 113.429 41.2309Z" fill="white"/>
<path d="M121.716 41.2309C120.582 41.2309 119.595 41.0069 118.755 40.5589C117.929 40.0969 117.285 39.4529 116.823 38.6269C116.375 37.8009 116.151 36.8139 116.151 35.6659C116.151 34.5319 116.375 33.5519 116.823 32.7259C117.285 31.8999 117.929 31.2629 118.755 30.8149C119.595 30.3669 120.582 30.1429 121.716 30.1429C122.85 30.1429 123.837 30.3669 124.677 30.8149C125.517 31.2629 126.161 31.8999 126.609 32.7259C127.071 33.5519 127.302 34.5319 127.302 35.6659C127.302 36.8139 127.071 37.8009 126.609 38.6269C126.161 39.4529 125.517 40.0969 124.677 40.5589C123.837 41.0069 122.85 41.2309 121.716 41.2309ZM121.716 38.8369C122.444 38.8369 123.018 38.5779 123.438 38.0599C123.872 37.5419 124.089 36.7439 124.089 35.6659C124.089 34.5879 123.872 33.7969 123.438 33.2929C123.018 32.7889 122.444 32.5369 121.716 32.5369C120.988 32.5369 120.407 32.7889 119.973 33.2929C119.553 33.7969 119.343 34.5879 119.343 35.6659C119.343 36.7439 119.553 37.5419 119.973 38.0599C120.407 38.5779 120.988 38.8369 121.716 38.8369Z" fill="white"/>
<path d="M129.328 40.9999V33.1669C129.328 32.7049 129.314 32.2359 129.286 31.7599C129.272 31.2839 129.237 30.8149 129.181 30.3529H132.226L132.583 33.4609H132.1C132.24 32.7049 132.464 32.0819 132.772 31.5919C133.094 31.1019 133.486 30.7379 133.948 30.4999C134.424 30.2619 134.963 30.1429 135.565 30.1429C135.831 30.1429 136.041 30.1569 136.195 30.1849C136.349 30.1989 136.503 30.2339 136.657 30.2899L136.636 33.0829C136.342 32.9569 136.09 32.8799 135.88 32.8519C135.684 32.8099 135.432 32.7889 135.124 32.7889C134.536 32.7889 134.046 32.9009 133.654 33.1249C133.276 33.3489 132.989 33.6779 132.793 34.1119C132.611 34.5459 132.52 35.0709 132.52 35.6869V40.9999H129.328Z" fill="white"/>
<path d="M143.154 41.2309C141.306 41.2309 139.864 40.7339 138.828 39.7399C137.792 38.7459 137.274 37.3949 137.274 35.6869C137.274 34.5809 137.491 33.6149 137.925 32.7889C138.373 31.9629 138.989 31.3189 139.773 30.8569C140.571 30.3809 141.502 30.1429 142.566 30.1429C143.616 30.1429 144.491 30.3669 145.191 30.8149C145.905 31.2629 146.437 31.8929 146.787 32.7049C147.151 33.5029 147.333 34.4339 147.333 35.4979V36.2329H139.878V34.6579H145.023L144.666 34.9519C144.666 34.0699 144.484 33.4049 144.12 32.9569C143.77 32.4949 143.259 32.2639 142.587 32.2639C141.845 32.2639 141.271 32.5369 140.865 33.0829C140.473 33.6289 140.277 34.4129 140.277 35.4349V35.7709C140.277 36.8069 140.529 37.5769 141.033 38.0809C141.551 38.5849 142.293 38.8369 143.259 38.8369C143.833 38.8369 144.372 38.7669 144.876 38.6269C145.394 38.4729 145.884 38.2349 146.346 37.9129L147.228 40.0129C146.696 40.4049 146.08 40.7059 145.38 40.9159C144.694 41.1259 143.952 41.2309 143.154 41.2309Z" fill="white"/>
<path d="M34.8807 27.9539C34.8458 24.1639 38.0593 22.32 38.2063 22.2342C36.3863 19.6436 33.5655 19.2896 32.5742 19.2614C30.205 19.018 27.9069 20.6455 26.7 20.6455C25.469 20.6455 23.6105 19.2849 21.6075 19.3249C19.03 19.3637 16.6186 20.8207 15.2961 23.0832C12.5668 27.6964 14.6023 34.4757 17.2172 38.2046C18.5253 40.0308 20.0538 42.0699 22.0544 41.9982C24.0116 41.9194 24.7427 40.7799 27.1047 40.7799C29.445 40.7799 30.1315 41.9982 32.1719 41.9523C34.2725 41.9194 35.595 40.1178 36.8573 38.2751C38.3689 36.182 38.9759 34.1206 39 34.0147C38.9506 33.9983 34.9205 32.4966 34.8807 27.9539Z" fill="white"/>
<path d="M31.0264 16.8084C32.0791 15.5231 32.7994 13.7745 32.5995 12C31.0758 12.0659 29.1704 13.0289 28.0731 14.286C27.1023 15.3938 26.2351 17.2094 26.4591 18.9169C28.1707 19.0415 29.928 18.0737 31.0264 16.8084Z" fill="white"/>
</svg>
