<svg id="Bread" width="20" height="16" viewBox="0 0 20 16" fill="none" xmlns="http://www.w3.org/2000/svg">
<path d="M7.47974 15.9269H18.2115C18.6605 15.9269 19.0245 15.5629 19.0245 15.1139V5.49207C19.0245 5.16859 19.1476 4.85461 19.377 4.62648C19.7776 4.22805 20 3.78797 20 3.32527C20 1.52922 16.6513 0.0732422 12.5204 0.0732422H7.47974V15.9269Z" fill="#B78B7A"></path>
<path d="M17.2786 8.22865C14.3932 11.1141 10.7396 12.5706 7.47974 12.4542V15.9269H18.2115C18.6605 15.9269 19.0245 15.5629 19.0245 15.1139V6.15283C18.5174 6.87537 17.9352 7.57201 17.2786 8.22865Z" fill="#AA7A63"></path>
<path d="M14.9593 3.32527C14.9593 1.52922 11.6106 0.0732422 7.47965 0.0732422C3.34871 0.0732422 0 1.52922 0 3.32527C0 3.78797 0.222383 4.22801 0.623047 4.62648C0.852422 4.85461 0.975586 5.16859 0.975586 5.49207V15.1139C0.975586 15.5629 1.33957 15.9269 1.78859 15.9269H13.1707C13.6197 15.9269 13.9837 15.5629 13.9837 15.1139V5.49207C13.9837 5.16859 14.1069 4.85461 14.3362 4.62648C14.737 4.22805 14.9593 3.78797 14.9593 3.32527Z" fill="#E7A561"></path>
<path d="M14.9593 3.32527C14.9593 1.52922 11.6106 0.0732422 7.47965 0.0732422C3.34871 0.0732422 0 1.52922 0 3.32527C0 3.78797 0.222383 4.22801 0.623047 4.62648C0.852422 4.85461 0.975586 5.16859 0.975586 5.49207V15.1139C0.975586 15.5629 1.33957 15.9269 1.78859 15.9269H13.1707C13.6197 15.9269 13.9837 15.5629 13.9837 15.1139V5.49207C13.9837 5.16859 14.1069 4.85461 14.3362 4.62648C14.737 4.22805 14.9593 3.78797 14.9593 3.32527Z" fill="#E7A561"></path>
<path d="M12.4004 10.5221C9.02347 13.8991 4.59434 15.3193 0.975586 14.5506V15.1136C0.975586 15.5626 1.33957 15.9266 1.78859 15.9266H13.1707C13.6197 15.9266 13.9837 15.5626 13.9837 15.1136V8.67383C13.5159 9.3152 12.9879 9.93465 12.4004 10.5221Z" fill="#E49542"></path>
<path d="M2.27641 14.6261V5.49203C2.27641 4.82098 2.00812 4.1693 1.54031 3.7041C1.36371 3.52848 1.30078 3.39324 1.30078 3.32523C1.30078 3.16398 1.64512 2.68137 2.70937 2.21863C3.94394 1.68187 5.68262 1.37402 7.47961 1.37402C9.2766 1.37402 11.0153 1.68187 12.2499 2.21863C13.3141 2.68137 13.6585 3.16398 13.6585 3.32523C13.6585 3.3932 13.5955 3.52848 13.4189 3.7041C12.9512 4.1693 12.6829 4.82098 12.6829 5.49203V14.6261H2.27641V14.6261Z" fill="#F1D0A5"></path>
<path d="M12.4004 10.5221C10.0997 12.8228 7.31059 14.215 4.62207 14.6257H12.6829V10.2314C12.5901 10.3291 12.4964 10.4262 12.4004 10.5221Z" fill="#F1B986"></path>
</svg>