<svg id="Broccoli" width="20" height="19" viewBox="0 0 20 19" fill="none" xmlns="http://www.w3.org/2000/svg">
<path d="M12.7266 9.25732L11.8125 11.1626C11.1016 11.4997 10.1797 11.1058 9.86719 10.6588L9.72656 9.8899C9.93359 9.9202 10.1445 9.93535 10.3594 9.93535C11.2148 9.93914 12.0234 9.69293 12.7266 9.25732V9.25732Z" fill="#4E7A25"></path>
<path d="M7.04688 8.42822C7.35156 8.75019 7.68359 9.0305 8.03906 9.25777C7.86328 10.3941 6.37109 10.9699 5.45703 10.2199C5.25 9.82974 5.10938 9.5608 5.10156 9.54565C5.58984 9.53428 6.07812 9.3714 6.49219 9.04943C6.72266 8.86762 6.91016 8.65928 7.04688 8.42822Z" fill="#3B601C"></path>
<path d="M3.19137 9.53397L4.47262 11.9241L4.45699 11.9317C3.61324 12.3105 2.61324 11.9506 2.22262 11.1325C1.98043 10.6211 2.03512 10.0491 2.31246 9.60215L2.3398 9.49609C2.39059 9.50746 2.44527 9.51882 2.49996 9.53019C2.73434 9.56806 2.96871 9.56806 3.19137 9.53397V9.53397Z" fill="#3B601C"></path>
<path d="M2.61326 10.7537C2.42576 10.3559 2.41405 9.92034 2.55076 9.53776C2.53123 9.53397 2.51561 9.53397 2.49608 9.53019C2.44139 9.52261 2.39061 9.51125 2.33592 9.49609L2.30858 9.60215C2.02733 10.0491 1.97655 10.6211 2.21873 11.1325C2.60545 11.9506 3.60545 12.3105 4.45311 11.9317L4.47264 11.9241L4.34764 11.6931C3.64061 11.7764 2.92967 11.4166 2.61326 10.7537Z" fill="#4D841E"></path>
<path d="M7.45703 8.81836C7.20312 9.71609 6.10156 10.1971 5.25 9.81836C5.30859 9.92821 5.37891 10.0608 5.46094 10.2161C6.37109 10.9661 7.86328 10.3941 8.04297 9.25397C7.83984 9.12897 7.64453 8.98124 7.45703 8.81836V8.81836Z" fill="#315112"></path>
<path d="M9.72656 9.90527L9.86328 10.6591C10.1719 11.106 11.0977 11.5 11.8086 11.1629L12.1563 10.4356C11.2734 10.7235 10.1914 10.3598 9.72656 9.90527Z" fill="#2C4415"></path>
<path d="M12.9609 8.72705L10.457 13.9089L9.72656 9.88993C9.125 9.79902 8.55078 9.58311 8.04297 9.25357L8.35937 12.9467C8.36328 13.7914 7.53906 14.0263 7.12891 13.3142L4.80469 8.96948L3.17188 9.49978L7.58984 17.7574C7.83984 18.3748 8.45312 18.7839 9.14453 18.7839H10.9453C11.6758 18.7839 12.3008 18.3142 12.5391 17.6437C13.1836 15.8407 13.7109 14.0074 15.3516 11.6475L16.7695 9.65508L12.9609 8.72705Z" fill="#CADD78"></path>
<path d="M11.5898 18.5003H9.78906C9.10156 18.5003 8.48438 18.0912 8.23438 17.4738L3.87109 9.30713L3.19141 9.53061L7.58984 17.7579C7.83984 18.3753 8.45313 18.7844 9.14453 18.7844H10.9453C11.3008 18.7844 11.6484 18.6708 11.9336 18.4624C11.8203 18.4889 11.707 18.5003 11.5898 18.5003V18.5003Z" fill="#ADBC55"></path>
<path d="M8.74609 9.62145C8.5 9.51918 8.26563 9.39796 8.04297 9.25781L8.35938 12.951C8.36328 13.1177 8.32422 13.2843 8.24609 13.4321C8.6211 13.5343 9.00781 13.2427 9.00781 12.6631L8.74609 9.62145Z" fill="#ADBC55"></path>
<path d="M13.0391 8.50391L10.4609 13.9168L10.5742 14.5342C10.6211 14.8903 10.7734 14.9584 10.9453 14.9054C11.0898 14.8637 11.1992 14.7501 11.2539 14.6137L14.0117 8.50769L13.0391 8.50391Z" fill="#ADBC55"></path>
<path d="M3.46095 5.90923C2.70705 6.6971 2.62502 7.90544 3.32424 8.75013C3.50392 8.96604 3.71486 9.1365 3.94924 9.26529C3.52736 9.50771 3.01955 9.61377 2.50002 9.52665C1.33986 9.33726 0.55861 8.26907 0.753923 7.14407C0.949235 6.01907 2.0508 5.2615 3.21095 5.45089L3.26564 5.43574C3.31252 5.60241 3.37502 5.75771 3.46095 5.90923V5.90923Z" fill="#3B601C"></path>
<path d="M16.211 9.60573C15.7032 9.80648 15.1446 9.833 14.6251 9.69285C14.1993 9.57921 13.8008 9.34815 13.4805 9.01103C13.4219 8.95042 13.3711 8.88982 13.3204 8.82542L13.3126 8.82921C12.4883 9.52618 11.4649 9.93906 10.3594 9.93906C9.05474 9.93906 7.93364 9.36709 7.05083 8.4277C6.91021 8.65876 6.72661 8.86709 6.50005 9.04512C5.74614 9.63224 4.73052 9.69285 3.95318 9.26482C3.7188 9.13603 3.50786 8.96557 3.32818 8.74967C2.63286 7.90876 2.71099 6.70042 3.46489 5.90876C3.37896 5.75724 3.31646 5.60194 3.26958 5.43906C2.80865 3.76482 4.51177 1.6777 6.78911 2.87845C8.07427 -0.458668 12.8282 0.261029 13.8907 2.59057C15.5274 1.81027 17.2813 3.41633 16.668 4.67012H16.7266C18.086 4.67012 19.1876 5.7383 19.1876 7.0527C19.1876 7.48451 19.0665 7.8936 18.8594 8.24209C19.1172 8.50724 19.2774 8.87088 19.2774 9.26482C19.2774 10.0906 18.586 10.761 17.7344 10.761C17.0313 10.761 16.3985 10.2232 16.211 9.60573V9.60573Z" fill="#4D841E"></path>
<path d="M17.7305 9.24618C17.0313 9.24618 16.3985 8.7083 16.207 8.08709C15.6992 8.28785 15.1406 8.31436 14.6211 8.17421C14.1953 8.06058 13.7969 7.8333 13.4766 7.49239C13.418 7.43179 13.3672 7.37118 13.3164 7.30679L13.3086 7.31058C12.4844 8.00754 11.461 8.42042 10.3555 8.42042C9.0508 8.42042 7.9297 7.84845 7.04689 6.90906C6.90627 7.14012 6.72267 7.34845 6.49611 7.52648C5.7422 8.11361 4.72658 8.17421 3.94924 7.74618C3.71486 7.61739 3.50002 7.44694 3.32424 7.23103C3.1758 7.053 3.06642 6.85982 2.98439 6.65527C2.72267 7.34845 2.82033 8.14012 3.32424 8.74618C3.50392 8.96209 3.71486 9.13254 3.94924 9.26133C4.72658 9.68557 5.7422 9.62876 6.49611 9.04163C6.72267 8.8636 6.91017 8.65527 7.04689 8.42421C7.9297 9.35982 9.0508 9.93557 10.3555 9.93557C11.461 9.93557 12.4844 9.5227 13.3086 8.82573L13.3164 8.82194C13.3672 8.88633 13.418 8.94694 13.4766 9.00754C13.7969 9.34467 14.1953 9.57194 14.6211 9.68936C15.1406 9.82951 15.6992 9.803 16.207 9.60224C16.3945 10.2235 17.0274 10.7613 17.7305 10.7613C18.582 10.7613 19.2735 10.0909 19.2735 9.26512C19.2735 8.9886 19.1953 8.73103 19.0625 8.50754C18.793 8.95073 18.3008 9.24618 17.7305 9.24618V9.24618Z" fill="#67A829"></path>
<path d="M3.35158 8.78023C3.32814 8.77644 3.3047 8.77265 3.28127 8.76887C2.12111 8.57947 1.33986 7.51129 1.53517 6.38629C1.57814 6.13629 1.66799 5.90523 1.78908 5.70068C1.25783 5.99614 0.863298 6.51508 0.753923 7.14387C0.55861 8.26887 1.33986 9.33705 2.50002 9.52644C3.01955 9.60977 3.52736 9.5075 3.94924 9.26508C3.72658 9.14387 3.52345 8.98099 3.35158 8.78023V8.78023Z" fill="#4D841E"></path>
</svg>