<svg width="811" height="328" viewBox="0 0 811 328" fill="none" xmlns="http://www.w3.org/2000/svg">
<path d="M802 0.5H8C3.85786 0.5 0.5 3.85786 0.5 8V292C0.5 296.142 3.85786 299.5 8 299.5H802C806.142 299.5 809.5 296.142 809.5 292V8C809.5 3.85786 806.142 0.5 802 0.5Z" fill="#D9D9D9" fill-opacity="0.01" stroke="#F0F2F5"/>
<path d="M4.20003 324.126C3.08003 324.126 2.22136 323.692 1.62403 322.824C1.0267 321.956 0.728027 320.701 0.728027 319.058C0.728027 317.406 1.0267 316.151 1.62403 315.292C2.22136 314.433 3.08003 314.004 4.20003 314.004C5.32936 314.004 6.18803 314.433 6.77603 315.292C7.37336 316.151 7.67203 317.401 7.67203 319.044C7.67203 320.696 7.37336 321.956 6.77603 322.824C6.1787 323.692 5.32003 324.126 4.20003 324.126ZM4.20003 323.118C4.98403 323.118 5.56736 322.787 5.95003 322.124C6.3327 321.461 6.52403 320.435 6.52403 319.044C6.52403 317.644 6.3327 316.622 5.95003 315.978C5.56736 315.325 4.98403 314.998 4.20003 314.998C3.42536 314.998 2.84203 315.325 2.45003 315.978C2.06736 316.631 1.87603 317.653 1.87603 319.044C1.87603 320.435 2.06736 321.461 2.45003 322.124C2.84203 322.787 3.42536 323.118 4.20003 323.118ZM12.5385 324.126C11.8759 324.126 11.2412 324.023 10.6345 323.818C10.0279 323.613 9.51923 323.319 9.10856 322.936L9.54256 322.04C9.99989 322.413 10.4712 322.684 10.9565 322.852C11.4419 323.02 11.9645 323.104 12.5245 323.104C13.2619 323.104 13.8219 322.95 14.2045 322.642C14.5872 322.325 14.7785 321.863 14.7785 321.256C14.7785 320.677 14.5825 320.239 14.1905 319.94C13.7985 319.632 13.2245 319.478 12.4685 319.478H10.9845V318.512H12.3705C13.0239 318.512 13.5419 318.344 13.9245 318.008C14.3072 317.672 14.4985 317.215 14.4985 316.636C14.4985 316.113 14.3212 315.717 13.9665 315.446C13.6212 315.166 13.1219 315.026 12.4685 315.026C11.4045 315.026 10.4852 315.404 9.71056 316.16L9.27656 315.25C9.65923 314.858 10.1399 314.555 10.7185 314.34C11.2972 314.116 11.9039 314.004 12.5385 314.004C13.5092 314.004 14.2699 314.228 14.8205 314.676C15.3712 315.124 15.6465 315.745 15.6465 316.538C15.6465 317.145 15.4739 317.667 15.1285 318.106C14.7832 318.535 14.3165 318.829 13.7285 318.988V318.834C14.4285 318.946 14.9699 319.226 15.3525 319.674C15.7352 320.113 15.9265 320.668 15.9265 321.34C15.9265 322.199 15.6232 322.88 15.0165 323.384C14.4192 323.879 13.5932 324.126 12.5385 324.126ZM21.5595 324V316.972H22.5115L25.1435 321.69L27.7895 316.972H28.7415V324H27.7335V318.232H28.0275L25.4375 322.866H24.8635L22.2595 318.218H22.5675V324H21.5595ZM33.7094 324.126C33.084 324.126 32.538 323.981 32.0714 323.692C31.6047 323.393 31.2407 322.973 30.9794 322.432C30.7274 321.891 30.6014 321.242 30.6014 320.486C30.6014 319.721 30.7274 319.067 30.9794 318.526C31.2407 317.985 31.6047 317.569 32.0714 317.28C32.538 316.991 33.084 316.846 33.7094 316.846C34.344 316.846 34.89 317.009 35.3474 317.336C35.814 317.653 36.122 318.087 36.2714 318.638H36.1034L36.2574 316.972H37.3494C37.3214 317.243 37.2934 317.518 37.2654 317.798C37.2467 318.069 37.2374 318.335 37.2374 318.596V324H36.1034V322.348H36.2574C36.108 322.899 35.8 323.333 35.3334 323.65C34.8667 323.967 34.3254 324.126 33.7094 324.126ZM33.9334 323.202C34.6054 323.202 35.1374 322.973 35.5294 322.516C35.9214 322.049 36.1174 321.373 36.1174 320.486C36.1174 319.59 35.9214 318.913 35.5294 318.456C35.1374 317.989 34.6054 317.756 33.9334 317.756C33.2707 317.756 32.7387 317.989 32.3374 318.456C31.9454 318.913 31.7494 319.59 31.7494 320.486C31.7494 321.373 31.9454 322.049 32.3374 322.516C32.7387 322.973 33.2707 323.202 33.9334 323.202ZM38.9643 324L40.0843 322.068C40.2616 321.76 40.4856 321.513 40.7563 321.326C41.027 321.13 41.3116 321.032 41.6103 321.032H41.8063L41.7923 321.158C40.999 321.158 40.383 320.981 39.9443 320.626C39.5056 320.262 39.2863 319.739 39.2863 319.058C39.2863 318.405 39.501 317.896 39.9303 317.532C40.3596 317.159 40.999 316.972 41.8483 316.972H44.9703V324H43.9063V321.284H42.8563C42.4643 321.284 42.133 321.382 41.8623 321.578C41.5916 321.774 41.363 322.021 41.1763 322.32L40.2243 324H38.9643ZM42.0443 320.486H43.9063V317.756H42.0443C41.475 317.756 41.0503 317.877 40.7703 318.12C40.4996 318.363 40.3643 318.694 40.3643 319.114C40.3643 319.553 40.4996 319.893 40.7703 320.136C41.0503 320.369 41.475 320.486 42.0443 320.486ZM50.9423 324V323.132L54.4423 319.478C54.8996 319.002 55.2403 318.549 55.4643 318.12C55.6976 317.681 55.8143 317.229 55.8143 316.762C55.8143 316.193 55.6369 315.763 55.2823 315.474C54.9276 315.175 54.4143 315.026 53.7423 315.026C53.2196 315.026 52.7343 315.119 52.2863 315.306C51.8476 315.483 51.4229 315.768 51.0123 316.16L50.5923 315.25C50.9656 314.877 51.4416 314.578 52.0203 314.354C52.5989 314.121 53.2103 314.004 53.8543 314.004C54.8529 314.004 55.6229 314.237 56.1643 314.704C56.7056 315.161 56.9763 315.815 56.9763 316.664C56.9763 317.289 56.8223 317.887 56.5143 318.456C56.2156 319.016 55.7769 319.595 55.1983 320.192L52.1043 323.328V323.006H57.3963V324H50.9423ZM62.3328 324.126C61.2128 324.126 60.3541 323.692 59.7568 322.824C59.1595 321.956 58.8608 320.701 58.8608 319.058C58.8608 317.406 59.1595 316.151 59.7568 315.292C60.3541 314.433 61.2128 314.004 62.3328 314.004C63.4621 314.004 64.3208 314.433 64.9088 315.292C65.5061 316.151 65.8048 317.401 65.8048 319.044C65.8048 320.696 65.5061 321.956 64.9088 322.824C64.3115 323.692 63.4528 324.126 62.3328 324.126ZM62.3328 323.118C63.1168 323.118 63.7001 322.787 64.0828 322.124C64.4655 321.461 64.6568 320.435 64.6568 319.044C64.6568 317.644 64.4655 316.622 64.0828 315.978C63.7001 315.325 63.1168 314.998 62.3328 314.998C61.5581 314.998 60.9748 315.325 60.5828 315.978C60.2001 316.631 60.0088 317.653 60.0088 319.044C60.0088 320.435 60.2001 321.461 60.5828 322.124C60.9748 322.787 61.5581 323.118 62.3328 323.118ZM67.7313 324V323.132L71.2313 319.478C71.6887 319.002 72.0293 318.549 72.2533 318.12C72.4867 317.681 72.6033 317.229 72.6033 316.762C72.6033 316.193 72.426 315.763 72.0713 315.474C71.7167 315.175 71.2033 315.026 70.5313 315.026C70.0087 315.026 69.5233 315.119 69.0753 315.306C68.6367 315.483 68.212 315.768 67.8013 316.16L67.3813 315.25C67.7547 314.877 68.2307 314.578 68.8093 314.354C69.388 314.121 69.9993 314.004 70.6433 314.004C71.642 314.004 72.412 314.237 72.9533 314.704C73.4947 315.161 73.7653 315.815 73.7653 316.664C73.7653 317.289 73.6113 317.887 73.3033 318.456C73.0047 319.016 72.566 319.595 71.9873 320.192L68.8933 323.328V323.006H74.1853V324H67.7313ZM79.0659 324.126C78.4032 324.126 77.7685 324.023 77.1619 323.818C76.5552 323.613 76.0465 323.319 75.6359 322.936L76.0699 322.04C76.5272 322.413 76.9985 322.684 77.4839 322.852C77.9692 323.02 78.4919 323.104 79.0519 323.104C79.7892 323.104 80.3492 322.95 80.7319 322.642C81.1145 322.325 81.3059 321.863 81.3059 321.256C81.3059 320.677 81.1099 320.239 80.7179 319.94C80.3259 319.632 79.7519 319.478 78.9959 319.478H77.5119V318.512H78.8979C79.5512 318.512 80.0692 318.344 80.4519 318.008C80.8345 317.672 81.0259 317.215 81.0259 316.636C81.0259 316.113 80.8485 315.717 80.4939 315.446C80.1485 315.166 79.6492 315.026 78.9959 315.026C77.9319 315.026 77.0125 315.404 76.2379 316.16L75.8039 315.25C76.1865 314.858 76.6672 314.555 77.2459 314.34C77.8245 314.116 78.4312 314.004 79.0659 314.004C80.0365 314.004 80.7972 314.228 81.3479 314.676C81.8985 315.124 82.1739 315.745 82.1739 316.538C82.1739 317.145 82.0012 317.667 81.6559 318.106C81.3105 318.535 80.8439 318.829 80.2559 318.988V318.834C80.9559 318.946 81.4972 319.226 81.8799 319.674C82.2625 320.113 82.4539 320.668 82.4539 321.34C82.4539 322.199 82.1505 322.88 81.5439 323.384C80.9465 323.879 80.1205 324.126 79.0659 324.126Z" fill="#7B8794"/>
<path d="M720.2 324.126C719.08 324.126 718.221 323.692 717.624 322.824C717.027 321.956 716.728 320.701 716.728 319.058C716.728 317.406 717.027 316.151 717.624 315.292C718.221 314.433 719.08 314.004 720.2 314.004C721.329 314.004 722.188 314.433 722.776 315.292C723.373 316.151 723.672 317.401 723.672 319.044C723.672 320.696 723.373 321.956 722.776 322.824C722.179 323.692 721.32 324.126 720.2 324.126ZM720.2 323.118C720.984 323.118 721.567 322.787 721.95 322.124C722.333 321.461 722.524 320.435 722.524 319.044C722.524 317.644 722.333 316.622 721.95 315.978C721.567 315.325 720.984 314.998 720.2 314.998C719.425 314.998 718.842 315.325 718.45 315.978C718.067 316.631 717.876 317.653 717.876 319.044C717.876 320.435 718.067 321.461 718.45 322.124C718.842 322.787 719.425 323.118 720.2 323.118ZM728.539 324.126C727.876 324.126 727.241 324.023 726.635 323.818C726.028 323.613 725.519 323.319 725.109 322.936L725.543 322.04C726 322.413 726.471 322.684 726.957 322.852C727.442 323.02 727.965 323.104 728.525 323.104C729.262 323.104 729.822 322.95 730.205 322.642C730.587 322.325 730.779 321.863 730.779 321.256C730.779 320.677 730.583 320.239 730.191 319.94C729.799 319.632 729.225 319.478 728.469 319.478H726.985V318.512H728.371C729.024 318.512 729.542 318.344 729.925 318.008C730.307 317.672 730.499 317.215 730.499 316.636C730.499 316.113 730.321 315.717 729.967 315.446C729.621 315.166 729.122 315.026 728.469 315.026C727.405 315.026 726.485 315.404 725.711 316.16L725.277 315.25C725.659 314.858 726.14 314.555 726.719 314.34C727.297 314.116 727.904 314.004 728.539 314.004C729.509 314.004 730.27 314.228 730.821 314.676C731.371 315.124 731.647 315.745 731.647 316.538C731.647 317.145 731.474 317.667 731.129 318.106C730.783 318.535 730.317 318.829 729.729 318.988V318.834C730.429 318.946 730.97 319.226 731.353 319.674C731.735 320.113 731.927 320.668 731.927 321.34C731.927 322.199 731.623 322.88 731.017 323.384C730.419 323.879 729.593 324.126 728.539 324.126ZM737.559 324V316.972H738.595V322.95H738.217L742.697 316.972H743.649V324H742.627V318.008H743.005L738.525 324H737.559ZM751.724 324.126C750.762 324.126 749.988 323.832 749.4 323.244C748.812 322.656 748.48 321.849 748.406 320.822H746.992V324H745.886V316.972H746.992V319.912H748.42C748.532 318.951 748.877 318.199 749.456 317.658C750.044 317.117 750.8 316.846 751.724 316.846C752.396 316.846 752.979 316.991 753.474 317.28C753.978 317.569 754.365 317.989 754.636 318.54C754.916 319.081 755.056 319.73 755.056 320.486C755.056 321.233 754.916 321.881 754.636 322.432C754.365 322.973 753.978 323.393 753.474 323.692C752.979 323.981 752.396 324.126 751.724 324.126ZM751.724 323.216C752.386 323.216 752.918 322.987 753.32 322.53C753.721 322.063 753.922 321.382 753.922 320.486C753.922 319.59 753.721 318.913 753.32 318.456C752.918 317.989 752.386 317.756 751.724 317.756C751.052 317.756 750.515 317.989 750.114 318.456C749.722 318.913 749.526 319.59 749.526 320.486C749.526 321.382 749.722 322.063 750.114 322.53C750.515 322.987 751.052 323.216 751.724 323.216ZM756.905 324V316.972H758.039V319.912H761.903V316.972H763.037V324H761.903V320.822H758.039V324H756.905ZM764.712 324L765.832 322.068C766.01 321.76 766.234 321.513 766.504 321.326C766.775 321.13 767.06 321.032 767.358 321.032H767.554L767.54 321.158C766.747 321.158 766.131 320.981 765.692 320.626C765.254 320.262 765.034 319.739 765.034 319.058C765.034 318.405 765.249 317.896 765.678 317.532C766.108 317.159 766.747 316.972 767.596 316.972H770.718V324H769.654V321.284H768.604C768.212 321.284 767.881 321.382 767.61 321.578C767.34 321.774 767.111 322.021 766.924 322.32L765.972 324H764.712ZM767.792 320.486H769.654V317.756H767.792C767.223 317.756 766.798 317.877 766.518 318.12C766.248 318.363 766.112 318.694 766.112 319.114C766.112 319.553 766.248 319.893 766.518 320.136C766.798 320.369 767.223 320.486 767.792 320.486ZM776.69 324V323.132L780.19 319.478C780.648 319.002 780.988 318.549 781.212 318.12C781.446 317.681 781.562 317.229 781.562 316.762C781.562 316.193 781.385 315.763 781.03 315.474C780.676 315.175 780.162 315.026 779.49 315.026C778.968 315.026 778.482 315.119 778.034 315.306C777.596 315.483 777.171 315.768 776.76 316.16L776.34 315.25C776.714 314.877 777.19 314.578 777.768 314.354C778.347 314.121 778.958 314.004 779.602 314.004C780.601 314.004 781.371 314.237 781.912 314.704C782.454 315.161 782.724 315.815 782.724 316.664C782.724 317.289 782.57 317.887 782.262 318.456C781.964 319.016 781.525 319.595 780.946 320.192L777.852 323.328V323.006H783.144V324H776.69ZM788.081 324.126C786.961 324.126 786.102 323.692 785.505 322.824C784.908 321.956 784.609 320.701 784.609 319.058C784.609 317.406 784.908 316.151 785.505 315.292C786.102 314.433 786.961 314.004 788.081 314.004C789.21 314.004 790.069 314.433 790.657 315.292C791.254 316.151 791.553 317.401 791.553 319.044C791.553 320.696 791.254 321.956 790.657 322.824C790.06 323.692 789.201 324.126 788.081 324.126ZM788.081 323.118C788.865 323.118 789.448 322.787 789.831 322.124C790.214 321.461 790.405 320.435 790.405 319.044C790.405 317.644 790.214 316.622 789.831 315.978C789.448 315.325 788.865 314.998 788.081 314.998C787.306 314.998 786.723 315.325 786.331 315.978C785.948 316.631 785.757 317.653 785.757 319.044C785.757 320.435 785.948 321.461 786.331 322.124C786.723 322.787 787.306 323.118 788.081 323.118ZM793.479 324V323.132L796.979 319.478C797.437 319.002 797.777 318.549 798.001 318.12C798.235 317.681 798.351 317.229 798.351 316.762C798.351 316.193 798.174 315.763 797.819 315.474C797.465 315.175 796.951 315.026 796.279 315.026C795.757 315.026 795.271 315.119 794.823 315.306C794.385 315.483 793.96 315.768 793.549 316.16L793.129 315.25C793.503 314.877 793.979 314.578 794.557 314.354C795.136 314.121 795.747 314.004 796.391 314.004C797.39 314.004 798.16 314.237 798.701 314.704C799.243 315.161 799.513 315.815 799.513 316.664C799.513 317.289 799.359 317.887 799.051 318.456C798.753 319.016 798.314 319.595 797.735 320.192L794.641 323.328V323.006H799.933V324H793.479ZM804.814 324.126C804.151 324.126 803.517 324.023 802.91 323.818C802.303 323.613 801.795 323.319 801.384 322.936L801.818 322.04C802.275 322.413 802.747 322.684 803.232 322.852C803.717 323.02 804.24 323.104 804.8 323.104C805.537 323.104 806.097 322.95 806.48 322.642C806.863 322.325 807.054 321.863 807.054 321.256C807.054 320.677 806.858 320.239 806.466 319.94C806.074 319.632 805.5 319.478 804.744 319.478H803.26V318.512H804.646C805.299 318.512 805.817 318.344 806.2 318.008C806.583 317.672 806.774 317.215 806.774 316.636C806.774 316.113 806.597 315.717 806.242 315.446C805.897 315.166 805.397 315.026 804.744 315.026C803.68 315.026 802.761 315.404 801.986 316.16L801.552 315.25C801.935 314.858 802.415 314.555 802.994 314.34C803.573 314.116 804.179 314.004 804.814 314.004C805.785 314.004 806.545 314.228 807.096 314.676C807.647 315.124 807.922 315.745 807.922 316.538C807.922 317.145 807.749 317.667 807.404 318.106C807.059 318.535 806.592 318.829 806.004 318.988V318.834C806.704 318.946 807.245 319.226 807.628 319.674C808.011 320.113 808.202 320.668 808.202 321.34C808.202 322.199 807.899 322.88 807.292 323.384C806.695 323.879 805.869 324.126 804.814 324.126Z" fill="#7B8794"/>
<path d="M810 225H0V226H810V225Z" fill="#F0F2F5"/>
<path d="M810 150H0V151H810V150Z" fill="#F0F2F5"/>
<path d="M810 75H0V76H810V75Z" fill="#F0F2F5"/>
<path d="M150 0H149V300H150V0Z" fill="#F0F2F5"/>
<path d="M180 0H179V300H180V0Z" fill="#F0F2F5"/>
<path d="M360 0H359V300H360V0Z" fill="#F0F2F5"/>
<path d="M390 0H389V300H390V0Z" fill="#F0F2F5"/>
<path d="M570 0H569V300H570V0Z" fill="#F0F2F5"/>
<path d="M600 0H599V300H600V0Z" fill="#F0F2F5"/>
<path d="M208 1H150V301H208V1Z" fill="#EAF2FD"/>
<path d="M417 0H359V300H417V0Z" fill="#EAF2FD"/>
<path d="M627 0H569V300H627V0Z" fill="#EAF2FD"/>
<path d="M781 0H802C806.418 0 810 3.58172 810 8V292C810 296.418 806.418 300 802 300H781V0Z" fill="#EAF2FD"/>
<path d="M1 238.5H28.0772C28.356 238.5 28.6317 238.442 28.8867 238.329L59 225L88.5711 209.722C88.853 209.576 89.0962 209.365 89.2806 209.107L118.402 168.338C118.777 167.812 119.383 167.5 120.029 167.5H148.5H177.528C177.838 167.5 178.145 167.428 178.422 167.289L207.578 152.711C207.855 152.572 208.162 152.5 208.472 152.5H236.644C237.191 152.5 237.714 152.276 238.091 151.881L268.409 120.119C268.786 119.724 269.309 119.5 269.856 119.5H296.809C297.257 119.5 297.691 119.35 298.044 119.073L330 94L358.409 76.1841C359.074 75.7675 359.92 75.7775 360.574 76.2098L386.999 93.6687C387.326 93.8848 387.709 94 388.101 94H416.7C417.213 94 417.707 93.8022 418.079 93.4477L449.5 63.5L477.949 40.4461C478.306 40.1575 478.75 40 479.209 40H508.979C509.321 40 509.657 40.0876 509.955 40.2545L539 56.5L567.501 75.1729C567.826 75.3863 568.207 75.5 568.597 75.5H594.436C594.805 75.5 595.166 75.398 595.481 75.2052L625.519 56.7948C625.834 56.602 626.195 56.5 626.564 56.5H659H688.412C688.796 56.5 689.172 56.6106 689.495 56.8186L718.274 75.3543C718.424 75.451 718.56 75.5673 718.68 75.7003L749 109.5L779.5 149.5L809.5 186.5" stroke="#E7228D" stroke-width="3"/>
<path d="M1 246.5H29.1449C29.3798 246.5 29.6129 246.459 29.8334 246.378L59.3303 235.562C59.4432 235.521 59.5521 235.469 59.6558 235.408L75.9455 225.826C76.3061 225.614 76.5911 225.294 76.7604 224.912L89.9294 195.159C89.9764 195.053 90.0325 194.952 90.0971 194.855L119.206 151.439C119.399 151.151 119.663 150.919 119.973 150.764L148.078 136.711C148.355 136.572 148.662 136.5 148.972 136.5H179.461C179.814 136.5 180.161 136.406 180.466 136.229L206.631 121.006C207.178 120.688 207.843 120.647 208.424 120.896L238.702 133.872C238.899 133.957 239.109 134.009 239.323 134.027L268.644 136.47C268.879 136.49 269.11 136.551 269.324 136.651L297.936 150.004C298.593 150.31 299.364 150.237 299.952 149.813L329.5 128.5L358.5 101L387.437 75.9869C387.8 75.6728 388.264 75.5 388.745 75.5H418.5H448.064C448.351 75.5 448.635 75.5619 448.896 75.6814L477.604 88.8186C477.865 88.9381 478.149 89 478.436 89H507.577C507.856 89 508.132 88.9417 508.387 88.8289L537.976 75.7321C538.318 75.5804 538.611 75.3355 538.822 75.0253L568.405 31.3779C568.777 30.8288 569.397 30.5 570.061 30.5H595.5H625.406C625.794 30.5 626.173 30.6127 626.498 30.8243L659 52L688.457 75.0745C688.809 75.3502 689.243 75.5 689.69 75.5H717.81C718.257 75.5 718.691 75.6498 719.043 75.9255L747.957 98.5745C748.309 98.8502 748.743 99 749.19 99H780H810" stroke="#FF9F0C" stroke-width="3"/>
<path d="M1 282L29.0627 296.77C29.3499 296.921 29.6696 297 29.9942 297H58.3696C58.7799 297 59.1803 296.874 59.5165 296.638L88.8793 276.084C88.9597 276.028 89.044 275.978 89.1318 275.934L118.578 261.211C118.855 261.072 119.162 261 119.472 261H149H206.458C206.813 261 207.162 261.095 207.468 261.274L268.032 296.726C268.338 296.905 268.687 297 269.042 297H298.765C299.239 297 299.699 296.831 300.06 296.524L329.5 271.5L359.881 247.095C359.96 247.032 360.044 246.975 360.132 246.924L388.035 230.769C388.34 230.593 388.685 230.5 389.037 230.5H418.124C418.372 230.5 418.619 230.454 418.85 230.363L447.65 219.137C447.881 219.046 448.128 219 448.376 219H477.208C477.994 219 478.708 219.461 479.031 220.178L506.58 281.244C507.303 282.847 509.595 282.804 510.256 281.174L535.195 219.751C535.391 219.269 535.766 218.883 536.241 218.673L569.114 204.17C569.369 204.058 569.644 204 569.922 204H626.39C626.788 204 627.176 204.118 627.506 204.34L657.36 224.406C657.453 224.469 657.541 224.539 657.622 224.616L686.921 252.45C687.293 252.803 687.786 253 688.299 253H717.873C718.281 253 718.68 253.125 719.015 253.358L747.485 273.142C747.82 273.375 748.219 273.5 748.627 273.5H779.1C779.364 273.5 779.625 273.552 779.869 273.654L809.5 286" stroke="#019A3E" stroke-width="3"/>
<path d="M1 279L28.9503 256.444C29.306 256.157 29.7493 256 30.2064 256H58.6716C59.202 256 59.7107 255.789 60.0858 255.414L89.5 226L118.9 187.781C119.278 187.288 119.864 187 120.485 187H148.267C148.74 187 149.198 187.168 149.559 187.473L174.812 208.841C174.937 208.947 175.074 209.036 175.22 209.109L209.082 225.794C209.357 225.93 209.659 226 209.966 226H240H268.778C269.528 226 270.215 225.58 270.558 224.913L298.973 169.527C299.299 168.891 299.939 168.478 300.653 168.442L329.074 167.021C329.355 167.007 329.63 166.934 329.88 166.807L359.734 151.635C359.91 151.546 360.073 151.43 360.215 151.293L387.5 125L415.406 94.6463C415.784 94.2343 416.318 93.9999 416.878 93.9999H448.021C448.336 93.9999 448.646 94.0743 448.927 94.2169L478.571 109.282C478.853 109.425 479.097 109.634 479.283 109.89L507.445 148.67C508.354 149.922 510.279 149.712 510.897 148.294L539.477 82.701C539.794 81.9716 540.514 81.4999 541.31 81.4999H568.748C569.514 81.4999 570.212 81.0626 570.547 80.3737L593.898 32.2971C594.59 30.8734 596.583 30.779 597.406 32.131L623.226 74.5505C623.406 74.8451 623.658 75.0883 623.959 75.2565L657.045 93.7458C657.343 93.9124 657.679 93.9999 658.021 93.9999H688.778C689.528 93.9999 690.215 94.4196 690.558 95.087L719.5 151.5L747.205 191.079C747.399 191.355 747.659 191.578 747.961 191.727L779 207L810 226" stroke="#2F80ED" stroke-width="3"/>
<path d="M269 123.5C270.933 123.5 272.5 121.933 272.5 120C272.5 118.067 270.933 116.5 269 116.5C267.067 116.5 265.5 118.067 265.5 120C265.5 121.933 267.067 123.5 269 123.5Z" fill="white" stroke="#E7228D"/>
<path d="M269 140.5C270.933 140.5 272.5 138.933 272.5 137C272.5 135.067 270.933 133.5 269 133.5C267.067 133.5 265.5 135.067 265.5 137C265.5 138.933 267.067 140.5 269 140.5Z" fill="white" stroke="#FF9F0C"/>
<path d="M269 229.5C270.933 229.5 272.5 227.933 272.5 226C272.5 224.067 270.933 222.5 269 222.5C267.067 222.5 265.5 224.067 265.5 226C265.5 227.933 267.067 229.5 269 229.5Z" fill="white" stroke="#2F80ED"/>
<path d="M269 299.5C270.933 299.5 272.5 297.933 272.5 296C272.5 294.067 270.933 292.5 269 292.5C267.067 292.5 265.5 294.067 265.5 296C265.5 297.933 267.067 299.5 269 299.5Z" fill="white" stroke="#019A3E"/>
<path d="M484 60H295C290.582 60 287 63.5817 287 68V232C287 236.418 290.582 240 295 240H484C488.418 240 492 236.418 492 232V68C492 63.5817 488.418 60 484 60Z" fill="#323F4B"/>
<path d="M319.399 90.1442C318.268 90.1442 317.298 89.9095 316.487 89.4402C315.687 88.9709 315.074 88.3042 314.647 87.4402C314.22 86.5655 314.007 85.5362 314.007 84.3522C314.007 83.1682 314.22 82.1442 314.647 81.2802C315.074 80.4162 315.687 79.7495 316.487 79.2802C317.298 78.8109 318.268 78.5762 319.399 78.5762C320.21 78.5762 320.93 78.6989 321.559 78.9442C322.188 79.1789 322.738 79.5255 323.207 79.9842L322.663 81.1842C322.151 80.7362 321.644 80.4162 321.143 80.2242C320.652 80.0215 320.082 79.9202 319.431 79.9202C318.183 79.9202 317.228 80.3042 316.567 81.0722C315.906 81.8402 315.575 82.9335 315.575 84.3522C315.575 85.7709 315.906 86.8695 316.567 87.6482C317.228 88.4162 318.183 88.8002 319.431 88.8002C320.082 88.8002 320.652 88.7042 321.143 88.5122C321.644 88.3095 322.151 87.9842 322.663 87.5362L323.207 88.7202C322.738 89.1789 322.183 89.5309 321.543 89.7762C320.914 90.0215 320.199 90.1442 319.399 90.1442ZM325.296 93.4562V83.8562C325.296 83.5469 325.285 83.2322 325.264 82.9122C325.243 82.5922 325.211 82.2722 325.168 81.9522H326.576L326.752 83.8082H326.576C326.736 83.1895 327.077 82.7042 327.6 82.3522C328.123 81.9895 328.747 81.8082 329.472 81.8082C330.187 81.8082 330.811 81.9735 331.344 82.3042C331.877 82.6349 332.288 83.1149 332.576 83.7442C332.875 84.3629 333.024 85.1042 333.024 85.9682C333.024 86.8322 332.875 87.5789 332.576 88.2082C332.288 88.8375 331.877 89.3175 331.344 89.6482C330.811 89.9789 330.187 90.1442 329.472 90.1442C328.757 90.1442 328.139 89.9682 327.616 89.6162C327.104 89.2535 326.757 88.7682 326.576 88.1602H326.752V93.4562H325.296ZM329.136 88.9922C329.872 88.9922 330.459 88.7362 330.896 88.2242C331.333 87.7122 331.552 86.9602 331.552 85.9682C331.552 84.9762 331.333 84.2295 330.896 83.7282C330.459 83.2269 329.872 82.9762 329.136 82.9762C328.4 82.9762 327.813 83.2269 327.376 83.7282C326.949 84.2295 326.736 84.9762 326.736 85.9682C326.736 86.9602 326.949 87.7122 327.376 88.2242C327.813 88.7362 328.4 88.9922 329.136 88.9922ZM338.819 90.1442C337.539 90.1442 336.526 89.7762 335.779 89.0402C335.043 88.3042 334.675 87.2909 334.675 86.0002C334.675 85.1469 334.835 84.4109 335.155 83.7922C335.486 83.1629 335.939 82.6775 336.515 82.3362C337.091 81.9842 337.763 81.8082 338.531 81.8082C339.267 81.8082 339.891 81.9682 340.403 82.2882C340.915 82.5975 341.305 83.0402 341.571 83.6162C341.838 84.1922 341.971 84.8749 341.971 85.6642V86.1442H335.811V85.2802H340.979L340.707 85.4882C340.707 84.6562 340.521 84.0109 340.147 83.5522C339.785 83.0935 339.246 82.8642 338.531 82.8642C337.753 82.8642 337.15 83.1362 336.723 83.6802C336.297 84.2135 336.083 84.9442 336.083 85.8722V86.0162C336.083 86.9975 336.323 87.7389 336.803 88.2402C337.294 88.7415 337.971 88.9922 338.835 88.9922C339.315 88.9922 339.763 88.9229 340.179 88.7842C340.595 88.6455 340.995 88.4162 341.379 88.0962L341.859 89.1042C341.497 89.4349 341.043 89.6909 340.499 89.8722C339.966 90.0535 339.406 90.1442 338.819 90.1442ZM343.166 92.0802V88.8642H344.046C344.409 88.3202 344.67 87.6802 344.83 86.9442C345.001 86.2082 345.086 85.3335 345.086 84.3202V81.9522H350.862V88.8642H352.142V92.0802H350.894V90.0002H344.43V92.0802H343.166ZM345.422 88.8802H349.502V83.0722H346.366V84.5762C346.366 85.3869 346.286 86.1762 346.126 86.9442C345.966 87.7015 345.731 88.3469 345.422 88.8802ZM356.946 90.1442C356.242 90.1442 355.623 89.9789 355.09 89.6482C354.557 89.3175 354.141 88.8375 353.842 88.2082C353.543 87.5789 353.394 86.8322 353.394 85.9682C353.394 85.1042 353.543 84.3629 353.842 83.7442C354.141 83.1149 354.557 82.6349 355.09 82.3042C355.623 81.9735 356.242 81.8082 356.946 81.8082C357.661 81.8082 358.279 81.9895 358.802 82.3522C359.335 82.7042 359.687 83.1895 359.858 83.8082H359.666L359.842 81.9522H361.25C361.218 82.2722 361.186 82.5922 361.154 82.9122C361.133 83.2322 361.122 83.5469 361.122 83.8562V90.0002H359.666V88.1602H359.842C359.671 88.7682 359.319 89.2535 358.786 89.6162C358.263 89.9682 357.65 90.1442 356.946 90.1442ZM357.282 88.9922C358.007 88.9922 358.589 88.7362 359.026 88.2242C359.463 87.7122 359.682 86.9602 359.682 85.9682C359.682 84.9762 359.463 84.2295 359.026 83.7282C358.589 83.2269 358.007 82.9762 357.282 82.9762C356.557 82.9762 355.97 83.2269 355.522 83.7282C355.085 84.2295 354.866 84.9762 354.866 85.9682C354.866 86.9602 355.085 87.7122 355.522 88.2242C355.959 88.7362 356.546 88.9922 357.282 88.9922ZM364.15 91.9042L363.493 91.3922C363.792 91.0829 363.995 90.7895 364.102 90.5122C364.208 90.2455 364.262 89.9682 364.262 89.6802L364.582 90.0002H363.414V88.2242H365.19V89.4562C365.19 89.9149 365.115 90.3362 364.966 90.7202C364.816 91.1149 364.544 91.5095 364.15 91.9042ZM372.375 90.0002V88.7362H375.015V79.9842H375.767L372.615 81.9362V80.4802L375.431 78.7202H376.503V88.7362H378.983V90.0002H372.375ZM384.704 90.1442C383.936 90.1442 383.2 90.0269 382.496 89.7922C381.803 89.5575 381.222 89.2269 380.752 88.8002L381.28 87.6482C381.803 88.0749 382.342 88.3842 382.896 88.5762C383.451 88.7682 384.038 88.8642 384.656 88.8642C385.478 88.8642 386.102 88.6935 386.528 88.3522C386.955 88.0002 387.168 87.4989 387.168 86.8482C387.168 86.2082 386.95 85.7229 386.512 85.3922C386.086 85.0615 385.456 84.8962 384.624 84.8962H382.896V83.6642H384.512C385.216 83.6642 385.782 83.4829 386.208 83.1202C386.635 82.7575 386.848 82.2615 386.848 81.6322C386.848 81.0562 386.651 80.6189 386.256 80.3202C385.872 80.0109 385.323 79.8562 384.608 79.8562C383.403 79.8562 382.358 80.2775 381.472 81.1202L380.944 79.9842C381.392 79.5362 381.947 79.1895 382.608 78.9442C383.27 78.6989 383.968 78.5762 384.704 78.5762C385.824 78.5762 386.704 78.8322 387.344 79.3442C387.984 79.8562 388.304 80.5709 388.304 81.4882C388.304 82.1815 388.107 82.7789 387.712 83.2802C387.328 83.7709 386.8 84.0962 386.128 84.2562V84.0802C386.918 84.2189 387.531 84.5442 387.968 85.0562C388.406 85.5575 388.624 86.1869 388.624 86.9442C388.624 87.9362 388.272 88.7202 387.568 89.2962C386.875 89.8615 385.92 90.1442 384.704 90.1442ZM395.045 90.0002V81.9522H396.261L399.221 87.2162L402.197 81.9522H403.397V90.0002H402.117V83.5842H402.469L399.589 88.7042H398.869L395.989 83.5682H396.325V90.0002H395.045ZM409.009 90.1442C408.305 90.1442 407.686 89.9789 407.153 89.6482C406.619 89.3175 406.203 88.8375 405.905 88.2082C405.606 87.5789 405.457 86.8322 405.457 85.9682C405.457 85.1042 405.606 84.3629 405.905 83.7442C406.203 83.1149 406.619 82.6349 407.153 82.3042C407.686 81.9735 408.305 81.8082 409.009 81.8082C409.723 81.8082 410.342 81.9895 410.865 82.3522C411.398 82.7042 411.75 83.1895 411.921 83.8082H411.729L411.905 81.9522H413.313C413.281 82.2722 413.249 82.5922 413.217 82.9122C413.195 83.2322 413.185 83.5469 413.185 83.8562V90.0002H411.729V88.1602H411.905C411.734 88.7682 411.382 89.2535 410.849 89.6162C410.326 89.9682 409.713 90.1442 409.009 90.1442ZM409.345 88.9922C410.07 88.9922 410.651 88.7362 411.089 88.2242C411.526 87.7122 411.745 86.9602 411.745 85.9682C411.745 84.9762 411.526 84.2295 411.089 83.7282C410.651 83.2269 410.07 82.9762 409.345 82.9762C408.619 82.9762 408.033 83.2269 407.585 83.7282C407.147 84.2295 406.929 84.9762 406.929 85.9682C406.929 86.9602 407.147 87.7122 407.585 88.2242C408.022 88.7362 408.609 88.9922 409.345 88.9922ZM415.108 90.0002L416.372 87.8082C416.575 87.4562 416.831 87.1735 417.14 86.9602C417.449 86.7362 417.775 86.6242 418.116 86.6242H418.372L418.356 86.7682C417.449 86.7682 416.74 86.5655 416.228 86.1602C415.716 85.7442 415.46 85.1469 415.46 84.3682C415.46 83.6002 415.711 83.0082 416.212 82.5922C416.713 82.1655 417.46 81.9522 418.452 81.9522H422.116V90.0002H420.772V86.9602H419.62C419.204 86.9602 418.847 87.0669 418.548 87.2802C418.249 87.4829 418.004 87.7549 417.812 88.0962L416.724 90.0002H415.108ZM418.708 85.9522H420.772V82.9442H418.708C418.079 82.9442 417.609 83.0775 417.3 83.3442C417.001 83.6109 416.852 83.9789 416.852 84.4482C416.852 84.9282 417.001 85.3015 417.3 85.5682C417.609 85.8242 418.079 85.9522 418.708 85.9522ZM428.938 90.0002V88.8962L432.874 84.7682C433.386 84.2455 433.765 83.7442 434.01 83.2642C434.266 82.7842 434.394 82.2882 434.394 81.7762C434.394 81.1469 434.197 80.6722 433.802 80.3522C433.418 80.0215 432.853 79.8562 432.106 79.8562C431.53 79.8562 430.986 79.9629 430.474 80.1762C429.973 80.3789 429.493 80.6935 429.034 81.1202L428.506 79.9842C428.943 79.5575 429.493 79.2162 430.154 78.9602C430.826 78.7042 431.53 78.5762 432.266 78.5762C433.418 78.5762 434.309 78.8429 434.938 79.3762C435.567 79.8989 435.882 80.6509 435.882 81.6322C435.882 82.3469 435.706 83.0295 435.354 83.6802C435.013 84.3202 434.506 84.9815 433.834 85.6642L430.394 89.1522V88.7362H436.346V90.0002H428.938ZM441.972 90.1442C440.681 90.1442 439.689 89.6482 438.996 88.6562C438.303 87.6535 437.956 86.2189 437.956 84.3522C437.956 82.4535 438.303 81.0189 438.996 80.0482C439.689 79.0669 440.681 78.5762 441.972 78.5762C443.273 78.5762 444.265 79.0669 444.948 80.0482C445.641 81.0189 445.988 82.4482 445.988 84.3362C445.988 86.2135 445.641 87.6535 444.948 88.6562C444.255 89.6482 443.263 90.1442 441.972 90.1442ZM441.972 88.8802C442.825 88.8802 443.46 88.5122 443.876 87.7762C444.303 87.0402 444.516 85.8935 444.516 84.3362C444.516 82.7789 444.303 81.6429 443.876 80.9282C443.46 80.2029 442.825 79.8402 441.972 79.8402C441.129 79.8402 440.495 80.2029 440.068 80.9282C439.641 81.6429 439.428 82.7789 439.428 84.3362C439.428 85.8935 439.641 87.0402 440.068 87.7762C440.495 88.5122 441.129 88.8802 441.972 88.8802ZM448.126 90.0002V88.8962L452.062 84.7682C452.574 84.2455 452.952 83.7442 453.198 83.2642C453.454 82.7842 453.582 82.2882 453.582 81.7762C453.582 81.1469 453.384 80.6722 452.99 80.3522C452.606 80.0215 452.04 79.8562 451.294 79.8562C450.718 79.8562 450.174 79.9629 449.662 80.1762C449.16 80.3789 448.68 80.6935 448.222 81.1202L447.694 79.9842C448.131 79.5575 448.68 79.2162 449.342 78.9602C450.014 78.7042 450.718 78.5762 451.454 78.5762C452.606 78.5762 453.496 78.8429 454.126 79.3762C454.755 79.8989 455.07 80.6509 455.07 81.6322C455.07 82.3469 454.894 83.0295 454.542 83.6802C454.2 84.3202 453.694 84.9815 453.022 85.6642L449.582 89.1522V88.7362H455.534V90.0002H448.126ZM461.079 90.1442C460.311 90.1442 459.575 90.0269 458.871 89.7922C458.178 89.5575 457.597 89.2269 457.127 88.8002L457.655 87.6482C458.178 88.0749 458.717 88.3842 459.271 88.5762C459.826 88.7682 460.413 88.8642 461.031 88.8642C461.853 88.8642 462.477 88.6935 462.903 88.3522C463.33 88.0002 463.543 87.4989 463.543 86.8482C463.543 86.2082 463.325 85.7229 462.887 85.3922C462.461 85.0615 461.831 84.8962 460.999 84.8962H459.271V83.6642H460.887C461.591 83.6642 462.157 83.4829 462.583 83.1202C463.01 82.7575 463.223 82.2615 463.223 81.6322C463.223 81.0562 463.026 80.6189 462.631 80.3202C462.247 80.0109 461.698 79.8562 460.983 79.8562C459.778 79.8562 458.733 80.2775 457.847 81.1202L457.319 79.9842C457.767 79.5362 458.322 79.1895 458.983 78.9442C459.645 78.6989 460.343 78.5762 461.079 78.5762C462.199 78.5762 463.079 78.8322 463.719 79.3442C464.359 79.8562 464.679 80.5709 464.679 81.4882C464.679 82.1815 464.482 82.7789 464.087 83.2802C463.703 83.7709 463.175 84.0962 462.503 84.2562V84.0802C463.293 84.2189 463.906 84.5442 464.343 85.0562C464.781 85.5575 464.999 86.1869 464.999 86.9442C464.999 87.9362 464.647 88.7202 463.943 89.2962C463.25 89.8615 462.295 90.1442 461.079 90.1442Z" fill="#CACACA"/>
<path d="M302 125.5C304.485 125.5 306.5 123.485 306.5 121C306.5 118.515 304.485 116.5 302 116.5C299.515 116.5 297.5 118.515 297.5 121C297.5 123.485 299.515 125.5 302 125.5Z" fill="white" stroke="#2F80ED"/>
<path d="M314.376 126V114.72H315.848V119.696H318.056L317.656 119.952L321.192 114.72H322.872L319.064 120.208L318.52 119.76C319.203 119.835 319.779 120.064 320.248 120.448C320.728 120.832 321.149 121.371 321.512 122.064L323.48 126H321.864L320.264 122.704C319.955 122.064 319.597 121.611 319.192 121.344C318.787 121.077 318.28 120.944 317.672 120.944H315.848V126H314.376ZM324.489 126.192L323.977 125.056C324.35 124.885 324.66 124.683 324.905 124.448C325.161 124.203 325.358 123.893 325.497 123.52C325.646 123.147 325.753 122.683 325.817 122.128C325.881 121.573 325.913 120.901 325.913 120.112V117.952H331.849V126H330.409V119.088H327.257V120.144C327.257 121.381 327.161 122.405 326.969 123.216C326.788 124.016 326.494 124.651 326.089 125.12C325.694 125.589 325.161 125.947 324.489 126.192ZM334.342 126V117.952H335.67V124.624H335.238L340.23 117.952H341.446V126H340.118V119.312H340.566L335.558 126H334.342ZM343.936 126V117.952H345.376V121.28H346.832L349.424 117.952H351.008L348 121.872L347.616 121.424C347.925 121.456 348.192 121.536 348.416 121.664C348.64 121.781 348.853 121.957 349.056 122.192C349.269 122.427 349.498 122.741 349.744 123.136L351.408 126H349.84L348.384 123.52C348.224 123.232 348.064 123.008 347.904 122.848C347.744 122.688 347.562 122.576 347.36 122.512C347.168 122.448 346.922 122.416 346.624 122.416H345.376V126H343.936ZM352.654 126V117.952H353.982V124.624H353.55L358.542 117.952H359.758V126H358.43V119.312H358.878L353.87 126H352.654Z" fill="white"/>
<path d="M463.36 126V124.896L467.296 120.768C467.808 120.245 468.187 119.744 468.432 119.264C468.688 118.784 468.816 118.288 468.816 117.776C468.816 117.147 468.619 116.672 468.224 116.352C467.84 116.021 467.275 115.856 466.528 115.856C465.952 115.856 465.408 115.963 464.896 116.176C464.395 116.379 463.915 116.693 463.456 117.12L462.928 115.984C463.365 115.557 463.915 115.216 464.576 114.96C465.248 114.704 465.952 114.576 466.688 114.576C467.84 114.576 468.731 114.843 469.36 115.376C469.989 115.899 470.304 116.651 470.304 117.632C470.304 118.347 470.128 119.029 469.776 119.68C469.435 120.32 468.928 120.981 468.256 121.664L464.816 125.152V124.736H470.768V126H463.36ZM476.394 126.144C475.103 126.144 474.111 125.648 473.418 124.656C472.724 123.653 472.378 122.219 472.378 120.352C472.378 118.453 472.724 117.019 473.418 116.048C474.111 115.067 475.103 114.576 476.394 114.576C477.695 114.576 478.687 115.067 479.37 116.048C480.063 117.019 480.41 118.448 480.41 120.336C480.41 122.213 480.063 123.653 479.37 124.656C478.676 125.648 477.684 126.144 476.394 126.144ZM476.394 124.88C477.247 124.88 477.882 124.512 478.298 123.776C478.724 123.04 478.938 121.893 478.938 120.336C478.938 118.779 478.724 117.643 478.298 116.928C477.882 116.203 477.247 115.84 476.394 115.84C475.551 115.84 474.916 116.203 474.49 116.928C474.063 117.643 473.85 118.779 473.85 120.336C473.85 121.893 474.063 123.04 474.49 123.776C474.916 124.512 475.551 124.88 476.394 124.88Z" fill="white"/>
<path d="M454.984 156V154.736H457.624V145.984H458.376L455.224 147.936V146.48L458.04 144.72H459.112V154.736H461.592V156H454.984ZM467.586 156.144C467.095 156.144 466.61 156.091 466.13 155.984C465.66 155.877 465.218 155.728 464.802 155.536C464.386 155.333 464.023 155.088 463.714 154.8L464.242 153.648C464.764 154.064 465.298 154.373 465.842 154.576C466.386 154.768 466.956 154.864 467.554 154.864C468.343 154.864 468.962 154.656 469.41 154.24C469.858 153.824 470.082 153.269 470.082 152.576C470.082 151.861 469.868 151.285 469.442 150.848C469.015 150.4 468.423 150.176 467.666 150.176C467.143 150.176 466.668 150.283 466.242 150.496C465.826 150.699 465.458 151.024 465.138 151.472H464.082V144.72H470.85V145.984H465.522V150.256H465.138C465.426 149.829 465.815 149.499 466.306 149.264C466.807 149.029 467.367 148.912 467.986 148.912C468.711 148.912 469.335 149.061 469.858 149.36C470.391 149.659 470.802 150.08 471.09 150.624C471.388 151.157 471.538 151.781 471.538 152.496C471.538 153.211 471.378 153.845 471.058 154.4C470.738 154.944 470.279 155.371 469.682 155.68C469.095 155.989 468.396 156.144 467.586 156.144ZM476.988 156.144C475.697 156.144 474.705 155.648 474.012 154.656C473.318 153.653 472.972 152.219 472.972 150.352C472.972 148.453 473.318 147.019 474.012 146.048C474.705 145.067 475.697 144.576 476.988 144.576C478.289 144.576 479.281 145.067 479.964 146.048C480.657 147.019 481.003 148.448 481.003 150.336C481.003 152.213 480.657 153.653 479.964 154.656C479.27 155.648 478.278 156.144 476.988 156.144ZM476.988 154.88C477.841 154.88 478.476 154.512 478.892 153.776C479.318 153.04 479.532 151.893 479.532 150.336C479.532 148.779 479.318 147.643 478.892 146.928C478.476 146.203 477.841 145.84 476.988 145.84C476.145 145.84 475.51 146.203 475.084 146.928C474.657 147.643 474.444 148.779 474.444 150.336C474.444 151.893 474.657 153.04 475.084 153.776C475.51 154.512 476.145 154.88 476.988 154.88Z" fill="white"/>
<path d="M435.984 186V184.736H438.624V175.984H439.376L436.224 177.936V176.48L439.04 174.72H440.112V184.736H442.592V186H435.984ZM448.394 186.144C447.103 186.144 446.111 185.648 445.418 184.656C444.724 183.653 444.378 182.219 444.378 180.352C444.378 178.453 444.724 177.019 445.418 176.048C446.111 175.067 447.103 174.576 448.394 174.576C449.695 174.576 450.687 175.067 451.37 176.048C452.063 177.019 452.41 178.448 452.41 180.336C452.41 182.213 452.063 183.653 451.37 184.656C450.676 185.648 449.684 186.144 448.394 186.144ZM448.394 184.88C449.247 184.88 449.882 184.512 450.298 183.776C450.724 183.04 450.938 181.893 450.938 180.336C450.938 178.779 450.724 177.643 450.298 176.928C449.882 176.203 449.247 175.84 448.394 175.84C447.551 175.84 446.916 176.203 446.49 176.928C446.063 177.643 445.85 178.779 445.85 180.336C445.85 181.893 446.063 183.04 446.49 183.776C446.916 184.512 447.551 184.88 448.394 184.88ZM455.172 186V184.736H457.812V175.984H458.564L455.412 177.936V176.48L458.228 174.72H459.3V184.736H461.78V186H455.172ZM467.773 186.144C467.283 186.144 466.797 186.091 466.317 185.984C465.848 185.877 465.405 185.728 464.989 185.536C464.573 185.333 464.211 185.088 463.901 184.8L464.429 183.648C464.952 184.064 465.485 184.373 466.029 184.576C466.573 184.768 467.144 184.864 467.741 184.864C468.531 184.864 469.149 184.656 469.597 184.24C470.045 183.824 470.269 183.269 470.269 182.576C470.269 181.861 470.056 181.285 469.629 180.848C469.203 180.4 468.611 180.176 467.853 180.176C467.331 180.176 466.856 180.283 466.429 180.496C466.013 180.699 465.645 181.024 465.325 181.472H464.269V174.72H471.037V175.984H465.709V180.256H465.325C465.613 179.829 466.003 179.499 466.493 179.264C466.995 179.029 467.555 178.912 468.173 178.912C468.899 178.912 469.523 179.061 470.045 179.36C470.579 179.659 470.989 180.08 471.277 180.624C471.576 181.157 471.725 181.781 471.725 182.496C471.725 183.211 471.565 183.845 471.245 184.4C470.925 184.944 470.467 185.371 469.869 185.68C469.283 185.989 468.584 186.144 467.773 186.144ZM474.135 186V183.584H472.631V182.72H474.135V181.136H472.631V180.272H474.135V174.72H477.815C478.604 174.72 479.276 174.853 479.831 175.12C480.396 175.376 480.823 175.749 481.111 176.24C481.41 176.72 481.559 177.301 481.559 177.984C481.559 178.635 481.41 179.195 481.111 179.664C480.812 180.133 480.391 180.496 479.847 180.752C479.303 181.008 478.663 181.136 477.927 181.136H475.463V182.72H478.279V183.584H475.463V186H474.135ZM475.447 180.272H477.735C478.578 180.272 479.218 180.08 479.655 179.696C480.092 179.312 480.311 178.752 480.311 178.016C480.311 177.269 480.092 176.709 479.655 176.336C479.218 175.952 478.578 175.76 477.735 175.76H475.447V180.272Z" fill="white"/>
<path d="M476.72 216.144C475.952 216.144 475.216 216.027 474.512 215.792C473.819 215.557 473.237 215.227 472.768 214.8L473.296 213.648C473.819 214.075 474.357 214.384 474.912 214.576C475.467 214.768 476.053 214.864 476.672 214.864C477.493 214.864 478.117 214.693 478.544 214.352C478.971 214 479.184 213.499 479.184 212.848C479.184 212.208 478.965 211.723 478.528 211.392C478.101 211.061 477.472 210.896 476.64 210.896H474.912V209.664H476.528C477.232 209.664 477.797 209.483 478.224 209.12C478.651 208.757 478.864 208.261 478.864 207.632C478.864 207.056 478.667 206.619 478.272 206.32C477.888 206.011 477.339 205.856 476.624 205.856C475.419 205.856 474.373 206.277 473.488 207.12L472.96 205.984C473.408 205.536 473.963 205.189 474.624 204.944C475.285 204.699 475.984 204.576 476.72 204.576C477.84 204.576 478.72 204.832 479.36 205.344C480 205.856 480.32 206.571 480.32 207.488C480.32 208.181 480.123 208.779 479.728 209.28C479.344 209.771 478.816 210.096 478.144 210.256V210.08C478.933 210.219 479.547 210.544 479.984 211.056C480.421 211.557 480.64 212.187 480.64 212.944C480.64 213.936 480.288 214.72 479.584 215.296C478.891 215.861 477.936 216.144 476.72 216.144Z" fill="white"/>
<path d="M302 155.5C304.485 155.5 306.5 153.485 306.5 151C306.5 148.515 304.485 146.5 302 146.5C299.515 146.5 297.5 148.515 297.5 151C297.5 153.485 299.515 155.5 302 155.5Z" fill="white" stroke="#FFB100"/>
<path d="M314.376 156V144.72H323.896V156H322.424V145.968H315.848V156H314.376ZM329.954 156.144C329.164 156.144 328.482 155.979 327.906 155.648C327.33 155.307 326.882 154.827 326.562 154.208C326.242 153.579 326.082 152.832 326.082 151.968C326.082 151.115 326.242 150.379 326.562 149.76C326.882 149.131 327.33 148.651 327.906 148.32C328.482 147.979 329.164 147.808 329.954 147.808C330.743 147.808 331.426 147.979 332.002 148.32C332.588 148.651 333.036 149.131 333.346 149.76C333.666 150.379 333.826 151.115 333.826 151.968C333.826 152.832 333.666 153.579 333.346 154.208C333.036 154.827 332.588 155.307 332.002 155.648C331.426 155.979 330.743 156.144 329.954 156.144ZM329.954 154.992C330.679 154.992 331.26 154.736 331.698 154.224C332.135 153.712 332.354 152.96 332.354 151.968C332.354 150.976 332.135 150.229 331.698 149.728C331.26 149.227 330.679 148.976 329.954 148.976C329.218 148.976 328.631 149.227 328.194 149.728C327.767 150.229 327.554 150.976 327.554 151.968C327.554 152.96 327.767 153.712 328.194 154.224C328.631 154.736 329.218 154.992 329.954 154.992ZM335.904 156V147.952H337.344V151.28H338.8L341.392 147.952H342.976L339.968 151.872L339.584 151.424C339.894 151.456 340.16 151.536 340.384 151.664C340.608 151.781 340.822 151.957 341.024 152.192C341.238 152.427 341.467 152.741 341.712 153.136L343.376 156H341.808L340.352 153.52C340.192 153.232 340.032 153.008 339.872 152.848C339.712 152.688 339.531 152.576 339.328 152.512C339.136 152.448 338.891 152.416 338.592 152.416H337.344V156H335.904ZM347.743 156.144C347.039 156.144 346.42 155.979 345.887 155.648C345.354 155.317 344.938 154.837 344.639 154.208C344.34 153.579 344.191 152.832 344.191 151.968C344.191 151.104 344.34 150.363 344.639 149.744C344.938 149.115 345.354 148.635 345.887 148.304C346.42 147.973 347.039 147.808 347.743 147.808C348.458 147.808 349.076 147.989 349.599 148.352C350.132 148.704 350.484 149.189 350.655 149.808H350.463L350.639 147.952H352.047C352.015 148.272 351.983 148.592 351.951 148.912C351.93 149.232 351.919 149.547 351.919 149.856V156H350.463V154.16H350.639C350.468 154.768 350.116 155.253 349.583 155.616C349.06 155.968 348.447 156.144 347.743 156.144ZM348.079 154.992C348.804 154.992 349.386 154.736 349.823 154.224C350.26 153.712 350.479 152.96 350.479 151.968C350.479 150.976 350.26 150.229 349.823 149.728C349.386 149.227 348.804 148.976 348.079 148.976C347.354 148.976 346.767 149.227 346.319 149.728C345.882 150.229 345.663 150.976 345.663 151.968C345.663 152.96 345.882 153.712 346.319 154.224C346.756 154.736 347.343 154.992 348.079 154.992ZM357.218 156.144C356.514 156.144 355.858 156.053 355.25 155.872C354.642 155.691 354.141 155.435 353.746 155.104L354.226 154.096C354.621 154.416 355.069 154.656 355.57 154.816C356.072 154.976 356.616 155.056 357.202 155.056C357.97 155.056 358.525 154.944 358.866 154.72C359.218 154.485 359.394 154.149 359.394 153.712C359.394 153.296 359.25 152.981 358.962 152.768C358.674 152.555 358.253 152.448 357.698 152.448H355.746V151.392H357.522C358.024 151.392 358.413 151.285 358.69 151.072C358.978 150.848 359.122 150.544 359.122 150.16C359.122 149.765 358.962 149.456 358.642 149.232C358.322 148.997 357.832 148.88 357.17 148.88C356.616 148.88 356.109 148.955 355.65 149.104C355.192 149.243 354.754 149.456 354.338 149.744L353.874 148.8C354.312 148.459 354.824 148.208 355.41 148.048C355.997 147.888 356.637 147.808 357.33 147.808C358.344 147.808 359.117 148.005 359.65 148.4C360.194 148.784 360.466 149.333 360.466 150.048C360.466 150.549 360.296 150.981 359.954 151.344C359.613 151.696 359.16 151.909 358.594 151.984V151.776C359.234 151.808 359.752 152.005 360.146 152.368C360.541 152.72 360.738 153.189 360.738 153.776C360.738 154.491 360.44 155.067 359.842 155.504C359.245 155.931 358.37 156.144 357.218 156.144ZM362.686 156V147.952H364.126V150.8H366.494C367.539 150.8 368.323 151.024 368.846 151.472C369.379 151.909 369.646 152.544 369.646 153.376C369.646 153.909 369.523 154.373 369.278 154.768C369.032 155.163 368.675 155.467 368.206 155.68C367.736 155.893 367.166 156 366.494 156H362.686ZM364.126 154.992H366.334C366.974 154.992 367.454 154.864 367.774 154.608C368.104 154.341 368.27 153.936 368.27 153.392C368.27 152.848 368.104 152.448 367.774 152.192C367.454 151.936 366.974 151.808 366.334 151.808H364.126V154.992ZM370.814 156V147.952H372.254V156H370.814Z" fill="white"/>
<path d="M302 185.5C304.485 185.5 306.5 183.485 306.5 181C306.5 178.515 304.485 176.5 302 176.5C299.515 176.5 297.5 178.515 297.5 181C297.5 183.485 299.515 185.5 302 185.5Z" fill="white" stroke="#E7228D"/>
<path d="M314.376 186V174.72H319.048C320.253 174.72 321.176 175.008 321.816 175.584C322.456 176.16 322.776 176.955 322.776 177.968C322.776 178.981 322.456 179.781 321.816 180.368C321.176 180.944 320.253 181.232 319.048 181.232H315.864V186H314.376ZM315.864 180.016H318.904C319.693 180.016 320.291 179.84 320.696 179.488C321.101 179.125 321.304 178.619 321.304 177.968C321.304 177.317 321.101 176.816 320.696 176.464C320.291 176.112 319.693 175.936 318.904 175.936H315.864V180.016ZM327.665 186.144C326.961 186.144 326.342 185.979 325.809 185.648C325.276 185.317 324.86 184.837 324.561 184.208C324.262 183.579 324.113 182.832 324.113 181.968C324.113 181.104 324.262 180.363 324.561 179.744C324.86 179.115 325.276 178.635 325.809 178.304C326.342 177.973 326.961 177.808 327.665 177.808C328.38 177.808 328.998 177.989 329.521 178.352C330.054 178.704 330.406 179.189 330.577 179.808H330.385L330.561 177.952H331.969C331.937 178.272 331.905 178.592 331.873 178.912C331.852 179.232 331.841 179.547 331.841 179.856V186H330.385V184.16H330.561C330.39 184.768 330.038 185.253 329.505 185.616C328.982 185.968 328.369 186.144 327.665 186.144ZM328.001 184.992C328.726 184.992 329.308 184.736 329.745 184.224C330.182 183.712 330.401 182.96 330.401 181.968C330.401 180.976 330.182 180.229 329.745 179.728C329.308 179.227 328.726 178.976 328.001 178.976C327.276 178.976 326.689 179.227 326.241 179.728C325.804 180.229 325.585 180.976 325.585 181.968C325.585 182.96 325.804 183.712 326.241 184.224C326.678 184.736 327.265 184.992 328.001 184.992ZM337.908 186.144C337.108 186.144 336.415 185.979 335.828 185.648C335.242 185.307 334.783 184.821 334.452 184.192C334.132 183.552 333.972 182.795 333.972 181.92C333.972 181.056 334.138 180.32 334.468 179.712C334.799 179.093 335.258 178.624 335.844 178.304C336.431 177.973 337.119 177.808 337.908 177.808C338.431 177.808 338.938 177.899 339.428 178.08C339.919 178.251 340.319 178.501 340.628 178.832L340.132 179.856C339.823 179.557 339.482 179.339 339.108 179.2C338.735 179.051 338.367 178.976 338.004 178.976C337.215 178.976 336.596 179.232 336.148 179.744C335.7 180.245 335.476 180.976 335.476 181.936C335.476 182.907 335.7 183.653 336.148 184.176C336.596 184.699 337.215 184.96 338.004 184.96C338.356 184.96 338.719 184.891 339.092 184.752C339.466 184.613 339.812 184.395 340.132 184.096L340.628 185.104C340.308 185.445 339.898 185.707 339.396 185.888C338.906 186.059 338.41 186.144 337.908 186.144ZM341.457 186L345.105 181.488V182.208L341.665 177.952H343.409L345.921 181.168H345.393L347.905 177.952H349.633L346.241 182.176V181.52L349.841 186H348.081L345.393 182.56H345.921L343.201 186H341.457ZM354.594 186.144C353.805 186.144 353.122 185.979 352.546 185.648C351.97 185.307 351.522 184.827 351.202 184.208C350.882 183.579 350.722 182.832 350.722 181.968C350.722 181.115 350.882 180.379 351.202 179.76C351.522 179.131 351.97 178.651 352.546 178.32C353.122 177.979 353.805 177.808 354.594 177.808C355.384 177.808 356.066 177.979 356.642 178.32C357.229 178.651 357.677 179.131 357.986 179.76C358.306 180.379 358.466 181.115 358.466 181.968C358.466 182.832 358.306 183.579 357.986 184.208C357.677 184.827 357.229 185.307 356.642 185.648C356.066 185.979 355.384 186.144 354.594 186.144ZM354.594 184.992C355.32 184.992 355.901 184.736 356.338 184.224C356.776 183.712 356.994 182.96 356.994 181.968C356.994 180.976 356.776 180.229 356.338 179.728C355.901 179.227 355.32 178.976 354.594 178.976C353.858 178.976 353.272 179.227 352.834 179.728C352.408 180.229 352.194 180.976 352.194 181.968C352.194 182.96 352.408 183.712 352.834 184.224C353.272 184.736 353.858 184.992 354.594 184.992ZM359.713 188.08V184.864H360.593C360.956 184.32 361.217 183.68 361.377 182.944C361.548 182.208 361.633 181.333 361.633 180.32V177.952H367.409V184.864H368.689V188.08H367.441V186H360.977V188.08H359.713ZM361.969 184.88H366.049V179.072H362.913V180.576C362.913 181.387 362.833 182.176 362.673 182.944C362.513 183.701 362.278 184.347 361.969 184.88ZM370.373 186V177.952H371.813V180.8H374.181C375.226 180.8 376.01 181.024 376.533 181.472C377.066 181.909 377.333 182.544 377.333 183.376C377.333 183.909 377.21 184.373 376.965 184.768C376.72 185.163 376.362 185.467 375.893 185.68C375.424 185.893 374.853 186 374.181 186H370.373ZM371.813 184.992H374.021C374.661 184.992 375.141 184.864 375.461 184.608C375.792 184.341 375.957 183.936 375.957 183.392C375.957 182.848 375.792 182.448 375.461 182.192C375.141 181.936 374.661 181.808 374.021 181.808H371.813V184.992ZM378.501 186V177.952H379.941V186H378.501Z" fill="white"/>
<path d="M302 215.5C304.485 215.5 306.5 213.485 306.5 211C306.5 208.515 304.485 206.5 302 206.5C299.515 206.5 297.5 208.515 297.5 211C297.5 213.485 299.515 215.5 302 215.5Z" fill="white" stroke="#019A3E"/>
<path d="M314.376 216V204.72H315.848V209.696H318.056L317.656 209.952L321.192 204.72H322.872L319.064 210.208L318.52 209.76C319.203 209.835 319.779 210.064 320.248 210.448C320.728 210.832 321.149 211.371 321.512 212.064L323.48 216H321.864L320.264 212.704C319.955 212.064 319.597 211.611 319.192 211.344C318.787 211.077 318.28 210.944 317.672 210.944H315.848V216H314.376ZM328.204 216.144C327.414 216.144 326.732 215.979 326.156 215.648C325.58 215.307 325.132 214.827 324.812 214.208C324.492 213.579 324.332 212.832 324.332 211.968C324.332 211.115 324.492 210.379 324.812 209.76C325.132 209.131 325.58 208.651 326.156 208.32C326.732 207.979 327.414 207.808 328.204 207.808C328.993 207.808 329.676 207.979 330.252 208.32C330.838 208.651 331.286 209.131 331.596 209.76C331.916 210.379 332.076 211.115 332.076 211.968C332.076 212.832 331.916 213.579 331.596 214.208C331.286 214.827 330.838 215.307 330.252 215.648C329.676 215.979 328.993 216.144 328.204 216.144ZM328.204 214.992C328.929 214.992 329.51 214.736 329.948 214.224C330.385 213.712 330.604 212.96 330.604 211.968C330.604 210.976 330.385 210.229 329.948 209.728C329.51 209.227 328.929 208.976 328.204 208.976C327.468 208.976 326.881 209.227 326.444 209.728C326.017 210.229 325.804 210.976 325.804 211.968C325.804 212.96 326.017 213.712 326.444 214.224C326.881 214.736 327.468 214.992 328.204 214.992ZM334.154 216V207.952H335.594V211.28H339.85V207.952H341.29V216H339.85V212.432H335.594V216H334.154ZM343.779 216V207.952H347.747C348.697 207.952 349.401 208.133 349.859 208.496C350.329 208.859 350.563 209.381 350.563 210.064C350.563 210.576 350.387 211.008 350.035 211.36C349.683 211.701 349.225 211.909 348.659 211.984V211.776C349.331 211.797 349.859 211.995 350.243 212.368C350.638 212.731 350.835 213.2 350.835 213.776C350.835 214.459 350.574 215.003 350.051 215.408C349.539 215.803 348.819 216 347.891 216H343.779ZM345.155 215.04H347.795C348.339 215.04 348.755 214.928 349.043 214.704C349.331 214.469 349.475 214.139 349.475 213.712C349.475 213.275 349.331 212.944 349.043 212.72C348.755 212.496 348.339 212.384 347.795 212.384H345.155V215.04ZM345.155 211.424H347.619C348.121 211.424 348.51 211.312 348.787 211.088C349.065 210.864 349.203 210.555 349.203 210.16C349.203 209.755 349.065 209.445 348.787 209.232C348.51 209.019 348.121 208.912 347.619 208.912H345.155V211.424ZM356.507 216.144C355.227 216.144 354.214 215.776 353.467 215.04C352.731 214.304 352.363 213.291 352.363 212C352.363 211.147 352.523 210.411 352.843 209.792C353.174 209.163 353.627 208.677 354.203 208.336C354.779 207.984 355.451 207.808 356.219 207.808C356.955 207.808 357.579 207.968 358.091 208.288C358.603 208.597 358.992 209.04 359.259 209.616C359.526 210.192 359.659 210.875 359.659 211.664V212.144H353.499V211.28H358.667L358.395 211.488C358.395 210.656 358.208 210.011 357.835 209.552C357.472 209.093 356.934 208.864 356.219 208.864C355.44 208.864 354.838 209.136 354.411 209.68C353.984 210.213 353.771 210.944 353.771 211.872V212.016C353.771 212.997 354.011 213.739 354.491 214.24C354.982 214.741 355.659 214.992 356.523 214.992C357.003 214.992 357.451 214.923 357.867 214.784C358.283 214.645 358.683 214.416 359.067 214.096L359.547 215.104C359.184 215.435 358.731 215.691 358.187 215.872C357.654 216.053 357.094 216.144 356.507 216.144ZM361.734 219.456V209.856C361.734 209.547 361.723 209.232 361.702 208.912C361.68 208.592 361.648 208.272 361.606 207.952H363.014L363.19 209.808H363.014C363.174 209.189 363.515 208.704 364.038 208.352C364.56 207.989 365.184 207.808 365.91 207.808C366.624 207.808 367.248 207.973 367.782 208.304C368.315 208.635 368.726 209.115 369.014 209.744C369.312 210.363 369.462 211.104 369.462 211.968C369.462 212.832 369.312 213.579 369.014 214.208C368.726 214.837 368.315 215.317 367.782 215.648C367.248 215.979 366.624 216.144 365.91 216.144C365.195 216.144 364.576 215.968 364.054 215.616C363.542 215.253 363.195 214.768 363.014 214.16H363.19V219.456H361.734ZM365.574 214.992C366.31 214.992 366.896 214.736 367.334 214.224C367.771 213.712 367.99 212.96 367.99 211.968C367.99 210.976 367.771 210.229 367.334 209.728C366.896 209.227 366.31 208.976 365.574 208.976C364.838 208.976 364.251 209.227 363.814 209.728C363.387 210.229 363.174 210.976 363.174 211.968C363.174 212.96 363.387 213.712 363.814 214.224C364.251 214.736 364.838 214.992 365.574 214.992ZM375.049 216.144C374.249 216.144 373.556 215.979 372.969 215.648C372.382 215.307 371.924 214.821 371.593 214.192C371.273 213.552 371.113 212.795 371.113 211.92C371.113 211.056 371.278 210.32 371.609 209.712C371.94 209.093 372.398 208.624 372.985 208.304C373.572 207.973 374.26 207.808 375.049 207.808C375.572 207.808 376.078 207.899 376.569 208.08C377.06 208.251 377.46 208.501 377.769 208.832L377.273 209.856C376.964 209.557 376.622 209.339 376.249 209.2C375.876 209.051 375.508 208.976 375.145 208.976C374.356 208.976 373.737 209.232 373.289 209.744C372.841 210.245 372.617 210.976 372.617 211.936C372.617 212.907 372.841 213.653 373.289 214.176C373.737 214.699 374.356 214.96 375.145 214.96C375.497 214.96 375.86 214.891 376.233 214.752C376.606 214.613 376.953 214.395 377.273 214.096L377.769 215.104C377.449 215.445 377.038 215.707 376.537 215.888C376.046 216.059 375.55 216.144 375.049 216.144ZM379.67 216V207.952H380.998V214.624H380.566L385.558 207.952H386.774V216H385.446V209.312H385.894L380.886 216H379.67ZM388.624 216L389.888 213.808C390.09 213.456 390.346 213.173 390.656 212.96C390.965 212.736 391.29 212.624 391.632 212.624H391.888L391.872 212.768C390.965 212.768 390.256 212.565 389.744 212.16C389.232 211.744 388.976 211.147 388.976 210.368C388.976 209.6 389.226 209.008 389.728 208.592C390.229 208.165 390.976 207.952 391.968 207.952H395.632V216H394.288V212.96H393.136C392.72 212.96 392.362 213.067 392.064 213.28C391.765 213.483 391.52 213.755 391.328 214.096L390.24 216H388.624ZM392.224 211.952H394.288V208.944H392.224C391.594 208.944 391.125 209.077 390.816 209.344C390.517 209.611 390.368 209.979 390.368 210.448C390.368 210.928 390.517 211.301 390.816 211.568C391.125 211.824 391.594 211.952 392.224 211.952Z" fill="white"/>
</svg>
