<svg width="439" height="136" viewBox="0 0 439 136" fill="none" xmlns="http://www.w3.org/2000/svg">
<path d="M34 1V109" stroke="#F0F0F0"/>
<path d="M173 1L173.003 108" stroke="#F0F0F0"/>
<path d="M301 1L300.917 108" stroke="#F0F0F0"/>
<path d="M34 57L439 57" stroke="#F0F0F0"/>
<path d="M34.3286 1.02686H439" stroke="#F0F0F0"/>
<path d="M168.335 32.6932C100.502 32.6932 34 24 34 24V109H439V48.1477C439 48.1477 370.502 41.3864 302.67 41.3864C234.837 41.3864 234.837 32.6932 168.335 32.6932Z" fill="#A6CEE3" fill-opacity="0.8"/>
<path d="M4.2 109.126C3.08 109.126 2.22133 108.692 1.624 107.824C1.02667 106.956 0.728 105.701 0.728 104.058C0.728 102.406 1.02667 101.151 1.624 100.292C2.22133 99.4333 3.08 99.004 4.2 99.004C5.32933 99.004 6.188 99.4333 6.776 100.292C7.37333 101.151 7.672 102.401 7.672 104.044C7.672 105.696 7.37333 106.956 6.776 107.824C6.17867 108.692 5.32 109.126 4.2 109.126ZM4.2 108.118C4.984 108.118 5.56733 107.787 5.95 107.124C6.33267 106.461 6.524 105.435 6.524 104.044C6.524 102.644 6.33267 101.622 5.95 100.978C5.56733 100.325 4.984 99.998 4.2 99.998C3.42533 99.998 2.842 100.325 2.45 100.978C2.06733 101.631 1.876 102.653 1.876 104.044C1.876 105.435 2.06733 106.461 2.45 107.124C2.842 107.787 3.42533 108.118 4.2 108.118Z" fill="#7B8794"/>
<path d="M1.778 11V10.006H4.102V2.124H4.718L2.002 3.818V2.656L4.424 1.13H5.264V10.006H7.448V11H1.778ZM12.5945 11.126C11.4745 11.126 10.6159 10.692 10.0185 9.824C9.4212 8.956 9.12253 7.70067 9.12253 6.058C9.12253 4.406 9.4212 3.15067 10.0185 2.292C10.6159 1.43333 11.4745 1.004 12.5945 1.004C13.7239 1.004 14.5825 1.43333 15.1705 2.292C15.7679 3.15067 16.0665 4.40133 16.0665 6.044C16.0665 7.696 15.7679 8.956 15.1705 9.824C14.5732 10.692 13.7145 11.126 12.5945 11.126ZM12.5945 10.118C13.3785 10.118 13.9619 9.78667 14.3445 9.124C14.7272 8.46133 14.9185 7.43467 14.9185 6.044C14.9185 4.644 14.7272 3.622 14.3445 2.978C13.9619 2.32467 13.3785 1.998 12.5945 1.998C11.8199 1.998 11.2365 2.32467 10.8445 2.978C10.4619 3.63133 10.2705 4.65333 10.2705 6.044C10.2705 7.43467 10.4619 8.46133 10.8445 9.124C11.2365 9.78667 11.8199 10.118 12.5945 10.118ZM20.9891 11.126C19.8691 11.126 19.0104 10.692 18.4131 9.824C17.8157 8.956 17.5171 7.70067 17.5171 6.058C17.5171 4.406 17.8157 3.15067 18.4131 2.292C19.0104 1.43333 19.8691 1.004 20.9891 1.004C22.1184 1.004 22.9771 1.43333 23.5651 2.292C24.1624 3.15067 24.4611 4.40133 24.4611 6.044C24.4611 7.696 24.1624 8.956 23.5651 9.824C22.9677 10.692 22.1091 11.126 20.9891 11.126ZM20.9891 10.118C21.7731 10.118 22.3564 9.78667 22.7391 9.124C23.1217 8.46133 23.3131 7.43467 23.3131 6.044C23.3131 4.644 23.1217 3.622 22.7391 2.978C22.3564 2.32467 21.7731 1.998 20.9891 1.998C20.2144 1.998 19.6311 2.32467 19.2391 2.978C18.8564 3.63133 18.6651 4.65333 18.6651 6.044C18.6651 7.43467 18.8564 8.46133 19.2391 9.124C19.6311 9.78667 20.2144 10.118 20.9891 10.118Z" fill="#7B8794"/>
<path d="M4.382 62.126C3.95267 62.126 3.53267 62.0793 3.122 61.986C2.71133 61.8927 2.324 61.7573 1.96 61.58C1.60533 61.4027 1.29267 61.188 1.022 60.936L1.456 60.04C1.91333 60.404 2.38 60.6747 2.856 60.852C3.332 61.02 3.84067 61.104 4.382 61.104C5.09133 61.104 5.64667 60.9127 6.048 60.53C6.44933 60.1473 6.65 59.6433 6.65 59.018C6.65 58.374 6.45867 57.8467 6.076 57.436C5.69333 57.0253 5.16133 56.82 4.48 56.82C3.99467 56.82 3.56067 56.918 3.178 57.114C2.79533 57.3007 2.464 57.5947 2.184 57.996H1.344V52.13H7.196V53.11H2.464V57.044H2.156C2.408 56.652 2.75333 56.3533 3.192 56.148C3.64 55.9333 4.144 55.826 4.704 55.826C5.33867 55.826 5.88467 55.9567 6.342 56.218C6.80867 56.4793 7.168 56.8433 7.42 57.31C7.672 57.7767 7.798 58.3227 7.798 58.948C7.798 59.5733 7.658 60.1287 7.378 60.614C7.10733 61.09 6.71533 61.4633 6.202 61.734C5.698 61.9953 5.09133 62.126 4.382 62.126ZM12.5945 62.126C11.4745 62.126 10.6159 61.692 10.0185 60.824C9.4212 59.956 9.12253 58.7007 9.12253 57.058C9.12253 55.406 9.4212 54.1507 10.0185 53.292C10.6159 52.4333 11.4745 52.004 12.5945 52.004C13.7239 52.004 14.5825 52.4333 15.1705 53.292C15.7679 54.1507 16.0665 55.4013 16.0665 57.044C16.0665 58.696 15.7679 59.956 15.1705 60.824C14.5732 61.692 13.7145 62.126 12.5945 62.126ZM12.5945 61.118C13.3785 61.118 13.9619 60.7867 14.3445 60.124C14.7272 59.4613 14.9185 58.4347 14.9185 57.044C14.9185 55.644 14.7272 54.622 14.3445 53.978C13.9619 53.3247 13.3785 52.998 12.5945 52.998C11.8199 52.998 11.2365 53.3247 10.8445 53.978C10.4619 54.6313 10.2705 55.6533 10.2705 57.044C10.2705 58.4347 10.4619 59.4613 10.8445 60.124C11.2365 60.7867 11.8199 61.118 12.5945 61.118Z" fill="#7B8794"/>
<path d="M5.2 135.126C4.08 135.126 3.22133 134.692 2.624 133.824C2.02667 132.956 1.728 131.701 1.728 130.058C1.728 128.406 2.02667 127.151 2.624 126.292C3.22133 125.433 4.08 125.004 5.2 125.004C6.32933 125.004 7.188 125.433 7.776 126.292C8.37333 127.151 8.672 128.401 8.672 130.044C8.672 131.696 8.37333 132.956 7.776 133.824C7.17867 134.692 6.32 135.126 5.2 135.126ZM5.2 134.118C5.984 134.118 6.56733 133.787 6.95 133.124C7.33267 132.461 7.524 131.435 7.524 130.044C7.524 128.644 7.33267 127.622 6.95 126.978C6.56733 126.325 5.984 125.998 5.2 125.998C4.42533 125.998 3.842 126.325 3.45 126.978C3.06733 127.631 2.876 128.653 2.876 130.044C2.876 131.435 3.06733 132.461 3.45 133.124C3.842 133.787 4.42533 134.118 5.2 134.118ZM11.1725 135V134.006H13.4965V126.124H14.1125L11.3965 127.818V126.656L13.8185 125.13H14.6585V134.006H16.8425V135H11.1725ZM18.6711 135V133.572H20.0991V135H18.6711ZM25.1746 135.126C24.0546 135.126 23.1959 134.692 22.5986 133.824C22.0013 132.956 21.7026 131.701 21.7026 130.058C21.7026 128.406 22.0013 127.151 22.5986 126.292C23.1959 125.433 24.0546 125.004 25.1746 125.004C26.3039 125.004 27.1626 125.433 27.7506 126.292C28.3479 127.151 28.6466 128.401 28.6466 130.044C28.6466 131.696 28.3479 132.956 27.7506 133.824C27.1533 134.692 26.2946 135.126 25.1746 135.126ZM25.1746 134.118C25.9586 134.118 26.5419 133.787 26.9246 133.124C27.3073 132.461 27.4986 131.435 27.4986 130.044C27.4986 128.644 27.3073 127.622 26.9246 126.978C26.5419 126.325 25.9586 125.998 25.1746 125.998C24.3999 125.998 23.8166 126.325 23.4246 126.978C23.0419 127.631 22.8506 128.653 22.8506 130.044C22.8506 131.435 23.0419 132.461 23.4246 133.124C23.8166 133.787 24.3999 134.118 25.1746 134.118ZM31.1471 135V134.006H33.4711V126.124H34.0871L31.3711 127.818V126.656L33.7931 125.13H34.6331V134.006H36.8171V135H31.1471ZM38.6457 135V133.572H40.0737V135H38.6457ZM42.1532 135V134.132L45.6532 130.478C46.1106 130.002 46.4512 129.549 46.6752 129.12C46.9086 128.681 47.0252 128.229 47.0252 127.762C47.0252 127.193 46.8479 126.763 46.4932 126.474C46.1386 126.175 45.6252 126.026 44.9532 126.026C44.4306 126.026 43.9452 126.119 43.4972 126.306C43.0586 126.483 42.6339 126.768 42.2232 127.16L41.8032 126.25C42.1766 125.877 42.6526 125.578 43.2312 125.354C43.8099 125.121 44.4212 125.004 45.0652 125.004C46.0639 125.004 46.8339 125.237 47.3752 125.704C47.9166 126.161 48.1872 126.815 48.1872 127.664C48.1872 128.289 48.0332 128.887 47.7252 129.456C47.4266 130.016 46.9879 130.595 46.4092 131.192L43.3152 134.328V134.006H48.6072V135H42.1532ZM51.1218 135V134.006H53.4458V126.124H54.0618L51.3458 127.818V126.656L53.7678 125.13H54.6078V134.006H56.7918V135H51.1218Z" fill="#7B8794"/>
<path d="M132.331 135.251C131.211 135.251 130.352 134.817 129.755 133.949C129.158 133.081 128.859 131.826 128.859 130.183C128.859 128.531 129.158 127.276 129.755 126.417C130.352 125.558 131.211 125.129 132.331 125.129C133.46 125.129 134.319 125.558 134.907 126.417C135.504 127.276 135.803 128.526 135.803 130.169C135.803 131.821 135.504 133.081 134.907 133.949C134.31 134.817 133.451 135.251 132.331 135.251ZM132.331 134.243C133.115 134.243 133.698 133.912 134.081 133.249C134.464 132.586 134.655 131.56 134.655 130.169C134.655 128.769 134.464 127.747 134.081 127.103C133.698 126.45 133.115 126.123 132.331 126.123C131.556 126.123 130.973 126.45 130.581 127.103C130.198 127.756 130.007 128.778 130.007 130.169C130.007 131.56 130.198 132.586 130.581 133.249C130.973 133.912 131.556 134.243 132.331 134.243ZM138.303 135.125V134.131H140.627V126.249H141.243L138.527 127.943V126.781L140.949 125.255H141.789V134.131H143.973V135.125H138.303ZM145.802 135.125V133.697H147.23V135.125H145.802ZM152.305 135.251C151.185 135.251 150.327 134.817 149.729 133.949C149.132 133.081 148.833 131.826 148.833 130.183C148.833 128.531 149.132 127.276 149.729 126.417C150.327 125.558 151.185 125.129 152.305 125.129C153.435 125.129 154.293 125.558 154.881 126.417C155.479 127.276 155.777 128.526 155.777 130.169C155.777 131.821 155.479 133.081 154.881 133.949C154.284 134.817 153.425 135.251 152.305 135.251ZM152.305 134.243C153.089 134.243 153.673 133.912 154.055 133.249C154.438 132.586 154.629 131.56 154.629 130.169C154.629 128.769 154.438 127.747 154.055 127.103C153.673 126.45 153.089 126.123 152.305 126.123C151.531 126.123 150.947 126.45 150.555 127.103C150.173 127.756 149.981 128.778 149.981 130.169C149.981 131.56 150.173 132.586 150.555 133.249C150.947 133.912 151.531 134.243 152.305 134.243ZM157.704 135.125V134.257L161.204 130.603C161.661 130.127 162.002 129.674 162.226 129.245C162.459 128.806 162.576 128.354 162.576 127.887C162.576 127.318 162.399 126.888 162.044 126.599C161.689 126.3 161.176 126.151 160.504 126.151C159.981 126.151 159.496 126.244 159.048 126.431C158.609 126.608 158.185 126.893 157.774 127.285L157.354 126.375C157.727 126.002 158.203 125.703 158.782 125.479C159.361 125.246 159.972 125.129 160.616 125.129C161.615 125.129 162.385 125.362 162.926 125.829C163.467 126.286 163.738 126.94 163.738 127.789C163.738 128.414 163.584 129.012 163.276 129.581C162.977 130.141 162.539 130.72 161.96 131.317L158.866 134.453V134.131H164.158V135.125H157.704ZM165.777 135.125V133.697H167.205V135.125H165.777ZM169.284 135.125V134.257L172.784 130.603C173.241 130.127 173.582 129.674 173.806 129.245C174.039 128.806 174.156 128.354 174.156 127.887C174.156 127.318 173.979 126.888 173.624 126.599C173.269 126.3 172.756 126.151 172.084 126.151C171.561 126.151 171.076 126.244 170.628 126.431C170.189 126.608 169.765 126.893 169.354 127.285L168.934 126.375C169.307 126.002 169.783 125.703 170.362 125.479C170.941 125.246 171.552 125.129 172.196 125.129C173.195 125.129 173.965 125.362 174.506 125.829C175.047 126.286 175.318 126.94 175.318 127.789C175.318 128.414 175.164 129.012 174.856 129.581C174.557 130.141 174.119 130.72 173.54 131.317L170.446 134.453V134.131H175.738V135.125H169.284ZM178.253 135.125V134.131H180.577V126.249H181.193L178.477 127.943V126.781L180.899 125.255H181.739V134.131H183.923V135.125H178.253Z" fill="#7B8794"/>
<path d="M259.331 135.251C258.211 135.251 257.352 134.817 256.755 133.949C256.158 133.081 255.859 131.826 255.859 130.183C255.859 128.531 256.158 127.276 256.755 126.417C257.352 125.558 258.211 125.129 259.331 125.129C260.46 125.129 261.319 125.558 261.907 126.417C262.504 127.276 262.803 128.526 262.803 130.169C262.803 131.821 262.504 133.081 261.907 133.949C261.31 134.817 260.451 135.251 259.331 135.251ZM259.331 134.243C260.115 134.243 260.698 133.912 261.081 133.249C261.464 132.586 261.655 131.56 261.655 130.169C261.655 128.769 261.464 127.747 261.081 127.103C260.698 126.45 260.115 126.123 259.331 126.123C258.556 126.123 257.973 126.45 257.581 127.103C257.198 127.756 257.007 128.778 257.007 130.169C257.007 131.56 257.198 132.586 257.581 133.249C257.973 133.912 258.556 134.243 259.331 134.243ZM265.303 135.125V134.131H267.627V126.249H268.243L265.527 127.943V126.781L267.949 125.255H268.789V134.131H270.973V135.125H265.303ZM272.802 135.125V133.697H274.23V135.125H272.802ZM279.305 135.251C278.185 135.251 277.327 134.817 276.729 133.949C276.132 133.081 275.833 131.826 275.833 130.183C275.833 128.531 276.132 127.276 276.729 126.417C277.327 125.558 278.185 125.129 279.305 125.129C280.435 125.129 281.293 125.558 281.881 126.417C282.479 127.276 282.777 128.526 282.777 130.169C282.777 131.821 282.479 133.081 281.881 133.949C281.284 134.817 280.425 135.251 279.305 135.251ZM279.305 134.243C280.089 134.243 280.673 133.912 281.055 133.249C281.438 132.586 281.629 131.56 281.629 130.169C281.629 128.769 281.438 127.747 281.055 127.103C280.673 126.45 280.089 126.123 279.305 126.123C278.531 126.123 277.947 126.45 277.555 127.103C277.173 127.756 276.981 128.778 276.981 130.169C276.981 131.56 277.173 132.586 277.555 133.249C277.947 133.912 278.531 134.243 279.305 134.243ZM287.644 135.251C286.981 135.251 286.347 135.148 285.74 134.943C285.133 134.738 284.625 134.444 284.214 134.061L284.648 133.165C285.105 133.538 285.577 133.809 286.062 133.977C286.547 134.145 287.07 134.229 287.63 134.229C288.367 134.229 288.927 134.075 289.31 133.767C289.693 133.45 289.884 132.988 289.884 132.381C289.884 131.802 289.688 131.364 289.296 131.065C288.904 130.757 288.33 130.603 287.574 130.603H286.09V129.637H287.476C288.129 129.637 288.647 129.469 289.03 129.133C289.413 128.797 289.604 128.34 289.604 127.761C289.604 127.238 289.427 126.842 289.072 126.571C288.727 126.291 288.227 126.151 287.574 126.151C286.51 126.151 285.591 126.529 284.816 127.285L284.382 126.375C284.765 125.983 285.245 125.68 285.824 125.465C286.403 125.241 287.009 125.129 287.644 125.129C288.615 125.129 289.375 125.353 289.926 125.801C290.477 126.249 290.752 126.87 290.752 127.663C290.752 128.27 290.579 128.792 290.234 129.231C289.889 129.66 289.422 129.954 288.834 130.113V129.959C289.534 130.071 290.075 130.351 290.458 130.799C290.841 131.238 291.032 131.793 291.032 132.465C291.032 133.324 290.729 134.005 290.122 134.509C289.525 135.004 288.699 135.251 287.644 135.251ZM292.777 135.125V133.697H294.205V135.125H292.777ZM296.284 135.125V134.257L299.784 130.603C300.241 130.127 300.582 129.674 300.806 129.245C301.039 128.806 301.156 128.354 301.156 127.887C301.156 127.318 300.979 126.888 300.624 126.599C300.269 126.3 299.756 126.151 299.084 126.151C298.561 126.151 298.076 126.244 297.628 126.431C297.189 126.608 296.765 126.893 296.354 127.285L295.934 126.375C296.307 126.002 296.783 125.703 297.362 125.479C297.941 125.246 298.552 125.129 299.196 125.129C300.195 125.129 300.965 125.362 301.506 125.829C302.047 126.286 302.318 126.94 302.318 127.789C302.318 128.414 302.164 129.012 301.856 129.581C301.557 130.141 301.119 130.72 300.54 131.317L297.446 134.453V134.131H302.738V135.125H296.284ZM305.253 135.125V134.131H307.577V126.249H308.193L305.477 127.943V126.781L307.899 125.255H308.739V134.131H310.923V135.125H305.253Z" fill="#7B8794"/>
<path d="M386.462 135.126C385.342 135.126 384.483 134.692 383.886 133.824C383.288 132.956 382.99 131.701 382.99 130.058C382.99 128.406 383.288 127.151 383.886 126.292C384.483 125.433 385.342 125.004 386.462 125.004C387.591 125.004 388.45 125.433 389.038 126.292C389.635 127.151 389.934 128.401 389.934 130.044C389.934 131.696 389.635 132.956 389.038 133.824C388.44 134.692 387.582 135.126 386.462 135.126ZM386.462 134.118C387.246 134.118 387.829 133.787 388.212 133.124C388.594 132.461 388.786 131.435 388.786 130.044C388.786 128.644 388.594 127.622 388.212 126.978C387.829 126.325 387.246 125.998 386.462 125.998C385.687 125.998 385.104 126.325 384.712 126.978C384.329 127.631 384.138 128.653 384.138 130.044C384.138 131.435 384.329 132.461 384.712 133.124C385.104 133.787 385.687 134.118 386.462 134.118ZM392.434 135V134.006H394.758V126.124H395.374L392.658 127.818V126.656L395.08 125.13H395.92V134.006H398.104V135H392.434ZM399.933 135V133.572H401.361V135H399.933ZM406.436 135.126C405.316 135.126 404.458 134.692 403.86 133.824C403.263 132.956 402.964 131.701 402.964 130.058C402.964 128.406 403.263 127.151 403.86 126.292C404.458 125.433 405.316 125.004 406.436 125.004C407.566 125.004 408.424 125.433 409.012 126.292C409.61 127.151 409.908 128.401 409.908 130.044C409.908 131.696 409.61 132.956 409.012 133.824C408.415 134.692 407.556 135.126 406.436 135.126ZM406.436 134.118C407.22 134.118 407.804 133.787 408.186 133.124C408.569 132.461 408.76 131.435 408.76 130.044C408.76 128.644 408.569 127.622 408.186 126.978C407.804 126.325 407.22 125.998 406.436 125.998C405.662 125.998 405.078 126.325 404.686 126.978C404.304 127.631 404.112 128.653 404.112 130.044C404.112 131.435 404.304 132.461 404.686 133.124C405.078 133.787 405.662 134.118 406.436 134.118ZM416.035 135V132.858H411.331V132.018L416.217 125.13H417.169V131.92H418.681V132.858H417.169V135H416.035ZM416.035 131.92V126.502H416.343L412.283 132.214V131.92H416.035ZM419.907 135V133.572H421.335V135H419.907ZM423.415 135V134.132L426.915 130.478C427.372 130.002 427.713 129.549 427.937 129.12C428.17 128.681 428.287 128.229 428.287 127.762C428.287 127.193 428.11 126.763 427.755 126.474C427.4 126.175 426.887 126.026 426.215 126.026C425.692 126.026 425.207 126.119 424.759 126.306C424.32 126.483 423.896 126.768 423.485 127.16L423.065 126.25C423.438 125.877 423.914 125.578 424.493 125.354C425.072 125.121 425.683 125.004 426.327 125.004C427.326 125.004 428.096 125.237 428.637 125.704C429.178 126.161 429.449 126.815 429.449 127.664C429.449 128.289 429.295 128.887 428.987 129.456C428.688 130.016 428.25 130.595 427.671 131.192L424.577 134.328V134.006H429.869V135H423.415ZM432.383 135V134.006H434.707V126.124H435.323L432.607 127.818V126.656L435.029 125.13H435.869V134.006H438.053V135H432.383Z" fill="#7B8794"/>
</svg>
