<svg width="959" height="252" viewBox="0 0 959 252" fill="none" xmlns="http://www.w3.org/2000/svg">
<path opacity="0.2" d="M90.7575 126.522L5.81686 134.333C4.7876 134.428 4 135.291 4 136.325V228C4 229.105 4.89543 230 6 230H948.5C949.605 230 950.5 229.105 950.5 228V97.1061C950.5 95.961 949.54 95.0496 948.397 95.1088L863.5 99.5H779.933C779.648 99.5 779.366 99.439 779.106 99.3211L692.5 60L607.665 23.9947C606.954 23.6926 606.132 23.8278 605.554 24.3418L520 100.5L435.145 174.008C434.468 174.595 433.483 174.659 432.735 174.166L347.5 118L263.355 64.0481C262.818 63.7036 262.148 63.6362 261.553 63.8667L176 97L91.2301 126.42C91.0773 126.473 90.9186 126.507 90.7575 126.522Z" fill="url(#paint0_linear_3048_1002)"/>
<rect opacity="0.5" x="4" y="229" width="946" height="1" fill="#D9D9D9"/>
<rect x="4.25" y="8.25" width="0.5" height="221.5" fill="#D9D9D9" fill-opacity="0.01" stroke="#E2E2E2" stroke-width="0.5" stroke-dasharray="1 1"/>
<rect x="348.25" y="8.25" width="0.5" height="221.5" fill="#D9D9D9" fill-opacity="0.01" stroke="#E2E2E2" stroke-width="0.5" stroke-dasharray="1 1"/>
<rect x="434.25" y="8.25" width="0.5" height="221.5" fill="#D9D9D9" fill-opacity="0.01" stroke="#E2E2E2" stroke-width="0.5" stroke-dasharray="1 1"/>
<rect x="520.25" y="8.25" width="0.5" height="221.5" fill="#D9D9D9" fill-opacity="0.01" stroke="#E2E2E2" stroke-width="0.5" stroke-dasharray="1 1"/>
<rect x="606.25" y="8.25" width="0.5" height="221.5" fill="#D9D9D9" fill-opacity="0.01" stroke="#E2E2E2" stroke-width="0.5" stroke-dasharray="1 1"/>
<rect x="692.25" y="8.25" width="0.5" height="221.5" fill="#D9D9D9" fill-opacity="0.01" stroke="#E2E2E2" stroke-width="0.5" stroke-dasharray="1 1"/>
<rect x="778.25" y="8.25" width="0.5" height="221.5" fill="#D9D9D9" fill-opacity="0.01" stroke="#E2E2E2" stroke-width="0.5" stroke-dasharray="1 1"/>
<rect x="864.25" y="8.25" width="0.5" height="221.5" fill="#D9D9D9" fill-opacity="0.01" stroke="#E2E2E2" stroke-width="0.5" stroke-dasharray="1 1"/>
<rect x="950.25" y="8.25" width="0.5" height="221.5" fill="#D9D9D9" fill-opacity="0.01" stroke="#E2E2E2" stroke-width="0.5" stroke-dasharray="1 1"/>
<rect x="262.25" y="8.25" width="0.5" height="221.5" fill="#D9D9D9" fill-opacity="0.01" stroke="#E2E2E2" stroke-width="0.5" stroke-dasharray="1 1"/>
<rect x="176.25" y="8.25" width="0.5" height="221.5" fill="#D9D9D9" fill-opacity="0.01" stroke="#E2E2E2" stroke-width="0.5" stroke-dasharray="1 1"/>
<rect x="90.25" y="8.25" width="0.5" height="221.5" fill="#D9D9D9" fill-opacity="0.01" stroke="#E2E2E2" stroke-width="0.5" stroke-dasharray="1 1"/>
<path d="M22.736 250V248.894H25.046V241.236H25.704L22.946 242.944V241.67L25.41 240.13H26.348V248.894H28.518V250H22.736ZM30.8785 250L35.7365 240.718V241.25H30.2765V240.13H36.9265V241.096L32.3205 250H30.8785ZM45.6385 250.126C44.9385 250.126 44.3318 249.981 43.8185 249.692C43.3051 249.393 42.9038 248.969 42.6145 248.418C42.3345 247.858 42.1945 247.195 42.1945 246.43C42.1945 245.674 42.3391 245.03 42.6285 244.498C42.9178 243.957 43.3191 243.546 43.8325 243.266C44.3458 242.977 44.9478 242.832 45.6385 242.832C46.0958 242.832 46.5391 242.911 46.9685 243.07C47.3978 243.219 47.7478 243.439 48.0185 243.728L47.5845 244.624C47.3138 244.363 47.0151 244.171 46.6885 244.05C46.3618 243.919 46.0398 243.854 45.7225 243.854C45.0318 243.854 44.4905 244.078 44.0985 244.526C43.7065 244.965 43.5105 245.604 43.5105 246.444C43.5105 247.293 43.7065 247.947 44.0985 248.404C44.4905 248.861 45.0318 249.09 45.7225 249.09C46.0305 249.09 46.3478 249.029 46.6745 248.908C47.0011 248.787 47.3045 248.595 47.5845 248.334L48.0185 249.216C47.7385 249.515 47.3791 249.743 46.9405 249.902C46.5111 250.051 46.0771 250.126 45.6385 250.126ZM52.9298 250.126C51.8098 250.126 50.9232 249.804 50.2698 249.16C49.6258 248.516 49.3038 247.629 49.3038 246.5C49.3038 245.753 49.4438 245.109 49.7238 244.568C50.0132 244.017 50.4098 243.593 50.9138 243.294C51.4178 242.986 52.0058 242.832 52.6778 242.832C53.3218 242.832 53.8678 242.972 54.3158 243.252C54.7638 243.523 55.1045 243.91 55.3378 244.414C55.5712 244.918 55.6878 245.515 55.6878 246.206V246.626H50.2978V245.87H54.8198L54.5818 246.052C54.5818 245.324 54.4185 244.759 54.0918 244.358C53.7745 243.957 53.3032 243.756 52.6778 243.756C51.9965 243.756 51.4692 243.994 51.0958 244.47C50.7225 244.937 50.5358 245.576 50.5358 246.388V246.514C50.5358 247.373 50.7458 248.021 51.1658 248.46C51.5952 248.899 52.1878 249.118 52.9438 249.118C53.3638 249.118 53.7558 249.057 54.1198 248.936C54.4838 248.815 54.8338 248.614 55.1698 248.334L55.5898 249.216C55.2725 249.505 54.8758 249.729 54.3998 249.888C53.9332 250.047 53.4432 250.126 52.9298 250.126ZM57.4611 250V242.958H58.7211V245.87H62.4451V242.958H63.7051V250H62.4451V246.878H58.7211V250H57.4611ZM67.395 250V243.98H64.861V242.958H71.189V243.98H68.655V250H67.395ZM71.1274 250V248.446H72.6814V250H71.1274Z" fill="#A1A4A7"/>
<path d="M108.736 250V248.894H111.046V241.236H111.704L108.946 242.944V241.67L111.41 240.13H112.348V248.894H114.518V250H108.736ZM119.595 250.126C118.456 250.126 117.574 249.883 116.949 249.398C116.323 248.913 116.011 248.236 116.011 247.368C116.011 246.687 116.221 246.122 116.641 245.674C117.07 245.217 117.625 244.941 118.307 244.848V245.072C117.681 244.941 117.182 244.657 116.809 244.218C116.445 243.779 116.263 243.252 116.263 242.636C116.263 241.815 116.557 241.171 117.145 240.704C117.742 240.237 118.559 240.004 119.595 240.004C120.64 240.004 121.457 240.237 122.045 240.704C122.642 241.171 122.941 241.815 122.941 242.636C122.941 243.252 122.763 243.784 122.409 244.232C122.063 244.68 121.583 244.96 120.967 245.072V244.848C121.648 244.941 122.185 245.217 122.577 245.674C122.978 246.122 123.179 246.687 123.179 247.368C123.179 248.236 122.866 248.913 122.241 249.398C121.625 249.883 120.743 250.126 119.595 250.126ZM119.595 249.076C120.388 249.076 120.976 248.927 121.359 248.628C121.751 248.329 121.947 247.886 121.947 247.298C121.947 246.701 121.751 246.257 121.359 245.968C120.976 245.679 120.388 245.534 119.595 245.534C118.811 245.534 118.223 245.679 117.831 245.968C117.439 246.257 117.243 246.701 117.243 247.298C117.243 247.886 117.439 248.329 117.831 248.628C118.223 248.927 118.811 249.076 119.595 249.076ZM119.595 244.47C120.276 244.47 120.794 244.321 121.149 244.022C121.513 243.714 121.695 243.289 121.695 242.748C121.695 242.216 121.513 241.801 121.149 241.502C120.794 241.203 120.276 241.054 119.595 241.054C118.923 241.054 118.405 241.203 118.041 241.502C117.677 241.801 117.495 242.216 117.495 242.748C117.495 243.289 117.677 243.714 118.041 244.022C118.405 244.321 118.923 244.47 119.595 244.47ZM131.638 250.126C130.938 250.126 130.332 249.981 129.818 249.692C129.305 249.393 128.904 248.969 128.614 248.418C128.334 247.858 128.194 247.195 128.194 246.43C128.194 245.674 128.339 245.03 128.628 244.498C128.918 243.957 129.319 243.546 129.832 243.266C130.346 242.977 130.948 242.832 131.638 242.832C132.096 242.832 132.539 242.911 132.968 243.07C133.398 243.219 133.748 243.439 134.018 243.728L133.584 244.624C133.314 244.363 133.015 244.171 132.688 244.05C132.362 243.919 132.04 243.854 131.722 243.854C131.032 243.854 130.49 244.078 130.098 244.526C129.706 244.965 129.51 245.604 129.51 246.444C129.51 247.293 129.706 247.947 130.098 248.404C130.49 248.861 131.032 249.09 131.722 249.09C132.03 249.09 132.348 249.029 132.674 248.908C133.001 248.787 133.304 248.595 133.584 248.334L134.018 249.216C133.738 249.515 133.379 249.743 132.94 249.902C132.511 250.051 132.077 250.126 131.638 250.126ZM138.93 250.126C137.81 250.126 136.923 249.804 136.27 249.16C135.626 248.516 135.304 247.629 135.304 246.5C135.304 245.753 135.444 245.109 135.724 244.568C136.013 244.017 136.41 243.593 136.914 243.294C137.418 242.986 138.006 242.832 138.678 242.832C139.322 242.832 139.868 242.972 140.316 243.252C140.764 243.523 141.105 243.91 141.338 244.414C141.571 244.918 141.688 245.515 141.688 246.206V246.626H136.298V245.87H140.82L140.582 246.052C140.582 245.324 140.419 244.759 140.092 244.358C139.775 243.957 139.303 243.756 138.678 243.756C137.997 243.756 137.469 243.994 137.096 244.47C136.723 244.937 136.536 245.576 136.536 246.388V246.514C136.536 247.373 136.746 248.021 137.166 248.46C137.595 248.899 138.188 249.118 138.944 249.118C139.364 249.118 139.756 249.057 140.12 248.936C140.484 248.815 140.834 248.614 141.17 248.334L141.59 249.216C141.273 249.505 140.876 249.729 140.4 249.888C139.933 250.047 139.443 250.126 138.93 250.126ZM143.461 250V242.958H144.721V245.87H148.445V242.958H149.705V250H148.445V246.878H144.721V250H143.461ZM153.395 250V243.98H150.861V242.958H157.189V243.98H154.655V250H153.395ZM157.127 250V248.446H158.681V250H157.127Z" fill="#A1A4A7"/>
<path d="M194.736 250V248.894H197.046V241.236H197.704L194.946 242.944V241.67L197.41 240.13H198.348V248.894H200.518V250H194.736ZM204.923 250.126C204.4 250.126 203.877 250.019 203.355 249.804C202.832 249.589 202.398 249.305 202.053 248.95L202.529 247.956C202.874 248.301 203.252 248.563 203.663 248.74C204.083 248.917 204.507 249.006 204.937 249.006C205.851 249.006 206.556 248.679 207.051 248.026C207.545 247.363 207.793 246.383 207.793 245.086V243.84H207.933C207.877 244.353 207.713 244.801 207.443 245.184C207.181 245.557 206.85 245.847 206.449 246.052C206.047 246.257 205.59 246.36 205.077 246.36C204.489 246.36 203.966 246.225 203.509 245.954C203.051 245.683 202.692 245.315 202.431 244.848C202.169 244.372 202.039 243.831 202.039 243.224C202.039 242.599 202.174 242.043 202.445 241.558C202.725 241.073 203.107 240.695 203.593 240.424C204.078 240.144 204.638 240.004 205.273 240.004C206.486 240.004 207.419 240.429 208.073 241.278C208.726 242.118 209.053 243.303 209.053 244.834C209.053 245.963 208.885 246.925 208.549 247.718C208.222 248.502 207.751 249.099 207.135 249.51C206.519 249.921 205.781 250.126 204.923 250.126ZM205.357 245.282C205.767 245.282 206.127 245.193 206.435 245.016C206.752 244.839 206.999 244.591 207.177 244.274C207.354 243.957 207.443 243.593 207.443 243.182C207.443 242.762 207.354 242.398 207.177 242.09C206.999 241.773 206.752 241.525 206.435 241.348C206.127 241.161 205.767 241.068 205.357 241.068C204.946 241.068 204.582 241.161 204.265 241.348C203.957 241.525 203.714 241.773 203.537 242.09C203.369 242.398 203.285 242.762 203.285 243.182C203.285 243.593 203.369 243.957 203.537 244.274C203.714 244.591 203.957 244.839 204.265 245.016C204.582 245.193 204.946 245.282 205.357 245.282ZM217.638 250.126C216.938 250.126 216.332 249.981 215.818 249.692C215.305 249.393 214.904 248.969 214.614 248.418C214.334 247.858 214.194 247.195 214.194 246.43C214.194 245.674 214.339 245.03 214.628 244.498C214.918 243.957 215.319 243.546 215.832 243.266C216.346 242.977 216.948 242.832 217.638 242.832C218.096 242.832 218.539 242.911 218.968 243.07C219.398 243.219 219.748 243.439 220.018 243.728L219.584 244.624C219.314 244.363 219.015 244.171 218.688 244.05C218.362 243.919 218.04 243.854 217.722 243.854C217.032 243.854 216.49 244.078 216.098 244.526C215.706 244.965 215.51 245.604 215.51 246.444C215.51 247.293 215.706 247.947 216.098 248.404C216.49 248.861 217.032 249.09 217.722 249.09C218.03 249.09 218.348 249.029 218.674 248.908C219.001 248.787 219.304 248.595 219.584 248.334L220.018 249.216C219.738 249.515 219.379 249.743 218.94 249.902C218.511 250.051 218.077 250.126 217.638 250.126ZM224.93 250.126C223.81 250.126 222.923 249.804 222.27 249.16C221.626 248.516 221.304 247.629 221.304 246.5C221.304 245.753 221.444 245.109 221.724 244.568C222.013 244.017 222.41 243.593 222.914 243.294C223.418 242.986 224.006 242.832 224.678 242.832C225.322 242.832 225.868 242.972 226.316 243.252C226.764 243.523 227.105 243.91 227.338 244.414C227.571 244.918 227.688 245.515 227.688 246.206V246.626H222.298V245.87H226.82L226.582 246.052C226.582 245.324 226.419 244.759 226.092 244.358C225.775 243.957 225.303 243.756 224.678 243.756C223.997 243.756 223.469 243.994 223.096 244.47C222.723 244.937 222.536 245.576 222.536 246.388V246.514C222.536 247.373 222.746 248.021 223.166 248.46C223.595 248.899 224.188 249.118 224.944 249.118C225.364 249.118 225.756 249.057 226.12 248.936C226.484 248.815 226.834 248.614 227.17 248.334L227.59 249.216C227.273 249.505 226.876 249.729 226.4 249.888C225.933 250.047 225.443 250.126 224.93 250.126ZM229.461 250V242.958H230.721V245.87H234.445V242.958H235.705V250H234.445V246.878H230.721V250H229.461ZM239.395 250V243.98H236.861V242.958H243.189V243.98H240.655V250H239.395ZM243.127 250V248.446H244.681V250H243.127Z" fill="#A1A4A7"/>
<path d="M280.19 250V249.034L283.634 245.422C284.082 244.965 284.413 244.526 284.628 244.106C284.852 243.686 284.964 243.252 284.964 242.804C284.964 242.253 284.791 241.838 284.446 241.558C284.11 241.269 283.615 241.124 282.962 241.124C282.458 241.124 281.982 241.217 281.534 241.404C281.095 241.581 280.675 241.857 280.274 242.23L279.812 241.236C280.195 240.863 280.675 240.564 281.254 240.34C281.842 240.116 282.458 240.004 283.102 240.004C284.11 240.004 284.889 240.237 285.44 240.704C285.991 241.161 286.266 241.819 286.266 242.678C286.266 243.303 286.112 243.901 285.804 244.47C285.505 245.03 285.062 245.609 284.474 246.206L281.464 249.258V248.894H286.672V250H280.19ZM291.595 250.126C290.465 250.126 289.597 249.692 288.991 248.824C288.384 247.947 288.081 246.691 288.081 245.058C288.081 243.397 288.384 242.141 288.991 241.292C289.597 240.433 290.465 240.004 291.595 240.004C292.733 240.004 293.601 240.433 294.199 241.292C294.805 242.141 295.109 243.392 295.109 245.044C295.109 246.687 294.805 247.947 294.199 248.824C293.592 249.692 292.724 250.126 291.595 250.126ZM291.595 249.02C292.341 249.02 292.897 248.698 293.261 248.054C293.634 247.41 293.821 246.407 293.821 245.044C293.821 243.681 293.634 242.687 293.261 242.062C292.897 241.427 292.341 241.11 291.595 241.11C290.857 241.11 290.302 241.427 289.929 242.062C289.555 242.687 289.369 243.681 289.369 245.044C289.369 246.407 289.555 247.41 289.929 248.054C290.302 248.698 290.857 249.02 291.595 249.02ZM303.638 250.126C302.938 250.126 302.332 249.981 301.818 249.692C301.305 249.393 300.904 248.969 300.614 248.418C300.334 247.858 300.194 247.195 300.194 246.43C300.194 245.674 300.339 245.03 300.628 244.498C300.918 243.957 301.319 243.546 301.832 243.266C302.346 242.977 302.948 242.832 303.638 242.832C304.096 242.832 304.539 242.911 304.968 243.07C305.398 243.219 305.748 243.439 306.018 243.728L305.584 244.624C305.314 244.363 305.015 244.171 304.688 244.05C304.362 243.919 304.04 243.854 303.722 243.854C303.032 243.854 302.49 244.078 302.098 244.526C301.706 244.965 301.51 245.604 301.51 246.444C301.51 247.293 301.706 247.947 302.098 248.404C302.49 248.861 303.032 249.09 303.722 249.09C304.03 249.09 304.348 249.029 304.674 248.908C305.001 248.787 305.304 248.595 305.584 248.334L306.018 249.216C305.738 249.515 305.379 249.743 304.94 249.902C304.511 250.051 304.077 250.126 303.638 250.126ZM310.93 250.126C309.81 250.126 308.923 249.804 308.27 249.16C307.626 248.516 307.304 247.629 307.304 246.5C307.304 245.753 307.444 245.109 307.724 244.568C308.013 244.017 308.41 243.593 308.914 243.294C309.418 242.986 310.006 242.832 310.678 242.832C311.322 242.832 311.868 242.972 312.316 243.252C312.764 243.523 313.105 243.91 313.338 244.414C313.571 244.918 313.688 245.515 313.688 246.206V246.626H308.298V245.87H312.82L312.582 246.052C312.582 245.324 312.419 244.759 312.092 244.358C311.775 243.957 311.303 243.756 310.678 243.756C309.997 243.756 309.469 243.994 309.096 244.47C308.723 244.937 308.536 245.576 308.536 246.388V246.514C308.536 247.373 308.746 248.021 309.166 248.46C309.595 248.899 310.188 249.118 310.944 249.118C311.364 249.118 311.756 249.057 312.12 248.936C312.484 248.815 312.834 248.614 313.17 248.334L313.59 249.216C313.273 249.505 312.876 249.729 312.4 249.888C311.933 250.047 311.443 250.126 310.93 250.126ZM315.461 250V242.958H316.721V245.87H320.445V242.958H321.705V250H320.445V246.878H316.721V250H315.461ZM325.395 250V243.98H322.861V242.958H329.189V243.98H326.655V250H325.395ZM329.127 250V248.446H330.681V250H329.127Z" fill="#A1A4A7"/>
<path d="M366.19 250V249.034L369.634 245.422C370.082 244.965 370.413 244.526 370.628 244.106C370.852 243.686 370.964 243.252 370.964 242.804C370.964 242.253 370.791 241.838 370.446 241.558C370.11 241.269 369.615 241.124 368.962 241.124C368.458 241.124 367.982 241.217 367.534 241.404C367.095 241.581 366.675 241.857 366.274 242.23L365.812 241.236C366.195 240.863 366.675 240.564 367.254 240.34C367.842 240.116 368.458 240.004 369.102 240.004C370.11 240.004 370.889 240.237 371.44 240.704C371.991 241.161 372.266 241.819 372.266 242.678C372.266 243.303 372.112 243.901 371.804 244.47C371.505 245.03 371.062 245.609 370.474 246.206L367.464 249.258V248.894H372.672V250H366.19ZM375.131 250V248.894H377.441V241.236H378.099L375.341 242.944V241.67L377.805 240.13H378.743V248.894H380.913V250H375.131ZM389.638 250.126C388.938 250.126 388.332 249.981 387.818 249.692C387.305 249.393 386.904 248.969 386.614 248.418C386.334 247.858 386.194 247.195 386.194 246.43C386.194 245.674 386.339 245.03 386.628 244.498C386.918 243.957 387.319 243.546 387.832 243.266C388.346 242.977 388.948 242.832 389.638 242.832C390.096 242.832 390.539 242.911 390.968 243.07C391.398 243.219 391.748 243.439 392.018 243.728L391.584 244.624C391.314 244.363 391.015 244.171 390.688 244.05C390.362 243.919 390.04 243.854 389.722 243.854C389.032 243.854 388.49 244.078 388.098 244.526C387.706 244.965 387.51 245.604 387.51 246.444C387.51 247.293 387.706 247.947 388.098 248.404C388.49 248.861 389.032 249.09 389.722 249.09C390.03 249.09 390.348 249.029 390.674 248.908C391.001 248.787 391.304 248.595 391.584 248.334L392.018 249.216C391.738 249.515 391.379 249.743 390.94 249.902C390.511 250.051 390.077 250.126 389.638 250.126ZM396.93 250.126C395.81 250.126 394.923 249.804 394.27 249.16C393.626 248.516 393.304 247.629 393.304 246.5C393.304 245.753 393.444 245.109 393.724 244.568C394.013 244.017 394.41 243.593 394.914 243.294C395.418 242.986 396.006 242.832 396.678 242.832C397.322 242.832 397.868 242.972 398.316 243.252C398.764 243.523 399.105 243.91 399.338 244.414C399.571 244.918 399.688 245.515 399.688 246.206V246.626H394.298V245.87H398.82L398.582 246.052C398.582 245.324 398.419 244.759 398.092 244.358C397.775 243.957 397.303 243.756 396.678 243.756C395.997 243.756 395.469 243.994 395.096 244.47C394.723 244.937 394.536 245.576 394.536 246.388V246.514C394.536 247.373 394.746 248.021 395.166 248.46C395.595 248.899 396.188 249.118 396.944 249.118C397.364 249.118 397.756 249.057 398.12 248.936C398.484 248.815 398.834 248.614 399.17 248.334L399.59 249.216C399.273 249.505 398.876 249.729 398.4 249.888C397.933 250.047 397.443 250.126 396.93 250.126ZM401.461 250V242.958H402.721V245.87H406.445V242.958H407.705V250H406.445V246.878H402.721V250H401.461ZM411.395 250V243.98H408.861V242.958H415.189V243.98H412.655V250H411.395ZM415.127 250V248.446H416.681V250H415.127Z" fill="#A1A4A7"/>
<path d="M452.19 250V249.034L455.634 245.422C456.082 244.965 456.413 244.526 456.628 244.106C456.852 243.686 456.964 243.252 456.964 242.804C456.964 242.253 456.791 241.838 456.446 241.558C456.11 241.269 455.615 241.124 454.962 241.124C454.458 241.124 453.982 241.217 453.534 241.404C453.095 241.581 452.675 241.857 452.274 242.23L451.812 241.236C452.195 240.863 452.675 240.564 453.254 240.34C453.842 240.116 454.458 240.004 455.102 240.004C456.11 240.004 456.889 240.237 457.44 240.704C457.991 241.161 458.266 241.819 458.266 242.678C458.266 243.303 458.112 243.901 457.804 244.47C457.505 245.03 457.062 245.609 456.474 246.206L453.464 249.258V248.894H458.672V250H452.19ZM460.585 250V249.034L464.029 245.422C464.477 244.965 464.808 244.526 465.023 244.106C465.247 243.686 465.359 243.252 465.359 242.804C465.359 242.253 465.186 241.838 464.841 241.558C464.505 241.269 464.01 241.124 463.357 241.124C462.853 241.124 462.377 241.217 461.929 241.404C461.49 241.581 461.07 241.857 460.669 242.23L460.207 241.236C460.589 240.863 461.07 240.564 461.649 240.34C462.237 240.116 462.853 240.004 463.497 240.004C464.505 240.004 465.284 240.237 465.835 240.704C466.385 241.161 466.661 241.819 466.661 242.678C466.661 243.303 466.507 243.901 466.199 244.47C465.9 245.03 465.457 245.609 464.869 246.206L461.859 249.258V248.894H467.067V250H460.585ZM475.638 250.126C474.938 250.126 474.332 249.981 473.818 249.692C473.305 249.393 472.904 248.969 472.614 248.418C472.334 247.858 472.194 247.195 472.194 246.43C472.194 245.674 472.339 245.03 472.628 244.498C472.918 243.957 473.319 243.546 473.832 243.266C474.346 242.977 474.948 242.832 475.638 242.832C476.096 242.832 476.539 242.911 476.968 243.07C477.398 243.219 477.748 243.439 478.018 243.728L477.584 244.624C477.314 244.363 477.015 244.171 476.688 244.05C476.362 243.919 476.04 243.854 475.722 243.854C475.032 243.854 474.49 244.078 474.098 244.526C473.706 244.965 473.51 245.604 473.51 246.444C473.51 247.293 473.706 247.947 474.098 248.404C474.49 248.861 475.032 249.09 475.722 249.09C476.03 249.09 476.348 249.029 476.674 248.908C477.001 248.787 477.304 248.595 477.584 248.334L478.018 249.216C477.738 249.515 477.379 249.743 476.94 249.902C476.511 250.051 476.077 250.126 475.638 250.126ZM482.93 250.126C481.81 250.126 480.923 249.804 480.27 249.16C479.626 248.516 479.304 247.629 479.304 246.5C479.304 245.753 479.444 245.109 479.724 244.568C480.013 244.017 480.41 243.593 480.914 243.294C481.418 242.986 482.006 242.832 482.678 242.832C483.322 242.832 483.868 242.972 484.316 243.252C484.764 243.523 485.105 243.91 485.338 244.414C485.571 244.918 485.688 245.515 485.688 246.206V246.626H480.298V245.87H484.82L484.582 246.052C484.582 245.324 484.419 244.759 484.092 244.358C483.775 243.957 483.303 243.756 482.678 243.756C481.997 243.756 481.469 243.994 481.096 244.47C480.723 244.937 480.536 245.576 480.536 246.388V246.514C480.536 247.373 480.746 248.021 481.166 248.46C481.595 248.899 482.188 249.118 482.944 249.118C483.364 249.118 483.756 249.057 484.12 248.936C484.484 248.815 484.834 248.614 485.17 248.334L485.59 249.216C485.273 249.505 484.876 249.729 484.4 249.888C483.933 250.047 483.443 250.126 482.93 250.126ZM487.461 250V242.958H488.721V245.87H492.445V242.958H493.705V250H492.445V246.878H488.721V250H487.461ZM497.395 250V243.98H494.861V242.958H501.189V243.98H498.655V250H497.395ZM501.127 250V248.446H502.681V250H501.127Z" fill="#A1A4A7"/>
<path d="M538.19 250V249.034L541.634 245.422C542.082 244.965 542.413 244.526 542.628 244.106C542.852 243.686 542.964 243.252 542.964 242.804C542.964 242.253 542.791 241.838 542.446 241.558C542.11 241.269 541.615 241.124 540.962 241.124C540.458 241.124 539.982 241.217 539.534 241.404C539.095 241.581 538.675 241.857 538.274 242.23L537.812 241.236C538.195 240.863 538.675 240.564 539.254 240.34C539.842 240.116 540.458 240.004 541.102 240.004C542.11 240.004 542.889 240.237 543.44 240.704C543.991 241.161 544.266 241.819 544.266 242.678C544.266 243.303 544.112 243.901 543.804 244.47C543.505 245.03 543.062 245.609 542.474 246.206L539.464 249.258V248.894H544.672V250H538.19ZM549.525 250.126C548.853 250.126 548.209 250.023 547.593 249.818C546.986 249.613 546.477 249.323 546.067 248.95L546.529 247.942C546.986 248.315 547.457 248.586 547.943 248.754C548.428 248.922 548.941 249.006 549.483 249.006C550.201 249.006 550.747 248.857 551.121 248.558C551.494 248.25 551.681 247.811 551.681 247.242C551.681 246.682 551.489 246.257 551.107 245.968C550.733 245.679 550.183 245.534 549.455 245.534H547.943V244.456H549.357C549.973 244.456 550.467 244.297 550.841 243.98C551.214 243.663 551.401 243.229 551.401 242.678C551.401 242.174 551.228 241.791 550.883 241.53C550.547 241.259 550.066 241.124 549.441 241.124C548.386 241.124 547.471 241.493 546.697 242.23L546.235 241.236C546.627 240.844 547.112 240.541 547.691 240.326C548.269 240.111 548.881 240.004 549.525 240.004C550.505 240.004 551.275 240.228 551.835 240.676C552.395 241.124 552.675 241.749 552.675 242.552C552.675 243.159 552.502 243.681 552.157 244.12C551.821 244.549 551.359 244.834 550.771 244.974V244.82C551.461 244.941 551.998 245.226 552.381 245.674C552.763 246.113 552.955 246.663 552.955 247.326C552.955 248.194 552.647 248.88 552.031 249.384C551.424 249.879 550.589 250.126 549.525 250.126ZM561.638 250.126C560.938 250.126 560.332 249.981 559.818 249.692C559.305 249.393 558.904 248.969 558.614 248.418C558.334 247.858 558.194 247.195 558.194 246.43C558.194 245.674 558.339 245.03 558.628 244.498C558.918 243.957 559.319 243.546 559.832 243.266C560.346 242.977 560.948 242.832 561.638 242.832C562.096 242.832 562.539 242.911 562.968 243.07C563.398 243.219 563.748 243.439 564.018 243.728L563.584 244.624C563.314 244.363 563.015 244.171 562.688 244.05C562.362 243.919 562.04 243.854 561.722 243.854C561.032 243.854 560.49 244.078 560.098 244.526C559.706 244.965 559.51 245.604 559.51 246.444C559.51 247.293 559.706 247.947 560.098 248.404C560.49 248.861 561.032 249.09 561.722 249.09C562.03 249.09 562.348 249.029 562.674 248.908C563.001 248.787 563.304 248.595 563.584 248.334L564.018 249.216C563.738 249.515 563.379 249.743 562.94 249.902C562.511 250.051 562.077 250.126 561.638 250.126ZM568.93 250.126C567.81 250.126 566.923 249.804 566.27 249.16C565.626 248.516 565.304 247.629 565.304 246.5C565.304 245.753 565.444 245.109 565.724 244.568C566.013 244.017 566.41 243.593 566.914 243.294C567.418 242.986 568.006 242.832 568.678 242.832C569.322 242.832 569.868 242.972 570.316 243.252C570.764 243.523 571.105 243.91 571.338 244.414C571.571 244.918 571.688 245.515 571.688 246.206V246.626H566.298V245.87H570.82L570.582 246.052C570.582 245.324 570.419 244.759 570.092 244.358C569.775 243.957 569.303 243.756 568.678 243.756C567.997 243.756 567.469 243.994 567.096 244.47C566.723 244.937 566.536 245.576 566.536 246.388V246.514C566.536 247.373 566.746 248.021 567.166 248.46C567.595 248.899 568.188 249.118 568.944 249.118C569.364 249.118 569.756 249.057 570.12 248.936C570.484 248.815 570.834 248.614 571.17 248.334L571.59 249.216C571.273 249.505 570.876 249.729 570.4 249.888C569.933 250.047 569.443 250.126 568.93 250.126ZM573.461 250V242.958H574.721V245.87H578.445V242.958H579.705V250H578.445V246.878H574.721V250H573.461ZM583.395 250V243.98H580.861V242.958H587.189V243.98H584.655V250H583.395ZM587.127 250V248.446H588.681V250H587.127Z" fill="#A1A4A7"/>
<path d="M624.19 250V249.034L627.634 245.422C628.082 244.965 628.413 244.526 628.628 244.106C628.852 243.686 628.964 243.252 628.964 242.804C628.964 242.253 628.791 241.838 628.446 241.558C628.11 241.269 627.615 241.124 626.962 241.124C626.458 241.124 625.982 241.217 625.534 241.404C625.095 241.581 624.675 241.857 624.274 242.23L623.812 241.236C624.195 240.863 624.675 240.564 625.254 240.34C625.842 240.116 626.458 240.004 627.102 240.004C628.11 240.004 628.889 240.237 629.44 240.704C629.991 241.161 630.266 241.819 630.266 242.678C630.266 243.303 630.112 243.901 629.804 244.47C629.505 245.03 629.062 245.609 628.474 246.206L625.464 249.258V248.894H630.672V250H624.19ZM636.701 250V247.914H632.067V246.976L636.911 240.13H637.975V246.878H639.459V247.914H637.975V250H636.701ZM636.701 246.878V241.67H637.023L633.117 247.186V246.878H636.701ZM647.638 250.126C646.938 250.126 646.332 249.981 645.818 249.692C645.305 249.393 644.904 248.969 644.614 248.418C644.334 247.858 644.194 247.195 644.194 246.43C644.194 245.674 644.339 245.03 644.628 244.498C644.918 243.957 645.319 243.546 645.832 243.266C646.346 242.977 646.948 242.832 647.638 242.832C648.096 242.832 648.539 242.911 648.968 243.07C649.398 243.219 649.748 243.439 650.018 243.728L649.584 244.624C649.314 244.363 649.015 244.171 648.688 244.05C648.362 243.919 648.04 243.854 647.722 243.854C647.032 243.854 646.49 244.078 646.098 244.526C645.706 244.965 645.51 245.604 645.51 246.444C645.51 247.293 645.706 247.947 646.098 248.404C646.49 248.861 647.032 249.09 647.722 249.09C648.03 249.09 648.348 249.029 648.674 248.908C649.001 248.787 649.304 248.595 649.584 248.334L650.018 249.216C649.738 249.515 649.379 249.743 648.94 249.902C648.511 250.051 648.077 250.126 647.638 250.126ZM654.93 250.126C653.81 250.126 652.923 249.804 652.27 249.16C651.626 248.516 651.304 247.629 651.304 246.5C651.304 245.753 651.444 245.109 651.724 244.568C652.013 244.017 652.41 243.593 652.914 243.294C653.418 242.986 654.006 242.832 654.678 242.832C655.322 242.832 655.868 242.972 656.316 243.252C656.764 243.523 657.105 243.91 657.338 244.414C657.571 244.918 657.688 245.515 657.688 246.206V246.626H652.298V245.87H656.82L656.582 246.052C656.582 245.324 656.419 244.759 656.092 244.358C655.775 243.957 655.303 243.756 654.678 243.756C653.997 243.756 653.469 243.994 653.096 244.47C652.723 244.937 652.536 245.576 652.536 246.388V246.514C652.536 247.373 652.746 248.021 653.166 248.46C653.595 248.899 654.188 249.118 654.944 249.118C655.364 249.118 655.756 249.057 656.12 248.936C656.484 248.815 656.834 248.614 657.17 248.334L657.59 249.216C657.273 249.505 656.876 249.729 656.4 249.888C655.933 250.047 655.443 250.126 654.93 250.126ZM659.461 250V242.958H660.721V245.87H664.445V242.958H665.705V250H664.445V246.878H660.721V250H659.461ZM669.395 250V243.98H666.861V242.958H673.189V243.98H670.655V250H669.395ZM673.127 250V248.446H674.681V250H673.127Z" fill="#A1A4A7"/>
<path d="M710.19 250V249.034L713.634 245.422C714.082 244.965 714.413 244.526 714.628 244.106C714.852 243.686 714.964 243.252 714.964 242.804C714.964 242.253 714.791 241.838 714.446 241.558C714.11 241.269 713.615 241.124 712.962 241.124C712.458 241.124 711.982 241.217 711.534 241.404C711.095 241.581 710.675 241.857 710.274 242.23L709.812 241.236C710.195 240.863 710.675 240.564 711.254 240.34C711.842 240.116 712.458 240.004 713.102 240.004C714.11 240.004 714.889 240.237 715.44 240.704C715.991 241.161 716.266 241.819 716.266 242.678C716.266 243.303 716.112 243.901 715.804 244.47C715.505 245.03 715.062 245.609 714.474 246.206L711.464 249.258V248.894H716.672V250H710.19ZM721.763 250.126C721.333 250.126 720.909 250.079 720.489 249.986C720.078 249.893 719.691 249.762 719.327 249.594C718.963 249.417 718.645 249.202 718.375 248.95L718.837 247.942C719.294 248.306 719.761 248.577 720.237 248.754C720.713 248.922 721.212 249.006 721.735 249.006C722.425 249.006 722.967 248.824 723.359 248.46C723.751 248.096 723.947 247.611 723.947 247.004C723.947 246.379 723.76 245.875 723.387 245.492C723.013 245.1 722.495 244.904 721.833 244.904C721.375 244.904 720.96 244.997 720.587 245.184C720.223 245.361 719.901 245.646 719.621 246.038H718.697V240.13H724.619V241.236H719.957V244.974H719.621C719.873 244.601 720.213 244.311 720.643 244.106C721.081 243.901 721.571 243.798 722.113 243.798C722.747 243.798 723.293 243.929 723.751 244.19C724.217 244.451 724.577 244.82 724.829 245.296C725.09 245.763 725.221 246.309 725.221 246.934C725.221 247.559 725.081 248.115 724.801 248.6C724.521 249.076 724.119 249.449 723.597 249.72C723.083 249.991 722.472 250.126 721.763 250.126ZM733.638 250.126C732.938 250.126 732.332 249.981 731.818 249.692C731.305 249.393 730.904 248.969 730.614 248.418C730.334 247.858 730.194 247.195 730.194 246.43C730.194 245.674 730.339 245.03 730.628 244.498C730.918 243.957 731.319 243.546 731.832 243.266C732.346 242.977 732.948 242.832 733.638 242.832C734.096 242.832 734.539 242.911 734.968 243.07C735.398 243.219 735.748 243.439 736.018 243.728L735.584 244.624C735.314 244.363 735.015 244.171 734.688 244.05C734.362 243.919 734.04 243.854 733.722 243.854C733.032 243.854 732.49 244.078 732.098 244.526C731.706 244.965 731.51 245.604 731.51 246.444C731.51 247.293 731.706 247.947 732.098 248.404C732.49 248.861 733.032 249.09 733.722 249.09C734.03 249.09 734.348 249.029 734.674 248.908C735.001 248.787 735.304 248.595 735.584 248.334L736.018 249.216C735.738 249.515 735.379 249.743 734.94 249.902C734.511 250.051 734.077 250.126 733.638 250.126ZM740.93 250.126C739.81 250.126 738.923 249.804 738.27 249.16C737.626 248.516 737.304 247.629 737.304 246.5C737.304 245.753 737.444 245.109 737.724 244.568C738.013 244.017 738.41 243.593 738.914 243.294C739.418 242.986 740.006 242.832 740.678 242.832C741.322 242.832 741.868 242.972 742.316 243.252C742.764 243.523 743.105 243.91 743.338 244.414C743.571 244.918 743.688 245.515 743.688 246.206V246.626H738.298V245.87H742.82L742.582 246.052C742.582 245.324 742.419 244.759 742.092 244.358C741.775 243.957 741.303 243.756 740.678 243.756C739.997 243.756 739.469 243.994 739.096 244.47C738.723 244.937 738.536 245.576 738.536 246.388V246.514C738.536 247.373 738.746 248.021 739.166 248.46C739.595 248.899 740.188 249.118 740.944 249.118C741.364 249.118 741.756 249.057 742.12 248.936C742.484 248.815 742.834 248.614 743.17 248.334L743.59 249.216C743.273 249.505 742.876 249.729 742.4 249.888C741.933 250.047 741.443 250.126 740.93 250.126ZM745.461 250V242.958H746.721V245.87H750.445V242.958H751.705V250H750.445V246.878H746.721V250H745.461ZM755.395 250V243.98H752.861V242.958H759.189V243.98H756.655V250H755.395ZM759.127 250V248.446H760.681V250H759.127Z" fill="#A1A4A7"/>
<path d="M796.19 250V249.034L799.634 245.422C800.082 244.965 800.413 244.526 800.628 244.106C800.852 243.686 800.964 243.252 800.964 242.804C800.964 242.253 800.791 241.838 800.446 241.558C800.11 241.269 799.615 241.124 798.962 241.124C798.458 241.124 797.982 241.217 797.534 241.404C797.095 241.581 796.675 241.857 796.274 242.23L795.812 241.236C796.195 240.863 796.675 240.564 797.254 240.34C797.842 240.116 798.458 240.004 799.102 240.004C800.11 240.004 800.889 240.237 801.44 240.704C801.991 241.161 802.266 241.819 802.266 242.678C802.266 243.303 802.112 243.901 801.804 244.47C801.505 245.03 801.062 245.609 800.474 246.206L797.464 249.258V248.894H802.672V250H796.19ZM807.917 250.126C806.713 250.126 805.784 249.701 805.131 248.852C804.477 248.003 804.151 246.817 804.151 245.296C804.151 244.157 804.314 243.196 804.641 242.412C804.977 241.628 805.453 241.031 806.069 240.62C806.685 240.209 807.422 240.004 808.281 240.004C808.803 240.004 809.326 240.107 809.849 240.312C810.371 240.517 810.805 240.802 811.151 241.166L810.675 242.174C810.329 241.819 809.947 241.558 809.527 241.39C809.116 241.213 808.696 241.124 808.267 241.124C807.343 241.124 806.633 241.455 806.139 242.118C805.653 242.771 805.411 243.747 805.411 245.044V246.29H805.271C805.336 245.767 805.495 245.319 805.747 244.946C806.008 244.573 806.339 244.283 806.741 244.078C807.151 243.873 807.613 243.77 808.127 243.77C808.715 243.77 809.237 243.905 809.695 244.176C810.152 244.447 810.511 244.815 810.773 245.282C811.034 245.749 811.165 246.29 811.165 246.906C811.165 247.522 811.025 248.077 810.745 248.572C810.465 249.057 810.082 249.44 809.597 249.72C809.111 249.991 808.551 250.126 807.917 250.126ZM807.847 249.048C808.257 249.048 808.617 248.959 808.925 248.782C809.242 248.605 809.485 248.357 809.653 248.04C809.83 247.723 809.919 247.359 809.919 246.948C809.919 246.537 809.83 246.173 809.653 245.856C809.485 245.539 809.242 245.291 808.925 245.114C808.617 244.937 808.257 244.848 807.847 244.848C807.436 244.848 807.072 244.937 806.755 245.114C806.447 245.291 806.204 245.539 806.027 245.856C805.849 246.173 805.761 246.537 805.761 246.948C805.761 247.359 805.849 247.723 806.027 248.04C806.204 248.357 806.447 248.605 806.755 248.782C807.072 248.959 807.436 249.048 807.847 249.048ZM819.638 250.126C818.938 250.126 818.332 249.981 817.818 249.692C817.305 249.393 816.904 248.969 816.614 248.418C816.334 247.858 816.194 247.195 816.194 246.43C816.194 245.674 816.339 245.03 816.628 244.498C816.918 243.957 817.319 243.546 817.832 243.266C818.346 242.977 818.948 242.832 819.638 242.832C820.096 242.832 820.539 242.911 820.968 243.07C821.398 243.219 821.748 243.439 822.018 243.728L821.584 244.624C821.314 244.363 821.015 244.171 820.688 244.05C820.362 243.919 820.04 243.854 819.722 243.854C819.032 243.854 818.49 244.078 818.098 244.526C817.706 244.965 817.51 245.604 817.51 246.444C817.51 247.293 817.706 247.947 818.098 248.404C818.49 248.861 819.032 249.09 819.722 249.09C820.03 249.09 820.348 249.029 820.674 248.908C821.001 248.787 821.304 248.595 821.584 248.334L822.018 249.216C821.738 249.515 821.379 249.743 820.94 249.902C820.511 250.051 820.077 250.126 819.638 250.126ZM826.93 250.126C825.81 250.126 824.923 249.804 824.27 249.16C823.626 248.516 823.304 247.629 823.304 246.5C823.304 245.753 823.444 245.109 823.724 244.568C824.013 244.017 824.41 243.593 824.914 243.294C825.418 242.986 826.006 242.832 826.678 242.832C827.322 242.832 827.868 242.972 828.316 243.252C828.764 243.523 829.105 243.91 829.338 244.414C829.571 244.918 829.688 245.515 829.688 246.206V246.626H824.298V245.87H828.82L828.582 246.052C828.582 245.324 828.419 244.759 828.092 244.358C827.775 243.957 827.303 243.756 826.678 243.756C825.997 243.756 825.469 243.994 825.096 244.47C824.723 244.937 824.536 245.576 824.536 246.388V246.514C824.536 247.373 824.746 248.021 825.166 248.46C825.595 248.899 826.188 249.118 826.944 249.118C827.364 249.118 827.756 249.057 828.12 248.936C828.484 248.815 828.834 248.614 829.17 248.334L829.59 249.216C829.273 249.505 828.876 249.729 828.4 249.888C827.933 250.047 827.443 250.126 826.93 250.126ZM831.461 250V242.958H832.721V245.87H836.445V242.958H837.705V250H836.445V246.878H832.721V250H831.461ZM841.395 250V243.98H838.861V242.958H845.189V243.98H842.655V250H841.395ZM845.127 250V248.446H846.681V250H845.127Z" fill="#A1A4A7"/>
<path d="M882.19 250V249.034L885.634 245.422C886.082 244.965 886.413 244.526 886.628 244.106C886.852 243.686 886.964 243.252 886.964 242.804C886.964 242.253 886.791 241.838 886.446 241.558C886.11 241.269 885.615 241.124 884.962 241.124C884.458 241.124 883.982 241.217 883.534 241.404C883.095 241.581 882.675 241.857 882.274 242.23L881.812 241.236C882.195 240.863 882.675 240.564 883.254 240.34C883.842 240.116 884.458 240.004 885.102 240.004C886.11 240.004 886.889 240.237 887.44 240.704C887.991 241.161 888.266 241.819 888.266 242.678C888.266 243.303 888.112 243.901 887.804 244.47C887.505 245.03 887.062 245.609 886.474 246.206L883.464 249.258V248.894H888.672V250H882.19ZM890.879 250L895.737 240.718V241.25H890.277V240.13H896.927V241.096L892.321 250H890.879ZM905.638 250.126C904.938 250.126 904.332 249.981 903.818 249.692C903.305 249.393 902.904 248.969 902.614 248.418C902.334 247.858 902.194 247.195 902.194 246.43C902.194 245.674 902.339 245.03 902.628 244.498C902.918 243.957 903.319 243.546 903.832 243.266C904.346 242.977 904.948 242.832 905.638 242.832C906.096 242.832 906.539 242.911 906.968 243.07C907.398 243.219 907.748 243.439 908.018 243.728L907.584 244.624C907.314 244.363 907.015 244.171 906.688 244.05C906.362 243.919 906.04 243.854 905.722 243.854C905.032 243.854 904.49 244.078 904.098 244.526C903.706 244.965 903.51 245.604 903.51 246.444C903.51 247.293 903.706 247.947 904.098 248.404C904.49 248.861 905.032 249.09 905.722 249.09C906.03 249.09 906.348 249.029 906.674 248.908C907.001 248.787 907.304 248.595 907.584 248.334L908.018 249.216C907.738 249.515 907.379 249.743 906.94 249.902C906.511 250.051 906.077 250.126 905.638 250.126ZM912.93 250.126C911.81 250.126 910.923 249.804 910.27 249.16C909.626 248.516 909.304 247.629 909.304 246.5C909.304 245.753 909.444 245.109 909.724 244.568C910.013 244.017 910.41 243.593 910.914 243.294C911.418 242.986 912.006 242.832 912.678 242.832C913.322 242.832 913.868 242.972 914.316 243.252C914.764 243.523 915.105 243.91 915.338 244.414C915.571 244.918 915.688 245.515 915.688 246.206V246.626H910.298V245.87H914.82L914.582 246.052C914.582 245.324 914.419 244.759 914.092 244.358C913.775 243.957 913.303 243.756 912.678 243.756C911.997 243.756 911.469 243.994 911.096 244.47C910.723 244.937 910.536 245.576 910.536 246.388V246.514C910.536 247.373 910.746 248.021 911.166 248.46C911.595 248.899 912.188 249.118 912.944 249.118C913.364 249.118 913.756 249.057 914.12 248.936C914.484 248.815 914.834 248.614 915.17 248.334L915.59 249.216C915.273 249.505 914.876 249.729 914.4 249.888C913.933 250.047 913.443 250.126 912.93 250.126ZM917.461 250V242.958H918.721V245.87H922.445V242.958H923.705V250H922.445V246.878H918.721V250H917.461ZM927.395 250V243.98H924.861V242.958H931.189V243.98H928.655V250H927.395ZM931.127 250V248.446H932.681V250H931.127Z" fill="#A1A4A7"/>
<circle cx="4" cy="134" r="4" fill="#2F80ED"/>
<circle cx="91" cy="126" r="4" fill="#2F80ED"/>
<circle cx="176" cy="96" r="4" fill="#2F80ED"/>
<circle cx="263" cy="63" r="4" fill="#2F80ED"/>
<circle cx="348" cy="118" r="4" fill="#2F80ED"/>
<circle cx="434" cy="172" r="4" fill="#2F80ED"/>
<circle cx="520" cy="99" r="4" fill="#2F80ED"/>
<circle cx="607" cy="25" r="4" fill="#2F80ED"/>
<circle cx="693" cy="61" r="4" fill="#2F80ED"/>
<circle cx="780" cy="99" r="4" fill="#2F80ED"/>
<circle cx="864" cy="99" r="4" fill="#2F80ED"/>
<circle cx="950" cy="95" r="4" fill="#2F80ED"/>
<path d="M5.876 119.108C4.844 119.108 4.048 118.744 3.488 118.016C2.928 117.288 2.648 116.272 2.648 114.968C2.648 113.992 2.788 113.168 3.068 112.496C3.356 111.824 3.764 111.312 4.292 110.96C4.82 110.608 5.452 110.432 6.188 110.432C6.636 110.432 7.084 110.52 7.532 110.696C7.98 110.872 8.352 111.116 8.648 111.428L8.24 112.292C7.944 111.988 7.616 111.764 7.256 111.62C6.904 111.468 6.544 111.392 6.176 111.392C5.384 111.392 4.776 111.676 4.352 112.244C3.936 112.804 3.728 113.64 3.728 114.752V115.82H3.608C3.664 115.372 3.8 114.988 4.016 114.668C4.24 114.348 4.524 114.1 4.868 113.924C5.22 113.748 5.616 113.66 6.056 113.66C6.56 113.66 7.008 113.776 7.4 114.008C7.792 114.24 8.1 114.556 8.324 114.956C8.548 115.356 8.66 115.82 8.66 116.348C8.66 116.876 8.54 117.352 8.3 117.776C8.06 118.192 7.732 118.52 7.316 118.76C6.9 118.992 6.42 119.108 5.876 119.108ZM5.816 118.184C6.168 118.184 6.476 118.108 6.74 117.956C7.012 117.804 7.22 117.592 7.364 117.32C7.516 117.048 7.592 116.736 7.592 116.384C7.592 116.032 7.516 115.72 7.364 115.448C7.22 115.176 7.012 114.964 6.74 114.812C6.476 114.66 6.168 114.584 5.816 114.584C5.464 114.584 5.152 114.66 4.88 114.812C4.616 114.964 4.408 115.176 4.256 115.448C4.104 115.72 4.028 116.032 4.028 116.384C4.028 116.736 4.104 117.048 4.256 117.32C4.408 117.592 4.616 117.804 4.88 117.956C5.152 118.108 5.464 118.184 5.816 118.184ZM10.2153 119V118.172L13.1673 115.076C13.5513 114.684 13.8353 114.308 14.0193 113.948C14.2113 113.588 14.3073 113.216 14.3073 112.832C14.3073 112.36 14.1593 112.004 13.8633 111.764C13.5753 111.516 13.1513 111.392 12.5913 111.392C12.1593 111.392 11.7513 111.472 11.3673 111.632C10.9913 111.784 10.6313 112.02 10.2873 112.34L9.89131 111.488C10.2193 111.168 10.6313 110.912 11.1273 110.72C11.6313 110.528 12.1593 110.432 12.7113 110.432C13.5753 110.432 14.2433 110.632 14.7153 111.032C15.1873 111.424 15.4233 111.988 15.4233 112.724C15.4233 113.26 15.2913 113.772 15.0273 114.26C14.7713 114.74 14.3913 115.236 13.8873 115.748L11.3073 118.364V118.052H15.7713V119H10.2153ZM20.4907 119V112.964H21.5707V115.46H22.6627L24.6067 112.964H25.7947L23.5387 115.904L23.2507 115.568C23.4827 115.592 23.6827 115.652 23.8507 115.748C24.0187 115.836 24.1787 115.968 24.3307 116.144C24.4907 116.32 24.6627 116.556 24.8467 116.852L26.0947 119H24.9187L23.8267 117.14C23.7067 116.924 23.5867 116.756 23.4667 116.636C23.3467 116.516 23.2107 116.432 23.0587 116.384C22.9147 116.336 22.7307 116.312 22.5067 116.312H21.5707V119H20.4907ZM27.0298 119V112.964H31.3138V113.84H28.1218V119H27.0298Z" fill="#323F4B"/>
<path d="M81.876 111.108C80.844 111.108 80.048 110.744 79.488 110.016C78.928 109.288 78.648 108.272 78.648 106.968C78.648 105.992 78.788 105.168 79.068 104.496C79.356 103.824 79.764 103.312 80.292 102.96C80.82 102.608 81.452 102.432 82.188 102.432C82.636 102.432 83.084 102.52 83.532 102.696C83.98 102.872 84.352 103.116 84.648 103.428L84.24 104.292C83.944 103.988 83.616 103.764 83.256 103.62C82.904 103.468 82.544 103.392 82.176 103.392C81.384 103.392 80.776 103.676 80.352 104.244C79.936 104.804 79.728 105.64 79.728 106.752V107.82H79.608C79.664 107.372 79.8 106.988 80.016 106.668C80.24 106.348 80.524 106.1 80.868 105.924C81.22 105.748 81.616 105.66 82.056 105.66C82.56 105.66 83.008 105.776 83.4 106.008C83.792 106.24 84.1 106.556 84.324 106.956C84.548 107.356 84.66 107.82 84.66 108.348C84.66 108.876 84.54 109.352 84.3 109.776C84.06 110.192 83.732 110.52 83.316 110.76C82.9 110.992 82.42 111.108 81.876 111.108ZM81.816 110.184C82.168 110.184 82.476 110.108 82.74 109.956C83.012 109.804 83.22 109.592 83.364 109.32C83.516 109.048 83.592 108.736 83.592 108.384C83.592 108.032 83.516 107.72 83.364 107.448C83.22 107.176 83.012 106.964 82.74 106.812C82.476 106.66 82.168 106.584 81.816 106.584C81.464 106.584 81.152 106.66 80.88 106.812C80.616 106.964 80.408 107.176 80.256 107.448C80.104 107.72 80.028 108.032 80.028 108.384C80.028 108.736 80.104 109.048 80.256 109.32C80.408 109.592 80.616 109.804 80.88 109.956C81.152 110.108 81.464 110.184 81.816 110.184ZM86.2153 111V110.172L89.1673 107.076C89.5513 106.684 89.8353 106.308 90.0193 105.948C90.2113 105.588 90.3073 105.216 90.3073 104.832C90.3073 104.36 90.1593 104.004 89.8633 103.764C89.5753 103.516 89.1513 103.392 88.5913 103.392C88.1593 103.392 87.7513 103.472 87.3673 103.632C86.9913 103.784 86.6313 104.02 86.2873 104.34L85.8913 103.488C86.2193 103.168 86.6313 102.912 87.1273 102.72C87.6313 102.528 88.1593 102.432 88.7113 102.432C89.5753 102.432 90.2433 102.632 90.7153 103.032C91.1873 103.424 91.4233 103.988 91.4233 104.724C91.4233 105.26 91.2913 105.772 91.0273 106.26C90.7713 106.74 90.3913 107.236 89.8873 107.748L87.3073 110.364V110.052H91.7713V111H86.2153ZM96.4907 111V104.964H97.5707V107.46H98.6627L100.607 104.964H101.795L99.5387 107.904L99.2507 107.568C99.4827 107.592 99.6827 107.652 99.8507 107.748C100.019 107.836 100.179 107.968 100.331 108.144C100.491 108.32 100.663 108.556 100.847 108.852L102.095 111H100.919L99.8267 109.14C99.7067 108.924 99.5867 108.756 99.4667 108.636C99.3467 108.516 99.2107 108.432 99.0587 108.384C98.9147 108.336 98.7307 108.312 98.5067 108.312H97.5707V111H96.4907ZM103.03 111V104.964H107.314V105.84H104.122V111H103.03Z" fill="#323F4B"/>
<path d="M165.876 81.108C164.844 81.108 164.048 80.744 163.488 80.016C162.928 79.288 162.648 78.272 162.648 76.968C162.648 75.992 162.788 75.168 163.068 74.496C163.356 73.824 163.764 73.312 164.292 72.96C164.82 72.608 165.452 72.432 166.188 72.432C166.636 72.432 167.084 72.52 167.532 72.696C167.98 72.872 168.352 73.116 168.648 73.428L168.24 74.292C167.944 73.988 167.616 73.764 167.256 73.62C166.904 73.468 166.544 73.392 166.176 73.392C165.384 73.392 164.776 73.676 164.352 74.244C163.936 74.804 163.728 75.64 163.728 76.752V77.82H163.608C163.664 77.372 163.8 76.988 164.016 76.668C164.24 76.348 164.524 76.1 164.868 75.924C165.22 75.748 165.616 75.66 166.056 75.66C166.56 75.66 167.008 75.776 167.4 76.008C167.792 76.24 168.1 76.556 168.324 76.956C168.548 77.356 168.66 77.82 168.66 78.348C168.66 78.876 168.54 79.352 168.3 79.776C168.06 80.192 167.732 80.52 167.316 80.76C166.9 80.992 166.42 81.108 165.876 81.108ZM165.816 80.184C166.168 80.184 166.476 80.108 166.74 79.956C167.012 79.804 167.22 79.592 167.364 79.32C167.516 79.048 167.592 78.736 167.592 78.384C167.592 78.032 167.516 77.72 167.364 77.448C167.22 77.176 167.012 76.964 166.74 76.812C166.476 76.66 166.168 76.584 165.816 76.584C165.464 76.584 165.152 76.66 164.88 76.812C164.616 76.964 164.408 77.176 164.256 77.448C164.104 77.72 164.028 78.032 164.028 78.384C164.028 78.736 164.104 79.048 164.256 79.32C164.408 79.592 164.616 79.804 164.88 79.956C165.152 80.108 165.464 80.184 165.816 80.184ZM170.215 81V80.172L173.167 77.076C173.551 76.684 173.835 76.308 174.019 75.948C174.211 75.588 174.307 75.216 174.307 74.832C174.307 74.36 174.159 74.004 173.863 73.764C173.575 73.516 173.151 73.392 172.591 73.392C172.159 73.392 171.751 73.472 171.367 73.632C170.991 73.784 170.631 74.02 170.287 74.34L169.891 73.488C170.219 73.168 170.631 72.912 171.127 72.72C171.631 72.528 172.159 72.432 172.711 72.432C173.575 72.432 174.243 72.632 174.715 73.032C175.187 73.424 175.423 73.988 175.423 74.724C175.423 75.26 175.291 75.772 175.027 76.26C174.771 76.74 174.391 77.236 173.887 77.748L171.307 80.364V80.052H175.771V81H170.215ZM180.491 81V74.964H181.571V77.46H182.663L184.607 74.964H185.795L183.539 77.904L183.251 77.568C183.483 77.592 183.683 77.652 183.851 77.748C184.019 77.836 184.179 77.968 184.331 78.144C184.491 78.32 184.663 78.556 184.847 78.852L186.095 81H184.919L183.827 79.14C183.707 78.924 183.587 78.756 183.467 78.636C183.347 78.516 183.211 78.432 183.059 78.384C182.915 78.336 182.731 78.312 182.507 78.312H181.571V81H180.491ZM187.03 81V74.964H191.314V75.84H188.122V81H187.03Z" fill="#323F4B"/>
<path d="M255.876 50.108C254.844 50.108 254.048 49.744 253.488 49.016C252.928 48.288 252.648 47.272 252.648 45.968C252.648 44.992 252.788 44.168 253.068 43.496C253.356 42.824 253.764 42.312 254.292 41.96C254.82 41.608 255.452 41.432 256.188 41.432C256.636 41.432 257.084 41.52 257.532 41.696C257.98 41.872 258.352 42.116 258.648 42.428L258.24 43.292C257.944 42.988 257.616 42.764 257.256 42.62C256.904 42.468 256.544 42.392 256.176 42.392C255.384 42.392 254.776 42.676 254.352 43.244C253.936 43.804 253.728 44.64 253.728 45.752V46.82H253.608C253.664 46.372 253.8 45.988 254.016 45.668C254.24 45.348 254.524 45.1 254.868 44.924C255.22 44.748 255.616 44.66 256.056 44.66C256.56 44.66 257.008 44.776 257.4 45.008C257.792 45.24 258.1 45.556 258.324 45.956C258.548 46.356 258.66 46.82 258.66 47.348C258.66 47.876 258.54 48.352 258.3 48.776C258.06 49.192 257.732 49.52 257.316 49.76C256.9 49.992 256.42 50.108 255.876 50.108ZM255.816 49.184C256.168 49.184 256.476 49.108 256.74 48.956C257.012 48.804 257.22 48.592 257.364 48.32C257.516 48.048 257.592 47.736 257.592 47.384C257.592 47.032 257.516 46.72 257.364 46.448C257.22 46.176 257.012 45.964 256.74 45.812C256.476 45.66 256.168 45.584 255.816 45.584C255.464 45.584 255.152 45.66 254.88 45.812C254.616 45.964 254.408 46.176 254.256 46.448C254.104 46.72 254.028 47.032 254.028 47.384C254.028 47.736 254.104 48.048 254.256 48.32C254.408 48.592 254.616 48.804 254.88 48.956C255.152 49.108 255.464 49.184 255.816 49.184ZM260.215 50V49.172L263.167 46.076C263.551 45.684 263.835 45.308 264.019 44.948C264.211 44.588 264.307 44.216 264.307 43.832C264.307 43.36 264.159 43.004 263.863 42.764C263.575 42.516 263.151 42.392 262.591 42.392C262.159 42.392 261.751 42.472 261.367 42.632C260.991 42.784 260.631 43.02 260.287 43.34L259.891 42.488C260.219 42.168 260.631 41.912 261.127 41.72C261.631 41.528 262.159 41.432 262.711 41.432C263.575 41.432 264.243 41.632 264.715 42.032C265.187 42.424 265.423 42.988 265.423 43.724C265.423 44.26 265.291 44.772 265.027 45.26C264.771 45.74 264.391 46.236 263.887 46.748L261.307 49.364V49.052H265.771V50H260.215ZM270.491 50V43.964H271.571V46.46H272.663L274.607 43.964H275.795L273.539 46.904L273.251 46.568C273.483 46.592 273.683 46.652 273.851 46.748C274.019 46.836 274.179 46.968 274.331 47.144C274.491 47.32 274.663 47.556 274.847 47.852L276.095 50H274.919L273.827 48.14C273.707 47.924 273.587 47.756 273.467 47.636C273.347 47.516 273.211 47.432 273.059 47.384C272.915 47.336 272.731 47.312 272.507 47.312H271.571V50H270.491ZM277.03 50V43.964H281.314V44.84H278.122V50H277.03Z" fill="#323F4B"/>
<path d="M339.876 105.108C338.844 105.108 338.048 104.744 337.488 104.016C336.928 103.288 336.648 102.272 336.648 100.968C336.648 99.992 336.788 99.168 337.068 98.496C337.356 97.824 337.764 97.312 338.292 96.96C338.82 96.608 339.452 96.432 340.188 96.432C340.636 96.432 341.084 96.52 341.532 96.696C341.98 96.872 342.352 97.116 342.648 97.428L342.24 98.292C341.944 97.988 341.616 97.764 341.256 97.62C340.904 97.468 340.544 97.392 340.176 97.392C339.384 97.392 338.776 97.676 338.352 98.244C337.936 98.804 337.728 99.64 337.728 100.752V101.82H337.608C337.664 101.372 337.8 100.988 338.016 100.668C338.24 100.348 338.524 100.1 338.868 99.924C339.22 99.748 339.616 99.66 340.056 99.66C340.56 99.66 341.008 99.776 341.4 100.008C341.792 100.24 342.1 100.556 342.324 100.956C342.548 101.356 342.66 101.82 342.66 102.348C342.66 102.876 342.54 103.352 342.3 103.776C342.06 104.192 341.732 104.52 341.316 104.76C340.9 104.992 340.42 105.108 339.876 105.108ZM339.816 104.184C340.168 104.184 340.476 104.108 340.74 103.956C341.012 103.804 341.22 103.592 341.364 103.32C341.516 103.048 341.592 102.736 341.592 102.384C341.592 102.032 341.516 101.72 341.364 101.448C341.22 101.176 341.012 100.964 340.74 100.812C340.476 100.66 340.168 100.584 339.816 100.584C339.464 100.584 339.152 100.66 338.88 100.812C338.616 100.964 338.408 101.176 338.256 101.448C338.104 101.72 338.028 102.032 338.028 102.384C338.028 102.736 338.104 103.048 338.256 103.32C338.408 103.592 338.616 103.804 338.88 103.956C339.152 104.108 339.464 104.184 339.816 104.184ZM344.215 105V104.172L347.167 101.076C347.551 100.684 347.835 100.308 348.019 99.948C348.211 99.588 348.307 99.216 348.307 98.832C348.307 98.36 348.159 98.004 347.863 97.764C347.575 97.516 347.151 97.392 346.591 97.392C346.159 97.392 345.751 97.472 345.367 97.632C344.991 97.784 344.631 98.02 344.287 98.34L343.891 97.488C344.219 97.168 344.631 96.912 345.127 96.72C345.631 96.528 346.159 96.432 346.711 96.432C347.575 96.432 348.243 96.632 348.715 97.032C349.187 97.424 349.423 97.988 349.423 98.724C349.423 99.26 349.291 99.772 349.027 100.26C348.771 100.74 348.391 101.236 347.887 101.748L345.307 104.364V104.052H349.771V105H344.215ZM354.491 105V98.964H355.571V101.46H356.663L358.607 98.964H359.795L357.539 101.904L357.251 101.568C357.483 101.592 357.683 101.652 357.851 101.748C358.019 101.836 358.179 101.968 358.331 102.144C358.491 102.32 358.663 102.556 358.847 102.852L360.095 105H358.919L357.827 103.14C357.707 102.924 357.587 102.756 357.467 102.636C357.347 102.516 357.211 102.432 357.059 102.384C356.915 102.336 356.731 102.312 356.507 102.312H355.571V105H354.491ZM361.03 105V98.964H365.314V99.84H362.122V105H361.03Z" fill="#323F4B"/>
<path d="M422.876 159.108C421.844 159.108 421.048 158.744 420.488 158.016C419.928 157.288 419.648 156.272 419.648 154.968C419.648 153.992 419.788 153.168 420.068 152.496C420.356 151.824 420.764 151.312 421.292 150.96C421.82 150.608 422.452 150.432 423.188 150.432C423.636 150.432 424.084 150.52 424.532 150.696C424.98 150.872 425.352 151.116 425.648 151.428L425.24 152.292C424.944 151.988 424.616 151.764 424.256 151.62C423.904 151.468 423.544 151.392 423.176 151.392C422.384 151.392 421.776 151.676 421.352 152.244C420.936 152.804 420.728 153.64 420.728 154.752V155.82H420.608C420.664 155.372 420.8 154.988 421.016 154.668C421.24 154.348 421.524 154.1 421.868 153.924C422.22 153.748 422.616 153.66 423.056 153.66C423.56 153.66 424.008 153.776 424.4 154.008C424.792 154.24 425.1 154.556 425.324 154.956C425.548 155.356 425.66 155.82 425.66 156.348C425.66 156.876 425.54 157.352 425.3 157.776C425.06 158.192 424.732 158.52 424.316 158.76C423.9 158.992 423.42 159.108 422.876 159.108ZM422.816 158.184C423.168 158.184 423.476 158.108 423.74 157.956C424.012 157.804 424.22 157.592 424.364 157.32C424.516 157.048 424.592 156.736 424.592 156.384C424.592 156.032 424.516 155.72 424.364 155.448C424.22 155.176 424.012 154.964 423.74 154.812C423.476 154.66 423.168 154.584 422.816 154.584C422.464 154.584 422.152 154.66 421.88 154.812C421.616 154.964 421.408 155.176 421.256 155.448C421.104 155.72 421.028 156.032 421.028 156.384C421.028 156.736 421.104 157.048 421.256 157.32C421.408 157.592 421.616 157.804 421.88 157.956C422.152 158.108 422.464 158.184 422.816 158.184ZM427.215 159V158.172L430.167 155.076C430.551 154.684 430.835 154.308 431.019 153.948C431.211 153.588 431.307 153.216 431.307 152.832C431.307 152.36 431.159 152.004 430.863 151.764C430.575 151.516 430.151 151.392 429.591 151.392C429.159 151.392 428.751 151.472 428.367 151.632C427.991 151.784 427.631 152.02 427.287 152.34L426.891 151.488C427.219 151.168 427.631 150.912 428.127 150.72C428.631 150.528 429.159 150.432 429.711 150.432C430.575 150.432 431.243 150.632 431.715 151.032C432.187 151.424 432.423 151.988 432.423 152.724C432.423 153.26 432.291 153.772 432.027 154.26C431.771 154.74 431.391 155.236 430.887 155.748L428.307 158.364V158.052H432.771V159H427.215ZM437.491 159V152.964H438.571V155.46H439.663L441.607 152.964H442.795L440.539 155.904L440.251 155.568C440.483 155.592 440.683 155.652 440.851 155.748C441.019 155.836 441.179 155.968 441.331 156.144C441.491 156.32 441.663 156.556 441.847 156.852L443.095 159H441.919L440.827 157.14C440.707 156.924 440.587 156.756 440.467 156.636C440.347 156.516 440.211 156.432 440.059 156.384C439.915 156.336 439.731 156.312 439.507 156.312H438.571V159H437.491ZM444.03 159V152.964H448.314V153.84H445.122V159H444.03Z" fill="#323F4B"/>
<path d="M507.876 86.108C506.844 86.108 506.048 85.744 505.488 85.016C504.928 84.288 504.648 83.272 504.648 81.968C504.648 80.992 504.788 80.168 505.068 79.496C505.356 78.824 505.764 78.312 506.292 77.96C506.82 77.608 507.452 77.432 508.188 77.432C508.636 77.432 509.084 77.52 509.532 77.696C509.98 77.872 510.352 78.116 510.648 78.428L510.24 79.292C509.944 78.988 509.616 78.764 509.256 78.62C508.904 78.468 508.544 78.392 508.176 78.392C507.384 78.392 506.776 78.676 506.352 79.244C505.936 79.804 505.728 80.64 505.728 81.752V82.82H505.608C505.664 82.372 505.8 81.988 506.016 81.668C506.24 81.348 506.524 81.1 506.868 80.924C507.22 80.748 507.616 80.66 508.056 80.66C508.56 80.66 509.008 80.776 509.4 81.008C509.792 81.24 510.1 81.556 510.324 81.956C510.548 82.356 510.66 82.82 510.66 83.348C510.66 83.876 510.54 84.352 510.3 84.776C510.06 85.192 509.732 85.52 509.316 85.76C508.9 85.992 508.42 86.108 507.876 86.108ZM507.816 85.184C508.168 85.184 508.476 85.108 508.74 84.956C509.012 84.804 509.22 84.592 509.364 84.32C509.516 84.048 509.592 83.736 509.592 83.384C509.592 83.032 509.516 82.72 509.364 82.448C509.22 82.176 509.012 81.964 508.74 81.812C508.476 81.66 508.168 81.584 507.816 81.584C507.464 81.584 507.152 81.66 506.88 81.812C506.616 81.964 506.408 82.176 506.256 82.448C506.104 82.72 506.028 83.032 506.028 83.384C506.028 83.736 506.104 84.048 506.256 84.32C506.408 84.592 506.616 84.804 506.88 84.956C507.152 85.108 507.464 85.184 507.816 85.184ZM512.215 86V85.172L515.167 82.076C515.551 81.684 515.835 81.308 516.019 80.948C516.211 80.588 516.307 80.216 516.307 79.832C516.307 79.36 516.159 79.004 515.863 78.764C515.575 78.516 515.151 78.392 514.591 78.392C514.159 78.392 513.751 78.472 513.367 78.632C512.991 78.784 512.631 79.02 512.287 79.34L511.891 78.488C512.219 78.168 512.631 77.912 513.127 77.72C513.631 77.528 514.159 77.432 514.711 77.432C515.575 77.432 516.243 77.632 516.715 78.032C517.187 78.424 517.423 78.988 517.423 79.724C517.423 80.26 517.291 80.772 517.027 81.26C516.771 81.74 516.391 82.236 515.887 82.748L513.307 85.364V85.052H517.771V86H512.215ZM522.491 86V79.964H523.571V82.46H524.663L526.607 79.964H527.795L525.539 82.904L525.251 82.568C525.483 82.592 525.683 82.652 525.851 82.748C526.019 82.836 526.179 82.968 526.331 83.144C526.491 83.32 526.663 83.556 526.847 83.852L528.095 86H526.919L525.827 84.14C525.707 83.924 525.587 83.756 525.467 83.636C525.347 83.516 525.211 83.432 525.059 83.384C524.915 83.336 524.731 83.312 524.507 83.312H523.571V86H522.491ZM529.03 86V79.964H533.314V80.84H530.122V86H529.03Z" fill="#323F4B"/>
<path d="M594.876 12.108C593.844 12.108 593.048 11.744 592.488 11.016C591.928 10.288 591.648 9.272 591.648 7.968C591.648 6.992 591.788 6.168 592.068 5.496C592.356 4.824 592.764 4.312 593.292 3.96C593.82 3.608 594.452 3.432 595.188 3.432C595.636 3.432 596.084 3.52 596.532 3.696C596.98 3.872 597.352 4.116 597.648 4.428L597.24 5.292C596.944 4.988 596.616 4.764 596.256 4.62C595.904 4.468 595.544 4.392 595.176 4.392C594.384 4.392 593.776 4.676 593.352 5.244C592.936 5.804 592.728 6.64 592.728 7.752V8.82H592.608C592.664 8.372 592.8 7.988 593.016 7.668C593.24 7.348 593.524 7.1 593.868 6.924C594.22 6.748 594.616 6.66 595.056 6.66C595.56 6.66 596.008 6.776 596.4 7.008C596.792 7.24 597.1 7.556 597.324 7.956C597.548 8.356 597.66 8.82 597.66 9.348C597.66 9.876 597.54 10.352 597.3 10.776C597.06 11.192 596.732 11.52 596.316 11.76C595.9 11.992 595.42 12.108 594.876 12.108ZM594.816 11.184C595.168 11.184 595.476 11.108 595.74 10.956C596.012 10.804 596.22 10.592 596.364 10.32C596.516 10.048 596.592 9.736 596.592 9.384C596.592 9.032 596.516 8.72 596.364 8.448C596.22 8.176 596.012 7.964 595.74 7.812C595.476 7.66 595.168 7.584 594.816 7.584C594.464 7.584 594.152 7.66 593.88 7.812C593.616 7.964 593.408 8.176 593.256 8.448C593.104 8.72 593.028 9.032 593.028 9.384C593.028 9.736 593.104 10.048 593.256 10.32C593.408 10.592 593.616 10.804 593.88 10.956C594.152 11.108 594.464 11.184 594.816 11.184ZM599.215 12V11.172L602.167 8.076C602.551 7.684 602.835 7.308 603.019 6.948C603.211 6.588 603.307 6.216 603.307 5.832C603.307 5.36 603.159 5.004 602.863 4.764C602.575 4.516 602.151 4.392 601.591 4.392C601.159 4.392 600.751 4.472 600.367 4.632C599.991 4.784 599.631 5.02 599.287 5.34L598.891 4.488C599.219 4.168 599.631 3.912 600.127 3.72C600.631 3.528 601.159 3.432 601.711 3.432C602.575 3.432 603.243 3.632 603.715 4.032C604.187 4.424 604.423 4.988 604.423 5.724C604.423 6.26 604.291 6.772 604.027 7.26C603.771 7.74 603.391 8.236 602.887 8.748L600.307 11.364V11.052H604.771V12H599.215ZM609.491 12V5.964H610.571V8.46H611.663L613.607 5.964H614.795L612.539 8.904L612.251 8.568C612.483 8.592 612.683 8.652 612.851 8.748C613.019 8.836 613.179 8.968 613.331 9.144C613.491 9.32 613.663 9.556 613.847 9.852L615.095 12H613.919L612.827 10.14C612.707 9.924 612.587 9.756 612.467 9.636C612.347 9.516 612.211 9.432 612.059 9.384C611.915 9.336 611.731 9.312 611.507 9.312H610.571V12H609.491ZM616.03 12V5.964H620.314V6.84H617.122V12H616.03Z" fill="#323F4B"/>
<path d="M681.876 48.108C680.844 48.108 680.048 47.744 679.488 47.016C678.928 46.288 678.648 45.272 678.648 43.968C678.648 42.992 678.788 42.168 679.068 41.496C679.356 40.824 679.764 40.312 680.292 39.96C680.82 39.608 681.452 39.432 682.188 39.432C682.636 39.432 683.084 39.52 683.532 39.696C683.98 39.872 684.352 40.116 684.648 40.428L684.24 41.292C683.944 40.988 683.616 40.764 683.256 40.62C682.904 40.468 682.544 40.392 682.176 40.392C681.384 40.392 680.776 40.676 680.352 41.244C679.936 41.804 679.728 42.64 679.728 43.752V44.82H679.608C679.664 44.372 679.8 43.988 680.016 43.668C680.24 43.348 680.524 43.1 680.868 42.924C681.22 42.748 681.616 42.66 682.056 42.66C682.56 42.66 683.008 42.776 683.4 43.008C683.792 43.24 684.1 43.556 684.324 43.956C684.548 44.356 684.66 44.82 684.66 45.348C684.66 45.876 684.54 46.352 684.3 46.776C684.06 47.192 683.732 47.52 683.316 47.76C682.9 47.992 682.42 48.108 681.876 48.108ZM681.816 47.184C682.168 47.184 682.476 47.108 682.74 46.956C683.012 46.804 683.22 46.592 683.364 46.32C683.516 46.048 683.592 45.736 683.592 45.384C683.592 45.032 683.516 44.72 683.364 44.448C683.22 44.176 683.012 43.964 682.74 43.812C682.476 43.66 682.168 43.584 681.816 43.584C681.464 43.584 681.152 43.66 680.88 43.812C680.616 43.964 680.408 44.176 680.256 44.448C680.104 44.72 680.028 45.032 680.028 45.384C680.028 45.736 680.104 46.048 680.256 46.32C680.408 46.592 680.616 46.804 680.88 46.956C681.152 47.108 681.464 47.184 681.816 47.184ZM686.215 48V47.172L689.167 44.076C689.551 43.684 689.835 43.308 690.019 42.948C690.211 42.588 690.307 42.216 690.307 41.832C690.307 41.36 690.159 41.004 689.863 40.764C689.575 40.516 689.151 40.392 688.591 40.392C688.159 40.392 687.751 40.472 687.367 40.632C686.991 40.784 686.631 41.02 686.287 41.34L685.891 40.488C686.219 40.168 686.631 39.912 687.127 39.72C687.631 39.528 688.159 39.432 688.711 39.432C689.575 39.432 690.243 39.632 690.715 40.032C691.187 40.424 691.423 40.988 691.423 41.724C691.423 42.26 691.291 42.772 691.027 43.26C690.771 43.74 690.391 44.236 689.887 44.748L687.307 47.364V47.052H691.771V48H686.215ZM696.491 48V41.964H697.571V44.46H698.663L700.607 41.964H701.795L699.539 44.904L699.251 44.568C699.483 44.592 699.683 44.652 699.851 44.748C700.019 44.836 700.179 44.968 700.331 45.144C700.491 45.32 700.663 45.556 700.847 45.852L702.095 48H700.919L699.827 46.14C699.707 45.924 699.587 45.756 699.467 45.636C699.347 45.516 699.211 45.432 699.059 45.384C698.915 45.336 698.731 45.312 698.507 45.312H697.571V48H696.491ZM703.03 48V41.964H707.314V42.84H704.122V48H703.03Z" fill="#323F4B"/>
<path d="M772.876 86.108C771.844 86.108 771.048 85.744 770.488 85.016C769.928 84.288 769.648 83.272 769.648 81.968C769.648 80.992 769.788 80.168 770.068 79.496C770.356 78.824 770.764 78.312 771.292 77.96C771.82 77.608 772.452 77.432 773.188 77.432C773.636 77.432 774.084 77.52 774.532 77.696C774.98 77.872 775.352 78.116 775.648 78.428L775.24 79.292C774.944 78.988 774.616 78.764 774.256 78.62C773.904 78.468 773.544 78.392 773.176 78.392C772.384 78.392 771.776 78.676 771.352 79.244C770.936 79.804 770.728 80.64 770.728 81.752V82.82H770.608C770.664 82.372 770.8 81.988 771.016 81.668C771.24 81.348 771.524 81.1 771.868 80.924C772.22 80.748 772.616 80.66 773.056 80.66C773.56 80.66 774.008 80.776 774.4 81.008C774.792 81.24 775.1 81.556 775.324 81.956C775.548 82.356 775.66 82.82 775.66 83.348C775.66 83.876 775.54 84.352 775.3 84.776C775.06 85.192 774.732 85.52 774.316 85.76C773.9 85.992 773.42 86.108 772.876 86.108ZM772.816 85.184C773.168 85.184 773.476 85.108 773.74 84.956C774.012 84.804 774.22 84.592 774.364 84.32C774.516 84.048 774.592 83.736 774.592 83.384C774.592 83.032 774.516 82.72 774.364 82.448C774.22 82.176 774.012 81.964 773.74 81.812C773.476 81.66 773.168 81.584 772.816 81.584C772.464 81.584 772.152 81.66 771.88 81.812C771.616 81.964 771.408 82.176 771.256 82.448C771.104 82.72 771.028 83.032 771.028 83.384C771.028 83.736 771.104 84.048 771.256 84.32C771.408 84.592 771.616 84.804 771.88 84.956C772.152 85.108 772.464 85.184 772.816 85.184ZM777.215 86V85.172L780.167 82.076C780.551 81.684 780.835 81.308 781.019 80.948C781.211 80.588 781.307 80.216 781.307 79.832C781.307 79.36 781.159 79.004 780.863 78.764C780.575 78.516 780.151 78.392 779.591 78.392C779.159 78.392 778.751 78.472 778.367 78.632C777.991 78.784 777.631 79.02 777.287 79.34L776.891 78.488C777.219 78.168 777.631 77.912 778.127 77.72C778.631 77.528 779.159 77.432 779.711 77.432C780.575 77.432 781.243 77.632 781.715 78.032C782.187 78.424 782.423 78.988 782.423 79.724C782.423 80.26 782.291 80.772 782.027 81.26C781.771 81.74 781.391 82.236 780.887 82.748L778.307 85.364V85.052H782.771V86H777.215ZM787.491 86V79.964H788.571V82.46H789.663L791.607 79.964H792.795L790.539 82.904L790.251 82.568C790.483 82.592 790.683 82.652 790.851 82.748C791.019 82.836 791.179 82.968 791.331 83.144C791.491 83.32 791.663 83.556 791.847 83.852L793.095 86H791.919L790.827 84.14C790.707 83.924 790.587 83.756 790.467 83.636C790.347 83.516 790.211 83.432 790.059 83.384C789.915 83.336 789.731 83.312 789.507 83.312H788.571V86H787.491ZM794.03 86V79.964H798.314V80.84H795.122V86H794.03Z" fill="#323F4B"/>
<path d="M854.876 86.108C853.844 86.108 853.048 85.744 852.488 85.016C851.928 84.288 851.648 83.272 851.648 81.968C851.648 80.992 851.788 80.168 852.068 79.496C852.356 78.824 852.764 78.312 853.292 77.96C853.82 77.608 854.452 77.432 855.188 77.432C855.636 77.432 856.084 77.52 856.532 77.696C856.98 77.872 857.352 78.116 857.648 78.428L857.24 79.292C856.944 78.988 856.616 78.764 856.256 78.62C855.904 78.468 855.544 78.392 855.176 78.392C854.384 78.392 853.776 78.676 853.352 79.244C852.936 79.804 852.728 80.64 852.728 81.752V82.82H852.608C852.664 82.372 852.8 81.988 853.016 81.668C853.24 81.348 853.524 81.1 853.868 80.924C854.22 80.748 854.616 80.66 855.056 80.66C855.56 80.66 856.008 80.776 856.4 81.008C856.792 81.24 857.1 81.556 857.324 81.956C857.548 82.356 857.66 82.82 857.66 83.348C857.66 83.876 857.54 84.352 857.3 84.776C857.06 85.192 856.732 85.52 856.316 85.76C855.9 85.992 855.42 86.108 854.876 86.108ZM854.816 85.184C855.168 85.184 855.476 85.108 855.74 84.956C856.012 84.804 856.22 84.592 856.364 84.32C856.516 84.048 856.592 83.736 856.592 83.384C856.592 83.032 856.516 82.72 856.364 82.448C856.22 82.176 856.012 81.964 855.74 81.812C855.476 81.66 855.168 81.584 854.816 81.584C854.464 81.584 854.152 81.66 853.88 81.812C853.616 81.964 853.408 82.176 853.256 82.448C853.104 82.72 853.028 83.032 853.028 83.384C853.028 83.736 853.104 84.048 853.256 84.32C853.408 84.592 853.616 84.804 853.88 84.956C854.152 85.108 854.464 85.184 854.816 85.184ZM859.215 86V85.172L862.167 82.076C862.551 81.684 862.835 81.308 863.019 80.948C863.211 80.588 863.307 80.216 863.307 79.832C863.307 79.36 863.159 79.004 862.863 78.764C862.575 78.516 862.151 78.392 861.591 78.392C861.159 78.392 860.751 78.472 860.367 78.632C859.991 78.784 859.631 79.02 859.287 79.34L858.891 78.488C859.219 78.168 859.631 77.912 860.127 77.72C860.631 77.528 861.159 77.432 861.711 77.432C862.575 77.432 863.243 77.632 863.715 78.032C864.187 78.424 864.423 78.988 864.423 79.724C864.423 80.26 864.291 80.772 864.027 81.26C863.771 81.74 863.391 82.236 862.887 82.748L860.307 85.364V85.052H864.771V86H859.215ZM869.491 86V79.964H870.571V82.46H871.663L873.607 79.964H874.795L872.539 82.904L872.251 82.568C872.483 82.592 872.683 82.652 872.851 82.748C873.019 82.836 873.179 82.968 873.331 83.144C873.491 83.32 873.663 83.556 873.847 83.852L875.095 86H873.919L872.827 84.14C872.707 83.924 872.587 83.756 872.467 83.636C872.347 83.516 872.211 83.432 872.059 83.384C871.915 83.336 871.731 83.312 871.507 83.312H870.571V86H869.491ZM876.03 86V79.964H880.314V80.84H877.122V86H876.03Z" fill="#323F4B"/>
<path d="M932.876 82.108C931.844 82.108 931.048 81.744 930.488 81.016C929.928 80.288 929.648 79.272 929.648 77.968C929.648 76.992 929.788 76.168 930.068 75.496C930.356 74.824 930.764 74.312 931.292 73.96C931.82 73.608 932.452 73.432 933.188 73.432C933.636 73.432 934.084 73.52 934.532 73.696C934.98 73.872 935.352 74.116 935.648 74.428L935.24 75.292C934.944 74.988 934.616 74.764 934.256 74.62C933.904 74.468 933.544 74.392 933.176 74.392C932.384 74.392 931.776 74.676 931.352 75.244C930.936 75.804 930.728 76.64 930.728 77.752V78.82H930.608C930.664 78.372 930.8 77.988 931.016 77.668C931.24 77.348 931.524 77.1 931.868 76.924C932.22 76.748 932.616 76.66 933.056 76.66C933.56 76.66 934.008 76.776 934.4 77.008C934.792 77.24 935.1 77.556 935.324 77.956C935.548 78.356 935.66 78.82 935.66 79.348C935.66 79.876 935.54 80.352 935.3 80.776C935.06 81.192 934.732 81.52 934.316 81.76C933.9 81.992 933.42 82.108 932.876 82.108ZM932.816 81.184C933.168 81.184 933.476 81.108 933.74 80.956C934.012 80.804 934.22 80.592 934.364 80.32C934.516 80.048 934.592 79.736 934.592 79.384C934.592 79.032 934.516 78.72 934.364 78.448C934.22 78.176 934.012 77.964 933.74 77.812C933.476 77.66 933.168 77.584 932.816 77.584C932.464 77.584 932.152 77.66 931.88 77.812C931.616 77.964 931.408 78.176 931.256 78.448C931.104 78.72 931.028 79.032 931.028 79.384C931.028 79.736 931.104 80.048 931.256 80.32C931.408 80.592 931.616 80.804 931.88 80.956C932.152 81.108 932.464 81.184 932.816 81.184ZM937.215 82V81.172L940.167 78.076C940.551 77.684 940.835 77.308 941.019 76.948C941.211 76.588 941.307 76.216 941.307 75.832C941.307 75.36 941.159 75.004 940.863 74.764C940.575 74.516 940.151 74.392 939.591 74.392C939.159 74.392 938.751 74.472 938.367 74.632C937.991 74.784 937.631 75.02 937.287 75.34L936.891 74.488C937.219 74.168 937.631 73.912 938.127 73.72C938.631 73.528 939.159 73.432 939.711 73.432C940.575 73.432 941.243 73.632 941.715 74.032C942.187 74.424 942.423 74.988 942.423 75.724C942.423 76.26 942.291 76.772 942.027 77.26C941.771 77.74 941.391 78.236 940.887 78.748L938.307 81.364V81.052H942.771V82H937.215ZM947.491 82V75.964H948.571V78.46H949.663L951.607 75.964H952.795L950.539 78.904L950.251 78.568C950.483 78.592 950.683 78.652 950.851 78.748C951.019 78.836 951.179 78.968 951.331 79.144C951.491 79.32 951.663 79.556 951.847 79.852L953.095 82H951.919L950.827 80.14C950.707 79.924 950.587 79.756 950.467 79.636C950.347 79.516 950.211 79.432 950.059 79.384C949.915 79.336 949.731 79.312 949.507 79.312H948.571V82H947.491ZM954.03 82V75.964H958.314V76.84H955.122V82H954.03Z" fill="#323F4B"/>
<rect x="332" y="214" width="2" height="15" rx="1" fill="white"/>
<rect x="323" y="222" width="1" height="20" rx="0.5" transform="rotate(-90 323 222)" fill="white"/>
<path d="M4 135L90.5971 126.143C91.5292 126.048 92.4469 125.844 93.3314 125.535L176.5 96.5L257.26 65.2231C260.863 63.8275 264.919 64.2527 268.154 66.3654L348 118.5L425.877 169.963C430.381 172.939 436.317 172.541 440.384 168.992L520 99.5L601.285 28.0252C604.774 24.9575 609.72 24.1791 613.982 26.027L693.5 60.5L778.158 98.4501C779.702 99.1422 781.375 99.5 783.067 99.5H864.5L950.5 95" stroke="#2F80ED" stroke-width="2"/>
<defs>
<linearGradient id="paint0_linear_3048_1002" x1="477.25" y1="23.5" x2="477.25" y2="230" gradientUnits="userSpaceOnUse">
<stop stop-color="#2F80ED"/>
<stop offset="1" stop-color="#2F80ED" stop-opacity="0"/>
</linearGradient>
</defs>
</svg>
