<svg width="563" height="380" viewBox="0 0 563 380" fill="none" xmlns="http://www.w3.org/2000/svg">
<path d="M269.002 2.84453C262.172 5.48828 263.714 4.16641 202.247 63.1C176.14 88.2156 152.897 109.696 150.584 110.798C140.67 115.975 131.306 114.323 121.392 105.73C118.748 103.527 104.759 87.775 90.218 70.8109C75.5672 53.957 61.7977 38.6453 59.4844 36.993C41.9696 24.325 13.8797 34.1289 3.52503 56.3805C-1.432 67.2859 -1.21168 73.5648 8.70238 172.375C13.5493 221.174 17.8453 263.364 18.286 266.228L18.9469 271.516H282V0.53125L278.475 0.641406C276.492 0.641406 272.196 1.63281 269.002 2.84453Z" fill="#ADADAD"/>
<path d="M22.5821 311.943C24.7852 331.551 28.6407 343.227 36.7922 354.684C45.9352 367.352 59.4844 376.054 73.8047 378.257C78.3211 379.028 117.537 379.469 181.538 379.469H282V305.664H21.9211L22.5821 311.943Z" fill="#ADADAD"/>
<path d="M294.348 2.84453C301.178 5.48828 299.636 4.16641 361.103 63.1C387.21 88.2156 410.453 109.696 412.766 110.798C422.68 115.975 432.044 114.323 441.958 105.73C444.601 103.527 458.591 87.775 473.132 70.8109C487.783 53.957 501.552 38.6453 503.865 36.993C521.38 24.325 549.47 34.1289 559.825 56.3805C564.782 67.2859 564.562 73.5648 554.647 172.375C549.801 221.174 545.505 263.364 545.064 266.228L544.403 271.516H281.35V0.53125L284.875 0.641406C286.858 0.641406 291.154 1.63281 294.348 2.84453Z" fill="#919191"/>
<path d="M540.768 311.943C538.565 331.551 534.709 343.227 526.558 354.684C517.415 367.352 503.865 376.054 489.545 378.257C485.029 379.028 445.813 379.469 381.812 379.469H281.35V305.664H541.429L540.768 311.943Z" fill="#919191"/>
</svg>
