<svg width="564" height="379" viewBox="0 0 564 379" fill="none" xmlns="http://www.w3.org/2000/svg">
<path d="M272.137 1.53989C264.425 3.96378 256.713 10.6846 207.684 57.7302C172.537 91.4444 153.146 109.293 149.841 110.946C146.536 112.598 142.9 113.37 138.603 113.48C127.585 113.48 123.729 109.844 82.5227 61.6966C73.5983 51.34 64.4536 41.2036 62.0297 39.0001C55.8598 33.3811 48.0372 30.9572 37.9009 31.6182C23.1372 32.6098 10.6872 41.3138 4.07655 55.4165C-1.54248 67.3156 -1.32213 71.5023 8.70399 172.975C13.5518 222.004 17.8487 264.312 18.1792 266.846L18.8403 271.584H150.502H282.053V136.727V1.76025L286.24 1.31955C288.444 1.09918 286.901 0.878845 282.604 0.878845C278.418 0.768677 273.68 1.09918 272.137 1.53989Z" fill="#FFEC00"/>
<path d="M22.5864 312.57C25.7815 345.623 40.2147 366.998 65.6656 376.913C70.8439 378.897 77.3444 379.007 239.084 379.007H282.053V342.098V305.739H152.044H21.9253L22.5864 312.57Z" fill="#FFEC00"/>
<path d="M291.482 1.53989C299.195 3.96378 306.907 10.6846 355.936 57.7302C391.082 91.4444 410.473 109.293 413.779 110.946C417.084 112.598 420.72 113.37 425.017 113.48C436.035 113.48 439.891 109.844 481.097 61.6966C490.021 51.34 499.166 41.2036 501.59 39.0001C507.76 33.3811 515.582 30.9572 525.719 31.6182C540.482 32.6098 552.932 41.3138 559.543 55.4165C565.162 67.3156 564.942 71.5023 554.916 172.975C550.068 222.004 545.771 264.312 545.44 266.846L544.779 271.584H413.118H281.566V136.727V1.76025L277.38 1.31955C275.176 1.09918 276.718 0.878845 281.015 0.878845C285.202 0.768677 289.94 1.09918 291.482 1.53989Z" fill="#FFD92E"/>
<path d="M541.033 312.57C537.838 345.623 523.405 366.998 497.954 376.913C492.776 378.897 486.275 379.007 324.535 379.007H281.566V342.098V305.739H411.575H541.694L541.033 312.57Z" fill="#FFD92E"/>
</svg>
