<svg width="563" height="380" viewBox="0 0 563 380" fill="none" xmlns="http://www.w3.org/2000/svg">
<path d="M270.654 2.07344C262.392 5.04766 261.401 5.92891 223.617 42.3906C210.068 55.3891 197.51 67.5063 195.637 69.2688C193.765 71.0312 186.825 77.7508 180.105 84.1398C154.659 108.815 152.676 110.467 146.067 112.34C138.246 114.653 132.848 113.772 126.129 109.366C121.392 106.171 105.97 89.6477 91.3194 72.1328C79.5327 57.9227 71.3812 48.6695 64.4413 41.7297C55.9593 33.2477 49.6804 30.8242 37.8937 31.5953C23.4632 32.5867 11.1257 41.1789 4.18585 55.2789C-1.54228 67.0656 -1.43212 70.8109 8.70225 172.926C13.6593 221.945 17.9554 264.245 18.2858 266.779L18.9468 271.516H282V0.53125H278.475C276.492 0.641406 272.967 1.30234 270.654 2.07344Z" fill="#EA9139"/>
<path d="M22.5819 312.494C25.2257 339.372 35.1398 358.429 52.5444 369.775C67.4155 379.579 57.3913 378.808 176.58 379.248L282 379.579V305.664H21.921L22.5819 312.494Z" fill="#EA9139"/>
<path d="M292.714 2.07344C300.975 5.04766 301.967 5.92891 339.75 42.3906C353.3 55.3891 365.857 67.5063 367.73 69.2688C369.603 71.0312 376.543 77.7508 383.262 84.1398C408.708 108.815 410.691 110.467 417.3 112.34C425.121 114.653 430.519 113.772 437.239 109.366C441.975 106.171 457.397 89.6477 472.048 72.1328C483.835 57.9227 491.986 48.6695 498.926 41.7297C507.408 33.2477 513.687 30.8242 525.474 31.5953C539.904 32.5867 552.242 41.1789 559.182 55.2789C564.91 67.0656 564.8 70.8109 554.665 172.926C549.708 221.945 545.412 264.245 545.082 266.779L544.421 271.516H281.368V0.53125H284.893C286.875 0.641406 290.4 1.30234 292.714 2.07344Z" fill="#CD7F32"/>
<path d="M540.785 312.494C538.142 339.372 528.228 358.429 510.823 369.775C495.952 379.579 505.976 378.808 386.787 379.248L281.368 379.579V305.664H541.446L540.785 312.494Z" fill="#CD7F32"/>
</svg>
