<svg width="406" height="206" viewBox="0 0 406 206" fill="none" xmlns="http://www.w3.org/2000/svg">
<mask id="mask0_2716_107" style="mask-type:alpha" maskUnits="userSpaceOnUse" x="0" y="0" width="406" height="206">
<rect width="406" height="206" fill="#D9D9D9"/>
</mask>
<g mask="url(#mask0_2716_107)">
<path d="M352.573 203.71C356.992 203.71 360.594 200.126 360.371 195.713C359.453 177.555 355.411 159.67 348.405 142.849C340.372 123.564 328.601 106.06 313.771 91.346C298.94 76.6321 281.344 64.9996 261.996 57.1193C242.648 49.239 221.931 45.2668 201.041 45.4317C180.15 45.5966 159.499 49.8954 140.278 58.0801C121.057 66.2648 103.646 78.1737 89.0496 93.1198C74.4533 108.066 62.9601 125.754 55.2327 145.163C48.4929 162.092 44.7342 180.039 44.1024 198.21C43.9489 202.625 47.6078 206.152 52.0256 206.082L67.6802 205.835C72.098 205.765 75.5963 202.124 75.8056 197.711C76.4691 183.721 79.4501 169.919 84.6442 156.873C90.8261 141.345 100.021 127.195 111.698 115.238C123.375 103.281 137.303 93.7539 152.68 87.2061C168.057 80.6583 184.578 77.2193 201.291 77.0873C218.003 76.9554 234.576 80.1332 250.055 86.4375C265.533 92.7417 279.61 102.048 291.474 113.819C303.339 125.59 312.756 139.593 319.182 155.021C324.581 167.984 327.78 181.738 328.664 195.715C328.943 200.125 332.498 203.71 336.917 203.71H352.573Z" fill="#F6FAFF"/>
<path d="M319.058 109.104C322.491 106.322 323.033 101.269 320.082 97.9809C299.941 75.5417 273.766 59.2778 244.604 51.1875C212.867 42.3829 179.175 43.6975 148.221 54.9481C117.267 66.1987 90.5932 86.825 71.9167 113.953C54.7554 138.88 45.1317 168.155 44.0996 198.29C43.9484 202.706 47.6091 206.231 52.0268 206.159L67.6813 205.904C72.099 205.832 75.5955 202.189 75.8025 197.775C76.9069 174.232 84.566 151.405 97.9913 131.904C112.933 110.202 134.271 93.701 159.035 84.7005C183.798 75.7 210.752 74.6483 236.141 81.692C258.955 88.0211 279.484 100.603 295.447 117.943C298.44 121.193 303.46 121.741 306.893 118.96L319.058 109.104Z" fill="#2F80ED"/>
<path d="M398 203C402.418 203 406.016 199.417 405.842 195.002C404.893 170.934 399.667 147.204 390.388 124.931C380.082 100.193 364.979 77.7408 345.952 58.8693C326.925 39.9978 304.35 25.0804 279.528 14.9777C254.707 4.87496 228.131 -0.213163 201.333 0.00684086C174.536 0.226845 148.047 5.75062 123.395 16.2595C98.7427 26.7684 76.4153 42.0544 57.7006 61.2358C38.9859 80.4172 24.2544 103.114 14.3558 128.018C5.44305 150.441 0.607325 174.253 0.0536383 198.333C-0.047925 202.75 3.6086 206.274 8.02628 206.202L24.5041 205.931C28.9218 205.858 32.4246 202.217 32.5593 197.8C33.163 178.009 37.2101 158.453 44.5389 140.015C52.8537 119.096 65.2282 100.03 80.9485 83.9181C96.6688 67.8057 115.424 54.9655 136.132 46.138C156.839 37.3105 179.09 32.6706 201.6 32.4858C224.11 32.301 246.434 36.575 267.284 45.0613C288.134 53.5476 307.097 66.0782 323.08 81.9302C339.063 97.7823 351.748 116.642 360.406 137.422C368.036 155.737 372.404 175.224 373.332 195.003C373.54 199.416 377.102 203 381.52 203H398Z" fill="#F6FAFF"/>
<path d="M314.857 43.2718C317.391 39.6528 316.52 34.6498 312.804 32.2599C283.652 13.5118 250.142 2.51528 215.459 0.382662C178.11 -1.91384 140.853 6.1576 107.803 23.7054C74.7533 41.2533 47.1969 67.5947 28.1775 99.82C10.5154 129.746 0.853679 163.664 0.054029 198.315C-0.0479053 202.732 3.60832 206.257 8.026 206.184L24.5038 205.915C28.9215 205.843 32.4246 202.201 32.5597 197.785C33.4365 169.123 41.5304 141.098 56.1491 116.329C72.1254 89.2595 95.2728 67.1328 123.035 52.3926C150.796 37.6524 182.092 30.8724 213.465 32.8014C242.172 34.5666 269.922 43.5607 294.156 58.89C297.89 61.2519 302.869 60.39 305.403 56.7709L314.857 43.2718Z" fill="#2F80ED"/>
<path d="M308.567 205.13C312.985 205.13 316.596 201.544 316.287 197.136C315.423 184.824 312.57 172.715 307.821 161.285C302.048 147.389 293.586 134.77 282.923 124.152C272.26 113.534 259.605 105.127 245.684 99.4128C231.763 93.6987 216.85 90.7903 201.802 90.8546C186.755 90.9188 171.867 93.9545 157.996 99.7872C144.124 105.62 131.541 114.135 120.969 124.843C110.397 135.552 102.044 148.243 96.3891 162.188C91.7381 173.658 88.9881 185.791 88.23 198.11C87.9586 202.52 91.5999 206.075 96.018 206.037L108.587 205.93C113.005 205.892 116.517 202.273 116.891 197.87C117.618 189.317 119.627 180.906 122.864 172.924C127.105 162.465 133.37 152.946 141.299 144.915C149.228 136.884 158.666 130.497 169.069 126.123C179.473 121.748 190.638 119.472 201.924 119.423C213.21 119.375 224.395 121.556 234.835 125.842C245.276 130.128 254.768 136.433 262.765 144.396C270.762 152.36 277.108 161.824 281.438 172.247C284.743 180.201 286.824 188.595 287.624 197.141C288.036 201.54 291.579 205.13 295.998 205.13H308.567Z" fill="#2F80ED"/>
<path d="M268.818 205.839C273.236 205.839 276.863 202.247 276.385 197.855C275.628 190.901 273.886 184.077 271.199 177.59C267.489 168.634 262.052 160.496 255.197 153.642C248.342 146.787 240.205 141.35 231.249 137.64C222.293 133.93 212.694 132.021 203 132.021C193.306 132.021 183.707 133.93 174.751 137.64C165.795 141.35 157.657 146.787 150.802 153.642C143.948 160.496 138.51 168.634 134.801 177.59C132.114 184.077 130.371 190.901 129.615 197.855C129.137 202.247 132.763 205.839 137.182 205.839L143.327 205.839C147.745 205.839 151.264 202.236 151.945 197.871C152.576 193.827 153.687 189.863 155.26 186.065C157.857 179.796 161.663 174.099 166.462 169.301C171.26 164.503 176.956 160.697 183.226 158.1C189.495 155.503 196.214 154.166 203 154.166C209.786 154.166 216.505 155.503 222.774 158.1C229.043 160.697 234.74 164.503 239.538 169.301C244.336 174.099 248.142 179.796 250.739 186.065C252.313 189.863 253.423 193.827 254.054 197.871C254.736 202.236 258.254 205.839 262.673 205.839H268.818Z" fill="#C82222"/>
<path d="M19.307 193.985L9.47037 193.174L9.57619 191.891L13.9155 192.248L14.0742 190.323L14.2687 190.69L9.96038 187.23L10.0812 185.765L14.5932 189.481L14.1634 189.923C14.2776 189.333 14.519 188.847 14.8876 188.465C15.2569 188.074 15.757 187.746 16.3877 187.479L19.9615 186.046L19.8453 187.455L16.856 188.614C16.2757 188.837 15.8547 189.116 15.593 189.451C15.3313 189.785 15.1786 190.217 15.1349 190.747L15.0038 192.338L19.4128 192.701L19.307 193.985Z" fill="white"/>
<path d="M21.0329 177.86C20.9412 178.469 20.7175 178.983 20.3618 179.401C20.0062 179.819 19.5367 180.117 18.9532 180.293C18.3698 180.469 17.7043 180.501 16.9567 180.389C16.2091 180.276 15.5872 180.05 15.0908 179.711C14.5852 179.371 14.2241 178.948 14.0075 178.444C13.791 177.939 13.7285 177.382 13.8203 176.773C13.9135 176.155 14.151 175.643 14.5329 175.238C14.907 174.823 15.3728 174.581 15.9303 174.514L15.9053 174.68L14.3224 174.286L14.5059 173.068C14.7786 173.137 15.0513 173.207 15.324 173.276C15.5981 173.336 15.869 173.386 16.1366 173.427L21.4526 174.228L21.2629 175.487L19.6708 175.248L19.6938 175.095C20.1976 175.322 20.5716 175.69 20.8159 176.199C21.0523 176.697 21.1247 177.251 21.0329 177.86ZM20.08 177.419C20.1745 176.791 20.0288 176.255 19.6428 175.81C19.2568 175.365 18.6346 175.077 17.7763 174.948C16.918 174.819 16.2435 174.911 15.7527 175.224C15.2619 175.537 14.9692 176.007 14.8747 176.635C14.7802 177.262 14.9206 177.802 15.296 178.255C15.6727 178.699 16.2903 178.986 17.1486 179.115C18.0069 179.244 18.6861 179.153 19.1861 178.841C19.6861 178.53 19.984 178.056 20.08 177.419Z" fill="white"/>
<path d="M22.5164 168.531L21.4513 168.764C21.3727 168.413 21.2551 168.112 21.0985 167.859C20.9347 167.596 20.7055 167.371 20.411 167.185C20.1183 166.989 19.7404 166.814 19.2771 166.659C18.8138 166.504 18.2442 166.355 17.5684 166.213L15.7192 165.822L16.7919 160.74L23.6821 162.195L23.4218 163.428L17.5042 162.178L16.9346 164.877L17.8387 165.068C18.898 165.291 19.7574 165.559 20.4167 165.87C21.0689 166.169 21.5592 166.535 21.8878 166.967C22.2183 167.39 22.4278 167.911 22.5164 168.531Z" fill="white"/>
<path d="M26.042 152.759C25.861 153.426 25.5649 153.964 25.1536 154.375C24.7333 154.783 24.2253 155.051 23.6295 155.179C23.0247 155.305 22.3575 155.269 21.6279 155.071C20.9073 154.876 20.3225 154.572 19.8735 154.16C19.4154 153.745 19.1128 153.257 18.9656 152.695C18.8094 152.13 18.8218 151.514 19.0028 150.848C19.1838 150.181 19.4844 149.644 19.9047 149.236C20.3184 148.816 20.8264 148.548 21.4288 148.431C22.0246 148.303 22.6828 148.336 23.4033 148.532C24.1329 148.73 24.7268 149.036 25.1848 149.451C25.6363 149.854 25.9389 150.342 26.0927 150.916C26.2398 151.478 26.2229 152.092 26.042 152.759ZM25.0692 152.495C25.2355 151.882 25.1526 151.333 24.8205 150.846C24.4884 150.359 23.9035 150.002 23.0659 149.775C22.2282 149.547 21.5475 149.561 21.0239 149.815C20.5003 150.07 20.1554 150.503 19.9891 151.116C19.8204 151.737 19.8975 152.29 20.2206 152.774C20.5461 153.249 21.1277 153.601 21.9654 153.828C22.8031 154.056 23.487 154.048 24.0172 153.805C24.5498 153.553 24.9004 153.116 25.0692 152.495Z" fill="white"/>
<path d="M31.2207 144.869L23.2456 142.231C22.9886 142.146 22.7242 142.069 22.4525 141.999C22.1808 141.928 21.9062 141.867 21.6286 141.815L22.0155 140.645L23.6057 141.009L23.5573 141.155C23.0873 140.852 22.7779 140.435 22.6291 139.904C22.4714 139.37 22.4922 138.802 22.6915 138.199C22.8878 137.606 23.1966 137.133 23.6178 136.781C24.0391 136.428 24.5506 136.219 25.1526 136.153C25.7486 136.074 26.4055 136.154 27.1233 136.391C27.841 136.629 28.4203 136.958 28.8611 137.379C29.3048 137.791 29.5907 138.264 29.7189 138.798C29.847 139.332 29.813 139.896 29.6166 140.49C29.4203 141.083 29.1041 141.549 28.6681 141.886C28.2261 142.212 27.7277 142.367 27.1728 142.35L27.2211 142.204L31.6208 143.659L31.2207 144.869ZM28.5673 140.452C28.7695 139.841 28.718 139.283 28.4128 138.779C28.1076 138.275 27.543 137.887 26.7188 137.614C25.8947 137.342 25.2144 137.318 24.6777 137.544C24.1411 137.769 23.7717 138.188 23.5695 138.799C23.3673 139.411 23.4143 139.967 23.7107 140.468C24.0099 140.96 24.5716 141.343 25.3957 141.615C26.2198 141.888 26.9032 141.917 27.4457 141.703C27.9912 141.481 28.3651 141.064 28.5673 140.452Z" fill="white"/>
<path d="M32.3554 131.957L25.8071 129.366L26.2345 128.286L31.6632 130.433L31.5242 130.785L27.7022 124.576L28.0936 123.586L34.6419 126.176L34.2145 127.257L28.7727 125.104L28.9169 124.74L32.7468 130.967L32.3554 131.957Z" fill="white"/>
<path d="M36.9105 120.544L30.5237 117.578L31.0132 116.524L36.308 118.983L36.1488 119.326L32.6939 112.905L33.1421 111.94L39.5288 114.906L39.0394 115.96L33.7319 113.495L33.897 113.139L37.3587 119.579L36.9105 120.544Z" fill="white"/>
<path d="M63.3138 195.603L53.4772 194.792L54.0305 188.081L55.0769 188.167L54.6272 193.623L57.8781 193.891L58.1301 190.835C58.2175 189.775 58.5179 188.971 59.0313 188.423C59.5361 187.865 60.2444 187.624 61.1559 187.699C62.0675 187.774 62.736 188.129 63.1613 188.764C63.5874 189.389 63.7567 190.232 63.6693 191.292L63.3138 195.603ZM62.3849 194.262L62.6253 191.346C62.6881 190.584 62.59 190.014 62.3308 189.636C62.0723 189.25 61.6501 189.032 61.0641 188.984C60.4781 188.936 60.0306 189.081 59.7216 189.421C59.4041 189.751 59.2139 190.297 59.151 191.06L58.9106 193.976L62.3849 194.262Z" fill="white"/>
<path d="M65.1563 178.733C64.9922 179.841 64.5437 180.671 63.8109 181.223C63.0795 181.766 62.1552 181.954 61.0381 181.789C60.2995 181.679 59.683 181.446 59.1885 181.09C58.6862 180.723 58.3242 180.268 58.1026 179.726C57.8718 179.182 57.8057 178.578 57.9041 177.913C57.9985 177.276 58.217 176.757 58.5597 176.355C58.8931 175.951 59.3261 175.671 59.8589 175.514C60.3916 175.357 60.9996 175.329 61.6828 175.43L62.0983 175.492L61.3084 180.824L60.5606 180.713L61.2233 176.24L61.3684 176.502C60.6483 176.395 60.0658 176.474 59.6209 176.738C59.1774 176.993 58.9098 177.43 58.8182 178.049C58.7183 178.723 58.8765 179.279 59.2926 179.718C59.6995 180.156 60.3046 180.434 61.1078 180.553L61.2325 180.572C62.0819 180.698 62.7543 180.585 63.2498 180.234C63.7467 179.874 64.0505 179.319 64.1613 178.572C64.2228 178.156 64.2203 177.759 64.1536 177.382C64.0869 177.004 63.9397 176.628 63.7119 176.255L64.646 175.968C64.8857 176.325 65.0491 176.75 65.1363 177.244C65.2249 177.729 65.2316 178.225 65.1563 178.733Z" fill="white"/>
<path d="M66.3465 171.143L65.2826 171.381C65.2022 171.031 65.0832 170.731 64.9254 170.479C64.7603 170.216 64.53 169.992 64.2345 169.808C63.941 169.614 63.5621 169.44 63.0981 169.288C62.634 169.135 62.0638 168.989 61.3873 168.85L59.5361 168.468L60.584 163.381L67.4812 164.802L67.227 166.036L61.3033 164.816L60.747 167.517L61.652 167.703C62.7124 167.922 63.573 168.185 64.2339 168.493C64.8875 168.789 65.3796 169.153 65.7103 169.583C66.0428 170.004 66.2549 170.524 66.3465 171.143Z" fill="white"/>
<path d="M68.7732 158.814L61.959 157.037L62.2769 155.818L65.0947 156.552L65.4161 155.32L63.1705 152.39L63.5201 151.049L66.1752 154.461L65.7111 154.688C65.8065 154.433 65.9331 154.225 66.0909 154.063C66.2397 153.899 66.4358 153.758 66.6792 153.638C66.925 153.509 67.2421 153.384 67.6304 153.264L70.4226 152.487L70.0765 153.815L67.6553 154.5C67.3761 154.572 67.1511 154.658 66.9803 154.758C66.8096 154.858 66.6747 154.987 66.5758 155.144C66.4792 155.293 66.3979 155.494 66.332 155.746L66.0565 156.803L69.0911 157.594L68.7732 158.814Z" fill="white"/>
<path d="M71.7106 147.712L65.0018 145.571L65.355 144.464L70.9168 146.239L70.8019 146.599L66.5678 140.663L66.8912 139.65L73.6 141.79L73.2468 142.897L67.6717 141.118L67.7908 140.745L72.034 146.698L71.7106 147.712Z" fill="white"/>
<path d="M104.553 199.083L101.492 196.747C100.953 196.331 100.558 195.885 100.307 195.409C100.055 194.934 99.9544 194.392 100.004 193.784L100.3 194.325L94.9617 196.686L95.2315 195.269L100.31 193.073L100.03 193.347L100.313 191.862L96.0357 191.047L96.2688 189.823L100.546 190.638L100.834 189.125L100.989 189.511L97.073 185.601L97.3428 184.185L101.439 188.342L100.965 188.737C101.143 188.153 101.435 187.691 101.842 187.35C102.251 187.001 102.781 186.736 103.433 186.556L107.141 185.495L106.879 186.87L103.781 187.72C103.189 187.883 102.746 188.116 102.45 188.421C102.146 188.724 101.943 189.137 101.844 189.659L101.619 190.842L105.965 191.67L105.731 192.894L101.386 192.066L101.16 193.249C101.059 193.781 101.093 194.248 101.264 194.651C101.427 195.043 101.754 195.419 102.246 195.779L104.817 197.694L104.553 199.083Z" fill="white"/>
<path d="M108.951 178.012L102.26 175.818L102.622 174.713L108.169 176.533L108.052 176.892L103.865 170.922L104.197 169.911L110.888 172.105L110.526 173.21L104.966 171.386L105.088 171.014L109.283 177.001L108.951 178.012Z" fill="white"/>
<path d="M115.761 167.197L108.071 163.815C107.824 163.707 107.568 163.604 107.304 163.509C107.04 163.413 106.773 163.326 106.501 163.247L106.997 162.12L108.546 162.632L108.484 162.773C108.045 162.427 107.776 161.983 107.678 161.44C107.572 160.894 107.646 160.33 107.902 159.749C108.154 159.177 108.506 158.735 108.959 158.425C109.411 158.114 109.94 157.954 110.546 157.945C111.147 157.924 111.793 158.065 112.485 158.369C113.177 158.674 113.723 159.056 114.122 159.517C114.524 159.97 114.764 160.468 114.841 161.011C114.918 161.555 114.831 162.113 114.579 162.685C114.327 163.258 113.968 163.691 113.502 163.986C113.031 164.268 112.521 164.375 111.97 164.306L112.032 164.165L116.274 166.031L115.761 167.197ZM113.538 162.549C113.797 161.959 113.799 161.399 113.543 160.869C113.287 160.338 112.761 159.898 111.967 159.548C111.172 159.199 110.497 159.111 109.941 159.285C109.386 159.459 108.978 159.84 108.719 160.43C108.46 161.019 108.454 161.577 108.702 162.104C108.953 162.623 109.476 163.057 110.27 163.406C111.065 163.755 111.742 163.849 112.303 163.688C112.867 163.518 113.279 163.138 113.538 162.549Z" fill="white"/>
<path d="M117.823 154.968L111.738 151.424L112.372 150.336L114.525 151.59L115.568 149.799C116.028 149.009 116.543 148.515 117.112 148.317C117.678 148.106 118.275 148.184 118.904 148.55C119.307 148.785 119.604 149.082 119.794 149.442C119.985 149.801 120.057 150.205 120.012 150.654C119.966 151.103 119.796 151.581 119.5 152.089L117.823 154.968ZM117.695 153.436L118.667 151.766C118.949 151.282 119.064 150.863 119.011 150.508C118.955 150.141 118.721 149.837 118.31 149.598C117.899 149.358 117.523 149.307 117.184 149.444C116.85 149.574 116.542 149.88 116.26 150.364L115.287 152.034L117.695 153.436ZM121.402 148.823L115.317 145.279L115.951 144.19L122.036 147.734L121.402 148.823Z" fill="white"/>
<path d="M143.696 200.288L141.294 198.29L141.698 198.35L134.914 200.953L135.162 199.766L140.836 197.606L140.787 197.841L136.335 194.152L136.574 193.012L143.936 199.137L143.696 200.288Z" fill="white"/>
<path d="M146.112 189.815L140.406 187.845L141.804 183.796L142.632 184.082L141.591 187.099L146.468 188.783L146.112 189.815Z" fill="white"/>
<path d="M148.738 182.512L147.803 182.488C147.81 182.18 147.774 181.905 147.695 181.663C147.613 181.41 147.468 181.176 147.261 180.961C147.058 180.738 146.779 180.515 146.425 180.291C146.072 180.067 145.628 179.826 145.095 179.569L143.636 178.865L145.571 174.855L151.007 177.478L150.538 178.451L145.869 176.198L144.841 178.327L145.555 178.671C146.39 179.075 147.051 179.473 147.536 179.867C148.017 180.25 148.35 180.655 148.535 181.082C148.723 181.502 148.791 181.979 148.738 182.512Z" fill="white"/>
<path d="M155.077 170.408C154.546 171.207 153.895 171.687 153.125 171.848C152.36 172.002 151.574 171.811 150.768 171.275C150.235 170.92 149.842 170.515 149.589 170.058C149.333 169.59 149.218 169.106 149.244 168.604C149.264 168.098 149.433 167.605 149.752 167.126C150.057 166.666 150.417 166.343 150.829 166.156C151.235 165.965 151.673 165.905 152.143 165.978C152.614 166.051 153.096 166.251 153.589 166.579L153.888 166.778L151.33 170.625L150.79 170.266L152.937 167.039L152.954 167.295C152.434 166.95 151.954 166.798 151.512 166.841C151.075 166.877 150.708 167.118 150.411 167.564C150.088 168.051 150.007 168.54 150.17 169.032C150.326 169.52 150.694 169.957 151.273 170.342L151.363 170.402C151.976 170.81 152.539 170.968 153.051 170.876C153.568 170.778 154.006 170.459 154.365 169.919C154.564 169.62 154.707 169.311 154.793 168.994C154.879 168.676 154.902 168.331 154.862 167.959L155.69 168.077C155.746 168.441 155.718 168.831 155.605 169.246C155.497 169.654 155.321 170.042 155.077 170.408Z" fill="white"/>
<path d="M158.714 164.872L154.244 160.816L156.243 158.612C156.722 158.085 157.177 157.785 157.61 157.713C158.048 157.635 158.456 157.768 158.835 158.112C159.12 158.37 159.271 158.686 159.289 159.059C159.301 159.426 159.186 159.786 158.942 160.138L158.827 160.033C159.177 159.67 159.553 159.476 159.954 159.451C160.354 159.415 160.714 159.542 161.034 159.832C161.414 160.176 161.584 160.595 161.546 161.09C161.507 161.573 161.254 162.073 160.786 162.588L158.714 164.872ZM158.874 163.624L160.204 162.158C160.479 161.855 160.626 161.568 160.647 161.295C160.662 161.017 160.55 160.77 160.313 160.555C160.071 160.335 159.814 160.248 159.545 160.295C159.275 160.342 159.003 160.517 158.729 160.819L157.399 162.286L158.874 163.624ZM156.865 161.802L158.107 160.433C158.36 160.155 158.494 159.882 158.509 159.615C158.525 159.348 158.423 159.115 158.203 158.916C157.978 158.712 157.737 158.633 157.478 158.68C157.22 158.726 156.965 158.889 156.712 159.167L155.47 160.536L156.865 161.802Z" fill="white"/>
<path d="M166.825 156.744C166.355 157.104 165.873 157.317 165.379 157.383C164.881 157.442 164.395 157.36 163.922 157.138C163.445 156.909 163.009 156.537 162.615 156.023C162.226 155.515 161.986 155.003 161.894 154.489C161.798 153.968 161.846 153.478 162.038 153.019C162.226 152.553 162.554 152.14 163.024 151.78C163.495 151.42 163.979 151.211 164.477 151.151C164.978 151.081 165.463 151.162 165.934 151.396C166.407 151.618 166.838 151.984 167.227 152.492C167.621 153.007 167.866 153.524 167.962 154.045C168.06 154.554 168.012 155.044 167.819 155.515C167.626 155.975 167.295 156.384 166.825 156.744ZM166.3 156.058C166.732 155.727 166.961 155.31 166.988 154.806C167.015 154.301 166.803 153.754 166.35 153.163C165.898 152.572 165.427 152.227 164.938 152.128C164.449 152.029 163.989 152.145 163.557 152.476C163.119 152.811 162.884 153.228 162.852 153.726C162.826 154.219 163.04 154.761 163.492 155.352C163.944 155.942 164.414 156.293 164.902 156.403C165.395 156.509 165.862 156.394 166.3 156.058Z" fill="white"/>
<path d="M173.258 153.539L172.234 151.356L172.831 151.075C172.904 150.59 172.877 150.072 172.751 149.522C172.633 148.968 172.412 148.347 172.089 147.659L171.334 146.051L175.256 144.21L177.459 148.903L178.328 148.495L179.352 150.679L178.505 151.076L177.842 149.664L173.454 151.724L174.117 153.136L173.258 153.539ZM173.77 150.648L176.54 149.347L174.69 145.404L172.56 146.403L173.04 147.425C173.298 147.975 173.495 148.536 173.631 149.109C173.764 149.674 173.81 150.187 173.77 150.648Z" fill="white"/>
<path d="M182.559 147.39L181.35 141.476L182.408 141.26L182.836 143.353L184.576 142.997C185.344 142.84 185.954 142.887 186.405 143.138C186.863 143.379 187.154 143.805 187.279 144.417C187.359 144.808 187.339 145.168 187.218 145.495C187.097 145.822 186.88 146.099 186.567 146.326C186.254 146.553 185.851 146.717 185.357 146.818L182.559 147.39ZM183.465 146.433L185.088 146.101C185.558 146.005 185.892 145.839 186.088 145.603C186.291 145.357 186.352 145.035 186.27 144.635C186.189 144.235 186.007 143.966 185.726 143.828C185.452 143.688 185.08 143.666 184.61 143.762L182.987 144.093L183.465 146.433ZM188.531 146.169L187.323 140.256L188.381 140.039L189.589 145.953L188.531 146.169Z" fill="white"/>
</g>
</svg>
