<svg width="30" height="30" viewBox="0 0 30 30" fill="none" xmlns="http://www.w3.org/2000/svg">
<path d="M15 0C6.71667 0 0 6.71667 0 15C0 20.0425 2.49667 24.4933 6.31167 27.2125C6.39833 21.8475 4.4475 15.8333 1.17 15.8333C0.783333 15.8333 0.47 15.8883 0.209167 15.9858C0.461667 15.355 1.00917 15 2.03333 15C5.59167 15 7.58833 22.0883 7.11 27.74C9.405 29.1642 12.1017 30 15 30C17.8992 30 20.5967 29.1633 22.8917 27.7392C22.4108 22.0667 24.4067 15 27.9675 15C28.995 15 29.5442 15.355 29.7942 15.9858C29.5325 15.8883 29.2183 15.8333 28.83 15.8333C25.5483 15.8333 23.5983 21.8325 23.6883 27.2125C27.5042 24.4933 30 20.0425 30 15C30 6.71667 23.2842 0 15 0Z" fill="#FFCC4D"/>
<path d="M15 0C6.71667 0 0 6.71667 0 15C0 15.9933 0.1025 16.9633 0.286667 17.9033C0.481667 17.1842 0.786667 16.4942 1.16833 15.8333C0.7825 15.8333 0.47 15.8883 0.21 15.9858C0.43 15.4367 0.895 15.1125 1.68333 15.0342C4.17667 11.5517 9.1975 9.16667 15 9.16667C20.8033 9.16667 25.8233 11.5508 28.3167 15.0333C29.1083 15.1117 29.575 15.435 29.7933 15.9858C29.5333 15.8883 29.2192 15.8333 28.8325 15.8333C29.2142 16.4942 29.5183 17.1842 29.7142 17.9033C29.8983 16.9633 30 15.9933 30 15C30 6.71667 23.2842 0 15 0Z" fill="#BDDDF4"/>
<path d="M6.12144 9.92495C5.3331 12.5716 6.2106 15.1691 8.08227 15.7266C9.95394 16.2849 12.1106 14.5916 12.8981 11.9449C13.6864 9.29911 12.8098 6.70078 10.9389 6.14328C9.06727 5.58578 6.9106 7.27911 6.12144 9.92495ZM23.8756 9.92495C24.6639 12.5716 23.7864 15.1691 21.9156 15.7266C20.0439 16.2849 17.8873 14.5916 17.0998 11.9449C16.3114 9.29911 17.1889 6.70078 19.0589 6.14328C20.9298 5.58578 23.0864 7.27911 23.8756 9.92495Z" fill="#F5F8FA"/>
<path d="M14.9987 15C12.7012 15 10.832 16.8692 10.832 19.1667V24.1667C10.832 26.4642 12.7012 28.3333 14.9987 28.3333C17.2962 28.3333 19.1654 26.4642 19.1654 24.1667V19.1667C19.1654 16.8692 17.2962 15 14.9987 15Z" fill="#664500"/>
<path d="M1.17111 15.833C0.784443 15.833 0.47111 15.888 0.210277 15.9855C0.270277 15.8364 0.349443 15.7055 0.444443 15.5889C-1.10722 17.498 2.37528 23.783 0.682777 29.9997H6.06611C7.05778 24.1997 5.03694 15.833 1.17111 15.833ZM29.7953 15.9855C29.5336 15.888 29.2194 15.833 28.8311 15.833C24.9636 15.833 22.9436 24.168 23.9369 29.9997H29.3203C27.7319 24.1289 30.7003 18.2589 29.7953 15.9855Z" fill="#FCAB40"/>
</svg>
