<svg width="30" height="31" viewBox="0 0 30 31" fill="none" xmlns="http://www.w3.org/2000/svg">
<path d="M30 15.2637C30 23.5478 23.2842 30.2637 15 30.2637C6.71583 30.2637 0 23.5478 0 15.2637C0 6.97951 6.71583 0.263672 15 0.263672C23.2842 0.263672 30 6.97951 30 15.2637Z" fill="#FFCC4D"/>
<path d="M14.9997 17.7637C11.9805 17.7637 9.97717 17.412 7.49967 16.9304C6.93384 16.8212 5.83301 16.9304 5.83301 18.597C5.83301 21.9304 9.66217 26.097 14.9997 26.097C20.3363 26.097 24.1663 21.9304 24.1663 18.597C24.1663 16.9304 23.0655 16.8204 22.4997 16.9304C20.0222 17.412 18.0188 17.7637 14.9997 17.7637Z" fill="#664500"/>
<path d="M7.5 18.5972C7.5 18.5972 10 19.4305 15 19.4305C20 19.4305 22.5 18.5972 22.5 18.5972C22.5 18.5972 20.8333 21.9305 15 21.9305C9.16667 21.9305 7.5 18.5972 7.5 18.5972Z" fill="white"/>
<path d="M13.0686 3.94107L9.28363 4.60857L7.33363 1.06441C7.11863 0.673574 6.67697 0.464408 6.2403 0.541074C5.80113 0.618574 5.45947 0.966908 5.39113 1.40691L4.7703 5.40441L0.9853 6.07191C0.539467 6.15024 0.1953 6.50941 0.134467 6.95857C0.0736333 7.40774 0.3103 7.84441 0.7203 8.03941L4.11197 9.64941L3.48863 13.6594C3.41947 14.1061 3.64613 14.5461 4.04947 14.7502C4.19863 14.8252 4.35863 14.8611 4.5178 14.8611C4.7903 14.8611 5.05947 14.7544 5.2603 14.5511L8.18697 11.5836L11.952 13.3711C12.3603 13.5644 12.847 13.4736 13.157 13.1444C13.467 12.8152 13.5286 12.3244 13.3111 11.9286L11.3545 8.37191L13.992 5.69857C14.3103 5.37607 14.3828 4.88441 14.1728 4.48274C13.9611 4.08107 13.512 3.86357 13.0686 3.94107ZM16.932 3.94107L20.717 4.60857L22.667 1.06441C22.882 0.673574 23.3236 0.464408 23.7603 0.541074C24.1986 0.618574 24.5403 0.966908 24.6086 1.40691L25.2295 5.40441L29.0145 6.07191C29.4611 6.15024 29.8053 6.50857 29.8653 6.95774C29.9253 7.40691 29.6895 7.84357 29.2795 8.03857L25.8878 9.64857L26.5111 13.6586C26.5803 14.1052 26.3536 14.5452 25.9503 14.7494C25.8011 14.8244 25.6411 14.8602 25.482 14.8602C25.2095 14.8602 24.9403 14.7536 24.7395 14.5502L21.8128 11.5827L18.0478 13.3702C17.6395 13.5636 17.1528 13.4727 16.8428 13.1436C16.5328 12.8144 16.4711 12.3236 16.6886 11.9277L18.6453 8.37191L16.0078 5.69857C15.6895 5.37607 15.617 4.88441 15.827 4.48274C16.0395 4.08107 16.4886 3.86357 16.932 3.94107Z" fill="#E95F28"/>
</svg>
