<svg width="36" height="36" viewBox="0 0 36 36" fill="none" xmlns="http://www.w3.org/2000/svg">
<path d="M16.9878 30.2021C25.3279 30.2021 32.0888 23.4411 32.0888 15.1011C32.0888 6.76097 25.3279 0 16.9878 0C8.64769 0 1.88672 6.76097 1.88672 15.1011C1.88672 23.4411 8.64769 30.2021 16.9878 30.2021Z" fill="#FFCC4D"/>
<path d="M10.708 19.8169C10.7458 19.9671 11.6879 23.4906 16.9876 23.4906C22.288 23.4906 23.2293 19.9671 23.2671 19.8169C23.3132 19.6348 23.231 19.4461 23.0682 19.3521C22.9047 19.259 22.6999 19.2867 22.5649 19.4167C22.5489 19.4326 20.9256 20.9738 16.9876 20.9738C13.0495 20.9738 11.4253 19.4326 11.4102 19.4175C11.3297 19.3378 11.2223 19.2959 11.1149 19.2959C11.0445 19.2959 10.9731 19.3135 10.9085 19.3496C10.7441 19.4436 10.6619 19.634 10.708 19.8169Z" fill="#664500"/>
<path d="M11.9528 14.2623C13.1112 14.2623 14.0502 12.9476 14.0502 11.326C14.0502 9.70428 13.1112 8.38965 11.9528 8.38965C10.7945 8.38965 9.85547 9.70428 9.85547 11.326C9.85547 12.9476 10.7945 14.2623 11.9528 14.2623Z" fill="#664500"/>
<path d="M22.0212 14.2623C23.1795 14.2623 24.1186 12.9476 24.1186 11.326C24.1186 9.70428 23.1795 8.38965 22.0212 8.38965C20.8629 8.38965 19.9238 9.70428 19.9238 11.326C19.9238 12.9476 20.8629 14.2623 22.0212 14.2623Z" fill="#664500"/>
<path d="M2.72313 24.7486C0.20629 20.5538 2.30366 14.2617 2.30366 14.2617L11.9516 28.9433C11.9516 28.9433 5.23998 28.9433 2.72313 24.7486Z" fill="#FFCC4D" stroke="#FFCC4D"/>
<path d="M16.3648 31.9257C11.4769 31.7281 7.36752 26.5221 7.36752 26.5221L24.9354 26.5123C24.9354 26.5123 21.2527 32.1232 16.3648 31.9257Z" fill="#FFCC4D" stroke="#FFCC4D"/>
<path d="M31.0574 25.2319C28.1005 29.129 21.1818 29.3629 21.1818 29.3629L31.2492 14.2618C31.2492 14.2618 34.0144 21.3349 31.0574 25.2319Z" fill="#FFCC4D" stroke="#FFCC4D"/>
<path d="M2.30503 13.4229C2.30503 13.4229 -0.631285 20.1344 2.30503 24.7486C5.24134 29.3629 11.9529 29.3629 11.9529 29.3629" stroke="#664500" stroke-width="0.2"/>
<path d="M20.3429 29.7829C20.3429 29.7829 28.3129 29.3634 31.2492 25.5882C34.1855 21.8129 31.6687 14.2624 31.6687 14.2624" stroke="#664500" stroke-width="0.2"/>
</svg>
