<svg width="32" height="32" viewBox="0 0 32 32" fill="none" xmlns="http://www.w3.org/2000/svg">
<path d="M31 16C31 24.2842 24.2842 31 16 31C7.71583 31 1 24.2842 1 16C1 7.71583 7.71583 1 16 1C24.2842 1 31 7.71583 31 16Z" fill="#FFCC4D"/>
<path d="M19.3353 23.4997C19.3353 25.8022 17.8428 25.9997 16.002 25.9997C14.1603 25.9997 12.6686 25.8022 12.6686 23.4997C12.6686 21.1988 14.1603 18.4997 16.002 18.4997C17.8428 18.4997 19.3353 21.1988 19.3353 23.4997ZM26.002 13.4997C25.8986 13.4997 25.7936 13.4805 25.6928 13.4397C21.3353 11.6972 19.5495 9.07216 19.4753 8.96133C19.2195 8.578 19.3228 8.06049 19.7061 7.80549C20.0886 7.55049 20.6036 7.65216 20.8603 8.03383C20.8761 8.05633 22.4686 10.3547 26.3111 11.8913C26.7386 12.063 26.947 12.5472 26.7761 12.9747C26.6453 13.3013 26.332 13.4997 26.002 13.4997ZM6.00195 13.4997C5.67112 13.4997 5.35862 13.3013 5.22779 12.9755C5.05695 12.548 5.26445 12.063 5.69195 11.8922C9.53529 10.3555 11.1278 8.05716 11.1436 8.03466C11.4003 7.65466 11.9178 7.55383 12.2995 7.80966C12.6803 8.06633 12.7836 8.5805 12.5286 8.96216C12.4545 9.073 10.6686 11.698 6.31195 13.4405C6.21029 13.4805 6.10529 13.4997 6.00195 13.4997Z" fill="#664500"/>
<path d="M21.0013 14.3335H24.3346V30.1668L21.0013 30.1285V14.3335ZM7.66797 30.1668L11.0013 30.1285V14.3335H7.66797V30.1668Z" fill="#5DADEC"/>
<path d="M13.499 15.9998C13.374 15.9998 13.2465 15.9714 13.1274 15.9123C10.2007 14.4489 7.2357 15.8973 7.20654 15.9123C6.79404 16.1198 6.29404 15.9506 6.0882 15.5398C5.88237 15.1281 6.04904 14.6273 6.4607 14.4214C6.61237 14.3464 10.209 12.5906 13.8732 14.4214C14.2849 14.6273 14.4515 15.1281 14.2457 15.5398C14.099 15.8314 13.8049 15.9998 13.499 15.9998ZM25.1657 15.9998C25.0407 15.9998 24.9132 15.9714 24.794 15.9123C21.8665 14.4489 18.9024 15.8973 18.8732 15.9123C18.4615 16.1189 17.9615 15.9514 17.7549 15.5398C17.549 15.1281 17.7157 14.6273 18.1274 14.4214C18.279 14.3464 21.8782 12.5914 25.5399 14.4214C25.9515 14.6273 26.1182 15.1281 25.9124 15.5398C25.7657 15.8314 25.4715 15.9998 25.1657 15.9998Z" fill="#664500"/>
<path d="M16 30.9998C24.2843 30.9998 31 30.2536 31 29.3332C31 28.4127 24.2843 27.6665 16 27.6665C7.71573 27.6665 1 28.4127 1 29.3332C1 30.2536 7.71573 30.9998 16 30.9998Z" fill="#5DADEC"/>
<path d="M16 25.1668C17.3807 25.1668 18.5 24.4206 18.5 23.5002C18.5 22.5797 17.3807 21.8335 16 21.8335C14.6193 21.8335 13.5 22.5797 13.5 23.5002C13.5 24.4206 14.6193 25.1668 16 25.1668Z" fill="#E75A70"/>
</svg>
