<svg width="60" height="52" viewBox="0 0 60 52" fill="none" xmlns="http://www.w3.org/2000/svg">
<path d="M60 39.9887V5.85916C59.9976 4.30592 59.3647 2.81698 58.24 1.71867C57.1153 0.620374 55.5906 0.00232462 54 0H6C4.40943 0.00232462 2.88469 0.620374 1.75999 1.71867C0.635287 2.81698 0.0023805 4.30592 0 5.85916V30.6141V46.1408C0.0023805 47.6941 0.635287 49.183 1.75999 50.2813C2.88469 51.3796 4.40943 51.9977 6 52H54C55.5906 51.9977 57.1153 51.3796 58.24 50.2813C59.3647 49.183 59.9976 47.6941 60 46.1408V39.9887ZM6 2.34366H54C54.9548 2.34366 55.8705 2.71404 56.5456 3.37333C57.2207 4.03261 57.6 4.92679 57.6 5.85916V37.1602L40.449 20.4104C40.3376 20.3014 40.2052 20.215 40.0595 20.156C39.9139 20.097 39.7577 20.0667 39.6 20.0667C39.4423 20.0667 39.2861 20.097 39.1405 20.156C38.9948 20.215 38.8624 20.3014 38.751 20.4104L30 28.9574L16.449 15.723C16.3376 15.6141 16.2052 15.5277 16.0595 15.4687C15.9139 15.4097 15.7577 15.3794 15.6 15.3794C15.4423 15.3794 15.2861 15.4097 15.1405 15.4687C14.9948 15.5277 14.8624 15.6141 14.751 15.723L2.4 27.7856V5.85916C2.4 4.92679 2.77928 4.03261 3.45442 3.37333C4.12955 2.71404 5.04522 2.34366 6 2.34366ZM54 49.6563H6C5.04522 49.6563 4.12955 49.286 3.45442 48.6267C2.77928 47.9674 2.4 47.0732 2.4 46.1408V31.0989L15.6 18.2088L29.151 31.4432C29.2624 31.5521 29.3948 31.6385 29.5405 31.6975C29.6861 31.7565 29.8423 31.7868 30 31.7868C30.1577 31.7868 30.3139 31.7565 30.4595 31.6975C30.6052 31.6385 30.7376 31.5521 30.849 31.4432L39.6 22.8961L57.6 40.4736V46.1408C57.6 47.0732 57.2207 47.9674 56.5456 48.6267C55.8705 49.286 54.9548 49.6563 54 49.6563Z" fill="#2F80ED"/>
</svg>
