<svg width="111" height="36" viewBox="0 0 111 36" fill="none" xmlns="http://www.w3.org/2000/svg">
<path d="M101.819 0.0262182C101.562 -0.0373322 101.291 0.0160634 101.081 0.171008C100.872 0.326281 100.75 0.565414 100.75 0.81896V11.9252C97.6805 12.6249 94.1569 12.9977 90.5 12.9977C86.8431 12.9977 83.3195 12.6249 80.25 11.9252V0.81896C80.25 0.565414 80.1277 0.326281 79.9186 0.171008C79.7091 0.0160634 79.4372 -0.0370046 79.1813 0.0262182C73.3463 1.47903 70 3.91 70 6.69541V28.0595C70 29.3347 70.7195 31.2164 74.1468 32.9411C77.1214 34.4401 81.4626 35.4706 86.3686 35.8431C87.711 35.9469 89.1012 36 90.5 36C92.2896 36 94.0711 35.9135 95.7955 35.7432C99.7428 35.3491 103.238 34.5328 105.905 33.3823C109.238 31.9426 111 30.1019 111 28.0598V6.69541C111 3.91 107.654 1.47903 101.819 0.0262182ZM102.458 1.89801C106.703 3.11857 109.292 4.91796 109.292 6.69573C109.292 8.47351 106.703 10.2726 102.458 11.4935V1.89801ZM78.5417 1.89801V11.4931C74.2975 10.2726 71.7083 8.47318 71.7083 6.69541C71.7083 4.91763 74.2975 3.11857 78.5417 1.89801ZM105.203 31.8889C102.701 32.9686 99.3871 33.7381 95.6195 34.1141C92.6525 34.4076 89.4644 34.4404 86.5049 34.2108C81.8223 33.8553 77.7159 32.8896 74.9412 31.4912C72.8563 30.4423 71.7083 29.2237 71.7083 28.0598V9.96989C73.251 11.3493 75.796 12.5217 79.1813 13.3646H79.182C82.5327 14.196 86.4465 14.6356 90.5 14.6356C94.5535 14.6356 98.4673 14.196 101.818 13.3646H101.819C105.204 12.5217 107.749 11.3493 109.292 9.96989V28.0595C109.292 29.3904 107.84 30.7505 105.203 31.8889Z" fill="#2F80ED"/>
<path d="M92.9432 31.0313C92.4751 31.051 92.1095 31.4372 92.1334 31.8893C92.1539 32.3249 92.5332 32.6692 92.9876 32.6692C92.9979 32.6692 93.0115 32.6692 93.0252 32.6656C93.4967 32.646 93.8623 32.263 93.8384 31.811C93.8144 31.3589 93.4147 31.0084 92.9432 31.0313Z" fill="#2F80ED"/>
<path d="M106.873 27.768C106.47 28.0072 106.35 28.5149 106.6 28.8982C106.76 29.1475 107.04 29.2814 107.324 29.2814C107.478 29.2814 107.635 29.2421 107.778 29.157C108.178 28.9181 108.298 28.4133 108.048 28.0304C107.799 27.6475 107.273 27.5292 106.873 27.768Z" fill="#2F80ED"/>
<path d="M74.1312 27.7721C73.7314 27.5329 73.2052 27.6476 72.9558 28.0341C72.703 28.4174 72.826 28.9219 73.2257 29.1607C73.3658 29.2462 73.523 29.2855 73.6767 29.2855C73.9637 29.2855 74.2405 29.1479 74.4045 28.8986C74.6539 28.5157 74.5309 28.0112 74.1312 27.7721Z" fill="#2F80ED"/>
<path d="M78.4768 29.5638C78.0258 29.4328 77.5475 29.6752 77.4108 30.1109C77.2741 30.5433 77.5304 30.9986 77.9814 31.1297C78.0634 31.1523 78.1488 31.1654 78.2274 31.1654C78.5964 31.1654 78.9346 30.9364 79.0474 30.5826C79.184 30.1502 78.9278 29.6949 78.4768 29.5638Z" fill="#2F80ED"/>
<path d="M102.527 29.5606C102.076 29.6913 101.82 30.147 101.956 30.5827C102.069 30.9365 102.407 31.1625 102.773 31.1625C102.855 31.1625 102.94 31.1527 103.022 31.1298C103.473 30.9987 103.729 30.5401 103.593 30.1077C103.456 29.6753 102.978 29.4296 102.527 29.5606Z" fill="#2F80ED"/>
<path d="M97.7979 30.5693C97.3298 30.6381 97.0121 31.057 97.0838 31.5029C97.1488 31.9091 97.5109 32.1973 97.9278 32.1973C97.9688 32.1973 98.0132 32.1941 98.0576 32.1875C98.5223 32.1187 98.8434 31.6994 98.7717 31.2539C98.6999 30.8051 98.2626 30.5005 97.7979 30.5693Z" fill="#2F80ED"/>
<path d="M83.2055 30.5693C82.7409 30.5005 82.3035 30.8051 82.2318 31.2539C82.16 31.6991 82.4778 32.1187 82.9459 32.1875C82.9903 32.1944 83.0347 32.1973 83.0757 32.1973C83.4891 32.1973 83.8547 31.9091 83.9196 31.5029C83.9914 31.057 83.6736 30.6381 83.2055 30.5693Z" fill="#2F80ED"/>
<path d="M88.0603 31.0313C87.5888 31.0084 87.1857 31.3589 87.1652 31.8074C87.1413 32.2598 87.5068 32.6463 87.9783 32.6656H88.0193C88.4703 32.6656 88.8496 32.3249 88.8701 31.8893C88.894 31.4375 88.5318 31.051 88.0603 31.0313Z" fill="#2F80ED"/>
<path d="M107.324 14.4688C107.478 14.4688 107.635 14.4295 107.775 14.3443C108.178 14.1051 108.298 13.6007 108.048 13.2174C107.799 12.8341 107.269 12.7162 106.873 12.9553C106.47 13.1945 106.35 13.7022 106.6 14.0855C106.76 14.3345 107.04 14.4688 107.324 14.4688Z" fill="#2F80ED"/>
<path d="M102.773 16.3523C102.855 16.3523 102.94 16.3392 103.022 16.3163C103.473 16.1852 103.726 15.7266 103.593 15.2942C103.456 14.8618 102.978 14.6161 102.527 14.7472C102.076 14.8782 101.82 15.3368 101.956 15.7692C102.069 16.123 102.407 16.3523 102.773 16.3523Z" fill="#2F80ED"/>
<path d="M83.2055 15.7562C82.7409 15.6874 82.3035 15.9953 82.2318 16.4408C82.16 16.8896 82.4778 17.3056 82.9459 17.3744C82.9903 17.381 83.0347 17.3843 83.0757 17.3843C83.4891 17.3843 83.8547 17.096 83.9196 16.6898C83.9914 16.2443 83.6736 15.825 83.2055 15.7562Z" fill="#2F80ED"/>
<path d="M74.1312 12.9586C73.7314 12.7194 73.2052 12.8341 72.9558 13.2206C72.703 13.6039 72.826 14.1084 73.2257 14.3475C73.3658 14.4327 73.523 14.472 73.6767 14.472C73.9637 14.472 74.2405 14.3377 74.4045 14.0887C74.6539 13.7022 74.5309 13.1977 74.1312 12.9586Z" fill="#2F80ED"/>
<path d="M78.4768 14.7506C78.0258 14.6196 77.5475 14.8652 77.4108 15.2976C77.2741 15.73 77.5304 16.1854 77.9814 16.3164C78.0634 16.3426 78.1488 16.3524 78.2274 16.3524C78.5964 16.3524 78.9346 16.1264 79.0474 15.7726C79.184 15.337 78.9278 14.8816 78.4768 14.7506Z" fill="#2F80ED"/>
<path d="M92.9876 17.8562H93.0252C93.4967 17.8333 93.8623 17.45 93.8384 16.998C93.8179 16.5459 93.4147 16.1954 92.9466 16.2183C92.4751 16.2413 92.1095 16.6245 92.1334 17.0766C92.1539 17.5156 92.5332 17.8562 92.9876 17.8562Z" fill="#2F80ED"/>
<path d="M87.9783 17.8562H88.0193C88.4703 17.8562 88.8496 17.5156 88.8701 17.0766C88.894 16.6245 88.5318 16.2413 88.0603 16.2183C87.5888 16.1954 87.1891 16.5459 87.1652 16.998C87.1413 17.45 87.5068 17.8333 87.9783 17.8562Z" fill="#2F80ED"/>
<path d="M97.7945 15.7562C97.3298 15.825 97.0121 16.2443 97.0838 16.6898C97.1488 17.096 97.5109 17.3843 97.9243 17.3843C97.9688 17.3843 98.0132 17.381 98.0576 17.3744C98.5223 17.3056 98.8434 16.8863 98.7717 16.4408C98.6999 15.9953 98.2626 15.6874 97.7945 15.7562Z" fill="#2F80ED"/>
<path d="M94.1693 22.1332L88.9319 19.2341C88.2745 18.8702 87.4897 18.8709 86.8323 19.2341C86.1749 19.5981 85.7827 20.25 85.7827 20.9775V26.7753C85.7827 27.5032 86.1753 28.1548 86.8327 28.5187C87.1613 28.7005 87.5218 28.7913 87.8823 28.7913C88.2427 28.7913 88.6032 28.7005 88.9319 28.5184L94.1689 25.6193C94.8263 25.2554 95.2189 24.6035 95.2189 23.8759C95.2192 23.149 94.8266 22.4975 94.1693 22.1332ZM93.3151 24.2016L88.0777 27.1006C87.9075 27.195 87.7599 27.1412 87.6868 27.1006C87.6137 27.0603 87.491 26.9644 87.491 26.776V20.9778C87.491 20.7895 87.6134 20.6935 87.6865 20.6529C87.7852 20.5936 87.9526 20.5766 88.0777 20.6529L93.3148 23.552C93.4849 23.6463 93.5105 23.796 93.5105 23.8766C93.5109 23.9575 93.4852 24.1072 93.3151 24.2016Z" fill="#2F80ED"/>
<path d="M30.3397 12.2431C31.1507 12.2431 31.9433 12.0058 32.6176 11.561C33.2918 11.1163 33.8173 10.4842 34.1277 9.74464C34.438 9.00508 34.5192 8.19129 34.361 7.40619C34.2028 6.62108 33.8123 5.89991 33.2389 5.33388C32.6655 4.76785 31.9349 4.38238 31.1396 4.22621C30.3443 4.07004 29.5199 4.15019 28.7707 4.45653C28.0216 4.76286 27.3812 5.28162 26.9307 5.9472C26.4802 6.61278 26.2397 7.39529 26.2397 8.19578C26.2397 9.26921 26.6717 10.2987 27.4406 11.0577C28.2095 11.8167 29.2524 12.2431 30.3397 12.2431ZM30.3397 5.76738C30.8263 5.76738 31.3019 5.9098 31.7064 6.17664C32.111 6.44347 32.4263 6.82274 32.6125 7.26647C32.7987 7.71021 32.8474 8.19848 32.7525 8.66954C32.6576 9.14061 32.4233 9.57331 32.0792 9.91293C31.7352 10.2525 31.2969 10.4838 30.8197 10.5775C30.3425 10.6712 29.8479 10.6231 29.3983 10.4393C28.9488 10.2555 28.5646 9.94428 28.2943 9.54493C28.024 9.14558 27.8797 8.67608 27.8797 8.19578C27.8797 7.55173 28.1389 6.93406 28.6003 6.47864C29.0616 6.02323 29.6873 5.76738 30.3397 5.76738Z" fill="#2F80ED"/>
<path d="M41 27.6231V4.04734C40.9984 2.97441 40.5659 1.94589 39.7973 1.18721C39.0288 0.428537 37.9869 0.00160578 36.9 0H4.1C3.01311 0.00160578 1.97121 0.428537 1.20266 1.18721C0.434112 1.94589 0.00162667 2.97441 0 4.04734V21.1474V31.8728C0.00162667 32.9458 0.434112 33.9743 1.20266 34.733C1.97121 35.4916 3.01311 35.9186 4.1 35.9202H36.9C37.9869 35.9186 39.0288 35.4916 39.7973 34.733C40.5659 33.9743 40.9984 32.9458 41 31.8728V27.6231ZM4.1 1.61894H36.9C37.5524 1.61894 38.1781 1.87479 38.6395 2.3302C39.1008 2.78562 39.36 3.40329 39.36 4.04734V25.6693L27.6402 14.0989C27.564 14.0237 27.4736 13.964 27.374 13.9232C27.2745 13.8825 27.1678 13.8615 27.06 13.8615C26.9522 13.8615 26.8455 13.8825 26.746 13.9232C26.6464 13.964 26.556 14.0237 26.4798 14.0989L20.5 20.003L11.2402 10.861C11.164 10.7858 11.0736 10.7261 10.974 10.6853C10.8745 10.6446 10.7678 10.6236 10.66 10.6236C10.5522 10.6236 10.4455 10.6446 10.346 10.6853C10.2464 10.7261 10.156 10.7858 10.0798 10.861L1.64 19.1935V4.04734C1.64 3.40329 1.89918 2.78562 2.36052 2.3302C2.82186 1.87479 3.44757 1.61894 4.1 1.61894ZM36.9 34.3012H4.1C3.44757 34.3012 2.82186 34.0454 2.36052 33.59C1.89918 33.1346 1.64 32.5169 1.64 31.8728V21.4823L10.66 12.5781L19.9198 21.7201C19.996 21.7953 20.0864 21.855 20.186 21.8958C20.2855 21.9365 20.3922 21.9575 20.5 21.9575C20.6078 21.9575 20.7145 21.9365 20.814 21.8958C20.9136 21.855 21.004 21.7953 21.0802 21.7201L27.06 15.816L39.36 27.958V31.8728C39.36 32.5169 39.1008 33.1346 38.6395 33.59C38.1781 34.0454 37.5524 34.3012 36.9 34.3012Z" fill="#2F80ED"/>
<rect opacity="0.5" x="55" y="2.99316" width="1" height="29.9335" fill="#323F4B"/>
</svg>
