<svg width="160" height="54" viewBox="0 0 160 54" fill="none" xmlns="http://www.w3.org/2000/svg">
<rect width="160" height="54" rx="12" fill="#323F4B"/>
<path d="M55.5365 19.7568C54.8261 19.7568 54.1875 19.5944 53.6206 19.2694C53.0539 18.9373 52.609 18.4782 52.286 17.8919C51.9704 17.3055 51.8125 16.645 51.8125 15.9103C51.8125 15.1755 51.9704 14.5185 52.286 13.9392C52.609 13.3529 53.0503 12.8972 53.6099 12.5723C54.1768 12.2402 54.8154 12.0742 55.5258 12.0742C56.2935 12.0742 56.9753 12.265 57.5708 12.6464C58.1735 13.0209 58.604 13.5295 58.8624 14.1724L57.7645 14.3419C57.5636 13.9463 57.2659 13.639 56.8711 13.42C56.4838 13.1939 56.046 13.0809 55.558 13.0809C55.0558 13.0809 54.6073 13.201 54.2126 13.4412C53.8251 13.6814 53.5203 14.017 53.2978 14.4479C53.0825 14.8718 52.9749 15.3592 52.9749 15.9103C52.9749 16.4684 53.0825 16.9628 53.2978 17.3938C53.5203 17.8177 53.8288 18.1497 54.2234 18.3899C54.6181 18.63 55.0701 18.7502 55.5796 18.7502C56.0819 18.7502 56.5268 18.6372 56.9143 18.4111C57.3089 18.178 57.6103 17.853 57.8184 17.4362L58.9161 17.6058C58.6435 18.2627 58.2023 18.7855 57.5923 19.174C56.9824 19.5626 56.2971 19.7568 55.5365 19.7568Z" fill="white"/>
<path d="M64.6471 19.6504H63.2586L61.2028 17.3827H60.8692V19.6504H59.8145V14.1719H60.8692V16.3866H61.1921L63.1617 14.1719H64.4318L62.0423 16.8211L64.6471 19.6504Z" fill="white"/>
<path d="M67.2637 14.0664C67.9525 14.0664 68.4942 14.2889 68.889 14.734C69.2907 15.172 69.4916 15.7866 69.4916 16.5779V19.6509H68.7382L68.4907 18.7926C68.3114 19.068 68.071 19.2977 67.7696 19.4814C67.4682 19.665 67.1059 19.7568 66.6825 19.7568C66.3094 19.7568 65.9757 19.6828 65.6815 19.5343C65.3874 19.386 65.1577 19.1811 64.9926 18.9197C64.8276 18.6513 64.7451 18.351 64.7451 18.019C64.7451 17.5032 64.9532 17.09 65.3694 16.7792C65.7855 16.4684 66.3882 16.3129 67.1776 16.3129H68.4369C68.4081 15.8819 68.2862 15.5499 68.071 15.3168C67.8556 15.0766 67.5686 14.9565 67.2099 14.9565C66.9372 14.9565 66.6969 15.0201 66.4887 15.1472C66.2806 15.2745 66.1227 15.4405 66.0151 15.6453L65.0357 15.4864C65.1792 15.0484 65.4555 14.7022 65.8645 14.4479C66.2735 14.1936 66.7399 14.0664 67.2637 14.0664ZM66.9085 18.8774C67.3606 18.8774 67.7265 18.7326 68.0064 18.4429C68.2934 18.1461 68.4369 17.74 68.4369 17.2242V17.1606H67.2099C66.2771 17.1606 65.8106 17.4362 65.8106 17.9873C65.8106 18.2557 65.9111 18.4712 66.112 18.6336C66.313 18.7961 66.5785 18.8774 66.9085 18.8774Z" fill="white"/>
<path d="M73.7322 17.6582C73.56 17.7359 73.3555 17.796 73.1187 17.8383C72.8819 17.8808 72.6487 17.902 72.4192 17.902C71.7518 17.902 71.2388 17.7182 70.8799 17.3509C70.5212 16.9835 70.3418 16.4643 70.3418 15.7932V14.1719H71.3965V15.7932C71.3965 16.5774 71.7805 16.9695 72.5483 16.9695C73.0147 16.9695 73.4093 16.8881 73.7322 16.7257V14.1719H74.787V19.6504H73.7322V17.6582Z" fill="white"/>
<path d="M78.3271 14.0664C79.016 14.0664 79.5577 14.2889 79.9523 14.734C80.3542 15.172 80.5551 15.7866 80.5551 16.5779V19.6509H79.8017L79.5541 18.7926C79.3747 19.068 79.1343 19.2977 78.833 19.4814C78.5316 19.665 78.1692 19.7568 77.746 19.7568C77.3728 19.7568 77.0391 19.6828 76.745 19.5343C76.4507 19.386 76.2211 19.1811 76.0561 18.9197C75.8911 18.6513 75.8086 18.351 75.8086 18.019C75.8086 17.5032 76.0166 17.09 76.4328 16.7792C76.849 16.4684 77.4517 16.3129 78.241 16.3129H79.5003C79.4716 15.8819 79.3496 15.5499 79.1343 15.3168C78.9191 15.0766 78.6321 14.9565 78.2733 14.9565C78.0006 14.9565 77.7602 15.0201 77.5522 15.1472C77.3441 15.2745 77.1862 15.4405 77.0786 15.6453L76.0991 15.4864C76.2427 15.0484 76.519 14.7022 76.928 14.4479C77.337 14.1936 77.8033 14.0664 78.3271 14.0664ZM77.972 18.8774C78.424 18.8774 78.79 18.7326 79.0698 18.4429C79.3568 18.1461 79.5003 17.74 79.5003 17.2242V17.1606H78.2733C77.3405 17.1606 76.8741 17.4362 76.8741 17.9873C76.8741 18.2557 76.9746 18.4712 77.1755 18.6336C77.3763 18.7961 77.6418 18.8774 77.972 18.8774Z" fill="white"/>
<path d="M83.3966 19.6509H81.8359V14.1723H82.8584V18.4853H83.0199L85.2694 14.1723H86.8301V19.6509H85.8076V15.3485H85.6461L83.3966 19.6509ZM84.3438 13.4624C83.8773 13.4624 83.4863 13.3423 83.1706 13.1021C82.8621 12.8548 82.6791 12.4875 82.6217 12H83.4827C83.5186 12.2261 83.6083 12.3991 83.7518 12.5192C83.9024 12.6323 84.0998 12.6888 84.3438 12.6888C84.5877 12.6888 84.7814 12.6323 84.9249 12.5192C85.0757 12.3991 85.1653 12.2261 85.1941 12H86.0659C86.0013 12.4875 85.8112 12.8548 85.4954 13.1021C85.1869 13.3423 84.8029 13.4624 84.3438 13.4624Z" fill="white"/>
<path d="M90.6044 19.6504H89.5497V15.1256H87.623V14.1719H92.531V15.1256H90.6044V19.6504Z" fill="white"/>
<path d="M98.5111 16.8746C98.5111 17.0159 98.5076 17.1253 98.5004 17.2031H93.9045C93.9619 17.6905 94.1556 18.0791 94.4858 18.3686C94.8159 18.6583 95.2356 18.8032 95.745 18.8032C96.0966 18.8032 96.4088 18.736 96.6814 18.6019C96.9613 18.4606 97.173 18.2768 97.3165 18.0508L98.3066 18.2098C98.0914 18.7043 97.7434 19.0858 97.2626 19.3542C96.7891 19.6227 96.2616 19.7568 95.6805 19.7568C95.128 19.7568 94.6329 19.6367 94.1951 19.3966C93.7574 19.1494 93.4166 18.8102 93.1726 18.3794C92.9286 17.9484 92.8066 17.4609 92.8066 16.9169C92.8066 16.366 92.9286 15.8749 93.1726 15.4439C93.4166 15.0131 93.7539 14.6775 94.1844 14.4373C94.6149 14.19 95.1064 14.0664 95.6589 14.0664C96.2043 14.0664 96.6923 14.19 97.1228 14.4373C97.5604 14.6775 97.9013 15.0131 98.1453 15.4439C98.3893 15.8679 98.5111 16.3447 98.5111 16.8746ZM95.6589 14.9884C95.2356 14.9884 94.8696 15.1119 94.5611 15.3592C94.2598 15.6065 94.0588 15.9386 93.9584 16.3553H97.3595C97.2663 15.9456 97.0654 15.6171 96.7568 15.3699C96.4554 15.1155 96.0895 14.9884 95.6589 14.9884Z" fill="white"/>
<path d="M103.252 19.6504H101.691V14.1719H102.714V18.4848H102.875L105.125 14.1719H106.685V19.6504H105.663V15.3481H105.502L103.252 19.6504Z" fill="white"/>
<path d="M111.063 16.8533C111.357 16.9381 111.601 17.0935 111.794 17.3196C111.988 17.5387 112.085 17.8107 112.085 18.1356C112.085 18.4393 111.995 18.7148 111.816 18.9621C111.637 19.2023 111.378 19.3966 111.041 19.5449C110.711 19.6862 110.327 19.7568 109.889 19.7568C109.301 19.7568 108.795 19.6227 108.372 19.3542C107.948 19.0787 107.669 18.7114 107.532 18.2521L108.512 18.0932C108.748 18.6019 109.204 18.8561 109.879 18.8561C110.252 18.8561 110.535 18.789 110.729 18.6548C110.93 18.5135 111.03 18.3193 111.03 18.0719C111.03 17.853 110.937 17.6764 110.75 17.5421C110.571 17.408 110.28 17.3408 109.879 17.3408H109.147V16.4295H109.879C110.223 16.4295 110.485 16.366 110.664 16.2387C110.851 16.1116 110.944 15.942 110.944 15.7301C110.944 15.504 110.844 15.3204 110.643 15.1791C110.449 15.0378 110.209 14.9672 109.922 14.9672C109.642 14.9672 109.391 15.0343 109.168 15.1685C108.946 15.3027 108.777 15.4864 108.662 15.7195L107.683 15.5499C107.848 15.0766 108.131 14.7128 108.533 14.4585C108.942 14.1971 109.416 14.0664 109.954 14.0664C110.341 14.0664 110.689 14.1335 110.998 14.2677C111.314 14.402 111.558 14.5892 111.73 14.8293C111.909 15.0696 111.999 15.338 111.999 15.6347C111.999 15.9386 111.913 16.1964 111.741 16.4083C111.568 16.6202 111.342 16.7686 111.063 16.8533Z" fill="white"/>
<path d="M59.8413 41.2309C58.1473 41.2309 56.7193 40.9229 55.5573 40.3069C54.4093 39.6769 53.5413 38.7949 52.9533 37.6609C52.3653 36.5129 52.0713 35.1759 52.0713 33.6499C52.0713 32.0819 52.3863 30.7239 53.0163 29.5759C53.6603 28.4279 54.5843 27.5389 55.7883 26.9089C56.9923 26.2789 58.4343 25.9639 60.1143 25.9639C61.1923 25.9639 62.1373 26.1039 62.9493 26.3839C63.7753 26.6499 64.4963 27.0349 65.1123 27.5389L64.0623 30.0799C63.6143 29.7579 63.1943 29.5059 62.8023 29.3239C62.4103 29.1279 62.0043 28.9949 61.5843 28.9249C61.1643 28.8409 60.6813 28.7989 60.1353 28.7989C58.5953 28.7989 57.4333 29.2189 56.6493 30.0589C55.8793 30.8849 55.4943 32.0889 55.4943 33.6709C55.4943 35.2389 55.8583 36.4289 56.5863 37.2409C57.3143 38.0529 58.4553 38.4589 60.0093 38.4589C60.5273 38.4589 61.0593 38.4099 61.6053 38.3119C62.1513 38.2139 62.6903 38.0669 63.2223 37.8709L62.6343 39.1309V35.1409H59.3793V32.8099H65.3433V40.0759C64.6013 40.4399 63.7403 40.7269 62.7603 40.9369C61.7943 41.1329 60.8213 41.2309 59.8413 41.2309Z" fill="white"/>
<path d="M73.3048 41.2309C71.4568 41.2309 70.0147 40.7339 68.9788 39.7399C67.9427 38.7459 67.4248 37.3949 67.4248 35.6869C67.4248 34.5809 67.6418 33.6149 68.0758 32.7889C68.5238 31.9629 69.1397 31.3189 69.9237 30.8569C70.7218 30.3809 71.6528 30.1429 72.7167 30.1429C73.7668 30.1429 74.6418 30.3669 75.3418 30.8149C76.0558 31.2629 76.5877 31.8929 76.9377 32.7049C77.3018 33.5029 77.4838 34.4339 77.4838 35.4979V36.2329H70.0287V34.6579H75.1737L74.8168 34.9519C74.8168 34.0699 74.6348 33.4049 74.2708 32.9569C73.9207 32.4949 73.4098 32.2639 72.7378 32.2639C71.9958 32.2639 71.4218 32.5369 71.0158 33.0829C70.6238 33.6289 70.4277 34.4129 70.4277 35.4349V35.7709C70.4277 36.8069 70.6798 37.5769 71.1838 38.0809C71.7017 38.5849 72.4438 38.8369 73.4097 38.8369C73.9837 38.8369 74.5228 38.7669 75.0268 38.6269C75.5448 38.4729 76.0347 38.2349 76.4967 37.9129L77.3787 40.0129C76.8468 40.4049 76.2308 40.7059 75.5308 40.9159C74.8447 41.1259 74.1028 41.2309 73.3048 41.2309Z" fill="white"/>
<path d="M84.4111 41.2309C83.0251 41.2309 81.9821 40.8879 81.2821 40.2019C80.5821 39.5019 80.2321 38.4589 80.2321 37.0729V32.7259H78.2161V30.3529H80.2321V27.7489L83.4031 26.9719V30.3529H86.1331V32.7259H83.4031V36.9049C83.4031 37.5769 83.5431 38.0389 83.8231 38.2909C84.1031 38.5429 84.4601 38.6689 84.8941 38.6689C85.1601 38.6689 85.3771 38.6549 85.5451 38.6269C85.7271 38.5849 85.9161 38.5289 86.1121 38.4589V40.9159C85.8461 41.0279 85.5661 41.1049 85.2721 41.1469C84.9781 41.2029 84.6911 41.2309 84.4111 41.2309Z" fill="white"/>
<path d="M86.2273 40.9999L93.0313 26.1949H95.7403L102.628 40.9999H99.3103L97.5253 36.8839L98.8063 37.7869H90.0073L91.3093 36.8839L89.5243 40.9999H86.2273ZM94.3753 29.6389L91.6663 36.0649L91.0993 35.2669H97.7143L97.2313 36.0649L94.4593 29.6389H94.3753Z" fill="white"/>
<path d="M103.695 45.5359V33.1249C103.695 32.6769 103.681 32.2219 103.653 31.7599C103.625 31.2839 103.583 30.8149 103.527 30.3529H106.572L106.824 32.4319H106.593C106.803 31.7319 107.244 31.1789 107.916 30.7729C108.588 30.3529 109.358 30.1429 110.226 30.1429C111.15 30.1429 111.962 30.3669 112.662 30.8149C113.362 31.2489 113.908 31.8789 114.3 32.7049C114.706 33.5309 114.909 34.5179 114.909 35.6659C114.909 36.8279 114.706 37.8219 114.3 38.6479C113.908 39.4739 113.362 40.1109 112.662 40.5589C111.962 41.0069 111.15 41.2309 110.226 41.2309C109.372 41.2309 108.609 41.0279 107.937 40.6219C107.279 40.2159 106.838 39.6769 106.614 39.0049H106.866V45.5359H103.695ZM109.26 38.8369C110.002 38.8369 110.597 38.5779 111.045 38.0599C111.493 37.5419 111.717 36.7439 111.717 35.6659C111.717 34.5879 111.493 33.7969 111.045 33.2929C110.597 32.7889 110.002 32.5369 109.26 32.5369C108.532 32.5369 107.937 32.7889 107.475 33.2929C107.027 33.7969 106.803 34.5879 106.803 35.6659C106.803 36.7439 107.027 37.5419 107.475 38.0599C107.937 38.5779 108.532 38.8369 109.26 38.8369Z" fill="white"/>
<path d="M116.963 45.5359V33.1249C116.963 32.6769 116.949 32.2219 116.921 31.7599C116.893 31.2839 116.851 30.8149 116.795 30.3529H119.84L120.092 32.4319H119.861C120.071 31.7319 120.512 31.1789 121.184 30.7729C121.856 30.3529 122.626 30.1429 123.494 30.1429C124.418 30.1429 125.23 30.3669 125.93 30.8149C126.63 31.2489 127.176 31.8789 127.568 32.7049C127.974 33.5309 128.177 34.5179 128.177 35.6659C128.177 36.8279 127.974 37.8219 127.568 38.6479C127.176 39.4739 126.63 40.1109 125.93 40.5589C125.23 41.0069 124.418 41.2309 123.494 41.2309C122.64 41.2309 121.877 41.0279 121.205 40.6219C120.547 40.2159 120.106 39.6769 119.882 39.0049H120.134V45.5359H116.963ZM122.528 38.8369C123.27 38.8369 123.865 38.5779 124.313 38.0599C124.761 37.5419 124.985 36.7439 124.985 35.6659C124.985 34.5879 124.761 33.7969 124.313 33.2929C123.865 32.7889 123.27 32.5369 122.528 32.5369C121.8 32.5369 121.205 32.7889 120.743 33.2929C120.295 33.7969 120.071 34.5879 120.071 35.6659C120.071 36.7439 120.295 37.5419 120.743 38.0599C121.205 38.5779 121.8 38.8369 122.528 38.8369Z" fill="white"/>
<path d="M134.159 41.2309C133.207 41.2309 132.339 41.1259 131.555 40.9159C130.771 40.7059 130.106 40.4119 129.56 40.0339L130.379 37.9339C130.925 38.2699 131.527 38.5359 132.185 38.7319C132.857 38.9279 133.522 39.0259 134.18 39.0259C134.796 39.0259 135.251 38.9279 135.545 38.7319C135.839 38.5359 135.986 38.2699 135.986 37.9339C135.986 37.6539 135.888 37.4369 135.692 37.2829C135.51 37.1289 135.223 37.0169 134.831 36.9469L132.668 36.5479C131.758 36.3659 131.065 36.0299 130.589 35.5399C130.113 35.0499 129.875 34.4129 129.875 33.6289C129.875 32.9429 130.057 32.3409 130.421 31.8229C130.799 31.2909 131.338 30.8779 132.038 30.5839C132.738 30.2899 133.557 30.1429 134.495 30.1429C135.293 30.1429 136.049 30.2409 136.763 30.4369C137.477 30.6329 138.086 30.9339 138.59 31.3399L137.729 33.3769C137.295 33.0549 136.791 32.7959 136.217 32.5999C135.657 32.4039 135.118 32.3059 134.6 32.3059C133.928 32.3059 133.445 32.4179 133.151 32.6419C132.857 32.8519 132.71 33.1249 132.71 33.4609C132.71 33.7129 132.794 33.9229 132.962 34.0909C133.144 34.2589 133.417 34.3849 133.781 34.4689L135.965 34.8679C136.903 35.0359 137.617 35.3509 138.107 35.8129C138.597 36.2749 138.842 36.9119 138.842 37.7239C138.842 38.4659 138.646 39.0959 138.254 39.6139C137.862 40.1319 137.309 40.5309 136.595 40.8109C135.895 41.0909 135.083 41.2309 134.159 41.2309Z" fill="white"/>
<g clip-path="url(#clip0_386_2134)">
<path d="M21.2025 12H32.7975C35.9974 12 37.1578 12.3332 38.3276 12.9588C39.4974 13.5845 40.4155 14.5026 41.0412 15.6724C41.6668 16.8422 42 18.0026 42 21.2025V32.7975C42 35.9974 41.6668 37.1578 41.0412 38.3276C40.4155 39.4974 39.4974 40.4155 38.3276 41.0412C37.1578 41.6668 35.9974 42 32.7975 42H21.2025C18.0026 42 16.8422 41.6668 15.6724 41.0412C14.5026 40.4155 13.5845 39.4974 12.9588 38.3276C12.3332 37.1578 12 35.9974 12 32.7975V21.2025C12 18.0026 12.3332 16.8422 12.9588 15.6724C13.5845 14.5026 14.5026 13.5845 15.6724 12.9588C16.8422 12.3332 18.0026 12 21.2025 12Z" fill="white"/>
<mask id="mask0_386_2134" style="mask-type:luminance" maskUnits="userSpaceOnUse" x="12" y="12" width="30" height="30">
<path d="M21.2025 12H32.7975C35.9974 12 37.1578 12.3332 38.3276 12.9588C39.4974 13.5845 40.4155 14.5026 41.0412 15.6724C41.6668 16.8422 42 18.0026 42 21.2025V32.7975C42 35.9974 41.6668 37.1578 41.0412 38.3276C40.4155 39.4974 39.4974 40.4155 38.3276 41.0412C37.1578 41.6668 35.9974 42 32.7975 42H21.2025C18.0026 42 16.8422 41.6668 15.6724 41.0412C14.5026 40.4155 13.5845 39.4974 12.9588 38.3276C12.3332 37.1578 12 35.9974 12 32.7975V21.2025C12 18.0026 12.3332 16.8422 12.9588 15.6724C13.5845 14.5026 14.5026 13.5845 15.6724 12.9588C16.8422 12.3332 18.0026 12 21.2025 12Z" fill="white"/>
</mask>
<g mask="url(#mask0_386_2134)">
<path fill-rule="evenodd" clip-rule="evenodd" d="M33.4777 46.0389H10.9314C9.29151 46.0389 7.96191 44.7075 7.96191 43.0651V37.0226L16.2408 28.6895L33.4777 46.0389Z" fill="#00E691"/>
</g>
<mask id="mask1_386_2134" style="mask-type:luminance" maskUnits="userSpaceOnUse" x="12" y="12" width="30" height="30">
<path d="M21.2025 12H32.7975C35.9974 12 37.1578 12.3332 38.3276 12.9588C39.4974 13.5845 40.4155 14.5026 41.0412 15.6724C41.6668 16.8422 42 18.0026 42 21.2025V32.7975C42 35.9974 41.6668 37.1578 41.0412 38.3276C40.4155 39.4974 39.4974 40.4155 38.3276 41.0412C37.1578 41.6668 35.9974 42 32.7975 42H21.2025C18.0026 42 16.8422 41.6668 15.6724 41.0412C14.5026 40.4155 13.5845 39.4974 12.9588 38.3276C12.3332 37.1578 12 35.9974 12 32.7975V21.2025C12 18.0026 12.3332 16.8422 12.9588 15.6724C13.5845 14.5026 14.5026 13.5845 15.6724 12.9588C16.8422 12.3332 18.0026 12 21.2025 12Z" fill="white"/>
</mask>
<g mask="url(#mask1_386_2134)">
<path fill-rule="evenodd" clip-rule="evenodd" d="M38.602 25.6065L21.0801 7.96191H43.0683C44.7087 7.96191 46.0383 9.29426 46.0383 10.9379V18.1178L38.602 25.6065Z" fill="#00CCFF"/>
</g>
<mask id="mask2_386_2134" style="mask-type:luminance" maskUnits="userSpaceOnUse" x="12" y="12" width="30" height="30">
<path d="M21.2025 12H32.7975C35.9974 12 37.1578 12.3332 38.3276 12.9588C39.4974 13.5845 40.4155 14.5026 41.0412 15.6724C41.6668 16.8422 42 18.0026 42 21.2025V32.7975C42 35.9974 41.6668 37.1578 41.0412 38.3276C40.4155 39.4974 39.4974 40.4155 38.3276 41.0412C37.1578 41.6668 35.9974 42 32.7975 42H21.2025C18.0026 42 16.8422 41.6668 15.6724 41.0412C14.5026 40.4155 13.5845 39.4974 12.9588 38.3276C12.3332 37.1578 12 35.9974 12 32.7975V21.2025C12 18.0026 12.3332 16.8422 12.9588 15.6724C13.5845 14.5026 14.5026 13.5845 15.6724 12.9588C16.8422 12.3332 18.0026 12 21.2025 12Z" fill="white"/>
</mask>
<g mask="url(#mask2_386_2134)">
<path fill-rule="evenodd" clip-rule="evenodd" d="M43.0632 46.0058H36.984L29.1484 38.1382L46.0387 21.1787V43.0326C46.0387 43.3615 45.9854 43.6775 45.887 43.9733C45.493 45.1543 44.3773 46.0058 43.0632 46.0058Z" fill="#8F61FF"/>
</g>
<mask id="mask3_386_2134" style="mask-type:luminance" maskUnits="userSpaceOnUse" x="12" y="12" width="30" height="30">
<path d="M21.2025 12H32.7975C35.9974 12 37.1578 12.3332 38.3276 12.9588C39.4974 13.5845 40.4155 14.5026 41.0412 15.6724C41.6668 16.8422 42 18.0026 42 21.2025V32.7975C42 35.9974 41.6668 37.1578 41.0412 38.3276C40.4155 39.4974 39.4974 40.4155 38.3276 41.0412C37.1578 41.6668 35.9974 42 32.7975 42H21.2025C18.0026 42 16.8422 41.6668 15.6724 41.0412C14.5026 40.4155 13.5845 39.4974 12.9588 38.3276C12.3332 37.1578 12 35.9974 12 32.7975V21.2025C12 18.0026 12.3332 16.8422 12.9588 15.6724C13.5845 14.5026 14.5026 13.5845 15.6724 12.9588C16.8422 12.3332 18.0026 12 21.2025 12Z" fill="white"/>
</mask>
<g mask="url(#mask3_386_2134)">
<path fill-rule="evenodd" clip-rule="evenodd" d="M7.96191 33.5105V10.9331C7.96191 10.6303 8.00737 10.338 8.09146 10.0628C8.46376 8.84643 9.59522 7.96191 10.9335 7.96191H17.9596L25.6721 15.7125L7.96191 33.5105Z" fill="#FF5C69"/>
</g>
<mask id="mask4_386_2134" style="mask-type:luminance" maskUnits="userSpaceOnUse" x="12" y="12" width="30" height="30">
<path d="M21.2025 12H32.7975C35.9974 12 37.1578 12.3332 38.3276 12.9588C39.4974 13.5845 40.4155 14.5026 41.0412 15.6724C41.6668 16.8422 42 18.0026 42 21.2025V32.7975C42 35.9974 41.6668 37.1578 41.0412 38.3276C40.4155 39.4974 39.4974 40.4155 38.3276 41.0412C37.1578 41.6668 35.9974 42 32.7975 42H21.2025C18.0026 42 16.8422 41.6668 15.6724 41.0412C14.5026 40.4155 13.5845 39.4974 12.9588 38.3276C12.3332 37.1578 12 35.9974 12 32.7975V21.2025C12 18.0026 12.3332 16.8422 12.9588 15.6724C13.5845 14.5026 14.5026 13.5845 15.6724 12.9588C16.8422 12.3332 18.0026 12 21.2025 12Z" fill="white"/>
</mask>
<g mask="url(#mask4_386_2134)">
<path d="M26.2324 30.4626V21.8076H27.7678V30.4626H26.2324Z" fill="#00E08A"/>
</g>
<path fill-rule="evenodd" clip-rule="evenodd" d="M32.7975 12.1904C35.9435 12.1904 37.087 12.5113 38.2379 13.1267C39.374 13.7344 40.2657 14.6261 40.8733 15.7622C41.4888 16.9131 41.8097 18.0566 41.8097 21.2026V32.7975C41.8097 35.9435 41.4888 37.087 40.8733 38.2379C40.2657 39.374 39.374 40.2657 38.2379 40.8733C37.087 41.4888 35.9435 41.8097 32.7975 41.8097H21.2026C18.0566 41.8097 16.9131 41.4888 15.7622 40.8733C14.6261 40.2657 13.7344 39.374 13.1267 38.2379C12.5113 37.087 12.1904 35.9435 12.1904 32.7975V21.2026C12.1904 18.0566 12.5113 16.9131 13.1267 15.7622C13.7344 14.6261 14.6261 13.7344 15.7622 13.1267C16.9131 12.5113 18.0566 12.1904 21.2026 12.1904H32.7975Z" stroke="black" stroke-opacity="0.08" stroke-width="0.66"/>
<mask id="mask5_386_2134" style="mask-type:luminance" maskUnits="userSpaceOnUse" x="12" y="12" width="30" height="30">
<path d="M21.2025 12H32.7975C35.9974 12 37.1578 12.3332 38.3276 12.9588C39.4974 13.5845 40.4155 14.5026 41.0412 15.6724C41.6668 16.8422 42 18.0026 42 21.2025V32.7975C42 35.9974 41.6668 37.1578 41.0412 38.3276C40.4155 39.4974 39.4974 40.4155 38.3276 41.0412C37.1578 41.6668 35.9974 42 32.7975 42H21.2025C18.0026 42 16.8422 41.6668 15.6724 41.0412C14.5026 40.4155 13.5845 39.4974 12.9588 38.3276C12.3332 37.1578 12 35.9974 12 32.7975V21.2025C12 18.0026 12.3332 16.8422 12.9588 15.6724C13.5845 14.5026 14.5026 13.5845 15.6724 12.9588C16.8422 12.3332 18.0026 12 21.2025 12Z" fill="white"/>
</mask>
<g mask="url(#mask5_386_2134)">
<path d="M22.5107 26.7109L27.0005 31.2007L31.4902 26.7109" stroke="#0FCFFF" stroke-width="2.66"/>
</g>
</g>
<defs>
<clipPath id="clip0_386_2134">
<rect width="30" height="30" fill="white" transform="translate(12 12)"/>
</clipPath>
</defs>
</svg>
