<svg width="42" height="30" viewBox="0 0 42 30" fill="none" xmlns="http://www.w3.org/2000/svg">
<path d="M17.1473 12.8533C17.8506 12.8533 18.538 12.6447 19.1227 12.254C19.7074 11.8634 20.1631 11.3081 20.4322 10.6584C20.7013 10.0087 20.7717 9.29378 20.6346 8.60408C20.4974 7.91437 20.1587 7.28083 19.6615 6.78358C19.1642 6.28633 18.5307 5.9477 17.841 5.81051C17.1513 5.67332 16.4364 5.74373 15.7867 6.01284C15.137 6.28195 14.5817 6.73767 14.191 7.32238C13.8003 7.90708 13.5918 8.59451 13.5918 9.29773C13.5929 10.2404 13.9678 11.1441 14.6344 11.8107C15.3009 12.4773 16.2047 12.8522 17.1473 12.8533ZM17.1473 7.05954C17.59 7.05954 18.0227 7.19081 18.3908 7.43674C18.7589 7.68268 19.0457 8.03224 19.2151 8.44121C19.3845 8.85018 19.4289 9.30021 19.3425 9.73437C19.2562 10.1685 19.043 10.5673 18.73 10.8804C18.417 11.1934 18.0181 11.4065 17.584 11.4929C17.1498 11.5793 16.6998 11.5349 16.2908 11.3655C15.8818 11.1961 15.5323 10.9093 15.2864 10.5412C15.0404 10.1731 14.9092 9.7404 14.9092 9.29773C14.9098 8.70433 15.1459 8.13543 15.5654 7.71584C15.985 7.29624 16.5539 7.06022 17.1473 7.05954Z" fill="white"/>
<path d="M36.8036 21.7367H33.9219V18.855C33.9219 18.6803 33.8525 18.5127 33.729 18.3892C33.6054 18.2657 33.4379 18.1963 33.2632 18.1963C33.0885 18.1963 32.921 18.2657 32.7975 18.3892C32.6739 18.5127 32.6045 18.6803 32.6045 18.855V21.7367H29.8052C29.6305 21.7367 29.4629 21.8061 29.3394 21.9296C29.2159 22.0531 29.1465 22.2207 29.1465 22.3954C29.1465 22.57 29.2159 22.7376 29.3394 22.8611C29.4629 22.9846 29.6305 23.054 29.8052 23.054H32.6045V25.8534C32.6045 26.0281 32.6739 26.1956 32.7975 26.3192C32.921 26.4427 33.0885 26.5121 33.2632 26.5121C33.4379 26.5121 33.6054 26.4427 33.729 26.3192C33.8525 26.1956 33.9219 26.0281 33.9219 25.8534V23.054H36.8036C36.9783 23.054 37.1458 22.9846 37.2694 22.8611C37.3929 22.7376 37.4623 22.57 37.4623 22.3954C37.4623 22.2207 37.3929 22.0531 37.2694 21.9296C37.1458 21.8061 36.9783 21.7367 36.8036 21.7367Z" fill="white"/>
<path d="M38.2856 16.3952V3.92935C38.2856 1.75012 36.4914 1.82178e-05 34.3122 1.82178e-05H3.93174C3.41517 -0.00155662 2.90339 0.0989863 2.42582 0.295867C1.94825 0.492747 1.5143 0.782082 1.14892 1.14724C0.783543 1.51239 0.493945 1.94617 0.296775 2.42362C0.0996044 2.90107 -0.00124936 3.41279 1.1681e-05 3.92935V23.7806C1.1681e-05 25.9601 1.75259 27.7468 3.93174 27.7468H27.8817C28.9597 28.8231 30.3324 29.5559 31.8266 29.8525C33.3208 30.1491 34.8693 29.9962 36.2766 29.4132C37.684 28.8302 38.887 27.8431 39.7336 26.5768C40.5803 25.3104 41.0327 23.8215 41.0336 22.2982C41.0336 19.9319 39.9323 17.8084 38.2856 16.3952ZM3.93174 1.31737H34.3122C35.765 1.31737 36.9682 2.47656 36.9682 3.92935V15.5036C35.851 14.9056 34.6029 14.594 33.3357 14.5966C33.048 14.5967 32.7605 14.6127 32.4745 14.6445L26.9564 10.7374C26.83 10.648 26.6764 10.6058 26.5222 10.6182C26.3679 10.6306 26.223 10.6967 26.1125 10.805L18.6757 18.1136L10.0325 13.9014C9.9371 13.8541 9.83141 13.8313 9.72501 13.8352C9.61861 13.8391 9.51487 13.8695 9.42321 13.9237L1.31736 18.631V3.92935C1.31591 3.58574 1.38256 3.24524 1.51346 2.92752C1.64436 2.60981 1.83692 2.32119 2.08001 2.07832C2.32309 1.83546 2.6119 1.64316 2.92973 1.51255C3.24756 1.38194 3.58812 1.31561 3.93174 1.31737ZM1.31736 23.7806V20.154L9.78062 15.2393L17.6833 19.1003L10.2285 26.4294H3.93174C3.23387 26.4246 2.56646 26.1429 2.07622 25.6462C1.58598 25.1495 1.31303 24.4785 1.31736 23.7806ZM12.1079 26.4294L26.6417 12.1378L30.7492 15.0442C29.2515 15.5791 27.9557 16.5635 27.0388 17.863C26.122 19.1624 25.6289 20.7133 25.6271 22.3036C25.6271 23.8186 26.0671 25.1946 26.8257 26.4296L12.1079 26.4294ZM33.325 28.6752C32.063 28.6752 30.8293 28.3009 29.7799 27.5998C28.7306 26.8986 27.9127 25.902 27.4298 24.736C26.9468 23.57 26.8205 22.287 27.0667 21.0492C27.313 19.8114 27.9207 18.6745 28.8132 17.7821C29.7056 16.8897 30.8426 16.282 32.0804 16.0359C33.3182 15.7897 34.6012 15.9161 35.7672 16.3992C36.9331 16.8822 37.9297 17.7001 38.6308 18.7495C39.3319 19.7989 39.706 21.0326 39.7059 22.2947C39.704 23.9864 39.0311 25.6082 37.8349 26.8044C36.6386 28.0006 35.0167 28.6734 33.325 28.6752Z" fill="white"/>
</svg>
