<svg width="234" height="154" viewBox="0 0 234 154" fill="none" xmlns="http://www.w3.org/2000/svg">
<g clip-path="url(#clip0_382_526)">
<g clip-path="url(#clip1_382_526)">
<g clip-path="url(#clip2_382_526)">
<path d="M25.496 129.222L9.23691 150.505C7.72443 152.502 5.99589 153.5 4.05128 153.5C1.35043 153.5 0 151.735 0 148.206V119.81C0 115.603 1.49447 113.5 4.48341 113.5C7.47235 113.5 8.96682 115.603 8.96682 119.81V138.099L25.55 116.388C27.0265 114.463 28.611 113.5 30.3035 113.5C33.0764 113.5 34.4628 115.496 34.4628 119.489V147.19C34.4628 151.397 32.9684 153.5 29.9794 153.5C26.9905 153.5 25.496 151.397 25.496 147.19V129.222Z" fill="#323F4B"/>
<path d="M60.4777 122.27C57.2366 122.27 55.22 122.181 54.4278 122.003C52.015 121.504 50.8086 120.22 50.8086 118.152C50.8086 115.372 52.9333 113.981 57.1826 113.981H72.7935C77.0429 113.981 79.1675 115.372 79.1675 118.152C79.1675 120.22 77.9612 121.504 75.5484 122.003C74.7562 122.181 72.7395 122.27 69.4985 122.27V147.19C69.4985 151.397 68.004 153.5 65.0151 153.5C61.9901 153.5 60.4777 151.397 60.4777 147.19V122.27Z" fill="#323F4B"/>
<path d="M101.635 153.019C99.3665 153.019 97.782 152.644 96.8818 151.896C95.9815 151.111 95.5312 149.614 95.5312 147.404V120.238C95.5312 117.921 95.9815 116.299 96.8818 115.372C97.782 114.445 99.4026 113.981 101.743 113.981H109.089C112.654 113.981 115.679 114.712 118.164 116.174C121.189 117.921 122.702 120.434 122.702 123.714C122.702 127.956 121.153 130.826 118.056 132.324V132.484C120.361 133.197 122.017 134.249 123.026 135.639C124.034 136.994 124.538 138.865 124.538 141.254C124.538 145.211 123.152 148.224 120.379 150.291C117.93 152.11 114.635 153.019 110.494 153.019H101.635ZM104.498 136.174V145.372H108.981C110.89 145.372 112.312 145.122 113.249 144.623C114.473 143.946 115.085 142.734 115.085 140.987C115.085 138.955 114.491 137.6 113.303 136.922C112.438 136.423 110.944 136.174 108.819 136.174H104.498ZM104.498 121.575V129.222H108.387C110.152 129.222 111.394 129.008 112.114 128.58C113.123 128.01 113.627 126.94 113.627 125.372C113.627 122.84 111.88 121.575 108.387 121.575H104.498Z" fill="#323F4B"/>
<path d="M168.662 129.222L152.403 150.505C150.891 152.502 149.162 153.5 147.217 153.5C144.517 153.5 143.166 151.735 143.166 148.206V119.81C143.166 115.603 144.661 113.5 147.65 113.5C150.639 113.5 152.133 115.603 152.133 119.81V138.099L168.716 116.388C170.193 114.463 171.777 113.5 173.47 113.5C176.243 113.5 177.629 115.496 177.629 119.489V147.19C177.629 151.397 176.135 153.5 173.146 153.5C170.157 153.5 168.662 151.397 168.662 147.19V129.222Z" fill="#323F4B"/>
<path d="M196.242 133.553C196.242 127.707 197.899 122.947 201.212 119.275C204.633 115.425 209.26 113.5 215.094 113.5C220.964 113.5 225.609 115.407 229.03 119.222C232.343 122.894 234 127.671 234 133.553C234 139.4 232.343 144.16 229.03 147.832C225.573 151.611 220.928 153.5 215.094 153.5C209.26 153.5 204.633 151.593 201.212 147.778C197.899 144.142 196.242 139.4 196.242 133.553ZM205.749 133.66C205.749 136.869 206.487 139.525 207.964 141.628C209.62 144.088 211.997 145.318 215.094 145.318C218.191 145.318 220.586 144.106 222.278 141.682C223.755 139.543 224.493 136.869 224.493 133.66C224.493 130.345 223.791 127.618 222.386 125.479C220.694 122.947 218.263 121.682 215.094 121.682C211.925 121.682 209.512 122.947 207.856 125.479C206.451 127.618 205.749 130.345 205.749 133.66Z" fill="#323F4B"/>
<path fill-rule="evenodd" clip-rule="evenodd" d="M117.015 0.5C142.967 0.5 164 11.9817 164 38.1492C164 64.2871 142.967 85.5 117.015 85.5C91.0329 85.5 70 64.2871 70 38.1492C70 11.9817 91.0329 0.5 117.015 0.5Z" fill="#43A6F2"/>
<path fill-rule="evenodd" clip-rule="evenodd" d="M116.857 55.7072C110.64 55.7072 104.542 54.4969 98.8527 52.1608C93.1642 49.7965 88.0329 46.3346 83.7812 42.0001C81.8166 40.0299 81.9339 36.8776 83.9865 35.0199C86.0683 33.1342 89.3231 33.2468 91.2876 35.217C94.5717 38.5663 98.5301 41.2402 102.929 43.0415C107.327 44.871 112.048 45.7998 116.857 45.7998C121.636 45.7998 126.357 44.871 130.755 43.0415C135.154 41.2402 139.112 38.5663 142.396 35.217C144.361 33.2468 147.615 33.1342 149.697 35.0199C151.75 36.8776 151.867 40.0299 149.903 42.0001C145.651 46.3346 140.52 49.7965 134.831 52.1608C129.143 54.4969 123.044 55.7072 116.857 55.7072Z" fill="white"/>
</g>
</g>
</g>
<defs>
<clipPath id="clip0_382_526">
<rect width="234" height="153" fill="white" transform="translate(0 0.5)"/>
</clipPath>
<clipPath id="clip1_382_526">
<rect width="234" height="153" fill="white" transform="translate(0 0.5)"/>
</clipPath>
<clipPath id="clip2_382_526">
<rect width="234" height="153" fill="white" transform="translate(0 0.5)"/>
</clipPath>
</defs>
</svg>
