<svg width="104" height="104" viewBox="0 0 104 104" fill="none" xmlns="http://www.w3.org/2000/svg">
<path fill-rule="evenodd" clip-rule="evenodd" d="M51.8126 0C74.3647 0 92.6419 10.0874 92.6419 33.0774C92.6419 56.0413 74.3647 74.6783 51.8126 74.6783C29.2348 74.6783 10.9576 56.0413 10.9576 33.0774C10.9576 10.0874 29.2348 0 51.8126 0Z" fill="#43A6F2"/>
<path fill-rule="evenodd" clip-rule="evenodd" d="M51.6761 48.5033C46.2743 48.5033 40.9745 47.44 36.0313 45.3875C31.0882 43.3104 26.6291 40.2688 22.9345 36.4607C21.2273 34.7297 21.3292 31.9602 23.1129 30.3281C24.9219 28.6713 27.7502 28.7703 29.4574 30.5012C32.3112 33.4439 35.751 35.793 39.5731 37.3756C43.3951 38.983 47.4974 39.799 51.6761 39.799C55.8294 39.799 59.9317 38.983 63.7538 37.3756C67.5758 35.793 71.0156 33.4439 73.8694 30.5012C75.5766 28.7703 78.4049 28.6713 80.214 30.3281C81.9976 31.9602 82.0995 34.7297 80.3923 36.4607C76.6977 40.2688 72.2387 43.3104 67.2955 45.3875C62.3524 47.44 57.0525 48.5033 51.6761 48.5033Z" fill="white"/>
<path d="M1.83212 103.737C0.82027 103.737 0 102.917 0 101.906V88.6103C0 87.66 0.770673 86.8897 1.72135 86.8897C2.67202 86.8897 3.44269 87.66 3.44269 88.6103V98.5993H2.845L11.4182 87.6071C11.7713 87.1544 12.3134 86.8897 12.8877 86.8897C13.9168 86.8897 14.751 87.7236 14.751 88.7522V102.005C14.751 102.961 13.975 103.737 13.0177 103.737C12.0604 103.737 11.2844 102.961 11.2844 102.005V92.0276H11.8821L3.27561 103.034C2.92839 103.478 2.39596 103.737 1.83212 103.737Z" fill="#323F4B"/>
<path d="M28.9066 103.737C27.8767 103.737 27.0418 102.903 27.0418 101.873V89.9246H23.2047C22.3662 89.9246 21.6865 89.2452 21.6865 88.4072C21.6865 87.5691 22.3662 86.8897 23.2047 86.8897H34.6086C35.447 86.8897 36.1267 87.5691 36.1267 88.4072C36.1267 89.2452 35.447 89.9246 34.6086 89.9246H30.7714V101.873C30.7714 102.903 29.9365 103.737 28.9066 103.737Z" fill="#323F4B"/>
<path d="M45.1302 103.737C44.0299 103.737 43.1379 102.846 43.1379 101.746V88.8811C43.1379 87.7813 44.0299 86.8897 45.1302 86.8897H50.9079C52.7568 86.8897 54.1832 87.28 55.1874 88.0607C56.1915 88.8413 56.6935 89.9087 56.6935 91.2629C56.6935 92.2665 56.3907 93.1189 55.7851 93.8199C55.1953 94.5208 54.3825 94.9908 53.3465 95.2298V94.8474C54.5578 95.0545 55.4902 95.5165 56.1437 96.2335C56.8131 96.9344 57.1478 97.8505 57.1478 98.9816C57.1478 100.479 56.6139 101.65 55.546 102.494C54.494 103.323 53.0357 103.737 51.1709 103.737H45.1302ZM46.7002 100.965H50.7166C51.6411 100.965 52.3503 100.79 52.8444 100.439C53.3385 100.089 53.5856 99.5313 53.5856 98.7665C53.5856 97.9859 53.3385 97.4283 52.8444 97.0938C52.3503 96.7433 51.6411 96.568 50.7166 96.568H46.7002V100.965ZM46.7002 93.8199H50.2385C51.2107 93.8199 51.928 93.6446 52.3902 93.2941C52.8524 92.9436 53.0835 92.4179 53.0835 91.7169C53.0835 91.0319 52.8524 90.5141 52.3902 90.1636C51.928 89.8131 51.2107 89.6379 50.2385 89.6379H46.7002V93.8199Z" fill="#323F4B"/>
<path d="M66.5974 103.737C65.5855 103.737 64.7653 102.917 64.7653 101.906V88.6103C64.7653 87.66 65.5359 86.8897 66.4866 86.8897C67.4373 86.8897 68.208 87.66 68.208 88.6103V98.5993H67.6103L76.1835 87.6071C76.5366 87.1544 77.0787 86.8897 77.653 86.8897C78.682 86.8897 79.5163 87.7236 79.5163 88.7522V102.005C79.5163 102.961 78.7402 103.737 77.783 103.737C76.8257 103.737 76.0497 102.961 76.0497 102.005V92.0276H76.6474L68.0409 103.034C67.6937 103.478 67.1612 103.737 66.5974 103.737Z" fill="#323F4B"/>
<path d="M87.4081 95.3015C87.4081 93.549 87.7349 92.0276 88.3883 90.7371C89.0578 89.4308 90.0141 88.4191 91.2573 87.7022C92.5005 86.9853 93.9748 86.6268 95.6802 86.6268C97.3856 86.6268 98.8599 86.9853 100.103 87.7022C101.346 88.4191 102.303 89.4308 102.972 90.7371C103.657 92.0276 104 93.5411 104 95.2776C104 97.046 103.657 98.5833 102.972 99.8897C102.303 101.18 101.346 102.192 100.103 102.925C98.8599 103.642 97.3856 104 95.6802 104C93.9748 104 92.5005 103.642 91.2573 102.925C90.03 102.192 89.0817 101.172 88.4122 99.8658C87.7428 98.5594 87.4081 97.038 87.4081 95.3015ZM91.3051 95.3015C91.3051 97.038 91.6637 98.4001 92.3809 99.3879C93.1141 100.36 94.2138 100.846 95.6802 100.846C97.1146 100.846 98.2064 100.36 98.9555 99.3879C99.7046 98.4001 100.079 97.038 100.079 95.3015C100.079 93.549 99.7046 92.1949 98.9555 91.239C98.2223 90.2672 97.1306 89.7812 95.6802 89.7812C94.2138 89.7812 93.1141 90.2672 92.3809 91.239C91.6637 92.1949 91.3051 93.549 91.3051 95.3015Z" fill="#323F4B"/>
</svg>
