<svg width="44" height="40" viewBox="0 0 44 40" fill="none" xmlns="http://www.w3.org/2000/svg">
<path fill-rule="evenodd" clip-rule="evenodd" d="M21.8819 0C33.9607 0 43.75 5.40314 43.75 17.7173C43.75 30.0175 33.9607 40 21.8819 40C9.78925 40 0 30.0175 0 17.7173C0 5.40314 9.78925 0 21.8819 0Z" fill="#43A6F2"/>
<path fill-rule="evenodd" clip-rule="evenodd" d="M21.8083 25.9799C18.9151 25.9799 16.0764 25.4103 13.4289 24.311C10.7813 23.1984 8.39309 21.5692 6.41425 19.5295C5.49989 18.6023 5.55448 17.1189 6.50978 16.2447C7.47873 15.3573 8.99357 15.4103 9.90793 16.3374C11.4364 17.9136 13.2788 19.1719 15.3259 20.0196C17.3729 20.8805 19.5701 21.3176 21.8083 21.3176C24.0327 21.3176 26.2299 20.8805 28.277 20.0196C30.3241 19.1719 32.1665 17.9136 33.6949 16.3374C34.6093 15.4103 36.1241 15.3573 37.0931 16.2447C38.0484 17.1189 38.103 18.6023 37.1886 19.5295C35.2098 21.5692 32.8215 23.1984 30.174 24.311C27.5264 25.4103 24.6878 25.9799 21.8083 25.9799Z" fill="white"/>
</svg>
