<svg width="105" height="25" viewBox="0 0 105 25" fill="none" xmlns="http://www.w3.org/2000/svg">
<g clip-path="url(#clip0_301_1182)">
<path fill-rule="evenodd" clip-rule="evenodd" d="M13.3995 0C20.796 0 26.7905 3.25694 26.7905 10.6797C26.7905 18.0941 20.796 24.1115 13.3995 24.1115C5.99449 24.1115 0 18.0941 0 10.6797C0 3.25694 5.99449 0 13.3995 0Z" fill="#43A6F2"/>
<path fill-rule="evenodd" clip-rule="evenodd" d="M13.3547 15.6603C11.583 15.6603 9.84481 15.317 8.22357 14.6543C6.60233 13.9837 5.13987 13.0016 3.92812 11.7721C3.36821 11.2132 3.40164 10.319 3.98662 9.79207C4.57996 9.25715 5.50758 9.28908 6.06749 9.84796C7.00346 10.7981 8.13164 11.5565 9.38518 12.0675C10.6387 12.5865 11.9842 12.8499 13.3547 12.8499C14.7169 12.8499 16.0623 12.5865 17.3159 12.0675C18.5694 11.5565 19.6976 10.7981 20.6336 9.84796C21.1935 9.28908 22.1211 9.25715 22.7144 9.79207C23.2994 10.319 23.3329 11.2132 22.7729 11.7721C21.5612 13.0016 20.0987 13.9837 18.4775 14.6543C16.8563 15.317 15.118 15.6603 13.3547 15.6603Z" fill="white"/>
<path fill-rule="evenodd" clip-rule="evenodd" d="M36.6303 14.5049C36.6471 14.9625 36.7484 15.4032 36.9509 15.81C37.1534 16.1998 37.4404 16.5388 37.8117 16.7592C38.183 16.9795 38.5711 17.0812 38.9931 17.0812C39.2631 17.0812 39.5331 17.0473 39.8032 16.9795C40.0563 16.9117 40.2926 16.7931 40.512 16.6575C40.7314 16.5049 40.9508 16.3524 41.1534 16.1659C41.4234 15.9286 41.6934 15.6914 41.9635 15.4371C42.1491 15.2676 42.4023 15.2168 42.6554 15.2168C42.9423 15.2168 43.2124 15.2846 43.4318 15.488C43.6681 15.6744 43.7524 15.9625 43.7524 16.2507C43.7524 16.5727 43.6006 16.9117 43.4487 17.1829C43.2293 17.5558 42.9086 17.8778 42.5542 18.149C42.1154 18.488 41.609 18.7253 41.0858 18.9117C40.4445 19.1321 39.7525 19.1999 39.0775 19.1999C37.5585 19.1999 36.0902 18.827 35.01 17.7083C33.9468 16.5897 33.5586 15.1659 33.5586 13.6405C33.5586 12.8778 33.6599 12.132 33.913 11.4201C34.1493 10.7591 34.4868 10.1489 34.9594 9.64045C35.432 9.11502 36.0227 8.74214 36.664 8.4879C37.3729 8.21671 38.1323 8.09807 38.8749 8.09807C39.8369 8.09807 40.7821 8.28451 41.609 8.77604C42.3516 9.21672 42.9423 9.793 43.3305 10.5388C43.7018 11.2167 43.9043 11.9625 43.9043 12.7252C43.9043 13.3015 43.7693 13.9117 43.2293 14.1998C42.7398 14.4541 42.0985 14.5049 41.5584 14.5049H36.6303ZM88.3759 4.91159C89.2029 4.91159 89.8779 5.45397 89.8779 6.13195C89.8779 6.80992 89.2029 7.36924 88.3759 7.36924C87.5489 7.36924 86.8907 6.80992 86.8907 6.13195C86.8907 5.45397 87.5489 4.91159 88.3759 4.91159ZM55.4821 17.81C54.9589 18.2168 54.3851 18.5727 53.7775 18.827C53.1193 19.0982 52.4105 19.1999 51.7016 19.1999C51.0603 19.1999 50.419 19.0812 49.8451 18.7761C49.3219 18.5049 48.9 18.1321 48.5962 17.6236C48.2924 17.149 48.1574 16.6236 48.1574 16.0473C48.1574 15.3015 48.3768 14.6405 48.8831 14.0812C49.4063 13.4879 50.0983 13.1659 50.8578 12.9964C51.2628 12.8947 51.6848 12.81 52.1067 12.7252C52.6636 12.6235 53.2206 12.5049 53.7944 12.3693C54.2501 12.2506 54.7058 12.132 55.1615 11.9964C55.1277 11.5727 55.0433 11.0642 54.7902 10.7422C54.5201 10.3693 53.8282 10.3184 53.4062 10.3184C52.9843 10.3184 52.3936 10.3693 52.0054 10.5727C51.6679 10.7591 51.4147 11.0303 51.2122 11.3523C51.0434 11.6066 50.8746 11.8778 50.689 12.1151C50.5033 12.3184 50.1658 12.3523 49.8958 12.3523C49.5582 12.3523 49.2544 12.2506 49.0013 12.0134C48.7481 11.793 48.63 11.4879 48.63 11.1489C48.63 10.6066 48.8325 10.115 49.1532 9.67435C49.5413 9.14892 50.1489 8.79299 50.7565 8.53875C51.5835 8.19976 52.5286 8.09807 53.4231 8.09807C54.3176 8.09807 55.364 8.18281 56.2079 8.5218C56.8829 8.80994 57.3893 9.25062 57.7099 9.91164C58.0475 10.6574 58.1319 11.5557 58.1319 12.3523C58.1319 12.8778 58.1319 13.4032 58.115 13.9286C58.115 14.4032 58.115 14.8947 58.115 15.3693C58.115 15.8778 58.1994 16.3693 58.3513 16.8609C58.4356 17.132 58.6044 17.6575 58.6044 17.9456C58.6044 18.3016 58.4188 18.6066 58.1487 18.827C57.8787 19.0812 57.5412 19.1999 57.1699 19.1999C56.7986 19.1999 56.4948 19.0304 56.2416 18.7761C55.9547 18.5049 55.7015 18.166 55.4821 17.81ZM63.33 8.35231V6.96246C63.33 6.62347 63.33 6.65737 63.3638 6.31839C63.3976 6.06415 63.4482 5.82686 63.5832 5.62347C63.7013 5.40312 63.8701 5.23363 64.0895 5.09804C64.3258 4.97939 64.5621 4.91159 64.8321 4.91159C65.2203 4.91159 65.5747 5.06414 65.8616 5.33533C66.0642 5.53872 66.1992 5.77601 66.2498 6.06415C66.3342 6.38618 66.3342 6.42008 66.3342 6.75907V8.35231H67.0937C67.4481 8.35231 67.8194 8.43705 68.0726 8.67434C68.3257 8.87773 68.4439 9.16587 68.4439 9.48791C68.4439 9.89469 68.2751 10.2167 67.9207 10.4032C67.5325 10.6066 67.043 10.6405 66.6211 10.6405H66.3342V15.2846C66.3342 15.5897 66.3342 15.9117 66.368 16.1998C66.4017 16.3693 66.4523 16.5219 66.5536 16.6405C66.6717 16.7592 66.8743 16.7931 67.0262 16.7931C67.2118 16.7931 67.4312 16.7422 67.6169 16.7083C67.8194 16.6744 68.0557 16.6236 68.2582 16.6236C68.5451 16.6236 68.7814 16.7422 68.967 16.9287C69.1864 17.149 69.2877 17.4032 69.2877 17.7083C69.2877 18.2507 68.9502 18.6236 68.4776 18.8439C67.87 19.149 67.0768 19.1999 66.4186 19.1999C65.7604 19.1999 65.0009 19.1321 64.4439 18.7592C63.9883 18.4541 63.6845 18.0304 63.5326 17.5049C63.3638 16.8778 63.33 16.149 63.33 15.5049V10.6405H63.1782C62.8237 10.6405 62.4524 10.5727 62.1824 10.3184C61.9461 10.0981 61.828 9.80995 61.828 9.48791C61.828 9.16587 61.963 8.87773 62.1993 8.65739C62.4862 8.4201 62.8744 8.35231 63.2457 8.35231H63.33ZM77.4057 15.3693L79.4984 9.6235C79.6335 9.26757 79.8191 8.79299 80.0723 8.50485C80.2917 8.21671 80.6461 8.11501 81.0005 8.11501C81.3718 8.11501 81.7094 8.25061 81.9794 8.50485C82.2326 8.75909 82.3844 9.06418 82.3844 9.43706C82.3844 9.5896 82.3676 9.74215 82.3169 9.89469C82.2832 10.0472 82.2326 10.1998 82.165 10.3523C82.1144 10.5049 82.0469 10.6574 81.9794 10.81L79.4647 17.0812C79.3803 17.3015 79.279 17.5388 79.1947 17.7592C79.0934 18.0134 78.9584 18.2677 78.8065 18.5049C78.6546 18.7253 78.4521 18.8948 78.2327 19.0134C77.9795 19.166 77.6926 19.1999 77.4057 19.1999C77.0344 19.1999 76.6799 19.1321 76.393 18.9117C76.1736 18.7422 75.988 18.5388 75.853 18.2846C75.6504 17.9117 75.4817 17.471 75.3129 17.0812L72.8151 10.8778C72.7644 10.7083 72.6969 10.5557 72.6463 10.4032C72.5788 10.2506 72.5281 10.0811 72.4775 9.91164C72.4438 9.7591 72.41 9.60655 72.41 9.45401C72.41 9.21672 72.4775 9.01333 72.5957 8.80994C72.7307 8.60654 72.8994 8.43705 73.1188 8.31841C73.3383 8.18281 73.5914 8.11501 73.8446 8.11501C74.2496 8.11501 74.6716 8.21671 74.9078 8.5896C75.1441 8.94553 75.3298 9.47096 75.4648 9.89469L77.4057 15.3693ZM89.8779 9.80995V17.4202C89.8779 17.8948 89.7936 18.3863 89.456 18.7422C89.1691 19.0643 88.7978 19.1999 88.3759 19.1999C87.9371 19.1999 87.5658 19.0473 87.2957 18.7253C86.9751 18.3694 86.8738 17.8778 86.8738 17.4202V9.87774C86.8738 9.42011 86.9751 8.92858 87.2957 8.57265C87.5826 8.26756 87.9539 8.11501 88.3759 8.11501C88.7978 8.11501 89.1691 8.26756 89.456 8.57265C89.7767 8.91163 89.8779 9.35231 89.8779 9.80995ZM105 13.6744C105 14.4371 104.899 15.1829 104.629 15.8947C104.392 16.5727 104.021 17.1659 103.532 17.6744C103.042 18.1829 102.468 18.5558 101.81 18.81C101.101 19.0982 100.342 19.1999 99.5824 19.1999C98.8229 19.1999 98.0634 19.0982 97.3714 18.81C96.7132 18.5388 96.1394 18.166 95.65 17.6575C95.1605 17.149 94.7892 16.5558 94.5529 15.8947C94.2829 15.1829 94.1816 14.4202 94.1816 13.6574C94.1816 12.8947 94.2829 12.132 94.5529 11.4032C94.8061 10.7422 95.1605 10.1489 95.65 9.64045C96.1394 9.13197 96.7132 8.77604 97.3714 8.5218C98.0803 8.23366 98.8229 8.11501 99.5824 8.11501C100.342 8.11501 101.101 8.23366 101.81 8.5218C102.468 8.77604 103.042 9.16587 103.532 9.6574C104.038 10.1659 104.392 10.7761 104.629 11.4371C104.899 12.149 105 12.9117 105 13.6744ZM36.6471 12.6235H40.9677C40.9002 12.0134 40.7314 11.3693 40.3095 10.9286C39.9044 10.4879 39.3812 10.3184 38.7905 10.3184C38.2167 10.3184 37.7273 10.5049 37.3222 10.9455C36.9172 11.3862 36.7315 12.0134 36.6471 12.6235ZM55.1615 13.9964C54.7058 14.149 54.1995 14.2507 53.7269 14.3524C53.2206 14.471 52.7143 14.5727 52.2079 14.7083C51.9379 14.7761 51.7016 14.9286 51.4822 15.0981C51.2459 15.3015 51.1616 15.5558 51.1616 15.8609C51.1616 16.2168 51.2966 16.488 51.5666 16.7422C51.8535 17.0134 52.2248 17.0982 52.613 17.0982C53.0856 17.0982 53.5412 16.9965 53.9463 16.7761C54.3176 16.5897 54.6383 16.3354 54.8408 15.9795C55.1277 15.488 55.1615 14.6574 55.1615 14.0981V13.9964ZM101.979 13.6744C101.979 12.8439 101.844 11.9456 101.321 11.2845C100.882 10.7252 100.291 10.454 99.5824 10.454C99.1267 10.454 98.7047 10.5727 98.3334 10.8269C97.9453 11.0981 97.6752 11.4879 97.5065 11.9117C97.2871 12.471 97.2027 13.0812 97.2027 13.6744C97.2027 14.2507 97.2702 14.8608 97.4896 15.4032C97.6752 15.827 97.9284 16.2168 98.3166 16.488C98.6879 16.7592 99.1267 16.8609 99.5824 16.8609C100.291 16.8609 100.882 16.6066 101.321 16.0473C101.844 15.3693 101.979 14.488 101.979 13.6744Z" fill="#323F4B"/>
</g>
<defs>
<clipPath id="clip0_301_1182">
<rect width="105" height="24.1115" fill="white"/>
</clipPath>
</defs>
</svg>
