<svg width="111" height="24" viewBox="0 0 111 24" fill="none" xmlns="http://www.w3.org/2000/svg">
<path fill-rule="evenodd" clip-rule="evenodd" d="M13.5042 0C20.9586 0 27 3.24188 27 10.6304C27 18.0105 20.9586 24 13.5042 24C6.04137 24 0 18.0105 0 10.6304C0 3.24188 6.04137 0 13.5042 0Z" fill="#43A6F2"/>
<path fill-rule="evenodd" clip-rule="evenodd" d="M13.4589 15.5879C11.6734 15.5879 9.92155 15.2462 8.28764 14.5866C6.65372 13.919 5.17983 12.9415 3.9586 11.7177C3.39431 11.1614 3.428 10.2713 4.01756 9.74681C4.61554 9.21435 5.55041 9.24614 6.1147 9.80244C7.05799 10.7481 8.19499 11.5031 9.45833 12.0117C10.7217 12.5283 12.0776 12.7905 13.4589 12.7905C14.8317 12.7905 16.1877 12.5283 17.451 12.0117C18.7144 11.5031 19.8514 10.7481 20.7947 9.80244C21.359 9.24614 22.2938 9.21435 22.8918 9.74681C23.4814 10.2713 23.5151 11.1614 22.9508 11.7177C21.7295 12.9415 20.2557 13.919 18.6217 14.5866C16.9878 15.2462 15.236 15.5879 13.4589 15.5879Z" fill="white"/>
<path d="M36.3389 18.8033C35.5994 18.8033 35 18.1898 35 17.433V7.48418C35 6.77312 35.5632 6.1967 36.2579 6.1967C36.9526 6.1967 37.5158 6.77312 37.5158 7.48418V14.9587H37.079L43.3441 6.73349C43.6021 6.39475 43.9983 6.1967 44.4179 6.1967C45.1699 6.1967 45.7796 6.82065 45.7796 7.59034V17.5069C45.7796 18.2229 45.2125 18.8033 44.5129 18.8033C43.8134 18.8033 43.2463 18.2229 43.2463 17.5069V10.0413H43.6831L37.3937 18.2769C37.14 18.6091 36.7509 18.8033 36.3389 18.8033Z" fill="#323F4B"/>
<path d="M56.1241 18.8033C55.3715 18.8033 54.7614 18.1788 54.7614 17.4085V8.46767H51.9573C51.3446 8.46767 50.8479 7.9593 50.8479 7.33219C50.8479 6.70508 51.3446 6.1967 51.9573 6.1967H60.2909C60.9036 6.1967 61.4003 6.70508 61.4003 7.33219C61.4003 7.9593 60.9036 8.46767 60.2909 8.46767H57.4868V17.4085C57.4868 18.1788 56.8767 18.8033 56.1241 18.8033Z" fill="#323F4B"/>
<path d="M67.9798 18.8033C67.1757 18.8033 66.5239 18.1361 66.5239 17.3132V7.68684C66.5239 6.86386 67.1757 6.1967 67.9798 6.1967H72.2019C73.553 6.1967 74.5955 6.48877 75.3292 7.0729C76.063 7.65704 76.4299 8.45575 76.4299 9.46905C76.4299 10.2201 76.2086 10.8579 75.766 11.3824C75.3351 11.9069 74.741 12.2586 73.984 12.4374V12.1513C74.8692 12.3063 75.5505 12.652 76.0281 13.1884C76.5173 13.713 76.7618 14.3984 76.7618 15.2448C76.7618 16.3654 76.3717 17.2416 75.5913 17.8735C74.8226 18.4934 73.7568 18.8033 72.3941 18.8033H67.9798ZM69.127 16.729H72.0622C72.7377 16.729 73.256 16.5979 73.6171 16.3356C73.9781 16.0734 74.1587 15.6561 74.1587 15.0839C74.1587 14.4998 73.9781 14.0825 73.6171 13.8322C73.256 13.5699 72.7377 13.4388 72.0622 13.4388H69.127V16.729ZM69.127 11.3824H71.7127C72.4232 11.3824 72.9474 11.2513 73.2851 10.989C73.6229 10.7267 73.7918 10.3333 73.7918 9.8088C73.7918 9.2962 73.6229 8.90876 73.2851 8.6465C72.9474 8.38423 72.4232 8.2531 71.7127 8.2531H69.127V11.3824Z" fill="#323F4B"/>
<path d="M83.6673 18.8033C82.9279 18.8033 82.3285 18.1898 82.3285 17.433V7.48418C82.3285 6.77312 82.8917 6.1967 83.5864 6.1967C84.2811 6.1967 84.8443 6.77312 84.8443 7.48418V14.9587H84.4075L90.6726 6.73349C90.9306 6.39475 91.3268 6.1967 91.7464 6.1967C92.4984 6.1967 93.108 6.82065 93.108 7.59034V17.5069C93.108 18.2229 92.5409 18.8033 91.8414 18.8033C91.1418 18.8033 90.5748 18.2229 90.5748 17.5069V10.0413H91.0115L84.7222 18.2769C84.4685 18.6091 84.0794 18.8033 83.6673 18.8033Z" fill="#323F4B"/>
<path d="M98.8752 12.4911C98.8752 11.1797 99.1139 10.0413 99.5915 9.07565C100.081 8.09812 100.78 7.34113 101.688 6.80468C102.596 6.26823 103.674 6 104.92 6C106.166 6 107.244 6.26823 108.152 6.80468C109.061 7.34113 109.76 8.09812 110.249 9.07565C110.75 10.0413 111 11.1738 111 12.4732C111 13.7964 110.75 14.9468 110.249 15.9244C109.76 16.89 109.061 17.647 108.152 18.1953C107.244 18.7318 106.166 19 104.92 19C103.674 19 102.596 18.7318 101.688 18.1953C100.791 17.647 100.098 16.884 99.609 15.9065C99.1198 14.9289 98.8752 13.7905 98.8752 12.4911ZM101.723 12.4911C101.723 13.7905 101.985 14.8097 102.509 15.5488C103.045 16.276 103.849 16.6396 104.92 16.6396C105.968 16.6396 106.766 16.276 107.314 15.5488C107.861 14.8097 108.135 13.7905 108.135 12.4911C108.135 11.1797 107.861 10.1664 107.314 9.45117C106.778 8.72398 105.98 8.36038 104.92 8.36038C103.849 8.36038 103.045 8.72398 102.509 9.45117C101.985 10.1664 101.723 11.1797 101.723 12.4911Z" fill="#323F4B"/>
</svg>
