<svg width="171" height="170" viewBox="0 0 171 170" fill="none" xmlns="http://www.w3.org/2000/svg">
<path d="M145.958 24.8959C161.992 40.8365 171 62.4566 171 85C171 107.543 161.992 129.163 145.958 145.104C129.923 161.045 108.176 170 85.5 170C62.824 170 41.0768 161.045 25.0424 145.104L85.5 85L145.958 24.8959Z" fill="#004DFF"/>
<path d="M85.5 0C108.176 2.68827e-07 129.923 8.95533 145.958 24.8959L85.5 85V0Z" fill="#B1C9FF"/>
<path d="M25.0424 145.104C13.085 133.217 4.94193 118.071 1.6429 101.583C-1.65614 85.0943 0.0370455 68.0036 6.50834 52.4719C12.9796 36.9402 23.9384 23.665 37.9988 14.3251C52.0592 4.98516 68.5897 -2.00474e-07 85.5 0V85L25.0424 145.104Z" fill="#6694FF"/>
<path d="M39.1054 15.991C52.2824 7.2379 67.682 2.4004 83.5 2.0238V84.1681L25.0593 142.267C14.1427 130.883 6.69521 116.64 3.60403 101.19C0.38308 85.0922 2.03608 68.4059 8.3545 53.2411C14.673 38.0762 25.3737 25.1126 39.1054 15.991ZM87.5 80.1915V2.02378C108.253 2.51747 128.078 10.6801 143.104 24.913L87.5 80.1915ZM87.5 85.8319L145.941 27.7328C160.726 43.1505 169 63.6523 169 85C169 107.009 160.206 128.119 144.548 143.686C128.889 159.253 107.649 168 85.5 168C64.0243 168 43.4036 159.777 27.8964 145.087L83.5 89.8085L86.9101 86.4184L87.5 85.8319Z" stroke="white" stroke-width="4"/>
</svg>
