<svg width="385" height="455" viewBox="0 0 385 455" fill="none" xmlns="http://www.w3.org/2000/svg">
<g opacity="0.3">
<path fill-rule="evenodd" clip-rule="evenodd" d="M12.825 161.034C17.7986 153.96 24.9441 150.418 32.0425 155.409C39.1329 160.395 40.8564 170.174 35.8828 177.247C30.9036 184.328 21.1183 186.015 14.028 181.029C6.92955 176.038 7.84577 168.115 12.825 161.034Z" fill="#43A6F2"/>
<path fill-rule="evenodd" clip-rule="evenodd" d="M27.7706 171.607C26.5793 173.302 25.0822 174.733 23.3583 175.838C21.6268 176.937 19.7043 177.675 17.7137 178.007C16.8028 178.167 15.9701 177.534 15.8596 176.62C15.747 175.693 16.4013 174.827 17.3122 174.668C18.8502 174.411 20.3341 173.843 21.6657 172.987C23.0049 172.138 24.1615 171.028 25.0831 169.718C25.9991 168.415 26.6518 166.951 26.9984 165.403C27.3527 163.861 27.386 162.272 27.1068 160.738C26.9488 159.827 27.542 158.918 28.4526 158.711C29.3498 158.505 30.2274 159.075 30.3854 159.986C30.7464 161.972 30.7021 164.031 30.2533 166.032C29.7969 168.028 28.9563 169.921 27.7706 171.607Z" fill="white"/>
<path fill-rule="evenodd" clip-rule="evenodd" d="M59.4779 140.695C64.4515 133.622 71.5969 130.079 78.6953 135.07C85.7857 140.056 87.5093 149.835 82.5356 156.908C77.5564 163.99 67.7712 165.676 60.6808 160.69C53.5824 155.699 54.4986 147.776 59.4779 140.695Z" fill="#43A6F2"/>
<path fill-rule="evenodd" clip-rule="evenodd" d="M74.4235 151.268C73.2322 152.963 71.735 154.394 70.0112 155.499C68.2797 156.598 66.3572 157.337 64.3666 157.669C63.4556 157.828 62.623 157.195 62.5124 156.281C62.3998 155.354 63.0541 154.488 63.9651 154.329C65.503 154.073 66.9869 153.504 68.3185 152.649C69.6577 151.799 70.8144 150.689 71.7359 149.379C72.6519 148.076 73.3047 146.612 73.6513 145.064C74.0055 143.522 74.0388 141.933 73.7596 140.399C73.6017 139.488 74.1949 138.579 75.1054 138.372C76.0027 138.167 76.8803 138.736 77.0382 139.647C77.3992 141.633 77.3549 143.692 76.9061 145.693C76.4497 147.689 75.6092 149.582 74.4235 151.268Z" fill="white"/>
<path fill-rule="evenodd" clip-rule="evenodd" d="M106.13 120.357C111.103 113.284 118.249 109.741 125.347 114.732C132.438 119.718 134.161 129.497 129.188 136.57C124.208 143.652 114.423 145.338 107.333 140.352C100.234 135.361 101.15 127.438 106.13 120.357Z" fill="#43A6F2"/>
<path fill-rule="evenodd" clip-rule="evenodd" d="M121.075 130.931C119.884 132.625 118.387 134.056 116.663 135.161C114.932 136.26 113.009 136.999 111.018 137.331C110.107 137.49 109.275 136.857 109.164 135.943C109.052 135.016 109.706 134.151 110.617 133.991C112.155 133.735 113.639 133.166 114.97 132.311C116.31 131.461 117.466 130.351 118.388 129.041C119.304 127.738 119.957 126.274 120.303 124.727C120.657 123.184 120.691 121.595 120.411 120.061C120.254 119.15 120.847 118.242 121.757 118.034C122.655 117.829 123.532 118.398 123.69 119.309C124.051 121.295 124.007 123.354 123.558 125.355C123.102 127.351 122.261 129.244 121.075 130.931Z" fill="white"/>
<path fill-rule="evenodd" clip-rule="evenodd" d="M152.784 100.018C157.757 92.9448 164.903 89.4023 172.001 94.3936C179.091 99.3793 180.815 109.158 175.841 116.231C170.862 123.313 161.077 124.999 153.986 120.013C146.888 115.022 147.804 107.099 152.784 100.018Z" fill="#43A6F2"/>
<path fill-rule="evenodd" clip-rule="evenodd" d="M167.729 110.592C166.538 112.286 165.041 113.717 163.317 114.822C161.585 115.922 159.663 116.66 157.672 116.992C156.761 117.151 155.929 116.518 155.818 115.604C155.705 114.677 156.36 113.812 157.271 113.652C158.809 113.396 160.293 112.827 161.624 111.972C162.963 111.122 164.12 110.013 165.042 108.702C165.958 107.399 166.61 105.935 166.957 104.388C167.311 102.845 167.344 101.256 167.065 99.7225C166.907 98.8112 167.501 97.9027 168.411 97.695C169.308 97.4899 170.186 98.0592 170.344 98.9704C170.705 100.956 170.661 103.015 170.212 105.016C169.755 107.012 168.915 108.905 167.729 110.592Z" fill="white"/>
<path fill-rule="evenodd" clip-rule="evenodd" d="M199.437 79.6792C204.41 72.6059 211.556 69.0634 218.654 74.0547C225.745 79.0404 227.468 88.8192 222.495 95.8926C217.515 102.974 207.73 104.66 200.64 99.6746C193.541 94.6832 194.458 86.7606 199.437 79.6792Z" fill="#43A6F2"/>
<path fill-rule="evenodd" clip-rule="evenodd" d="M214.382 90.2528C213.191 91.947 211.694 93.3785 209.97 94.4833C208.239 95.5827 206.316 96.3209 204.326 96.6529C203.415 96.8125 202.582 96.1793 202.471 95.2655C202.359 94.3384 203.013 93.4728 203.924 93.3132C205.462 93.057 206.946 92.4881 208.277 91.633C209.617 90.7832 210.773 89.6737 211.695 88.363C212.611 87.0604 213.264 85.5965 213.61 84.0488C213.965 82.5065 213.998 80.9175 213.719 79.3836C213.561 78.4723 214.154 77.5638 215.064 77.3561C215.962 77.151 216.839 77.7203 216.997 78.6316C217.358 80.6172 217.314 82.676 216.865 84.6774C216.409 86.6734 215.568 88.5665 214.382 90.2528Z" fill="white"/>
<path fill-rule="evenodd" clip-rule="evenodd" d="M246.09 59.3414C251.063 52.268 258.209 48.7255 265.307 53.7169C272.398 58.7025 274.121 68.4813 269.147 75.5547C264.168 82.636 254.383 84.3223 247.293 79.3367C240.194 74.3453 241.11 66.4227 246.09 59.3414Z" fill="#43A6F2"/>
<path fill-rule="evenodd" clip-rule="evenodd" d="M261.035 69.9149C259.844 71.6091 258.347 73.0406 256.623 74.1454C254.891 75.2448 252.969 75.983 250.978 76.315C250.067 76.4747 249.235 75.8414 249.124 74.9276C249.012 74.0005 249.666 73.1349 250.577 72.9753C252.115 72.7191 253.599 72.1502 254.93 71.2951C256.269 70.4453 257.426 69.3358 258.348 68.0251C259.264 66.7225 259.916 65.2586 260.263 63.7109C260.617 62.1686 260.651 60.5797 260.371 59.0457C260.213 58.1345 260.807 57.2259 261.717 57.0182C262.614 56.8131 263.492 57.3824 263.65 58.2937C264.011 60.2793 263.967 62.3382 263.518 64.3395C263.062 66.3355 262.221 68.2286 261.035 69.9149Z" fill="white"/>
<path fill-rule="evenodd" clip-rule="evenodd" d="M292.742 39.0025C297.716 31.9291 304.861 28.3867 311.959 33.378C319.05 38.3637 320.773 48.1424 315.8 55.2158C310.821 62.2972 301.035 63.9835 293.945 58.9978C286.847 54.0065 287.763 46.0839 292.742 39.0025Z" fill="#43A6F2"/>
<path fill-rule="evenodd" clip-rule="evenodd" d="M307.688 49.576C306.496 51.2703 304.999 52.7017 303.275 53.8065C301.544 54.9059 299.621 55.6441 297.631 55.9761C296.72 56.1358 295.887 55.5025 295.777 54.5888C295.664 53.6617 296.318 52.7961 297.229 52.6364C298.767 52.3802 300.251 51.8114 301.583 50.9562C302.922 50.1064 304.079 48.9969 305 47.6863C305.916 46.3836 306.569 44.9198 306.915 43.372C307.27 41.8297 307.303 40.2408 307.024 38.7068C306.866 37.7956 307.459 36.887 308.37 36.6793C309.267 36.4742 310.144 37.0436 310.302 37.9548C310.663 39.9404 310.619 41.9993 310.17 44.0007C309.714 45.9966 308.873 47.8898 307.688 49.576Z" fill="white"/>
<path fill-rule="evenodd" clip-rule="evenodd" d="M339.396 18.6636C344.369 11.5903 351.515 8.0478 358.613 13.0391C365.704 18.0248 367.427 27.8036 362.454 34.8769C357.474 41.9583 347.689 43.6446 340.599 38.6589C333.5 33.6676 334.417 25.745 339.396 18.6636Z" fill="#43A6F2"/>
<path fill-rule="evenodd" clip-rule="evenodd" d="M354.341 29.2372C353.15 30.9314 351.653 32.3628 349.929 33.4676C348.198 34.5671 346.275 35.3053 344.285 35.6373C343.374 35.7969 342.541 35.1637 342.43 34.2499C342.318 33.3228 342.972 32.4572 343.883 32.2975C345.421 32.0413 346.905 31.4725 348.236 30.6173C349.576 29.7675 350.732 28.658 351.654 27.3474C352.57 26.0447 353.223 24.5809 353.569 23.0332C353.924 21.4908 353.957 19.9019 353.678 18.368C353.52 17.4567 354.113 16.5482 355.023 16.3405C355.921 16.1354 356.798 16.7047 356.956 17.6159C357.317 19.6015 357.273 21.6604 356.824 23.6618C356.368 25.6578 355.527 27.5509 354.341 29.2372Z" fill="white"/>
<path fill-rule="evenodd" clip-rule="evenodd" d="M-14.7414 225.156C-9.76777 218.082 -2.62233 214.54 4.47609 219.531C11.5665 224.517 13.29 234.296 8.31641 241.369C3.33715 248.45 -6.44806 250.137 -13.5384 245.151C-20.6369 240.16 -19.7206 232.237 -14.7414 225.156Z" fill="#43A6F2"/>
<path fill-rule="evenodd" clip-rule="evenodd" d="M0.204244 235.729C-0.987062 237.424 -2.4842 238.855 -4.20807 239.96C-5.93957 241.059 -7.86207 241.797 -9.85268 242.129C-10.7636 242.289 -11.5963 241.656 -11.7068 240.742C-11.8194 239.815 -11.1651 238.949 -10.2542 238.79C-8.71624 238.534 -7.23229 237.965 -5.90074 237.11C-4.56156 236.26 -3.40488 235.15 -2.4833 233.84C-1.56735 232.537 -0.914587 231.073 -0.567963 229.525C-0.213703 227.983 -0.180422 226.394 -0.459628 224.86C-0.617586 223.949 -0.0243778 223.04 0.886147 222.833C1.78342 222.628 2.66103 223.197 2.81898 224.108C3.17998 226.094 3.1357 228.153 2.68689 230.154C2.23045 232.15 1.38993 234.043 0.204244 235.729Z" fill="white"/>
<path fill-rule="evenodd" clip-rule="evenodd" d="M31.9124 204.817C36.886 197.744 44.0315 194.201 51.1299 199.192C58.2203 204.178 59.9438 213.957 54.9702 221.03C49.991 228.112 40.2057 229.798 33.1154 224.812C26.017 219.821 26.9332 211.898 31.9124 204.817Z" fill="#43A6F2"/>
<path fill-rule="evenodd" clip-rule="evenodd" d="M46.8581 215.39C45.6667 217.085 44.1696 218.516 42.4457 219.621C40.7142 220.72 38.7917 221.459 36.8011 221.791C35.8902 221.95 35.0575 221.317 34.947 220.403C34.8344 219.476 35.4887 218.611 36.3996 218.451C37.9376 218.195 39.4215 217.626 40.7531 216.771C42.0923 215.921 43.2489 214.811 44.1705 213.501C45.0865 212.198 45.7392 210.734 46.0858 209.187C46.4401 207.644 46.4734 206.055 46.1942 204.521C46.0362 203.61 46.6294 202.701 47.54 202.494C48.4372 202.289 49.3148 202.858 49.4728 203.769C49.8338 205.755 49.7895 207.814 49.3407 209.815C48.8843 211.811 48.0437 213.704 46.8581 215.39Z" fill="white"/>
<path fill-rule="evenodd" clip-rule="evenodd" d="M78.5653 184.478C83.5389 177.405 90.6843 173.862 97.7827 178.854C104.873 183.839 106.597 193.618 101.623 200.691C96.6438 207.773 86.8586 209.459 79.7682 204.473C72.6698 199.482 73.586 191.559 78.5653 184.478Z" fill="#43A6F2"/>
<path fill-rule="evenodd" clip-rule="evenodd" d="M93.5109 195.052C92.3196 196.746 90.8224 198.177 89.0986 199.282C87.3671 200.382 85.4446 201.12 83.454 201.452C82.543 201.611 81.7104 200.978 81.5998 200.064C81.4872 199.137 82.1415 198.272 83.0525 198.112C84.5904 197.856 86.0744 197.287 87.4059 196.432C88.7451 195.582 89.9018 194.472 90.8233 193.162C91.7393 191.859 92.3921 190.395 92.7387 188.848C93.0929 187.305 93.1262 185.716 92.847 184.182C92.6891 183.271 93.2823 182.363 94.1928 182.155C95.0901 181.95 95.9677 182.519 96.1256 183.43C96.4866 185.416 96.4423 187.475 95.9935 189.476C95.5371 191.472 94.6966 193.365 93.5109 195.052Z" fill="white"/>
<path fill-rule="evenodd" clip-rule="evenodd" d="M125.217 164.14C130.191 157.067 137.336 153.524 144.435 158.516C151.525 163.501 153.249 173.28 148.275 180.353C143.296 187.435 133.51 189.121 126.42 184.135C119.322 179.144 120.238 171.222 125.217 164.14Z" fill="#43A6F2"/>
<path fill-rule="evenodd" clip-rule="evenodd" d="M140.163 174.714C138.971 176.408 137.474 177.839 135.75 178.944C134.019 180.044 132.096 180.782 130.106 181.114C129.195 181.273 128.362 180.64 128.252 179.726C128.139 178.799 128.793 177.934 129.704 177.774C131.242 177.518 132.726 176.949 134.058 176.094C135.397 175.244 136.554 174.135 137.475 172.824C138.391 171.521 139.044 170.057 139.391 168.51C139.745 166.967 139.778 165.378 139.499 163.845C139.341 162.933 139.934 162.025 140.845 161.817C141.742 161.612 142.62 162.181 142.777 163.093C143.138 165.078 143.094 167.137 142.645 169.138C142.189 171.134 141.348 173.027 140.163 174.714Z" fill="white"/>
<path fill-rule="evenodd" clip-rule="evenodd" d="M171.871 143.801C176.845 136.728 183.99 133.185 191.088 138.177C198.179 143.162 199.902 152.941 194.929 160.015C189.949 167.096 180.164 168.782 173.074 163.797C165.975 158.805 166.892 150.883 171.871 143.801Z" fill="#43A6F2"/>
<path fill-rule="evenodd" clip-rule="evenodd" d="M186.817 154.375C185.625 156.069 184.128 157.501 182.404 158.605C180.673 159.705 178.75 160.443 176.76 160.775C175.849 160.935 175.016 160.301 174.905 159.388C174.793 158.46 175.447 157.595 176.358 157.435C177.896 157.179 179.38 156.61 180.712 155.755C182.051 154.905 183.207 153.796 184.129 152.485C185.045 151.182 185.698 149.719 186.044 148.171C186.399 146.629 186.432 145.04 186.153 143.506C185.995 142.594 186.588 141.686 187.498 141.478C188.396 141.273 189.273 141.842 189.431 142.754C189.792 144.739 189.748 146.798 189.299 148.799C188.843 150.795 188.002 152.689 186.817 154.375Z" fill="white"/>
<path fill-rule="evenodd" clip-rule="evenodd" d="M218.524 123.462C223.498 116.389 230.643 112.847 237.742 117.838C244.832 122.824 246.556 132.602 241.582 139.676C236.603 146.757 226.818 148.443 219.727 143.458C212.629 138.466 213.545 130.544 218.524 123.462Z" fill="#43A6F2"/>
<path fill-rule="evenodd" clip-rule="evenodd" d="M233.47 134.036C232.279 135.73 230.781 137.162 229.058 138.266C227.326 139.366 225.404 140.104 223.413 140.436C222.502 140.596 221.669 139.962 221.559 139.049C221.446 138.122 222.1 137.256 223.011 137.096C224.549 136.84 226.033 136.271 227.365 135.416C228.704 134.566 229.861 133.457 230.782 132.146C231.698 130.844 232.351 129.38 232.698 127.832C233.052 126.29 233.085 124.701 232.806 123.167C232.648 122.256 233.241 121.347 234.152 121.139C235.049 120.934 235.927 121.504 236.085 122.415C236.446 124.4 236.401 126.459 235.953 128.461C235.496 130.457 234.656 132.35 233.47 134.036Z" fill="white"/>
<path fill-rule="evenodd" clip-rule="evenodd" d="M265.177 103.124C270.15 96.0502 277.296 92.5078 284.394 97.4991C291.484 102.485 293.208 112.264 288.234 119.337C283.255 126.418 273.47 128.105 266.38 123.119C259.281 118.128 260.197 110.205 265.177 103.124Z" fill="#43A6F2"/>
<path fill-rule="evenodd" clip-rule="evenodd" d="M280.122 113.697C278.931 115.391 277.434 116.823 275.71 117.928C273.978 119.027 272.056 119.765 270.065 120.097C269.154 120.257 268.322 119.624 268.211 118.71C268.099 117.783 268.753 116.917 269.664 116.758C271.202 116.501 272.686 115.932 274.017 115.077C275.356 114.227 276.513 113.118 277.435 111.807C278.351 110.505 279.003 109.041 279.35 107.493C279.704 105.951 279.738 104.362 279.458 102.828C279.3 101.917 279.894 101.008 280.804 100.8C281.701 100.595 282.579 101.165 282.737 102.076C283.098 104.061 283.054 106.12 282.605 108.122C282.148 110.118 281.308 112.011 280.122 113.697Z" fill="white"/>
<path fill-rule="evenodd" clip-rule="evenodd" d="M311.829 82.7857C316.803 75.7123 323.948 72.1699 331.047 77.1612C338.137 82.1469 339.861 91.9257 334.887 98.999C329.908 106.08 320.123 107.767 313.032 102.781C305.934 97.7897 306.85 89.8671 311.829 82.7857Z" fill="#43A6F2"/>
<path fill-rule="evenodd" clip-rule="evenodd" d="M326.775 93.3592C325.584 95.0535 324.087 96.4849 322.363 97.5897C320.631 98.6891 318.709 99.4273 316.718 99.7593C315.807 99.919 314.975 99.2857 314.864 98.372C314.751 97.4449 315.406 96.5793 316.317 96.4196C317.855 96.1634 319.339 95.5946 320.67 94.7394C322.009 93.8896 323.166 92.7801 324.087 91.4695C325.003 90.1668 325.656 88.703 326.003 87.1553C326.357 85.6129 326.39 84.024 326.111 82.49C325.953 81.5788 326.546 80.6702 327.457 80.4625C328.354 80.2574 329.232 80.8268 329.39 81.738C329.751 83.7236 329.707 85.7825 329.258 87.7839C328.801 89.7799 327.961 91.673 326.775 93.3592Z" fill="white"/>
<path fill-rule="evenodd" clip-rule="evenodd" d="M358.483 62.4468C363.457 55.3735 370.602 51.831 377.701 56.8223C384.791 61.808 386.515 71.5868 381.541 78.6601C376.562 85.7415 366.777 87.4278 359.686 82.4421C352.588 77.4508 353.504 69.5282 358.483 62.4468Z" fill="#43A6F2"/>
<path fill-rule="evenodd" clip-rule="evenodd" d="M373.429 73.0204C372.238 74.7146 370.74 76.146 369.017 77.2508C367.285 78.3503 365.363 79.0885 363.372 79.4205C362.461 79.5801 361.628 78.9469 361.518 78.0331C361.405 77.106 362.059 76.2404 362.97 76.0807C364.508 75.8245 365.992 75.2557 367.324 74.4005C368.663 73.5507 369.82 72.4412 370.741 71.1306C371.657 69.8279 372.31 68.3641 372.657 66.8164C373.011 65.274 373.044 63.6851 372.765 62.1512C372.607 61.2399 373.2 60.3314 374.111 60.1237C375.008 59.9186 375.886 60.4879 376.044 61.3992C376.405 63.3847 376.36 65.4436 375.912 67.445C375.455 69.441 374.615 71.3341 373.429 73.0204Z" fill="white"/>
<path fill-rule="evenodd" clip-rule="evenodd" d="M4.34553 268.937C9.31914 261.864 16.4646 258.321 23.563 263.313C30.6534 268.298 32.3769 278.077 27.4033 285.15C22.4241 292.232 12.6389 293.918 5.54848 288.932C-1.54994 283.941 -0.633724 276.018 4.34553 268.937Z" fill="#43A6F2"/>
<path fill-rule="evenodd" clip-rule="evenodd" d="M19.2912 279.511C18.0999 281.205 16.6027 282.636 14.8788 283.741C13.1473 284.84 11.2248 285.579 9.23423 285.911C8.32328 286.07 7.49063 285.437 7.38007 284.523C7.26749 283.596 7.92178 282.731 8.83273 282.571C10.3707 282.315 11.8546 281.746 13.1862 280.891C14.5254 280.041 15.682 278.931 16.6036 277.621C17.5196 276.318 18.1723 274.854 18.519 273.307C18.8732 271.764 18.9065 270.175 18.6273 268.641C18.4693 267.73 19.0625 266.822 19.9731 266.614C20.8703 266.409 21.7479 266.978 21.9059 267.889C22.2669 269.875 22.2226 271.934 21.7738 273.935C21.3174 275.931 20.4768 277.824 19.2912 279.511Z" fill="white"/>
<path fill-rule="evenodd" clip-rule="evenodd" d="M50.9993 248.598C55.973 241.525 63.1184 237.982 70.2168 242.974C77.3072 247.959 79.0307 257.738 74.0571 264.811C69.0779 271.893 59.2927 273.579 52.2023 268.594C45.1039 263.602 46.0201 255.68 50.9993 248.598Z" fill="#43A6F2"/>
<path fill-rule="evenodd" clip-rule="evenodd" d="M65.945 259.172C64.7537 260.866 63.2565 262.297 61.5327 263.402C59.8012 264.502 57.8787 265.24 55.888 265.572C54.9771 265.731 54.1444 265.098 54.0339 264.184C53.9213 263.257 54.5756 262.392 55.4865 262.232C57.0245 261.976 58.5084 261.407 59.84 260.552C61.1792 259.702 62.3358 258.593 63.2574 257.282C64.1734 255.979 64.8261 254.515 65.1728 252.968C65.527 251.425 65.5603 249.836 65.2811 248.303C65.1231 247.391 65.7163 246.483 66.6269 246.275C67.5241 246.07 68.4017 246.639 68.5597 247.551C68.9207 249.536 68.8764 251.595 68.4276 253.596C67.9712 255.592 67.1307 257.485 65.945 259.172Z" fill="white"/>
<path fill-rule="evenodd" clip-rule="evenodd" d="M97.6522 228.26C102.626 221.187 109.771 217.644 116.87 222.636C123.96 227.621 125.684 237.4 120.71 244.474C115.731 251.555 105.945 253.241 98.8551 248.256C91.7567 243.264 92.6729 235.342 97.6522 228.26Z" fill="#43A6F2"/>
<path fill-rule="evenodd" clip-rule="evenodd" d="M112.598 238.834C111.406 240.528 109.909 241.96 108.185 243.064C106.454 244.164 104.531 244.902 102.541 245.234C101.63 245.394 100.797 244.76 100.687 243.847C100.574 242.919 101.228 242.054 102.139 241.894C103.677 241.638 105.161 241.069 106.493 240.214C107.832 239.364 108.989 238.255 109.91 236.944C110.826 235.641 111.479 234.178 111.826 232.63C112.18 231.088 112.213 229.499 111.934 227.965C111.776 227.053 112.369 226.145 113.28 225.937C114.177 225.732 115.055 226.301 115.213 227.213C115.574 229.198 115.529 231.257 115.08 233.258C114.624 235.254 113.783 237.148 112.598 238.834Z" fill="white"/>
<path fill-rule="evenodd" clip-rule="evenodd" d="M144.304 207.922C149.278 200.849 156.423 197.307 163.521 202.298C170.612 207.284 172.335 217.062 167.362 224.136C162.383 231.217 152.597 232.903 145.507 227.918C138.409 222.926 139.325 215.004 144.304 207.922Z" fill="#43A6F2"/>
<path fill-rule="evenodd" clip-rule="evenodd" d="M159.25 218.496C158.058 220.19 156.561 221.622 154.837 222.726C153.106 223.826 151.183 224.564 149.193 224.896C148.282 225.056 147.449 224.422 147.339 223.509C147.226 222.582 147.88 221.716 148.791 221.556C150.329 221.3 151.813 220.731 153.145 219.876C154.484 219.026 155.641 217.917 156.562 216.606C157.478 215.304 158.131 213.84 158.477 212.292C158.832 210.75 158.865 209.161 158.586 207.627C158.428 206.716 159.021 205.807 159.932 205.599C160.829 205.394 161.706 205.963 161.864 206.875C162.225 208.86 162.181 210.919 161.732 212.921C161.276 214.917 160.435 216.81 159.25 218.496Z" fill="white"/>
<path fill-rule="evenodd" clip-rule="evenodd" d="M190.958 187.584C195.931 180.51 203.077 176.968 210.175 181.959C217.266 186.945 218.989 196.724 214.016 203.797C209.036 210.878 199.251 212.565 192.161 207.579C185.062 202.588 185.979 194.665 190.958 187.584Z" fill="#43A6F2"/>
<path fill-rule="evenodd" clip-rule="evenodd" d="M205.903 198.157C204.712 199.851 203.215 201.283 201.491 202.388C199.76 203.487 197.837 204.225 195.847 204.557C194.936 204.717 194.103 204.084 193.992 203.17C193.88 202.243 194.534 201.377 195.445 201.217C196.983 200.961 198.467 200.392 199.798 199.537C201.138 198.687 202.294 197.578 203.216 196.267C204.132 194.965 204.785 193.501 205.131 191.953C205.486 190.411 205.519 188.822 205.24 187.288C205.082 186.377 205.675 185.468 206.585 185.26C207.483 185.055 208.36 185.625 208.518 186.536C208.879 188.521 208.835 190.58 208.386 192.582C207.93 194.578 207.089 196.471 205.903 198.157Z" fill="white"/>
<path fill-rule="evenodd" clip-rule="evenodd" d="M237.611 167.245C242.585 160.171 249.73 156.629 256.829 161.62C263.919 166.606 265.643 176.385 260.669 183.458C255.69 190.539 245.904 192.226 238.814 187.24C231.716 182.249 232.632 174.326 237.611 167.245Z" fill="#43A6F2"/>
<path fill-rule="evenodd" clip-rule="evenodd" d="M252.557 177.818C251.365 179.512 249.868 180.944 248.144 182.049C246.413 183.148 244.49 183.886 242.5 184.218C241.589 184.378 240.756 183.745 240.646 182.831C240.533 181.904 241.187 181.038 242.098 180.879C243.636 180.622 245.12 180.054 246.452 179.198C247.791 178.349 248.948 177.239 249.869 175.928C250.785 174.626 251.438 173.162 251.785 171.614C252.139 170.072 252.172 168.483 251.893 166.949C251.735 166.038 252.328 165.129 253.239 164.922C254.136 164.716 255.014 165.286 255.172 166.197C255.533 168.183 255.488 170.241 255.039 172.243C254.583 174.239 253.742 176.132 252.557 177.818Z" fill="white"/>
<path fill-rule="evenodd" clip-rule="evenodd" d="M284.264 146.906C289.238 139.832 296.383 136.29 303.481 141.281C310.572 146.267 312.295 156.046 307.322 163.119C302.343 170.2 292.557 171.887 285.467 166.901C278.369 161.91 279.285 153.987 284.264 146.906Z" fill="#43A6F2"/>
<path fill-rule="evenodd" clip-rule="evenodd" d="M299.21 157.479C298.018 159.174 296.521 160.605 294.797 161.71C293.066 162.809 291.143 163.547 289.153 163.879C288.242 164.039 287.409 163.406 287.299 162.492C287.186 161.565 287.84 160.699 288.751 160.54C290.289 160.284 291.773 159.715 293.105 158.86C294.444 158.01 295.6 156.9 296.522 155.59C297.438 154.287 298.091 152.823 298.437 151.275C298.792 149.733 298.825 148.144 298.546 146.61C298.388 145.699 298.981 144.79 299.892 144.583C300.789 144.378 301.666 144.947 301.824 145.858C302.185 147.844 302.141 149.903 301.692 151.904C301.236 153.9 300.395 155.793 299.21 157.479Z" fill="white"/>
<path fill-rule="evenodd" clip-rule="evenodd" d="M330.916 126.568C335.89 119.495 343.035 115.952 350.134 120.943C357.224 125.929 358.948 135.708 353.974 142.781C348.995 149.863 339.21 151.549 332.119 146.563C325.021 141.572 325.937 133.649 330.916 126.568Z" fill="#43A6F2"/>
<path fill-rule="evenodd" clip-rule="evenodd" d="M345.862 137.141C344.671 138.836 343.174 140.267 341.45 141.372C339.718 142.471 337.796 143.21 335.805 143.542C334.894 143.701 334.061 143.068 333.951 142.154C333.838 141.227 334.493 140.361 335.404 140.202C336.941 139.946 338.425 139.377 339.757 138.522C341.096 137.672 342.253 136.562 343.174 135.252C344.09 133.949 344.743 132.485 345.09 130.937C345.444 129.395 345.477 127.806 345.198 126.272C345.04 125.361 345.633 124.452 346.544 124.245C347.441 124.04 348.319 124.609 348.477 125.52C348.838 127.506 348.793 129.565 348.345 131.566C347.888 133.562 347.048 135.455 345.862 137.141Z" fill="white"/>
<path fill-rule="evenodd" clip-rule="evenodd" d="M377.57 106.229C382.544 99.1557 389.689 95.6132 396.788 100.605C403.878 105.59 405.602 115.369 400.628 122.442C395.649 129.524 385.863 131.21 378.773 126.224C371.675 121.233 372.591 113.31 377.57 106.229Z" fill="#43A6F2"/>
<path fill-rule="evenodd" clip-rule="evenodd" d="M392.516 116.803C391.324 118.497 389.827 119.928 388.103 121.033C386.372 122.132 384.449 122.871 382.459 123.203C381.548 123.362 380.715 122.729 380.605 121.815C380.492 120.888 381.146 120.023 382.057 119.863C383.595 119.607 385.079 119.038 386.411 118.183C387.75 117.333 388.907 116.223 389.828 114.913C390.744 113.61 391.397 112.146 391.744 110.599C392.098 109.056 392.131 107.467 391.852 105.933C391.694 105.022 392.287 104.114 393.198 103.906C394.095 103.701 394.973 104.27 395.131 105.181C395.492 107.167 395.447 109.226 394.998 111.227C394.542 113.223 393.701 115.116 392.516 116.803Z" fill="white"/>
<path fill-rule="evenodd" clip-rule="evenodd" d="M-23.2194 333.059C-18.2458 325.986 -11.1004 322.443 -4.00194 327.435C3.08843 332.42 4.81199 342.199 -0.161619 349.272C-5.14088 356.354 -14.9261 358.04 -22.0165 353.054C-29.1149 348.063 -28.1987 340.141 -23.2194 333.059Z" fill="#43A6F2"/>
<path fill-rule="evenodd" clip-rule="evenodd" d="M23.4329 312.72C28.4065 305.647 35.552 302.104 42.6504 307.096C49.7408 312.081 51.4643 321.86 46.4907 328.934C41.5115 336.015 31.7263 337.701 24.6359 332.716C17.5375 327.724 18.4537 319.802 23.4329 312.72Z" fill="#43A6F2"/>
<path fill-rule="evenodd" clip-rule="evenodd" d="M38.3786 323.294C37.1873 324.988 35.6901 326.419 33.9663 327.524C32.2347 328.624 30.3122 329.362 28.3216 329.694C27.4107 329.854 26.578 329.22 26.4675 328.307C26.3549 327.379 27.0092 326.514 27.9201 326.354C29.4581 326.098 30.942 325.529 32.2736 324.674C33.6128 323.824 34.7694 322.715 35.691 321.404C36.607 320.101 37.2597 318.638 37.6064 317.09C37.9606 315.547 37.9939 313.959 37.7147 312.425C37.5567 311.513 38.1499 310.605 39.0605 310.397C39.9577 310.192 40.8353 310.761 40.9933 311.673C41.3543 313.658 41.31 315.717 40.8612 317.718C40.4048 319.714 39.5642 321.608 38.3786 323.294Z" fill="white"/>
<path fill-rule="evenodd" clip-rule="evenodd" d="M70.0867 292.381C75.0604 285.308 82.2058 281.766 89.3042 286.757C96.3946 291.743 98.1181 301.521 93.1445 308.595C88.1653 315.676 78.3801 317.362 71.2897 312.377C64.1913 307.385 65.1075 299.463 70.0867 292.381Z" fill="#43A6F2"/>
<path fill-rule="evenodd" clip-rule="evenodd" d="M85.0324 302.955C83.8411 304.649 82.3439 306.081 80.6201 307.185C78.8886 308.285 76.9661 309.023 74.9754 309.355C74.0645 309.515 73.2318 308.881 73.1213 307.968C73.0087 307.041 73.663 306.175 74.5739 306.015C76.1119 305.759 77.5958 305.19 78.9274 304.335C80.2666 303.485 81.4232 302.376 82.3448 301.065C83.2608 299.763 83.9135 298.299 84.2602 296.751C84.6144 295.209 84.6477 293.62 84.3685 292.086C84.2105 291.174 84.8037 290.266 85.7143 290.058C86.6115 289.853 87.4892 290.422 87.6471 291.334C88.0081 293.319 87.9638 295.378 87.515 297.38C87.0586 299.376 86.2181 301.269 85.0324 302.955Z" fill="white"/>
<path fill-rule="evenodd" clip-rule="evenodd" d="M116.74 272.044C121.713 264.97 128.859 261.428 135.957 266.419C143.047 271.405 144.771 281.183 139.797 288.257C134.818 295.338 125.033 297.024 117.943 292.039C110.844 287.047 111.76 279.125 116.74 272.044Z" fill="#43A6F2"/>
<path fill-rule="evenodd" clip-rule="evenodd" d="M131.685 282.617C130.494 284.311 128.997 285.743 127.273 286.848C125.541 287.947 123.619 288.685 121.628 289.017C120.717 289.177 119.885 288.544 119.774 287.63C119.662 286.703 120.316 285.837 121.227 285.677C122.765 285.421 124.249 284.852 125.58 283.997C126.919 283.147 128.076 282.038 128.998 280.727C129.914 279.425 130.566 277.961 130.913 276.413C131.267 274.871 131.301 273.282 131.021 271.748C130.863 270.837 131.457 269.928 132.367 269.72C133.264 269.515 134.142 270.085 134.3 270.996C134.661 272.981 134.617 275.04 134.168 277.042C133.711 279.038 132.871 280.931 131.685 282.617Z" fill="white"/>
<path fill-rule="evenodd" clip-rule="evenodd" d="M163.391 251.705C168.365 244.631 175.51 241.089 182.609 246.08C189.699 251.066 191.423 260.845 186.449 267.918C181.47 274.999 171.685 276.686 164.594 271.7C157.496 266.709 158.412 258.786 163.391 251.705Z" fill="#43A6F2"/>
<path fill-rule="evenodd" clip-rule="evenodd" d="M178.337 262.278C177.146 263.972 175.649 265.404 173.925 266.509C172.193 267.608 170.271 268.346 168.28 268.678C167.369 268.838 166.537 268.205 166.426 267.291C166.313 266.364 166.968 265.498 167.879 265.339C169.417 265.082 170.901 264.514 172.232 263.658C173.571 262.809 174.728 261.699 175.65 260.388C176.565 259.086 177.218 257.622 177.565 256.074C177.919 254.532 177.952 252.943 177.673 251.409C177.515 250.498 178.108 249.589 179.019 249.381C179.916 249.176 180.794 249.746 180.952 250.657C181.313 252.643 181.269 254.701 180.82 256.703C180.363 258.699 179.523 260.592 178.337 262.278Z" fill="white"/>
<path fill-rule="evenodd" clip-rule="evenodd" d="M210.045 231.366C215.019 224.292 222.164 220.75 229.263 225.741C236.353 230.727 238.077 240.506 233.103 247.579C228.124 254.66 218.339 256.347 211.248 251.361C204.15 246.37 205.066 238.447 210.045 231.366Z" fill="#43A6F2"/>
<path fill-rule="evenodd" clip-rule="evenodd" d="M224.991 241.939C223.8 243.634 222.302 245.065 220.579 246.17C218.847 247.269 216.925 248.007 214.934 248.339C214.023 248.499 213.19 247.866 213.08 246.952C212.967 246.025 213.621 245.159 214.532 245C216.07 244.743 217.554 244.175 218.886 243.319C220.225 242.47 221.382 241.36 222.303 240.05C223.219 238.747 223.872 237.283 224.219 235.735C224.573 234.193 224.606 232.604 224.327 231.07C224.169 230.159 224.762 229.25 225.673 229.043C226.57 228.838 227.448 229.407 227.606 230.318C227.967 232.304 227.922 234.363 227.474 236.364C227.017 238.36 226.177 240.253 224.991 241.939Z" fill="white"/>
<path fill-rule="evenodd" clip-rule="evenodd" d="M256.699 211.028C261.672 203.955 268.818 200.412 275.916 205.403C283.006 210.389 284.73 220.168 279.756 227.241C274.777 234.323 264.992 236.009 257.902 231.023C250.803 226.032 251.719 218.109 256.699 211.028Z" fill="#43A6F2"/>
<path fill-rule="evenodd" clip-rule="evenodd" d="M271.644 221.601C270.453 223.296 268.956 224.727 267.232 225.832C265.5 226.931 263.578 227.67 261.587 228.002C260.676 228.161 259.844 227.528 259.733 226.614C259.621 225.687 260.275 224.821 261.186 224.662C262.724 224.406 264.208 223.837 265.539 222.982C266.878 222.132 268.035 221.022 268.957 219.712C269.873 218.409 270.525 216.945 270.872 215.397C271.226 213.855 271.26 212.266 270.98 210.732C270.822 209.821 271.416 208.912 272.326 208.705C273.223 208.5 274.101 209.069 274.259 209.98C274.62 211.966 274.576 214.025 274.127 216.026C273.67 218.022 272.83 219.915 271.644 221.601Z" fill="white"/>
<path fill-rule="evenodd" clip-rule="evenodd" d="M303.351 190.689C308.325 183.616 315.47 180.073 322.568 185.065C329.659 190.05 331.382 199.829 326.409 206.902C321.429 213.984 311.644 215.67 304.554 210.684C297.455 205.693 298.372 197.77 303.351 190.689Z" fill="#43A6F2"/>
<path fill-rule="evenodd" clip-rule="evenodd" d="M318.297 201.263C317.105 202.957 315.608 204.388 313.884 205.493C312.153 206.592 310.23 207.331 308.24 207.663C307.329 207.822 306.496 207.189 306.385 206.275C306.273 205.348 306.927 204.483 307.838 204.323C309.376 204.067 310.86 203.498 312.192 202.643C313.531 201.793 314.687 200.683 315.609 199.373C316.525 198.07 317.178 196.606 317.524 195.059C317.879 193.516 317.912 191.927 317.633 190.393C317.475 189.482 318.068 188.574 318.978 188.366C319.876 188.161 320.753 188.73 320.911 189.641C321.272 191.627 321.228 193.686 320.779 195.687C320.323 197.683 319.482 199.576 318.297 201.263Z" fill="white"/>
<path fill-rule="evenodd" clip-rule="evenodd" d="M350.004 170.351C354.977 163.278 362.123 159.735 369.221 164.727C376.312 169.712 378.035 179.491 373.062 186.564C368.082 193.646 358.297 195.332 351.207 190.346C344.108 185.355 345.024 177.432 350.004 170.351Z" fill="#43A6F2"/>
<path fill-rule="evenodd" clip-rule="evenodd" d="M364.949 180.925C363.758 182.619 362.261 184.05 360.537 185.155C358.806 186.255 356.883 186.993 354.892 187.325C353.981 187.484 353.149 186.851 353.038 185.937C352.926 185.01 353.58 184.145 354.491 183.985C356.029 183.729 357.513 183.16 358.844 182.305C360.184 181.455 361.34 180.346 362.262 179.035C363.178 177.732 363.831 176.268 364.177 174.721C364.531 173.178 364.565 171.589 364.285 170.055C364.128 169.144 364.721 168.236 365.631 168.028C366.529 167.823 367.406 168.392 367.564 169.303C367.925 171.289 367.881 173.348 367.432 175.349C366.976 177.345 366.135 179.238 364.949 180.925Z" fill="white"/>
<path fill-rule="evenodd" clip-rule="evenodd" d="M-4.13249 376.841C0.841117 369.768 7.98656 366.226 15.085 371.217C22.1753 376.203 23.8989 385.981 18.9253 393.055C13.946 400.136 4.16082 401.822 -2.92955 396.837C-10.028 391.845 -9.11175 383.923 -4.13249 376.841Z" fill="#43A6F2"/>
<path fill-rule="evenodd" clip-rule="evenodd" d="M10.8131 387.415C9.62183 389.109 8.12469 390.541 6.40082 391.645C4.66932 392.745 2.74681 393.483 0.756204 393.815C-0.154749 393.975 -0.9874 393.341 -1.09796 392.428C-1.21054 391.501 -0.556246 390.635 0.354707 390.475C1.89265 390.219 3.3766 389.65 4.70815 388.795C6.04733 387.945 7.20401 386.836 8.12558 385.525C9.04154 384.222 9.6943 382.759 10.0409 381.211C10.3952 379.669 10.4285 378.08 10.1493 376.546C9.9913 375.634 10.5845 374.726 11.495 374.518C12.3923 374.313 13.2699 374.882 13.4279 375.794C13.7889 377.779 13.7446 379.838 13.2958 381.84C12.8393 383.836 11.9988 385.729 10.8131 387.415Z" fill="white"/>
<path fill-rule="evenodd" clip-rule="evenodd" d="M42.5203 356.502C47.4939 349.429 54.6394 345.887 61.7378 350.878C68.8282 355.864 70.5517 365.642 65.5781 372.716C60.5989 379.797 50.8137 381.483 43.7233 376.498C36.6249 371.506 37.5411 363.584 42.5203 356.502Z" fill="#43A6F2"/>
<path fill-rule="evenodd" clip-rule="evenodd" d="M57.466 367.076C56.2747 368.77 54.7775 370.202 53.0537 371.306C51.3221 372.406 49.3996 373.144 47.409 373.476C46.4981 373.636 45.6654 373.003 45.5549 372.089C45.4423 371.162 46.0966 370.296 47.0075 370.136C48.5455 369.88 50.0294 369.311 51.361 368.456C52.7002 367.606 53.8568 366.497 54.7784 365.186C55.6944 363.884 56.3471 362.42 56.6938 360.872C57.048 359.33 57.0813 357.741 56.8021 356.207C56.6441 355.296 57.2373 354.387 58.1479 354.179C59.0451 353.974 59.9227 354.544 60.0807 355.455C60.4417 357.44 60.3974 359.499 59.9486 361.501C59.4922 363.497 58.6516 365.39 57.466 367.076Z" fill="white"/>
<path fill-rule="evenodd" clip-rule="evenodd" d="M89.1741 336.164C94.1478 329.09 101.293 325.548 108.392 330.539C115.482 335.525 117.206 345.304 112.232 352.377C107.253 359.458 97.4675 361.145 90.3771 356.159C83.2787 351.168 84.1949 343.245 89.1741 336.164Z" fill="#43A6F2"/>
<path fill-rule="evenodd" clip-rule="evenodd" d="M104.12 346.737C102.928 348.431 101.431 349.863 99.7075 350.968C97.976 352.067 96.0535 352.805 94.0628 353.137C93.1519 353.297 92.3192 352.664 92.2087 351.75C92.0961 350.823 92.7504 349.957 93.6613 349.798C95.1993 349.541 96.6832 348.972 98.0148 348.117C99.354 347.268 100.511 346.158 101.432 344.847C102.348 343.545 103.001 342.081 103.348 340.533C103.702 338.991 103.735 337.402 103.456 335.868C103.298 334.957 103.891 334.048 104.802 333.84C105.699 333.635 106.577 334.205 106.735 335.116C107.096 337.102 107.051 339.16 106.602 341.162C106.146 343.158 105.305 345.051 104.12 346.737Z" fill="white"/>
<path fill-rule="evenodd" clip-rule="evenodd" d="M135.826 315.826C140.8 308.752 147.946 305.21 155.044 310.201C162.134 315.187 163.858 324.966 158.884 332.039C153.905 339.12 144.12 340.807 137.029 335.821C129.931 330.83 130.847 322.907 135.826 315.826Z" fill="#43A6F2"/>
<path fill-rule="evenodd" clip-rule="evenodd" d="M150.772 326.399C149.581 328.094 148.084 329.525 146.36 330.63C144.628 331.729 142.706 332.467 140.715 332.799C139.804 332.959 138.972 332.326 138.861 331.412C138.748 330.485 139.403 329.619 140.314 329.46C141.852 329.203 143.336 328.635 144.667 327.779C146.006 326.93 147.163 325.82 148.085 324.509C149.001 323.207 149.653 321.743 150 320.195C150.354 318.653 150.387 317.064 150.108 315.53C149.95 314.619 150.543 313.71 151.454 313.503C152.351 313.297 153.229 313.867 153.387 314.778C153.748 316.764 153.704 318.823 153.255 320.824C152.798 322.82 151.958 324.713 150.772 326.399Z" fill="white"/>
<path fill-rule="evenodd" clip-rule="evenodd" d="M182.479 295.488C187.452 288.414 194.598 284.872 201.696 289.863C208.787 294.849 210.51 304.628 205.537 311.701C200.557 318.783 190.772 320.469 183.682 315.483C176.583 310.492 177.5 302.569 182.479 295.488Z" fill="#43A6F2"/>
<path fill-rule="evenodd" clip-rule="evenodd" d="M197.424 306.061C196.233 307.756 194.736 309.187 193.012 310.292C191.281 311.391 189.358 312.129 187.368 312.461C186.457 312.621 185.624 311.988 185.513 311.074C185.401 310.147 186.055 309.281 186.966 309.122C188.504 308.866 189.988 308.297 191.319 307.442C192.659 306.592 193.815 305.482 194.737 304.172C195.653 302.869 196.306 301.405 196.652 299.857C197.007 298.315 197.04 296.726 196.761 295.192C196.603 294.281 197.196 293.372 198.106 293.165C199.004 292.96 199.881 293.529 200.039 294.44C200.4 296.426 200.356 298.485 199.907 300.486C199.451 302.482 198.61 304.375 197.424 306.061Z" fill="white"/>
<path fill-rule="evenodd" clip-rule="evenodd" d="M229.133 275.149C234.106 268.076 241.252 264.533 248.35 269.524C255.44 274.51 257.164 284.289 252.19 291.362C247.211 298.444 237.426 300.13 230.336 295.144C223.237 290.153 224.153 282.23 229.133 275.149Z" fill="#43A6F2"/>
<path fill-rule="evenodd" clip-rule="evenodd" d="M244.078 285.723C242.887 287.417 241.39 288.848 239.666 289.953C237.934 291.052 236.012 291.791 234.021 292.123C233.11 292.282 232.278 291.649 232.167 290.735C232.055 289.808 232.709 288.943 233.62 288.783C235.158 288.527 236.642 287.958 237.973 287.103C239.312 286.253 240.469 285.143 241.391 283.833C242.307 282.53 242.959 281.066 243.306 279.519C243.66 277.976 243.694 276.387 243.414 274.853C243.256 273.942 243.85 273.034 244.76 272.826C245.657 272.621 246.535 273.19 246.693 274.101C247.054 276.087 247.01 278.146 246.561 280.147C246.104 282.143 245.264 284.036 244.078 285.723Z" fill="white"/>
<path fill-rule="evenodd" clip-rule="evenodd" d="M275.785 254.81C280.759 247.737 287.905 244.194 295.003 249.186C302.093 254.171 303.817 263.95 298.843 271.023C293.864 278.105 284.079 279.791 276.988 274.805C269.89 269.814 270.806 261.891 275.785 254.81Z" fill="#43A6F2"/>
<path fill-rule="evenodd" clip-rule="evenodd" d="M290.731 265.384C289.54 267.078 288.043 268.509 286.319 269.614C284.587 270.714 282.665 271.452 280.674 271.784C279.763 271.943 278.931 271.31 278.82 270.396C278.707 269.469 279.362 268.604 280.273 268.444C281.811 268.188 283.295 267.619 284.626 266.764C285.965 265.914 287.122 264.805 288.044 263.494C288.96 262.191 289.612 260.727 289.959 259.18C290.313 257.637 290.346 256.048 290.067 254.514C289.909 253.603 290.502 252.695 291.413 252.487C292.31 252.282 293.188 252.851 293.346 253.762C293.707 255.748 293.663 257.807 293.214 259.808C292.757 261.804 291.917 263.697 290.731 265.384Z" fill="white"/>
<path fill-rule="evenodd" clip-rule="evenodd" d="M322.438 234.471C327.412 227.398 334.557 223.855 341.656 228.847C348.746 233.832 350.47 243.611 345.496 250.685C340.517 257.766 330.732 259.452 323.641 254.467C316.543 249.475 317.459 241.553 322.438 234.471Z" fill="#43A6F2"/>
<path fill-rule="evenodd" clip-rule="evenodd" d="M337.384 245.045C336.193 246.739 334.695 248.17 332.972 249.275C331.24 250.375 329.318 251.113 327.327 251.445C326.416 251.605 325.583 250.971 325.473 250.058C325.36 249.13 326.015 248.265 326.926 248.105C328.463 247.849 329.947 247.28 331.279 246.425C332.618 245.575 333.775 244.466 334.696 243.155C335.612 241.852 336.265 240.389 336.612 238.841C336.966 237.298 336.999 235.71 336.72 234.176C336.562 233.264 337.155 232.356 338.066 232.148C338.963 231.943 339.841 232.512 339.999 233.424C340.36 235.409 340.315 237.468 339.867 239.469C339.41 241.465 338.57 243.359 337.384 245.045Z" fill="white"/>
<path fill-rule="evenodd" clip-rule="evenodd" d="M369.091 214.133C374.065 207.06 381.21 203.518 388.309 208.509C395.399 213.495 397.123 223.273 392.149 230.347C387.17 237.428 377.384 239.114 370.294 234.129C363.196 229.137 364.112 221.215 369.091 214.133Z" fill="#43A6F2"/>
<path fill-rule="evenodd" clip-rule="evenodd" d="M384.037 224.707C382.845 226.401 381.348 227.833 379.624 228.937C377.893 230.037 375.97 230.775 373.98 231.107C373.069 231.267 372.236 230.633 372.126 229.72C372.013 228.793 372.667 227.927 373.578 227.767C375.116 227.511 376.6 226.942 377.932 226.087C379.271 225.237 380.428 224.128 381.349 222.817C382.265 221.514 382.918 220.051 383.265 218.503C383.619 216.961 383.652 215.372 383.373 213.838C383.215 212.926 383.808 212.018 384.719 211.81C385.616 211.605 386.494 212.174 386.652 213.086C387.012 215.071 386.968 217.13 386.519 219.132C386.063 221.128 385.222 223.021 384.037 224.707Z" fill="white"/>
<path fill-rule="evenodd" clip-rule="evenodd" d="M14.9544 420.624C19.928 413.55 27.0735 410.008 34.1719 414.999C41.2623 419.985 42.9858 429.764 38.0122 436.837C33.033 443.918 23.2477 445.605 16.1574 440.619C9.05895 435.628 9.97516 427.705 14.9544 420.624Z" fill="#43A6F2"/>
<path fill-rule="evenodd" clip-rule="evenodd" d="M29.9 431.197C28.7087 432.891 27.2116 434.323 25.4877 435.428C23.7562 436.527 21.8337 437.265 19.8431 437.597C18.9322 437.757 18.0995 437.124 17.989 436.21C17.8764 435.283 18.5307 434.417 19.4416 434.258C20.9796 434.001 22.4635 433.432 23.7951 432.577C25.1342 431.727 26.2909 430.618 27.2125 429.307C28.1285 428.005 28.7812 426.541 29.1278 424.993C29.4821 423.451 29.5154 421.862 29.2362 420.328C29.0782 419.417 29.6714 418.508 30.5819 418.3C31.4792 418.095 32.3568 418.665 32.5148 419.576C32.8758 421.561 32.8315 423.62 32.3827 425.622C31.9263 427.618 31.0857 429.511 29.9 431.197Z" fill="white"/>
<path fill-rule="evenodd" clip-rule="evenodd" d="M61.6073 400.285C66.5809 393.211 73.7263 389.669 80.8247 394.66C87.9151 399.646 89.6387 409.425 84.665 416.498C79.6858 423.579 69.9006 425.266 62.8102 420.28C55.7118 415.289 56.628 407.366 61.6073 400.285Z" fill="#43A6F2"/>
<path fill-rule="evenodd" clip-rule="evenodd" d="M76.5529 410.858C75.3616 412.553 73.8644 413.984 72.1406 415.089C70.4091 416.188 68.4866 416.926 66.496 417.258C65.585 417.418 64.7523 416.785 64.6418 415.871C64.5292 414.944 65.1835 414.078 66.0945 413.919C67.6324 413.662 69.1163 413.094 70.4479 412.238C71.7871 411.389 72.9438 410.279 73.8653 408.968C74.7813 407.666 75.434 406.202 75.7807 404.654C76.1349 403.112 76.1682 401.523 75.889 399.989C75.731 399.078 76.3243 398.169 77.2348 397.962C78.1321 397.756 79.0097 398.326 79.1676 399.237C79.5286 401.223 79.4843 403.282 79.0355 405.283C78.5791 407.279 77.7386 409.172 76.5529 410.858Z" fill="white"/>
<path fill-rule="evenodd" clip-rule="evenodd" d="M108.261 379.946C113.235 372.873 120.38 369.33 127.479 374.321C134.569 379.307 136.292 389.086 131.319 396.159C126.34 403.241 116.554 404.927 109.464 399.941C102.366 394.95 103.282 387.027 108.261 379.946Z" fill="#43A6F2"/>
<path fill-rule="evenodd" clip-rule="evenodd" d="M123.207 390.519C122.015 392.214 120.518 393.645 118.794 394.75C117.063 395.849 115.14 396.587 113.15 396.92C112.239 397.079 111.406 396.446 111.296 395.532C111.183 394.605 111.837 393.739 112.748 393.58C114.286 393.324 115.77 392.755 117.102 391.9C118.441 391.05 119.598 389.94 120.519 388.63C121.435 387.327 122.088 385.863 122.434 384.315C122.789 382.773 122.822 381.184 122.543 379.65C122.385 378.739 122.978 377.83 123.889 377.623C124.786 377.418 125.663 377.987 125.821 378.898C126.182 380.884 126.138 382.943 125.689 384.944C125.233 386.94 124.392 388.833 123.207 390.519Z" fill="white"/>
<path fill-rule="evenodd" clip-rule="evenodd" d="M154.913 359.608C159.887 352.535 167.032 348.992 174.131 353.983C181.221 358.969 182.945 368.748 177.971 375.821C172.992 382.903 163.207 384.589 156.116 379.603C149.018 374.612 149.934 366.689 154.913 359.608Z" fill="#43A6F2"/>
<path fill-rule="evenodd" clip-rule="evenodd" d="M169.859 370.182C168.668 371.876 167.171 373.307 165.447 374.412C163.715 375.511 161.793 376.25 159.802 376.582C158.891 376.741 158.058 376.108 157.948 375.194C157.835 374.267 158.49 373.402 159.401 373.242C160.939 372.986 162.422 372.417 163.754 371.562C165.093 370.712 166.25 369.602 167.171 368.292C168.087 366.989 168.74 365.525 169.087 363.978C169.441 362.435 169.474 360.846 169.195 359.312C169.037 358.401 169.63 357.493 170.541 357.285C171.438 357.08 172.316 357.649 172.474 358.56C172.835 360.546 172.79 362.605 172.342 364.606C171.885 366.602 171.045 368.495 169.859 370.182Z" fill="white"/>
<path fill-rule="evenodd" clip-rule="evenodd" d="M201.566 339.269C206.539 332.196 213.685 328.653 220.783 333.645C227.874 338.63 229.597 348.409 224.624 355.482C219.644 362.564 209.859 364.25 202.769 359.264C195.67 354.273 196.586 346.35 201.566 339.269Z" fill="#43A6F2"/>
<path fill-rule="evenodd" clip-rule="evenodd" d="M216.511 349.843C215.32 351.537 213.823 352.968 212.099 354.073C210.368 355.173 208.445 355.911 206.454 356.243C205.543 356.402 204.711 355.769 204.6 354.855C204.488 353.928 205.142 353.063 206.053 352.903C207.591 352.647 209.075 352.078 210.406 351.223C211.746 350.373 212.902 349.264 213.824 347.953C214.74 346.65 215.393 345.186 215.739 343.639C216.093 342.096 216.127 340.507 215.848 338.973C215.69 338.062 216.283 337.154 217.193 336.946C218.091 336.741 218.968 337.31 219.126 338.221C219.487 340.207 219.443 342.266 218.994 344.267C218.538 346.263 217.697 348.156 216.511 349.843Z" fill="white"/>
<path fill-rule="evenodd" clip-rule="evenodd" d="M248.22 318.93C253.193 311.857 260.339 308.314 267.437 313.306C274.527 318.291 276.251 328.07 271.277 335.144C266.298 342.225 256.513 343.911 249.423 338.926C242.324 333.934 243.24 326.012 248.22 318.93Z" fill="#43A6F2"/>
<path fill-rule="evenodd" clip-rule="evenodd" d="M263.165 329.504C261.974 331.198 260.477 332.629 258.753 333.734C257.021 334.834 255.099 335.572 253.108 335.904C252.197 336.064 251.365 335.43 251.254 334.517C251.142 333.589 251.796 332.724 252.707 332.564C254.245 332.308 255.729 331.739 257.06 330.884C258.399 330.034 259.556 328.925 260.478 327.614C261.394 326.311 262.046 324.848 262.393 323.3C262.747 321.757 262.781 320.169 262.501 318.635C262.343 317.723 262.937 316.815 263.847 316.607C264.744 316.402 265.622 316.971 265.78 317.883C266.141 319.868 266.097 321.927 265.648 323.928C265.191 325.924 264.351 327.818 263.165 329.504Z" fill="white"/>
<path fill-rule="evenodd" clip-rule="evenodd" d="M294.872 298.592C299.846 291.519 306.991 287.977 314.09 292.968C321.18 297.953 322.904 307.732 317.93 314.806C312.951 321.887 303.166 323.573 296.075 318.588C288.977 313.596 289.893 305.674 294.872 298.592Z" fill="#43A6F2"/>
<path fill-rule="evenodd" clip-rule="evenodd" d="M309.818 309.166C308.627 310.86 307.13 312.292 305.406 313.396C303.674 314.496 301.752 315.234 299.761 315.566C298.85 315.726 298.017 315.092 297.907 314.179C297.794 313.252 298.449 312.386 299.36 312.226C300.898 311.97 302.381 311.401 303.713 310.546C305.052 309.696 306.209 308.587 307.13 307.276C308.046 305.973 308.699 304.51 309.046 302.962C309.4 301.42 309.433 299.831 309.154 298.297C308.996 297.385 309.589 296.477 310.5 296.269C311.397 296.064 312.275 296.633 312.433 297.545C312.794 299.53 312.749 301.589 312.301 303.59C311.844 305.586 311.004 307.48 309.818 309.166Z" fill="white"/>
<path fill-rule="evenodd" clip-rule="evenodd" d="M341.525 278.253C346.499 271.18 353.644 267.638 360.743 272.629C367.833 277.615 369.557 287.393 364.583 294.467C359.604 301.548 349.819 303.234 342.728 298.249C335.63 293.257 336.546 285.335 341.525 278.253Z" fill="#43A6F2"/>
<path fill-rule="evenodd" clip-rule="evenodd" d="M356.471 288.827C355.28 290.521 353.782 291.953 352.059 293.057C350.327 294.157 348.405 294.895 346.414 295.227C345.503 295.387 344.67 294.754 344.56 293.84C344.447 292.913 345.101 292.047 346.012 291.887C347.55 291.631 349.034 291.062 350.366 290.207C351.705 289.357 352.862 288.248 353.783 286.937C354.699 285.635 355.352 284.171 355.699 282.623C356.053 281.081 356.086 279.492 355.807 277.958C355.649 277.047 356.242 276.138 357.153 275.93C358.05 275.725 358.928 276.295 359.086 277.206C359.447 279.191 359.402 281.25 358.953 283.252C358.497 285.248 357.657 287.141 356.471 288.827Z" fill="white"/>
<path fill-rule="evenodd" clip-rule="evenodd" d="M388.178 257.916C393.152 250.842 400.297 247.3 407.396 252.291C414.486 257.277 416.209 267.056 411.236 274.129C406.257 281.21 396.471 282.897 389.381 277.911C382.283 272.92 383.199 264.997 388.178 257.916Z" fill="#43A6F2"/>
<path fill-rule="evenodd" clip-rule="evenodd" d="M34.0418 464.406C39.0154 457.332 46.1609 453.79 53.2593 458.781C60.3497 463.767 62.0732 473.546 57.0996 480.619C52.1204 487.7 42.3351 489.387 35.2448 484.401C28.1464 479.41 29.0626 471.487 34.0418 464.406Z" fill="#43A6F2"/>
<path fill-rule="evenodd" clip-rule="evenodd" d="M80.6942 444.068C85.6678 436.995 92.8132 433.452 99.9116 438.443C107.002 443.429 108.726 453.208 103.752 460.281C98.7727 467.363 88.9875 469.049 81.8971 464.063C74.7987 459.072 75.7149 451.149 80.6942 444.068Z" fill="#43A6F2"/>
<path fill-rule="evenodd" clip-rule="evenodd" d="M95.6398 454.641C94.4485 456.336 92.9513 457.767 91.2275 458.872C89.496 459.971 87.5735 460.71 85.5829 461.042C84.6719 461.201 83.8393 460.568 83.7287 459.654C83.6161 458.727 84.2704 457.861 85.1814 457.702C86.7193 457.446 88.2033 456.877 89.5348 456.022C90.874 455.172 92.0307 454.062 92.9522 452.752C93.8682 451.449 94.521 449.985 94.8676 448.437C95.2218 446.895 95.2551 445.306 94.9759 443.772C94.818 442.861 95.4112 441.952 96.3217 441.745C97.219 441.54 98.0966 442.109 98.2545 443.02C98.6155 445.006 98.5713 447.065 98.1224 449.066C97.666 451.062 96.8255 452.955 95.6398 454.641Z" fill="white"/>
<path fill-rule="evenodd" clip-rule="evenodd" d="M127.348 423.729C132.322 416.656 139.467 413.113 146.565 418.105C153.656 423.09 155.379 432.869 150.406 439.942C145.427 447.024 135.641 448.71 128.551 443.724C121.453 438.733 122.369 430.81 127.348 423.729Z" fill="#43A6F2"/>
<path fill-rule="evenodd" clip-rule="evenodd" d="M142.294 434.303C141.102 435.997 139.605 437.428 137.881 438.533C136.15 439.632 134.227 440.371 132.237 440.703C131.326 440.862 130.493 440.229 130.383 439.315C130.27 438.388 130.924 437.523 131.835 437.363C133.373 437.107 134.857 436.538 136.189 435.683C137.528 434.833 138.684 433.723 139.606 432.413C140.522 431.11 141.175 429.646 141.521 428.099C141.876 426.556 141.909 424.967 141.63 423.433C141.472 422.522 142.065 421.614 142.976 421.406C143.873 421.201 144.75 421.77 144.908 422.681C145.269 424.667 145.225 426.726 144.776 428.727C144.32 430.723 143.479 432.616 142.294 434.303Z" fill="white"/>
<path fill-rule="evenodd" clip-rule="evenodd" d="M174.001 403.39C178.974 396.317 186.12 392.774 193.218 397.766C200.309 402.751 202.032 412.53 197.059 419.603C192.079 426.685 182.294 428.371 175.204 423.385C168.105 418.394 169.022 410.472 174.001 403.39Z" fill="#43A6F2"/>
<path fill-rule="evenodd" clip-rule="evenodd" d="M188.946 413.964C187.755 415.658 186.258 417.089 184.534 418.194C182.803 419.294 180.88 420.032 178.89 420.364C177.979 420.523 177.146 419.89 177.035 418.976C176.923 418.049 177.577 417.184 178.488 417.024C180.026 416.768 181.51 416.199 182.841 415.344C184.181 414.494 185.337 413.385 186.259 412.074C187.175 410.771 187.828 409.307 188.174 407.76C188.528 406.217 188.562 404.628 188.283 403.095C188.125 402.183 188.718 401.275 189.628 401.067C190.526 400.862 191.403 401.431 191.561 402.343C191.922 404.328 191.878 406.387 191.429 408.388C190.973 410.384 190.132 412.277 188.946 413.964Z" fill="white"/>
<path fill-rule="evenodd" clip-rule="evenodd" d="M220.653 383.052C225.626 375.979 232.772 372.436 239.87 377.428C246.961 382.413 248.684 392.192 243.71 399.266C238.731 406.347 228.946 408.033 221.856 403.048C214.757 398.056 215.673 390.134 220.653 383.052Z" fill="#43A6F2"/>
<path fill-rule="evenodd" clip-rule="evenodd" d="M235.598 393.626C234.407 395.32 232.91 396.752 231.186 397.856C229.454 398.956 227.532 399.694 225.541 400.026C224.63 400.186 223.798 399.552 223.687 398.639C223.575 397.711 224.229 396.846 225.14 396.686C226.678 396.43 228.162 395.861 229.493 395.006C230.832 394.156 231.989 393.047 232.911 391.736C233.827 390.433 234.479 388.97 234.826 387.422C235.18 385.88 235.214 384.291 234.934 382.757C234.776 381.845 235.37 380.937 236.28 380.729C237.177 380.524 238.055 381.093 238.213 382.005C238.574 383.99 238.53 386.049 238.081 388.05C237.624 390.046 236.784 391.94 235.598 393.626Z" fill="white"/>
<path fill-rule="evenodd" clip-rule="evenodd" d="M267.306 362.713C272.28 355.64 279.426 352.098 286.524 357.089C293.614 362.075 295.338 371.853 290.364 378.927C285.385 386.008 275.6 387.694 268.509 382.709C261.411 377.717 262.327 369.795 267.306 362.713Z" fill="#43A6F2"/>
<path fill-rule="evenodd" clip-rule="evenodd" d="M282.252 373.287C281.061 374.981 279.564 376.413 277.84 377.517C276.108 378.617 274.186 379.355 272.195 379.687C271.284 379.847 270.452 379.213 270.341 378.3C270.228 377.373 270.883 376.507 271.794 376.347C273.332 376.091 274.816 375.522 276.147 374.667C277.486 373.817 278.643 372.708 279.565 371.397C280.481 370.095 281.133 368.631 281.48 367.083C281.834 365.541 281.867 363.952 281.588 362.418C281.43 361.507 282.023 360.598 282.934 360.39C283.831 360.185 284.709 360.754 284.867 361.666C285.228 363.651 285.184 365.71 284.735 367.712C284.278 369.708 283.438 371.601 282.252 373.287Z" fill="white"/>
<path fill-rule="evenodd" clip-rule="evenodd" d="M313.96 342.375C318.933 335.301 326.079 331.759 333.177 336.75C340.268 341.736 341.991 351.515 337.018 358.588C332.038 365.669 322.253 367.356 315.163 362.37C308.064 357.379 308.981 349.456 313.96 342.375Z" fill="#43A6F2"/>
<path fill-rule="evenodd" clip-rule="evenodd" d="M328.905 352.948C327.714 354.642 326.217 356.074 324.493 357.179C322.762 358.278 320.839 359.016 318.848 359.348C317.938 359.508 317.105 358.875 316.994 357.961C316.882 357.034 317.536 356.168 318.447 356.008C319.985 355.752 321.469 355.183 322.8 354.328C324.14 353.478 325.296 352.369 326.218 351.058C327.134 349.756 327.787 348.292 328.133 346.744C328.487 345.202 328.521 343.613 328.242 342.079C328.084 341.168 328.677 340.259 329.587 340.051C330.485 339.846 331.362 340.416 331.52 341.327C331.881 343.312 331.837 345.371 331.388 347.373C330.932 349.369 330.091 351.262 328.905 352.948Z" fill="white"/>
<path fill-rule="evenodd" clip-rule="evenodd" d="M360.613 322.037C365.586 314.963 372.732 311.421 379.83 316.412C386.92 321.398 388.644 331.177 383.67 338.25C378.691 345.331 368.906 347.018 361.816 342.032C354.717 337.041 355.633 329.118 360.613 322.037Z" fill="#43A6F2"/>
<path fill-rule="evenodd" clip-rule="evenodd" d="M375.558 332.61C374.367 334.304 372.87 335.736 371.146 336.841C369.414 337.94 367.492 338.678 365.501 339.01C364.59 339.17 363.758 338.537 363.647 337.623C363.535 336.696 364.189 335.83 365.1 335.671C366.638 335.414 368.122 334.846 369.453 333.99C370.792 333.141 371.949 332.031 372.871 330.72C373.787 329.418 374.439 327.954 374.786 326.406C375.14 324.864 375.174 323.275 374.894 321.741C374.736 320.83 375.33 319.921 376.24 319.714C377.137 319.508 378.015 320.078 378.173 320.989C378.534 322.975 378.49 325.033 378.041 327.035C377.584 329.031 376.744 330.924 375.558 332.61Z" fill="white"/>
<path fill-rule="evenodd" clip-rule="evenodd" d="M146.435 467.511C151.409 460.438 158.554 456.895 165.653 461.887C172.743 466.872 174.467 476.651 169.493 483.725C164.514 490.806 154.729 492.492 147.638 487.507C140.54 482.515 141.456 474.593 146.435 467.511Z" fill="#43A6F2"/>
<path fill-rule="evenodd" clip-rule="evenodd" d="M193.088 447.172C198.061 440.099 205.207 436.557 212.305 441.548C219.396 446.534 221.119 456.312 216.146 463.386C211.166 470.467 201.381 472.153 194.291 467.168C187.192 462.176 188.108 454.254 193.088 447.172Z" fill="#43A6F2"/>
<path fill-rule="evenodd" clip-rule="evenodd" d="M208.033 457.746C206.842 459.44 205.345 460.872 203.621 461.976C201.89 463.076 199.967 463.814 197.976 464.146C197.065 464.306 196.233 463.672 196.122 462.759C196.01 461.832 196.664 460.966 197.575 460.806C199.113 460.55 200.597 459.981 201.928 459.126C203.268 458.276 204.424 457.167 205.346 455.856C206.262 454.554 206.915 453.09 207.261 451.542C207.615 450 207.649 448.411 207.369 446.877C207.212 445.966 207.805 445.057 208.715 444.849C209.613 444.644 210.49 445.213 210.648 446.125C211.009 448.11 210.965 450.169 210.516 452.171C210.06 454.167 209.219 456.06 208.033 457.746Z" fill="white"/>
<path fill-rule="evenodd" clip-rule="evenodd" d="M239.74 426.835C244.714 419.761 251.859 416.219 258.958 421.21C266.048 426.196 267.771 435.974 262.798 443.048C257.819 450.129 248.033 451.815 240.943 446.83C233.845 441.839 234.761 433.916 239.74 426.835Z" fill="#43A6F2"/>
<path fill-rule="evenodd" clip-rule="evenodd" d="M254.686 437.408C253.494 439.102 251.997 440.534 250.273 441.639C248.542 442.738 246.619 443.476 244.629 443.808C243.718 443.968 242.885 443.335 242.775 442.421C242.662 441.494 243.316 440.628 244.227 440.468C245.765 440.212 247.249 439.643 248.581 438.788C249.92 437.938 251.077 436.829 251.998 435.518C252.914 434.216 253.567 432.752 253.913 431.204C254.268 429.662 254.301 428.073 254.022 426.539C253.864 425.628 254.457 424.719 255.368 424.511C256.265 424.306 257.142 424.876 257.3 425.787C257.661 427.772 257.617 429.831 257.168 431.833C256.712 433.829 255.871 435.722 254.686 437.408Z" fill="white"/>
<path fill-rule="evenodd" clip-rule="evenodd" d="M286.394 406.496C291.367 399.422 298.513 395.88 305.611 400.871C312.702 405.857 314.425 415.636 309.452 422.709C304.472 429.79 294.687 431.477 287.597 426.491C280.498 421.5 281.415 413.577 286.394 406.496Z" fill="#43A6F2"/>
<path fill-rule="evenodd" clip-rule="evenodd" d="M301.339 417.069C300.148 418.763 298.651 420.195 296.927 421.3C295.196 422.399 293.273 423.137 291.283 423.469C290.372 423.629 289.539 422.996 289.428 422.082C289.316 421.155 289.97 420.289 290.881 420.13C292.419 419.873 293.903 419.305 295.235 418.449C296.574 417.6 297.73 416.49 298.652 415.179C299.568 413.877 300.221 412.413 300.567 410.865C300.922 409.323 300.955 407.734 300.676 406.2C300.518 405.289 301.111 404.38 302.021 404.172C302.919 403.967 303.796 404.537 303.954 405.448C304.315 407.434 304.271 409.492 303.822 411.494C303.366 413.49 302.525 415.383 301.339 417.069Z" fill="white"/>
<path fill-rule="evenodd" clip-rule="evenodd" d="M333.047 386.157C338.02 379.083 345.166 375.541 352.264 380.532C359.355 385.518 361.078 395.297 356.104 402.37C351.125 409.451 341.34 411.138 334.25 406.152C327.151 401.161 328.067 393.238 333.047 386.157Z" fill="#43A6F2"/>
<path fill-rule="evenodd" clip-rule="evenodd" d="M347.992 396.73C346.801 398.425 345.304 399.856 343.58 400.961C341.849 402.06 339.926 402.798 337.935 403.13C337.024 403.29 336.192 402.657 336.081 401.743C335.969 400.816 336.623 399.95 337.534 399.791C339.072 399.535 340.556 398.966 341.887 398.11C343.227 397.261 344.383 396.151 345.305 394.841C346.221 393.538 346.873 392.074 347.22 390.526C347.574 388.984 347.608 387.395 347.328 385.861C347.17 384.95 347.764 384.041 348.674 383.834C349.572 383.629 350.449 384.198 350.607 385.109C350.968 387.095 350.924 389.154 350.475 391.155C350.019 393.151 349.178 395.044 347.992 396.73Z" fill="white"/>
<path fill-rule="evenodd" clip-rule="evenodd" d="M379.7 365.819C384.673 358.746 391.819 355.203 398.917 360.194C406.007 365.18 407.731 374.959 402.757 382.032C397.778 389.114 387.993 390.8 380.902 385.814C373.804 380.823 374.72 372.9 379.7 365.819Z" fill="#43A6F2"/>
<path fill-rule="evenodd" clip-rule="evenodd" d="M394.645 376.392C393.454 378.087 391.957 379.518 390.233 380.623C388.501 381.722 386.579 382.461 384.588 382.793C383.677 382.952 382.845 382.319 382.734 381.405C382.621 380.478 383.276 379.612 384.187 379.453C385.725 379.197 387.209 378.628 388.54 377.773C389.879 376.923 391.036 375.813 391.958 374.503C392.874 373.2 393.526 371.736 393.873 370.188C394.227 368.646 394.26 367.057 393.981 365.523C393.823 364.612 394.417 363.703 395.327 363.496C396.224 363.291 397.102 363.86 397.26 364.771C397.621 366.757 397.577 368.816 397.128 370.817C396.671 372.813 395.831 374.706 394.645 376.392Z" fill="white"/>
<path fill-rule="evenodd" clip-rule="evenodd" d="M305.48 450.277C310.454 443.204 317.599 439.661 324.698 444.652C331.788 449.638 333.512 459.417 328.538 466.49C323.559 473.572 313.774 475.258 306.683 470.272C299.585 465.281 300.501 457.358 305.48 450.277Z" fill="#43A6F2"/>
<path fill-rule="evenodd" clip-rule="evenodd" d="M320.426 460.85C319.235 462.545 317.737 463.976 316.014 465.081C314.282 466.18 312.36 466.919 310.369 467.251C309.458 467.41 308.625 466.777 308.515 465.863C308.402 464.936 309.057 464.07 309.967 463.911C311.505 463.655 312.989 463.086 314.321 462.231C315.66 461.381 316.817 460.271 317.738 458.961C318.654 457.658 319.307 456.194 319.654 454.646C320.008 453.104 320.041 451.515 319.762 449.981C319.604 449.07 320.197 448.161 321.108 447.954C322.005 447.749 322.883 448.318 323.041 449.229C323.402 451.215 323.357 453.274 322.909 455.275C322.452 457.271 321.612 459.164 320.426 460.85Z" fill="white"/>
<path fill-rule="evenodd" clip-rule="evenodd" d="M352.134 429.939C357.107 422.866 364.253 419.323 371.351 424.315C378.441 429.3 380.165 439.079 375.191 446.152C370.212 453.234 360.427 454.92 353.337 449.934C346.238 444.943 347.154 437.02 352.134 429.939Z" fill="#43A6F2"/>
<path fill-rule="evenodd" clip-rule="evenodd" d="M367.079 440.513C365.888 442.207 364.391 443.638 362.667 444.743C360.935 445.842 359.013 446.581 357.022 446.913C356.111 447.072 355.279 446.439 355.168 445.525C355.056 444.598 355.71 443.733 356.621 443.573C358.159 443.317 359.643 442.748 360.974 441.893C362.313 441.043 363.47 439.933 364.392 438.623C365.308 437.32 365.96 435.856 366.307 434.309C366.661 432.766 366.695 431.177 366.415 429.643C366.257 428.732 366.851 427.824 367.761 427.616C368.658 427.411 369.536 427.98 369.694 428.891C370.055 430.877 370.011 432.936 369.562 434.937C369.105 436.933 368.265 438.826 367.079 440.513Z" fill="white"/>
</g>
</svg>
