<svg width="99" height="25" viewBox="0 0 99 25" fill="none" xmlns="http://www.w3.org/2000/svg">
<g clip-path="url(#clip0_9134_65580)">
<path d="M1.76954 23.2426C3.53907 25 6.38704 25 12.083 25H13.0899C18.7859 25 21.6339 25 23.4034 23.2426C25.173 21.4853 25.173 18.6568 25.173 12.9999V11.9999C25.173 6.34309 25.173 3.5146 23.4034 1.75726C21.6339 0 18.7859 0 13.0899 0H12.083C6.38704 0 3.53907 0 1.76954 1.75726C0 3.5146 0 6.34309 0 11.9999V12.9999C0 18.6568 0 21.4853 1.76954 23.2426Z" fill="#0077FF"/>
<path fill-rule="evenodd" clip-rule="evenodd" d="M19.4349 16.6166L17.734 16.1946C17.5292 16.1363 17.3846 15.9533 17.3773 15.7405L17.165 9.52338C17.1036 8.70047 16.4886 8.046 15.8458 7.85326C15.8098 7.84244 15.7712 7.85704 15.7499 7.8879C15.7281 7.91919 15.7365 7.96255 15.7668 7.98588C15.9255 8.10787 16.3624 8.50606 16.3624 9.19293L16.3611 17.3217C16.3611 18.1066 15.6143 18.6822 14.8439 18.4911L13.1168 18.0626C12.9253 17.9961 12.7923 17.819 12.7853 17.6146L12.5731 11.3971C12.5117 10.5742 11.8966 9.91975 11.2538 9.72701C11.2178 9.71618 11.1792 9.73078 11.1578 9.76157C11.1362 9.79293 11.1445 9.8363 11.1748 9.85955C11.3336 9.98162 11.7704 10.3798 11.7704 11.0666L11.7691 17.8424L11.77 17.8425V19.1961C11.77 19.9811 11.0232 20.5568 10.2529 20.3656L5.37444 19.1554C4.69626 18.9871 4.2207 18.3846 4.2207 17.6935V9.55208C4.2207 8.76716 4.96749 8.19146 5.73785 8.3826L8.81174 9.14523V7.67757C8.81174 6.89265 9.5586 6.31702 10.329 6.50808L13.4027 7.27065V5.80306C13.4027 5.01807 14.1495 4.44244 14.9199 4.63357L19.7983 5.84384C20.4765 6.01206 20.952 6.61458 20.952 7.30564V15.4471C20.952 16.232 20.2052 16.8077 19.4349 16.6166Z" fill="white"/>
<path d="M39.3414 14.3628C41.2315 13.8801 42.4734 12.4321 42.4734 10.5372C42.4734 8.1954 40.6014 6.55078 37.9734 6.55078H33.2935V19.1536H35.4534V14.5237H36.9834L40.3314 19.1536H42.8694L39.3414 14.3628ZM37.9734 8.51719C39.3234 8.51719 40.2595 9.33954 40.2595 10.5372C40.2595 11.7349 39.3234 12.5573 37.9734 12.5573H35.4534V8.51719H37.9734Z" fill="black"/>
<path d="M47.7307 19.3319C48.8647 19.3319 49.9087 18.742 50.5027 17.7588L50.9167 19.1532H52.4647V9.85742H50.3947V15.2382C50.3947 16.5611 49.5127 17.4907 48.3067 17.4907C47.1187 17.4907 46.2907 16.5611 46.2907 15.2382V9.85742H44.2207V15.4706C44.2207 17.7052 45.7327 19.3319 47.7307 19.3319Z" fill="black"/>
<path d="M59.0705 19.3325C61.4645 19.3325 63.445 17.9738 63.445 15.7214C63.445 13.2008 61.3749 12.468 59.5928 11.8601C58.2066 11.3953 57.0005 10.9663 57.0005 9.84009C57.0005 8.85692 57.9187 8.33848 58.9985 8.33848C60.1327 8.33848 60.943 8.92842 61.3926 9.92947L63.445 9.58988C62.7971 7.62347 61.1589 6.37207 58.9266 6.37207C56.6229 6.37207 54.7868 7.69498 54.7868 9.94735C54.7868 12.4858 56.8565 13.183 58.6386 13.7729C60.0071 14.2198 61.2309 14.6488 61.2309 15.7929C61.2309 16.794 60.3127 17.3661 59.0889 17.3661C57.6851 17.3661 56.9285 16.7046 56.2629 15.5069L54.1748 15.8645C54.7868 17.9917 56.7309 19.3325 59.0705 19.3325Z" fill="black"/>
<path d="M69.0757 17.3653C68.3741 17.3653 68.0318 17.0256 68.0318 16.3284V11.6448H70.8218V9.85721H68.0318V7.17578H66.484L65.9618 9.85721H64.4316V11.6448H65.9618V16.3284C65.9618 18.1518 67.024 19.1529 69.0757 19.1529H70.8218L71.0018 17.3653H69.0757Z" fill="black"/>
<path d="M76.9166 19.332C79.8512 19.332 81.9206 17.3298 81.9206 14.5054C81.9206 11.6809 79.8512 9.67871 76.9166 9.67871C73.9826 9.67871 71.9126 11.6809 71.9126 14.5054C71.9126 17.3298 73.9826 19.332 76.9166 19.332ZM76.9166 17.455C75.2248 17.455 74.073 16.2573 74.073 14.5054C74.073 12.7535 75.2248 11.5557 76.9166 11.5557C78.6091 11.5557 79.7609 12.7535 79.7609 14.5054C79.7609 16.2573 78.6091 17.455 76.9166 17.455Z" fill="black"/>
<path d="M85.7908 19.1532V13.6651C85.7908 12.4853 86.3667 11.8238 87.6272 11.8238H88.815L88.6351 9.85742H88.2391C87.1409 9.85742 86.2947 10.1613 85.6651 11.1982L85.2692 9.85742H83.7207V19.1532H85.7908Z" fill="black"/>
<path d="M98.9998 14.3981C98.9998 11.7166 96.9841 9.67871 94.1398 9.67871C91.2962 9.67871 89.2798 11.6988 89.2798 14.5054C89.2798 17.3119 91.2962 19.332 94.1398 19.332C96.0842 19.332 97.92 18.4203 98.6222 16.6505L96.6778 16.3287C96.2282 16.9902 95.3643 17.455 94.2661 17.455C92.6824 17.455 91.6378 16.4896 91.4402 15.0595H98.9638C98.9822 14.8629 98.9998 14.6483 98.9998 14.3981ZM94.1398 11.4664C95.4363 11.4664 96.4082 12.2887 96.7498 13.4506H91.5658C91.9081 12.2529 92.88 11.4664 94.1398 11.4664Z" fill="black"/>
</g>
<defs>
<clipPath id="clip0_9134_65580">
<rect width="99" height="25" fill="white"/>
</clipPath>
</defs>
</svg>
