<svg width="160" height="54" viewBox="0 0 160 54" fill="none" xmlns="http://www.w3.org/2000/svg">
<rect width="160" height="54" rx="12" fill="#323F4B"/>
<path d="M14.1101 39.728C16.2202 41.8028 19.6123 41.8028 26.4011 41.8028H27.5989C34.3877 41.8028 37.7797 41.8028 39.8899 39.728C42 37.6532 42 34.3104 42 27.6249V26.4445C42 19.7589 42 16.4162 39.8899 14.3414C37.7797 12.2666 34.383 12.2666 27.5989 12.2666H26.4011C19.6123 12.2666 16.2155 12.2666 14.1101 14.3414C12 16.4209 12 19.7636 12 26.4445V27.6249C12 34.3104 12 37.6532 14.1101 39.728Z" fill="#0077FF"/>
<path fill-rule="evenodd" clip-rule="evenodd" d="M35.1598 31.899L33.1339 31.4011C32.8907 31.3319 32.7176 31.1152 32.7082 30.8662L32.4556 23.5213C32.3807 22.5485 31.6508 21.7739 30.8834 21.5479C30.8413 21.5341 30.7946 21.5479 30.7712 21.5894C30.7431 21.6263 30.7572 21.677 30.7899 21.7047C30.9771 21.8476 31.5011 22.318 31.5011 23.1295V32.7335C31.5011 33.6602 30.6074 34.3426 29.6904 34.1167L27.6317 33.6095C27.4024 33.5311 27.2434 33.3236 27.2387 33.0793L26.9861 25.7344C26.9112 24.7616 26.1813 23.987 25.4141 23.7611C25.3719 23.7473 25.3252 23.7611 25.3017 23.8025C25.2737 23.8394 25.2877 23.8901 25.3204 23.9178C25.5076 24.0607 26.0316 24.5311 26.0316 25.3426V33.3468V34.9466C26.0316 35.8733 25.1427 36.5558 24.2257 36.3298L18.4147 34.9005C17.6052 34.7022 17.0391 33.9876 17.0391 33.1715V23.5536C17.0391 22.6269 17.9281 21.9445 18.8451 22.1704L22.5086 23.0695V21.3359C22.5086 20.4091 23.3974 19.7267 24.3146 19.9526L27.9779 20.8517V19.1181C27.9779 18.1914 28.8669 17.509 29.7839 17.7349L35.5949 19.1642C36.4043 19.3625 36.9704 20.0772 36.9704 20.8932V30.5112C36.9704 31.4379 36.0816 32.1203 35.1644 31.8943" fill="white"/>
<path d="M55.5365 19.7568C54.8261 19.7568 54.1875 19.5944 53.6206 19.2694C53.0539 18.9373 52.609 18.4782 52.286 17.8919C51.9704 17.3055 51.8125 16.645 51.8125 15.9103C51.8125 15.1755 51.9704 14.5185 52.286 13.9392C52.609 13.3529 53.0503 12.8972 53.6099 12.5723C54.1768 12.2402 54.8154 12.0742 55.5258 12.0742C56.2935 12.0742 56.9753 12.265 57.5708 12.6464C58.1735 13.0209 58.604 13.5295 58.8624 14.1724L57.7645 14.3419C57.5636 13.9463 57.2659 13.639 56.8711 13.42C56.4838 13.1939 56.046 13.0809 55.558 13.0809C55.0558 13.0809 54.6073 13.201 54.2126 13.4412C53.8251 13.6814 53.5203 14.017 53.2978 14.4479C53.0825 14.8718 52.9749 15.3592 52.9749 15.9103C52.9749 16.4684 53.0825 16.9628 53.2978 17.3938C53.5203 17.8177 53.8288 18.1497 54.2234 18.3899C54.6181 18.63 55.0701 18.7502 55.5796 18.7502C56.0819 18.7502 56.5268 18.6372 56.9143 18.4111C57.3089 18.178 57.6103 17.853 57.8184 17.4362L58.9161 17.6058C58.6435 18.2627 58.2023 18.7855 57.5923 19.174C56.9824 19.5626 56.2971 19.7568 55.5365 19.7568Z" fill="white"/>
<path d="M64.6471 19.6504H63.2586L61.2028 17.3827H60.8692V19.6504H59.8145V14.1719H60.8692V16.3866H61.1921L63.1617 14.1719H64.4318L62.0423 16.8211L64.6471 19.6504Z" fill="white"/>
<path d="M67.2637 14.0664C67.9525 14.0664 68.4942 14.2889 68.889 14.734C69.2907 15.172 69.4916 15.7866 69.4916 16.5779V19.6509H68.7382L68.4907 18.7926C68.3114 19.068 68.071 19.2977 67.7696 19.4814C67.4682 19.665 67.1059 19.7568 66.6825 19.7568C66.3094 19.7568 65.9757 19.6828 65.6815 19.5343C65.3874 19.386 65.1577 19.1811 64.9926 18.9197C64.8276 18.6513 64.7451 18.351 64.7451 18.019C64.7451 17.5032 64.9532 17.09 65.3694 16.7792C65.7855 16.4684 66.3882 16.3129 67.1776 16.3129H68.4369C68.4081 15.8819 68.2862 15.5499 68.071 15.3168C67.8556 15.0766 67.5686 14.9565 67.2099 14.9565C66.9372 14.9565 66.6969 15.0201 66.4887 15.1472C66.2806 15.2745 66.1227 15.4405 66.0151 15.6453L65.0357 15.4864C65.1792 15.0484 65.4555 14.7022 65.8645 14.4479C66.2735 14.1936 66.7399 14.0664 67.2637 14.0664ZM66.9085 18.8774C67.3606 18.8774 67.7265 18.7326 68.0064 18.4429C68.2934 18.1461 68.4369 17.74 68.4369 17.2242V17.1606H67.2099C66.2771 17.1606 65.8106 17.4362 65.8106 17.9873C65.8106 18.2557 65.9111 18.4712 66.112 18.6336C66.313 18.7961 66.5785 18.8774 66.9085 18.8774Z" fill="white"/>
<path d="M73.7322 17.6582C73.56 17.7359 73.3555 17.796 73.1187 17.8383C72.8819 17.8808 72.6487 17.902 72.4192 17.902C71.7518 17.902 71.2388 17.7182 70.8799 17.3509C70.5212 16.9835 70.3418 16.4643 70.3418 15.7932V14.1719H71.3965V15.7932C71.3965 16.5774 71.7805 16.9695 72.5483 16.9695C73.0147 16.9695 73.4093 16.8881 73.7322 16.7257V14.1719H74.787V19.6504H73.7322V17.6582Z" fill="white"/>
<path d="M78.3271 14.0664C79.016 14.0664 79.5577 14.2889 79.9523 14.734C80.3542 15.172 80.5551 15.7866 80.5551 16.5779V19.6509H79.8017L79.5541 18.7926C79.3747 19.068 79.1343 19.2977 78.833 19.4814C78.5316 19.665 78.1692 19.7568 77.746 19.7568C77.3728 19.7568 77.0391 19.6828 76.745 19.5343C76.4507 19.386 76.2211 19.1811 76.0561 18.9197C75.8911 18.6513 75.8086 18.351 75.8086 18.019C75.8086 17.5032 76.0166 17.09 76.4328 16.7792C76.849 16.4684 77.4517 16.3129 78.241 16.3129H79.5003C79.4716 15.8819 79.3496 15.5499 79.1343 15.3168C78.9191 15.0766 78.6321 14.9565 78.2733 14.9565C78.0006 14.9565 77.7602 15.0201 77.5522 15.1472C77.3441 15.2745 77.1862 15.4405 77.0786 15.6453L76.0991 15.4864C76.2427 15.0484 76.519 14.7022 76.928 14.4479C77.337 14.1936 77.8033 14.0664 78.3271 14.0664ZM77.972 18.8774C78.424 18.8774 78.79 18.7326 79.0698 18.4429C79.3568 18.1461 79.5003 17.74 79.5003 17.2242V17.1606H78.2733C77.3405 17.1606 76.8741 17.4362 76.8741 17.9873C76.8741 18.2557 76.9746 18.4712 77.1755 18.6336C77.3763 18.7961 77.6418 18.8774 77.972 18.8774Z" fill="white"/>
<path d="M83.3966 19.6509H81.8359V14.1723H82.8584V18.4853H83.0199L85.2694 14.1723H86.8301V19.6509H85.8076V15.3485H85.6461L83.3966 19.6509ZM84.3438 13.4624C83.8773 13.4624 83.4863 13.3423 83.1706 13.1021C82.8621 12.8548 82.6791 12.4875 82.6217 12H83.4827C83.5186 12.2261 83.6083 12.3991 83.7518 12.5192C83.9024 12.6323 84.0998 12.6888 84.3438 12.6888C84.5877 12.6888 84.7814 12.6323 84.9249 12.5192C85.0757 12.3991 85.1653 12.2261 85.1941 12H86.0659C86.0013 12.4875 85.8112 12.8548 85.4954 13.1021C85.1869 13.3423 84.8029 13.4624 84.3438 13.4624Z" fill="white"/>
<path d="M90.6044 19.6504H89.5497V15.1256H87.623V14.1719H92.531V15.1256H90.6044V19.6504Z" fill="white"/>
<path d="M98.5111 16.8746C98.5111 17.0159 98.5076 17.1253 98.5004 17.2031H93.9045C93.9619 17.6905 94.1556 18.0791 94.4858 18.3686C94.8159 18.6583 95.2356 18.8032 95.745 18.8032C96.0966 18.8032 96.4088 18.736 96.6814 18.6019C96.9613 18.4606 97.173 18.2768 97.3165 18.0508L98.3066 18.2098C98.0914 18.7043 97.7434 19.0858 97.2626 19.3542C96.7891 19.6227 96.2616 19.7568 95.6805 19.7568C95.128 19.7568 94.6329 19.6367 94.1951 19.3966C93.7574 19.1494 93.4166 18.8102 93.1726 18.3794C92.9286 17.9484 92.8066 17.4609 92.8066 16.9169C92.8066 16.366 92.9286 15.8749 93.1726 15.4439C93.4166 15.0131 93.7539 14.6775 94.1844 14.4373C94.6149 14.19 95.1064 14.0664 95.6589 14.0664C96.2043 14.0664 96.6923 14.19 97.1228 14.4373C97.5604 14.6775 97.9013 15.0131 98.1453 15.4439C98.3893 15.8679 98.5111 16.3447 98.5111 16.8746ZM95.6589 14.9884C95.2356 14.9884 94.8696 15.1119 94.5611 15.3592C94.2598 15.6065 94.0588 15.9386 93.9584 16.3553H97.3595C97.2663 15.9456 97.0654 15.6171 96.7568 15.3699C96.4554 15.1155 96.0895 14.9884 95.6589 14.9884Z" fill="white"/>
<path d="M103.252 19.6504H101.691V14.1719H102.714V18.4848H102.875L105.125 14.1719H106.685V19.6504H105.663V15.3481H105.502L103.252 19.6504Z" fill="white"/>
<path d="M111.063 16.8533C111.357 16.9381 111.601 17.0935 111.794 17.3196C111.988 17.5387 112.085 17.8107 112.085 18.1356C112.085 18.4393 111.995 18.7148 111.816 18.9621C111.637 19.2023 111.378 19.3966 111.041 19.5449C110.711 19.6862 110.327 19.7568 109.889 19.7568C109.301 19.7568 108.795 19.6227 108.372 19.3542C107.948 19.0787 107.669 18.7114 107.532 18.2521L108.512 18.0932C108.748 18.6019 109.204 18.8561 109.879 18.8561C110.252 18.8561 110.535 18.789 110.729 18.6548C110.93 18.5135 111.03 18.3193 111.03 18.0719C111.03 17.853 110.937 17.6764 110.75 17.5421C110.571 17.408 110.28 17.3408 109.879 17.3408H109.147V16.4295H109.879C110.223 16.4295 110.485 16.366 110.664 16.2387C110.851 16.1116 110.944 15.942 110.944 15.7301C110.944 15.504 110.844 15.3204 110.643 15.1791C110.449 15.0378 110.209 14.9672 109.922 14.9672C109.642 14.9672 109.391 15.0343 109.168 15.1685C108.946 15.3027 108.777 15.4864 108.662 15.7195L107.683 15.5499C107.848 15.0766 108.131 14.7128 108.533 14.4585C108.942 14.1971 109.416 14.0664 109.954 14.0664C110.341 14.0664 110.689 14.1335 110.998 14.2677C111.314 14.402 111.558 14.5892 111.73 14.8293C111.909 15.0696 111.999 15.338 111.999 15.6347C111.999 15.9386 111.913 16.1964 111.741 16.4083C111.568 16.6202 111.342 16.7686 111.063 16.8533Z" fill="white"/>
<path d="M51.5117 40.9999V26.1949H58.2317C59.8977 26.1949 61.1857 26.5939 62.0957 27.3919C63.0057 28.1759 63.4607 29.2749 63.4607 30.6889C63.4607 31.6129 63.2507 32.4109 62.8307 33.0829C62.4247 33.7409 61.8367 34.2519 61.0667 34.6159C60.3107 34.9659 59.4007 35.1409 58.3367 35.1409L58.5887 34.6789H59.4497C60.0517 34.6789 60.5837 34.8399 61.0457 35.1619C61.5217 35.4839 61.9137 35.9529 62.2217 36.5689L64.4267 40.9999H60.8147L58.5257 36.2329C58.3577 35.8269 58.0917 35.5609 57.7277 35.4349C57.3777 35.2949 56.9717 35.2249 56.5097 35.2249H54.7877V40.9999H51.5117ZM54.7877 32.8729H57.6647C58.5187 32.8729 59.1697 32.6979 59.6177 32.3479C60.0657 31.9979 60.2897 31.4799 60.2897 30.7939C60.2897 30.1079 60.0657 29.5969 59.6177 29.2609C59.1697 28.9109 58.5187 28.7359 57.6647 28.7359H54.7877V32.8729Z" fill="white"/>
<path d="M70.0339 41.2309C68.7039 41.2309 67.7169 40.8669 67.0729 40.1389C66.4289 39.3969 66.1069 38.2769 66.1069 36.7789V30.3529H69.2779V36.7789C69.2779 37.4509 69.4109 37.9479 69.6769 38.2699C69.9569 38.5919 70.3839 38.7529 70.9579 38.7529C71.5879 38.7529 72.1059 38.5359 72.5119 38.1019C72.9319 37.6539 73.1419 37.0589 73.1419 36.3169V30.3529H76.3129V40.9999H73.2259V38.9629H73.5199C73.1979 39.6769 72.7359 40.2369 72.1339 40.6429C71.5459 41.0349 70.8459 41.2309 70.0339 41.2309Z" fill="white"/>
<path d="M84.4907 41.2309C83.3007 41.2309 82.1877 41.0839 81.1517 40.7899C80.1157 40.4959 79.2337 40.0899 78.5057 39.5719L79.4717 37.0099C79.9477 37.3319 80.4517 37.6049 80.9837 37.8289C81.5157 38.0529 82.0757 38.2279 82.6637 38.3539C83.2517 38.4659 83.8677 38.5219 84.5117 38.5219C85.5197 38.5219 86.2337 38.3679 86.6537 38.0599C87.0877 37.7519 87.3047 37.3599 87.3047 36.8839C87.3047 36.4499 87.1577 36.1209 86.8637 35.8969C86.5837 35.6589 86.0657 35.4559 85.3097 35.2879L82.8317 34.7839C81.4737 34.5039 80.4587 34.0279 79.7867 33.3559C79.1147 32.6839 78.7787 31.7879 78.7787 30.6679C78.7787 29.7159 79.0307 28.8899 79.5347 28.1899C80.0387 27.4899 80.7457 26.9439 81.6557 26.5519C82.5797 26.1599 83.6577 25.9639 84.8897 25.9639C85.9397 25.9639 86.9197 26.1109 87.8297 26.4049C88.7397 26.6989 89.4887 27.1189 90.0767 27.6649L89.1107 30.0589C88.5367 29.5969 87.8927 29.2539 87.1787 29.0299C86.4787 28.7919 85.6947 28.6729 84.8267 28.6729C83.9167 28.6729 83.2167 28.8339 82.7267 29.1559C82.2507 29.4779 82.0127 29.9189 82.0127 30.4789C82.0127 30.8989 82.1597 31.2419 82.4537 31.5079C82.7477 31.7599 83.2657 31.9629 84.0077 32.1169L86.4437 32.5999C87.8297 32.8799 88.8587 33.3489 89.5307 34.0069C90.2027 34.6649 90.5387 35.5399 90.5387 36.6319C90.5387 37.5559 90.2867 38.3609 89.7827 39.0469C89.2927 39.7329 88.5927 40.2719 87.6827 40.6639C86.7867 41.0419 85.7227 41.2309 84.4907 41.2309Z" fill="white"/>
<path d="M97.5815 41.2309C96.1955 41.2309 95.1525 40.8879 94.4525 40.2019C93.7525 39.5019 93.4025 38.4589 93.4025 37.0729V32.7259H91.3865V30.3529H93.4025V27.7489L96.5735 26.9719V30.3529H99.3035V32.7259H96.5735V36.9049C96.5735 37.5769 96.7135 38.0389 96.9935 38.2909C97.2735 38.5429 97.6305 38.6689 98.0645 38.6689C98.3305 38.6689 98.5475 38.6549 98.7155 38.6269C98.8975 38.5849 99.0865 38.5289 99.2825 38.4589V40.9159C99.0165 41.0279 98.7365 41.1049 98.4425 41.1469C98.1485 41.2029 97.8615 41.2309 97.5815 41.2309Z" fill="white"/>
<path d="M105.868 41.2309C104.734 41.2309 103.747 41.0069 102.907 40.5589C102.081 40.0969 101.437 39.4529 100.975 38.6269C100.527 37.8009 100.303 36.8139 100.303 35.6659C100.303 34.5319 100.527 33.5519 100.975 32.7259C101.437 31.8999 102.081 31.2629 102.907 30.8149C103.747 30.3669 104.734 30.1429 105.868 30.1429C107.002 30.1429 107.989 30.3669 108.829 30.8149C109.669 31.2629 110.313 31.8999 110.761 32.7259C111.223 33.5519 111.454 34.5319 111.454 35.6659C111.454 36.8139 111.223 37.8009 110.761 38.6269C110.313 39.4529 109.669 40.0969 108.829 40.5589C107.989 41.0069 107.002 41.2309 105.868 41.2309ZM105.868 38.8369C106.596 38.8369 107.17 38.5779 107.59 38.0599C108.024 37.5419 108.241 36.7439 108.241 35.6659C108.241 34.5879 108.024 33.7969 107.59 33.2929C107.17 32.7889 106.596 32.5369 105.868 32.5369C105.14 32.5369 104.559 32.7889 104.125 33.2929C103.705 33.7969 103.495 34.5879 103.495 35.6659C103.495 36.7439 103.705 37.5419 104.125 38.0599C104.559 38.5779 105.14 38.8369 105.868 38.8369Z" fill="white"/>
<path d="M113.481 40.9999V33.1669C113.481 32.7049 113.467 32.2359 113.439 31.7599C113.425 31.2839 113.39 30.8149 113.334 30.3529H116.379L116.736 33.4609H116.253C116.393 32.7049 116.617 32.0819 116.925 31.5919C117.247 31.1019 117.639 30.7379 118.101 30.4999C118.577 30.2619 119.116 30.1429 119.718 30.1429C119.984 30.1429 120.194 30.1569 120.348 30.1849C120.502 30.1989 120.656 30.2339 120.81 30.2899L120.789 33.0829C120.495 32.9569 120.243 32.8799 120.033 32.8519C119.837 32.8099 119.585 32.7889 119.277 32.7889C118.689 32.7889 118.199 32.9009 117.807 33.1249C117.429 33.3489 117.142 33.6779 116.946 34.1119C116.764 34.5459 116.673 35.0709 116.673 35.6869V40.9999H113.481Z" fill="white"/>
<path d="M127.306 41.2309C125.458 41.2309 124.016 40.7339 122.98 39.7399C121.944 38.7459 121.426 37.3949 121.426 35.6869C121.426 34.5809 121.643 33.6149 122.077 32.7889C122.525 31.9629 123.141 31.3189 123.925 30.8569C124.723 30.3809 125.654 30.1429 126.718 30.1429C127.768 30.1429 128.643 30.3669 129.343 30.8149C130.057 31.2629 130.589 31.8929 130.939 32.7049C131.303 33.5029 131.485 34.4339 131.485 35.4979V36.2329H124.03V34.6579H129.175L128.818 34.9519C128.818 34.0699 128.636 33.4049 128.272 32.9569C127.922 32.4949 127.411 32.2639 126.739 32.2639C125.997 32.2639 125.423 32.5369 125.017 33.0829C124.625 33.6289 124.429 34.4129 124.429 35.4349V35.7709C124.429 36.8069 124.681 37.5769 125.185 38.0809C125.703 38.5849 126.445 38.8369 127.411 38.8369C127.985 38.8369 128.524 38.7669 129.028 38.6269C129.546 38.4729 130.036 38.2349 130.498 37.9129L131.38 40.0129C130.848 40.4049 130.232 40.7059 129.532 40.9159C128.846 41.1259 128.104 41.2309 127.306 41.2309Z" fill="white"/>
</svg>
