<svg width="435" height="134" viewBox="0 0 435 134" fill="none" xmlns="http://www.w3.org/2000/svg">
<path d="M36 1V105" stroke="#F0F0F0"/>
<path d="M167 1L167.003 104" stroke="#F0F0F0"/>
<path d="M295 1L294.894 104" stroke="#F0F0F0"/>
<path d="M434 1V105" stroke="#F0F0F0"/>
<path d="M36 57L434 57" stroke="#F0F0F0"/>
<path d="M36 1H434" stroke="#F0F0F0"/>
<path d="M168.013 32.2841C101.353 32.2841 36 24 36 24V105H434V47.0114C434 47.0114 366.686 40.5682 300.026 40.5682C233.366 40.5682 233.366 32.2841 168.013 32.2841Z" fill="#A6CEE3" fill-opacity="0.8"/>
<path d="M4.2 109.126C3.08 109.126 2.22133 108.692 1.624 107.824C1.02667 106.956 0.728 105.701 0.728 104.058C0.728 102.406 1.02667 101.151 1.624 100.292C2.22133 99.4333 3.08 99.004 4.2 99.004C5.32933 99.004 6.188 99.4333 6.776 100.292C7.37333 101.151 7.672 102.401 7.672 104.044C7.672 105.696 7.37333 106.956 6.776 107.824C6.17867 108.692 5.32 109.126 4.2 109.126ZM4.2 108.118C4.984 108.118 5.56733 107.787 5.95 107.124C6.33267 106.461 6.524 105.435 6.524 104.044C6.524 102.644 6.33267 101.622 5.95 100.978C5.56733 100.325 4.984 99.998 4.2 99.998C3.42533 99.998 2.842 100.325 2.45 100.978C2.06733 101.631 1.876 102.653 1.876 104.044C1.876 105.435 2.06733 106.461 2.45 107.124C2.842 107.787 3.42533 108.118 4.2 108.118Z" fill="#7B8794"/>
<path d="M1.778 11V10.006H4.102V2.124H4.718L2.002 3.818V2.656L4.424 1.13H5.264V10.006H7.448V11H1.778ZM12.5945 11.126C11.4745 11.126 10.6159 10.692 10.0185 9.824C9.4212 8.956 9.12253 7.70067 9.12253 6.058C9.12253 4.406 9.4212 3.15067 10.0185 2.292C10.6159 1.43333 11.4745 1.004 12.5945 1.004C13.7239 1.004 14.5825 1.43333 15.1705 2.292C15.7679 3.15067 16.0665 4.40133 16.0665 6.044C16.0665 7.696 15.7679 8.956 15.1705 9.824C14.5732 10.692 13.7145 11.126 12.5945 11.126ZM12.5945 10.118C13.3785 10.118 13.9619 9.78667 14.3445 9.124C14.7272 8.46133 14.9185 7.43467 14.9185 6.044C14.9185 4.644 14.7272 3.622 14.3445 2.978C13.9619 2.32467 13.3785 1.998 12.5945 1.998C11.8199 1.998 11.2365 2.32467 10.8445 2.978C10.4619 3.63133 10.2705 4.65333 10.2705 6.044C10.2705 7.43467 10.4619 8.46133 10.8445 9.124C11.2365 9.78667 11.8199 10.118 12.5945 10.118ZM20.9891 11.126C19.8691 11.126 19.0104 10.692 18.4131 9.824C17.8157 8.956 17.5171 7.70067 17.5171 6.058C17.5171 4.406 17.8157 3.15067 18.4131 2.292C19.0104 1.43333 19.8691 1.004 20.9891 1.004C22.1184 1.004 22.9771 1.43333 23.5651 2.292C24.1624 3.15067 24.4611 4.40133 24.4611 6.044C24.4611 7.696 24.1624 8.956 23.5651 9.824C22.9677 10.692 22.1091 11.126 20.9891 11.126ZM20.9891 10.118C21.7731 10.118 22.3564 9.78667 22.7391 9.124C23.1217 8.46133 23.3131 7.43467 23.3131 6.044C23.3131 4.644 23.1217 3.622 22.7391 2.978C22.3564 2.32467 21.7731 1.998 20.9891 1.998C20.2144 1.998 19.6311 2.32467 19.2391 2.978C18.8564 3.63133 18.6651 4.65333 18.6651 6.044C18.6651 7.43467 18.8564 8.46133 19.2391 9.124C19.6311 9.78667 20.2144 10.118 20.9891 10.118Z" fill="#7B8794"/>
<path d="M4.382 62.126C3.95267 62.126 3.53267 62.0793 3.122 61.986C2.71133 61.8927 2.324 61.7573 1.96 61.58C1.60533 61.4027 1.29267 61.188 1.022 60.936L1.456 60.04C1.91333 60.404 2.38 60.6747 2.856 60.852C3.332 61.02 3.84067 61.104 4.382 61.104C5.09133 61.104 5.64667 60.9127 6.048 60.53C6.44933 60.1473 6.65 59.6433 6.65 59.018C6.65 58.374 6.45867 57.8467 6.076 57.436C5.69333 57.0253 5.16133 56.82 4.48 56.82C3.99467 56.82 3.56067 56.918 3.178 57.114C2.79533 57.3007 2.464 57.5947 2.184 57.996H1.344V52.13H7.196V53.11H2.464V57.044H2.156C2.408 56.652 2.75333 56.3533 3.192 56.148C3.64 55.9333 4.144 55.826 4.704 55.826C5.33867 55.826 5.88467 55.9567 6.342 56.218C6.80867 56.4793 7.168 56.8433 7.42 57.31C7.672 57.7767 7.798 58.3227 7.798 58.948C7.798 59.5733 7.658 60.1287 7.378 60.614C7.10733 61.09 6.71533 61.4633 6.202 61.734C5.698 61.9953 5.09133 62.126 4.382 62.126ZM12.5945 62.126C11.4745 62.126 10.6159 61.692 10.0185 60.824C9.4212 59.956 9.12253 58.7007 9.12253 57.058C9.12253 55.406 9.4212 54.1507 10.0185 53.292C10.6159 52.4333 11.4745 52.004 12.5945 52.004C13.7239 52.004 14.5825 52.4333 15.1705 53.292C15.7679 54.1507 16.0665 55.4013 16.0665 57.044C16.0665 58.696 15.7679 59.956 15.1705 60.824C14.5732 61.692 13.7145 62.126 12.5945 62.126ZM12.5945 61.118C13.3785 61.118 13.9619 60.7867 14.3445 60.124C14.7272 59.4613 14.9185 58.4347 14.9185 57.044C14.9185 55.644 14.7272 54.622 14.3445 53.978C13.9619 53.3247 13.3785 52.998 12.5945 52.998C11.8199 52.998 11.2365 53.3247 10.8445 53.978C10.4619 54.6313 10.2705 55.6533 10.2705 57.044C10.2705 58.4347 10.4619 59.4613 10.8445 60.124C11.2365 60.7867 11.8199 61.118 12.5945 61.118Z" fill="#7B8794"/>
<path d="M5.2 133.126C4.08 133.126 3.22133 132.692 2.624 131.824C2.02667 130.956 1.728 129.701 1.728 128.058C1.728 126.406 2.02667 125.151 2.624 124.292C3.22133 123.433 4.08 123.004 5.2 123.004C6.32933 123.004 7.188 123.433 7.776 124.292C8.37333 125.151 8.672 126.401 8.672 128.044C8.672 129.696 8.37333 130.956 7.776 131.824C7.17867 132.692 6.32 133.126 5.2 133.126ZM5.2 132.118C5.984 132.118 6.56733 131.787 6.95 131.124C7.33267 130.461 7.524 129.435 7.524 128.044C7.524 126.644 7.33267 125.622 6.95 124.978C6.56733 124.325 5.984 123.998 5.2 123.998C4.42533 123.998 3.842 124.325 3.45 124.978C3.06733 125.631 2.876 126.653 2.876 128.044C2.876 129.435 3.06733 130.461 3.45 131.124C3.842 131.787 4.42533 132.118 5.2 132.118ZM11.1725 133V132.006H13.4965V124.124H14.1125L11.3965 125.818V124.656L13.8185 123.13H14.6585V132.006H16.8425V133H11.1725ZM18.6711 133V131.572H20.0991V133H18.6711ZM25.1746 133.126C24.0546 133.126 23.1959 132.692 22.5986 131.824C22.0013 130.956 21.7026 129.701 21.7026 128.058C21.7026 126.406 22.0013 125.151 22.5986 124.292C23.1959 123.433 24.0546 123.004 25.1746 123.004C26.3039 123.004 27.1626 123.433 27.7506 124.292C28.3479 125.151 28.6466 126.401 28.6466 128.044C28.6466 129.696 28.3479 130.956 27.7506 131.824C27.1533 132.692 26.2946 133.126 25.1746 133.126ZM25.1746 132.118C25.9586 132.118 26.5419 131.787 26.9246 131.124C27.3073 130.461 27.4986 129.435 27.4986 128.044C27.4986 126.644 27.3073 125.622 26.9246 124.978C26.5419 124.325 25.9586 123.998 25.1746 123.998C24.3999 123.998 23.8166 124.325 23.4246 124.978C23.0419 125.631 22.8506 126.653 22.8506 128.044C22.8506 129.435 23.0419 130.461 23.4246 131.124C23.8166 131.787 24.3999 132.118 25.1746 132.118ZM31.1471 133V132.006H33.4711V124.124H34.0871L31.3711 125.818V124.656L33.7931 123.13H34.6331V132.006H36.8171V133H31.1471ZM38.6457 133V131.572H40.0737V133H38.6457ZM42.1532 133V132.132L45.6532 128.478C46.1106 128.002 46.4512 127.549 46.6752 127.12C46.9086 126.681 47.0252 126.229 47.0252 125.762C47.0252 125.193 46.8479 124.763 46.4932 124.474C46.1386 124.175 45.6252 124.026 44.9532 124.026C44.4306 124.026 43.9452 124.119 43.4972 124.306C43.0586 124.483 42.6339 124.768 42.2232 125.16L41.8032 124.25C42.1766 123.877 42.6526 123.578 43.2312 123.354C43.8099 123.121 44.4212 123.004 45.0652 123.004C46.0639 123.004 46.8339 123.237 47.3752 123.704C47.9166 124.161 48.1872 124.815 48.1872 125.664C48.1872 126.289 48.0332 126.887 47.7252 127.456C47.4266 128.016 46.9879 128.595 46.4092 129.192L43.3152 132.328V132.006H48.6072V133H42.1532ZM51.1218 133V132.006H53.4458V124.124H54.0618L51.3458 125.818V124.656L53.7678 123.13H54.6078V132.006H56.7918V133H51.1218Z" fill="#7B8794"/>
<path d="M126.331 133.126C125.211 133.126 124.352 132.692 123.755 131.824C123.158 130.956 122.859 129.701 122.859 128.058C122.859 126.406 123.158 125.151 123.755 124.292C124.352 123.433 125.211 123.004 126.331 123.004C127.46 123.004 128.319 123.433 128.907 124.292C129.504 125.151 129.803 126.401 129.803 128.044C129.803 129.696 129.504 130.956 128.907 131.824C128.31 132.692 127.451 133.126 126.331 133.126ZM126.331 132.118C127.115 132.118 127.698 131.787 128.081 131.124C128.464 130.461 128.655 129.435 128.655 128.044C128.655 126.644 128.464 125.622 128.081 124.978C127.698 124.325 127.115 123.998 126.331 123.998C125.556 123.998 124.973 124.325 124.581 124.978C124.198 125.631 124.007 126.653 124.007 128.044C124.007 129.435 124.198 130.461 124.581 131.124C124.973 131.787 125.556 132.118 126.331 132.118ZM132.303 133V132.006H134.627V124.124H135.243L132.527 125.818V124.656L134.949 123.13H135.789V132.006H137.973V133H132.303ZM139.802 133V131.572H141.23V133H139.802ZM146.305 133.126C145.185 133.126 144.327 132.692 143.729 131.824C143.132 130.956 142.833 129.701 142.833 128.058C142.833 126.406 143.132 125.151 143.729 124.292C144.327 123.433 145.185 123.004 146.305 123.004C147.435 123.004 148.293 123.433 148.881 124.292C149.479 125.151 149.777 126.401 149.777 128.044C149.777 129.696 149.479 130.956 148.881 131.824C148.284 132.692 147.425 133.126 146.305 133.126ZM146.305 132.118C147.089 132.118 147.673 131.787 148.055 131.124C148.438 130.461 148.629 129.435 148.629 128.044C148.629 126.644 148.438 125.622 148.055 124.978C147.673 124.325 147.089 123.998 146.305 123.998C145.531 123.998 144.947 124.325 144.555 124.978C144.173 125.631 143.981 126.653 143.981 128.044C143.981 129.435 144.173 130.461 144.555 131.124C144.947 131.787 145.531 132.118 146.305 132.118ZM151.704 133V132.132L155.204 128.478C155.661 128.002 156.002 127.549 156.226 127.12C156.459 126.681 156.576 126.229 156.576 125.762C156.576 125.193 156.399 124.763 156.044 124.474C155.689 124.175 155.176 124.026 154.504 124.026C153.981 124.026 153.496 124.119 153.048 124.306C152.609 124.483 152.185 124.768 151.774 125.16L151.354 124.25C151.727 123.877 152.203 123.578 152.782 123.354C153.361 123.121 153.972 123.004 154.616 123.004C155.615 123.004 156.385 123.237 156.926 123.704C157.467 124.161 157.738 124.815 157.738 125.664C157.738 126.289 157.584 126.887 157.276 127.456C156.977 128.016 156.539 128.595 155.96 129.192L152.866 132.328V132.006H158.158V133H151.704ZM159.777 133V131.572H161.205V133H159.777ZM163.284 133V132.132L166.784 128.478C167.241 128.002 167.582 127.549 167.806 127.12C168.039 126.681 168.156 126.229 168.156 125.762C168.156 125.193 167.979 124.763 167.624 124.474C167.269 124.175 166.756 124.026 166.084 124.026C165.561 124.026 165.076 124.119 164.628 124.306C164.189 124.483 163.765 124.768 163.354 125.16L162.934 124.25C163.307 123.877 163.783 123.578 164.362 123.354C164.941 123.121 165.552 123.004 166.196 123.004C167.195 123.004 167.965 123.237 168.506 123.704C169.047 124.161 169.318 124.815 169.318 125.664C169.318 126.289 169.164 126.887 168.856 127.456C168.557 128.016 168.119 128.595 167.54 129.192L164.446 132.328V132.006H169.738V133H163.284ZM172.253 133V132.006H174.577V124.124H175.193L172.477 125.818V124.656L174.899 123.13H175.739V132.006H177.923V133H172.253Z" fill="#7B8794"/>
<path d="M253.331 133.126C252.211 133.126 251.352 132.692 250.755 131.824C250.158 130.956 249.859 129.701 249.859 128.058C249.859 126.406 250.158 125.151 250.755 124.292C251.352 123.433 252.211 123.004 253.331 123.004C254.46 123.004 255.319 123.433 255.907 124.292C256.504 125.151 256.803 126.401 256.803 128.044C256.803 129.696 256.504 130.956 255.907 131.824C255.31 132.692 254.451 133.126 253.331 133.126ZM253.331 132.118C254.115 132.118 254.698 131.787 255.081 131.124C255.464 130.461 255.655 129.435 255.655 128.044C255.655 126.644 255.464 125.622 255.081 124.978C254.698 124.325 254.115 123.998 253.331 123.998C252.556 123.998 251.973 124.325 251.581 124.978C251.198 125.631 251.007 126.653 251.007 128.044C251.007 129.435 251.198 130.461 251.581 131.124C251.973 131.787 252.556 132.118 253.331 132.118ZM259.303 133V132.006H261.627V124.124H262.243L259.527 125.818V124.656L261.949 123.13H262.789V132.006H264.973V133H259.303ZM266.802 133V131.572H268.23V133H266.802ZM273.305 133.126C272.185 133.126 271.327 132.692 270.729 131.824C270.132 130.956 269.833 129.701 269.833 128.058C269.833 126.406 270.132 125.151 270.729 124.292C271.327 123.433 272.185 123.004 273.305 123.004C274.435 123.004 275.293 123.433 275.881 124.292C276.479 125.151 276.777 126.401 276.777 128.044C276.777 129.696 276.479 130.956 275.881 131.824C275.284 132.692 274.425 133.126 273.305 133.126ZM273.305 132.118C274.089 132.118 274.673 131.787 275.055 131.124C275.438 130.461 275.629 129.435 275.629 128.044C275.629 126.644 275.438 125.622 275.055 124.978C274.673 124.325 274.089 123.998 273.305 123.998C272.531 123.998 271.947 124.325 271.555 124.978C271.173 125.631 270.981 126.653 270.981 128.044C270.981 129.435 271.173 130.461 271.555 131.124C271.947 131.787 272.531 132.118 273.305 132.118ZM281.644 133.126C280.981 133.126 280.347 133.023 279.74 132.818C279.133 132.613 278.625 132.319 278.214 131.936L278.648 131.04C279.105 131.413 279.577 131.684 280.062 131.852C280.547 132.02 281.07 132.104 281.63 132.104C282.367 132.104 282.927 131.95 283.31 131.642C283.693 131.325 283.884 130.863 283.884 130.256C283.884 129.677 283.688 129.239 283.296 128.94C282.904 128.632 282.33 128.478 281.574 128.478H280.09V127.512H281.476C282.129 127.512 282.647 127.344 283.03 127.008C283.413 126.672 283.604 126.215 283.604 125.636C283.604 125.113 283.427 124.717 283.072 124.446C282.727 124.166 282.227 124.026 281.574 124.026C280.51 124.026 279.591 124.404 278.816 125.16L278.382 124.25C278.765 123.858 279.245 123.555 279.824 123.34C280.403 123.116 281.009 123.004 281.644 123.004C282.615 123.004 283.375 123.228 283.926 123.676C284.477 124.124 284.752 124.745 284.752 125.538C284.752 126.145 284.579 126.667 284.234 127.106C283.889 127.535 283.422 127.829 282.834 127.988V127.834C283.534 127.946 284.075 128.226 284.458 128.674C284.841 129.113 285.032 129.668 285.032 130.34C285.032 131.199 284.729 131.88 284.122 132.384C283.525 132.879 282.699 133.126 281.644 133.126ZM286.777 133V131.572H288.205V133H286.777ZM290.284 133V132.132L293.784 128.478C294.241 128.002 294.582 127.549 294.806 127.12C295.039 126.681 295.156 126.229 295.156 125.762C295.156 125.193 294.979 124.763 294.624 124.474C294.269 124.175 293.756 124.026 293.084 124.026C292.561 124.026 292.076 124.119 291.628 124.306C291.189 124.483 290.765 124.768 290.354 125.16L289.934 124.25C290.307 123.877 290.783 123.578 291.362 123.354C291.941 123.121 292.552 123.004 293.196 123.004C294.195 123.004 294.965 123.237 295.506 123.704C296.047 124.161 296.318 124.815 296.318 125.664C296.318 126.289 296.164 126.887 295.856 127.456C295.557 128.016 295.119 128.595 294.54 129.192L291.446 132.328V132.006H296.738V133H290.284ZM299.253 133V132.006H301.577V124.124H302.193L299.477 125.818V124.656L301.899 123.13H302.739V132.006H304.923V133H299.253Z" fill="#7B8794"/>
<path d="M381.462 133.126C380.342 133.126 379.483 132.692 378.886 131.824C378.288 130.956 377.99 129.701 377.99 128.058C377.99 126.406 378.288 125.151 378.886 124.292C379.483 123.433 380.342 123.004 381.462 123.004C382.591 123.004 383.45 123.433 384.038 124.292C384.635 125.151 384.934 126.401 384.934 128.044C384.934 129.696 384.635 130.956 384.038 131.824C383.44 132.692 382.582 133.126 381.462 133.126ZM381.462 132.118C382.246 132.118 382.829 131.787 383.212 131.124C383.594 130.461 383.786 129.435 383.786 128.044C383.786 126.644 383.594 125.622 383.212 124.978C382.829 124.325 382.246 123.998 381.462 123.998C380.687 123.998 380.104 124.325 379.712 124.978C379.329 125.631 379.138 126.653 379.138 128.044C379.138 129.435 379.329 130.461 379.712 131.124C380.104 131.787 380.687 132.118 381.462 132.118ZM387.434 133V132.006H389.758V124.124H390.374L387.658 125.818V124.656L390.08 123.13H390.92V132.006H393.104V133H387.434ZM394.933 133V131.572H396.361V133H394.933ZM401.436 133.126C400.316 133.126 399.458 132.692 398.86 131.824C398.263 130.956 397.964 129.701 397.964 128.058C397.964 126.406 398.263 125.151 398.86 124.292C399.458 123.433 400.316 123.004 401.436 123.004C402.566 123.004 403.424 123.433 404.012 124.292C404.61 125.151 404.908 126.401 404.908 128.044C404.908 129.696 404.61 130.956 404.012 131.824C403.415 132.692 402.556 133.126 401.436 133.126ZM401.436 132.118C402.22 132.118 402.804 131.787 403.186 131.124C403.569 130.461 403.76 129.435 403.76 128.044C403.76 126.644 403.569 125.622 403.186 124.978C402.804 124.325 402.22 123.998 401.436 123.998C400.662 123.998 400.078 124.325 399.686 124.978C399.304 125.631 399.112 126.653 399.112 128.044C399.112 129.435 399.304 130.461 399.686 131.124C400.078 131.787 400.662 132.118 401.436 132.118ZM411.035 133V130.858H406.331V130.018L411.217 123.13H412.169V129.92H413.681V130.858H412.169V133H411.035ZM411.035 129.92V124.502H411.343L407.283 130.214V129.92H411.035ZM414.907 133V131.572H416.335V133H414.907ZM418.415 133V132.132L421.915 128.478C422.372 128.002 422.713 127.549 422.937 127.12C423.17 126.681 423.287 126.229 423.287 125.762C423.287 125.193 423.11 124.763 422.755 124.474C422.4 124.175 421.887 124.026 421.215 124.026C420.692 124.026 420.207 124.119 419.759 124.306C419.32 124.483 418.896 124.768 418.485 125.16L418.065 124.25C418.438 123.877 418.914 123.578 419.493 123.354C420.072 123.121 420.683 123.004 421.327 123.004C422.326 123.004 423.096 123.237 423.637 123.704C424.178 124.161 424.449 124.815 424.449 125.664C424.449 126.289 424.295 126.887 423.987 127.456C423.688 128.016 423.25 128.595 422.671 129.192L419.577 132.328V132.006H424.869V133H418.415ZM427.383 133V132.006H429.707V124.124H430.323L427.607 125.818V124.656L430.029 123.13H430.869V132.006H433.053V133H427.383Z" fill="#7B8794"/>
</svg>
