<svg id="Wine" width="16" height="18" viewBox="0 0 16 18" fill="none" xmlns="http://www.w3.org/2000/svg">
<path d="M2.18121 3.0877C3.12859 3.0877 3.8966 2.3965 3.8966 1.54385C3.8966 0.691206 3.12859 0 2.18121 0C1.23383 0 0.46582 0.691206 0.46582 1.54385C0.46582 2.3965 1.23383 3.0877 2.18121 3.0877Z" fill="#E94444"></path>
<path d="M15.4586 2.08061C15.6434 1.85979 15.4683 1.54395 15.1612 1.54395H8.89503H2.62886C2.32171 1.54395 2.14667 1.85975 2.33144 2.08061L2.97062 2.84466L3.23402 3.01829L7.80921 8.47345C7.95003 8.64178 8.06886 8.80322 8.14316 9.00016C8.15859 9.04105 8.1007 9.18811 8.11312 9.22984C8.1623 9.39507 8.18765 9.56635 8.18765 9.73957V14.9143C8.18765 15.9979 7.35593 16.9487 6.17831 17.1747C6.14507 17.1811 6.11124 17.1872 6.07691 17.1932C6.07691 17.1932 5.18019 17.3084 5.00941 18.0002H8.89507H12.7807C12.6099 17.3085 11.7132 17.1932 11.7132 17.1932C11.6827 17.1879 11.6527 17.1825 11.623 17.1769C10.4406 16.9526 9.60249 16.0018 9.60249 14.9143V9.7395C9.60249 9.54966 9.63296 9.36206 9.69187 9.18227C9.70148 9.15288 9.68519 9.08176 9.69632 9.05283C9.7705 8.85996 9.87984 8.66122 10.018 8.49606L14.4474 3.22336L14.5824 3.12795L15.4586 2.08061Z" fill="#C8EFFE"></path>
<path d="M9.60241 9.73929V14.9139C9.60241 16.0015 10.4404 16.9524 11.623 17.1765C11.6524 17.1821 11.6826 17.1877 11.7131 17.193C11.7131 17.193 12.61 17.3083 12.7807 17.9999H11.8644C11.7787 17.6526 11.468 17.5784 11.0939 17.5102C10.3582 17.3761 9.7828 17.0573 9.33463 16.4823C8.98049 16.028 8.79456 15.4678 8.79456 14.914C8.79456 14.9113 8.79456 9.73933 8.79456 9.73933C8.79456 9.31158 8.94905 8.89575 9.23487 8.55407L14.5424 2.08061C14.727 1.85979 14.5523 1.54395 14.2451 1.54395H15.1611C15.4683 1.54395 15.6434 1.85979 15.4587 2.08061L10.0428 8.55407C9.7569 8.89572 9.60241 9.31154 9.60241 9.73929Z" fill="#99E6FC"></path>
<path d="M14.6181 3.08503L10.0428 8.55387C9.87282 8.75707 9.74895 8.98692 9.67704 9.2296L8.1131 9.22974L8.09657 9.17733C8.02309 8.95405 7.90501 8.74255 7.74731 8.55387L2.97095 2.84446C4.52333 2.76068 6.10727 3.09994 7.62005 3.41427C9.53516 3.81203 11.6268 4.16479 13.4977 3.58457C13.9008 3.45959 14.2769 3.28961 14.6181 3.08503V3.08503Z" fill="#E94444"></path>
</svg>