<svg width="26" height="26" viewBox="0 0 26 26" fill="none" xmlns="http://www.w3.org/2000/svg">
<g clip-path="url(#clip0_6598_17998)">
<path d="M13 26C20.1797 26 26 20.1797 26 13C26 5.8203 20.1797 0 13 0C5.8203 0 0 5.8203 0 13C0 20.1797 5.8203 26 13 26Z" fill="#FC3F1D"/>
<path d="M15.0396 21.125H17.874V4.875H13.7485C9.5995 4.875 7.42321 6.99888 7.42321 10.1363C7.42321 12.8448 8.83412 14.3719 11.3334 16.0306L12.8519 17.0328L10.9027 15.3981L7.04053 21.125H10.1134L14.2393 14.9687L12.8044 14.014C11.0705 12.8448 10.2215 11.9381 10.2215 9.96938C10.2215 8.23956 11.4414 7.07037 13.7607 7.07037H15.0282V21.125H15.0404H15.0396Z" fill="white"/>
</g>
<defs>
<clipPath id="clip0_6598_17998">
<rect width="26" height="26" fill="white"/>
</clipPath>
</defs>
</svg>
