<svg id="dndFileIcon" viewBox="0 0 88 88" fill="none" xmlns="http://www.w3.org/2000/svg">
<path d="M13.75 0C12.837 0 11.935 0.088 11.0715 0.264L12.1385 5.654C12.6694 5.55031 13.2091 5.49873 13.75 5.5H16.269V0H13.75ZM26.356 0H21.3125V5.5H26.356V0ZM36.4375 0H31.394V5.5H36.4375V0ZM46.519 0H41.481V5.5H46.519V0ZM56.606 0H51.5625V5.5H56.606V0ZM66.6875 0H61.644V5.5H66.6875V0ZM74.25 0H71.731V5.5H74.25C74.8 5.5 75.3445 5.555 75.8615 5.6595L76.9285 0.264C76.0464 0.0889671 75.1493 0.000546979 74.25 0ZM85.6845 6.105C84.6793 4.60599 83.39 3.31855 81.8895 2.3155L78.8315 6.886C79.7335 7.491 80.509 8.2665 81.114 9.1685L85.679 6.1105L85.6845 6.105ZM6.105 2.3155C4.60599 3.32073 3.31855 4.61003 2.3155 6.1105L6.886 9.1685C7.491 8.2665 8.2665 7.491 9.1685 6.886L6.105 2.321V2.3155ZM88 13.75C88 12.837 87.912 11.935 87.736 11.0715L82.346 12.1385C82.445 12.6555 82.5 13.1945 82.5 13.75V16.269H88V13.75ZM0.264 11.0715C0.0889671 11.9536 0.000546979 12.8507 0 13.75L0 16.269H5.5V13.75C5.5 13.2 5.555 12.6555 5.6595 12.1385L0.264 11.0715ZM0 21.3125V26.356H5.5V21.3125H0ZM88 26.356V21.3125H82.5V26.356H88ZM0 31.394V36.4375H5.5V31.394H0ZM88 36.4375V31.394H82.5V36.4375H88ZM0 41.481V46.519H5.5V41.481H0ZM82.5 46.519H88V41.481H82.5V46.519ZM0 51.5625V56.606H5.5V51.5625H0ZM88 56.606V51.5625H82.5V56.606H88ZM0 61.644V66.6875H5.5V61.644H0ZM88 66.6875V61.644H82.5V66.6875H88ZM0 71.731V74.25C0 75.163 0.088 76.065 0.264 76.9285L5.654 75.8615C5.55031 75.3306 5.49873 74.7909 5.5 74.25V71.731H0ZM88 74.25V71.731H82.5V74.25C82.5 74.8 82.445 75.3445 82.3405 75.8615L87.736 76.9285C87.912 76.0595 88 75.1685 88 74.25ZM2.3155 81.895C3.322 83.391 4.609 84.678 6.1105 85.6845L9.1685 81.114C8.26571 80.5098 7.49023 79.7343 6.886 78.8315L2.321 81.8895L2.3155 81.895ZM81.895 85.6845C83.391 84.678 84.678 83.391 85.6845 81.8895L81.114 78.8315C80.509 79.7335 79.7335 80.509 78.8315 81.114L81.8895 85.679L81.895 85.6845ZM11.0715 87.736C11.9405 87.912 12.8315 88 13.75 88H16.269V82.5H13.75C13.2 82.5 12.6555 82.445 12.1385 82.3405L11.0715 87.736ZM74.25 88C75.163 88 76.065 87.912 76.9285 87.736L75.8615 82.346C75.3306 82.4497 74.7909 82.5013 74.25 82.5H71.731V88H74.25ZM21.3125 88H26.356V82.5H21.3125V88ZM31.394 88H36.4375V82.5H31.394V88ZM41.481 82.5V88H46.519V82.5H41.481ZM51.5625 88H56.606V82.5H51.5625V88ZM61.644 88H66.6875V82.5H61.644V88ZM46.75 24.75C46.75 24.0207 46.4603 23.3212 45.9445 22.8055C45.4288 22.2897 44.7293 22 44 22C43.2707 22 42.5712 22.2897 42.0555 22.8055C41.5397 23.3212 41.25 24.0207 41.25 24.75V41.25H24.75C24.0207 41.25 23.3212 41.5397 22.8055 42.0555C22.2897 42.5712 22 43.2707 22 44C22 44.7293 22.2897 45.4288 22.8055 45.9445C23.3212 46.4603 24.0207 46.75 24.75 46.75H41.25V63.25C41.25 63.9793 41.5397 64.6788 42.0555 65.1945C42.5712 65.7103 43.2707 66 44 66C44.7293 66 45.4288 65.7103 45.9445 65.1945C46.4603 64.6788 46.75 63.9793 46.75 63.25V46.75H63.25C63.9793 46.75 64.6788 46.4603 65.1945 45.9445C65.7103 45.4288 66 44.7293 66 44C66 43.2707 65.7103 42.5712 65.1945 42.0555C64.6788 41.5397 63.9793 41.25 63.25 41.25H46.75V24.75Z" fill="#7B8794"></path>
</svg>