<svg width="128" height="48" viewBox="0 0 128 48" fill="none" xmlns="http://www.w3.org/2000/svg">
<rect width="128" height="48" rx="8" fill="#0C4056"/>
<path d="M47.3942 38H44.4283L48.9474 24.9091H52.5142L57.027 38H54.0611L50.782 27.9006H50.6797L47.3942 38ZM47.2088 32.8544H54.2145V35.0149H47.2088V32.8544ZM61.4745 32.3239V38H58.7515V28.1818H61.3467V29.9141H61.4617C61.679 29.343 62.0434 28.8913 62.5548 28.5589C63.0661 28.2223 63.6862 28.054 64.4148 28.054C65.0967 28.054 65.6911 28.2031 66.1982 28.5014C66.7053 28.7997 67.0995 29.2259 67.3808 29.7798C67.662 30.3295 67.8026 30.9858 67.8026 31.7486V38H65.0796V32.2344C65.0839 31.6335 64.9305 31.1648 64.6194 30.8281C64.3083 30.4872 63.88 30.3168 63.3346 30.3168C62.9681 30.3168 62.6442 30.3956 62.363 30.5533C62.086 30.7109 61.8687 30.9411 61.711 31.2436C61.5576 31.5419 61.4788 31.902 61.4745 32.3239ZM73.7667 38.1598C73.0209 38.1598 72.3455 37.968 71.7404 37.5845C71.1395 37.1967 70.6623 36.6278 70.3086 35.8778C69.9591 35.1236 69.7844 34.1989 69.7844 33.1037C69.7844 31.9787 69.9655 31.0433 70.3277 30.2976C70.6899 29.5476 71.1715 28.9872 71.7723 28.6165C72.3775 28.2415 73.0401 28.054 73.7603 28.054C74.31 28.054 74.7681 28.1477 75.1346 28.3352C75.5053 28.5185 75.8036 28.7486 76.0294 29.0256C76.2596 29.2983 76.4343 29.5668 76.5536 29.831H76.6367V24.9091H79.3533V38H76.6686V36.4276H76.5536C76.4257 36.7003 76.2446 36.9709 76.0103 37.2393C75.7801 37.5036 75.4797 37.723 75.109 37.8977C74.7425 38.0724 74.2951 38.1598 73.7667 38.1598ZM74.6296 35.9929C75.0685 35.9929 75.4392 35.8736 75.7418 35.6349C76.0486 35.392 76.283 35.0533 76.4449 34.6186C76.6111 34.1839 76.6942 33.6747 76.6942 33.0909C76.6942 32.5071 76.6132 32 76.4513 31.5696C76.2894 31.1392 76.055 30.8068 75.7482 30.5724C75.4414 30.3381 75.0685 30.2209 74.6296 30.2209C74.1821 30.2209 73.805 30.3423 73.4982 30.5852C73.1914 30.8281 72.9591 31.1648 72.8015 31.5952C72.6438 32.0256 72.565 32.5241 72.565 33.0909C72.565 33.6619 72.6438 34.1669 72.8015 34.6058C72.9634 35.0405 73.1956 35.3814 73.4982 35.6286C73.805 35.8714 74.1821 35.9929 74.6296 35.9929ZM81.7921 38V28.1818H84.432V29.8949H84.5343C84.7133 29.2855 85.0137 28.8253 85.4356 28.5142C85.8575 28.1989 86.3433 28.0412 86.893 28.0412C87.0293 28.0412 87.1763 28.0497 87.334 28.0668C87.4917 28.0838 87.6302 28.1072 87.7495 28.1371V30.5533C87.6217 30.5149 87.4448 30.4808 87.219 30.451C86.9931 30.4212 86.7864 30.4062 86.5989 30.4062C86.1984 30.4062 85.8404 30.4936 85.5251 30.6683C85.214 30.8388 84.9668 31.0774 84.7836 31.3842C84.6046 31.6911 84.5151 32.0447 84.5151 32.4453V38H81.7921ZM93.3364 38.1918C92.3435 38.1918 91.4848 37.9808 90.7604 37.5589C90.0402 37.1328 89.4841 36.5405 89.0921 35.782C88.7 35.0192 88.504 34.1349 88.504 33.1293C88.504 32.1151 88.7 31.2287 89.0921 30.4702C89.4841 29.7074 90.0402 29.1151 90.7604 28.6932C91.4848 28.267 92.3435 28.054 93.3364 28.054C94.3293 28.054 95.1858 28.267 95.906 28.6932C96.6304 29.1151 97.1887 29.7074 97.5807 30.4702C97.9728 31.2287 98.1688 32.1151 98.1688 33.1293C98.1688 34.1349 97.9728 35.0192 97.5807 35.782C97.1887 36.5405 96.6304 37.1328 95.906 37.5589C95.1858 37.9808 94.3293 38.1918 93.3364 38.1918ZM93.3492 36.0824C93.8009 36.0824 94.178 35.9545 94.4806 35.6989C94.7831 35.4389 95.0111 35.0852 95.1645 34.6378C95.3222 34.1903 95.401 33.6811 95.401 33.1101C95.401 32.5391 95.3222 32.0298 95.1645 31.5824C95.0111 31.1349 94.7831 30.7812 94.4806 30.5213C94.178 30.2614 93.8009 30.1314 93.3492 30.1314C92.8932 30.1314 92.5097 30.2614 92.1986 30.5213C91.8918 30.7812 91.6596 31.1349 91.5019 31.5824C91.3485 32.0298 91.2718 32.5391 91.2718 33.1101C91.2718 33.6811 91.3485 34.1903 91.5019 34.6378C91.6596 35.0852 91.8918 35.4389 92.1986 35.6989C92.5097 35.9545 92.8932 36.0824 93.3492 36.0824ZM100.139 38V28.1818H102.862V38H100.139ZM101.507 26.9162C101.102 26.9162 100.755 26.782 100.465 26.5135C100.18 26.2408 100.037 25.9148 100.037 25.5355C100.037 25.1605 100.18 24.8388 100.465 24.5703C100.755 24.2976 101.102 24.1612 101.507 24.1612C101.912 24.1612 102.257 24.2976 102.543 24.5703C102.833 24.8388 102.977 25.1605 102.977 25.5355C102.977 25.9148 102.833 26.2408 102.543 26.5135C102.257 26.782 101.912 26.9162 101.507 26.9162ZM108.862 38.1598C108.116 38.1598 107.44 37.968 106.835 37.5845C106.234 37.1967 105.757 36.6278 105.403 35.8778C105.054 35.1236 104.879 34.1989 104.879 33.1037C104.879 31.9787 105.06 31.0433 105.423 30.2976C105.785 29.5476 106.266 28.9872 106.867 28.6165C107.472 28.2415 108.135 28.054 108.855 28.054C109.405 28.054 109.863 28.1477 110.229 28.3352C110.6 28.5185 110.899 28.7486 111.124 29.0256C111.354 29.2983 111.529 29.5668 111.649 29.831H111.732V24.9091H114.448V38H111.764V36.4276H111.649C111.521 36.7003 111.34 36.9709 111.105 37.2393C110.875 37.5036 110.575 37.723 110.204 37.8977C109.837 38.0724 109.39 38.1598 108.862 38.1598ZM109.725 35.9929C110.163 35.9929 110.534 35.8736 110.837 35.6349C111.144 35.392 111.378 35.0533 111.54 34.6186C111.706 34.1839 111.789 33.6747 111.789 33.0909C111.789 32.5071 111.708 32 111.546 31.5696C111.384 31.1392 111.15 30.8068 110.843 30.5724C110.536 30.3381 110.163 30.2209 109.725 30.2209C109.277 30.2209 108.9 30.3423 108.593 30.5852C108.286 30.8281 108.054 31.1648 107.896 31.5952C107.739 32.0256 107.66 32.5241 107.66 33.0909C107.66 33.6619 107.739 34.1669 107.896 34.6058C108.058 35.0405 108.291 35.3814 108.593 35.6286C108.9 35.8714 109.277 35.9929 109.725 35.9929Z" fill="white"/>
<path d="M52.1932 12C52.0838 11.6652 51.9396 11.3653 51.7607 11.1001C51.585 10.8317 51.3745 10.603 51.1293 10.4141C50.8873 10.2251 50.6122 10.081 50.304 9.98153C49.9957 9.8821 49.6577 9.83239 49.2898 9.83239C48.6866 9.83239 48.138 9.98816 47.6442 10.2997C47.1503 10.6113 46.7576 11.0703 46.4659 11.6768C46.1742 12.2834 46.0284 13.0275 46.0284 13.9091C46.0284 14.7907 46.1759 15.5348 46.4709 16.1413C46.7659 16.7479 47.1652 17.2069 47.669 17.5185C48.1728 17.83 48.7396 17.9858 49.3693 17.9858C49.9527 17.9858 50.4664 17.8615 50.9105 17.6129C51.358 17.361 51.706 17.0064 51.9545 16.549C52.2064 16.0883 52.3324 15.5464 52.3324 14.9233L52.7102 15.0028H49.6477V13.9091H53.5256V15.0028C53.5256 15.8414 53.3466 16.5705 52.9886 17.1903C52.634 17.8101 52.1435 18.2907 51.517 18.6321C50.8939 18.9702 50.178 19.1392 49.3693 19.1392C48.4678 19.1392 47.6757 18.9271 46.9929 18.5028C46.3134 18.0786 45.7831 17.4754 45.402 16.6932C45.0241 15.911 44.8352 14.983 44.8352 13.9091C44.8352 13.1037 44.9429 12.3795 45.1584 11.7365C45.3771 11.0902 45.6854 10.54 46.0831 10.0859C46.4808 9.63187 46.9515 9.28385 47.495 9.0419C48.0386 8.79995 48.6368 8.67898 49.2898 8.67898C49.8267 8.67898 50.3272 8.76018 50.7912 8.92258C51.2585 9.08168 51.6745 9.30871 52.0391 9.60369C52.407 9.89536 52.7135 10.245 52.9588 10.6527C53.2041 11.0571 53.3731 11.5062 53.4659 12H52.1932ZM58.9299 19.1591C58.1941 19.1591 57.5594 18.9967 57.0257 18.6719C56.4954 18.3438 56.0861 17.8864 55.7978 17.2997C55.5127 16.7098 55.3702 16.0237 55.3702 15.2415C55.3702 14.4593 55.5127 13.7699 55.7978 13.1733C56.0861 12.5734 56.4872 12.1061 57.0009 11.7713C57.5179 11.4332 58.1212 11.2642 58.8105 11.2642C59.2083 11.2642 59.601 11.3305 59.9888 11.4631C60.3766 11.5956 60.7296 11.8111 61.0478 12.1094C61.3659 12.4044 61.6195 12.7955 61.8084 13.2827C61.9973 13.7699 62.0918 14.3698 62.0918 15.0824V15.5795H56.2054V14.5653H60.8986C60.8986 14.1345 60.8124 13.75 60.6401 13.4119C60.4711 13.0739 60.2291 12.8071 59.9142 12.6115C59.6027 12.416 59.2348 12.3182 58.8105 12.3182C58.3432 12.3182 57.9389 12.4342 57.5975 12.6662C57.2594 12.8949 56.9992 13.1932 56.8169 13.5611C56.6346 13.929 56.5435 14.3234 56.5435 14.7443V15.4205C56.5435 15.9972 56.6429 16.486 56.8418 16.8871C57.044 17.2848 57.324 17.5881 57.682 17.7969C58.04 18.0024 58.4559 18.1051 58.9299 18.1051C59.2381 18.1051 59.5165 18.062 59.7651 17.9759C60.017 17.8864 60.2341 17.7538 60.4164 17.5781C60.5987 17.3991 60.7395 17.1771 60.839 16.9119L61.9725 17.2301C61.8532 17.6146 61.6526 17.9527 61.3709 18.2443C61.0892 18.5327 60.7412 18.758 60.3269 18.9205C59.9126 19.0795 59.4469 19.1591 58.9299 19.1591ZM67.4476 11.3636V12.358H63.4902V11.3636H67.4476ZM64.6436 9.53409H65.8169V16.8125C65.8169 17.1439 65.865 17.3925 65.9611 17.5582C66.0605 17.7206 66.1865 17.83 66.339 17.8864C66.4947 17.9394 66.6588 17.9659 66.8311 17.9659C66.9604 17.9659 67.0665 17.9593 67.1493 17.946C67.2322 17.9295 67.2985 17.9162 67.3482 17.9062L67.5868 18.9602C67.5073 18.9901 67.3962 19.0199 67.2537 19.0497C67.1112 19.0829 66.9306 19.0994 66.7118 19.0994C66.3804 19.0994 66.0556 19.0282 65.7374 18.8857C65.4225 18.7431 65.1607 18.526 64.9519 18.2344C64.7464 17.9427 64.6436 17.5748 64.6436 17.1307V9.53409ZM73.65 19V11.3636H74.8233V19H73.65ZM74.2466 10.0909C74.0179 10.0909 73.8207 10.013 73.655 9.85724C73.4926 9.70147 73.4114 9.5142 73.4114 9.29545C73.4114 9.0767 73.4926 8.88944 73.655 8.73366C73.8207 8.57789 74.0179 8.5 74.2466 8.5C74.4753 8.5 74.6709 8.57789 74.8333 8.73366C74.999 8.88944 75.0819 9.0767 75.0819 9.29545C75.0819 9.5142 74.999 9.70147 74.8333 9.85724C74.6709 10.013 74.4753 10.0909 74.2466 10.0909ZM80.5433 11.3636V12.358H76.5859V11.3636H80.5433ZM77.7393 9.53409H78.9126V16.8125C78.9126 17.1439 78.9607 17.3925 79.0568 17.5582C79.1563 17.7206 79.2822 17.83 79.4347 17.8864C79.5904 17.9394 79.7545 17.9659 79.9268 17.9659C80.0561 17.9659 80.1622 17.9593 80.245 17.946C80.3279 17.9295 80.3942 17.9162 80.4439 17.9062L80.6825 18.9602C80.603 18.9901 80.492 19.0199 80.3494 19.0497C80.2069 19.0829 80.0263 19.0994 79.8075 19.0994C79.4761 19.0994 79.1513 19.0282 78.8331 18.8857C78.5182 18.7431 78.2564 18.526 78.0476 18.2344C77.8421 17.9427 77.7393 17.5748 77.7393 17.1307V9.53409ZM89.848 19.1591C89.1586 19.1591 88.5537 18.995 88.0334 18.6669C87.5163 18.3388 87.112 17.8797 86.8203 17.2898C86.532 16.6998 86.3878 16.0104 86.3878 15.2216C86.3878 14.4261 86.532 13.7318 86.8203 13.1385C87.112 12.5452 87.5163 12.0845 88.0334 11.7564C88.5537 11.4283 89.1586 11.2642 89.848 11.2642C90.5374 11.2642 91.1406 11.4283 91.6577 11.7564C92.178 12.0845 92.5824 12.5452 92.8707 13.1385C93.1624 13.7318 93.3082 14.4261 93.3082 15.2216C93.3082 16.0104 93.1624 16.6998 92.8707 17.2898C92.5824 17.8797 92.178 18.3388 91.6577 18.6669C91.1406 18.995 90.5374 19.1591 89.848 19.1591ZM89.848 18.1051C90.3717 18.1051 90.8026 17.9709 91.1406 17.7024C91.4787 17.4339 91.7289 17.081 91.8913 16.6435C92.0537 16.206 92.1349 15.732 92.1349 15.2216C92.1349 14.7112 92.0537 14.2356 91.8913 13.7947C91.7289 13.3539 91.4787 12.9976 91.1406 12.7259C90.8026 12.4541 90.3717 12.3182 89.848 12.3182C89.3243 12.3182 88.8935 12.4541 88.5554 12.7259C88.2173 12.9976 87.9671 13.3539 87.8047 13.7947C87.6423 14.2356 87.5611 14.7112 87.5611 15.2216C87.5611 15.732 87.6423 16.206 87.8047 16.6435C87.9671 17.081 88.2173 17.4339 88.5554 17.7024C88.8935 17.9709 89.3243 18.1051 89.848 18.1051ZM96.5225 14.4062V19H95.3493V11.3636H96.4828V12.5568H96.5822C96.7612 12.169 97.033 11.8575 97.3975 11.6222C97.7621 11.3835 98.2328 11.2642 98.8095 11.2642C99.3265 11.2642 99.7789 11.3703 100.167 11.5824C100.555 11.7912 100.856 12.1094 101.072 12.5369C101.287 12.9612 101.395 13.4981 101.395 14.1477V19H100.221V14.2273C100.221 13.6274 100.066 13.16 99.7541 12.8253C99.4425 12.4872 99.015 12.3182 98.4714 12.3182C98.0969 12.3182 97.7621 12.3994 97.4672 12.5618C97.1755 12.7242 96.9451 12.9612 96.7761 13.2727C96.6071 13.5843 96.5225 13.9621 96.5225 14.4062Z" fill="white"/>
<path d="M25.6 15.8356H24.4V14.6691H25.6V15.8356ZM19.6 15.8356H18.4V14.6691H19.6V15.8356ZM26.236 12.5227L27.808 10.9945C28.036 10.7728 28.036 10.3995 27.808 10.1662C27.568 9.94459 27.184 9.94459 26.956 10.1662L25.18 11.8927C24.22 11.4378 23.14 11.1695 22 11.1695C20.848 11.1695 19.768 11.4378 18.808 11.9044L17.02 10.1662C16.792 9.94459 16.408 9.94459 16.18 10.1662C15.94 10.3995 15.94 10.7728 16.18 10.9945L17.752 12.5227C15.964 13.8059 14.8 15.8356 14.8 18.1687H29.2C29.2 15.8356 28 13.7942 26.236 12.5227ZM32.2 19.3353C31.7226 19.3353 31.2648 19.5196 30.9272 19.8478C30.5896 20.1759 30.4 20.621 30.4 21.0851V29.2509C30.4 29.715 30.5896 30.1601 30.9272 30.4882C31.2648 30.8164 31.7226 31.0007 32.2 31.0007C32.6774 31.0007 33.1352 30.8164 33.4728 30.4882C33.8104 30.1601 34 29.715 34 29.2509V21.0851C34 20.621 33.8104 20.1759 33.4728 19.8478C33.1352 19.5196 32.6774 19.3353 32.2 19.3353ZM11.8 19.3353C11.3226 19.3353 10.8648 19.5196 10.5272 19.8478C10.1896 20.1759 10 20.621 10 21.0851V29.2509C10 29.715 10.1896 30.1601 10.5272 30.4882C10.8648 30.8164 11.3226 31.0007 11.8 31.0007C12.2774 31.0007 12.7352 30.8164 13.0728 30.4882C13.4104 30.1601 13.6 29.715 13.6 29.2509V21.0851C13.6 20.621 13.4104 20.1759 13.0728 19.8478C12.7352 19.5196 12.2774 19.3353 11.8 19.3353ZM14.8 31.0007C14.8 31.3101 14.9264 31.6068 15.1515 31.8256C15.3765 32.0444 15.6817 32.1673 16 32.1673H17.2V36.2502C17.2 36.7143 17.3896 37.1593 17.7272 37.4875C18.0648 37.8156 18.5226 38 19 38C19.4774 38 19.9352 37.8156 20.2728 37.4875C20.6104 37.1593 20.8 36.7143 20.8 36.2502V32.1673H23.2V36.2502C23.2 36.7143 23.3896 37.1593 23.7272 37.4875C24.0648 37.8156 24.5226 38 25 38C25.4774 38 25.9352 37.8156 26.2728 37.4875C26.6104 37.1593 26.8 36.7143 26.8 36.2502V32.1673H28C28.3183 32.1673 28.6235 32.0444 28.8485 31.8256C29.0736 31.6068 29.2 31.3101 29.2 31.0007V19.3353H14.8V31.0007Z" fill="white"/>
</svg>
