<svg width="160" height="54" viewBox="0 0 160 54" fill="none" xmlns="http://www.w3.org/2000/svg">
<rect width="160" height="54" rx="12" fill="#323F4B"/>
<path d="M55.5365 19.7568C54.8261 19.7568 54.1875 19.5944 53.6206 19.2694C53.0539 18.9373 52.609 18.4782 52.286 17.8919C51.9704 17.3055 51.8125 16.645 51.8125 15.9103C51.8125 15.1755 51.9704 14.5185 52.286 13.9392C52.609 13.3529 53.0503 12.8972 53.6099 12.5723C54.1768 12.2402 54.8154 12.0742 55.5258 12.0742C56.2935 12.0742 56.9753 12.265 57.5708 12.6464C58.1735 13.0209 58.604 13.5295 58.8624 14.1724L57.7645 14.3419C57.5636 13.9463 57.2659 13.639 56.8711 13.42C56.4838 13.1939 56.046 13.0809 55.558 13.0809C55.0558 13.0809 54.6073 13.201 54.2126 13.4412C53.8251 13.6814 53.5203 14.017 53.2978 14.4479C53.0825 14.8718 52.9749 15.3592 52.9749 15.9103C52.9749 16.4684 53.0825 16.9628 53.2978 17.3938C53.5203 17.8177 53.8288 18.1497 54.2234 18.3899C54.6181 18.63 55.0701 18.7502 55.5796 18.7502C56.0819 18.7502 56.5268 18.6372 56.9143 18.4111C57.3089 18.178 57.6103 17.853 57.8184 17.4362L58.9161 17.6058C58.6435 18.2627 58.2023 18.7855 57.5923 19.174C56.9824 19.5626 56.2971 19.7568 55.5365 19.7568Z" fill="white"/>
<path d="M64.6471 19.6504H63.2586L61.2028 17.3827H60.8692V19.6504H59.8145V14.1719H60.8692V16.3866H61.1921L63.1617 14.1719H64.4318L62.0423 16.8211L64.6471 19.6504Z" fill="white"/>
<path d="M67.2637 14.0664C67.9525 14.0664 68.4942 14.2889 68.889 14.734C69.2907 15.172 69.4916 15.7866 69.4916 16.5779V19.6509H68.7382L68.4907 18.7926C68.3114 19.068 68.071 19.2977 67.7696 19.4814C67.4682 19.665 67.1059 19.7568 66.6825 19.7568C66.3094 19.7568 65.9757 19.6828 65.6815 19.5343C65.3874 19.386 65.1577 19.1811 64.9926 18.9197C64.8276 18.6513 64.7451 18.351 64.7451 18.019C64.7451 17.5032 64.9532 17.09 65.3694 16.7792C65.7855 16.4684 66.3882 16.3129 67.1776 16.3129H68.4369C68.4081 15.8819 68.2862 15.5499 68.071 15.3168C67.8556 15.0766 67.5686 14.9565 67.2099 14.9565C66.9372 14.9565 66.6969 15.0201 66.4887 15.1472C66.2806 15.2745 66.1227 15.4405 66.0151 15.6453L65.0357 15.4864C65.1792 15.0484 65.4555 14.7022 65.8645 14.4479C66.2735 14.1936 66.7399 14.0664 67.2637 14.0664ZM66.9085 18.8774C67.3606 18.8774 67.7265 18.7326 68.0064 18.4429C68.2934 18.1461 68.4369 17.74 68.4369 17.2242V17.1606H67.2099C66.2771 17.1606 65.8106 17.4362 65.8106 17.9873C65.8106 18.2557 65.9111 18.4712 66.112 18.6336C66.313 18.7961 66.5785 18.8774 66.9085 18.8774Z" fill="white"/>
<path d="M73.7322 17.6582C73.56 17.7359 73.3555 17.796 73.1187 17.8383C72.8819 17.8808 72.6487 17.902 72.4192 17.902C71.7518 17.902 71.2388 17.7182 70.8799 17.3509C70.5212 16.9835 70.3418 16.4643 70.3418 15.7932V14.1719H71.3965V15.7932C71.3965 16.5774 71.7805 16.9695 72.5483 16.9695C73.0147 16.9695 73.4093 16.8881 73.7322 16.7257V14.1719H74.787V19.6504H73.7322V17.6582Z" fill="white"/>
<path d="M78.3271 14.0664C79.016 14.0664 79.5577 14.2889 79.9523 14.734C80.3542 15.172 80.5551 15.7866 80.5551 16.5779V19.6509H79.8017L79.5541 18.7926C79.3747 19.068 79.1343 19.2977 78.833 19.4814C78.5316 19.665 78.1692 19.7568 77.746 19.7568C77.3728 19.7568 77.0391 19.6828 76.745 19.5343C76.4507 19.386 76.2211 19.1811 76.0561 18.9197C75.8911 18.6513 75.8086 18.351 75.8086 18.019C75.8086 17.5032 76.0166 17.09 76.4328 16.7792C76.849 16.4684 77.4517 16.3129 78.241 16.3129H79.5003C79.4716 15.8819 79.3496 15.5499 79.1343 15.3168C78.9191 15.0766 78.6321 14.9565 78.2733 14.9565C78.0006 14.9565 77.7602 15.0201 77.5522 15.1472C77.3441 15.2745 77.1862 15.4405 77.0786 15.6453L76.0991 15.4864C76.2427 15.0484 76.519 14.7022 76.928 14.4479C77.337 14.1936 77.8033 14.0664 78.3271 14.0664ZM77.972 18.8774C78.424 18.8774 78.79 18.7326 79.0698 18.4429C79.3568 18.1461 79.5003 17.74 79.5003 17.2242V17.1606H78.2733C77.3405 17.1606 76.8741 17.4362 76.8741 17.9873C76.8741 18.2557 76.9746 18.4712 77.1755 18.6336C77.3763 18.7961 77.6418 18.8774 77.972 18.8774Z" fill="white"/>
<path d="M83.3966 19.6509H81.8359V14.1723H82.8584V18.4853H83.0199L85.2694 14.1723H86.8301V19.6509H85.8076V15.3485H85.6461L83.3966 19.6509ZM84.3438 13.4624C83.8773 13.4624 83.4863 13.3423 83.1706 13.1021C82.8621 12.8548 82.6791 12.4875 82.6217 12H83.4827C83.5186 12.2261 83.6083 12.3991 83.7518 12.5192C83.9024 12.6323 84.0998 12.6888 84.3438 12.6888C84.5877 12.6888 84.7814 12.6323 84.9249 12.5192C85.0757 12.3991 85.1653 12.2261 85.1941 12H86.0659C86.0013 12.4875 85.8112 12.8548 85.4954 13.1021C85.1869 13.3423 84.8029 13.4624 84.3438 13.4624Z" fill="white"/>
<path d="M90.6044 19.6504H89.5497V15.1256H87.623V14.1719H92.531V15.1256H90.6044V19.6504Z" fill="white"/>
<path d="M98.5111 16.8746C98.5111 17.0159 98.5076 17.1253 98.5004 17.2031H93.9045C93.9619 17.6905 94.1556 18.0791 94.4858 18.3686C94.8159 18.6583 95.2356 18.8032 95.745 18.8032C96.0966 18.8032 96.4088 18.736 96.6814 18.6019C96.9613 18.4606 97.173 18.2768 97.3165 18.0508L98.3066 18.2098C98.0914 18.7043 97.7434 19.0858 97.2626 19.3542C96.7891 19.6227 96.2616 19.7568 95.6805 19.7568C95.128 19.7568 94.6329 19.6367 94.1951 19.3966C93.7574 19.1494 93.4166 18.8102 93.1726 18.3794C92.9286 17.9484 92.8066 17.4609 92.8066 16.9169C92.8066 16.366 92.9286 15.8749 93.1726 15.4439C93.4166 15.0131 93.7539 14.6775 94.1844 14.4373C94.6149 14.19 95.1064 14.0664 95.6589 14.0664C96.2043 14.0664 96.6923 14.19 97.1228 14.4373C97.5604 14.6775 97.9013 15.0131 98.1453 15.4439C98.3893 15.8679 98.5111 16.3447 98.5111 16.8746ZM95.6589 14.9884C95.2356 14.9884 94.8696 15.1119 94.5611 15.3592C94.2598 15.6065 94.0588 15.9386 93.9584 16.3553H97.3595C97.2663 15.9456 97.0654 15.6171 96.7568 15.3699C96.4554 15.1155 96.0895 14.9884 95.6589 14.9884Z" fill="white"/>
<path d="M103.252 19.6504H101.691V14.1719H102.714V18.4848H102.875L105.125 14.1719H106.685V19.6504H105.663V15.3481H105.502L103.252 19.6504Z" fill="white"/>
<path d="M111.063 16.8533C111.357 16.9381 111.601 17.0935 111.794 17.3196C111.988 17.5387 112.085 17.8107 112.085 18.1356C112.085 18.4393 111.995 18.7148 111.816 18.9621C111.637 19.2023 111.378 19.3966 111.041 19.5449C110.711 19.6862 110.327 19.7568 109.889 19.7568C109.301 19.7568 108.795 19.6227 108.372 19.3542C107.948 19.0787 107.669 18.7114 107.532 18.2521L108.512 18.0932C108.748 18.6019 109.204 18.8561 109.879 18.8561C110.252 18.8561 110.535 18.789 110.729 18.6548C110.93 18.5135 111.03 18.3193 111.03 18.0719C111.03 17.853 110.937 17.6764 110.75 17.5421C110.571 17.408 110.28 17.3408 109.879 17.3408H109.147V16.4295H109.879C110.223 16.4295 110.485 16.366 110.664 16.2387C110.851 16.1116 110.944 15.942 110.944 15.7301C110.944 15.504 110.844 15.3204 110.643 15.1791C110.449 15.0378 110.209 14.9672 109.922 14.9672C109.642 14.9672 109.391 15.0343 109.168 15.1685C108.946 15.3027 108.777 15.4864 108.662 15.7195L107.683 15.5499C107.848 15.0766 108.131 14.7128 108.533 14.4585C108.942 14.1971 109.416 14.0664 109.954 14.0664C110.341 14.0664 110.689 14.1335 110.998 14.2677C111.314 14.402 111.558 14.5892 111.73 14.8293C111.909 15.0696 111.999 15.338 111.999 15.6347C111.999 15.9386 111.913 16.1964 111.741 16.4083C111.568 16.6202 111.342 16.7686 111.063 16.8533Z" fill="white"/>
<g clip-path="url(#clip0_386_2115)">
<path fill-rule="evenodd" clip-rule="evenodd" d="M20.4175 12C14.2543 12 12 14.2539 12 20.4159V33.5841C12 39.7461 14.2543 42 20.4175 42H33.5785C39.7416 42 42 39.7461 42 33.5841V20.4159C42 14.2539 39.7457 12 33.5825 12H20.4175Z" fill="url(#paint0_linear_386_2115)"/>
<path fill-rule="evenodd" clip-rule="evenodd" d="M25.0856 29.3994H26.2899L25.6857 27.9941L25.0856 29.3994ZM24.789 30.1075L24.4316 30.9252H23.6181L25.3481 27.0002H26.0512L27.7743 30.9252H26.939L26.5863 30.1075H24.789ZM37.8801 30.9223H38.6663V27H37.8801V30.9223ZM34.7506 29.2373H36.1999V28.5222H34.7506V27.7183H36.8546V27.0029H33.9645V30.9249H36.9303V30.2095H34.7506V29.2373ZM31.6264 29.7008L30.735 27H30.0844L29.193 29.7008L28.3255 27.0022H27.4772L28.8463 30.9273H29.5057L30.3986 28.3491L31.2915 30.9273H31.9567L33.3222 27.0022H32.4959L31.6264 29.7008ZM22.4178 29.2482C22.4178 29.8867 22.1007 30.2279 21.5249 30.2279C20.946 30.2279 20.6273 29.8768 20.6273 29.2209V27.0027H19.8304V29.2482C19.8304 30.3528 20.4442 30.9862 21.5141 30.9862C22.5945 30.9862 23.214 30.3407 23.214 29.2154V27.0002H22.4178V29.2482ZM17.9291 27.0002H18.7256V30.9276H17.9291V29.3326H16.1299V30.9276H15.333V27.0002H16.1299V28.5844H17.9291V27.0002Z" fill="white"/>
<path fill-rule="evenodd" clip-rule="evenodd" d="M27 22C24.2427 22 22 19.757 22 17H22.7063C22.7063 19.3674 24.6326 21.2935 27 21.2935C29.3674 21.2935 31.2937 19.3674 31.2937 17H32C32 19.757 29.757 22 27 22Z" fill="white"/>
</g>
<path d="M51.8125 40.0003L57.3205 28.0153H59.5135L65.0895 40.0003H62.4035L60.9585 36.6683L61.9955 37.3993H54.8725L55.9265 36.6683L54.4815 40.0003H51.8125ZM58.4085 30.8033L56.2155 36.0053L55.7565 35.3593H61.1115L60.7205 36.0053L58.4765 30.8033H58.4085Z" fill="white"/>
<path d="M65.9529 43.6723V33.6253C65.9529 33.2626 65.9416 32.8943 65.9189 32.5203C65.8962 32.1349 65.8622 31.7553 65.8169 31.3813H68.2819L68.4859 33.0643H68.2989C68.4689 32.4976 68.8259 32.0499 69.3699 31.7213C69.9139 31.3813 70.5372 31.2113 71.2399 31.2113C71.9879 31.2113 72.6452 31.3926 73.2119 31.7553C73.7786 32.1066 74.2206 32.6166 74.5379 33.2853C74.8666 33.9539 75.0309 34.7529 75.0309 35.6823C75.0309 36.6229 74.8666 37.4276 74.5379 38.0963C74.2206 38.7649 73.7786 39.2806 73.2119 39.6433C72.6452 40.0059 71.9879 40.1873 71.2399 40.1873C70.5486 40.1873 69.9309 40.0229 69.3869 39.6943C68.8542 39.3656 68.4972 38.9293 68.3159 38.3853H68.5199V43.6723H65.9529ZM70.4579 38.2493C71.0586 38.2493 71.5402 38.0396 71.9029 37.6203C72.2656 37.2009 72.4469 36.5549 72.4469 35.6823C72.4469 34.8096 72.2656 34.1693 71.9029 33.7613C71.5402 33.3533 71.0586 33.1493 70.4579 33.1493C69.8686 33.1493 69.3869 33.3533 69.0129 33.7613C68.6502 34.1693 68.4689 34.8096 68.4689 35.6823C68.4689 36.5549 68.6502 37.2009 69.0129 37.6203C69.3869 38.0396 69.8686 38.2493 70.4579 38.2493Z" fill="white"/>
<path d="M76.6941 43.6723V33.6253C76.6941 33.2626 76.6828 32.8943 76.6601 32.5203C76.6375 32.1349 76.6035 31.7553 76.5581 31.3813H79.0231L79.2271 33.0643H79.0401C79.2101 32.4976 79.5671 32.0499 80.1111 31.7213C80.6551 31.3813 81.2785 31.2113 81.9811 31.2113C82.7291 31.2113 83.3865 31.3926 83.9531 31.7553C84.5198 32.1066 84.9618 32.6166 85.2791 33.2853C85.6078 33.9539 85.7721 34.7529 85.7721 35.6823C85.7721 36.6229 85.6078 37.4276 85.2791 38.0963C84.9618 38.7649 84.5198 39.2806 83.9531 39.6433C83.3865 40.0059 82.7291 40.1873 81.9811 40.1873C81.2898 40.1873 80.6721 40.0229 80.1281 39.6943C79.5955 39.3656 79.2385 38.9293 79.0571 38.3853H79.2611V43.6723H76.6941ZM81.1991 38.2493C81.7998 38.2493 82.2815 38.0396 82.6441 37.6203C83.0068 37.2009 83.1881 36.5549 83.1881 35.6823C83.1881 34.8096 83.0068 34.1693 82.6441 33.7613C82.2815 33.3533 81.7998 33.1493 81.1991 33.1493C80.6098 33.1493 80.1281 33.3533 79.7541 33.7613C79.3915 34.1693 79.2101 34.8096 79.2101 35.6823C79.2101 36.5549 79.3915 37.2009 79.7541 37.6203C80.1281 38.0396 80.6098 38.2493 81.1991 38.2493Z" fill="white"/>
<path d="M93.5383 40.1873C92.167 40.1873 91.011 39.9379 90.0703 39.4393C89.141 38.9293 88.4383 38.2153 87.9623 37.2973C87.4863 36.3679 87.2483 35.2856 87.2483 34.0503C87.2483 32.7809 87.5033 31.6816 88.0133 30.7523C88.5347 29.8229 89.2827 29.1033 90.2573 28.5933C91.232 28.0833 92.3993 27.8283 93.7593 27.8283C94.632 27.8283 95.397 27.9416 96.0543 28.1683C96.723 28.3836 97.3067 28.6953 97.8053 29.1033L96.9553 31.1603C96.5927 30.8996 96.2527 30.6956 95.9353 30.5483C95.618 30.3896 95.2893 30.2819 94.9493 30.2253C94.6093 30.1573 94.2183 30.1233 93.7763 30.1233C92.5297 30.1233 91.589 30.4633 90.9543 31.1433C90.331 31.8119 90.0193 32.7866 90.0193 34.0673C90.0193 35.3366 90.314 36.2999 90.9033 36.9573C91.4927 37.6146 92.4163 37.9433 93.6743 37.9433C94.0937 37.9433 94.5243 37.9036 94.9663 37.8243C95.4083 37.7449 95.8447 37.6259 96.2753 37.4673L95.7993 38.4873V35.2573H93.1643V33.3703H97.9923V39.2523C97.3917 39.5469 96.6947 39.7793 95.9013 39.9493C95.1193 40.1079 94.3317 40.1873 93.5383 40.1873Z" fill="white"/>
<path d="M103.451 40.1873C102.703 40.1873 102.046 40.0059 101.479 39.6433C100.913 39.2806 100.471 38.7649 100.153 38.0963C99.836 37.4276 99.6773 36.6229 99.6773 35.6823C99.6773 34.7529 99.836 33.9539 100.153 33.2853C100.471 32.6166 100.913 32.1066 101.479 31.7553C102.046 31.3926 102.703 31.2113 103.451 31.2113C104.143 31.2113 104.76 31.3813 105.304 31.7213C105.86 32.0499 106.222 32.4976 106.392 33.0643H106.205L106.409 31.3813H108.874C108.84 31.7553 108.806 32.1349 108.772 32.5203C108.75 32.8943 108.738 33.2626 108.738 33.6253V40.0003H106.188L106.171 38.3853H106.375C106.194 38.9293 105.831 39.3656 105.287 39.6943C104.743 40.0229 104.131 40.1873 103.451 40.1873ZM104.233 38.2493C104.823 38.2493 105.299 38.0396 105.661 37.6203C106.024 37.2009 106.205 36.5549 106.205 35.6823C106.205 34.8096 106.024 34.1693 105.661 33.7613C105.299 33.3533 104.823 33.1493 104.233 33.1493C103.644 33.1493 103.168 33.3533 102.805 33.7613C102.443 34.1693 102.261 34.8096 102.261 35.6823C102.261 36.5549 102.437 37.2009 102.788 37.6203C103.151 38.0396 103.633 38.2493 104.233 38.2493Z" fill="white"/>
<path d="M110.844 40.0003V27.4883H113.411V40.0003H110.844Z" fill="white"/>
<path d="M115.509 40.0003V27.4883H118.076V40.0003H115.509Z" fill="white"/>
<path d="M124.509 40.1873C123.013 40.1873 121.845 39.7849 121.007 38.9803C120.168 38.1756 119.749 37.0819 119.749 35.6993C119.749 34.8039 119.924 34.0219 120.276 33.3533C120.638 32.6846 121.137 32.1633 121.772 31.7893C122.418 31.4039 123.171 31.2113 124.033 31.2113C124.883 31.2113 125.591 31.3926 126.158 31.7553C126.736 32.1179 127.166 32.6279 127.45 33.2853C127.744 33.9313 127.892 34.6849 127.892 35.5463V36.1413H121.857V34.8663H126.022L125.733 35.1043C125.733 34.3903 125.585 33.8519 125.291 33.4893C125.007 33.1153 124.594 32.9283 124.05 32.9283C123.449 32.9283 122.984 33.1493 122.656 33.5913C122.338 34.0333 122.18 34.6679 122.18 35.4953V35.7673C122.18 36.6059 122.384 37.2293 122.792 37.6373C123.211 38.0453 123.812 38.2493 124.594 38.2493C125.058 38.2493 125.495 38.1926 125.903 38.0793C126.322 37.9546 126.719 37.7619 127.093 37.5013L127.807 39.2013C127.376 39.5186 126.877 39.7623 126.311 39.9323C125.755 40.1023 125.155 40.1873 124.509 40.1873Z" fill="white"/>
<path d="M129.503 40.0003V33.6593C129.503 33.2853 129.492 32.9056 129.469 32.5203C129.458 32.1349 129.43 31.7553 129.384 31.3813H131.849L132.138 33.8973H131.747C131.861 33.2853 132.042 32.7809 132.291 32.3843C132.552 31.9876 132.869 31.6929 133.243 31.5003C133.629 31.3076 134.065 31.2113 134.552 31.2113C134.768 31.2113 134.938 31.2226 135.062 31.2453C135.187 31.2566 135.312 31.2849 135.436 31.3303L135.419 33.5913C135.181 33.4893 134.977 33.4269 134.807 33.4043C134.649 33.3703 134.445 33.3533 134.195 33.3533C133.719 33.3533 133.323 33.4439 133.005 33.6253C132.699 33.8066 132.467 34.0729 132.308 34.4243C132.161 34.7756 132.087 35.2006 132.087 35.6993V40.0003H129.503Z" fill="white"/>
<path d="M136.939 43.8593L136.344 41.8533C136.877 41.7513 137.325 41.6323 137.687 41.4963C138.061 41.3603 138.367 41.1789 138.605 40.9523C138.843 40.7369 139.036 40.4536 139.183 40.1023L139.608 39.0993L139.54 40.0853L135.8 31.3813H138.503L140.968 37.6203H140.441L142.94 31.3813H145.49L141.597 40.3403C141.314 40.9863 141.008 41.5189 140.679 41.9383C140.362 42.3689 140.016 42.7089 139.642 42.9583C139.268 43.2076 138.855 43.4003 138.401 43.5363C137.959 43.6723 137.472 43.7799 136.939 43.8593Z" fill="white"/>
<defs>
<linearGradient id="paint0_linear_386_2115" x1="27" y1="12" x2="27" y2="42" gradientUnits="userSpaceOnUse">
<stop stop-color="#FB6361"/>
<stop offset="1" stop-color="#ED3E45"/>
</linearGradient>
<clipPath id="clip0_386_2115">
<rect width="30" height="30" fill="white" transform="translate(12 12)"/>
</clipPath>
</defs>
</svg>
