<svg width="26" height="30" viewBox="0 0 26 30" fill="none" xmlns="http://www.w3.org/2000/svg">
<path fill-rule="evenodd" clip-rule="evenodd" d="M20.8478 6.10129C22.2497 6.10129 23.3902 7.24182 23.3902 8.64371C23.3902 9.87118 22.5151 10.8983 21.3563 11.1348V17.0125C21.2386 17.0042 21.1198 17 21 17C20.776 17 20.5555 17.0147 20.3393 17.0433V11.1861H17.7969V18.1605C17.4015 18.4908 17.0578 18.881 16.7799 19.3172V11.1861H15.763V25.4237C15.763 25.7043 15.9908 25.9321 16.2715 25.9321C16.5521 25.9321 16.7799 25.7043 16.7799 25.4237V24.6828C17.0468 25.1016 17.3742 25.4781 17.75 25.7998C17.582 26.4596 16.9827 26.9491 16.2715 26.9491C15.4304 26.9491 14.746 26.2647 14.746 25.4237V11.1861H13.2206V25.4237C13.2206 26.2647 12.5361 26.9491 11.6951 26.9491C10.8541 26.9491 10.1697 26.2647 10.1697 25.4237V11.1861H8.6442V25.4237C8.6442 26.2647 7.9598 26.9491 7.1188 26.9491C6.2777 26.9491 5.5933 26.2647 5.5933 25.4237V11.1861H3.0509V25.4237C3.0514 25.5676 3.1104 28.983 6.6103 28.983H16.7799C16.8996 28.9822 19.2814 28.9416 20.0805 26.9156C20.3786 26.971 20.6859 27 21 27C21.0448 27 21.0894 26.9994 21.1339 26.9982C20.4117 29.3317 18.1031 30 16.7799 30H6.6103C2.9904 30 2.0339 27.0066 2.0339 25.4237V11.1348C0.875097 10.8983 0 9.87118 0 8.64371C0 7.24182 1.1405 6.10129 2.5424 6.10129H5.1108C5.3721 2.69394 8.2217 0 11.6951 0C15.1681 0 18.0181 2.69394 18.2795 6.10129H20.8478ZM17.2655 6.10129C17.0077 3.2548 14.6077 1.01697 11.6951 1.01697C8.7825 1.01697 6.3825 3.2548 6.1247 6.10129H7.1467C7.401 3.81667 9.3439 2.03393 11.6951 2.03393C14.0468 2.03393 15.9893 3.81667 16.243 6.10129H17.2655ZM11.6951 3.0509C9.9058 3.0509 8.4245 4.37957 8.1764 6.10129H15.2138C14.9657 4.37957 13.4845 3.0509 11.6951 3.0509ZM7.6272 11.1861H6.6103V25.4237C6.6103 25.7043 6.8386 25.9321 7.1188 25.9321C7.3989 25.9321 7.6272 25.7043 7.6272 25.4237V11.1861ZM12.2036 25.4237V11.1861H11.1866V25.4237C11.1866 25.7043 11.4149 25.9321 11.6951 25.9321C11.9753 25.9321 12.2036 25.7043 12.2036 25.4237ZM2.5424 10.1692H20.8478C21.6888 10.1692 22.3733 9.48474 22.3733 8.64371C22.3733 7.80267 21.6888 7.11826 20.8478 7.11826L18.3054 7.11876L15.2545 7.11826L8.1357 7.11876L5.0848 7.11826H2.5424C1.7014 7.11826 1.017 7.80267 1.017 8.64371C1.017 9.48474 1.7014 10.1692 2.5424 10.1692Z" fill="white"/>
<path d="M21 26.5C23.4853 26.5 25.5 24.4853 25.5 22C25.5 19.5147 23.4853 17.5 21 17.5C18.5147 17.5 16.5 19.5147 16.5 22C16.5 24.4853 18.5147 26.5 21 26.5Z" stroke="white"/>
<path d="M22.182 20.3532L19.3536 23.1816C19.1583 23.3769 19.1583 23.6934 19.3536 23.8887C19.5488 24.084 19.8654 24.084 20.0607 23.8887L22.8891 21.0603C23.0843 20.865 23.0843 20.5484 22.8891 20.3532C22.6938 20.1579 22.3772 20.1579 22.182 20.3532Z" fill="white"/>
<path d="M22.889 23.182L20.0606 20.3536C19.8653 20.1583 19.5487 20.1583 19.3535 20.3536C19.1582 20.5488 19.1582 20.8654 19.3535 21.0607L22.1819 23.8891C22.3772 24.0843 22.6937 24.0843 22.889 23.8891C23.0843 23.6938 23.0843 23.3772 22.889 23.182Z" fill="white"/>
</svg>
