<svg width="24" height="22" viewBox="0 0 24 22" fill="none" xmlns="http://www.w3.org/2000/svg">
<path fill-rule="evenodd" clip-rule="evenodd" d="M12.0038 0C18.6299 0 24 2.97173 24 9.7445C24 16.5096 18.6299 22 12.0038 22C5.3701 22 0 16.5096 0 9.7445C0 2.97173 5.3701 0 12.0038 0Z" fill="#43A6F2"/>
<path fill-rule="evenodd" clip-rule="evenodd" d="M11.9637 14.2889C10.3766 14.2889 8.81937 13.9757 7.367 13.371C5.91463 12.7591 4.6045 11.8631 3.51897 10.7412C3.01738 10.2313 3.04732 9.41537 3.57137 8.93457C4.10291 8.44649 4.93391 8.47563 5.4355 8.98557C6.27398 9.85246 7.28465 10.5445 8.40762 11.0107C9.53058 11.4843 10.7359 11.7247 11.9637 11.7247C13.184 11.7247 14.3893 11.4843 15.5123 11.0107C16.6352 10.5445 17.6459 9.85246 18.4844 8.98557C18.986 8.47563 19.817 8.44649 20.3485 8.93457C20.8726 9.41537 20.9025 10.2313 20.4009 10.7412C19.3154 11.8631 18.0052 12.7591 16.5529 13.371C15.1005 13.9757 13.5433 14.2889 11.9637 14.2889Z" fill="white"/>
</svg>
