<svg width="80" height="73" viewBox="0 0 80 73" fill="none" xmlns="http://www.w3.org/2000/svg">
<path fill-rule="evenodd" clip-rule="evenodd" d="M40.0117 0.797577C61.969 0.797577 79.7642 10.4428 79.7642 32.4251C79.7642 54.3824 61.969 72.2024 40.0117 72.2024C18.0295 72.2024 0.234375 54.3824 0.234375 32.4251C0.234375 10.4428 18.0295 0.797577 40.0117 0.797577Z" fill="#686C97"/>
<path fill-rule="evenodd" clip-rule="evenodd" d="M40.0117 28.6627C34.728 28.6627 29.544 29.7344 24.7089 31.803C19.8738 33.8966 15.5122 36.9621 11.8984 40.8003C10.2285 42.5449 10.3282 45.3363 12.0728 46.9812C13.8424 48.6511 16.6089 48.5514 18.2787 46.8068C21.0701 43.8409 24.4347 41.4732 28.1732 39.8781C31.9117 38.2581 35.9243 37.4357 40.0117 37.4357C44.0742 37.4357 48.0868 38.2581 51.8253 39.8781C55.5637 41.4732 58.9284 43.8409 61.7198 46.8068C63.3896 48.5514 66.1561 48.6511 67.9256 46.9812C69.6702 45.3363 69.7699 42.5449 68.1001 40.8003C64.4862 36.9621 60.1247 33.8966 55.2896 31.803C50.4545 29.7344 45.2705 28.6627 40.0117 28.6627Z" fill="white"/>
</svg>
