<svg width="81" height="73" viewBox="0 0 81 73" fill="none" xmlns="http://www.w3.org/2000/svg">
<path fill-rule="evenodd" clip-rule="evenodd" d="M40.1449 0.601196C62.232 0.601196 80.1323 10.3269 80.1323 32.4923C80.1323 54.6326 62.232 72.6012 40.1449 72.6012C18.0327 72.6012 0.132324 54.6326 0.132324 32.4923C0.132324 10.3269 18.0327 0.601196 40.1449 0.601196Z" fill="#E6E6E6"/>
<path fill-rule="evenodd" clip-rule="evenodd" d="M40.0113 47.3649C34.7209 47.3649 29.5303 46.3397 24.6891 44.3609C19.8478 42.3583 15.4808 39.4258 11.8623 35.7542C10.1903 34.0854 10.2902 31.4151 12.037 29.8416C13.8088 28.2443 16.5788 28.3396 18.2507 30.0085C21.0457 32.8456 24.4146 35.1105 28.1578 36.6364C31.901 38.186 35.9187 38.9728 40.0113 38.9728C44.079 38.9728 48.0967 38.186 51.8399 36.6364C55.5831 35.1105 58.952 32.8456 61.747 30.0085C63.419 28.3396 66.1889 28.2443 67.9607 29.8416C69.7076 31.4151 69.8074 34.0854 68.1354 35.7542C64.517 39.4258 60.1499 42.3583 55.3086 44.3609C50.4674 46.3397 45.2768 47.3649 40.0113 47.3649Z" fill="white"/>
</svg>
