<svg width="140" height="126" viewBox="0 0 140 126" fill="none" xmlns="http://www.w3.org/2000/svg">
<path fill-rule="evenodd" clip-rule="evenodd" d="M70.0219 0C108.674 0 140 17.0199 140 55.8094C140 94.555 108.674 126 70.0219 126C31.3256 126 0 94.555 0 55.8094C0 17.0199 31.3256 0 70.0219 0Z" fill="#F6F6F6"/>
<path fill-rule="evenodd" clip-rule="evenodd" d="M69.7881 81.8366C60.5299 81.8366 51.4463 80.0425 42.9742 76.5796C34.502 73.0749 26.8596 67.9431 20.5273 61.5179C17.6014 58.5974 17.776 53.9245 20.833 51.1708C23.9336 48.3754 28.7811 48.5423 31.7071 51.4629C36.5982 56.4278 42.4938 60.3914 49.0444 63.0616C55.5951 65.7736 62.6261 67.1504 69.7881 67.1504C76.9065 67.1504 83.9375 65.7736 90.4881 63.0616C97.0388 60.3914 102.934 56.4278 107.826 51.4629C110.751 48.5423 115.599 48.3754 118.7 51.1708C121.757 53.9245 121.931 58.5974 119.005 61.5179C112.673 67.9431 105.031 73.0749 96.5584 76.5796C88.0862 80.0425 79.0027 81.8366 69.7881 81.8366Z" fill="white"/>
</svg>
