<svg width="50" height="50" viewBox="0 0 50 50" fill="none" xmlns="http://www.w3.org/2000/svg">
<path d="M7.8125 0C7.29375 0 6.78125 0.05 6.29063 0.15L6.89687 3.2125C7.19851 3.15359 7.50517 3.12428 7.8125 3.125H9.24375V0H7.8125ZM14.975 0H12.1094V3.125H14.975V0ZM20.7031 0H17.8375V3.125H20.7031V0ZM26.4313 0H23.5687V3.125H26.4313V0ZM32.1625 0H29.2969V3.125H32.1625V0ZM37.8906 0H35.025V3.125H37.8906V0ZM42.1875 0H40.7562V3.125H42.1875C42.5 3.125 42.8094 3.15625 43.1031 3.21563L43.7094 0.15C43.2082 0.0505495 42.6985 0.000310783 42.1875 0V0ZM48.6844 3.46875C48.1132 2.61704 47.3807 1.88554 46.5281 1.31562L44.7906 3.9125C45.3031 4.25625 45.7438 4.69688 46.0875 5.20938L48.6813 3.47187L48.6844 3.46875ZM3.46875 1.31562C2.61704 1.88678 1.88554 2.61934 1.31562 3.47187L3.9125 5.20938C4.25625 4.69688 4.69688 4.25625 5.20938 3.9125L3.46875 1.31875V1.31562ZM50 7.8125C50 7.29375 49.95 6.78125 49.85 6.29063L46.7875 6.89687C46.8438 7.19063 46.875 7.49687 46.875 7.8125V9.24375H50V7.8125ZM0.15 6.29063C0.0505495 6.79182 0.000310783 7.30153 0 7.8125L0 9.24375H3.125V7.8125C3.125 7.5 3.15625 7.19063 3.21563 6.89687L0.15 6.29063ZM0 12.1094V14.975H3.125V12.1094H0ZM50 14.975V12.1094H46.875V14.975H50ZM0 17.8375V20.7031H3.125V17.8375H0ZM50 20.7031V17.8375H46.875V20.7031H50ZM0 23.5687V26.4313H3.125V23.5687H0ZM46.875 26.4313H50V23.5687H46.875V26.4313ZM0 29.2969V32.1625H3.125V29.2969H0ZM50 32.1625V29.2969H46.875V32.1625H50ZM0 35.025V37.8906H3.125V35.025H0ZM50 37.8906V35.025H46.875V37.8906H50ZM0 40.7562V42.1875C0 42.7062 0.05 43.2188 0.15 43.7094L3.2125 43.1031C3.15359 42.8015 3.12428 42.4948 3.125 42.1875V40.7562H0ZM50 42.1875V40.7562H46.875V42.1875C46.875 42.5 46.8438 42.8094 46.7844 43.1031L49.85 43.7094C49.95 43.2156 50 42.7094 50 42.1875ZM1.31562 46.5312C1.8875 47.3813 2.61875 48.1125 3.47187 48.6844L5.20938 46.0875C4.69642 45.7442 4.25581 45.3036 3.9125 44.7906L1.31875 46.5281L1.31562 46.5312ZM46.5312 48.6844C47.3813 48.1125 48.1125 47.3812 48.6844 46.5281L46.0875 44.7906C45.7438 45.3031 45.3031 45.7438 44.7906 46.0875L46.5281 48.6813L46.5312 48.6844ZM6.29063 49.85C6.78438 49.95 7.29063 50 7.8125 50H9.24375V46.875H7.8125C7.5 46.875 7.19063 46.8438 6.89687 46.7844L6.29063 49.85ZM42.1875 50C42.7062 50 43.2188 49.95 43.7094 49.85L43.1031 46.7875C42.8015 46.8464 42.4948 46.8757 42.1875 46.875H40.7562V50H42.1875ZM12.1094 50H14.975V46.875H12.1094V50ZM17.8375 50H20.7031V46.875H17.8375V50ZM23.5687 46.875V50H26.4313V46.875H23.5687ZM29.2969 50H32.1625V46.875H29.2969V50ZM35.025 50H37.8906V46.875H35.025V50ZM26.5625 14.0625C26.5625 13.6481 26.3979 13.2507 26.1049 12.9576C25.8118 12.6646 25.4144 12.5 25 12.5C24.5856 12.5 24.1882 12.6646 23.8951 12.9576C23.6021 13.2507 23.4375 13.6481 23.4375 14.0625V23.4375H14.0625C13.6481 23.4375 13.2507 23.6021 12.9576 23.8951C12.6646 24.1882 12.5 24.5856 12.5 25C12.5 25.4144 12.6646 25.8118 12.9576 26.1049C13.2507 26.3979 13.6481 26.5625 14.0625 26.5625H23.4375V35.9375C23.4375 36.3519 23.6021 36.7493 23.8951 37.0424C24.1882 37.3354 24.5856 37.5 25 37.5C25.4144 37.5 25.8118 37.3354 26.1049 37.0424C26.3979 36.7493 26.5625 36.3519 26.5625 35.9375V26.5625H35.9375C36.3519 26.5625 36.7493 26.3979 37.0424 26.1049C37.3354 25.8118 37.5 25.4144 37.5 25C37.5 24.5856 37.3354 24.1882 37.0424 23.8951C36.7493 23.6021 36.3519 23.4375 35.9375 23.4375H26.5625V14.0625Z" fill="#7B8794"/>
</svg>
