<?xml version="1.0" encoding="UTF-8" standalone="no"?>
<svg
   width="100"
   height="64"
   viewBox="0 0 100 64"
   fill="none"
   version="1.1"
   id="svg8"
   sodipodi:docname="default.svg"
   inkscape:version="1.1.1 (3bf5ae0d25, 2021-09-20)"
   xmlns:inkscape="http://www.inkscape.org/namespaces/inkscape"
   xmlns:sodipodi="http://sodipodi.sourceforge.net/DTD/sodipodi-0.dtd"
   xmlns="http://www.w3.org/2000/svg"
   xmlns:svg="http://www.w3.org/2000/svg">
  <defs
     id="defs12" />
  <sodipodi:namedview
     id="namedview10"
     pagecolor="#ffffff"
     bordercolor="#666666"
     borderopacity="1.0"
     inkscape:pageshadow="2"
     inkscape:pageopacity="0.0"
     inkscape:pagecheckerboard="0"
     showgrid="false"
     inkscape:zoom="4.0934854"
     inkscape:cx="-5.4965385"
     inkscape:cy="51.545317"
     inkscape:window-width="1920"
     inkscape:window-height="966"
     inkscape:window-x="0"
     inkscape:window-y="0"
     inkscape:window-maximized="1"
     inkscape:current-layer="svg8" />
  <path
     fill-rule="evenodd"
     clip-rule="evenodd"
     d="m 4.3035335,10.306499 c 0,-1.0891819 1.6920529,-1.972137 3.7793082,-1.972137 H 91.227614 c 2.087311,0 3.779308,0.8829551 3.779308,1.972137 v 43.387002 c 0,1.089211 -1.691997,1.972137 -3.779308,1.972137 H 8.0828417 c -2.0872553,0 -3.7793082,-0.882926 -3.7793082,-1.972137 z"
     stroke="#acccf8"
     stroke-width="2.73007"
     stroke-linecap="round"
     stroke-linejoin="round"
     id="path2" />
  <path
     fill-rule="evenodd"
     clip-rule="evenodd"
     d="m 22.667,26.6667 c 2.2091,0 4,-1.7908 4,-4 0,-2.2091 -1.7909,-4 -4,-4 -2.2091,0 -4,1.7909 -4,4 0,2.2092 1.7909,4 4,4 z"
     stroke="#acccf8"
     stroke-width="2"
     stroke-linecap="round"
     stroke-linejoin="round"
     id="path4" />
  <path
     d="M 93.709355,40.0001 68.591638,26.6667 13.333,56.0001"
     stroke="#acccf8"
     stroke-width="2.74505"
     stroke-linecap="round"
     stroke-linejoin="round"
     id="path6" />
</svg>
