<svg width="250" height="57" viewBox="0 0 250 57" fill="none" xmlns="http://www.w3.org/2000/svg">
<path fill-rule="evenodd" clip-rule="evenodd" d="M32.01 0C49.6797 0 64 7.69948 64 25.2471C64 42.7749 49.6797 57 32.01 57C14.3203 57 0 42.7749 0 25.2471C0 7.69948 14.3203 0 32.01 0Z" fill="#43A6F2"/>
<path fill-rule="evenodd" clip-rule="evenodd" d="M32.0103 37.8208C27.7583 37.8208 23.5866 36.9653 19.6957 35.314C15.8047 33.6428 12.2948 31.1957 9.38667 28.1318C8.04289 26.7391 8.12311 24.5109 9.52706 23.1978C10.9511 21.8648 13.1773 21.9444 14.5211 23.3371C16.7674 25.7046 19.475 27.5946 22.4835 28.8679C25.492 30.1611 28.721 30.8177 32.0103 30.8177C35.2795 30.8177 38.5086 30.1611 41.517 28.8679C44.5255 27.5946 47.2331 25.7046 49.4794 23.3371C50.8232 21.9444 53.0495 21.8648 54.4735 23.1978C55.8774 24.5109 55.9577 26.7391 54.6139 28.1318C51.7057 31.1957 48.1958 33.6428 44.3049 35.314C40.4139 36.9653 36.2422 37.8208 32.0103 37.8208Z" fill="white"/>
<path fill-rule="evenodd" clip-rule="evenodd" d="M87.3092 34.3032C87.3494 35.3875 87.5904 36.4317 88.0723 37.3956C88.5542 38.3193 89.2369 39.1225 90.1205 39.6446C91.004 40.1666 91.9277 40.4076 92.9317 40.4076C93.5743 40.4076 94.2169 40.3273 94.8594 40.1666C95.4618 40.006 96.0241 39.7249 96.5462 39.4036C97.0683 39.0421 97.5904 38.6807 98.0723 38.2389C98.7149 37.6767 99.3574 37.1144 100 36.512C100.442 36.1104 101.044 35.9899 101.647 35.9899C102.329 35.9899 102.972 36.1506 103.494 36.6325C104.056 37.0743 104.257 37.757 104.257 38.4397C104.257 39.2028 103.896 40.006 103.534 40.6486C103.012 41.5321 102.249 42.2952 101.406 42.9377C100.361 43.7409 99.1566 44.3032 97.9116 44.745C96.3855 45.267 94.739 45.4277 93.1325 45.4277C89.5181 45.4277 86.0241 44.5442 83.4538 41.8936C80.9237 39.2429 80 35.8695 80 32.255C80 30.4478 80.241 28.6807 80.8434 26.994C81.4056 25.4277 82.2088 23.9819 83.3333 22.7771C84.4578 21.5321 85.8635 20.6486 87.3896 20.0462C89.0763 19.4036 90.8835 19.1225 92.6506 19.1225C94.9398 19.1225 97.1888 19.5642 99.1566 20.7289C100.924 21.7731 102.329 23.1385 103.253 24.9056C104.137 26.512 104.618 28.2791 104.618 30.0863C104.618 31.4518 104.297 32.8976 103.012 33.5803C101.847 34.1827 100.321 34.3032 99.0361 34.3032H87.3092ZM210.442 11.5723C212.41 11.5723 214.016 12.8574 214.016 14.4638C214.016 16.0703 212.41 17.3956 210.442 17.3956C208.474 17.3956 206.908 16.0703 206.908 14.4638C206.908 12.8574 208.474 11.5723 210.442 11.5723ZM132.169 42.1345C130.924 43.0984 129.558 43.9417 128.112 44.5442C126.546 45.1867 124.859 45.4277 123.173 45.4277C121.647 45.4277 120.12 45.1466 118.755 44.4237C117.51 43.7811 116.506 42.8976 115.783 41.6927C115.06 40.5682 114.739 39.3233 114.739 37.9578C114.739 36.1907 115.261 34.6245 116.466 33.2992C117.711 31.8936 119.357 31.1305 121.165 30.7289C122.129 30.4879 123.133 30.2871 124.137 30.0863C125.462 29.8454 126.787 29.5642 128.153 29.2429C129.237 28.9618 130.321 28.6807 131.406 28.3594C131.325 27.3554 131.125 26.1506 130.522 25.3875C129.88 24.504 128.233 24.3835 127.229 24.3835C126.225 24.3835 124.819 24.504 123.896 24.9859C123.092 25.4277 122.49 26.0703 122.008 26.8333C121.606 27.4357 121.205 28.0783 120.763 28.6405C120.321 29.1225 119.518 29.2028 118.875 29.2028C118.072 29.2028 117.349 28.9618 116.747 28.3996C116.145 27.8775 115.863 27.1546 115.863 26.3514C115.863 25.0662 116.345 23.9016 117.108 22.8574C118.032 21.6124 119.478 20.7691 120.924 20.1666C122.892 19.3634 125.141 19.1225 127.269 19.1225C129.398 19.1225 131.888 19.3233 133.896 20.1265C135.502 20.8092 136.707 21.8534 137.47 23.4197C138.273 25.1867 138.474 27.3152 138.474 29.2028C138.474 30.4478 138.474 31.6927 138.434 32.9377C138.434 34.0622 138.434 35.2269 138.434 36.3514C138.434 37.5562 138.635 38.7209 138.996 39.8855C139.197 40.5281 139.598 41.7731 139.598 42.4558C139.598 43.2992 139.157 44.0221 138.514 44.5442C137.871 45.1466 137.068 45.4277 136.185 45.4277C135.301 45.4277 134.578 45.0261 133.976 44.4237C133.293 43.7811 132.691 42.9779 132.169 42.1345ZM150.843 19.7249V16.4317C150.843 15.6285 150.843 15.7088 150.924 14.9056C151.004 14.3032 151.125 13.7409 151.446 13.259C151.727 12.7369 152.129 12.3353 152.651 12.014C153.213 11.7329 153.775 11.5723 154.418 11.5723C155.341 11.5723 156.185 11.9337 156.867 12.5763C157.349 13.0582 157.671 13.6205 157.791 14.3032C157.992 15.0662 157.992 15.1466 157.992 15.9498V19.7249H159.799C160.643 19.7249 161.526 19.9257 162.129 20.4879C162.731 20.9699 163.012 21.6526 163.012 22.4156C163.012 23.3795 162.61 24.1425 161.767 24.5843C160.843 25.0662 159.679 25.1466 158.675 25.1466H157.992V36.1506C157.992 36.8735 157.992 37.6365 158.072 38.3193C158.153 38.7209 158.273 39.0823 158.514 39.3634C158.795 39.6446 159.277 39.7249 159.639 39.7249C160.08 39.7249 160.602 39.6044 161.044 39.5241C161.526 39.4438 162.088 39.3233 162.57 39.3233C163.253 39.3233 163.815 39.6044 164.257 40.0462C164.779 40.5683 165.02 41.1707 165.02 41.8936C165.02 43.1787 164.217 44.0622 163.092 44.5843C161.647 45.3072 159.759 45.4277 158.193 45.4277C156.626 45.4277 154.819 45.267 153.494 44.3835C152.41 43.6606 151.687 42.6566 151.325 41.4116C150.924 39.9257 150.843 38.1988 150.843 36.6727V25.1466H150.482C149.639 25.1466 148.755 24.9859 148.112 24.3835C147.55 23.8614 147.269 23.1787 147.269 22.4156C147.269 21.6526 147.59 20.9699 148.153 20.4478C148.835 19.8855 149.759 19.7249 150.643 19.7249H150.843ZM184.337 36.3514L189.317 22.7369C189.639 21.8936 190.08 20.7691 190.683 20.0863C191.205 19.4036 192.048 19.1626 192.892 19.1626C193.775 19.1626 194.578 19.4839 195.221 20.0863C195.823 20.6887 196.185 21.4116 196.185 22.2952C196.185 22.6566 196.145 23.018 196.024 23.3795C195.944 23.7409 195.823 24.1024 195.663 24.4638C195.542 24.8253 195.382 25.1867 195.221 25.5482L189.237 40.4076C189.036 40.9297 188.795 41.4919 188.594 42.014C188.353 42.6164 188.032 43.2189 187.671 43.7811C187.309 44.3032 186.827 44.7048 186.305 44.9859C185.703 45.3474 185.02 45.4277 184.337 45.4277C183.454 45.4277 182.61 45.267 181.928 44.745C181.406 44.3434 180.964 43.8614 180.643 43.259C180.161 42.3755 179.759 41.3313 179.357 40.4076L173.414 25.7088C173.293 25.3072 173.133 24.9458 173.012 24.5843C172.851 24.2229 172.731 23.8213 172.61 23.4197C172.53 23.0582 172.45 22.6968 172.45 22.3353C172.45 21.7731 172.61 21.2911 172.892 20.8092C173.213 20.3273 173.614 19.9257 174.137 19.6446C174.659 19.3233 175.261 19.1626 175.863 19.1626C176.827 19.1626 177.831 19.4036 178.394 20.2871C178.956 21.1305 179.398 22.3755 179.719 23.3795L184.337 36.3514ZM214.016 23.1787V41.2108C214.016 42.3353 213.815 43.5 213.012 44.3433C212.329 45.1064 211.446 45.4277 210.442 45.4277C209.398 45.4277 208.514 45.0662 207.871 44.3032C207.108 43.4598 206.867 42.2952 206.867 41.2108V23.3393C206.867 22.255 207.108 21.0903 207.871 20.247C208.554 19.5241 209.438 19.1626 210.442 19.1626C211.446 19.1626 212.329 19.5241 213.012 20.247C213.775 21.0502 214.016 22.0944 214.016 23.1787ZM250 32.3353C250 34.1425 249.759 35.9096 249.116 37.5964C248.554 39.2028 247.671 40.6084 246.506 41.8132C245.341 43.018 243.976 43.9016 242.41 44.504C240.723 45.1867 238.916 45.4277 237.108 45.4277C235.301 45.4277 233.494 45.1867 231.847 44.504C230.281 43.8614 228.916 42.9779 227.751 41.7731C226.586 40.5683 225.703 39.1626 225.141 37.5964C224.498 35.9096 224.257 34.1024 224.257 32.2952C224.257 30.4879 224.498 28.6807 225.141 26.9538C225.743 25.3875 226.586 23.9819 227.751 22.7771C228.916 21.5723 230.281 20.7289 231.847 20.1265C233.534 19.4438 235.301 19.1626 237.108 19.1626C238.916 19.1626 240.723 19.4438 242.41 20.1265C243.976 20.7289 245.341 21.6526 246.506 22.8172C247.711 24.0221 248.554 25.4678 249.116 27.0341C249.759 28.7209 250 30.5281 250 32.3353ZM87.3494 29.8454H97.6305C97.4699 28.3996 97.0683 26.8735 96.0643 25.8293C95.1004 24.7851 93.8554 24.3835 92.4498 24.3835C91.0843 24.3835 89.9197 24.8253 88.9558 25.8695C87.992 26.9136 87.5502 28.3996 87.3494 29.8454ZM131.406 33.0984C130.321 33.4598 129.116 33.7008 127.992 33.9417C126.787 34.2229 125.582 34.4638 124.378 34.7851C123.735 34.9458 123.173 35.3072 122.651 35.7088C122.088 36.1907 121.888 36.7931 121.888 37.516C121.888 38.3594 122.209 39.002 122.851 39.6044C123.534 40.247 124.418 40.4478 125.341 40.4478C126.466 40.4478 127.55 40.2068 128.514 39.6847C129.398 39.243 130.161 38.6405 130.643 37.7972C131.325 36.6325 131.406 34.6646 131.406 33.3393V33.0984ZM242.811 32.3353C242.811 30.3674 242.49 28.2389 241.245 26.6727C240.201 25.3474 238.795 24.7048 237.108 24.7048C236.024 24.7048 235.02 24.9859 234.137 25.5883C233.213 26.2309 232.57 27.1546 232.169 28.1586C231.647 29.4839 231.446 30.9297 231.446 32.3353C231.446 33.7008 231.606 35.1466 232.129 36.4317C232.57 37.4357 233.173 38.3594 234.096 39.002C234.98 39.6446 236.024 39.8855 237.108 39.8855C238.795 39.8855 240.201 39.2831 241.245 37.9578C242.49 36.3514 242.811 34.263 242.811 32.3353Z" fill="#323F4B"/>
</svg>
