<svg preserveAspectRatio="none" width="100%" height="100%" overflow="visible" style="display: block;" viewBox="0 0 20 20" fill="none" xmlns="http://www.w3.org/2000/svg">
<g id="_1383675703552">
<path id="Vector" d="M10 1.49012e-07C10.396 1.49012e-07 10.72 0.324 10.72 0.72C10.72 1.116 10.396 1.44 10 1.44H3.776C3.136 1.44 2.552 1.704 2.128 2.128C1.704 2.552 1.44 3.136 1.44 3.776V16.224C1.44 16.864 1.704 17.448 2.128 17.872C2.552 18.296 3.136 18.56 3.776 18.56H10C10.396 18.56 10.72 18.884 10.72 19.28C10.72 19.676 10.396 20 10 20H3.776C2.736 20 1.792 19.576 1.108 18.892C0.424 18.208 0 17.264 0 16.224V3.776C0 2.736 0.424 1.792 1.108 1.108C1.792 0.424 2.736 1.49012e-07 3.776 1.49012e-07H10Z" fill="var(--fill-0, #2F80ED)"/>
<path id="Vector_2" d="M0.72 4.2H19.28V5.64H0.72V4.2Z" fill="var(--fill-0, #2F80ED)"/>
<path id="Vector_3" d="M10 1.44C9.604 1.44 9.28 1.116 9.28 0.72C9.28 0.324 9.604 0 10 0H16.224C17.264 0 18.208 0.424 18.892 1.108C19.576 1.792 20 2.736 20 3.776V16.224C20 17.264 19.576 18.208 18.892 18.892C18.208 19.576 17.264 20 16.224 20H10C9.604 20 9.28 19.676 9.28 19.28C9.28 18.884 9.604 18.56 10 18.56H16.224C16.864 18.56 17.448 18.296 17.872 17.872C18.296 17.448 18.56 16.864 18.56 16.224V3.776C18.56 3.136 18.296 2.552 17.872 2.128C17.448 1.704 16.864 1.44 16.224 1.44H10Z" fill="var(--fill-0, #2F80ED)"/>
<path id="Vector_4" d="M6.612 16.04C6.376 16.36 5.928 16.424 5.608 16.184C5.292 15.948 5.228 15.496 5.468 15.18C5.992 14.48 6.676 13.904 7.468 13.508C8.236 13.124 9.096 12.908 10 12.908C10.904 12.908 11.764 13.124 12.532 13.508C13.324 13.904 14.008 14.48 14.532 15.18C14.772 15.496 14.708 15.948 14.392 16.184C14.072 16.424 13.624 16.36 13.388 16.04C12.992 15.516 12.48 15.084 11.892 14.792C11.324 14.508 10.684 14.348 10 14.348C9.316 14.348 8.676 14.508 8.108 14.792C7.52 15.084 7.008 15.516 6.612 16.04Z" fill="var(--fill-0, #2F80ED)"/>
<path id="Vector_5" d="M10 13.792C9.144 13.792 8.372 13.448 7.812 12.888C7.248 12.328 6.904 11.552 6.904 10.696C6.904 9.84 7.248 9.068 7.812 8.508C8.372 7.948 9.144 7.6 10 7.6C10.856 7.6 11.628 7.948 12.188 8.508C12.752 9.068 13.096 9.84 13.096 10.696C13.096 11.552 12.752 12.328 12.188 12.888C11.628 13.448 10.856 13.792 10 13.792ZM8.828 11.868C9.128 12.168 9.544 12.352 10 12.352C10.456 12.352 10.872 12.168 11.172 11.868C11.472 11.568 11.656 11.156 11.656 10.696C11.656 10.24 11.472 9.824 11.172 9.524C10.872 9.224 10.456 9.04 10 9.04C9.544 9.04 9.128 9.224 8.828 9.524C8.528 9.824 8.344 10.24 8.344 10.696C8.344 11.156 8.528 11.568 8.828 11.868Z" fill="var(--fill-0, #2F80ED)"/>
</g>
</svg>
