<svg xmlns="http://www.w3.org/2000/svg" width="20" height="20" viewBox="0 0 20 20" fill="none">
    <g clip-path="url(#clip0_9169_66809)">
        <path
            d="M10 0C10.396 0 10.72 0.324 10.72 0.72C10.72 1.116 10.396 1.44 10 1.44H3.776C3.136 1.44 2.552 1.704 2.128 2.128C1.704 2.552 1.44 3.136 1.44 3.776V16.224C1.44 16.864 1.704 17.448 2.128 17.872C2.552 18.296 3.136 18.56 3.776 18.56H10C10.396 18.56 10.72 18.884 10.72 19.28C10.72 19.676 10.396 20 10 20H3.776C2.736 20 1.792 19.576 1.108 18.892C0.424 18.208 0 17.264 0 16.224V3.776C0 2.736 0.424 1.792 1.108 1.108C1.792 0.424 2.736 0 3.776 0H10Z"
            fill="#2F80ED" />
        <path d="M0.720703 4.19922H19.2807V5.63922H0.720703V4.19922Z" fill="#2F80ED" />
        <path
            d="M9.9993 1.44C9.6033 1.44 9.2793 1.116 9.2793 0.72C9.2793 0.324 9.6033 0 9.9993 0H16.2233C17.2633 0 18.2073 0.424 18.8913 1.108C19.5753 1.792 19.9993 2.736 19.9993 3.776V16.224C19.9993 17.264 19.5753 18.208 18.8913 18.892C18.2073 19.576 17.2633 20 16.2233 20H9.9993C9.6033 20 9.2793 19.676 9.2793 19.28C9.2793 18.884 9.6033 18.56 9.9993 18.56H16.2233C16.8633 18.56 17.4473 18.296 17.8713 17.872C18.2953 17.448 18.5593 16.864 18.5593 16.224V3.776C18.5593 3.136 18.2953 2.552 17.8713 2.128C17.4473 1.704 16.8633 1.44 16.2233 1.44H9.9993Z"
            fill="#2F80ED" />
        <path
            d="M6.61174 16.0402C6.37574 16.3602 5.92774 16.4242 5.60774 16.1842C5.29174 15.9482 5.22774 15.4962 5.46774 15.1802C5.99174 14.4802 6.67574 13.9042 7.46774 13.5082C8.23574 13.1242 9.09574 12.9082 9.99974 12.9082C10.9037 12.9082 11.7637 13.1242 12.5317 13.5082C13.3237 13.9042 14.0077 14.4802 14.5317 15.1802C14.7717 15.4962 14.7077 15.9482 14.3917 16.1842C14.0717 16.4242 13.6237 16.3602 13.3877 16.0402C12.9917 15.5162 12.4797 15.0842 11.8917 14.7922C11.3237 14.5082 10.6837 14.3482 9.99974 14.3482C9.31574 14.3482 8.67574 14.5082 8.10774 14.7922C7.51974 15.0842 7.00774 15.5162 6.61174 16.0402Z"
            fill="#2F80ED" />
        <path
            d="M10.0003 13.7916C9.1443 13.7916 8.3723 13.4476 7.8123 12.8876C7.2483 12.3276 6.9043 11.5516 6.9043 10.6956C6.9043 9.83961 7.2483 9.06761 7.8123 8.50761C8.3723 7.94761 9.1443 7.59961 10.0003 7.59961C10.8563 7.59961 11.6283 7.94761 12.1883 8.50761C12.7523 9.06761 13.0963 9.83961 13.0963 10.6956C13.0963 11.5516 12.7523 12.3276 12.1883 12.8876C11.6283 13.4476 10.8563 13.7916 10.0003 13.7916ZM8.8283 11.8676C9.1283 12.1676 9.5443 12.3516 10.0003 12.3516C10.4563 12.3516 10.8723 12.1676 11.1723 11.8676C11.4723 11.5676 11.6563 11.1556 11.6563 10.6956C11.6563 10.2396 11.4723 9.82361 11.1723 9.52361C10.8723 9.22361 10.4563 9.03961 10.0003 9.03961C9.5443 9.03961 9.1283 9.22361 8.8283 9.52361C8.5283 9.82361 8.3443 10.2396 8.3443 10.6956C8.3443 11.1556 8.5283 11.5676 8.8283 11.8676Z"
            fill="#2F80ED" />
    </g>
    <defs>
        <clipPath id="clip0_9169_66809">
            <rect width="20" height="20" fill="white" />
        </clipPath>
    </defs>
</svg>