<svg preserveAspectRatio="none" width="100%" height="100%" overflow="visible" style="display: block;" viewBox="0 0 20 20" fill="none" xmlns="http://www.w3.org/2000/svg">
<g id="_1383675703424">
<path id="Vector" d="M12.856 16.224C12.856 15.828 13.18 15.504 13.576 15.504C13.972 15.504 14.296 15.828 14.296 16.224C14.296 17.264 13.872 18.208 13.188 18.892C12.504 19.576 11.56 20 10.52 20H3.776C2.736 20 1.792 19.576 1.108 18.892C0.424 18.208 0 17.264 0 16.224V3.776C0 2.736 0.424 1.792 1.108 1.108C1.792 0.424 2.736 0 3.776 0H10.52C11.56 0 12.504 0.424 13.188 1.108C13.872 1.792 14.296 2.736 14.296 3.776C14.296 4.172 13.972 4.496 13.576 4.496C13.18 4.496 12.856 4.172 12.856 3.776C12.856 3.136 12.592 2.552 12.168 2.128C11.744 1.704 11.16 1.44 10.52 1.44H3.776C3.136 1.44 2.552 1.704 2.128 2.128C1.704 2.552 1.44 3.136 1.44 3.776V16.224C1.44 16.864 1.704 17.448 2.128 17.872C2.552 18.296 3.136 18.56 3.776 18.56H10.52C11.16 18.56 11.744 18.296 12.168 17.872C12.592 17.448 12.856 16.864 12.856 16.224Z" fill="var(--fill-0, #2F80ED)"/>
<path id="Vector_2" d="M19.792 9.496C20.068 9.78 20.068 10.232 19.784 10.512C19.5 10.788 19.048 10.788 18.768 10.504L16.272 7.976C15.996 7.692 16 7.24 16.28 6.96C16.564 6.684 17.02 6.684 17.296 6.968L19.792 9.496Z" fill="var(--fill-0, #2F80ED)"/>
<path id="Vector_3" d="M18.768 9.496C19.048 9.212 19.5 9.212 19.784 9.488C20.068 9.768 20.068 10.22 19.792 10.504L17.296 13.032C17.02 13.316 16.564 13.316 16.28 13.04C16 12.76 15.996 12.308 16.272 12.024L18.768 9.496Z" fill="var(--fill-0, #2F80ED)"/>
<path id="Vector_4" d="M19.28 9.28C19.676 9.28 20 9.604 20 10C20 10.396 19.676 10.72 19.28 10.72H8.512C8.112 10.72 7.792 10.396 7.792 10C7.792 9.604 8.112 9.28 8.512 9.28H19.28Z" fill="var(--fill-0, #2F80ED)"/>
</g>
</svg>
