<svg preserveAspectRatio="none" width="100%" height="100%" overflow="visible" style="display: block;" viewBox="0 0 20 20" fill="none" xmlns="http://www.w3.org/2000/svg">
<g id="&#208;&#159;&#208;&#190;&#208;&#180;&#208;&#180;&#208;&#181;&#209;&#128;&#208;&#182;&#208;&#186;&#208;&#176; 1">
<path id="Vector" d="M13 8.66667L17.553 6.58033C17.7054 6.51052 17.8748 6.47756 18.045 6.48458C18.2152 6.49161 18.3806 6.53839 18.5256 6.62049C18.6706 6.70258 18.7902 6.81727 18.8733 6.95367C18.9563 7.09006 18.9999 7.24364 19 7.39983V13.6002C18.9999 13.7564 18.9563 13.9099 18.8733 14.0463C18.7902 14.1827 18.6706 14.2974 18.5256 14.3795C18.3806 14.4616 18.2152 14.5084 18.045 14.5154C17.8748 14.5224 17.7054 14.4895 17.553 14.4197L13 12.3333M3 16H11C11.5304 16 12.0391 15.8068 12.4142 15.463C12.7893 15.1192 13 14.6529 13 14.1667V6.83333C13 6.3471 12.7893 5.88079 12.4142 5.53697C12.0391 5.19315 11.5304 5 11 5H3C2.46957 5 1.96086 5.19315 1.58579 5.53697C1.21071 5.88079 1 6.3471 1 6.83333V14.1667C1 14.6529 1.21071 15.1192 1.58579 15.463C1.96086 15.8068 2.46957 16 3 16Z" stroke="var(--stroke-0, #2F80ED)" stroke-width="1.5" stroke-linecap="round" stroke-linejoin="round"/>
</g>
</svg>
