<svg xmlns="http://www.w3.org/2000/svg" width="20" height="20" viewBox="0 0 20 20" fill="none">
    <g clip-path="url(#clip0_9169_66827)">
        <path
            d="M8.84448 5.11969C8.44848 5.11969 8.12448 4.79569 8.12448 4.39969C8.12448 3.99969 8.44848 3.67969 8.84448 3.67969H15.9525C17.0645 3.67969 18.0765 4.13569 18.8125 4.86769C19.5445 5.59969 20.0005 6.61169 20.0005 7.72769V17.0717C20.0005 17.9117 19.8565 18.5837 19.5765 19.0717C19.2245 19.6797 18.6965 19.9997 18.0085 19.9997C17.6245 19.9997 17.3285 19.9517 17.0245 19.8157C16.7325 19.6877 16.4885 19.4997 16.2045 19.2117C16.1925 19.1997 16.1805 19.1877 16.1685 19.1757L14.7845 17.7917H6.44848C5.33248 17.7917 4.32048 17.3357 3.58848 16.6037C2.85248 15.8717 2.39648 14.8557 2.39648 13.7437V8.50369C2.39648 8.10769 2.72048 7.78369 3.11648 7.78369C3.51648 7.78369 3.83648 8.10769 3.83648 8.50369V13.7437C3.83648 14.4597 4.13248 15.1117 4.60448 15.5837C5.07648 16.0597 5.73248 16.3517 6.44848 16.3517H15.0805V16.3557C15.2605 16.3557 15.4445 16.4237 15.5845 16.5637L17.1845 18.1597C17.1965 18.1717 17.2085 18.1837 17.2245 18.1957C17.3885 18.3597 17.5085 18.4597 17.6085 18.5077C17.9245 18.6477 18.1765 18.5757 18.2965 18.4557C18.5565 18.1957 18.5605 17.7157 18.5605 17.2117V7.72769C18.5605 7.01169 18.2685 6.35969 17.7925 5.88369C17.3205 5.41169 16.6685 5.11969 15.9525 5.11969H8.84448Z"
            fill="#2F80ED" />
        <path
            d="M9.9993 9.58453C9.6033 9.58453 9.2793 9.26053 9.2793 8.86453C9.2793 8.46453 9.6033 8.14453 9.9993 8.14453H15.0793C15.4753 8.14453 15.7993 8.46453 15.7993 8.86453C15.7993 9.26053 15.4753 9.58453 15.0793 9.58453H9.9993Z"
            fill="#2F80ED" />
        <path
            d="M6.44852 13.2486C6.04852 13.2486 5.72852 12.9286 5.72852 12.5286C5.72852 12.1326 6.04852 11.8086 6.44852 11.8086H15.0805C15.4765 11.8086 15.8005 12.1326 15.8005 12.5286C15.8005 12.9286 15.4765 13.2486 15.0805 13.2486H6.44852Z"
            fill="#2F80ED" />
        <path
            d="M4.792 0C6.116 0 7.312 0.536 8.18 1.404C9.048 2.272 9.584 3.468 9.584 4.792C9.584 6.116 9.048 7.312 8.18 8.18C7.312 9.048 6.116 9.584 4.792 9.584C3.468 9.584 2.272 9.048 1.404 8.18C0.536 7.312 0 6.116 0 4.792C0 3.468 0.536 2.272 1.404 1.404C2.272 0.536 3.468 0 4.792 0ZM7.16 2.42C6.556 1.816 5.716 1.44 4.792 1.44C3.864 1.44 3.028 1.816 2.42 2.42C1.816 3.028 1.44 3.864 1.44 4.792C1.44 5.716 1.816 6.556 2.42 7.16C3.028 7.768 3.864 8.144 4.792 8.144C5.716 8.144 6.556 7.768 7.16 7.16C7.768 6.556 8.144 5.716 8.144 4.792C8.144 3.864 7.768 3.028 7.16 2.42Z"
            fill="#2F80ED" />
        <path
            d="M3.31961 5.51227C2.91961 5.51227 2.59961 5.18827 2.59961 4.79227C2.59961 4.39227 2.91961 4.07227 3.31961 4.07227H6.26361C6.65961 4.07227 6.98361 4.39227 6.98361 4.79227C6.98361 5.18827 6.65961 5.51227 6.26361 5.51227H3.31961Z"
            fill="#2F80ED" />
        <path
            d="M4.07227 3.31961C4.07227 2.91961 4.39227 2.59961 4.79227 2.59961C5.18827 2.59961 5.51227 2.91961 5.51227 3.31961V6.26361C5.51227 6.65961 5.18827 6.98361 4.79227 6.98361C4.39227 6.98361 4.07227 6.65961 4.07227 6.26361V3.31961Z"
            fill="#2F80ED" />
    </g>
    <defs>
        <clipPath id="clip0_9169_66827">
            <rect width="20" height="20" fill="white" />
        </clipPath>
    </defs>
</svg>