<svg preserveAspectRatio="none" width="100%" height="100%" overflow="visible" style="display: block;" viewBox="0 0 20 20" fill="none" xmlns="http://www.w3.org/2000/svg">
<g id="_1383675704672">
<path id="Vector" d="M8.844 5.12C8.448 5.12 8.124 4.796 8.124 4.4C8.124 4 8.448 3.68 8.844 3.68H15.952C17.064 3.68 18.076 4.136 18.812 4.868C19.544 5.6 20 6.612 20 7.728V17.072C20 17.912 19.856 18.584 19.576 19.072C19.224 19.68 18.696 20 18.008 20C17.624 20 17.328 19.952 17.024 19.816C16.732 19.688 16.488 19.5 16.204 19.212C16.192 19.2 16.18 19.188 16.168 19.176L14.784 17.792H6.448C5.332 17.792 4.32 17.336 3.588 16.604C2.852 15.872 2.396 14.856 2.396 13.744V8.504C2.396 8.108 2.72 7.784 3.116 7.784C3.516 7.784 3.836 8.108 3.836 8.504V13.744C3.836 14.46 4.132 15.112 4.604 15.584C5.076 16.06 5.732 16.352 6.448 16.352H15.08V16.356C15.26 16.356 15.444 16.424 15.584 16.564L17.184 18.16C17.196 18.172 17.208 18.184 17.224 18.196C17.388 18.36 17.508 18.46 17.608 18.508C17.924 18.648 18.176 18.576 18.296 18.456C18.556 18.196 18.56 17.716 18.56 17.212V7.728C18.56 7.012 18.268 6.36 17.792 5.884C17.32 5.412 16.668 5.12 15.952 5.12H8.844Z" fill="var(--fill-0, #2F80ED)"/>
<path id="Vector_2" d="M10 9.584C9.604 9.584 9.28 9.26 9.28 8.864C9.28 8.464 9.604 8.144 10 8.144H15.08C15.476 8.144 15.8 8.464 15.8 8.864C15.8 9.26 15.476 9.584 15.08 9.584H10Z" fill="var(--fill-0, #2F80ED)"/>
<path id="Vector_3" d="M6.448 13.248C6.048 13.248 5.728 12.928 5.728 12.528C5.728 12.132 6.048 11.808 6.448 11.808H15.08C15.476 11.808 15.8 12.132 15.8 12.528C15.8 12.928 15.476 13.248 15.08 13.248H6.448Z" fill="var(--fill-0, #2F80ED)"/>
<path id="Vector_4" d="M4.792 0C6.116 0 7.312 0.536 8.18 1.404C9.048 2.272 9.584 3.468 9.584 4.792C9.584 6.116 9.048 7.312 8.18 8.18C7.312 9.048 6.116 9.584 4.792 9.584C3.468 9.584 2.272 9.048 1.404 8.18C0.536 7.312 0 6.116 0 4.792C0 3.468 0.536 2.272 1.404 1.404C2.272 0.536 3.468 0 4.792 0ZM7.16 2.42C6.556 1.816 5.716 1.44 4.792 1.44C3.864 1.44 3.028 1.816 2.42 2.42C1.816 3.028 1.44 3.864 1.44 4.792C1.44 5.716 1.816 6.556 2.42 7.16C3.028 7.768 3.864 8.144 4.792 8.144C5.716 8.144 6.556 7.768 7.16 7.16C7.768 6.556 8.144 5.716 8.144 4.792C8.144 3.864 7.768 3.028 7.16 2.42Z" fill="var(--fill-0, #2F80ED)"/>
<path id="Vector_5" d="M3.32 5.512C2.92 5.512 2.6 5.188 2.6 4.792C2.6 4.392 2.92 4.072 3.32 4.072H6.264C6.66 4.072 6.984 4.392 6.984 4.792C6.984 5.188 6.66 5.512 6.264 5.512H3.32Z" fill="var(--fill-0, #2F80ED)"/>
<path id="Vector_6" d="M4.072 3.32C4.072 2.92 4.392 2.6 4.792 2.6C5.188 2.6 5.512 2.92 5.512 3.32V6.264C5.512 6.66 5.188 6.984 4.792 6.984C4.392 6.984 4.072 6.66 4.072 6.264V3.32Z" fill="var(--fill-0, #2F80ED)"/>
</g>
</svg>
