<svg preserveAspectRatio="none" width="100%" height="100%" overflow="visible" style="display: block;" viewBox="0 0 20 20" fill="none" xmlns="http://www.w3.org/2000/svg">
<g id="_1383675704384">
<path id="Vector" d="M10 18.56C12.364 18.56 14.504 17.6 16.052 16.052C17.6 14.504 18.56 12.364 18.56 10C18.56 7.636 17.6 5.496 16.052 3.948C14.504 2.4 12.364 1.44 10 1.44C7.636 1.44 5.496 2.4 3.948 3.948C2.4 5.496 1.44 7.636 1.44 10C1.44 12.364 2.4 14.504 3.948 16.052C5.496 17.6 7.636 18.56 10 18.56ZM17.072 17.072C15.26 18.88 12.76 20 10 20C7.24 20 4.74 18.88 2.928 17.072C1.12 15.26 0 12.76 0 10C0 7.24 1.12 4.74 2.928 2.928C4.74 1.12 7.24 0 10 0C12.76 0 15.26 1.12 17.072 2.928C18.88 4.74 20 7.24 20 10C20 12.76 18.88 15.26 17.072 17.072Z" fill="var(--fill-0, #2F80ED)"/>
<path id="Vector_2" d="M8.484 10.552H10.892C11.556 10.552 12.16 10.28 12.596 9.844C13.032 9.404 13.304 8.804 13.304 8.14C13.304 7.476 13.032 6.876 12.596 6.436C12.16 6 11.556 5.728 10.892 5.728H9.328C9.096 5.728 8.884 5.824 8.732 5.976C8.576 6.132 8.484 6.344 8.484 6.576V10.552ZM10.892 11.992H7.764C7.364 11.992 7.044 11.668 7.044 11.272V6.576C7.044 5.944 7.3 5.372 7.712 4.96C8.128 4.544 8.7 4.288 9.328 4.288H10.892C11.952 4.288 12.916 4.72 13.612 5.42C14.312 6.116 14.744 7.08 14.744 8.14C14.744 9.2 14.312 10.164 13.612 10.86C12.916 11.556 11.952 11.992 10.892 11.992Z" fill="var(--fill-0, #2F80ED)"/>
<path id="Vector_3" d="M7.044 11.272C7.044 10.872 7.364 10.552 7.764 10.552C8.16 10.552 8.484 10.872 8.484 11.272V14.992C8.484 15.388 8.16 15.712 7.764 15.712C7.364 15.712 7.044 15.388 7.044 14.992V11.272Z" fill="var(--fill-0, #2F80ED)"/>
<path id="Vector_4" d="M10 12.78C10.396 12.78 10.72 13.104 10.72 13.5C10.72 13.896 10.396 14.22 10 14.22H5.976C5.58 14.22 5.256 13.896 5.256 13.5C5.256 13.104 5.58 12.78 5.976 12.78H10Z" fill="var(--fill-0, #2F80ED)"/>
<path id="Vector_5" d="M9.548 10.552C9.948 10.552 10.268 10.872 10.268 11.272C10.268 11.668 9.948 11.992 9.548 11.992H5.976C5.58 11.992 5.256 11.668 5.256 11.272C5.256 10.872 5.58 10.552 5.976 10.552H9.548Z" fill="var(--fill-0, #2F80ED)"/>
</g>
</svg>
