<svg xmlns="http://www.w3.org/2000/svg" width="20" height="20" viewBox="0 0 20 20" fill="none">
    <g clip-path="url(#clip0_9169_66819)">
        <path
            d="M6.61174 13.4289C6.37574 13.7449 5.92774 13.8089 5.60774 13.5729C5.29174 13.3329 5.22774 12.8849 5.46774 12.5689C5.99174 11.8689 6.67574 11.2929 7.46774 10.8969C8.23574 10.5129 9.09574 10.2969 9.99974 10.2969C10.9037 10.2969 11.7637 10.5129 12.5317 10.8969C13.3237 11.2929 14.0077 11.8689 14.5317 12.5689C14.7717 12.8849 14.7077 13.3329 14.3917 13.5729C14.0717 13.8089 13.6237 13.7449 13.3877 13.4289C12.9917 12.9049 12.4797 12.4729 11.8917 12.1769C11.3237 11.8969 10.6837 11.7369 9.99974 11.7369C9.31574 11.7369 8.67574 11.8969 8.10774 12.1769C7.51974 12.4729 7.00774 12.9049 6.61174 13.4289Z"
            fill="#2F80ED" />
        <path
            d="M10.0003 11.1803C9.1443 11.1803 8.3723 10.8323 7.8123 10.2723C7.2483 9.71228 6.9043 8.94028 6.9043 8.08428C6.9043 7.22828 7.2483 6.45628 7.8123 5.89228C8.3723 5.33228 9.1443 4.98828 10.0003 4.98828C10.8563 4.98828 11.6283 5.33228 12.1883 5.89228C12.7523 6.45628 13.0963 7.22828 13.0963 8.08428C13.0963 8.94028 12.7523 9.71228 12.1883 10.2723C11.6283 10.8323 10.8563 11.1803 10.0003 11.1803ZM8.8283 9.25628C9.1283 9.55628 9.5443 9.74028 10.0003 9.74028C10.4563 9.74028 10.8723 9.55628 11.1723 9.25628C11.4723 8.95628 11.6563 8.54028 11.6563 8.08428C11.6563 7.62428 11.4723 7.21228 11.1723 6.91228C10.8723 6.61228 10.4563 6.42828 10.0003 6.42828C9.5443 6.42828 9.1283 6.61228 8.8283 6.91228C8.5283 7.21228 8.3443 7.62428 8.3443 8.08428C8.3443 8.54028 8.5283 8.95628 8.8283 9.25628Z"
            fill="#2F80ED" />
        <path
            d="M13.7764 2.728C13.9644 2.816 14.1484 2.912 14.3284 3.02C14.5084 3.124 14.6844 3.232 14.8524 3.348L16.2524 2.848C16.5844 2.728 16.9604 2.744 17.2924 2.864C17.6244 2.98 17.9244 3.212 18.1044 3.528C18.3084 3.876 18.3524 3.96 18.4044 4.048C18.6044 4.396 18.8044 4.748 18.9484 4.988C18.9604 5.004 18.9684 5.024 18.9804 5.044C19.0804 5.22 19.2924 5.588 19.5044 5.952C19.5364 6.004 19.4364 5.832 19.8084 6.476C19.9884 6.788 20.0404 7.164 19.9764 7.508C19.9164 7.856 19.7364 8.188 19.4644 8.42L18.3364 9.38L18.3444 9.508C18.3564 9.688 18.3604 9.852 18.3604 10C18.3604 10.152 18.3564 10.324 18.3444 10.504L18.3364 10.62L19.4644 11.58C19.7364 11.812 19.9164 12.144 19.9764 12.492C20.0404 12.836 19.9884 13.208 19.8084 13.52C19.4604 14.124 19.5284 14.008 19.5044 14.048C19.2804 14.432 19.0564 14.816 18.9644 14.984L18.9484 15.012V15.016C18.8044 15.252 18.6044 15.6 18.4044 15.952C18.3564 16.04 18.3044 16.124 18.1044 16.472C17.9244 16.788 17.6244 17.02 17.2924 17.136C16.9604 17.256 16.5844 17.272 16.2524 17.152L14.8524 16.652C14.6844 16.768 14.5084 16.876 14.3284 16.98C14.1524 17.084 13.9684 17.18 13.7804 17.272L13.5124 18.728C13.4484 19.08 13.2484 19.404 12.9844 19.628C12.7124 19.856 12.3644 20 12.0044 20C11.4364 20 11.9884 19.996 11.3364 19.996C10.7364 19.992 10.0164 19.992 9.72041 19.996H9.68441C9.40841 19.992 9.00841 19.992 8.60841 19.996C8.13241 19.996 8.34841 20 8.00441 20C7.64041 20 7.29241 19.856 7.02441 19.628C6.75641 19.404 6.55641 19.08 6.49241 18.728L6.22841 17.272C6.04441 17.184 5.86041 17.088 5.67641 16.98C5.50041 16.88 5.32441 16.768 5.15241 16.652L3.75641 17.152C3.42041 17.272 3.04441 17.256 2.71241 17.136C2.38441 17.02 2.08441 16.788 1.90441 16.476H1.90041C1.83641 16.364 1.71641 16.156 1.60041 15.948C1.40041 15.6 1.20441 15.252 1.05641 15.012C1.04841 14.996 1.03641 14.976 1.02841 14.956C0.928414 14.78 0.712414 14.412 0.500414 14.048C0.476414 14.008 0.576414 14.18 0.196414 13.52C0.0164143 13.208 -0.0315857 12.836 0.0284143 12.492C0.0924143 12.144 0.268414 11.812 0.540414 11.58L1.67241 10.62L1.66441 10.508C1.65241 10.324 1.64441 10.156 1.64441 10C1.64441 9.844 1.65241 9.676 1.66441 9.492L1.67241 9.38L0.540414 8.42C0.268414 8.188 0.0924143 7.856 0.0284143 7.508C-0.0315857 7.164 0.0164143 6.792 0.196414 6.48L0.200414 6.476H0.196414C0.424414 6.08 0.464414 6.016 0.500414 5.952C0.724414 5.568 0.952414 5.184 1.04041 5.016L1.06041 4.988L1.05641 4.984C1.20441 4.748 1.40041 4.4 1.60041 4.052C1.72041 3.844 1.83641 3.636 1.90441 3.524C1.91241 3.504 1.92441 3.488 1.93641 3.468C2.12041 3.184 2.40441 2.976 2.71241 2.864C3.04441 2.744 3.42041 2.728 3.75641 2.848L5.15241 3.348C5.32441 3.232 5.50041 3.12 5.67641 3.02C5.86041 2.912 6.04441 2.816 6.22841 2.728L6.49241 1.272C6.55641 0.92 6.75641 0.596 7.02441 0.372C7.29241 0.144 7.64041 0 8.00441 0C8.34841 0 8.13241 0.004 8.60441 0.004C9.00841 0.008 9.41641 0.008 9.69241 0.004H9.73241C10.0324 0.008 10.7404 0.008 11.3364 0.004C11.9884 0.004 11.4364 0 12.0044 0C12.3644 0 12.7124 0.144 12.9844 0.372C13.2484 0.6 13.4484 0.92 13.5124 1.272L13.7764 2.728ZM13.6084 4.26C13.3764 4.128 13.1284 4.004 12.8604 3.892L12.8644 3.888C12.6484 3.8 12.4804 3.604 12.4364 3.356L12.1004 1.528C12.1004 1.512 12.0804 1.492 12.0564 1.468C12.0324 1.452 12.0164 1.44 12.0044 1.44C11.0964 1.44 11.4644 1.44 11.3364 1.44C10.7324 1.44 10.0124 1.444 9.70841 1.436C9.42441 1.444 9.00841 1.44 8.60041 1.44C8.53641 1.44 8.72441 1.44 8.00441 1.44C7.99241 1.44 7.97241 1.452 7.95241 1.468C7.92441 1.492 7.90841 1.512 7.90441 1.528L7.58441 3.296C7.56041 3.552 7.39641 3.784 7.14441 3.892C6.88041 4.004 6.63241 4.128 6.39641 4.26C6.16841 4.396 5.94841 4.54 5.73641 4.7C5.54841 4.864 5.27641 4.92 5.02441 4.832L3.27241 4.204C3.25241 4.2 3.22841 4.204 3.19641 4.212C3.17641 4.22 3.15641 4.228 3.14841 4.236L3.14441 4.244C3.02041 4.46 2.93641 4.612 2.84841 4.76C2.64041 5.124 2.43241 5.492 2.28441 5.732C2.11241 6.052 1.92841 6.364 1.74441 6.68L1.44041 7.196C1.43641 7.208 1.43641 7.228 1.44041 7.256C1.44841 7.288 1.45641 7.312 1.46841 7.324L2.85641 8.5C3.05241 8.648 3.17241 8.9 3.13641 9.164C3.12041 9.312 3.10441 9.452 3.09641 9.584C3.08841 9.704 3.08441 9.844 3.08441 10C3.08441 10.156 3.08841 10.296 3.09641 10.416C3.10441 10.548 3.12041 10.688 3.13641 10.836C3.16441 11.068 3.08041 11.312 2.88841 11.472L1.46841 12.676C1.45641 12.688 1.44841 12.712 1.44041 12.744C1.43641 12.772 1.43641 12.796 1.44041 12.808C1.63241 13.136 1.51241 12.924 1.74441 13.32C1.92841 13.636 2.11241 13.948 2.28441 14.268C2.43241 14.508 2.64041 14.872 2.84841 15.24C2.93641 15.392 3.02041 15.54 3.14441 15.756V15.76C3.14841 15.768 3.16841 15.776 3.19641 15.788C3.22441 15.796 3.25241 15.8 3.27241 15.796L5.02441 15.168C5.24441 15.092 5.50041 15.124 5.70041 15.276C5.92441 15.444 6.15641 15.6 6.39641 15.74C6.63241 15.872 6.88041 15.996 7.14441 16.108V16.112C7.36041 16.2 7.52841 16.396 7.57241 16.644L7.90441 18.472C7.90841 18.488 7.92441 18.508 7.95241 18.532C7.97241 18.548 7.99241 18.56 8.00441 18.56C8.72841 18.56 8.54041 18.56 8.60041 18.56C9.01241 18.56 9.42441 18.556 9.70841 18.564C10.0124 18.556 10.7324 18.56 11.3364 18.56C11.4644 18.56 11.0964 18.56 12.0044 18.56C12.0164 18.56 12.0324 18.548 12.0564 18.532C12.0804 18.508 12.1004 18.488 12.1004 18.472C12.2124 17.864 12.3284 17.256 12.4364 16.644C12.4764 16.416 12.6284 16.208 12.8604 16.112C13.1164 16.004 13.3644 15.88 13.6084 15.74C13.8404 15.604 14.0604 15.46 14.2724 15.3C14.4604 15.136 14.7284 15.08 14.9804 15.168L16.7324 15.796C16.7524 15.8 16.7804 15.8 16.8084 15.788C16.8364 15.776 16.8564 15.768 16.8604 15.76L17.1564 15.24C17.3644 14.876 17.5764 14.508 17.7204 14.268C17.8964 13.952 18.0804 13.636 18.2644 13.324C18.4964 12.924 18.4084 13.084 18.5644 12.808C18.5724 12.796 18.5724 12.772 18.5644 12.744C18.5604 12.712 18.5484 12.688 18.5364 12.676L17.1524 11.5C16.9524 11.352 16.8364 11.104 16.8684 10.836C16.8884 10.684 16.9004 10.548 16.9084 10.42C16.9164 10.3 16.9204 10.156 16.9204 10C16.9204 9.848 16.9164 9.712 16.9084 9.596V9.584C16.9004 9.452 16.8884 9.312 16.8684 9.164C16.8404 8.932 16.9284 8.692 17.1204 8.528L18.5364 7.324C18.5484 7.312 18.5604 7.288 18.5644 7.256C18.5724 7.228 18.5724 7.204 18.5644 7.196H18.5684L18.5644 7.192C18.3804 6.876 18.5004 7.084 18.2644 6.68C18.0804 6.364 17.8964 6.052 17.7244 5.736C17.5764 5.492 17.3644 5.124 17.1564 4.756L16.8604 4.24C16.8564 4.232 16.8364 4.224 16.8084 4.212C16.7804 4.204 16.7524 4.2 16.7324 4.204L14.9844 4.832H14.9804C14.7604 4.908 14.5044 4.876 14.3044 4.724C14.0844 4.556 13.8524 4.4 13.6084 4.26Z"
            fill="#2F80ED" />
    </g>
    <defs>
        <clipPath id="clip0_9169_66819">
            <rect width="20" height="20" fill="white" />
        </clipPath>
    </defs>
</svg>