<svg id="formatterBold" width="14" height="20" viewBox="0 0 14 20" fill="none" xmlns="http://www.w3.org/2000/svg">
<path d="M7.41754 19.375H1.54297V0.625H6.32951C8.75451 0.625 10.3751 1.0248 11.3121 1.71786L11.3121 1.71792L11.3198 1.72346C12.2266 2.37309 12.7338 3.44498 12.7338 5.06154C12.7338 6.17827 12.5076 7.02254 12.1005 7.6658C11.6952 8.30633 11.1919 8.6524 10.5659 8.77044L10.0566 8.86644V9.38462V9.52308V10.0105L10.5294 10.1292C11.5123 10.3762 12.1613 10.8367 12.5443 11.4419C12.9465 12.0775 13.1776 12.9787 13.1776 14.2C13.1776 15.8893 12.6559 17.1198 11.67 17.9939L11.67 17.9939L11.6665 17.997C10.6664 18.8971 9.27094 19.375 7.41754 19.375ZM3.97224 7.92308V8.54808H4.59724H6.74468C7.7828 8.54808 8.68673 8.35912 9.29606 7.8733C9.94336 7.35721 10.2043 6.55315 10.2043 5.61539C10.2043 4.72178 9.90777 3.94408 9.20598 3.45609L9.20606 3.45597L9.1948 3.4485C8.55466 3.02361 7.6321 2.85192 6.54425 2.85192H4.59724H3.97224V3.47692V7.92308ZM4.59724 10.6673H3.97224V11.2923V16.4923V17.1173H4.59724H7.00237C8.09004 17.1173 9.02003 16.8894 9.67233 16.2915C10.334 15.685 10.6052 14.7938 10.6052 13.7692C10.6052 12.8018 10.2982 11.9792 9.59706 11.4193C8.92319 10.8812 7.98394 10.6673 6.88784 10.6673H4.59724Z" fill="#323F4B" stroke="#323F4B" stroke-width="1.25"></path>
</svg>