<svg id="formatterFile" width="18" height="24" viewBox="0 0 18 24" fill="none" xmlns="http://www.w3.org/2000/svg">
    <path d="M1.83203 4V20C1.83203 20.5304 2.02811 21.0391 2.37714 21.4142C2.72617 21.7893 3.19955 22 3.69315 22H14.8598C15.3534 22 15.8268 21.7893 16.1758 21.4142C16.5249 21.0391 16.7209 20.5304 16.7209 20V8.342C16.7209 8.07556 16.6713 7.81181 16.5751 7.56624C16.4789 7.32068 16.3381 7.09824 16.1608 6.912L12.0291 2.57C11.6814 2.20466 11.2144 2.00007 10.7282 2H3.69315C3.19955 2 2.72617 2.21071 2.37714 2.58579C2.02811 2.96086 1.83203 3.46957 1.83203 4V4Z" stroke="#323F4B" stroke-width="2.08333" stroke-linecap="round" stroke-linejoin="round"></path>
    <path d="M6.48438 13H12.0677" stroke="#323F4B" stroke-width="2.08333" stroke-linecap="round" stroke-linejoin="round"></path>
    <path d="M6.48438 17H9.27606" stroke="#323F4B" stroke-width="2.08333" stroke-linecap="round" stroke-linejoin="round"></path>
    </svg>