<svg id="formatterH1" width="23" height="20" viewBox="0 0 23 20" fill="none" xmlns="http://www.w3.org/2000/svg">
    <path d="M21.0702 1.09226L21.07 1.09223C20.653 3.09218 18.979 5.57084 16.8304 7.10959L16.8247 7.11363L16.8247 7.1136C16.7705 7.15149 16.721 7.20265 16.6807 7.26604C16.6405 7.32951 16.611 7.40312 16.5957 7.48288C16.5805 7.56266 16.5801 7.64524 16.5946 7.72524C16.6091 7.80523 16.6379 7.87928 16.6776 7.94334C16.7173 8.00732 16.7665 8.05916 16.8205 8.09776C16.8743 8.13626 16.9322 8.16119 16.9904 8.17334C17.0485 8.18547 17.108 8.18511 17.166 8.17223C17.2242 8.15933 17.282 8.13362 17.3355 8.09432L17.3389 8.09188L17.3389 8.09189C18.3117 7.38804 19.1884 6.53871 19.9423 5.5684L21.0609 4.1287V5.95185V18.7999C21.0609 18.9663 21.1228 19.1177 21.2205 19.2226C21.3167 19.326 21.4372 19.3749 21.5525 19.3749C21.6678 19.3749 21.7883 19.326 21.8846 19.2226C21.9822 19.1177 22.0442 18.9663 22.0442 18.7999V1.22545V1.21302L22.0443 1.21302C22.0467 1.09307 22.0166 0.977649 21.9613 0.881187C21.9061 0.785077 21.8304 0.714936 21.7485 0.672929L21.0702 1.09226ZM21.0702 1.09226L21.0726 1.07901M21.0702 1.09226L21.0726 1.07901M21.0726 1.07901C21.0898 0.987006 21.1257 0.903344 21.1751 0.833859C21.2243 0.764516 21.2848 0.71215 21.3493 0.677418C21.4135 0.64282 21.4816 0.625738 21.5488 0.625023C21.6158 0.62431 21.6839 0.639897 21.7484 0.672871L21.0726 1.07901Z" fill="#323F4B" stroke="#323F4B" stroke-width="1.25"></path>
    <path d="M2.56927 10.175H1.94427V10.8V18.8C1.94427 18.9664 1.88233 19.1178 1.78466 19.2228C1.68841 19.3262 1.5679 19.375 1.4526 19.375C1.33731 19.375 1.2168 19.3262 1.12055 19.2228C1.02288 19.1178 0.960938 18.9664 0.960938 18.8V1.2C0.960938 1.11849 0.975924 1.03871 1.00412 0.965565C1.03229 0.892463 1.07254 0.828826 1.12054 0.777241C1.16846 0.725749 1.22289 0.687504 1.27944 0.662332C1.33584 0.637223 1.39454 0.625 1.4526 0.625C1.51067 0.625 1.56937 0.637223 1.62577 0.662332L1.87993 0.0913445L1.62577 0.662332C1.68232 0.687504 1.73675 0.725749 1.78466 0.777241L2.18719 0.402672L1.78466 0.777241C1.83267 0.828826 1.87292 0.892463 1.90109 0.965565C1.92929 1.03871 1.94427 1.11849 1.94427 1.2V8.4V9.025H2.56927H10.0137H10.6387V8.4V1.2C10.6387 1.03357 10.7007 0.882195 10.7983 0.777242C10.8946 0.673806 11.0151 0.625 11.1304 0.625C11.2457 0.625 11.3662 0.673806 11.4624 0.777241C11.5601 0.882195 11.6221 1.03357 11.6221 1.2V18.8C11.6221 18.9664 11.5601 19.1178 11.4624 19.2228C11.3662 19.3262 11.2457 19.375 11.1304 19.375C11.0151 19.375 10.8946 19.3262 10.7983 19.2228C10.7007 19.1178 10.6387 18.9664 10.6387 18.8V10.8V10.175H10.0137H2.56927Z" fill="#323F4B" stroke="#323F4B" stroke-width="1.25"></path>
    </svg>