<svg id="formatterLink" width="20" height="20" viewBox="0 0 20 20" fill="none" xmlns="http://www.w3.org/2000/svg">
    <path d="M11.8851 9.23011L11.426 8.80597C11.3736 8.86268 11.3137 8.90474 11.2512 8.93215C11.1888 8.95949 11.1237 8.97236 11.0594 8.97138C10.995 8.97039 10.9301 8.95552 10.8681 8.9261L10.6001 9.49074L10.8681 8.9261C10.8059 8.8966 10.7467 8.85242 10.6955 8.79372L10.6881 8.78523L10.6803 8.77701C10.3393 8.41356 9.93535 8.21164 9.49996 8.16443C9.07938 8.11882 8.68169 8.22285 8.34173 8.37494C7.67475 8.67334 7.08845 9.22129 6.71426 9.62073C6.71425 9.62074 6.71424 9.62075 6.71423 9.62076C6.71411 9.6209 6.71398 9.62103 6.71385 9.62117L3.24822 13.3142L11.8851 9.23011ZM11.8851 9.23011L11.426 8.80597C11.4785 8.74915 11.5221 8.67905 11.5519 8.59876C11.5818 8.51843 11.5968 8.43108 11.595 8.34235C11.5932 8.25362 11.5748 8.16732 11.542 8.0889C11.5091 8.01054 11.4632 7.94309 11.4091 7.8893L11.4011 7.88143L11.3935 7.87328C10.6889 7.12134 9.84992 6.83712 8.96173 6.95588C8.04893 7.07792 7.01459 7.63736 6.00211 8.71717L6.00201 8.71728L2.53568 12.4123L2.53437 12.4137C2.18166 12.7874 1.89959 13.2353 1.70674 13.7325C1.51388 14.2297 1.41472 14.7646 1.41603 15.3057L1.41604 15.3086C1.41478 15.8497 1.51396 16.3846 1.70683 16.8818C1.89969 17.379 2.18174 17.827 2.53442 18.2007L2.53567 18.202C3.24775 18.9611 4.2007 19.3768 5.18306 19.3747L5.18443 19.3747C6.13782 19.3747 7.09691 18.989 7.83263 18.2027L7.83305 18.2022L8.7764 17.196L8.77719 17.1951C8.82856 17.1405 8.8716 17.0732 8.9018 16.9958C8.93201 16.9184 8.9482 16.834 8.94849 16.7476C8.94878 16.6613 8.93315 16.5767 8.90342 16.499C8.8737 16.4213 8.83106 16.3535 8.77996 16.2985C8.67658 16.1871 8.54636 16.1335 8.42076 16.133C8.29542 16.1324 8.16526 16.1846 8.06134 16.2943C8.06112 16.2945 8.0609 16.2947 8.06068 16.295L7.12025 17.2994M11.8851 9.23011L7.12025 17.2994M7.12025 17.2994L7.11819 17.3015C6.6104 17.8387 5.91664 18.1487 5.18385 18.1487C4.45107 18.1487 3.75731 17.8387 3.24952 17.3015L3.24822 17.3002C2.9994 17.0354 2.80411 16.7227 2.67156 16.3811C2.53903 16.0397 2.47127 15.6748 2.47127 15.3072C2.47127 14.9396 2.53903 14.5747 2.67156 14.2332C2.80405 13.8918 2.99925 13.5792 3.24793 13.3145L7.12025 17.2994ZM17.6565 1.93862L17.6575 1.93974C18.0103 2.31382 18.2925 2.7621 18.4856 3.25953C18.6787 3.757 18.7781 4.29222 18.7772 4.83362L18.7772 4.83549C18.7779 5.37661 18.6785 5.91155 18.4858 6.40889L19.0686 6.63474L18.4858 6.40889C18.2931 6.90618 18.0114 7.35453 17.6593 7.729L17.6588 7.72946L13.9599 11.6707L13.9598 11.6708C12.8852 12.8161 11.8371 13.3072 10.9341 13.3072C10.2082 13.3072 9.47924 12.992 8.79854 12.2673C8.74709 12.2124 8.70402 12.1447 8.6738 12.0671C8.64357 11.9895 8.62738 11.9048 8.6271 11.8183C8.62681 11.7317 8.64244 11.6469 8.67218 11.5689C8.7019 11.491 8.74458 11.4229 8.79576 11.3676C8.84685 11.3123 8.90512 11.2709 8.96595 11.2436C9.02665 11.2163 9.08997 11.2028 9.15271 11.2026C9.21546 11.2024 9.27881 11.2153 9.33959 11.2421C9.40051 11.269 9.45895 11.3098 9.51032 11.3646C9.51508 11.3696 9.52008 11.375 9.52531 11.3806C9.69779 11.5654 10.1273 12.0256 10.8279 12.0735C11.5589 12.1236 12.3514 11.7205 13.2451 10.7687L13.2452 10.7686L16.9442 6.82606L16.9447 6.82555C17.4473 6.28868 17.7206 5.5796 17.7206 4.83467C17.7206 4.08957 17.4472 3.38092 16.9453 2.84322L16.9436 2.84138C16.5087 2.37921 15.9245 1.9967 15.2701 1.89028C14.5823 1.77842 13.8762 1.98424 13.3037 2.59585C13.3035 2.59604 13.3033 2.59623 13.3031 2.59642L12.1291 3.84686L12.1287 3.84728C12.0255 3.95739 11.8958 4.00973 11.7711 4.00925C11.6463 4.00877 11.5168 3.95541 11.4141 3.84428C11.31 3.73164 11.2449 3.57018 11.2455 3.39358C11.246 3.21698 11.3123 3.05621 11.4169 2.94457L11.4169 2.94453L12.5906 1.69204C13.3048 0.929904 14.1764 0.591715 15.0466 0.627579C15.9224 0.663673 16.8526 1.08199 17.6565 1.93862Z" fill="#323F4B" stroke="#323F4B" stroke-width="1.25"></path>
    </svg>