<svg id="formatterParagraph" width="16" height="20" viewBox="0 0 16 20" fill="none" xmlns="http://www.w3.org/2000/svg">
    <path d="M1.23689 8.4875C0.759982 7.625 0.527344 6.675 0.527344 5.65C0.527344 4.625 0.759982 3.675 1.23689 2.8125C1.70217 1.95 2.34193 1.2625 3.15616 0.750004C3.95877 0.250004 4.84279 3.70633e-06 5.80824 3.70633e-06L1.23689 8.4875ZM1.23689 8.4875C1.70217 9.35 2.34193 10.0375 3.15616 10.5375L1.23689 8.4875ZM14.4857 0.625006L14.4873 0.625002C14.5494 0.624838 14.6122 0.637838 14.6724 0.664629C14.7327 0.691483 14.7905 0.732291 14.8413 0.787098L14.8424 0.788272C14.9666 0.921769 15.0239 1.06933 15.0239 1.25C15.0239 1.43355 14.9651 1.57363 14.8534 1.68766L14.8478 1.69337L14.8424 1.69923C14.7138 1.83738 14.6064 1.875 14.4857 1.875H13.3108H12.6858V2.5V18.75C12.6858 18.9271 12.6304 19.0768 12.5158 19.2115C12.3933 19.3319 12.2742 19.375 12.1477 19.375C12.011 19.375 11.9006 19.3332 11.774 19.206C11.6535 19.074 11.5978 18.9281 11.5978 18.75V3.75C11.5978 3.2574 11.424 2.81082 11.1038 2.44855L11.0932 2.43657L11.082 2.42515C10.7432 2.07925 10.3073 1.875 9.80963 1.875C9.31198 1.875 8.8761 2.07925 8.53728 2.42516L8.53168 2.43087L8.52622 2.43673C8.175 2.81416 8.02144 3.27136 8.02144 3.75V18.75C8.02144 18.9281 7.9658 19.074 7.84527 19.2059C7.71863 19.3332 7.60828 19.375 7.47161 19.375C7.34502 19.375 7.22598 19.3319 7.10352 19.2115C6.98886 19.0768 6.93342 18.9271 6.93342 18.75V11.3V10.675H6.30842H5.80824C4.95737 10.675 4.19085 10.4566 3.49253 10.0107L3.49258 10.0107L3.48322 10.0049C2.76693 9.56505 2.20232 8.96074 1.78696 8.19077L1.78699 8.19075L1.78385 8.18507C1.3617 7.42162 1.15234 6.57686 1.15234 5.65C1.15234 4.72315 1.3617 3.87839 1.78385 3.11494L1.78388 3.11495L1.78696 3.10924C2.20184 2.34015 2.76716 1.73364 3.48786 1.27972C4.18881 0.843358 4.95753 0.625004 5.80824 0.625004L14.4857 0.625006Z" fill="#323F4B" stroke="#323F4B" stroke-width="1.25"></path>
</svg>