<svg id="formatterRedo" width="20" height="23" viewBox="0 0 20 23" fill="none" xmlns="http://www.w3.org/2000/svg">
    <path d="M13.112 12V8.25H8.70921C7.30077 8.25 5.94603 8.85109 4.94422 9.92767C3.94184 11.0048 3.37588 12.4694 3.37588 14C3.37588 15.5306 3.94184 16.9952 4.94421 18.0723C5.94603 19.1489 7.30077 19.75 8.70921 19.75H17.0842H17.3342V20V22V22.25H17.0842H8.70921C6.66247 22.25 4.70355 21.3761 3.26218 19.8272C1.82137 18.2788 1.01477 16.1825 1.01477 14C1.01477 11.8175 1.82137 9.72117 3.26218 8.17284C4.70355 6.6239 6.66247 5.75 8.70921 5.75H13.112V2V1.44053L13.5288 1.81376L19.1121 6.81376L19.3201 7L19.1121 7.18624L13.5288 12.1862L13.112 12.5595V12Z" fill="#323F4B" stroke="#323F4B" stroke-width="0.5"></path>
    </svg>