<svg id="formatterSmile" width="21" height="22" viewBox="0 0 21 22" fill="none" xmlns="http://www.w3.org/2000/svg">
    <path d="M10.7939 19.5C8.70671 19.5 6.70107 18.6092 5.21934 17.0169C3.73705 15.424 2.90148 13.2599 2.90148 11C2.90148 8.74009 3.73705 6.57603 5.21934 4.98312C6.70107 3.39082 8.70671 2.5 10.7939 2.5C12.881 2.5 14.8866 3.39082 16.3684 4.98312C17.8507 6.57603 18.6862 8.74009 18.6862 11C18.6862 13.2599 17.8507 15.424 16.3684 17.0169C14.8866 18.6092 12.881 19.5 10.7939 19.5ZM10.7939 21.25C13.3342 21.25 15.7665 20.1654 17.5569 18.2414C19.3467 16.318 20.3494 13.7129 20.3494 11C20.3494 8.2871 19.3467 5.68202 17.5569 3.75862C15.7665 1.83462 13.3342 0.75 10.7939 0.75C8.25351 0.75 5.8212 1.83462 4.0308 3.75862C2.24097 5.68202 1.23828 8.2871 1.23828 11C1.23828 13.7129 2.24097 16.318 4.0308 18.2414C5.8212 20.1654 8.25351 21.25 10.7939 21.25Z" fill="#323F4B" stroke="#323F4B" stroke-width="0.5"></path>
    <path d="M6.47242 12.9587C6.606 12.8759 6.76475 12.8534 6.91374 12.8963C7.06273 12.9392 7.18976 13.044 7.26688 13.1875C7.62411 13.8529 8.13818 14.4055 8.75732 14.7895C9.37646 15.1735 10.0788 15.3755 10.7937 15.375C11.5086 15.3755 12.2109 15.1735 12.8301 14.7895C13.4492 14.4055 13.9633 13.8529 14.3205 13.1875C14.3584 13.1158 14.4091 13.053 14.4697 13.0025C14.5304 12.952 14.5997 12.9148 14.6737 12.8932C14.7477 12.8716 14.825 12.866 14.9011 12.8766C14.9771 12.8872 15.0505 12.9139 15.1169 12.9551C15.1833 12.9964 15.2415 13.0513 15.2881 13.1168C15.3347 13.1822 15.3688 13.257 15.3884 13.3367C15.408 13.4163 15.4127 13.4994 15.4023 13.5811C15.3919 13.6627 15.3666 13.7414 15.3278 13.8125C14.8685 14.6679 14.2076 15.3783 13.4116 15.872C12.6157 16.3657 11.7127 16.6254 10.7937 16.625C9.87464 16.6254 8.9717 16.3657 8.17574 15.872C7.37978 15.3783 6.71888 14.6679 6.25956 13.8125C6.18244 13.669 6.16154 13.4984 6.20146 13.3383C6.24138 13.1781 6.33885 13.0416 6.47242 12.9587ZM9.6305 9.125C9.6305 10.16 9.10938 11 8.4673 11C7.82522 11 7.30411 10.16 7.30411 9.125C7.30411 8.09 7.82522 7.25 8.4673 7.25C9.10938 7.25 9.6305 8.09 9.6305 9.125ZM14.2833 9.125C14.2833 10.16 13.7622 11 13.1201 11C12.478 11 11.9569 10.16 11.9569 9.125C11.9569 8.09 12.478 7.25 13.1201 7.25C13.7622 7.25 14.2833 8.09 14.2833 9.125Z" fill="#323F4B"></path>
    </svg>