<svg id="formatterUndo" width="20" height="23" viewBox="0 0 20 23" fill="none" xmlns="http://www.w3.org/2000/svg">
    <path d="M6.98569 12V8.25H11.3885C12.7969 8.25 14.1517 8.85109 15.1535 9.92767C16.1559 11.0048 16.7218 12.4694 16.7218 14C16.7218 15.5306 16.1559 16.9952 15.1535 18.0723C14.1517 19.1489 12.7969 19.75 11.3885 19.75H3.01346H2.76346V20V22V22.25H3.01346H11.3885C13.4352 22.25 15.3942 21.3761 16.8355 19.8272C18.2763 18.2788 19.0829 16.1825 19.0829 14C19.0829 11.8175 18.2763 9.72116 16.8355 8.17284C15.3942 6.6239 13.4352 5.75 11.3885 5.75H6.98569V2V1.44053L6.56891 1.81376L0.985564 6.81376L0.777598 7L0.985564 7.18624L6.56891 12.1862L6.98569 12.5595V12Z" fill="#323F4B" stroke="#323F4B" stroke-width="0.5"></path>
    </svg>