<svg width="80" height="65" viewBox="0 0 80 65" fill="none" xmlns="http://www.w3.org/2000/svg">
<path d="M40.0004 64.0737C38.9941 64.0737 38.0679 63.5249 37.5846 62.6424L31.5452 51.6147H11.5829C5.19612 51.6147 0 46.0198 0 39.1429V12.4716C0 5.59503 5.19612 0 11.5829 0H68.417C74.8037 0 79.9998 5.59487 79.9998 12.4716V39.1429C79.9998 46.0198 74.8037 51.6147 68.417 51.6147H48.4556L42.4162 62.6424C41.9327 63.5249 41.0066 64.0737 40.0004 64.0737ZM11.5829 5.50878C8.23364 5.50878 5.50863 8.63224 5.50863 12.4716V39.1429C5.50863 42.9823 8.23349 46.1059 11.5829 46.1059H33.1771C34.1835 46.1057 35.1099 46.6543 35.5933 47.537L40.0002 55.5849L44.4071 47.537C44.8906 46.6545 45.8167 46.1057 46.8229 46.1059H68.4171C71.7664 46.1059 74.4914 42.9823 74.4914 39.1429V12.4716C74.4914 8.63224 71.7665 5.50878 68.4171 5.50878H11.5829Z" fill="#2F80ED"/>
<path d="M39.9609 30.5403C38.4397 30.5403 37.2065 29.3072 37.2065 27.7859V13.8454C37.2065 12.3241 38.4397 11.091 39.9609 11.091C41.4822 11.091 42.7153 12.3241 42.7153 13.8454V27.7859C42.7152 29.3072 41.482 30.5403 39.9609 30.5403Z" fill="#2F80ED"/>
<path d="M40.0396 40.5234C38.5183 40.5234 37.2852 39.2902 37.2852 37.769V36.1951C37.2852 34.6738 38.5183 33.4407 40.0396 33.4407C41.5608 33.4407 42.7939 34.6738 42.7939 36.1951V37.769C42.7939 39.2902 41.5608 40.5234 40.0396 40.5234Z" fill="#2F80ED"/>
</svg>
