<svg preserveAspectRatio="none" width="100%" height="100%" overflow="visible" style="display: block;" viewBox="0 0 16.884 20" fill="none" xmlns="http://www.w3.org/2000/svg">
<g id="_1383675749664">
<path id="Vector" d="M3.29018e-05 0.004H13.024V0C14.092 0 15.06 0.452 15.76 1.176C16.452 1.896 16.884 2.884 16.884 3.972V17.568C16.884 18.292 16.604 18.872 16.18 19.284C15.704 19.756 15.044 20 14.424 20C13.98 20 13.54 19.876 13.164 19.66C12.776 19.44 12.452 19.124 12.252 18.748C12.028 18.332 11.848 17.856 11.616 17.244C11.5 16.944 11.372 16.608 11.228 16.248L11.124 15.988C10.82 15.212 10.552 14.532 9.80003 14.532C9.04803 14.532 8.78003 15.212 8.47203 15.988L8.37203 16.248C8.22803 16.608 8.10003 16.944 7.98403 17.244C7.75203 17.856 7.57203 18.332 7.34803 18.748C7.14803 19.124 6.82003 19.44 6.43203 19.66C6.05603 19.876 5.62003 20 5.17603 20C4.55203 20 3.89603 19.756 3.41603 19.284C2.99603 18.872 2.71603 18.292 2.71603 17.568V13.812H4.15603V17.568C4.15603 17.868 4.26403 18.1 4.42403 18.26C4.62403 18.456 4.90403 18.56 5.17603 18.56C5.37203 18.56 5.56003 18.504 5.72403 18.412C5.88003 18.324 6.00803 18.204 6.08403 18.064C6.26403 17.732 6.42803 17.296 6.64003 16.74C6.75203 16.44 6.88003 16.108 7.03603 15.716L7.13603 15.468C7.63203 14.2 8.06803 13.092 9.80003 13.092C11.528 13.092 11.964 14.2 12.464 15.468L12.56 15.716C12.72 16.108 12.844 16.44 12.96 16.74C13.172 17.296 13.336 17.732 13.516 18.064C13.588 18.204 13.716 18.324 13.876 18.412C14.036 18.504 14.228 18.56 14.424 18.56C14.692 18.56 14.976 18.456 15.176 18.26C15.336 18.1 15.444 17.868 15.444 17.568V3.972C15.444 3.268 15.168 2.632 14.724 2.172C14.288 1.72 13.688 1.44 13.024 1.44V1.436H3.29018e-05V0.004Z" fill="var(--fill-0, #2F80ED)"/>
<path id="Vector_2" d="M12.804 8.332L10.808 10.328L10.788 10.348C10.764 10.368 10.744 10.388 10.72 10.408C10.604 10.508 10.472 10.588 10.324 10.648C10.16 10.716 9.98003 10.752 9.80003 10.752C9.60403 10.752 9.42003 10.712 9.24803 10.636C9.09203 10.572 8.95203 10.48 8.83203 10.368C8.81603 10.352 8.80003 10.336 8.78803 10.324L6.37603 7.912C5.89203 7.428 5.65203 6.792 5.65203 6.156C5.65203 5.528 5.88803 4.896 6.36403 4.416L6.38403 4.396C6.86403 3.92 7.49603 3.68 8.12803 3.68C8.72803 3.68 9.32803 3.892 9.80003 4.324C10.272 3.892 10.872 3.68 11.468 3.68C12.104 3.68 12.74 3.92 13.224 4.404L13.228 4.408C13.708 4.892 13.948 5.524 13.948 6.156C13.948 6.792 13.708 7.428 13.224 7.912L12.804 8.332ZM9.80003 9.3L12.204 6.892C12.408 6.692 12.508 6.424 12.508 6.156C12.508 5.892 12.408 5.624 12.208 5.424L12.2 5.42C12 5.22 11.736 5.12 11.468 5.12C11.2 5.12 10.936 5.22 10.732 5.42L10.308 5.848C10.028 6.128 9.57203 6.128 9.29203 5.848L8.86403 5.42C8.66403 5.22 8.39603 5.12 8.12803 5.12C7.86403 5.12 7.59603 5.22 7.39603 5.42H7.39203C7.19203 5.624 7.09203 5.892 7.09203 6.156C7.09203 6.424 7.19203 6.692 7.39203 6.892L9.80003 9.3Z" fill="var(--fill-0, #2F80ED)"/>
</g>
</svg>
