<svg xmlns="http://www.w3.org/2000/svg" width="20" height="20" viewBox="0 0 20 20" fill="none">
    <path
        d="M3.11523 0.004H16.1392V0C17.2072 0 18.1752 0.452 18.8752 1.176C19.5672 1.896 19.9992 2.884 19.9992 3.972V17.568C19.9992 18.292 19.7192 18.872 19.2952 19.284C18.8192 19.756 18.1592 20 17.5392 20C17.0952 20 16.6552 19.876 16.2792 19.66C15.8912 19.44 15.5672 19.124 15.3672 18.748C15.1432 18.332 14.9632 17.856 14.7312 17.244C14.6152 16.944 14.4872 16.608 14.3432 16.248L14.2392 15.988C13.9352 15.212 13.6672 14.532 12.9152 14.532C12.1632 14.532 11.8952 15.212 11.5872 15.988L11.4872 16.248C11.3432 16.608 11.2152 16.944 11.0992 17.244C10.8672 17.856 10.6872 18.332 10.4632 18.748C10.2632 19.124 9.93523 19.44 9.54723 19.66C9.17123 19.876 8.73523 20 8.29123 20C7.66723 20 7.01123 19.756 6.53123 19.284C6.11123 18.872 5.83123 18.292 5.83123 17.568V13.812H7.27123V17.568C7.27123 17.868 7.37923 18.1 7.53923 18.26C7.73923 18.456 8.01923 18.56 8.29123 18.56C8.48723 18.56 8.67523 18.504 8.83923 18.412C8.99523 18.324 9.12323 18.204 9.19923 18.064C9.37923 17.732 9.54323 17.296 9.75523 16.74C9.86723 16.44 9.99523 16.108 10.1512 15.716L10.2512 15.468C10.7472 14.2 11.1832 13.092 12.9152 13.092C14.6432 13.092 15.0792 14.2 15.5792 15.468L15.6752 15.716C15.8352 16.108 15.9592 16.44 16.0752 16.74C16.2872 17.296 16.4512 17.732 16.6312 18.064C16.7032 18.204 16.8312 18.324 16.9912 18.412C17.1512 18.504 17.3432 18.56 17.5392 18.56C17.8072 18.56 18.0912 18.456 18.2912 18.26C18.4512 18.1 18.5592 17.868 18.5592 17.568V3.972C18.5592 3.268 18.2832 2.632 17.8392 2.172C17.4032 1.72 16.8032 1.44 16.1392 1.44V1.436H3.11523V0.004Z"
        fill="#2F80ED" />
    <path
        d="M15.9196 8.33169L13.9236 10.3277L13.9036 10.3477C13.8796 10.3677 13.8596 10.3877 13.8356 10.4077C13.7196 10.5077 13.5876 10.5877 13.4396 10.6477C13.2756 10.7157 13.0956 10.7517 12.9156 10.7517C12.7196 10.7517 12.5356 10.7117 12.3636 10.6357C12.2076 10.5717 12.0676 10.4797 11.9476 10.3677C11.9316 10.3517 11.9156 10.3357 11.9036 10.3237L9.49158 7.91169C9.00758 7.42769 8.76758 6.79169 8.76758 6.15569C8.76758 5.52769 9.00358 4.89569 9.47958 4.41569L9.49958 4.39569C9.97958 3.91969 10.6116 3.67969 11.2436 3.67969C11.8436 3.67969 12.4436 3.89169 12.9156 4.32369C13.3876 3.89169 13.9876 3.67969 14.5836 3.67969C15.2196 3.67969 15.8556 3.91969 16.3396 4.40369L16.3436 4.40769C16.8236 4.89169 17.0636 5.52369 17.0636 6.15569C17.0636 6.79169 16.8236 7.42769 16.3396 7.91169L15.9196 8.33169ZM12.9156 9.29969L15.3196 6.89169C15.5236 6.69169 15.6236 6.42369 15.6236 6.15569C15.6236 5.89169 15.5236 5.62369 15.3236 5.42369L15.3156 5.41969C15.1156 5.21969 14.8516 5.11969 14.5836 5.11969C14.3156 5.11969 14.0516 5.21969 13.8476 5.41969L13.4236 5.84769C13.1436 6.12769 12.6876 6.12769 12.4076 5.84769L11.9796 5.41969C11.7796 5.21969 11.5116 5.11969 11.2436 5.11969C10.9796 5.11969 10.7116 5.21969 10.5116 5.41969H10.5076C10.3076 5.62369 10.2076 5.89169 10.2076 6.15569C10.2076 6.42369 10.3076 6.69169 10.5076 6.89169L12.9156 9.29969Z"
        fill="#2F80ED" />
</svg>