<svg preserveAspectRatio="none" width="100%" height="100%" overflow="visible" style="display: block;" viewBox="0 0 20 20" fill="none" xmlns="http://www.w3.org/2000/svg">
<g id="_1383669551200">
<path id="Vector" d="M20 10.26C20 10.66 19.676 10.98 19.28 10.98C18.884 10.98 18.56 10.66 18.56 10.26V3.776C18.56 3.136 18.296 2.552 17.872 2.128C17.448 1.704 16.864 1.44 16.224 1.44H3.776C3.136 1.44 2.552 1.704 2.128 2.128C1.704 2.552 1.44 3.136 1.44 3.776V16.224C1.44 16.864 1.704 17.448 2.128 17.872C2.552 18.296 3.136 18.56 3.776 18.56H19.28C19.676 18.56 20 18.884 20 19.28C20 19.676 19.676 20 19.28 20H3.776C2.736 20 1.792 19.576 1.108 18.892C0.424 18.208 1.49012e-07 17.264 1.49012e-07 16.224V3.776C1.49012e-07 2.736 0.424 1.792 1.108 1.108C1.792 0.424 2.736 0 3.776 0H16.224C17.264 0 18.208 0.424 18.892 1.108C19.576 1.792 20 2.736 20 3.776V10.26Z" fill="var(--fill-0, #2F80ED)"/>
<path id="Vector_2" d="M9.92 12.596C10.32 12.596 10.64 12.92 10.64 13.316C10.64 13.716 10.32 14.036 9.92 14.036H3.7C3.08 14.036 2.516 14.292 2.104 14.7C1.696 15.112 1.44 15.676 1.44 16.3C1.44 16.696 1.116 17.02 0.72 17.02C0.324 17.02 0 16.696 0 16.3C0 15.28 0.416 14.352 1.088 13.684C1.756 13.012 2.684 12.596 3.7 12.596H9.92Z" fill="var(--fill-0, #2F80ED)"/>
<path id="Vector_3" d="M9.92 14.036C9.524 14.036 9.2 13.716 9.2 13.316C9.2 12.92 9.524 12.596 9.92 12.596H16.224C16.864 12.596 17.448 12.332 17.872 11.908C18.296 11.488 18.56 10.904 18.56 10.26C18.56 9.864 18.884 9.54 19.28 9.54C19.676 9.54 20 9.864 20 10.26C20 11.3 19.576 12.244 18.892 12.928C18.208 13.612 17.264 14.036 16.224 14.036H9.92Z" fill="var(--fill-0, #2F80ED)"/>
<path id="Vector_4" d="M3.7 16.944C3.304 16.944 2.98 16.62 2.98 16.224C2.98 15.828 3.304 15.504 3.7 15.504H19.28C19.676 15.504 20 15.828 20 16.224C20 16.62 19.676 16.944 19.28 16.944H3.7Z" fill="var(--fill-0, #2F80ED)"/>
<path id="Vector_5" d="M4.34 9.448C4.156 9.8 3.724 9.936 3.368 9.752C3.016 9.572 2.88 9.136 3.064 8.784L5.244 4.588C5.428 4.236 5.864 4.1 6.216 4.284C6.568 4.468 6.704 4.9 6.524 5.252L4.34 9.448Z" fill="var(--fill-0, #2F80ED)"/>
<path id="Vector_6" d="M8.704 8.784C8.888 9.136 8.752 9.572 8.4 9.752C8.044 9.936 7.612 9.8 7.428 9.448L5.244 5.252C5.064 4.9 5.2 4.468 5.552 4.284C5.904 4.1 6.34 4.236 6.524 4.588L8.704 8.784Z" fill="var(--fill-0, #2F80ED)"/>
<path id="Vector_7" d="M4.144 8.992C3.748 8.992 3.424 8.668 3.424 8.272C3.424 7.876 3.748 7.552 4.144 7.552H7.628C8.024 7.552 8.348 7.876 8.348 8.272C8.348 8.668 8.024 8.992 7.628 8.992H4.144Z" fill="var(--fill-0, #2F80ED)"/>
<path id="Vector_8" d="M15.092 9.836H12.308C11.908 9.836 11.588 9.512 11.588 9.116V7.02C11.588 6.62 11.908 6.3 12.308 6.3H15.092C15.576 6.3 16.02 6.496 16.34 6.816L16.344 6.82C16.664 7.144 16.86 7.584 16.86 8.068C16.86 8.552 16.664 8.992 16.34 9.316H16.344C16.024 9.636 15.58 9.836 15.092 9.836ZM13.028 8.396H15.092C15.184 8.396 15.264 8.36 15.324 8.3H15.328C15.384 8.24 15.42 8.16 15.42 8.068C15.42 7.976 15.384 7.892 15.328 7.836L15.324 7.832C15.268 7.776 15.184 7.74 15.092 7.74H13.028V8.396Z" fill="var(--fill-0, #2F80ED)"/>
<path id="Vector_9" d="M13.028 6.784C13.028 7.184 12.704 7.504 12.308 7.504C11.908 7.504 11.588 7.184 11.588 6.784V4.92C11.588 4.524 11.908 4.2 12.308 4.2H15.968C16.364 4.2 16.688 4.524 16.688 4.92C16.688 5.32 16.364 5.64 15.968 5.64H13.028V6.784Z" fill="var(--fill-0, #2F80ED)"/>
<path id="Vector_10" d="M10.32 6.3C10.716 6.3 11.04 6.62 11.04 7.02C11.04 7.416 10.716 7.74 10.32 7.74H9.192C8.792 7.74 8.472 7.416 8.472 7.02C8.472 6.62 8.792 6.3 9.192 6.3H10.32Z" fill="var(--fill-0, #2F80ED)"/>
</g>
</svg>
