<svg xmlns="http://www.w3.org/2000/svg" width="20" height="20" viewBox="0 0 20 20" fill="none">
    <g clip-path="url(#clip0_9169_66855)">
        <path
            d="M20 10.26C20 10.66 19.676 10.98 19.28 10.98C18.884 10.98 18.56 10.66 18.56 10.26V3.776C18.56 3.136 18.296 2.552 17.872 2.128C17.448 1.704 16.864 1.44 16.224 1.44H3.776C3.136 1.44 2.552 1.704 2.128 2.128C1.704 2.552 1.44 3.136 1.44 3.776V16.224C1.44 16.864 1.704 17.448 2.128 17.872C2.552 18.296 3.136 18.56 3.776 18.56H19.28C19.676 18.56 20 18.884 20 19.28C20 19.676 19.676 20 19.28 20H3.776C2.736 20 1.792 19.576 1.108 18.892C0.424 18.208 0 17.264 0 16.224V3.776C0 2.736 0.424 1.792 1.108 1.108C1.792 0.424 2.736 0 3.776 0H16.224C17.264 0 18.208 0.424 18.892 1.108C19.576 1.792 20 2.736 20 3.776V10.26Z"
            fill="#2F80ED" />
        <path
            d="M9.92 12.5957C10.32 12.5957 10.64 12.9197 10.64 13.3157C10.64 13.7157 10.32 14.0357 9.92 14.0357H3.7C3.08 14.0357 2.516 14.2917 2.104 14.6997C1.696 15.1117 1.44 15.6757 1.44 16.2997C1.44 16.6957 1.116 17.0197 0.72 17.0197C0.324 17.0197 0 16.6957 0 16.2997C0 15.2797 0.416 14.3517 1.088 13.6837C1.756 13.0117 2.684 12.5957 3.7 12.5957H9.92Z"
            fill="#2F80ED" />
        <path
            d="M9.91922 14.0351C9.52322 14.0351 9.19922 13.7151 9.19922 13.3151C9.19922 12.9191 9.52322 12.5951 9.91922 12.5951H16.2232C16.8632 12.5951 17.4472 12.3311 17.8712 11.9071C18.2952 11.4871 18.5592 10.9031 18.5592 10.2591C18.5592 9.86306 18.8832 9.53906 19.2792 9.53906C19.6752 9.53906 19.9992 9.86306 19.9992 10.2591C19.9992 11.2991 19.5752 12.2431 18.8912 12.9271C18.2072 13.6111 17.2632 14.0351 16.2232 14.0351H9.91922Z"
            fill="#2F80ED" />
        <path
            d="M3.70047 16.9439C3.30447 16.9439 2.98047 16.6199 2.98047 16.2239C2.98047 15.8279 3.30447 15.5039 3.70047 15.5039H19.2805C19.6765 15.5039 20.0005 15.8279 20.0005 16.2239C20.0005 16.6199 19.6765 16.9439 19.2805 16.9439H3.70047Z"
            fill="#2F80ED" />
        <path
            d="M4.34043 9.44719C4.15643 9.79918 3.72443 9.93518 3.36843 9.75118C3.01643 9.57118 2.88043 9.13518 3.06443 8.78319L5.24443 4.58718C5.42843 4.23518 5.86443 4.09918 6.21643 4.28318C6.56843 4.46718 6.70443 4.89918 6.52443 5.25118L4.34043 9.44719Z"
            fill="#2F80ED" />
        <path
            d="M8.70344 8.78319C8.88744 9.13518 8.75144 9.57118 8.39944 9.75118C8.04344 9.93518 7.61144 9.79918 7.42744 9.44719L5.24344 5.25118C5.06344 4.89918 5.19944 4.46718 5.55144 4.28318C5.90344 4.09918 6.33944 4.23518 6.52344 4.58718L8.70344 8.78319Z"
            fill="#2F80ED" />
        <path
            d="M4.14383 8.99273C3.74783 8.99273 3.42383 8.66873 3.42383 8.27273C3.42383 7.87673 3.74783 7.55273 4.14383 7.55273H7.62783C8.02383 7.55273 8.34783 7.87673 8.34783 8.27273C8.34783 8.66873 8.02383 8.99273 7.62783 8.99273H4.14383Z"
            fill="#2F80ED" />
        <path
            d="M15.0919 9.83678H12.3079C11.9079 9.83678 11.5879 9.51278 11.5879 9.11678V7.02078C11.5879 6.62078 11.9079 6.30078 12.3079 6.30078H15.0919C15.5759 6.30078 16.0199 6.49678 16.3399 6.81678L16.3439 6.82078C16.6639 7.14478 16.8599 7.58478 16.8599 8.06878C16.8599 8.55278 16.6639 8.99278 16.3399 9.31678H16.3439C16.0239 9.63678 15.5799 9.83678 15.0919 9.83678ZM13.0279 8.39678H15.0919C15.1839 8.39678 15.2639 8.36078 15.3239 8.30078H15.3279C15.3839 8.24078 15.4199 8.16078 15.4199 8.06878C15.4199 7.97678 15.3839 7.89278 15.3279 7.83678L15.3239 7.83278C15.2679 7.77678 15.1839 7.74078 15.0919 7.74078H13.0279V8.39678Z"
            fill="#2F80ED" />
        <path
            d="M13.0279 6.78322C13.0279 7.18322 12.7039 7.50322 12.3079 7.50322C11.9079 7.50322 11.5879 7.18322 11.5879 6.78322V4.91922C11.5879 4.52322 11.9079 4.19922 12.3079 4.19922H15.9679C16.3639 4.19922 16.6879 4.52322 16.6879 4.91922C16.6879 5.31922 16.3639 5.63922 15.9679 5.63922H13.0279V6.78322Z"
            fill="#2F80ED" />
        <path
            d="M10.3207 6.30078C10.7167 6.30078 11.0407 6.62078 11.0407 7.02078C11.0407 7.41678 10.7167 7.74078 10.3207 7.74078H9.19266C8.79266 7.74078 8.47266 7.41678 8.47266 7.02078C8.47266 6.62078 8.79266 6.30078 9.19266 6.30078H10.3207Z"
            fill="#2F80ED" />
    </g>
    <defs>
        <clipPath id="clip0_9169_66855">
            <rect width="20" height="20" fill="white" />
        </clipPath>
    </defs>
</svg>