<svg xmlns="http://www.w3.org/2000/svg" width="20" height="20" viewBox="0 0 20 20" fill="none">
    <g clip-path="url(#clip0_9169_66881)">
        <path
            d="M12.856 16.224C12.856 15.828 13.18 15.504 13.576 15.504C13.972 15.504 14.296 15.828 14.296 16.224C14.296 17.264 13.872 18.208 13.188 18.892C12.504 19.576 11.56 20 10.52 20H3.776C2.736 20 1.792 19.576 1.108 18.892C0.424 18.208 0 17.264 0 16.224V3.776C0 2.736 0.424 1.792 1.108 1.108C1.792 0.424 2.736 0 3.776 0H10.52C11.56 0 12.504 0.424 13.188 1.108C13.872 1.792 14.296 2.736 14.296 3.776C14.296 4.172 13.972 4.496 13.576 4.496C13.18 4.496 12.856 4.172 12.856 3.776C12.856 3.136 12.592 2.552 12.168 2.128C11.744 1.704 11.16 1.44 10.52 1.44H3.776C3.136 1.44 2.552 1.704 2.128 2.128C1.704 2.552 1.44 3.136 1.44 3.776V16.224C1.44 16.864 1.704 17.448 2.128 17.872C2.552 18.296 3.136 18.56 3.776 18.56H10.52C11.16 18.56 11.744 18.296 12.168 17.872C12.592 17.448 12.856 16.864 12.856 16.224Z"
            fill="#2F80ED" />
        <path
            d="M19.7929 9.49592C20.0689 9.77992 20.0689 10.2319 19.7849 10.5119C19.5009 10.7879 19.0489 10.7879 18.7689 10.5039L16.2729 7.97592C15.9969 7.69192 16.0009 7.23992 16.2809 6.95992C16.5649 6.68392 17.0209 6.68392 17.2969 6.96792L19.7929 9.49592Z"
            fill="#2F80ED" />
        <path
            d="M18.7689 9.49526C19.0489 9.21126 19.5009 9.21126 19.7849 9.48726C20.0689 9.76726 20.0689 10.2193 19.7929 10.5033L17.2969 13.0313C17.0209 13.3153 16.5649 13.3153 16.2809 13.0393C16.0009 12.7593 15.9969 12.3073 16.2729 12.0233L18.7689 9.49526Z"
            fill="#2F80ED" />
        <path
            d="M19.281 9.2793C19.677 9.2793 20.001 9.6033 20.001 9.9993C20.001 10.3953 19.677 10.7193 19.281 10.7193H8.51297C8.11297 10.7193 7.79297 10.3953 7.79297 9.9993C7.79297 9.6033 8.11297 9.2793 8.51297 9.2793H19.281Z"
            fill="#2F80ED" />
    </g>
    <defs>
        <clipPath id="clip0_9169_66881">
            <rect width="20" height="20" fill="white" />
        </clipPath>
    </defs>
</svg>