<svg xmlns="http://www.w3.org/2000/svg" width="20" height="20" viewBox="0 0 20 20" fill="none">
    <g clip-path="url(#clip0_9169_66845)">
        <path
            d="M10 18.56C12.364 18.56 14.504 17.6 16.052 16.052C17.6 14.504 18.56 12.364 18.56 10C18.56 7.636 17.6 5.496 16.052 3.948C14.504 2.4 12.364 1.44 10 1.44C7.636 1.44 5.496 2.4 3.948 3.948C2.4 5.496 1.44 7.636 1.44 10C1.44 12.364 2.4 14.504 3.948 16.052C5.496 17.6 7.636 18.56 10 18.56ZM17.072 17.072C15.26 18.88 12.76 20 10 20C7.24 20 4.74 18.88 2.928 17.072C1.12 15.26 0 12.76 0 10C0 7.24 1.12 4.74 2.928 2.928C4.74 1.12 7.24 0 10 0C12.76 0 15.26 1.12 17.072 2.928C18.88 4.74 20 7.24 20 10C20 12.76 18.88 15.26 17.072 17.072Z"
            fill="#2F80ED" />
        <path
            d="M8.48492 10.5511H10.8929C11.5569 10.5511 12.1609 10.2791 12.5969 9.84311C13.0329 9.40311 13.3049 8.80311 13.3049 8.13911C13.3049 7.47511 13.0329 6.87511 12.5969 6.43511C12.1609 5.99911 11.5569 5.72711 10.8929 5.72711H9.32892C9.09692 5.72711 8.88492 5.82311 8.73292 5.97511C8.57692 6.13111 8.48492 6.34311 8.48492 6.57511V10.5511ZM10.8929 11.9911H7.76492C7.36492 11.9911 7.04492 11.6671 7.04492 11.2711V6.57511C7.04492 5.94311 7.30092 5.37111 7.71292 4.95911C8.12892 4.54311 8.70092 4.28711 9.32892 4.28711H10.8929C11.9529 4.28711 12.9169 4.71911 13.6129 5.41911C14.3129 6.11511 14.7449 7.07911 14.7449 8.13911C14.7449 9.19911 14.3129 10.1631 13.6129 10.8591C12.9169 11.5551 11.9529 11.9911 10.8929 11.9911Z"
            fill="#2F80ED" />
        <path
            d="M7.04492 11.2727C7.04492 10.8727 7.36492 10.5527 7.76492 10.5527C8.16092 10.5527 8.48492 10.8727 8.48492 11.2727V14.9927C8.48492 15.3887 8.16092 15.7127 7.76492 15.7127C7.36492 15.7127 7.04492 15.3887 7.04492 14.9927V11.2727Z"
            fill="#2F80ED" />
        <path
            d="M9.99986 12.7793C10.3959 12.7793 10.7199 13.1033 10.7199 13.4993C10.7199 13.8953 10.3959 14.2193 9.99986 14.2193H5.97586C5.57986 14.2193 5.25586 13.8953 5.25586 13.4993C5.25586 13.1033 5.57986 12.7793 5.97586 12.7793H9.99986Z"
            fill="#2F80ED" />
        <path
            d="M9.54786 10.5527C9.94786 10.5527 10.2679 10.8727 10.2679 11.2727C10.2679 11.6687 9.94786 11.9927 9.54786 11.9927H5.97586C5.57986 11.9927 5.25586 11.6687 5.25586 11.2727C5.25586 10.8727 5.57986 10.5527 5.97586 10.5527H9.54786Z"
            fill="#2F80ED" />
    </g>
    <defs>
        <clipPath id="clip0_9169_66845">
            <rect width="20" height="20" fill="white" />
        </clipPath>
    </defs>
</svg>