<svg preserveAspectRatio="none" width="100%" height="100%" overflow="visible" style="display: block;" viewBox="0 0 19.9974 19.9987" fill="none" xmlns="http://www.w3.org/2000/svg">
<g id="_1383671765376">
<path id="Vector" d="M1.39868 19.512C1.27068 19.888 0.862677 20.088 0.486677 19.96C0.110677 19.832 -0.0893231 19.424 0.0386769 19.048C0.754677 16.952 2.11868 15.152 3.89068 13.888C5.61468 12.656 7.72268 11.932 9.99868 11.932C12.2747 11.932 14.3827 12.656 16.1067 13.888C17.8787 15.152 19.2427 16.952 19.9587 19.048C20.0867 19.424 19.8867 19.832 19.5107 19.96C19.1347 20.088 18.7267 19.888 18.5987 19.512C17.9787 17.7 16.8027 16.148 15.2747 15.056C13.7907 13.996 11.9667 13.372 9.99868 13.372C8.03068 13.372 6.20668 13.996 4.72268 15.056C3.19468 16.148 2.01868 17.7 1.39868 19.512Z" fill="var(--fill-0, #2F80ED)"/>
<path id="Vector_2" d="M16.0747 5.728C15.6227 4.46 14.7907 3.376 13.7107 2.616C12.6627 1.876 11.3827 1.44 9.99868 1.44C8.61468 1.44 7.33468 1.876 6.28668 2.616C5.20668 3.376 4.37468 4.46 3.92268 5.728L2.56668 5.248C3.11868 3.7 4.13868 2.372 5.45868 1.44C6.74268 0.532 8.31068 0 9.99868 0C11.6867 0 13.2547 0.532 14.5387 1.44C15.8587 2.372 16.8787 3.7 17.4267 5.248L16.0747 5.728Z" fill="var(--fill-0, #2F80ED)"/>
<path id="Vector_3" d="M5.87468 9.56C6.27468 9.56 6.59468 9.88 6.59468 10.28C6.59468 10.676 6.27468 11 5.87468 11H3.55468C2.89468 11 2.29468 10.728 1.86268 10.296C1.42668 9.86 1.15868 9.264 1.15868 8.604V7.164C1.15868 6.504 1.42668 5.904 1.86268 5.472C2.29468 5.036 2.89468 4.768 3.55468 4.768H5.87468C6.27468 4.768 6.59468 5.092 6.59468 5.488C6.59468 5.884 6.27468 6.208 5.87468 6.208H3.55468C3.29068 6.208 3.05468 6.316 2.87868 6.488C2.70668 6.664 2.59868 6.9 2.59868 7.164V8.604C2.59868 8.864 2.70668 9.104 2.87868 9.276C3.05468 9.452 3.29068 9.56 3.55468 9.56H5.87468Z" fill="var(--fill-0, #2F80ED)"/>
<path id="Vector_4" d="M14.1227 11C13.7227 11 13.4027 10.676 13.4027 10.28C13.4027 9.88 13.7227 9.56 14.1227 9.56H16.4427C16.7027 9.56 16.9427 9.452 17.1187 9.276C17.2907 9.104 17.3987 8.864 17.3987 8.604V7.164C17.3987 6.9 17.2907 6.664 17.1187 6.488C16.9427 6.316 16.7027 6.208 16.4427 6.208H14.1227C13.7227 6.208 13.4027 5.884 13.4027 5.488C13.4027 5.092 13.7227 4.768 14.1227 4.768H16.4427C17.1027 4.768 17.7027 5.036 18.1347 5.472C18.5707 5.904 18.8387 6.504 18.8387 7.164V8.604C18.8387 9.264 18.5707 9.86 18.1347 10.296C17.7027 10.728 17.1027 11 16.4427 11H14.1227Z" fill="var(--fill-0, #2F80ED)"/>
<path id="Vector_5" d="M5.23068 11C4.83468 11 4.51068 10.676 4.51068 10.28C4.51068 9.88 4.83468 9.56 5.23068 9.56H9.27868C9.67468 9.56 9.99868 9.88 9.99868 10.28C9.99868 10.676 9.67468 11 9.27868 11H5.23068Z" fill="var(--fill-0, #2F80ED)"/>
<path id="Vector_6" d="M10.0027 13.308C8.49468 13.308 7.13068 12.696 6.14268 11.712C5.15468 10.724 4.54668 9.356 4.54668 7.852C4.54668 6.344 5.15468 4.98 6.14268 3.992C7.13068 3.004 8.49468 2.392 10.0027 2.392C11.5107 2.392 12.8747 3.004 13.8627 3.992C14.8507 4.98 15.4627 6.344 15.4627 7.852C15.4627 9.356 14.8507 10.724 13.8627 11.712C12.8747 12.696 11.5107 13.308 10.0027 13.308ZM7.16268 10.692C7.89068 11.42 8.89468 11.868 10.0027 11.868C11.1147 11.868 12.1187 11.42 12.8467 10.692C13.5707 9.964 14.0227 8.96 14.0227 7.852C14.0227 6.74 13.5707 5.736 12.8467 5.008C12.1187 4.284 11.1147 3.832 10.0027 3.832C8.89468 3.832 7.89068 4.284 7.16268 5.008C6.43468 5.736 5.98668 6.74 5.98668 7.852C5.98668 8.96 6.43468 9.964 7.16268 10.692Z" fill="var(--fill-0, #2F80ED)"/>
</g>
</svg>
