<svg xmlns="http://www.w3.org/2000/svg" width="20" height="20" viewBox="0 0 20 20" fill="none">
    <g clip-path="url(#clip0_9169_66870)">
        <path
            d="M1.40063 19.5116C1.27263 19.8876 0.86463 20.0876 0.48863 19.9596C0.11263 19.8316 -0.0873699 19.4236 0.04063 19.0476C0.75663 16.9516 2.12063 15.1516 3.89263 13.8876C5.61663 12.6556 7.72463 11.9316 10.0006 11.9316C12.2766 11.9316 14.3846 12.6556 16.1086 13.8876C17.8806 15.1516 19.2446 16.9516 19.9606 19.0476C20.0886 19.4236 19.8886 19.8316 19.5126 19.9596C19.1366 20.0876 18.7286 19.8876 18.6006 19.5116C17.9806 17.6996 16.8046 16.1476 15.2766 15.0556C13.7926 13.9956 11.9686 13.3716 10.0006 13.3716C8.03263 13.3716 6.20863 13.9956 4.72463 15.0556C3.19663 16.1476 2.02063 17.6996 1.40063 19.5116Z"
            fill="#2F80ED" />
        <path
            d="M16.0764 5.728C15.6244 4.46 14.7924 3.376 13.7124 2.616C12.6644 1.876 11.3844 1.44 10.0004 1.44C8.61636 1.44 7.33636 1.876 6.28836 2.616C5.20836 3.376 4.37636 4.46 3.92436 5.728L2.56836 5.248C3.12036 3.7 4.14036 2.372 5.46036 1.44C6.74436 0.532 8.31236 0 10.0004 0C11.6884 0 13.2564 0.532 14.5404 1.44C15.8604 2.372 16.8804 3.7 17.4284 5.248L16.0764 5.728Z"
            fill="#2F80ED" />
        <path
            d="M5.87616 9.55958C6.27616 9.55958 6.59616 9.87958 6.59616 10.2796C6.59616 10.6756 6.27616 10.9996 5.87616 10.9996H3.55616C2.89616 10.9996 2.29616 10.7276 1.86416 10.2956C1.42816 9.85958 1.16016 9.26358 1.16016 8.60358V7.16358C1.16016 6.50358 1.42816 5.90358 1.86416 5.47158C2.29616 5.03558 2.89616 4.76758 3.55616 4.76758H5.87616C6.27616 4.76758 6.59616 5.09158 6.59616 5.48758C6.59616 5.88358 6.27616 6.20758 5.87616 6.20758H3.55616C3.29216 6.20758 3.05616 6.31558 2.88016 6.48758C2.70816 6.66358 2.60016 6.89958 2.60016 7.16358V8.60358C2.60016 8.86358 2.70816 9.10358 2.88016 9.27558C3.05616 9.45158 3.29216 9.55958 3.55616 9.55958H5.87616Z"
            fill="#2F80ED" />
        <path
            d="M14.1243 10.9996C13.7243 10.9996 13.4043 10.6756 13.4043 10.2796C13.4043 9.87958 13.7243 9.55958 14.1243 9.55958H16.4443C16.7043 9.55958 16.9443 9.45158 17.1203 9.27558C17.2923 9.10358 17.4003 8.86358 17.4003 8.60358V7.16358C17.4003 6.89958 17.2923 6.66358 17.1203 6.48758C16.9443 6.31558 16.7043 6.20758 16.4443 6.20758H14.1243C13.7243 6.20758 13.4043 5.88358 13.4043 5.48758C13.4043 5.09158 13.7243 4.76758 14.1243 4.76758H16.4443C17.1043 4.76758 17.7043 5.03558 18.1363 5.47158C18.5723 5.90358 18.8403 6.50358 18.8403 7.16358V8.60358C18.8403 9.26358 18.5723 9.85958 18.1363 10.2956C17.7043 10.7276 17.1043 10.9996 16.4443 10.9996H14.1243Z"
            fill="#2F80ED" />
        <path
            d="M5.23172 11.0005C4.83572 11.0005 4.51172 10.6765 4.51172 10.2805C4.51172 9.88055 4.83572 9.56055 5.23172 9.56055H9.27972C9.67572 9.56055 9.99972 9.88055 9.99972 10.2805C9.99972 10.6765 9.67572 11.0005 9.27972 11.0005H5.23172Z"
            fill="#2F80ED" />
        <path
            d="M10.0048 13.3086C8.49683 13.3086 7.13283 12.6966 6.14483 11.7126C5.15683 10.7246 4.54883 9.35658 4.54883 7.85258C4.54883 6.34458 5.15683 4.98058 6.14483 3.99258C7.13283 3.00458 8.49683 2.39258 10.0048 2.39258C11.5128 2.39258 12.8768 3.00458 13.8648 3.99258C14.8528 4.98058 15.4648 6.34458 15.4648 7.85258C15.4648 9.35658 14.8528 10.7246 13.8648 11.7126C12.8768 12.6966 11.5128 13.3086 10.0048 13.3086ZM7.16483 10.6926C7.89283 11.4206 8.89683 11.8686 10.0048 11.8686C11.1168 11.8686 12.1208 11.4206 12.8488 10.6926C13.5728 9.96458 14.0248 8.96058 14.0248 7.85258C14.0248 6.74058 13.5728 5.73658 12.8488 5.00858C12.1208 4.28458 11.1168 3.83258 10.0048 3.83258C8.89683 3.83258 7.89283 4.28458 7.16483 5.00858C6.43683 5.73658 5.98883 6.74058 5.98883 7.85258C5.98883 8.96058 6.43683 9.96458 7.16483 10.6926Z"
            fill="#2F80ED" />
    </g>
    <defs>
        <clipPath id="clip0_9169_66870">
            <rect width="20" height="20" fill="white" />
        </clipPath>
    </defs>
</svg>